<?xml version="1.0" encoding="UTF-8"?>
<!DOCTYPE svg PUBLIC "-//W3C//DTD SVG 1.1//EN" "http://www.w3.org/Graphics/SVG/1.1/DTD/svg11.dtd">
<!-- Creator: CorelDRAW -->
<svg xmlns="http://www.w3.org/2000/svg" xml:space="preserve" width="110px" height="110px" style="shape-rendering:geometricPrecision; text-rendering:geometricPrecision; image-rendering:optimizeQuality; fill-rule:evenodd; clip-rule:evenodd"
viewBox="0 0 8.40738 8.40738"
 xmlns:xlink="http://www.w3.org/1999/xlink">
 <defs>
  <style type="text/css">
   <![CDATA[
    .str0 {stroke:#4C4C4C;stroke-width:0.0757704}
    .fil0 {fill:white;fill-rule:nonzero}
   ]]>
  </style>
 </defs>
 <g id="Capa_x0020_1">
  <metadata id="CorelCorpID_0Corel-Layer"/>
  <g id="_198294976">
   <polygon id="_198294904" class="fil0 str0" points="8.36936,8.36936 0.0380194,8.36936 0.0380194,0.0380194 8.36936,0.0380194 "/>
   <path id="_198294352" class="fil0 str0" d="M0.0380194 5.24927l0.215503 0c0,0 0.195822,0.328219 0.755199,0.635505 0.559466,0.307286 1.16402,0.352462 1.16402,0.352462 0,0 0.0107349,0.604374 0.136601,0.820861 0.125867,0.216487 0.846177,1.10346 0.846177,1.10346l0 0.20772 -3.1175 0 0 -3.12z"/>
   <path id="_198295552" class="fil0 str0" d="M5.24873 8.36936l0 -0.215503c0,0 0.328219,-0.195733 0.635595,-0.755199 0.307286,-0.559377 0.352462,-1.16393 0.352462,-1.16393 0,0 0.604374,-0.0108243 0.820861,-0.136691 0.216487,-0.125867 1.10346,-0.846088 1.10346,-0.846088l0.20772 0 0 3.11741 -3.12009 0z"/>
   <path id="_198295240" class="fil0 str0" d="M8.36892 3.15865l-0.215503 0c0,0 -0.195733,-0.328219 -0.755199,-0.635595 -0.559377,-0.307197 -1.16393,-0.352373 -1.16393,-0.352373 0,0 -0.0108243,-0.604374 -0.136691,-0.820861 -0.125867,-0.216576 -0.846088,-1.10355 -0.846088,-1.10355l0 -0.20772 3.11741 0 0 3.12009z"/>
   <path id="_198294640" class="fil0 str0" d="M3.1582 0.0384667l0 0.215503c0,0 -0.328219,0.195822 -0.635595,0.755199 -0.307286,0.559466 -0.352373,1.16402 -0.352373,1.16402 0,0 -0.604463,0.0108243 -0.820861,0.136601 -0.216576,0.125956 -1.10355,0.846177 -1.10355,0.846177l-0.20772 0 0 -3.1175 3.12009 0z"/>
   <path id="_198295720" class="fil0 str0" d="M4.37464 0.0399874l0 0.864248c-0.000268372,-8.94574e-005 0.508655,0.154493 0.780337,0.444424 0.199132,0.212372 0.508476,0.745717 0.341727,1.16894 -0.167822,0.425996 -0.466699,0.4913 -0.601332,0.349152 -0.0862369,-0.0909781 -0.112716,-0.204589 -0.0677192,-0.308986 0.0638726,-0.148052 0.112895,-0.168627 0.212193,-0.193317 0.0601154,-0.0148499 0.142058,-0.0246008 0.233126,0.0344411 0.163707,0.106096 0.104486,0.00259426 0.0653933,-0.075502 -0.104039,-0.20772 -0.247171,-0.15503 -0.247171,-0.15503 0,0 0.00697767,-0.132665 -0.0140448,-0.230442 -0.0210225,-0.0977769 -0.0547479,-0.174621 -0.114774,-0.244398 -0.0600259,-0.0699557 -0.0375721,-0.0296104 -0.042045,0.0499172 -0.00509907,0.0926778 0.0169969,0.159592 -0.0110033,0.271324 -0.0280002,0.111643 -0.083911,0.230532 -0.237778,0.335197 -0.153777,0.104755 -0.188755,0.279375 -0.188755,0.300308 0,0.020933 -0.0559109,0.167643 0.1468,0.391108 0.2028,0.223465 0.398622,0.216487 0.398622,0.216487l0.133113 -0.013687c0,0 -0.0231695,0.14671 0.0370354,0.281254 0.0652144,0.146263 0.0587735,0.156103 0.256385,0.277228 0.15333,0.0939302 0.304155,0.106454 0.526009,0.0671825 0.194212,-0.0344411 0.365791,-0.173011 0.391197,-0.199937 0.125867,-0.132665 0.236704,-0.149662 0.271503,-0.146621 0.160844,0.0139553 0.160129,-0.0488437 0.0203068,-0.0768439 -0.139911,-0.0279107 -0.229995,-0.0488437 -0.307018,0.00706713 -0.0769333,0.0558214 -0.118799,-0.0280002 -0.118799,-0.0280002l-0.0644093 -0.173011c0,0 -0.0299682,-0.172205 -0.0789909,-0.01154 -0.0489332,0.160665 0.0182493,0.282059 -0.106454,0.373216 -0.0938408,0.0685243 -0.237957,0.111732 -0.385472,-0.0118978 -0.245829,-0.20611 -0.103681,-0.520105 0.155656,-0.694815 0.269535,-0.181598 0.651876,-0.0537639 0.978127,0.104844 0.421523,0.204947 0.557946,0.370175 0.697231,0.657601 0.0376616,0.0778279 0.145816,0.349778 0.145816,0.349778l0.789909 0 0 -0.43351 -0.516169 0c0,0 -0.168896,-0.397727 -0.602138,-0.68086 -0.440488,-0.287784 -0.4353,-0.290379 -0.844209,-0.400948 -0.357651,-0.0967929 -0.491568,-0.0132397 -0.491568,-0.0132397 0,0 0.106544,-0.295657 -0.1137,-0.879276 -0.111285,-0.294851 -0.372679,-0.633448 -0.964529,-0.957194l-0.0186071 -0.614662 -0.443798 0z"/>
   <path id="_198294616" class="fil0 str0" d="M4.03283 0.0399874l0 0.864248c8.94574e-005,-8.94574e-005 -0.508655,0.154493 -0.780516,0.444424 -0.199043,0.212372 -0.508386,0.745717 -0.341638,1.16894 0.167911,0.425996 0.466699,0.4913 0.601422,0.349152 0.0861474,-0.0909781 0.112627,-0.204589 0.0675403,-0.308986 -0.0637831,-0.148052 -0.112806,-0.168627 -0.212014,-0.193317 -0.0602048,-0.0148499 -0.142058,-0.0246008 -0.233215,0.0344411 -0.163707,0.106096 -0.104486,0.00259426 -0.0653039,-0.075502 0.103949,-0.20772 0.247171,-0.15503 0.247171,-0.15503 0,0 -0.00706713,-0.132665 0.0139553,-0.230442 0.0210225,-0.0977769 0.0547479,-0.174621 0.114863,-0.244398 0.0600259,-0.0699557 0.0374826,-0.0296104 0.0419555,0.0499172 0.00518853,0.0926778 -0.0169969,0.159592 0.0110033,0.271324 0.0280002,0.111643 0.083911,0.230532 0.237688,0.335197 0.153867,0.104755 0.188934,0.279375 0.188934,0.300308 0,0.020933 0.0559109,0.167643 -0.146889,0.391108 -0.20271,0.223465 -0.398533,0.216487 -0.398533,0.216487l-0.133202 -0.013687c0,0 0.0231695,0.14671 -0.0369459,0.281254 -0.0653039,0.146263 -0.0587735,0.156103 -0.256474,0.277228 -0.15324,0.0939302 -0.304155,0.106454 -0.52592,0.0671825 -0.194212,-0.0344411 -0.365881,-0.173011 -0.391287,-0.199937 -0.125777,-0.132665 -0.236704,-0.149662 -0.271503,-0.146621 -0.160844,0.0139553 -0.160129,-0.0488437 -0.0202174,-0.0768439 0.139822,-0.0279107 0.229995,-0.0488437 0.306928,0.00706713 0.0769333,0.0558214 0.118889,-0.0280002 0.118889,-0.0280002l0.0643198 -0.173011c0,0 0.0300577,-0.172205 0.0790803,-0.01154 0.0488437,0.160665 -0.0183388,0.282059 0.106365,0.373216 0.0939302,0.0685243 0.238046,0.111732 0.385561,-0.0118978 0.245739,-0.20611 0.103681,-0.520105 -0.155835,-0.694815 -0.269446,-0.181598 -0.651786,-0.0537639 -0.977948,0.104844 -0.421523,0.204947 -0.557946,0.370175 -0.697231,0.657601 -0.0376616,0.0778279 -0.145816,0.349778 -0.145816,0.349778l-0.789998 0 0 -0.43351 0.516169 0c0,0 0.168896,-0.397727 0.602138,-0.68086 0.440578,-0.287784 0.435389,-0.290379 0.84412,-0.400948 0.357829,-0.0967929 0.491747,-0.0132397 0.491747,-0.0132397 0,0 -0.106723,-0.295657 0.1137,-0.879276 0.111285,-0.294851 0.372679,-0.633448 0.964529,-0.957194l0.0186071 -0.614662 0.443798 0z"/>
   <path id="_198295840" class="fil0 str0" d="M0.0380194 4.01968l0.789998 0c0,0 0.108154,-0.27195 0.145726,-0.349778 0.139375,-0.287427 0.275797,-0.452654 0.69732,-0.657601 0.326162,-0.158697 0.708592,-0.286442 0.978037,-0.104844 0.259426,0.17471 0.401485,0.488706 0.155656,0.694726 -0.147426,0.12372 -0.291542,0.0806011 -0.385382,0.0120767 -0.124793,-0.0911571 -0.0576105,-0.21273 -0.106454,-0.373306 -0.0490226,-0.160665 -0.0789909,0.01154 -0.0789909,0.01154l-0.0644093 0.173011c0,0 -0.0419555,0.0838216 -0.118889,0.0280002 -0.0769333,-0.0560003 -0.167106,-0.0349778 -0.306928,-0.00706713 -0.139822,0.0280002 -0.140538,0.0907992 0.0202174,0.0768439 0.0348884,-0.00295209 0.145637,0.0139553 0.271593,0.146621 0.0254059,0.0269267 0.196985,0.165496 0.391197,0.199848 0.221765,0.0393612 0.372679,0.0268372 0.526009,-0.067093 0.197611,-0.121125 0.191081,-0.131055 0.256385,-0.277228 0.0601154,-0.134544 0.0369459,-0.281254 0.0369459,-0.281254l0.133202 0.013687c0,0 0.195733,0.00697767 0.398533,-0.216487 0.2028,-0.223465 0.146889,-0.370085 0.146889,-0.391108 0,-0.020933 -0.0349778,-0.195554 -0.188934,-0.300308 -0.153777,-0.104665 -0.209688,-0.223465 -0.237688,-0.335197 -0.0279107,-0.111822 -0.00581473,-0.178736 -0.0110033,-0.271324 -0.00447287,-0.0796171 0.0180704,-0.119873 -0.0419555,-0.0499172 -0.0601154,0.0697767 -0.0938408,0.146621 -0.114863,0.244398 -0.020933,0.0977769 -0.0139553,0.230442 -0.0139553,0.230442 0,0 -0.143132,-0.0526904 -0.247171,0.15503 -0.0391823,0.0781857 -0.0984031,0.181598 0.0653039,0.075502 0.0911571,-0.0590419 0.173011,-0.049291 0.233126,-0.0343516 0.0992977,0.0246008 0.14832,0.045176 0.212103,0.193228 0.0450865,0.104486 0.0186071,0.218008 -0.0675403,0.308986 -0.134723,0.142237 -0.43351,0.0768439 -0.601422,-0.349242 -0.166749,-0.423223 0.142595,-0.956568 0.341638,-1.16894 0.271861,-0.289931 0.780694,-0.444424 0.780516,-0.444335l0 -0.864248 0.341817 0 0 0.864248c-0.000268372,-8.94574e-005 0.508655,0.154403 0.780426,0.444335 0.199132,0.212372 0.508386,0.745717 0.341638,1.16894 -0.167911,0.426085 -0.466699,0.491479 -0.601422,0.349242 -0.0861474,-0.0909781 -0.112537,-0.2045 -0.0675403,-0.308986 0.0638726,-0.148052 0.112806,-0.168627 0.212103,-0.193228 0.0601154,-0.0149394 0.141969,-0.0246902 0.233126,0.0343516 0.163707,0.106096 0.104486,0.00268372 0.0653933,-0.075502 -0.104039,-0.20772 -0.247171,-0.15503 -0.247171,-0.15503 0,0 0.00697767,-0.132665 -0.0140448,-0.230442 -0.0210225,-0.0977769 -0.0547479,-0.174621 -0.114863,-0.244398 -0.0599364,-0.0699557 -0.0374826,-0.0296998 -0.0419555,0.0499172 -0.00518853,0.0925884 0.0169969,0.159502 -0.0110927,0.271324 -0.0279107,0.111732 -0.0838216,0.230532 -0.237688,0.335197 -0.153777,0.104755 -0.188755,0.279375 -0.188755,0.300308 0,0.0210225 -0.0559109,0.167643 0.1468,0.391108 0.2028,0.223465 0.398622,0.216487 0.398622,0.216487l0.133113 -0.013687c0,0 -0.0231695,0.14671 0.0369459,0.281254 0.0653933,0.146173 0.0588629,0.156103 0.256474,0.277228 0.15333,0.0939302 0.304155,0.106454 0.52592,0.067093 0.194301,-0.0343516 0.365881,-0.172921 0.391287,-0.199848 0.125867,-0.132665 0.236704,-0.149573 0.271593,-0.146621 0.160755,0.0139553 0.160039,-0.0488437 0.0201279,-0.0768439 -0.139822,-0.0279107 -0.229905,-0.0489332 -0.306928,0.00706713 -0.0769333,0.0558214 -0.118799,-0.0280002 -0.118799,-0.0280002l-0.0644093 -0.173011c0,0 -0.0299682,-0.172205 -0.0789909,-0.01154 -0.0489332,0.160576 0.0182493,0.282149 -0.106454,0.373306 -0.0938408,0.0685243 -0.237957,0.111643 -0.385472,-0.0120767 -0.245829,-0.20602 -0.103681,-0.520016 0.155656,-0.694726 0.269535,-0.181598 0.651876,-0.0538533 0.978037,0.104844 0.421613,0.204947 0.558035,0.370175 0.69732,0.657601 0.0376616,0.0778279 0.145726,0.349778 0.145726,0.349778l0.789998 0 0 0.369906 -0.789998 0c0,0 -0.108065,0.27204 -0.145726,0.349778 -0.139285,0.287516 -0.275708,0.452744 -0.69732,0.657691 -0.326162,0.158608 -0.708502,0.286442 -0.978037,0.104844 -0.259337,-0.17471 -0.401485,-0.488706 -0.155656,-0.694726 0.147515,-0.12372 0.291631,-0.0805116 0.385472,-0.0119873 0.124704,0.0910676 0.0575211,0.212551 0.106454,0.373216 0.0490226,0.160576 0.0789909,-0.01154 0.0789909,-0.01154l0.0644093 -0.173011c0,0 0.041866,-0.0838216 0.118799,-0.0280002 0.0770228,0.0559109 0.167106,0.0349778 0.306928,0.00697767 0.139911,-0.0279107 0.140627,-0.0907992 -0.0201279,-0.0767544 -0.0348884,0.00295209 -0.145726,-0.0140448 -0.271593,-0.14671 -0.0254059,-0.0268372 -0.196985,-0.165496 -0.391287,-0.199848 -0.221765,-0.0392718 -0.37259,-0.0267478 -0.52592,0.0671825 -0.197611,0.121036 -0.191081,0.130966 -0.256474,0.277318 -0.0601154,0.134454 -0.0369459,0.281165 -0.0369459,0.281165l-0.133113 -0.013687c0,0 -0.195822,-0.00706713 -0.398622,0.216487 -0.20271,0.223465 -0.1468,0.370085 -0.1468,0.391108 0,0.0210225 0.0349778,0.195554 0.188755,0.300219 0.153867,0.104755 0.209778,0.223554 0.237688,0.335376 0.0280896,0.111732 0.00590419,0.178557 0.0110927,0.271235 0.00447287,0.0795276 -0.0179809,0.119873 0.0419555,0.0500067 0.0601154,-0.0698662 0.0938408,-0.1468 0.114863,-0.244487 0.0210225,-0.0977769 0.0140448,-0.230442 0.0140448,-0.230442 0,0 0.143132,0.0526904 0.247171,-0.15503 0.0390929,-0.0781857 0.0983136,-0.181598 -0.0653933,-0.0754126 -0.0911571,0.0589524 -0.173011,0.0492016 -0.233126,0.0342622 -0.0992977,-0.0246008 -0.148231,-0.045176 -0.212103,-0.193317 -0.0449971,-0.104307 -0.0186071,-0.217918 0.0675403,-0.308896 0.134723,-0.142148 0.43351,-0.0768439 0.601422,0.349152 0.166749,0.423223 -0.142506,0.956568 -0.341638,1.16894 -0.271771,0.289931 -0.780694,0.444424 -0.780426,0.444424l0 0.864248 -0.341817 0 0 -0.864248c0.000178915,0 -0.508655,-0.154493 -0.780516,-0.444424 -0.199043,-0.212372 -0.508386,-0.745717 -0.341638,-1.16894 0.167911,-0.425996 0.466699,-0.4913 0.601422,-0.349152 0.0861474,0.0909781 0.112627,0.204589 0.0675403,0.308896 -0.0637831,0.148141 -0.112806,0.168717 -0.212103,0.193317 -0.0601154,0.0149394 -0.141969,0.0246902 -0.233126,-0.0342622 -0.163707,-0.106186 -0.104486,-0.00277318 -0.0653039,0.0754126 0.104039,0.20772 0.247171,0.15503 0.247171,0.15503 0,0 -0.00697767,0.132665 0.0139553,0.230442 0.0210225,0.0976874 0.0547479,0.174621 0.114863,0.244487 0.0600259,0.0698662 0.0374826,0.0295209 0.0419555,-0.0500067 0.00518853,-0.0926778 -0.0169074,-0.159502 0.0110033,-0.271235 0.0280002,-0.111822 0.083911,-0.230621 0.237688,-0.335376 0.153956,-0.104665 0.188934,-0.279196 0.188934,-0.300219 0,-0.0210225 0.0559109,-0.167643 -0.146889,-0.391108 -0.2028,-0.223554 -0.398533,-0.216487 -0.398533,-0.216487l-0.133202 0.013687c0,0 0.0231695,-0.14671 -0.0369459,-0.281165 -0.0653039,-0.146352 -0.0587735,-0.156282 -0.256385,-0.277318 -0.15333,-0.0939302 -0.304245,-0.106454 -0.526009,-0.0671825 -0.194212,0.0343516 -0.365791,0.173011 -0.391197,0.199848 -0.125956,0.132665 -0.236704,0.149662 -0.271593,0.14671 -0.160755,-0.0140448 -0.160039,0.0488437 -0.0202174,0.0767544 0.139822,0.0280002 0.229995,0.0489332 0.306928,-0.00697767 0.0769333,-0.0558214 0.118889,0.0280002 0.118889,0.0280002l0.0644093 0.173011c0,0 0.0299682,0.172116 0.0789909,0.01154 0.0488437,-0.160665 -0.0183388,-0.282149 0.106454,-0.373216 0.0938408,-0.0685243 0.237957,-0.111732 0.385382,0.0119873 0.245829,0.20602 0.103771,0.520016 -0.155656,0.694726 -0.269446,0.181598 -0.651876,0.0537639 -0.978037,-0.104844 -0.421523,-0.204947 -0.557946,-0.370175 -0.69732,-0.657691 -0.0375721,-0.0777385 -0.145726,-0.349778 -0.145726,-0.349778l-0.789998 0 0 -0.369906z"/>
   <path id="_198295624" class="fil0 str0" d="M4.37464 8.36927l0 -0.864158c-0.000268372,0 0.508655,-0.154493 0.780337,-0.444424 0.199132,-0.212372 0.508476,-0.745717 0.341727,-1.16894 -0.167822,-0.425996 -0.466699,-0.4913 -0.601332,-0.349152 -0.0862369,0.0909781 -0.112716,0.204589 -0.0677192,0.308986 0.0638726,0.147962 0.112895,0.168627 0.212193,0.193228 0.0601154,0.0149394 0.142058,0.0246902 0.233126,-0.0343516 0.163707,-0.106096 0.104486,-0.00268372 0.0653933,0.075502 -0.104039,0.207631 -0.247171,0.15503 -0.247171,0.15503 0,0 0.00697767,0.132665 -0.0140448,0.230442 -0.0210225,0.0976874 -0.0547479,0.174621 -0.114774,0.244487 -0.0600259,0.0697767 -0.0375721,0.0295209 -0.042045,-0.0500067 -0.00509907,-0.0926778 0.0169969,-0.159502 -0.0110033,-0.271324 -0.0280002,-0.111732 -0.083911,-0.230442 -0.237778,-0.335197 -0.153777,-0.104755 -0.188755,-0.279375 -0.188755,-0.300308 0,-0.0210225 -0.0559109,-0.167643 0.1468,-0.391108 0.2028,-0.223554 0.398622,-0.216487 0.398622,-0.216487l0.133113 0.013687c0,0 -0.0231695,-0.14671 0.0370354,-0.281254 0.0652144,-0.146173 0.0587735,-0.156193 0.256385,-0.277228 0.15333,-0.0939302 0.304155,-0.106365 0.526009,-0.0671825 0.194212,0.0343516 0.365791,0.173011 0.391197,0.199848 0.125867,0.132665 0.236704,0.149662 0.271503,0.14671 0.160844,-0.0140448 0.160129,0.0489332 0.0203068,0.0768439 -0.139911,0.0279107 -0.229995,0.0488437 -0.307018,-0.00706713 -0.0769333,-0.0558214 -0.118799,0.0280002 -0.118799,0.0280002l-0.0644093 0.173011c0,0 -0.0299682,0.172116 -0.0789909,0.01154 -0.0489332,-0.160665 0.0182493,-0.282149 -0.106454,-0.373216 -0.0938408,-0.0685243 -0.237957,-0.111732 -0.385472,0.0119873 -0.245829,0.20602 -0.103681,0.519926 0.155656,0.694726 0.269535,0.181598 0.651876,0.0537639 0.978127,-0.104844 0.421523,-0.204947 0.557946,-0.370175 0.697231,-0.657691 0.0376616,-0.0777385 0.145816,-0.349778 0.145816,-0.349778l0.789909 0 0 0.4336 -0.516169 0c0,0 -0.168896,0.397727 -0.602138,0.68086 -0.440488,0.287874 -0.4353,0.290289 -0.844209,0.400948 -0.357651,0.0967929 -0.491568,0.0131502 -0.491568,0.0131502 0,0 0.106544,0.295746 -0.1137,0.879366 -0.111285,0.294941 -0.372679,0.633358 -0.964529,0.957104l-0.0186071 0.614662 -0.443798 0z"/>
   <path id="_198295384" class="fil0 str0" d="M4.03283 8.36927l0 -0.864158c8.94574e-005,0 -0.508655,-0.154493 -0.780516,-0.444424 -0.199043,-0.212372 -0.508386,-0.745717 -0.341638,-1.16894 0.167911,-0.425996 0.466699,-0.4913 0.601422,-0.349152 0.0861474,0.0909781 0.112627,0.204589 0.0675403,0.308986 -0.0637831,0.147962 -0.112806,0.168627 -0.212014,0.193228 -0.0602048,0.0149394 -0.142058,0.0246902 -0.233215,-0.0343516 -0.163707,-0.106096 -0.104486,-0.00268372 -0.0653039,0.075502 0.103949,0.207631 0.247171,0.15503 0.247171,0.15503 0,0 -0.00706713,0.132665 0.0139553,0.230442 0.0210225,0.0976874 0.0547479,0.174621 0.114863,0.244487 0.0600259,0.0697767 0.0374826,0.0295209 0.0419555,-0.0500067 0.00518853,-0.0926778 -0.0169969,-0.159502 0.0110033,-0.271324 0.0280002,-0.111732 0.083911,-0.230442 0.237688,-0.335197 0.153867,-0.104755 0.188934,-0.279375 0.188934,-0.300308 0,-0.0210225 0.0559109,-0.167643 -0.146889,-0.391108 -0.20271,-0.223554 -0.398533,-0.216487 -0.398533,-0.216487l-0.133202 0.013687c0,0 0.0231695,-0.14671 -0.0369459,-0.281254 -0.0653039,-0.146173 -0.0587735,-0.156193 -0.256474,-0.277228 -0.15324,-0.0939302 -0.304155,-0.106365 -0.52592,-0.0671825 -0.194212,0.0343516 -0.365881,0.173011 -0.391287,0.199848 -0.125777,0.132665 -0.236704,0.149662 -0.271503,0.14671 -0.160844,-0.0140448 -0.160129,0.0489332 -0.0202174,0.0768439 0.139822,0.0279107 0.229995,0.0488437 0.306928,-0.00706713 0.0769333,-0.0558214 0.118889,0.0280002 0.118889,0.0280002l0.0643198 0.173011c0,0 0.0300577,0.172116 0.0790803,0.01154 0.0488437,-0.160665 -0.0183388,-0.282149 0.106365,-0.373216 0.0939302,-0.0685243 0.238046,-0.111732 0.385561,0.0119873 0.245739,0.20602 0.103681,0.519926 -0.155835,0.694726 -0.269446,0.181598 -0.651786,0.0537639 -0.977948,-0.104844 -0.421523,-0.204947 -0.557946,-0.370175 -0.697231,-0.657691 -0.0376616,-0.0777385 -0.145816,-0.349778 -0.145816,-0.349778l-0.789998 0 0 0.4336 0.516169 0c0,0 0.168896,0.397727 0.602138,0.68086 0.440578,0.287874 0.435389,0.290289 0.84412,0.400948 0.357829,0.0967929 0.491747,0.0131502 0.491747,0.0131502 0,0 -0.106723,0.295746 0.1137,0.879366 0.111285,0.294941 0.372679,0.633358 0.964529,0.957104l0.0186071 0.614662 0.443798 0z"/>
   <path id="_198295432" class="fil0 str0" d="M1.01856 4.13293c0.0523326,-0.0175336 0.134812,-0.029342 0.177662,-0.0417766 0.0437447,-0.0126135 0.101087,-0.0107349 0.176589,-0.0712975 0.075502,-0.0606521 0.0684349,-0.053406 0.114505,-0.119783 0.0517064,-0.0744285 0.0836426,-0.170953 0.117279,-0.084895 0.0337254,0.0862369 0.0390929,0.0929462 0.0579684,0.114505 0.018786,0.0215592 0.0720132,0.0683454 0.106544,0.083911 0.0347989,0.0155656 0.123451,0.0364091 0.147336,0.0520642 0.0472335,0.0312206 0.0699557,0.0632464 0.0749653,0.0673614 0.031489,0.0239746 0.0315785,0.119157 0,0.143311 -0.00500961,0.00411504 -0.0277318,0.0361408 -0.0749653,0.0673614 -0.0238851,0.015655 -0.112537,0.0364986 -0.147336,0.0520642 -0.0345305,0.0154761 -0.0877577,0.0623518 -0.106544,0.083911 -0.0188755,0.0215592 -0.0242429,0.0282685 -0.0579684,0.114416 -0.033636,0.0861474 -0.0655723,-0.0104665 -0.117279,-0.0848056 -0.0460705,-0.0664668 -0.0390034,-0.0592208 -0.114505,-0.119783 -0.075502,-0.0605626 -0.132844,-0.058684 -0.176589,-0.0712975 -0.0428501,-0.0124346 -0.12533,-0.0243324 -0.177662,-0.0417766 -0.0737129,-0.0246008 -0.0736234,-0.118889 0,-0.14349z"/>
   <path id="_198295528" class="fil0 str0" d="M4.13875 7.42129c-0.0175336,-0.0522431 -0.0292526,-0.134633 -0.0417766,-0.177394 -0.0127029,-0.0437447 -0.0107349,-0.100997 -0.071387,-0.17641 -0.0606521,-0.0753231 -0.0534955,-0.068256 -0.119962,-0.114416 -0.074518,-0.0515274 -0.171132,-0.0834637 -0.084895,-0.1171 0.0862369,-0.033636 0.0930357,-0.0390034 0.114595,-0.0578789 0.0215592,-0.018786 0.0684349,-0.0719237 0.0840005,-0.106454 0.0155656,-0.0347095 0.0363197,-0.123272 0.0521536,-0.147068 0.0312206,-0.0472335 0.0632464,-0.0698662 0.0672719,-0.0749653 0.0229011,-0.0290736 0.10708,-0.0290736 0.129892,0 0.00411504,0.00509907 0.0361408,0.0277318 0.0673614,0.0749653 0.0157445,0.0237957 0.0365881,0.112358 0.0521536,0.147068 0.0155656,0.0345305 0.0624412,0.0876682 0.0840005,0.106454 0.0215592,0.0188755 0.028358,0.0242429 0.114595,0.0578789 0.0862369,0.033636 -0.0104665,0.0655723 -0.0849845,0.1171 -0.0664668,0.04616 -0.0592208,0.0390929 -0.119873,0.114416 -0.0606521,0.0754126 -0.058684,0.132665 -0.0714764,0.17641 -0.0123451,0.0427606 -0.0242429,0.125151 -0.0417766,0.177394 -0.0234378,0.0703135 -0.106275,0.0707608 -0.129892,0z"/>
   <path id="_198294592" class="fil0 str0" d="M6.41597 4.13302c0.00509907,-0.00411504 0.0277318,-0.0361408 0.0749653,-0.0673614 0.0238851,-0.015655 0.112537,-0.0364986 0.147336,-0.0520642 0.0345305,-0.0155656 0.0877577,-0.0623518 0.106633,-0.083911 0.018786,-0.0215592 0.0242429,-0.0282685 0.0578789,-0.114505 0.033636,-0.086058 0.0656617,0.0104665 0.117368,0.084895 0.0459811,0.0663774 0.0390034,0.0591313 0.114416,0.119783 0.075502,0.0605626 0.132844,0.058684 0.176589,0.0712975 0.0428501,0.0124346 0.12533,0.0242429 0.177662,0.0417766 0.0724605,0.0242429 0.0725499,0.119247 0,0.14349 -0.0523326,0.0174442 -0.134812,0.029342 -0.177662,0.0417766 -0.0437447,0.0126135 -0.101087,0.0107349 -0.176589,0.0712975 -0.0754126,0.0605626 -0.0684349,0.0533166 -0.114416,0.119783 -0.0517064,0.0743391 -0.0837321,0.170953 -0.117368,0.0848056 -0.033636,-0.0861474 -0.0390929,-0.0928567 -0.0578789,-0.114416 -0.0188755,-0.0215592 -0.0721026,-0.0684349 -0.106633,-0.083911 -0.0347989,-0.0155656 -0.123451,-0.0364091 -0.147336,-0.0520642 -0.0472335,-0.0312206 -0.0698662,-0.0632464 -0.0749653,-0.0673614 -0.0296104,-0.0224538 -0.0296104,-0.120946 0,-0.143311z"/>
   <path id="_198294208" class="fil0 str0" d="M4.26864 1.95974c0.00411504,-0.00518853 0.0361408,-0.0277318 0.0673614,-0.0749653 0.0157445,-0.0237957 0.0365881,-0.112358 0.0521536,-0.147068 0.0155656,-0.0345305 0.0624412,-0.0876682 0.0840005,-0.106544 0.0215592,-0.018786 0.028358,-0.0242429 0.114595,-0.0578789 0.0862369,-0.033636 -0.0104665,-0.0654828 -0.0849845,-0.1171 -0.0664668,-0.0460705 -0.0592208,-0.0390034 -0.119873,-0.114327 -0.0606521,-0.0754126 -0.058684,-0.132755 -0.0714764,-0.17641 -0.0123451,-0.0427606 -0.0242429,-0.12524 -0.0417766,-0.177483 -0.0236167,-0.0705819 -0.106454,-0.0703135 -0.129892,0 -0.0175336,0.0522431 -0.0292526,0.134723 -0.0417766,0.177483 -0.0127029,0.0436552 -0.0107349,0.100997 -0.071387,0.17641 -0.0606521,0.0753231 -0.0534955,0.068256 -0.119962,0.114327 -0.074518,0.0516169 -0.171132,0.0834637 -0.084895,0.1171 0.0862369,0.033636 0.0930357,0.0390929 0.114595,0.0578789 0.0215592,0.0188755 0.0684349,0.0720132 0.0840005,0.106544 0.0155656,0.0347095 0.0363197,0.123272 0.0521536,0.147068 0.0312206,0.0472335 0.0632464,0.0697767 0.0672719,0.0749653 0.0228116,0.0289842 0.10708,0.0289842 0.129892,0z"/>
   <path id="_198287728" class="fil0 str0" d="M4.22114 4.39987c0.0128819,0.0110927 0.0344411,0.0294315 0.0703135,0.0593997 0.0704029,0.0589524 0.0101981,0.121215 0.0175336,0.221139 0.0102876,0.140985 0.184551,0.032473 0.281343,0.0566265 0.0596681,0.0149394 0.107886,0.136422 0.182493,0.139911 0.171579,0.00787225 0.149304,0.00366775 0.162097,-0.128192 0.00760388,-0.0774701 -0.135975,-0.169253 -0.1434,-0.207004 -0.0254059,-0.13016 0.0500961,-0.261663 -0.0919622,-0.248691 -0.129445,0.0118978 -0.169164,0.0644093 -0.240909,-0.00876682 -0.0144026,-0.0147605 -0.0268372,-0.0267478 -0.0373932,-0.0365881 -0.0730867,-0.0674509 -0.0729078,-0.0190544 -0.00134186,-0.084895 0.0109138,-0.0100192 0.0237062,-0.0223643 0.038735,-0.037751 0.0717448,-0.0731761 0.111464,-0.0206647 0.240909,-0.00885628 0.142058,0.0130608 0.0665563,-0.118442 0.0919622,-0.248602 0.00742496,-0.0378405 0.151004,-0.129534 0.1434,-0.207094 -0.0127924,-0.131771 0.00948248,-0.136065 -0.162097,-0.128103 -0.0746074,0.00348884 -0.122825,0.124882 -0.182493,0.139822 -0.0967929,0.0242429 -0.271056,-0.0842688 -0.281343,0.056716 -0.0073355,0.0999239 0.0528693,0.162186 -0.0175336,0.221049 -0.0276423,0.0231695 -0.0464284,0.038914 -0.0592208,0.0497383 -0.00339938,0.00295209 -0.00644093,0.00554636 -0.00903519,0.00778279 -0.0277318,0.0237957 -0.0148499,0.0226327 -0.0415977,-0.00134186 -0.0119873,-0.0108243 -0.0319363,-0.0280002 -0.0655723,-0.0561792 -0.0704924,-0.0588629 -0.0102876,-0.121125 -0.0175336,-0.221049 -0.0102876,-0.140985 -0.18464,-0.032473 -0.281433,-0.056716 -0.0596681,-0.0149394 -0.107796,-0.136333 -0.182493,-0.139822 -0.17149,-0.00796171 -0.149304,-0.00366775 -0.162007,0.128103 -0.00760388,0.0775595 0.135886,0.169253 0.143311,0.207094 0.0254953,0.13016 -0.0500067,0.261663 0.0920516,0.248602 0.129355,-0.0118084 0.169164,-0.0643198 0.240819,0.00885628 0.033636,0.0342622 0.0560898,0.0537639 0.0707608,0.0648566 0.0313995,0.0238851 0.0313101,0.00572527 0.000178915,0.029342 -0.014671,0.0110927 -0.0372143,0.0305944 -0.0709397,0.0650355 -0.0716554,0.0731761 -0.111464,0.0206647 -0.240819,0.00876682 -0.142058,-0.0129713 -0.0665563,0.118531 -0.0920516,0.248691 -0.00742496,0.037751 -0.150915,0.129534 -0.143311,0.207004 0.0127029,0.13186 -0.00948248,0.136065 0.162007,0.128192 0.0746969,-0.00348884 0.122825,-0.124972 0.182493,-0.139911 0.0967929,-0.0241535 0.271145,0.0843583 0.281433,-0.0566265 0.00724605,-0.0999239 -0.0529588,-0.162186 0.0175336,-0.221139 0.0373932,-0.0312206 0.0587735,-0.0498278 0.0708502,-0.0607416 0.0225433,-0.0204857 0.00742496,-0.0217381 0.0342622,0.00134186z"/>
   <path id="_198295360" class="fil0 str0" d="M8.36892 0.0385561l-2.72559 0.0048307 0.0416871 0.19618c0.08078,0.0327414 0.182761,-0.00921411 0.222838,-0.00518853 0.078633,0.00778279 0.010556,0.191886 0.136422,0.162365 0.241177,-0.0568054 0.194838,0.159681 0.189202,0.218276 -0.0133291,0.139196 0.15995,0.383951 0.248691,-0.152256 0.0154761,-0.0937513 0.0490226,-0.0628885 0.0769333,-0.0279107 0.0280002,0.0347989 0.0489332,0.230442 0.0489332,0.230442 0,0 0.125867,0.0907098 0.272756,-0.020933 0.1468,-0.111822 0.389229,-0.144295 0.60831,-0.132755 0.0899047,0.0048307 -0.345484,0.350226 -0.370264,0.430469 -0.0260321,0.0844478 -0.215324,0.0500067 -0.238046,0.0444603 -0.235452,-0.056716 -0.0810484,0.296909 -0.0810484,0.296909 0,0 -0.179004,-0.0538533 -0.242966,-0.0843583 -0.0334571,-0.0159234 -0.119426,-0.0473229 -0.0803327,0.106991 0.0101981,0.0399874 0.0892785,0.174889 0.0453549,0.312564 -0.0360513,0.112716 -0.187413,0.160397 -0.187413,0.160397l0.0808695 0.210762 0.241714 0.0792592c0,0 0.0245113,-0.0718343 0.0979558,-0.146621 0.0707608,-0.0721026 0.205573,-0.0512591 0.349599,0 0.141522,0.050275 0.104933,-0.020933 0.0979558,-0.0628885 -0.00706713,-0.041866 -0.0280896,-0.260858 -0.0280896,-0.260858 0,0 0.167822,0.0322941 0.251733,0 0.0840005,-0.032473 0.00706713,-0.158161 0.00706713,-0.158161 0,0 -0.111911,-0.202621 -0.00706713,-0.209599 0.104933,-0.00688822 0.426622,-0.656349 0.426622,-0.32813 0,0.32813 0.062978,0.446929 -0.0280002,0.586661 -0.0908887,0.139553 -0.169522,0.226417 -0.0996555,0.282238 0.0698662,0.0558214 0.0488437,0.0287158 0.210135,0.0610099 0.0715659,0.0143132 0.156998,0.0647671 0.0678087,0.104039 -0.0890995,0.0392718 -0.37098,0.0729078 -0.294046,0.177662 0.0768439,0.104755 0.12363,0.0135081 0.236346,0.105112 0.0449076,0.0365881 -0.00796171,0.101087 0.0157445,0.207004 0.0288947,0.128908 0.148589,0.0234378 0.186161,0.0942881 0.0439236,0.0828375 0.0551057,0.209509 0.0551057,0.209509l0.16657 0.0339938 0 -2.72577z"/>
   <path id="_198295456" class="fil0 str0" d="M8.36883 8.36936l-0.00474124 -2.72559 -0.19618 0.0416871c-0.0328309,0.08078 0.00921411,0.182761 0.00518853,0.222838 -0.00787225,0.078633 -0.191976,0.010556 -0.162365,0.136422 0.056716,0.241177 -0.159771,0.194838 -0.218365,0.189202 -0.139196,-0.0133291 -0.383951,0.160039 0.152256,0.248781 0.0937513,0.0154761 0.0628885,0.0489332 0.0280002,0.0768439 -0.0348884,0.0280002 -0.230442,0.0489332 -0.230442,0.0489332 0,0 -0.0907992,0.125956 0.0208436,0.272756 0.111822,0.1468 0.144295,0.389229 0.132755,0.60831 -0.00474124,0.0899047 -0.350226,-0.345484 -0.430379,-0.370264 -0.0844478,-0.0260321 -0.0500067,-0.215234 -0.0445498,-0.238046 0.056716,-0.235452 -0.296909,-0.0810484 -0.296909,-0.0810484 0,0 0.0539428,-0.178915 0.0843583,-0.242966 0.0160129,-0.0334571 0.0473229,-0.119426 -0.106991,-0.0803327 -0.0399874,0.0101981 -0.174889,0.0892785 -0.312564,0.0453549 -0.112627,-0.0359619 -0.160397,-0.187413 -0.160397,-0.187413l-0.210762 0.0809589 -0.0792592 0.241714c0,0 0.0719237,0.0244219 0.146621,0.0978664 0.0721921,0.0707608 0.0512591,0.205573 0,0.349599 -0.0501856,0.141522 0.0210225,0.104933 0.0628885,0.0979558 0.041866,-0.00706713 0.260947,-0.0280002 0.260947,-0.0280002 0,0 -0.0323836,0.167733 0,0.251733 0.032473,0.083911 0.158161,0.00697767 0.158161,0.00697767 0,0 0.202531,-0.111911 0.209509,-0.00697767 0.00697767,0.104844 0.656438,0.426533 0.328219,0.426533 -0.328219,0 -0.447018,0.062978 -0.586661,-0.0280002 -0.139643,-0.0908887 -0.226417,-0.169522 -0.282327,-0.0996555 -0.0558214,0.0698662 -0.0286264,0.0488437 -0.0610099,0.210135 -0.0143132,0.0715659 -0.0646777,0.156998 -0.103949,0.0678087 -0.0393612,-0.0890995 -0.0729078,-0.37098 -0.177752,-0.294046 -0.104755,0.0769333 -0.0135081,0.12363 -0.105112,0.236346 -0.0364986,0.0449076 -0.100997,-0.00787225 -0.206915,0.0157445 -0.128908,0.0288947 -0.0234378,0.148589 -0.0942881,0.186161 -0.082927,0.044013 -0.209509,0.0551057 -0.209509,0.0551057l-0.0340833 0.16657 2.72577 0z"/>
   <path id="_198294712" class="fil0 str0" d="M0.0380194 8.36936l2.72559 -0.0048307 -0.0415977 -0.19618c-0.0808695,-0.0328309 -0.182851,0.00921411 -0.222928,0.00518853 -0.078633,-0.00778279 -0.010556,-0.191976 -0.136333,-0.162365 -0.241267,0.056716 -0.194928,-0.159771 -0.189292,-0.218365 0.0133291,-0.139196 -0.15995,-0.383951 -0.248691,0.152346 -0.0154761,0.0937513 -0.0489332,0.0627991 -0.0769333,0.0279107 -0.0279107,-0.0348884 -0.0489332,-0.230442 -0.0489332,-0.230442 0,0 -0.125867,-0.0907992 -0.272666,0.020933 -0.1468,0.111822 -0.389229,0.144205 -0.60831,0.132755 -0.0899047,-0.0048307 0.345395,-0.350315 0.370175,-0.430469 0.0260321,-0.0844478 0.215324,-0.0500067 0.238136,-0.0445498 0.235452,0.0568054 0.0810484,-0.29682 0.0810484,-0.29682 0,0 0.178915,0.0538533 0.242966,0.0842688 0.0334571,0.0160129 0.119336,0.0473229 0.0802433,-0.106902 -0.0101981,-0.0400769 -0.0892785,-0.174979 -0.0453549,-0.312654 0.0360513,-0.112627 0.187413,-0.160308 0.187413,-0.160308l-0.0808695 -0.210851 -0.241714 -0.0792592c0,0 -0.0245113,0.0719237 -0.0978664,0.146621 -0.0708502,0.0721921 -0.205573,0.0512591 -0.349599,0 -0.141522,-0.0501856 -0.105023,0.0210225 -0.0979558,0.0628885 0.00697767,0.041866 0.0280002,0.260947 0.0280002,0.260947 0,0 -0.167822,-0.0322941 -0.251733,0 -0.083911,0.032473 -0.00697767,0.158161 -0.00697767,0.158161 0,0 0.111822,0.202531 0.00697767,0.209509 -0.104933,0.00697767 -0.426622,0.656438 -0.426622,0.328219 0,-0.328219 -0.0628885,-0.447018 0.0280002,-0.586661 0.0909781,-0.139643 0.169611,-0.226417 0.0996555,-0.282238 -0.0698662,-0.0559109 -0.0487543,-0.0287158 -0.210046,-0.0610994 -0.0716554,-0.0143132 -0.157087,-0.0646777 -0.0678981,-0.103949 0.089189,-0.0393612 0.37098,-0.0729078 0.294136,-0.177662 -0.0769333,-0.104755 -0.12363,-0.0135081 -0.236436,-0.105202 -0.0449076,-0.0364986 0.00796171,-0.100997 -0.0157445,-0.206915 -0.0288947,-0.128908 -0.148589,-0.0234378 -0.186161,-0.0942881 -0.0439236,-0.082927 -0.0551057,-0.209509 -0.0551057,-0.209509l-0.16657 -0.0340833 0 2.72586z"/>
   <path id="_198294664" class="fil0 str0" d="M0.0381088 0.0384667l0.0048307 2.72559 0.196091 -0.0415977c0.0328309,-0.0808695 -0.00912465,-0.182761 -0.00509907,-0.222928 0.00778279,-0.078633 0.191886,-0.0104665 0.162365,-0.136333 -0.0568054,-0.241177 0.159681,-0.194928 0.218276,-0.189292 0.139196,0.0133291 0.383951,-0.15995 -0.152256,-0.248691 -0.0937513,-0.0154761 -0.0628885,-0.0489332 -0.0279107,-0.0769333 0.0347989,-0.0279107 0.230442,-0.0489332 0.230442,-0.0489332 0,0 0.0907098,-0.125867 -0.020933,-0.272666 -0.111822,-0.1468 -0.144295,-0.389229 -0.132755,-0.60831 0.0048307,-0.0899047 0.350226,0.345484 0.430469,0.370175 0.0844478,0.0260321 0.0500067,0.215324 0.0444603,0.238136 -0.056716,0.235452 0.296909,0.0810484 0.296909,0.0810484 0,0 -0.0538533,0.178915 -0.0843583,0.242966 -0.0159234,0.0334571 -0.0473229,0.119336 0.106991,0.0802433 0.0399874,-0.0101981 0.174889,-0.0892785 0.312564,-0.0453549 0.112716,0.0360513 0.160397,0.187413 0.160397,0.187413l0.210762 -0.0808695 0.0792592 -0.241714c0,0 -0.0718343,-0.0245113 -0.146621,-0.0978664 -0.0721026,-0.0708502 -0.0512591,-0.205573 0,-0.349599 0.050275,-0.141522 -0.020933,-0.104933 -0.0628885,-0.0979558 -0.041866,0.00697767 -0.260947,0.0280002 -0.260947,0.0280002 0,0 0.0323836,-0.167822 0,-0.251733 -0.0323836,-0.083911 -0.158071,-0.00697767 -0.158071,-0.00697767 0,0 -0.202621,0.111822 -0.209599,0.00697767 -0.00697767,-0.104933 -0.656349,-0.426622 -0.32813,-0.426622 0.32813,0 0.446929,-0.0628885 0.586661,0.0280002 0.139553,0.0909781 0.226417,0.169611 0.282238,0.0996555 0.0558214,-0.0698662 0.0287158,-0.0487543 0.0610099,-0.210046 0.0143132,-0.0716554 0.0647671,-0.156998 0.104039,-0.0678981 0.0392718,0.089189 0.0729078,0.37098 0.177662,0.294136 0.104755,-0.0769333 0.0135081,-0.12363 0.105112,-0.236436 0.0365881,-0.0449076 0.101087,0.00796171 0.207004,-0.0157445 0.128908,-0.0288947 0.0234378,-0.148589 0.0942881,-0.186161 0.0828375,-0.0439236 0.209509,-0.0551057 0.209509,-0.0551057l0.0339938 -0.16657 -2.72577 0z"/>
  </g>
 </g>
</svg>
