<?xml version="1.0" encoding="UTF-8"?>
<!DOCTYPE svg PUBLIC "-//W3C//DTD SVG 1.1//EN" "http://www.w3.org/Graphics/SVG/1.1/DTD/svg11.dtd">
<!-- Creator: CorelDRAW -->
<svg xmlns="http://www.w3.org/2000/svg" xml:space="preserve" width="111px" height="111px" style="shape-rendering:geometricPrecision; text-rendering:geometricPrecision; image-rendering:optimizeQuality; fill-rule:evenodd; clip-rule:evenodd"
viewBox="0 0 3.42863 3.42859"
 xmlns:xlink="http://www.w3.org/1999/xlink">
 <defs>
  <style type="text/css">
   <![CDATA[
    .str0 {stroke:#4C4C4C;stroke-width:0.0309007}
    .fil0 {fill:white}
   ]]>
  </style>
 </defs>
 <g id="Capa_x0020_1">
  <metadata id="CorelCorpID_0Corel-Layer"/>
  <g id="_350994144">
   <rect id="_350992512" class="fil0 str0" x="0.0154503" y="0.0154755" width="3.39773" height="3.39752"/>
   <path id="_350992560" class="fil0 str0" d="M3.41316 2.70127c-0.307511,0.177852 -0.697619,0.331261 -1.00287,0.339287 -0.226009,0.00594665 -0.457089,-0.163296 -0.416484,-0.409553 0.02707,-0.164536 0.144471,-0.260996 0.303389,-0.294158 0.0386715,-0.00806263 0.0729285,-0.0138634 0.113096,-0.0206491 0.0455302,-0.00769781 0.0974448,-0.0165266 0.146477,-0.0272889 0.298135,-0.0653037 0.633336,-0.204266 0.85639,-0.423562l0 0.835924z"/>
   <path id="_350994624" class="fil0 str0" d="M0.0154321 1.86488c0.0215247,-0.0212693 0.0429034,-0.0441803 0.0621662,-0.0669454 0.198428,-0.2344 0.252204,-0.52564 0.280478,-0.897105 0.011565,-0.152096 0.0189709,-0.318967 0.030171,-0.499008 0.00842746,-0.136299 0.0217801,-0.262856 0.0453113,-0.38635l0.708965 0c-0.0236771,0.1815 -0.033345,0.364716 -0.0409334,0.559459 -0.00430494,0.11098 -0.00988676,0.220281 -0.0179129,0.326081 -0.0268876,0.353187 -0.131045,0.688899 -0.292261,1.00575 -0.113278,0.222616 -0.265191,0.426882 -0.493426,0.605683 -0.0800426,0.0626769 -0.175992,0.126886 -0.282557,0.188542l0 -0.836106z"/>
   <path id="_350994024" class="fil0 str0" d="M0.433558 3.41319c0.0292225,-0.153154 0.0742419,-0.30171 0.145383,-0.458585 0.30835,-0.680034 0.879301,-1.17517 1.09721,-1.67112 0.0545778,-0.124223 0.0754458,-0.256217 0.0987946,-0.382483 0.0264863,-0.143084 0.0564749,-0.280368 0.146915,-0.414295 0.127251,-0.188505 0.305468,-0.276428 0.487917,-0.2873 0.252058,-0.0150308 0.513236,0.116781 0.661756,0.332757 0.0740595,0.107733 0.112293,0.237063 0.118167,0.368984 0.0143011,0.321265 -0.162894,0.659385 -0.479417,0.747052 -0.0952558,0.0264133 -0.199304,0.0371757 -0.300981,0.0492149 -0.118896,0.0140822 -0.235385,0.0299886 -0.333487,0.0748986 -0.326737,0.149651 -0.622501,0.556139 -0.802871,1.07627 -0.0668724,0.192992 -0.106091,0.377703 -0.130425,0.564384l-0.708965 0.000218895z"/>
  </g>
 </g>
</svg>
