<?xml version="1.0" encoding="UTF-8"?>
<!DOCTYPE svg PUBLIC "-//W3C//DTD SVG 1.1//EN" "http://www.w3.org/Graphics/SVG/1.1/DTD/svg11.dtd">
<!-- Creator: CorelDRAW -->
<svg xmlns="http://www.w3.org/2000/svg" xml:space="preserve" width="111px" height="111px" style="shape-rendering:geometricPrecision; text-rendering:geometricPrecision; image-rendering:optimizeQuality; fill-rule:evenodd; clip-rule:evenodd"
viewBox="0 0 5.49331 5.49331"
 xmlns:xlink="http://www.w3.org/1999/xlink">
 <defs>
  <style type="text/css">
   <![CDATA[
    .str0 {stroke:#4C4C4C;stroke-width:0.0495087}
    .fil0 {fill:none}
   ]]>
  </style>
 </defs>
 <g id="Capa_x0020_1">
  <metadata id="CorelCorpID_0Corel-Layer"/>
  <g id="_350993280">
   <rect id="_350992992" class="fil0 str0" transform="matrix(-1.25112E-014 0.471299 0.471299 1.25112E-014 0.0247677 0.0247541)" width="11.5506" height="11.5506"/>
   <path id="_350993064" class="fil0 str0" d="M0.0247251 2.90734c0.961826,0.0755783 1.40401,0.452827 1.84702,0.958611 0.560495,0.639931 1.06102,1.24345 1.84895,1.60263l-0.649459 0c-0.551552,-0.33791 -1.01999,-0.836972 -1.43833,-1.32627 -0.0113981,-0.0134439 -0.0229716,-0.026771 -0.0346035,-0.0400395 -0.377307,-0.430732 -0.754614,-0.751516 -1.57358,-0.815871l0 -0.37906z"/>
   <path id="_350992944" class="fil0 str0" d="M0.0247251 2.58597c0.961826,-0.0755783 1.40401,-0.452827 1.84702,-0.958611 0.560495,-0.639931 1.06102,-1.24345 1.84895,-1.60263l-0.649459 0c-0.551552,0.33791 -1.01999,0.836972 -1.43833,1.32627 -0.0113981,0.0134439 -0.0229716,0.026771 -0.0346035,0.0400395 -0.377307,0.430732 -0.754614,0.751516 -1.57358,0.815871l0 0.37906z"/>
   <path id="_350992800" class="fil0 str0" d="M0.0247251 0.0247251l0.936048 0c0,0.51689 -0.419158,0.936048 -0.936048,0.936048l0 -0.936048z"/>
   <path id="_350992488" class="fil0 str0" d="M0.960774 5.46858c0,-0.51689 -0.419158,-0.936048 -0.936048,-0.936048l0 0.936048 0.936048 0z"/>
   <path id="_350992320" class="fil0 str0" d="M5.46858 0.564528c-0.818969,0.0643555 -1.19628,0.385081 -1.57358,0.815813 -0.0116319,0.0132686 -0.0231469,0.0266541 -0.0346035,0.0400395 -0.41834,0.489301 -0.886773,0.988421 -1.43838,1.32627 0.55161,0.337852 1.02004,0.836972 1.43838,1.32627 0.0113981,0.0133855 0.0229716,0.026771 0.0346035,0.0400395 0.377307,0.430732 0.754614,0.751457 1.57358,0.815813l0 0.37906c-0.961826,-0.0755783 -1.40401,-0.452768 -1.84702,-0.958611 -0.560495,-0.639873 -1.06102,-1.24339 -1.84895,-1.60258 0.787931,-0.359187 1.28845,-0.962644 1.84895,-1.60258 0.443007,-0.505843 0.885195,-0.883033 1.84702,-0.958611l0 0.37906z"/>
   <path id="_350992416" class="fil0 str0" d="M4.53253 2.74665c0,-0.51689 0.419158,-0.936048 0.936048,-0.936048l0 1.8721c-0.51689,0 -0.936048,-0.419158 -0.936048,-0.936048z"/>
  </g>
 </g>
</svg>
