<?xml version="1.0" encoding="UTF-8"?>
<!DOCTYPE svg PUBLIC "-//W3C//DTD SVG 1.1//EN" "http://www.w3.org/Graphics/SVG/1.1/DTD/svg11.dtd">
<!-- Creator: CorelDRAW -->
<svg xmlns="http://www.w3.org/2000/svg" xml:space="preserve" width="111px" height="111px" style="shape-rendering:geometricPrecision; text-rendering:geometricPrecision; image-rendering:optimizeQuality; fill-rule:evenodd; clip-rule:evenodd"
viewBox="0 0 14.2253 14.2253"
 xmlns:xlink="http://www.w3.org/1999/xlink">
 <defs>
  <style type="text/css">
   <![CDATA[
    .str0 {stroke:#4C4C4C;stroke-width:0.128206}
    .fil0 {fill:white}
   ]]>
  </style>
 </defs>
 <g id="Capa_x0020_1">
  <metadata id="CorelCorpID_0Corel-Layer"/>
  <g id="_350990280">
   <polygon id="_350989992" class="fil0 str0" points="0.0641788,0.0641788 14.1611,0.0641788 14.1611,14.1611 0.0641788,14.1611 "/>
   <path id="_350990040" class="fil0 str0" d="M5.35046 0.0640275l0 7.26659c0,0.96904 0.793002,1.76204 1.76219,1.76204l0 0c0.969191,0 1.76219,-0.792851 1.76219,-1.76204l0 -7.26659 -3.52439 0z"/>
   <path id="_350990088" class="fil0 str0" d="M0.0640275 5.35046l1.72102 0c0.969191,0 1.76204,-0.792851 1.76204,-1.76204l0 -0.000151365c0,-0.969191 -0.792851,-1.76204 -1.76204,-1.76204l-1.72102 0 0 3.52423z"/>
   <path id="_350990136" class="fil0 str0" d="M3.58841 10.5004l-0.000151365 0c-0.96904,0 -1.76204,0.793002 -1.76204,1.76204l0 1.89888 3.52423 0 0 -1.89888c0,-0.96904 -0.792851,-1.76204 -1.76204,-1.76204z"/>
   <path id="_350990184" class="fil0 str0" d="M10.637 10.5004l-0.000151365 0c-0.969191,0 -1.76204,0.793002 -1.76204,1.76204l0 1.89888 3.52423 0 0 -1.89888c0,-0.96904 -0.792851,-1.76204 -1.76204,-1.76204z"/>
   <path id="_350990232" class="fil0 str0" d="M14.1613 1.82622l-1.72102 0c-0.969191,0 -1.76204,0.792851 -1.76204,1.76204l0 0.000151365c0,0.969191 0.792851,1.76204 1.76204,1.76204l1.72102 0 0 -3.52423z"/>
  </g>
 </g>
</svg>
