<?xml version="1.0" encoding="UTF-8"?>
<!DOCTYPE svg PUBLIC "-//W3C//DTD SVG 1.1//EN" "http://www.w3.org/Graphics/SVG/1.1/DTD/svg11.dtd">
<!-- Creator: CorelDRAW -->
<svg xmlns="http://www.w3.org/2000/svg" xml:space="preserve" width="111px" height="111px" style="shape-rendering:geometricPrecision; text-rendering:geometricPrecision; image-rendering:optimizeQuality; fill-rule:evenodd; clip-rule:evenodd"
viewBox="0 0 18.8092 18.8096"
 xmlns:xlink="http://www.w3.org/1999/xlink">
 <defs>
  <style type="text/css">
   <![CDATA[
    .str0 {stroke:#4C4C4C;stroke-width:0.169519}
    .fil0 {fill:white}
   ]]>
  </style>
 </defs>
 <g id="Capa_x0020_1">
  <metadata id="CorelCorpID_0Corel-Layer"/>
  <g id="_436695008">
   <polygon id="_436698752" class="fil0 str0" points="0.0848596,18.7244 0.0848596,0.0848596 18.7244,0.0848596 18.7244,18.7244 "/>
   <polygon id="_436692800" class="fil0 str0" points="18.7244,0.0848596 0.0848596,0.0848596 0.0848596,18.7244 18.7244,18.7244 "/>
   <polygon id="_436696208" class="fil0 str0" points="0.0848596,18.7248 0.0848596,0.0848596 18.7244,0.0848596 18.7244,18.7248 "/>
   <path id="_436697024" class="fil0 str0" d="M12.6759 15.1687c-0.736518,-0.18473 -1.47324,-0.162314 -2.20975,0.048434 0.348445,0.183329 0.579807,0.348445 0.75493,0.505155 0.406285,0.362655 0.738919,0.842192 1.18383,1.21966 0.630443,0.534576 1.40319,0.854601 2.43791,0.79716l0.308417 -0.475334c-0.46913,-0.297209 -0.775345,-0.795559 -1.14561,-1.24588 -0.437908,-0.532574 -0.666468,-0.68308 -1.32973,-0.849197z"/>
   <path id="_436696904" class="fil0 str0" d="M15.1687 12.6759c-0.18473,-0.736518 -0.162314,-1.47324 0.048434,-2.20995 0.183329,0.348645 0.348645,0.580008 0.505155,0.755131 0.362655,0.406285 0.842392,0.738919 1.21966,1.18383 0.534576,0.630243 0.854801,1.40299 0.79716,2.43791l-0.475334 0.308217c-0.297209,-0.46893 -0.795559,-0.775345 -1.24588,-1.1454 -0.532574,-0.438108 -0.68308,-0.666468 -0.849197,-1.32973z"/>
   <path id="_436696736" class="fil0 str0" d="M12.525 17.7457c-0.687883,0.0636447 -1.34735,-0.0334235 -1.97619,-0.300611 -0.602023,-0.25598 -1.08937,-0.598621 -1.50966,-1.09637 -0.218153,-0.258181 -0.445513,-0.549786 -0.804565,-0.860405 2.23157,-0.271191 2.93426,1.46803 4.29041,2.25739z"/>
   <path id="_436696664" class="fil0 str0" d="M17.7459 12.525c0.0634446,-0.688084 -0.0334235,-1.34735 -0.300811,-1.97639 -0.25598,-0.601823 -0.598621,-1.08937 -1.09617,-1.50966 -0.258181,-0.218153 -0.549786,-0.445513 -0.860405,-0.804565 -0.271391,2.23157 1.46783,2.93446 2.25739,4.29062z"/>
   <path id="_436696592" class="fil0 str0" d="M10.1948 17.7647c-1.53188,0.048434 -2.75474,-0.451317 -3.5631,-1.68478 1.60293,-0.437107 2.1289,1.12299 3.5631,1.68478z"/>
   <path id="_436696376" class="fil0 str0" d="M17.7647 10.1948c0.048434,-1.53208 -0.451117,-2.75474 -1.68478,-3.5633 -0.437107,1.60293 1.12319,2.1289 1.68478,3.5633z"/>
   <path id="_436696304" class="fil0 str0" d="M7.47025 17.7457c-0.652859,-0.290604 -0.709499,-1.74222 -3.03313,-0.860004 1.29471,1.2793 2.19454,0.666068 3.03313,0.860004z"/>
   <path id="_436696112" class="fil0 str0" d="M17.7459 7.47005c-0.290804,-0.652659 -1.74222,-0.709298 -0.860204,-3.03293 1.2793,1.29471 0.666068,2.19434 0.860204,3.03293z"/>
   <path id="_436697888" class="fil0 str0" d="M4.70851 17.6526c-2.37667,0.257581 -3.81268,-0.0122086 -4.21656,-0.860204 3.94517,-0.280797 2.65086,0.448915 4.21656,0.860204z"/>
   <path id="_436696160" class="fil0 str0" d="M17.7459 4.70851c0.257581,-2.37687 -0.0122086,-3.81268 -0.860204,-4.21676 -0.280797,3.94537 0.448915,2.65086 0.860204,4.21676z"/>
   <path id="_436696400" class="fil0 str0" d="M1.9968 13.1442c0.0942662,0.0338238 0.347844,0.0832585 0.585612,0.208547 0.162314,0.0854601 0.301212,0.137497 0.418694,0.161914 0.519965,0.108076 0.850598,-0.513961 0.128891,-0.631043 -0.165716,-0.027019 -0.360453,-0.0434305 -0.54018,-0.0852599 -1.38758,-0.323828 -1.1442,-1.80887 -0.38407,-1.50866 0.36946,0.137296 0.642451,0.422697 0.899032,0.703294 0.571402,0.624639 1.18683,0.433505 0.314621,-0.303413 -1.05874,-0.894429 -0.0338238,-1.86391 0.546984,-0.820977 0.210348,0.377665 0.188933,0.602824 0.48354,1.00911 0.44131,0.608027 0.975686,1.04874 1.72581,1.10097 0.363055,0.304214 0.360253,0.629042 0,0.974084 -0.386472,0.111478 -0.623638,0.408687 -0.811971,0.791756 -0.304014,0.618234 -0.292606,0.892227 -0.878217,1.39398 -0.545984,0.468129 -1.00531,0.437107 -0.960475,0.0206145 0.0530373,-0.492346 0.401682,-1.23907 0.219354,-1.22946 -0.15671,0.00800563 -0.471531,0.304814 -0.580208,0.430503 -0.112879,0.130692 -0.223557,0.282799 -0.335436,0.425099 -0.877417,1.11698 -1.66657,-0.00800563 -0.873414,-0.577005 0.545183,-0.390875 2.91025,-1.16302 0.762736,-1.05594 -0.27059,0.0134094 -0.588213,0.061243 -0.879418,0.0952669 -1.95497,0.228761 -1.62314,-1.74202 0.158111,-1.10338z"/>
   <path id="_436697912" class="fil0 str0" d="M13.1442 1.9966c0.0338238,0.0944664 0.0834586,0.347844 0.208547,0.585812 0.0854601,0.162114 0.137697,0.301212 0.162114,0.418694 0.107876,0.519965 -0.513961,0.850398 -0.631244,0.128891 -0.0268188,-0.165917 -0.0432304,-0.360653 -0.0850598,-0.54038 -0.323828,-1.38758 -1.80887,-1.1442 -1.50886,-0.38407 0.137296,0.36966 0.422697,0.642652 0.703294,0.899232 0.624639,0.571201 0.433505,1.18683 -0.303413,0.314621 -0.894429,-1.05874 -1.86371,-0.0340239 -0.820977,0.546784 0.377866,0.210548 0.602824,0.189133 1.00911,0.48354 0.608027,0.44131 1.04874,0.975686 1.10117,1.72601 0.364856,0.434305 0.691286,0.453319 0.973884,0 0.111678,-0.386672 0.408887,-0.623838 0.791756,-0.812171 0.618234,-0.304014 0.892227,-0.292405 1.39398,-0.878017 0.468129,-0.545984 0.437107,-1.00551 0.0206145,-0.960475 -0.492346,0.0530373 -1.23907,0.401482 -1.22946,0.219154 0.00800563,-0.15671 0.304814,-0.471531 0.430503,-0.580208 0.130892,-0.112879 0.282799,-0.223557 0.425099,-0.335436 1.11719,-0.877216 -0.00780548,-1.66657 -0.576805,-0.873214 -0.391075,0.544983 -1.16322,2.91004 -1.05614,0.762736 0.0134094,-0.27059 0.0614432,-0.588213 0.0954671,-0.879618 0.228561,-1.95497 -1.74202,-1.62294 -1.10358,0.158111z"/>
   <path id="_436697936" class="fil0 str0" d="M15.9032 15.9032l0.226359 -0.226359c-0.551588,-0.643652 -0.898431,-1.06875 -1.31833,-1.81888 -0.208947,-0.373262 -0.405485,-0.769541 -0.581008,-1.20485 -0.300611,-0.744923 -0.91124,-2.52998 -0.502353,-3.2775 0.115281,-0.211148 0.29881,-0.316422 0.561394,-0.29881l0.037026 -0.842392c-0.499151,-0.171921 -0.657662,-0.392276 -0.566998,-0.764337 0.531173,-0.0460323 0.72591,-0.282198 0.812971,-0.591416 0.150105,-0.507957 0.527971,-0.712301 1.07255,-0.694288 -0.0478336,-0.295608 -0.158912,-0.451717 -0.328831,-0.510359 -0.272592,-0.0940661 -0.531974,0.135495 -0.729112,0.324028 -0.368859,0.352248 -0.539979,0.294807 -0.357651,-0.124688 0.0816574,-0.188132 0.244372,-0.375264 0.272992,-0.557792 0.100671,-0.636647 -0.564797,-0.881419 -0.741921,-0.0920647 -0.0230162,0.102872 -0.038427,0.219955 -0.0446314,0.349446 -0.010007,0.209347 0.0494347,0.552388 -0.159112,0.684681 -0.109277,0.0694488 -0.311619,0.054038 -0.302813,-0.304014 0.0266187,-0.169719 0.132893,-0.539579 0.161313,-0.874014 0.0818575,-0.962877 -0.804766,-0.784551 -0.821777,-0.191134 -0.00800563,0.282799 0.11408,0.383269 0.17092,0.547785 0.280397,0.812571 -0.106875,1.04734 -0.381068,0.122486 -0.130492,-0.44071 -0.781149,-0.648256 -1.10217,-0.217753 0.257981,0.115281 0.438108,0.267188 0.574804,0.457722 0.234565,0.32703 0.223557,0.44071 0.288803,0.876616 0.0770541,0.514762 0.348645,0.848997 0.862606,0.875015 0.0564397,0.397479 -0.272191,0.52697 -0.690485,0.684081l0.0246173 0.780749c0.259783,0.0286201 0.492746,0.163515 0.702894,0.389474 -0.0698491,0.387672 -0.0888624,0.750928 -0.0788554,1.09997 0.0238167,0.818375 0.206545,1.15281 0.491746,1.90454 0.198339,0.488543 0.130492,0.636247 -0.31242,0.302813l-0.878217 -0.83919c-0.0392276,-0.580608 0.246373,-1.25028 -0.0548385,-1.53268 -0.232363,-0.217753 -0.37006,-0.140699 -0.651258,-0.0764537 -0.605425,0.138697 -0.823979,-0.0106075 -1.25248,-0.367058l-0.210948 0.200141 -0.19994 0.210748c0.356651,0.428301 0.505355,0.647455 0.366858,1.25288 -0.0644453,0.281198 -0.141499,0.418694 0.0764537,0.651258 0.282198,0.301212 0.951869,0.0154108 1.53248,0.0546384l0.83919 0.878217c0.333434,0.442911 0.185731,0.510759 -0.302813,0.31242 -0.751728,-0.285 -1.08616,-0.467729 -1.90454,-0.491545 -0.348845,-0.010007 -0.7121,0.00900633 -1.09997,0.0786553 -0.225959,-0.210148 -0.360854,-0.443111 -0.389474,-0.702694l-0.780548 -0.0246173c-0.157311,0.418294 -0.286601,0.746925 -0.684281,0.690485 -0.0258181,-0.514161 -0.360253,-0.785552 -0.875015,-0.862806 -0.435906,-0.0652458 -0.549586,-0.054038 -0.876416,-0.288803 -0.190534,-0.136696 -0.342641,-0.316622 -0.457922,-0.574604 -0.430302,0.321026 -0.222757,0.971683 0.217753,1.10217 0.92505,0.273993 0.690085,0.661465 -0.122286,0.381068 -0.164716,-0.0568399 -0.265186,-0.179126 -0.547985,-0.17092 -0.593217,0.0168118 -0.771742,0.903635 0.191334,0.821777 0.334235,-0.02842 0.704295,-0.134895 0.873814,-0.161313 0.358052,-0.00880619 0.373462,0.193336 0.304014,0.302813 -0.132093,0.208547 -0.475334,0.149105 -0.684681,0.159112 -0.129491,0.00620436 -0.246373,0.021415 -0.349245,0.0446314 -0.789555,0.176924 -0.544783,0.842592 0.0920647,0.741921 0.182328,-0.0288203 0.36966,-0.191334 0.557792,-0.273192 0.419495,-0.182128 0.476735,-0.0110077 0.124487,0.357651 -0.188332,0.197339 -0.418094,0.456721 -0.323828,0.729312 0.0584411,0.169719 0.214751,0.280997 0.510359,0.328831 -0.0180127,-0.544783 0.186131,-0.922448 0.694088,-1.07255 0.309417,-0.0870612 0.545583,-0.281798 0.591616,-0.813171 0.371861,-0.0904636 0.592416,0.0678477 0.764337,0.567199l0.842192 -0.037026c-0.0174122,-0.262585 0.0878617,-0.446113 0.29881,-0.561394 0.747725,-0.408887 2.53278,0.201742 3.2777,0.502153 0.435106,0.175723 0.831584,0.372262 1.20465,0.581208 0.750127,0.419895 1.17523,0.766739 1.81908,1.31833l0.226159 -0.226359z"/>
   <path id="_436697744" class="fil0 str0" d="M9.84952 9.16724c-0.17052,-0.130492 -0.372262,-0.25598 -0.553789,-0.393076 -0.777346,-0.587613 -0.303213,-0.919846 0.251577,-0.641651 0.237167,0.118683 0.497349,0.240369 0.734316,0.339639 1.10077,0.460524 1.53028,-0.832985 0.316222,-1.00351 -0.223357,-0.0316222 -0.474934,-0.0468329 -0.715903,-0.0688484 -0.948066,-0.0870612 -0.705095,-0.614031 -0.102872,-0.681679 0.220955,-0.0248174 0.458722,-0.0372262 0.679678,-0.0586412 1.33294,-0.0280197 0.871212,-1.46483 -0.316222,-0.823379 -0.136296,0.0632444 -0.278996,0.125488 -0.417293,0.186931 -0.857803,0.381668 -0.899632,-0.197339 -0.418494,-0.547585 0.214351,-0.15611 0.463526,-0.300811 0.671072,-0.451918 0.964278,-0.702894 0.0806567,-1.74062 -0.694288,-0.790556 -0.1429,0.174723 -0.279396,0.387472 -0.430102,0.576605 -0.618835,0.777546 -0.957673,0.299611 -0.636247,-0.265186 0.135895,-0.238768 0.261184,-0.510359 0.366257,-0.751928 0.463926,-1.06795 -0.829183,-1.53528 -1.00951,-0.252978 -0.029821,0.21295 -0.039828,0.450116 -0.0700492,0.675475 -0.129691,0.965679 -0.652058,0.716303 -0.68248,0.0964678 -0.0130091,-0.264986 -0.0350246,-0.551588 -0.0650457,-0.806567 -0.139898,-1.18503 -1.47744,-0.923449 -1.02932,0.217753 0.0822578,0.210148 0.192735,0.436707 0.291805,0.657262 0.329031,0.732515 -0.0308217,0.880819 -0.364456,0.614832 -0.15611,-0.124688 -0.310018,-0.367058 -0.442111,-0.528371 -0.0710499,-0.0864608 -0.1429,-0.171921 -0.216352,-0.258982 -0.76854,-0.91144 -1.69799,0.0216152 -0.788354,0.788554 0.0870612,0.0734516 0.172521,0.145302 0.258982,0.216152 0.161313,0.132093 0.403684,0.286001 0.528171,0.442311 0.265987,0.333634 0.117683,0.693487 -0.614632,0.364256 -0.220555,-0.0990696 -0.447314,-0.209347 -0.657262,-0.291805 -1.1412,-0.448115 -1.40299,0.889625 -0.217753,1.02952 0.254979,0.0300211 0.54138,0.0518364 0.806367,0.0648456 0.619836,0.0304214 0.869411,0.552989 -0.0962676,0.68248 -0.225559,0.0304214 -0.462525,0.0404284 -0.675475,0.0702494 -1.2823,0.180127 -0.814973,1.47324 0.252778,1.00931 0.24177,-0.104874 0.513161,-0.230162 0.752129,-0.366057 0.564797,-0.321426 1.04273,0.0172121 0.265186,0.636247 -0.189333,0.150506 -0.401882,0.287202 -0.576605,0.429902 -0.950068,0.774945 0.0876616,1.65877 0.790556,0.694488 0.151106,-0.207546 0.295808,-0.456721 0.451918,-0.671272 0.350246,-0.480938 0.929053,-0.439309 0.547585,0.418494 -0.0614432,0.138497 -0.123887,0.281198 -0.187131,0.417493 -0.641451,1.18723 0.795559,1.64896 0.823579,0.316022 0.021415,-0.220955 0.0336236,-0.458522 0.0586412,-0.679678 0.0676475,-0.602023 0.594618,-0.845194 0.681479,0.103072 0.0220155,0.240769 0.0374263,0.492546 0.0688484,0.715903 0.17072,1.21405 1.46423,0.784551 1.00351,-0.316422 -0.0990696,-0.236766 -0.220755,-0.497149 -0.339639,-0.734116 -0.277995,-0.55499 0.0542381,-1.02892 0.641651,-0.251577 0.137296,0.181528 0.262585,0.383069 0.393076,0.553589 0.756932,0.988895 1.67117,0.0746525 0.682279,-0.682079z"/>
   <path id="_436696976" class="fil0 str0" d="M0.0848596 0.0846595l10.8104 0c-0.318023,0.564196 -1.16022,1.58051 -2.42891,0.696489 -0.452118,-0.420095 -1.02772,-0.183929 -0.530173,0.320625 0.552588,0.406085 0.812371,0.847596 0.419295,1.36856 -0.821777,-0.659063 -1.74242,-0.763537 -2.74973,-0.382869 -1.51747,0.573403 -2.94487,2.00081 -3.51807,3.51807 -0.380667,1.00731 -0.276394,1.92815 0.382869,2.74973 -0.521166,0.393076 -0.962676,0.133494 -1.36856,-0.419094 -0.504555,-0.49755 -0.740721,0.0778547 -0.320625,0.530173 0.884021,1.26869 -0.132293,2.11068 -0.696489,2.42891l0 -10.8106z"/>
   <path id="_436697216" class="fil0 str0" d="M0.0848596 0.0846595l6.21437 0 0.000200141 0.752729c-1.30772,0.390875 -2.48014,1.10458 -3.4204,2.04444 -0.93986,0.940461 -1.65076,2.10988 -2.04143,3.4174l-0.752729 -0.000200141 0 -6.21437z"/>
   <path id="_436696952" class="fil0 str0" d="M18.7246 18.7246l-18.6397 -0.000200141 0 -0.577606 15.4519 0c0.238368,-1.32513 1.2849,-2.37147 2.61003,-2.61003l0 -15.4519 0.577806 0 0 18.6397z"/>
   <path id="_436697000" class="fil0 str0" d="M16.266 18.7244c0,-1.35755 1.10057,-2.45833 2.45833,-2.45833l0.000200141 2.45833 -2.45853 0z"/>
   <path id="_436697528" class="fil0 str0" d="M0.434505 5.5469l-0.349646 0 0.000200141 -5.46204 5.46204 -0.000200141 0 0.349646c-2.35546,0.888024 -4.22457,2.75714 -5.11259,5.11259z"/>
   <circle id="_436697264" class="fil0 str0" transform="matrix(9.09242E-015 -0.343313 0.343311 9.09247E-015 1.90399 1.90376)" r="1.11138"/>
   <circle id="_436697672" class="fil0 str0" cx="1.9039" cy="1.90385" r="0.381549"/>
   <circle id="_436696136" class="fil0 str0" transform="matrix(9.09242E-015 -0.343313 0.343311 9.09247E-015 0.858691 3.10107)" r="1.11138"/>
   <circle id="_436693736" class="fil0 str0" cx="3.1012" cy="0.858548" r="0.381549"/>
   <polygon id="_436693232" class="fil0 str0" points="0.0848596,0.0846595 2.71971,0.0846595 0.0848596,2.71951 "/>
   <path id="_436693160" class="fil0 str0" d="M1.05734 1.74523c-0.130091,-0.492546 -0.130692,-0.492346 -0.461124,-0.818375l0 -0.330832 0.330632 0c0.326229,0.330432 0.325829,0.331033 0.818375,0.461124l-0.687883 0.688084z"/>
   <polygon id="_436693088" class="fil0 str0" points="6.49096,5.91816 5.93197,5.93217 5.84491,6.67709 5.46104,7.06897 5.92656,7.65738 5.93197,8.20577 6.67709,8.29283 7.06897,8.6767 7.65738,8.21137 8.20577,8.20577 8.29303,7.46064 8.6767,7.06897 8.21137,6.48035 8.20577,5.93217 7.47405,5.84651 7.06897,5.46124 "/>
   <circle id="_436695608" class="fil0 str0" transform="matrix(6.62949E-015 -0.250317 0.250315 6.62952E-015 7.06869 7.06877)" r="2.74213"/>
  </g>
 </g>
</svg>
