<?xml version="1.0" encoding="UTF-8"?>
<!DOCTYPE svg PUBLIC "-//W3C//DTD SVG 1.1//EN" "http://www.w3.org/Graphics/SVG/1.1/DTD/svg11.dtd">
<!-- Creator: CorelDRAW -->
<svg xmlns="http://www.w3.org/2000/svg" xml:space="preserve" width="111px" height="111px" style="shape-rendering:geometricPrecision; text-rendering:geometricPrecision; image-rendering:optimizeQuality; fill-rule:evenodd; clip-rule:evenodd"
viewBox="0 0 7.69992 7.69992"
 xmlns:xlink="http://www.w3.org/1999/xlink">
 <defs>
  <style type="text/css">
   <![CDATA[
    .str0 {stroke:#4C4C4C;stroke-width:0.069396}
    .fil0 {fill:white}
   ]]>
  </style>
 </defs>
 <g id="Capa_x0020_1">
  <metadata id="CorelCorpID_0Corel-Layer"/>
  <g id="_296682576">
   <polygon id="_296683440" class="fil0 str0" points="7.66519,0.034739 0.034739,0.034739 0.034739,7.66519 7.66519,7.66519 "/>
   <path id="_296683392" class="fil0 str0" d="M3.02991 3.81825c-0.268981,0 -0.487083,0.218102 -0.487083,0.487083 0,0.268899 0.218102,0.487001 0.487083,0.487001 0.268899,0 0.487001,-0.218102 0.487001,-0.487001 0,-0.268981 -0.218102,-0.487083 -0.487001,-0.487083z"/>
   <path id="_296683344" class="fil0 str0" d="M4.26421 4.61807c-0.1968,0 -0.35632,0.159521 -0.35632,0.356238 0,0.196718 0.159521,0.35632 0.35632,0.35632 0.196718,0 0.356238,-0.159603 0.356238,-0.35632 0,-0.196718 -0.159521,-0.356238 -0.356238,-0.356238z"/>
   <path id="_296683296" class="fil0 str0" d="M2.29629 0.910423c-0.692813,0 -1.2547,0.561804 -1.2547,1.25462 0,0.692731 0.561886,1.25454 1.2547,1.25454 0.692731,0 1.25454,-0.561804 1.25454,-1.25454 0,-0.692813 -0.561804,-1.25462 -1.25454,-1.25462z"/>
   <path id="_296683248" class="fil0 str0" d="M2.29629 1.21152c-0.526574,0 -0.953519,0.427027 -0.953519,0.953519 0,0.526492 0.426945,0.953437 0.953519,0.953437 0.526492,0 0.953437,-0.426945 0.953437,-0.953437 0,-0.526492 -0.426945,-0.953519 -0.953437,-0.953519z"/>
   <path id="_296683200" class="fil0 str0" d="M6.38853 0.219249c-0.526492,0 -0.953519,0.426945 -0.953519,0.953519 0,0.526492 0.427027,0.953437 0.953519,0.953437 0.526492,0 0.953437,-0.426945 0.953437,-0.953437 0,-0.526574 -0.426945,-0.953519 -0.953437,-0.953519z"/>
   <path id="_296683152" class="fil0 str0" d="M6.38853 0.445052c-0.401792,0 -0.727634,0.325842 -0.727634,0.727716 0,0.401792 0.325842,0.727634 0.727634,0.727634 0.401792,0 0.727634,-0.325842 0.727634,-0.727634 0,-0.401874 -0.325842,-0.727716 -0.727634,-0.727716z"/>
   <path id="_296683104" class="fil0 str0" d="M4.96677 2.05746c-0.45726,0 -0.828082,0.37074 -0.828082,0.828 0,0.457178 0.370822,0.828 0.828082,0.828 0.45726,0 0.828,-0.370822 0.828,-0.828 0,-0.45726 -0.37074,-0.828 -0.828,-0.828z"/>
   <path id="_296683056" class="fil0 str0" d="M4.96374 2.33349c-0.304785,0 -0.551973,0.247105 -0.551973,0.551973 0,0.304785 0.247187,0.551973 0.551973,0.551973 0.304867,0 0.552055,-0.247187 0.552055,-0.551973 0,-0.304867 -0.247187,-0.551973 -0.552055,-0.551973z"/>
   <path id="_296683008" class="fil0 str0" d="M6.25137 4.28174c-0.443331,0 -0.802929,0.359515 -0.802929,0.802929 0,0.443331 0.359597,0.802929 0.802929,0.802929 0.443331,0 0.802929,-0.359597 0.802929,-0.802929 0,-0.443413 -0.359597,-0.802929 -0.802929,-0.802929z"/>
   <path id="_296682960" class="fil0 str0" d="M6.25137 4.45732c-0.346406,0 -0.62735,0.280943 -0.62735,0.62735 0,0.346325 0.280943,0.627268 0.62735,0.627268 0.346406,0 0.62735,-0.280943 0.62735,-0.627268 0,-0.346406 -0.280943,-0.62735 -0.62735,-0.62735z"/>
   <circle id="_296682912" class="fil0 str0" cx="0.908001" cy="5.0594" r="0.501829"/>
   <ellipse id="_296682864" class="fil0 str0" cx="0.908" cy="5.0594" rx="0.35128" ry="0.351296"/>
   <path id="_296682816" class="fil0 str0" d="M5.3158 6.24203c-0.304867,0 -0.552055,0.247187 -0.552055,0.552055 0,0.304785 0.247187,0.551973 0.552055,0.551973 0.304785,0 0.551973,-0.247187 0.551973,-0.551973 0,-0.304867 -0.247187,-0.552055 -0.551973,-0.552055z"/>
   <path id="_296682768" class="fil0 str0" d="M5.3158 6.51806c-0.152475,0 -0.276027,0.123553 -0.276027,0.276027 0,0.152311 0.123553,0.275945 0.276027,0.275945 0.152393,0 0.275945,-0.123635 0.275945,-0.275945 0,-0.152475 -0.123553,-0.276027 -0.275945,-0.276027z"/>
   <path id="_296682648" class="fil0 str0" d="M2.3625 5.66696c-0.484871,0 -0.878224,0.393271 -0.878224,0.878224 0,0.484953 0.393353,0.878224 0.878224,0.878224 0.484953,0 0.878224,-0.393271 0.878224,-0.878224 0,-0.484953 -0.393271,-0.878224 -0.878224,-0.878224z"/>
   <path id="_296682600" class="fil0 str0" d="M2.3625 5.86769c-0.374099,0 -0.67741,0.303392 -0.67741,0.677492 0,0.374181 0.30331,0.677492 0.67741,0.677492 0.374099,0 0.677492,-0.30331 0.677492,-0.677492 0,-0.374099 -0.303392,-0.677492 -0.677492,-0.677492z"/>
  </g>
 </g>
</svg>
