<?xml version="1.0" encoding="UTF-8"?>
<!DOCTYPE svg PUBLIC "-//W3C//DTD SVG 1.1//EN" "http://www.w3.org/Graphics/SVG/1.1/DTD/svg11.dtd">
<!-- Creator: CorelDRAW -->
<svg xmlns="http://www.w3.org/2000/svg" xml:space="preserve" width="111px" height="111px" style="shape-rendering:geometricPrecision; text-rendering:geometricPrecision; image-rendering:optimizeQuality; fill-rule:evenodd; clip-rule:evenodd"
viewBox="0 0 29.2648 29.2654"
 xmlns:xlink="http://www.w3.org/1999/xlink">
 <defs>
  <style type="text/css">
   <![CDATA[
    .str0 {stroke:#4C4C4C;stroke-width:0.26375}
    .fil0 {fill:none}
   ]]>
  </style>
 </defs>
 <g id="Plan_x0020_1">
  <metadata id="CorelCorpID_0Corel-Layer"/>
  <g id="_215744296">
   <rect id="_210530080" class="fil0 str0" transform="matrix(1.39472E-014 -0.105357 0.105357 1.39472E-014 0.131873 29.1329)" width="275.263" height="275.263"/>
   <rect id="_210530032" class="fil0 str0" x="0.131873" y="0.131875" width="29.001" height="29.001"/>
   <polygon id="_210529984" class="fil0 str0" points="29.1331,11.0121 22.9955,17.1491 21.6637,17.1491 21.6637,10.7154 29.1331,3.24597 "/>
   <polygon id="_210529936" class="fil0 str0" points="22.9955,12.2655 29.1331,6.12823 29.1331,11.0118 22.9955,17.1491 "/>
   <polygon id="_210529888" class="fil0 str0" points="10.7154,21.6637 3.24597,29.1331 11.0118,29.1327 17.1491,22.9955 17.1491,21.6637 "/>
   <polygon id="_210529840" class="fil0 str0" points="12.2655,22.9955 6.12823,29.1327 11.0118,29.1327 17.1491,22.9955 "/>
   <polygon id="_210529792" class="fil0 str0" points="10.7154,21.6637 3.24597,29.1331 1.21661,29.1331 9.95619,20.3932 17.1491,20.3932 17.1491,18.4199 9.25649,18.4199 0.13172,27.544 0.13172,25.5125 8.49731,17.1491 17.1491,17.1491 17.1491,8.49731 25.5125,0.13172 27.544,0.13172 18.4199,9.25649 18.4199,23.9621 13.2489,29.1327 11.0118,29.1327 17.1491,22.9955 17.1491,21.6637 "/>
   <polygon id="_210529744" class="fil0 str0" points="13.2489,29.1327 18.4199,23.9621 18.4199,9.25649 27.544,0.13172 29.1331,0.13172 29.1331,1.21661 20.3932,9.95619 20.3932,24.4544 15.7148,29.1327 "/>
   <polygon id="_210529696" class="fil0 str0" points="1.21661,29.1331 9.95619,20.3932 17.1491,20.3932 17.1491,18.4199 9.25649,18.4199 0.13172,27.544 0.13172,29.1331 "/>
   <polygon id="_210529648" class="fil0 str0" points="25.4209,21.6637 29.1331,17.9518 29.1331,15.7148 24.4544,20.3932 21.6637,20.3932 21.6637,18.4199 23.9621,18.4199 29.1331,13.2489 29.1331,11.0121 22.9955,17.1491 21.6637,17.1491 21.6637,10.7154 29.1331,3.24597 29.1331,1.21661 20.3932,9.95619 20.3932,24.4544 15.7148,29.1327 17.9518,29.1327 21.6637,25.4209 21.6637,21.6637 "/>
   <polygon id="_210529600" class="fil0 str0" points="29.1331,15.7148 24.4544,20.3932 21.6637,20.3932 21.6637,18.4199 23.9621,18.4199 29.1331,13.2489 "/>
   <polygon id="_210529552" class="fil0 str0" points="29.1331,29.1331 17.9518,29.1327 21.6637,25.4209 21.6637,21.6637 25.4209,21.6637 29.1331,17.9518 "/>
   <polygon id="_210529504" class="fil0 str0" points="29.1331,29.1331 20.9496,29.1327 23.6718,26.4109 23.6718,23.6715 23.6715,23.6718 26.4109,23.6718 29.1331,20.9496 "/>
   <path id="_210529456" class="fil0 str0" d="M0.255031 0.255031l12.3384 12.3452c-1.4075,-2.97007 -2.81469,-5.94046 -4.22219,-8.91084l-8.08658 -3.49166 -0.0295824 0.0572964z"/>
   <path id="_210529336" class="fil0 str0" d="M0.166284 0.213305c0.946325,2.23643 2.58114,5.96848 3.51034,8.16786 -1.18143,3.23195 -2.36317,6.46422 -3.54459,9.69649l0 -17.865c0,-0.103071 -0.000934181,-0.0828307 0.0342533,0.000622787z"/>
   <path id="_210529288" class="fil0 str0" d="M0.208634 0.165039l8.16225 3.52466c3.23413,-1.1808 6.47263,-2.37687 9.70676,-3.55767l-17.8653 0 -0.00373672 0.0330077z"/>
   <path id="_210529240" class="fil0 str0" d="M0.227006 0.227006l12.3658 12.3738c-2.97194,-1.40657 -5.94419,-2.81313 -8.91613,-4.21938l-3.49415 -8.13204 0.0445293 -0.0224203z"/>
  </g>
 </g>
</svg>
