<?xml version="1.0" encoding="UTF-8"?>
<!DOCTYPE svg PUBLIC "-//W3C//DTD SVG 1.1//EN" "http://www.w3.org/Graphics/SVG/1.1/DTD/svg11.dtd">
<!-- Creator: CorelDRAW -->
<svg xmlns="http://www.w3.org/2000/svg" xml:space="preserve" width="110px" height="110px" style="shape-rendering:geometricPrecision; text-rendering:geometricPrecision; image-rendering:optimizeQuality; fill-rule:evenodd; clip-rule:evenodd"
viewBox="0 0 0.50568 0.50568"
 xmlns:xlink="http://www.w3.org/1999/xlink">
 <defs>
  <style type="text/css">
   <![CDATA[
    .str0 {stroke:#4C4C4C;stroke-width:0.00455738}
    .fil0 {fill:none}
   ]]>
  </style>
 </defs>
 <g id="Plan_x0020_1">
  <metadata id="CorelCorpID_0Corel-Layer"/>
  <g id="_135226208">
   <polygon id="_113332144" class="fil0 str0" points="0.503399,0.503399 0.00228138,0.503399 0.00228138,0.00228138 0.503399,0.00228138 "/>
   <path id="_113332096" class="fil0 str0" d="M0.490642 0.490642c-0.127488,0 -0.230882,-0.103383 -0.230882,-0.230871 0.127494,0 0.230882,0.103388 0.230882,0.230871z"/>
   <path id="_113332048" class="fil0 str0" d="M0.0150334 0.0150334c0.127494,0 0.230882,0.103388 0.230882,0.230877 -0.127488,0 -0.230882,-0.103388 -0.230882,-0.230877z"/>
   <path id="_113332000" class="fil0 str0" d="M0.245931 0.259754c0,0.127488 -0.103388,0.230877 -0.230882,0.230877 0,-0.127488 0.103394,-0.230877 0.230882,-0.230877z"/>
   <path id="_113331952" class="fil0 str0" d="M0.259749 0.245926c0,-0.127488 0.103388,-0.230877 0.230877,-0.230877 0,0.127488 -0.103388,0.230877 -0.230877,0.230877z"/>
   <polygon id="_135239936" class="fil0 str0" points="0.00228138,0.00228138 0.503399,0.00228138 0.503399,0.503399 0.00228138,0.503399 "/>
  </g>
 </g>
</svg>
