<?xml version="1.0" encoding="UTF-8"?>
<!DOCTYPE svg PUBLIC "-//W3C//DTD SVG 1.1//EN" "http://www.w3.org/Graphics/SVG/1.1/DTD/svg11.dtd">
<!-- Creator: CorelDRAW -->
<svg xmlns="http://www.w3.org/2000/svg" xml:space="preserve" width="112px" height="112px" style="shape-rendering:geometricPrecision; text-rendering:geometricPrecision; image-rendering:optimizeQuality; fill-rule:evenodd; clip-rule:evenodd"
viewBox="0 0 73.7456 73.7456"
 xmlns:xlink="http://www.w3.org/1999/xlink">
 <defs>
  <style type="text/css">
   <![CDATA[
    .str0 {stroke:#4C4C4C;stroke-width:0.656326}
    .fil0 {fill:none}
   ]]>
  </style>
 </defs>
 <g id="Plan_x0020_1">
  <metadata id="CorelCorpID_0Corel-Layer"/>
  <g id="_209021016">
   <rect id="_209022312" class="fil0 str0" x="0.790247" y="0.790355" width="72.1666" height="72.1661"/>
   <path id="_209022264" class="fil0 str0" d="M0.79038 6.25098c31.4308,22.5607 48.2581,45.7785 50.3852,66.705l-9.05993 0c-2.92673,-18.5321 -18.6971,-37.371 -41.3253,-55.0097 0,-3.89844 0,-7.79687 0,-11.6953z"/>
   <path id="_209022216" class="fil0 str0" d="M36.4311 56.7749c-5.39938,5.39086 -10.8026,10.7902 -16.2028,16.1819 -6.48034,0.00232465 -12.9576,-0.00309953 -19.4387,-0.000774883 9.31564,-9.30634 18.6313,-18.6135 27.9469,-27.9198 2.96703,3.91316 5.57218,7.82554 7.69459,11.7387z"/>
   <path id="_209022168" class="fil0 str0" d="M56.7749 36.4319c5.39086,-5.40016 10.7902,-10.8034 16.1819,-16.2028 0.00232465,-6.48112 -0.00309953,-12.9576 -0.000774883,-19.4387 -9.30634,9.31564 -18.6135,18.6305 -27.9198,27.9461 3.91238,2.96703 7.82554,5.57218 11.7387,7.69536z"/>
   <path id="_209022120" class="fil0 str0" d="M0.79038 72.9568c0.000774883,-5.37536 0.000774883,-10.7507 0.00154977,-16.1253 6.82982,-6.82362 13.6596,-13.6472 20.4887,-20.4709 2.57494,2.77176 5.07781,5.63805 7.4536,8.67404 -9.31487,9.30712 -18.629,18.6142 -27.9438,27.9221z"/>
   <path id="_209022072" class="fil0 str0" d="M72.9568 0.79038c-5.37536,0.000774883 -10.7507,0.00154977 -16.1253,0.00232465 -6.82362,6.82904 -13.6472,13.6589 -20.4709,20.4887 2.77176,2.57416 5.63805,5.07703 8.67326,7.45282 9.30789,-9.31409 18.615,-18.629 27.9229,-27.9438z"/>
   <path id="_209022024" class="fil0 str0" d="M6.16264 0.789606c22.5754,31.4114 45.8537,48.2953 66.7941,50.4216l0 -9.06225c-18.5445,-2.92518 -37.4408,-18.7452 -55.0911,-41.3586 -3.90153,0 -7.80229,0 -11.7031,-0.000774883z"/>
   <path id="_209021976" class="fil0 str0" d="M46.658 46.7045c1.99145,2.6253 5.1491,8.87008 6.51909,14.3671 1.18867,-1.43741 2.37347,-2.86087 3.56291,-4.2975 1.43741,-1.1879 2.87559,-2.37657 4.31377,-3.56446 -5.50089,-1.36844 -11.7681,-4.51602 -14.3958,-6.50514z"/>
   <path id="_209021928" class="fil0 str0" d="M20.2283 72.956l21.9238 0.000774883c-1.1445,-6.02394 -3.11425,-11.3706 -5.76823,-16.1276l-16.1555 16.1269z"/>
   <path id="_209021880" class="fil0 str0" d="M72.956 20.2283l0.000774883 21.9245c-6.02394,-1.1445 -11.3706,-3.11425 -16.1276,-5.76823l16.1269 -16.1563z"/>
   <path id="_209021832" class="fil0 str0" d="M0.815177 18.0331l-0.0247962 38.7519 20.4747 -20.4856c-6.30832,-6.54001 -13.0754,-12.667 -20.4499,-18.2663z"/>
   <path id="_209021784" class="fil0 str0" d="M18.0331 0.815952l38.7511 -0.0247962 -20.4848 20.474c-6.54079,-6.30755 -12.6678,-13.0754 -18.2663,-20.4492z"/>
   <path id="_209021736" class="fil0 str0" d="M54.5347 72.9568c0,-10.1727 8.2494,-18.4228 18.4221,-18.4228l0 18.4228 -18.4221 0z"/>
   <path id="_209021616" class="fil0 str0" d="M65.0994 72.9568c0,-4.33857 3.51874,-7.85731 7.85731,-7.85731l0 7.85731 -7.85731 0z"/>
   <path id="_209021232" class="fil0 str0" d="M65.0994 72.9568c0,-4.33857 3.51874,-7.85731 7.85731,-7.85731l-0.00619906 -5.52181c-5.19946,-2.83607 -10.7693,0.112358 -6.6392,3.94958 -0.0542418,0.747762 -0.245638,1.49475 -0.575738,2.24174 -0.746987,0.3301 -1.487,0.502899 -2.23476,0.557141 -3.83954,-4.12703 -6.7934,1.43508 -3.95578,6.63067l5.55436 0z"/>
  </g>
 </g>
</svg>
