<?xml version="1.0" encoding="UTF-8"?>
<!DOCTYPE svg PUBLIC "-//W3C//DTD SVG 1.1//EN" "http://www.w3.org/Graphics/SVG/1.1/DTD/svg11.dtd">
<!-- Creator: CorelDRAW -->
<svg xmlns="http://www.w3.org/2000/svg" xml:space="preserve" width="112px" height="112px" style="shape-rendering:geometricPrecision; text-rendering:geometricPrecision; image-rendering:optimizeQuality; fill-rule:evenodd; clip-rule:evenodd"
viewBox="0 0 54.1602 54.159"
 xmlns:xlink="http://www.w3.org/1999/xlink">
 <defs>
  <style type="text/css">
   <![CDATA[
    .str0 {stroke:#4C4C4C;stroke-width:0.482008}
    .fil0 {fill:none}
   ]]>
  </style>
 </defs>
 <g id="Plan_x0020_1">
  <metadata id="CorelCorpID_0Corel-Layer"/>
  <g id="_148662184">
   <rect id="_148663144" class="fil0 str0" x="0.580024" y="0.637463" width="52.9998" height="52.8841"/>
   <polygon id="_148663384" class="fil0 str0" points="19.5085,27.0795 14.4608,22.0432 22.0324,22.0432 27.0801,27.0795 "/>
   <polygon id="_148663624" class="fil0 str0" points="34.6528,27.0784 39.7005,22.0421 32.1289,22.0421 27.0812,27.0784 "/>
   <polygon id="_148663864" class="fil0 str0" points="19.5102,27.0784 14.4625,32.1153 22.0341,32.1153 27.0812,27.0784 "/>
   <polygon id="_148664008" class="fil0 str0" points="34.6528,27.0784 39.7005,32.1153 32.1289,32.1153 27.0812,27.0784 "/>
   <polygon id="_148655992" class="fil0 str0" points="27.0801,34.6346 22.0324,39.6709 22.0324,32.1158 27.0801,27.0795 "/>
   <polygon id="_148661392" class="fil0 str0" points="27.0801,19.5245 32.1278,14.4881 32.1278,22.0432 27.0801,27.0795 "/>
   <polygon id="_148661800" class="fil0 str0" points="27.0801,19.5245 22.0324,14.4881 22.0324,22.0432 27.0801,27.0795 "/>
   <polygon id="_148662976" class="fil0 str0" points="27.0801,34.6346 32.1278,39.6709 32.1278,32.1158 27.0801,27.0795 "/>
   <polygon id="_148663744" class="fil0 str0" points="5.93376,5.92181 12.6261,5.47679 7.71839,0.57932 0.579889,0.57932 "/>
   <polygon id="_148656040" class="fil0 str0" points="5.93376,5.92181 5.48761,12.5994 0.579889,7.70245 0.579889,0.57932 "/>
   <polygon id="_148658272" class="fil0 str0" points="48.2258,5.97929 48.672,12.6574 53.5797,7.75993 53.5797,0.637366 "/>
   <polygon id="_148658128" class="fil0 str0" points="48.2258,5.97929 41.5341,5.53427 46.4418,0.637366 53.5797,0.637366 "/>
   <polygon id="_148657096" class="fil0 str0" points="48.2258,48.2372 41.5341,48.6822 46.4412,53.5791 53.5797,53.5791 "/>
   <polygon id="_148661200" class="fil0 str0" points="48.2258,48.2372 48.672,41.5597 53.5797,46.4566 53.5797,53.5791 "/>
   <polygon id="_148661512" class="fil0 str0" points="5.93376,48.1797 5.48761,41.5016 0.579889,46.3985 0.579889,53.5217 "/>
   <polygon id="_148661776" class="fil0 str0" points="5.93376,48.1797 12.6261,48.6248 7.71839,53.5217 0.579889,53.5217 "/>
  </g>
 </g>
</svg>
