<?xml version="1.0" encoding="UTF-8"?>
<!DOCTYPE svg PUBLIC "-//W3C//DTD SVG 1.1//EN" "http://www.w3.org/Graphics/SVG/1.1/DTD/svg11.dtd">
<!-- Creator: CorelDRAW -->
<svg xmlns="http://www.w3.org/2000/svg" xml:space="preserve" width="110px" height="110px" style="shape-rendering:geometricPrecision; text-rendering:geometricPrecision; image-rendering:optimizeQuality; fill-rule:evenodd; clip-rule:evenodd"
viewBox="0 0 0.734687 0.734695"
 xmlns:xlink="http://www.w3.org/1999/xlink">
 <defs>
  <style type="text/css">
   <![CDATA[
    .str0 {stroke:#4C4C4C;stroke-width:0.00662134}
    .fil0 {fill:white}
   ]]>
  </style>
 </defs>
 <g id="Capa_x0020_1">
  <metadata id="CorelCorpID_0Corel-Layer"/>
  <g id="_206582624">
   <rect id="_206582984" class="fil0 str0" x="0.00331666" y="0.00331491" width="0.728058" height="0.728066"/>
   <path id="_206582936" class="fil0 str0" d="M0.731373 0.367347c-0.201009,0 -0.364025,-0.163016 -0.364025,-0.364033 0.201009,0 0.364025,0.163016 0.364025,0.364033z"/>
   <path id="_206582888" class="fil0 str0" d="M0.367347 0.00331458c0,0.201017 -0.163016,0.364033 -0.364033,0.364033 0,-0.201017 0.163016,-0.364033 0.364033,-0.364033z"/>
   <path id="_206582864" class="fil0 str0" d="M0.367347 0.73138c0,-0.201017 0.163016,-0.364033 0.364025,-0.364033 0,0.201017 -0.163016,0.364033 -0.364025,0.364033z"/>
   <path id="_203622096" class="fil0 str0" d="M0.367347 0.73138c0,-0.201017 0.163016,-0.364033 0.364025,-0.364033 -0.201009,0 -0.364025,-0.163016 -0.364025,-0.364033 0,0.201017 -0.163016,0.364033 -0.364033,0.364033 0.201017,0 0.364033,0.163016 0.364033,0.364033z"/>
   <path id="_206582672" class="fil0 str0" d="M0.00331458 0.367347c0.201017,0 0.364033,0.163016 0.364033,0.364033 -0.201017,0 -0.364033,-0.163016 -0.364033,-0.364033z"/>
  </g>
 </g>
</svg>
