<?xml version="1.0" encoding="UTF-8"?>
<!DOCTYPE svg PUBLIC "-//W3C//DTD SVG 1.1//EN" "http://www.w3.org/Graphics/SVG/1.1/DTD/svg11.dtd">
<!-- Creator: CorelDRAW -->
<svg xmlns="http://www.w3.org/2000/svg" xml:space="preserve" width="110px" height="110px" style="shape-rendering:geometricPrecision; text-rendering:geometricPrecision; image-rendering:optimizeQuality; fill-rule:evenodd; clip-rule:evenodd"
viewBox="0 0 1.25416 1.25412"
 xmlns:xlink="http://www.w3.org/1999/xlink">
 <defs>
  <style type="text/css">
   <![CDATA[
    .str0 {stroke:#4C4C4C;stroke-width:0.0113029}
    .fil0 {fill:none}
   ]]>
  </style>
 </defs>
 <g id="Capa_x0020_1">
  <metadata id="CorelCorpID_0Corel-Layer"/>
  <g id="_202112288">
   <rect id="_202113704" class="fil0 str0" x="0.00620845" y="0.00591424" width="1.24229" height="1.24244"/>
   <rect id="_202113656" class="fil0 str0" x="0.00568763" y="0.00576941" width="1.24229" height="1.24244"/>
   <rect id="_202113608" class="fil0 str0" transform="matrix(-3.69881E-014 0.465667 -0.465665 -3.69883E-014 1.24795 0.0057215)" width="2.6682" height="2.66765"/>
   <rect id="_202113560" class="fil0 str0" x="0.0056664" y="0.00575073" width="1.24229" height="1.24244"/>
   <rect id="_202113512" class="fil0 str0" transform="matrix(6.1654E-014 -0.465667 0.465665 6.16543E-014 0.00569563 1.24824)" width="2.6682" height="2.66765"/>
   <path id="_202113464" class="fil0 str0" d="M0.556953 0.461672c-0.0705666,-0.0117833 -0.193484,-0.0576489 -0.198142,-0.144696 0.00464394,-0.0873275 0.127748,-0.133553 0.198102,-0.145377 0.02745,0.0338421 0.0622795,0.0943468 0.0631336,0.14128 0.000854058,0.0469332 -0.0270363,0.117179 -0.0630936,0.148793z"/>
   <path id="_202113416" class="fil0 str0" d="M0.461538 0.696858c-0.0117833,0.0705799 -0.0576356,0.193511 -0.144669,0.198182 -0.0873141,-0.00464394 -0.13354,-0.127775 -0.14535,-0.198142 0.0338421,-0.02745 0.0943334,-0.0622929 0.141253,-0.0631469 0.0469332,-0.000854058 0.117153,0.0270363 0.148766,0.0631069z"/>
   <path id="_202113368" class="fil0 str0" d="M0.696685 0.792286c0.0705666,0.0117833 0.193484,0.0576489 0.198142,0.144696 -0.0046306,0.0873275 -0.127748,0.133553 -0.198088,0.145377 -0.0274633,-0.0338421 -0.0622929,-0.0943468 -0.0631469,-0.14128 -0.000854058,-0.0469332 0.0270363,-0.117179 0.0630936,-0.148793z"/>
   <path id="_202113320" class="fil0 str0" d="M0.792099 0.5571c0.0117833,-0.0705799 0.0576356,-0.193511 0.144683,-0.198182 0.0873008,0.00464394 0.133527,0.127775 0.14535,0.198142 -0.0338421,0.02745 -0.0943468,0.0622929 -0.141267,0.0631469 -0.0469198,0.000854058 -0.117153,-0.0270363 -0.148766,-0.0631069z"/>
   <path id="_202113272" class="fil0 str0" d="M0.461378 0.0761446c-0.0117833,0.0705799 -0.0576356,0.193511 -0.144683,0.198182 -0.0873141,-0.00464394 -0.133527,-0.127775 -0.14535,-0.198142 0.0338421,-0.02745 0.0943334,-0.0622929 0.141267,-0.0631469 0.0469198,-0.000854058 0.117153,0.0270363 0.148766,0.0631069z"/>
   <path id="_202113224" class="fil0 str0" d="M0.0760779 0.792446c0.0705666,0.0117967 0.193484,0.0576489 0.198142,0.14471 -0.00464394,0.0873275 -0.127748,0.133553 -0.198102,0.145377 -0.02745,-0.0338554 -0.0622795,-0.0943601 -0.0631336,-0.141293 -0.000854058,-0.0469332 0.0270363,-0.117166 0.0630936,-0.148793z"/>
   <path id="_202113176" class="fil0 str0" d="M0.792273 1.17781c0.0117833,-0.0705799 0.0576356,-0.193511 0.144669,-0.198182 0.0873141,0.00464394 0.13354,0.127775 0.14535,0.198142 -0.0338421,0.02745 -0.0943334,0.0622929 -0.141253,0.0631469 -0.0469332,0.000854058 -0.117166,-0.0270363 -0.148766,-0.0631069z"/>
   <path id="_202113128" class="fil0 str0" d="M1.17757 0.461498c-0.0705666,-0.0117833 -0.193498,-0.0576356 -0.198155,-0.144696 0.00464394,-0.0873275 0.127762,-0.133553 0.198102,-0.145377 0.02745,0.0338554 0.0622929,0.0943601 0.0631469,0.141293 0.000854058,0.0469332 -0.0270363,0.117166 -0.0630936,0.14878z"/>
   <path id="_202113080" class="fil0 str0" d="M0.0759044 0.171732c0.0705666,0.0117967 0.193484,0.0576489 0.198142,0.14471 -0.0046306,0.0873275 -0.127748,0.133553 -0.198088,0.145377 -0.0274633,-0.0338554 -0.0622929,-0.0943601 -0.0631469,-0.141293 -0.000854058,-0.0469332 0.0270363,-0.117166 0.0630936,-0.148793z"/>
   <path id="_202113032" class="fil0 str0" d="M0.171652 1.17799c0.0117833,-0.0705799 0.0576356,-0.193524 0.144683,-0.198182 0.0873141,0.00464394 0.133527,0.127775 0.14535,0.198128 -0.0338421,0.0274633 -0.0943334,0.0623062 -0.141267,0.0631603 -0.0469198,0.000854058 -0.117153,-0.0270496 -0.148766,-0.0631069z"/>
   <path id="_202112984" class="fil0 str0" d="M1.17773 1.08221c-0.0705666,-0.0117833 -0.193484,-0.0576356 -0.198142,-0.144696 0.00464394,-0.0873275 0.127748,-0.133553 0.198102,-0.145377 0.02745,0.0338554 0.0622795,0.0943601 0.0631336,0.141293 0.000854058,0.0469332 -0.0270363,0.117166 -0.0630936,0.14878z"/>
   <path id="_202112936" class="fil0 str0" d="M1.08199 0.0759712c-0.0117833,0.0705799 -0.0576356,0.193524 -0.144669,0.198182 -0.0873141,-0.00464394 -0.13354,-0.127775 -0.145363,-0.198128 0.0338554,-0.0274633 0.0943468,-0.0623062 0.141267,-0.0631603 0.0469198,-0.000854058 0.117153,0.0270496 0.148766,0.0631069z"/>
   <path id="_202112888" class="fil0 str0" d="M0.171492 0.557273c0.0117833,-0.0705799 0.0576356,-0.193524 0.144669,-0.198182 0.0873141,0.00464394 0.13354,0.127775 0.14535,0.198128 -0.0338421,0.0274633 -0.0943334,0.0623062 -0.141253,0.0631603 -0.0469332,0.000854058 -0.117153,-0.0270496 -0.148766,-0.0631069z"/>
   <path id="_202112840" class="fil0 str0" d="M0.557126 1.08239c-0.0705666,-0.0117833 -0.193484,-0.0576489 -0.198142,-0.144696 0.0046306,-0.0873275 0.127748,-0.133553 0.198088,-0.145377 0.0274633,0.0338421 0.0622929,0.0943468 0.0631469,0.14128 0.000854058,0.0469332 -0.0270363,0.117179 -0.0630936,0.148793z"/>
   <path id="_202112792" class="fil0 str0" d="M1.08216 0.696685c-0.0117833,0.0705799 -0.0576489,0.193524 -0.144683,0.198182 -0.0873141,-0.00464394 -0.133527,-0.127775 -0.14535,-0.198128 0.0338421,-0.0274633 0.0943334,-0.0623062 0.141267,-0.0631603 0.0469198,-0.000854058 0.117153,0.0270496 0.148766,0.0631069z"/>
   <path id="_202112744" class="fil0 str0" d="M0.696511 0.171572c0.0705666,0.0117833 0.193498,0.0576489 0.198155,0.144696 -0.00464394,0.0873275 -0.127748,0.133553 -0.198102,0.145377 -0.02745,-0.0338421 -0.0622929,-0.0943468 -0.0631336,-0.14128 -0.000867403,-0.0469332 0.0270229,-0.117179 0.0630802,-0.148793z"/>
   <polygon id="_202112696" class="fil0 str0" points="0.00621861,0.00589834 0.0057382,0.138331 0.0726617,0.164286 0.099391,0.0988306 0.16458,0.072635 0.138544,0.00591169 "/>
   <polygon id="_202112648" class="fil0 str0" points="1.24797,1.24822 1.24845,1.11579 1.18152,1.08983 1.15479,1.15529 1.08961,1.18148 1.11564,1.24821 "/>
   <polygon id="_202112600" class="fil0 str0" points="0.00611186,1.24799 0.138531,1.24847 0.164486,1.18154 0.0990307,1.15481 0.0728485,1.08962 0.00613854,1.11564 "/>
   <polygon id="_202112552" class="fil0 str0" points="1.24807,0.0061252 1.11565,0.00564479 1.0897,0.0725816 1.15515,0.099311 1.18134,0.164513 1.24805,0.138478 "/>
   <polygon id="_202112504" class="fil0 str0" points="0.627226,0.759565 0.560516,0.7856 0.534334,0.720412 0.468878,0.693669 0.494567,0.627106 0.468531,0.560382 0.53372,0.5342 0.560449,0.468731 0.627373,0.494687 0.693669,0.468518 0.719851,0.533706 0.785307,0.560449 0.759618,0.627012 0.785654,0.693736 0.720465,0.719931 0.693736,0.785387 "/>
   <polygon id="_202112456" class="fil0 str0" points="0.00620527,0.49442 0.0727151,0.468518 0.0989106,0.533706 0.164353,0.560449 0.138397,0.627373 0.1647,0.693736 0.0995111,0.719931 0.0727818,0.785387 0.00620527,0.759565 "/>
   <polygon id="_202112408" class="fil0 str0" points="0.494433,1.24805 0.468531,1.18152 0.53372,1.15534 0.560449,1.08987 0.627373,1.11583 0.693709,1.08952 0.719905,1.15473 0.785347,1.18146 0.759538,1.24805 "/>
   <polygon id="_202112360" class="fil0 str0" points="1.24798,0.759698 1.18147,0.7856 1.15527,0.720412 1.08983,0.693669 1.11579,0.626745 1.08948,0.560382 1.15467,0.5342 1.1814,0.468731 1.24798,0.494553 "/>
   <polygon id="_202112312" class="fil0 str0" points="0.759672,0.00607182 0.785574,0.072595 0.720385,0.0987905 0.693656,0.164246 0.626732,0.138291 0.560382,0.164593 0.5342,0.099391 0.468758,0.0726617 0.494567,0.00607182 "/>
  </g>
 </g>
</svg>
