<?xml version="1.0" encoding="UTF-8"?>
<!DOCTYPE svg PUBLIC "-//W3C//DTD SVG 1.1//EN" "http://www.w3.org/Graphics/SVG/1.1/DTD/svg11.dtd">
<!-- Creator: CorelDRAW -->
<svg xmlns="http://www.w3.org/2000/svg" xml:space="preserve" width="111px" height="111px" style="shape-rendering:geometricPrecision; text-rendering:geometricPrecision; image-rendering:optimizeQuality; fill-rule:evenodd; clip-rule:evenodd"
viewBox="0 0 0.35054 0.350544"
 xmlns:xlink="http://www.w3.org/1999/xlink">
 <defs>
  <style type="text/css">
   <![CDATA[
    .str0 {stroke:#4C4C4C;stroke-width:0.00315926}
    .fil0 {fill:none}
   ]]>
  </style>
 </defs>
 <g id="Plan_x0020_1">
  <metadata id="CorelCorpID_0Corel-Layer"/>
  <g id="_109867024">
   <polygon id="_109867528" class="fil0 str0" points="0.00160388,0.348962 0.348947,0.348962 0.348947,0.0015815 0.00160388,0.0015815 "/>
   <path id="_109867480" class="fil0 str0" d="M0.348947 0.0695075c-0.0962661,0.0122902 -0.122838,0.0703691 -0.12176,0.139172 0.0390152,0.0124133 0.0786906,0.0194293 0.12176,-0.00262961l0 -0.136542z"/>
   <path id="_109867432" class="fil0 str0" d="M0.205613 0.348962c0.0153711,-0.0351286 0.0180902,-0.0735433 0.00109287,-0.116766 -0.0903504,-0.0146438 -0.128579,0.0603878 -0.137128,0.116766l0.136035 0z"/>
   <path id="_109867384" class="fil0 str0" d="M0.102335 0.1021c-0.0333457,0.00123461 -0.0674113,0.0102536 -0.100753,0.0399962l0 0.0214733c0.052857,-0.0497761 0.0843042,-0.0442185 0.118485,-0.0437336 -0.000488623,-0.0341849 -0.00626631,-0.0653561 0.0435061,-0.118221l-0.0214584 7.45989e-006c-0.0293248,0.0320887 -0.0385452,0.0671315 -0.0397799,0.100477z"/>
   <path id="_109867336" class="fil0 str0" d="M0.0359567 0.348962c0.00844459,-0.0664713 0.0323573,-0.140294 0.156337,-0.156975 0.0113577,-0.0631815 0.0201007,-0.136863 0.156654,-0.156027 4.47593e-005,0.0119246 -4.47593e-005,0.0216262 0,0.0335471 -0.096061,0.0122902 -0.122838,0.0703691 -0.12176,0.139172 0.0390152,0.0124133 0.0786869,0.0190563 0.121757,-0.00300261l3.72994e-006 0.00679223c-0.0091682,0.00560984 -0.0203991,0.0204699 -0.0279932,0.032182 0.0267512,0.0226184 0.00611338,0.0368332 -0.0151734,0.0303468 -0.000764639,0.00735545 -0.00435658,0.018314 -0.00511748,0.0256732 -0.0068258,0.000988435 -0.0188623,0.00412905 -0.0256844,0.00511748 0.00659827,0.0318575 -0.0143491,0.034834 -0.0303431,0.0151734 -0.0139351,0.00933232 -0.0263521,0.0186684 -0.0321932,0.0280007l-0.00682953 0c0.0153711,-0.0351286 0.0180902,-0.0735433 0.00109287,-0.116766 -0.0903504,-0.0146438 -0.128579,0.0603841 -0.137128,0.116762l-0.0336217 3.72994e-006z"/>
   <path id="_109867288" class="fil0 str0" d="M0.0695784 0.348962c0.0233793,-0.00142857 0.0343491,-0.0151921 0.0354755,-0.0408988 0.00973516,0.0106229 0.0201007,0.0199813 0.0318612,0.0265535 -0.0141439,-0.02837 -0.0258075,-0.0587578 0.0151734,-0.0788995 0.0245244,-0.00334203 0.0422081,0.0210108 0.018963,0.0402088 -0.00859752,0.00456918 -0.015677,0.00507272 -0.0242745,0.00151809 0.00669152,0.0284184 0.0257254,0.0448712 0.0607384,0.0469898 -0.000589331,0.00149198 -0.00127564,0.00306974 -0.00190227,0.00452815l-0.136035 0z"/>
   <path id="_109867240" class="fil0 str0" d="M0.348947 0.0695075c-0.00142484,0.023383 -0.0152555,0.0337672 -0.0409585,0.0348936 0.0106229,0.00973516 0.0199776,0.0201044 0.0265497,0.0318649 -0.0283662,-0.0141477 -0.0587541,-0.0258112 -0.0788921,0.0151734 -0.00334203,0.0245281 0.0210108,0.0422118 0.0402051,0.0189668 0.00456545,-0.00860125 0.00507272,-0.015677 0.00151809,-0.0242782 0.0284147,0.00669525 0.0451472,0.0266505 0.0472621,0.0616672 0.00142484,-0.00066393 0.00300261,-0.00145468 0.00431182,-0.00211861 -3.35695e-005,-0.045979 3.72994e-005,-0.0901863 3.72994e-006,-0.136169z"/>
   <path id="_109867192" class="fil0 str0" d="M0.228705 0.314136c0.00456172,-0.0303468 0.00229019,-0.054625 0.000757179,-0.0849719 0.0300932,0.0042969 0.0576538,0.0050578 0.0857216,-0.000760909 -0.0228385,0.02232 -0.027762,0.0391383 -0.0303431,0.0553859 -0.0207348,0.00606862 -0.0354009,0.0121372 -0.0561357,0.0303468z"/>
   <path id="_109867144" class="fil0 str0" d="M0.00160388 0.120634c0.0178441,-0.0116934 0.0314546,-0.0252293 0.0263483,-0.0486049 -0.00218202,-0.0138194 -0.012126,-0.0248228 -0.00843713,-0.0400335 0.00234614,-0.00899663 0.0102648,-0.0148079 0.0286422,-0.0084334 0.0288772,0.0133681 0.0580342,0.00770607 0.0723721,-0.0219768l-0.118926 0 0 0.119049z"/>
   <path id="_109867096" class="fil0 str0" d="M0.0015815 0.142096l2.23797e-005 -0.0214621c0.0173107,-0.0114285 0.031533,-0.0248452 0.0260537,-0.0500782 -0.00276762,-0.0127601 -0.0111302,-0.0237448 -0.0084334,-0.0374561 0.00189854,-0.00964937 0.00965683,-0.0157441 0.0274412,-0.0101977 0.0294591,0.0134166 0.0585228,0.0096531 0.0738641,-0.0213166l0.0215852 3.72994e-005c-0.0231667,0.0256434 -0.0383438,0.0578514 -0.0397314,0.10044 -0.0559902,0.00255874 -0.0811561,0.0245654 -0.100802,0.0400335z"/>
   <path id="_109867048" class="fil0 str0" d="M0.348947 0.348959l7.45989e-006 -0.13649c-0.00933232,0.00584482 -0.0186684,0.0182469 -0.0280007,0.032182 0.0196605,0.015994 0.016684,0.0369414 -0.0151734,0.0303468 -0.000988435,0.00682207 -0.00413278,0.0188586 -0.00511748,0.0256807 -0.00682207,0.000988435 -0.0188623,0.00412532 -0.0256844,0.00511002 0.00659827,0.0318575 -0.0143491,0.034834 -0.0303431,0.0151734 -0.0139351,0.00933232 -0.0263521,0.0186721 -0.0321932,0.0280044l0.136505 -7.45989e-006z"/>
  </g>
  <polyline class="fil0 str0" points="0.163573,0.00161507 0.348947,0.0015815 0.348947,0.0359604 "/>
  <polyline class="fil0 str0" points="0.0015815,0.163569 0.00160388,0.348962 0.0359567,0.348962 "/>
 </g>
</svg>
