<?xml version="1.0" encoding="UTF-8"?>
<!DOCTYPE svg PUBLIC "-//W3C//DTD SVG 1.1//EN" "http://www.w3.org/Graphics/SVG/1.1/DTD/svg11.dtd">
<!-- Creator: CorelDRAW -->
<svg xmlns="http://www.w3.org/2000/svg" xml:space="preserve" width="110px" height="110px" style="shape-rendering:geometricPrecision; text-rendering:geometricPrecision; image-rendering:optimizeQuality; fill-rule:evenodd; clip-rule:evenodd"
viewBox="0 0 1.47818 1.47826"
 xmlns:xlink="http://www.w3.org/1999/xlink">
 <defs>
  <style type="text/css">
   <![CDATA[
    .str0 {stroke:#4C4C4C;stroke-width:0.0133223}
    .fil0 {fill:none}
   ]]>
  </style>
 </defs>
 <g id="Capa_x0020_1">
  <metadata id="CorelCorpID_0Corel-Layer"/>
  <g id="_110418232">
   <polygon id="_110418712" class="fil0 str0" points="1.47151,0.00668476 1.47151,1.47156 0.00717235,1.47156 0.00717235,0.00668476 "/>
   <path id="_110418664" class="fil0 str0" d="M1.47151 1.47156l-0.634092 0c0.222091,-0.0258897 0.336298,-0.279674 0.121332,-0.51438 0.251945,0.235366 0.49829,0.0673194 0.512666,-0.120027l9.4373e-005 0.634407z"/>
   <polygon id="_110418616" class="fil0 str0" points="1.17818,1.18253 1.18673,1.33157 1.287,1.37917 1.287,1.40208 1.2691,1.40737 1.15627,1.36506 1.08048,1.47151 1.47151,1.47156 1.47146,1.08049 1.364,1.16233 1.40877,1.26987 1.40341,1.29102 1.3819,1.29278 1.32998,1.19053 "/>
   <polygon id="_110418568" class="fil0 str0" points="1.4715,1.34376 1.38017,1.38087 1.34331,1.47156 1.47151,1.47156 "/>
   <path id="_110418520" class="fil0 str0" d="M1.47151 0.136511c-0.0961976,0.00841493 -0.190807,0.03086 -0.273776,0.0699933 -0.247446,0.116692 -0.35522,0.399434 -0.184216,0.626763 0.113767,0.151248 0.31077,0.143604 0.364689,-0.00692069 -0.349007,0.00805316 -0.0461327,-0.443946 0.0809091,-0.10219 0.00638591,0.0253549 0.0116236,0.0495144 0.0118753,0.0725257l0.000424679 0.0404546c-0.0184342,0.172734 -0.175927,0.281845 -0.363525,0.217734 -0.0372144,-0.0162322 -0.0756714,-0.0297275 -0.10315,-0.0552239 -0.0568755,-0.052786 -0.102882,-0.0935551 -0.140742,-0.136967 -0.052613,-0.0603044 -0.067461,-0.138115 -0.0740828,-0.209886 -0.00339743,-0.0366796 -0.00235933,-0.0734694 0.0026739,-0.109787 0.0409579,-0.29619 0.281735,-0.465102 0.559742,-0.536322l0.119177 0 0 0.129826z"/>
   <path id="_110418472" class="fil0 str0" d="M0.136511 1.47113c0.00843066,-0.0961661 0.0308914,-0.190728 0.0700248,-0.273666 0.116739,-0.247352 0.399575,-0.355094 0.626983,-0.184153 0.151311,0.113735 0.143651,0.310645 -0.00692069,0.364563 0.00728245,-0.314797 -0.360159,-0.0990445 -0.18085,0.0394007 0.0456136,0.0352169 0.0727459,0.0441351 0.150037,0.0542488l0.0416185 3.14577e-005c0.172781,-0.0184185 0.281939,-0.176367 0.217813,-0.363902 -0.0176949,-0.0405175 -0.0379222,-0.0777948 -0.060792,-0.111423 -0.105824,-0.120562 -0.201565,-0.191593 -0.332036,-0.205482 -0.0398097,-0.00449845 -0.0797924,-0.00374346 -0.119225,0.00171444 -0.2963,0.0409422 -0.465275,0.281641 -0.536526,0.559553l0 0.119114 0.129873 0z"/>
   <path id="_110418424" class="fil0 str0" d="M1.47151 0.136495c-0.10606,0.0073611 -0.212292,0.0344619 -0.302796,0.0838819 -0.23189,0.126617 -0.321356,0.4095 -0.147316,0.622956 0.114773,0.140757 0.304101,0.130109 0.356809,-0.0169871 -0.349007,0.00805316 -0.0461327,-0.443946 0.0809091,-0.10219 0.0061657,0.0258425 0.00978334,0.0498919 0.0123943,0.0721954l0 -0.659856z"/>
   <path id="_110418376" class="fil0 str0" d="M0.136511 1.47113c0.00734537,-0.106028 0.0344619,-0.212198 0.0838976,-0.30267 0.126664,-0.231812 0.409658,-0.321246 0.623192,-0.147269 0.140805,0.114726 0.130156,0.303991 -0.0170029,0.356683 0.00641737,-0.277441 -0.278212,-0.142802 -0.223129,-0.0121427 0.0370414,0.0736267 0.122292,0.0976289 0.192474,0.105824l-0.659431 -0.000424679z"/>
   <path id="_110418328" class="fil0 str0" d="M0.00717235 0.00666903l-1.57288e-005 0.84596c0.0279816,-0.00797452 0.10326,-0.0910542 0.10779,-0.172136 0.0259683,0.0754512 0.148307,0.0422791 0.15397,-0.0242224 -0.179859,0.019142 -0.208391,-0.117856 -0.122764,-0.215123 0.185003,-0.069899 0.340875,0.114883 0.229893,0.301144 -0.00950022,0.0159176 0.00150997,0.018214 0.016704,0.0174905 0.053305,-0.00261099 0.0789745,-0.0450002 0.0963234,-0.0995321 -0.0114821,0.0553812 0.169384,0.0648185 0.178318,0.0406433 0.0245527,-0.00880815 0.0226495,-0.192898 -0.0336125,-0.181605 0.0553812,-0.0170658 0.0984468,-0.0423578 0.101089,-0.0948292 0.000739255,-0.0149581 -0.00158861,-0.0257953 -0.0177736,-0.0164524 -0.189186,0.109268 -0.376894,-0.0441823 -0.305879,-0.226307 0.0988086,-0.0843066 0.237962,-0.0562149 0.218521,0.12086 0.0675396,-0.00556801 0.101231,-0.126019 0.0245842,-0.151579 0.0823719,-0.00446699 0.193874,-0.116393 0.198309,-0.144328l-0.845456 1.57288e-005z"/>
   <path id="_110418280" class="fil0 str0" d="M0.00717235 0.151846c0.0801542,0 0.145161,-0.0650073 0.145161,-0.145177l-0.145161 0 0 0.145177z"/>
  </g>
  <polygon class="fil0 str0" points="0.00717235,0.00666903 1.47151,0.00668476 1.47151,1.47156 0.00663757,1.47113 "/>
 </g>
</svg>
