<?xml version="1.0" encoding="UTF-8"?>
<!DOCTYPE svg PUBLIC "-//W3C//DTD SVG 1.1//EN" "http://www.w3.org/Graphics/SVG/1.1/DTD/svg11.dtd">
<!-- Creator: CorelDRAW -->
<svg xmlns="http://www.w3.org/2000/svg" xml:space="preserve" width="110px" height="110px" style="shape-rendering:geometricPrecision; text-rendering:geometricPrecision; image-rendering:optimizeQuality; fill-rule:evenodd; clip-rule:evenodd"
viewBox="0 0 0.572177 0.57217"
 xmlns:xlink="http://www.w3.org/1999/xlink">
 <defs>
  <style type="text/css">
   <![CDATA[
    .str0 {stroke:#4C4C4C;stroke-width:0.00515666}
    .fil0 {fill:none}
   ]]>
  </style>
 </defs>
 <g id="Plan_x0020_1">
  <metadata id="CorelCorpID_0Corel-Layer"/>
  <g id="_110492728">
   <polygon id="_110493328" class="fil0 str0" points="0.569589,0.00258138 0.569589,0.569577 0.00259355,0.569577 0.00259355,0.00258138 "/>
   <path id="_110493280" class="fil0 str0" d="M0.329046 0.00258138c0,0.179801 -0.146651,0.326453 -0.326453,0.326453l0 -0.326453 0.326453 0z"/>
   <path id="_110493232" class="fil0 str0" d="M0.24313 0.569589c0,-0.179807 0.146651,-0.326453 0.326453,-0.326453l0 0.326453 -0.326453 0z"/>
   <path id="_110493184" class="fil0 str0" d="M0.233243 0.233231c0.00385989,-0.00385989 0.00762236,-0.0078111 0.0112874,-0.0118536 -0.0328882,-0.0482729 -0.0622331,-0.101374 -0.0667322,-0.188215 -0.000115675,-0.0018995 0.000566198,-0.00406688 -0.00146724,-0.00412777 -0.0215338,0.00157074 -0.0400296,0.00592377 -0.0411559,0.0297284 -0.00131504,0.0157318 -0.0123833,0.0196526 -0.0277011,0.0155552 -0.0203953,-0.00663608 -0.0282429,-0.0225566 -0.0235368,-0.0477494 -0.0266661,0.00293449 -0.0523824,-0.00508969 -0.07956,-0.0228123 -0.00217347,-0.00141245 -0.00188124,-0.00134548 -0.000554022,0.000694049 0.0176861,0.0271471 0.025692,0.0528391 0.0227575,0.0794747 0.0251928,-0.00470614 0.0411133,0.00314149 0.0477494,0.0235368 0.00409733,0.0153178 0.000176556,0.026386 -0.0155552,0.0277011 -0.0238047,0.00112631 -0.0281577,0.0196221 -0.0297284,0.0411559 6.69697e-005,0.00203344 0.00222826,0.00135157 0.00413385,0.00146724 0.0868353,0.00449914 0.139936,0.033844 0.188209,0.0667322 0.00404253,-0.00366507 0.00799983,-0.00742754 0.0118536,-0.0112874z"/>
   <path id="_110493136" class="fil0 str0" d="M0.338933 0.338933c-0.00385989,0.00385989 -0.00762236,0.0078111 -0.0112874,0.0118597 0.0328882,0.0482729 0.0622331,0.101368 0.0667322,0.188209 0.000115675,0.00190559 -0.000566198,0.00406688 0.00146724,0.00412777 0.0215338,-0.00156465 0.0400296,-0.00591768 0.0411559,-0.0297224 0.00131504,-0.0157379 0.0123833,-0.0196526 0.0277011,-0.0155613 0.0203953,0.00664217 0.0282429,0.0225566 0.0235368,0.0477555 0.0266113,-0.00293449 0.0522729,0.00505317 0.0793895,0.0226966 0.00225262,0.00146724 0.00213694,0.00158901 0.000663608,-0.000663608 -0.0176435,-0.0271166 -0.025625,-0.0527843 -0.0226966,-0.0793895 -0.0251928,0.00470614 -0.0411133,-0.00314149 -0.0477494,-0.0235429 -0.00409733,-0.0153117 -0.000176556,-0.026386 0.0155552,-0.027695 0.0238047,-0.00112631 0.0281577,-0.0196282 0.0297284,-0.041162 -6.69697e-005,-0.00203344 -0.00222826,-0.00135157 -0.00413385,-0.00146116 -0.0868353,-0.00449914 -0.139936,-0.0338501 -0.188209,-0.0667322 -0.00404253,0.00365898 -0.00799983,0.00742146 -0.0118536,0.0112813z"/>
   <path id="_110493088" class="fil0 str0" d="M0.00258138 0.414944c0.0851732,0 0.154639,0.0694597 0.154639,0.154633l-0.154639 0 0 -0.154633z"/>
   <path id="_110493040" class="fil0 str0" d="M0.569595 0.157226c-0.0851732,0 -0.154639,-0.0694658 -0.154639,-0.154633l0.154639 0 0 0.154633z"/>
   <polygon id="_110492992" class="fil0 str0" points="0.079907,0.537553 0.157226,0.569577 0.00419474,0.569577 0.0041095,0.56895 "/>
   <polygon id="_110492944" class="fil0 str0" points="0.49227,0.0346172 0.41495,0.00258746 0.56783,0.00258746 0.568067,0.00322063 "/>
   <polygon id="_110492896" class="fil0 str0" points="0.0346172,0.492264 0.00259355,0.414944 0.00259355,0.568852 0.00290405,0.568828 "/>
   <polygon id="_110492848" class="fil0 str0" points="0.537559,0.079907 0.569583,0.157226 0.569583,0.00415821 0.568919,0.00418865 "/>
   <polygon id="_110492800" class="fil0 str0" points="0.0346172,0.492257 0.111937,0.460234 0.0799131,0.537553 0.00373812,0.569108 0.00306234,0.568445 "/>
   <polygon id="_110492752" class="fil0 str0" points="0.537559,0.079907 0.46024,0.111931 0.492264,0.0346172 0.567397,0.0034946 0.568767,0.00454785 "/>
  </g>
  <line class="fil0 str0" x1="0.24313" y1="0.569589" x2="0.157226" y2= "0.569577" />
  <line class="fil0 str0" x1="0.00258138" y1="0.414944" x2="0.00259355" y2= "0.329034" />
  <line class="fil0 str0" x1="0.329046" y1="0.00258138" x2="0.41495" y2= "0.00258746" />
  <line class="fil0 str0" x1="0.569583" y1="0.157226" x2="0.569583" y2= "0.243136" />
 </g>
</svg>
