<?xml version="1.0" encoding="UTF-8"?>
<!DOCTYPE svg PUBLIC "-//W3C//DTD SVG 1.1//EN" "http://www.w3.org/Graphics/SVG/1.1/DTD/svg11.dtd">
<!-- Creator: CorelDRAW -->
<svg xmlns="http://www.w3.org/2000/svg" xml:space="preserve" width="110px" height="110px" style="shape-rendering:geometricPrecision; text-rendering:geometricPrecision; image-rendering:optimizeQuality; fill-rule:evenodd; clip-rule:evenodd"
viewBox="0 0 0.361281 0.361281"
 xmlns:xlink="http://www.w3.org/1999/xlink">
 <defs>
  <style type="text/css">
   <![CDATA[
    .str0 {stroke:#4C4C4C;stroke-width:0.00325599}
    .fil0 {fill:white}
   ]]>
  </style>
 </defs>
 <g id="Plan_x0020_1">
  <metadata id="CorelCorpID_0Corel-Layer"/>
  <g id="_211993144">
   <polygon id="_235016496" class="fil0 str0" points="0.00162992,0.00162992 0.359647,0.00162992 0.359647,0.359651 0.00162992,0.359651 "/>
   <path id="_195262288" class="fil0 str0" d="M0.21626 0.21626c0.000688102,0.00994865 -0.0010187,0.0574662 0.0269705,0.0614372 0.0146424,0.00207968 0.00916445,-0.00676954 0.0225498,0.00516653 0.0118323,0.0105522 0.00605453,0.00499355 -0.00191054,0.0167336 -0.00506274,0.00745765 -0.00563168,0.0152074 -0.00640819,0.0257558 -0.00156457,0.0213158 -0.0506697,0.012505 -0.0334671,-0.0132546 0.00500892,-0.00750378 -0.00409402,-0.0186633 -0.0153497,-0.0189132 -0.0186787,0.00067657 -0.023357,0.015884 -0.0178368,0.0349202 0.00296768,0.010237 -0.00454378,0.0121206 -0.0127779,0.0110096 -0.0194783,-0.00263709 -0.0289041,-0.0169604 -0.0537373,-0.0151805 -0.0181405,0.00129548 -0.0403789,0.00945276 -0.0481979,0.035716l0.283552 0 0 -0.283556c-0.0262594,0.007819 -0.0344167,0.0300574 -0.0357121,0.0481979 -0.00177984,0.0248332 0.0125435,0.034259 0.0151805,0.0537373 0.00111096,0.00823416 -0.000772674,0.0157456 -0.0110096,0.0127779 -0.0190362,-0.0055202 -0.0342437,-0.000841868 -0.0349202,0.0178368 0.00024987,0.0112557 0.0114094,0.0203586 0.0189132,0.0153497 0.0257596,-0.0172026 0.0345704,0.0319026 0.0132546,0.0334671 -0.0105483,0.000776518 -0.0182981,0.00134545 -0.0257558,0.00640819 -0.01174,0.00796507 -0.00618139,0.0137428 -0.0167336,0.00191054 -0.0119361,-0.0133853 -0.00308685,-0.00790741 -0.00516653,-0.0225498 -0.003971,-0.0279892 -0.0514885,-0.0262824 -0.0614372,-0.0269705z"/>
   <path id="_202907384" class="fil0 str0" d="M0.14502 0.14502c-0.000688102,-0.00994865 0.0010187,-0.0574662 -0.0269705,-0.0614372 -0.0146424,-0.00207968 -0.00916445,0.00676954 -0.0225498,-0.00516653 -0.0118323,-0.0105522 -0.00605453,-0.00499355 0.00191054,-0.0167336 0.00506274,-0.00745765 0.00563168,-0.0152074 0.00640819,-0.0257558 0.00156457,-0.0213158 0.0506697,-0.012505 0.0334671,0.0132546 -0.00500892,0.00750378 0.00409402,0.0186633 0.0153497,0.0189132 0.0186787,-0.00067657 0.023357,-0.015884 0.0178368,-0.0349202 -0.00296768,-0.010237 0.00454378,-0.0121206 0.0127779,-0.0110096 0.0194783,0.00263709 0.0289041,0.0169604 0.0537373,0.0151805 0.0181405,-0.00129548 0.0403789,-0.00945276 0.0481979,-0.035716l-0.283556 0 0 0.283556c0.0262632,-0.007819 0.0344205,-0.0300574 0.035716,-0.0481979 0.00177984,-0.0248332 -0.0125435,-0.034259 -0.0151805,-0.0537373 -0.00111096,-0.00823416 0.000772674,-0.0157456 0.0110096,-0.0127779 0.0190362,0.0055202 0.0342437,0.000841868 0.0349202,-0.0178368 -0.00024987,-0.0112557 -0.0114094,-0.0203586 -0.0189132,-0.0153497 -0.0257596,0.0172026 -0.0345704,-0.0319026 -0.0132546,-0.0334671 0.0105483,-0.000776518 0.0182981,-0.00134545 0.0257558,-0.00640819 0.01174,-0.00796507 0.00618139,-0.0137428 0.0167336,-0.00191054 0.0119361,0.0133853 0.00308685,0.00790741 0.00516653,0.0225498 0.003971,0.0279892 0.0514885,0.0262824 0.0614372,0.0269705z"/>
   <path id="_259511608" class="fil0 str0" d="M0.00162992 0.359651l0.0319833 0c0.0313221,-0.0399561 0.0833296,-0.0673572 0.162803,-0.0781015l0 -0.0851325 0.0851325 0c0.0107444,-0.0794739 0.0381455,-0.131481 0.0780977,-0.162803l0 -0.0319833 -0.0319795 0c-0.0313221,0.0399561 -0.0833296,0.0673572 -0.162803,0.0781015l0 0.0851325 -0.0851325 0c-0.0107444,0.0794739 -0.0381455,0.131481 -0.0781015,0.162803l0 0.0319833z"/>
   <path id="_211992784" class="fil0 str0" d="M0.1915 0.169781l0 -0.0722853c0.0413246,-0.00700404 0.0683182,-0.0202394 0.110715,-0.0384299 -0.0181905,0.0423971 -0.0314259,0.0693907 -0.0384299,0.110715l-0.0722853 0z"/>
   <path id="_259508800" class="fil0 str0" d="M0.169781 0.1915l0 0.0722853c-0.0413246,0.00700404 -0.0683182,0.0202394 -0.110715,0.0384299 0.0181905,-0.0423971 0.0314259,-0.0693907 0.0384299,-0.110715l0.0722853 0z"/>
   <path id="_211990672" class="fil0 str0" d="M0.316508 0.316508c-0.00656965,0.00548944 -0.0137774,0.00130701 -0.0188286,-0.00359428 -0.0181598,-0.01761 -0.0381839,0.0264823 -0.00152613,0.0300036 0.0102869,0.000987946 0.0194091,-0.00129932 0.0378572,-0.0091952 0.00789588,-0.0184481 0.00989484,-0.0272819 0.00890689,-0.0375689 -0.00352124,-0.0366578 -0.0476136,-0.0166336 -0.0300036,0.00152613 0.00490129,0.00505121 0.00908372,0.012259 0.00359428,0.0188286z"/>
   <path id="_259521976" class="fil0 str0" d="M0.0447728 0.0447728c-0.00548944,0.00656965 -0.00130701,0.0137774 0.00359428,0.0188286 0.01761,0.0181598 -0.0264823,0.0381839 -0.0300036,0.00152613 -0.000987946,-0.0102869 0.00129932,-0.0194091 0.0091952,-0.0378572 0.0184481,-0.00789588 0.0272819,-0.00989484 0.0375689,-0.00890689 0.0366578,0.00352124 0.0166336,0.0476136 -0.00152613,0.0300036 -0.00505121,-0.00490129 -0.012259,-0.00908372 -0.0188286,-0.00359428z"/>
   <circle id="_259515352" class="fil0 str0" cx="0.126821" cy="0.234459" r="0.0179008"/>
   <circle id="_259521016" class="fil0 str0" transform="matrix(-1.22431E-013 0.513639 0.513639 1.22431E-013 0.234459 0.126821)" r="0.034851"/>
  </g>
 </g>
</svg>
