<?xml version="1.0" encoding="UTF-8"?>
<!DOCTYPE svg PUBLIC "-//W3C//DTD SVG 1.1//EN" "http://www.w3.org/Graphics/SVG/1.1/DTD/svg11.dtd">
<!-- Creator: CorelDRAW -->
<svg xmlns="http://www.w3.org/2000/svg" xml:space="preserve" width="110px" height="110px" style="shape-rendering:geometricPrecision; text-rendering:geometricPrecision; image-rendering:optimizeQuality; fill-rule:evenodd; clip-rule:evenodd"
viewBox="0 0 1.65554 1.65558"
 xmlns:xlink="http://www.w3.org/1999/xlink">
 <defs>
  <style type="text/css">
   <![CDATA[
    .str0 {stroke:#4C4C4C;stroke-width:0.0147357}
    .fil0 {fill:none}
   ]]>
  </style>
 </defs>
 <g id="Capa_x0020_1">
  <metadata id="CorelCorpID_0Corel-Layer"/>
  <g id="_110111320">
   <polygon id="_110112088" class="fil0 str0" points="1.63792,0.017641 1.63792,1.63794 0.0176236,1.63794 0.0176236,0.017641 "/>
   <g>
    <path id="_110112040" class="fil0 str0" d="M0.489548 0.489304c-0.167085,-0.0417018 -0.327664,-0.0167364 -0.471907,0.134674l0 -0.60632 0.606337 0c-0.151689,0.144503 -0.176445,0.30423 -0.13443,0.471646z"/>
    <path id="_110111992" class="fil0 str0" d="M1.166 1.16628c0.167103,0.0417018 0.327664,0.0167364 0.471907,-0.134674l0 0.60632 -0.606337 -1.73975e-005c0.151689,-0.144486 0.176445,-0.304212 0.13443,-0.471628z"/>
   </g>
   <polygon id="_110111920" class="fil0 str0" points="0.0176584,0.0176584 0.206317,0.208143 0.497446,0.189406 0.316739,0.0176584 "/>
   <polygon id="_110111872" class="fil0 str0" points="1.6379,1.6379 1.44923,1.44744 1.1581,1.46617 1.33881,1.6379 "/>
   <polygon id="_110111824" class="fil0 str0" points="0.017641,0.0176584 0.208126,0.206317 0.189372,0.497446 0.017641,0.316739 "/>
   <polygon id="_110111776" class="fil0 str0" points="1.6379,1.63792 1.44744,1.44925 1.46617,1.15813 1.6379,1.33884 "/>
   <path id="_110111728" class="fil0 str0" d="M0.970414 0.685148c-0.08697,0.0180238 -0.175001,0.0270879 -0.26385,0.0215207 0.00626309,0.0919631 -0.00391443,0.175558 -0.0225993,0.264007 0.0877181,-0.0185457 0.174445,-0.0274706 0.265207,-0.0217469 -0.0055498,-0.0897884 0.00306196,-0.176932 0.0212423,-0.263781z"/>
   <path id="_110111680" class="fil0 str0" d="M1.63792 0.150384l-0.422585 0.407031c-0.0468514,0.0436329 -0.0838385,0.0787584 -0.118842,0.132047 -0.0374742,0.0570289 -0.0449725,0.120077 -0.0172583,0.185909 0.0824119,0.270374 0.502439,0.208387 0.508337,-0.0911106 -0.188937,0.0663714 -0.251776,-0.171818 -0.044207,-0.16792 -0.059482,-0.0659365 0.0227385,-0.139702 0.0945553,-0.190033"/>
   <path id="_110111632" class="fil0 str0" d="M0.150384 1.63792l0.407031 -0.422585c0.0436329,-0.046834 0.0787758,-0.0838385 0.132047,-0.118842 0.0570289,-0.0374742 0.120077,-0.0449725 0.185909,-0.0172409 0.270374,0.0824119 0.208387,0.502422 -0.0911106,0.50832 0.0663714,-0.188937 -0.171818,-0.251776 -0.16792,-0.0441896 -0.0659365,-0.0594994 -0.139702,0.0227211 -0.190033,0.0945379"/>
   <path id="_110111584" class="fil0 str0" d="M1.50521 0.0176584l-0.407049 0.422585c-0.0436329,0.0468514 -0.0787584,0.0838385 -0.132047,0.118842 -0.0570289,0.0374742 -0.120077,0.0449725 -0.185892,0.0172583 -0.270392,-0.0824119 -0.208387,-0.502439 0.0911106,-0.508337 -0.0663888,0.188937 0.1718,0.251776 0.167903,0.044207 0.0659365,0.059482 0.139702,-0.0227385 0.190033,-0.0945553"/>
   <path id="_110111536" class="fil0 str0" d="M0.017641 1.5052l0.422585 -0.407031c0.0468514,-0.0436329 0.0838385,-0.0787584 0.118842,-0.132047 0.0374742,-0.0570289 0.0449725,-0.120077 0.0172583,-0.185892 -0.0824119,-0.270392 -0.502439,-0.208404 -0.508337,0.0911106 0.188937,-0.0663888 0.251776,0.1718 0.044207,0.167903 0.059482,0.0659365 -0.0227385,0.139702 -0.0945553,0.190033"/>
   <path id="_110111488" class="fil0 str0" d="M1.63792 0.426308c-0.0718168,0.0503309 -0.154037,0.124096 -0.0945553,0.190033 -0.207569,-0.00389704 -0.14473,0.234292 0.044207,0.16792 -0.00589775,0.299498 -0.425925,0.361485 -0.508337,0.0911106 -0.0277142,-0.0658321 -0.0202159,-0.128881 0.0172583,-0.185909 0.0350037,-0.0532885 0.0719908,-0.088414 0.118842,-0.132047l0.422585 -0.407031 0 0.275924z"/>
   <path id="_110111440" class="fil0 str0" d="M0.426308 1.63792c0.0503309,-0.0718168 0.124096,-0.154037 0.190033,-0.0945379 -0.00389704,-0.207587 0.234292,-0.144747 0.16792,0.0441896 0.299498,-0.00589775 0.361485,-0.425908 0.0911106,-0.50832 -0.0658321,-0.0277316 -0.128881,-0.0202333 -0.185909,0.0172409 -0.0532711,0.0350037 -0.088414,0.0720082 -0.132047,0.118842l-0.407031 0.422585 0.275924 0z"/>
   <path id="_110111392" class="fil0 str0" d="M1.50521 0.0176584l-0.407049 0.422585c-0.0436329,0.0468514 -0.0787584,0.0838385 -0.132047,0.118842 -0.0570289,0.0374742 -0.120077,0.0449725 -0.185892,0.0172583 -0.270392,-0.0824119 -0.208387,-0.502439 0.0911106,-0.508337 -0.0663888,0.188937 0.1718,0.251776 0.167903,0.044207 0.0659365,0.059482 0.139702,-0.0227385 0.190033,-0.0945553l0.275941 0z"/>
   <path id="_110111344" class="fil0 str0" d="M0.017641 1.5052l0.422585 -0.407031c0.0468514,-0.0436329 0.0838385,-0.0787584 0.118842,-0.132047 0.0374742,-0.0570289 0.0449725,-0.120077 0.0172583,-0.185892 -0.0824119,-0.270392 -0.502439,-0.208404 -0.508337,0.0911106 0.188937,-0.0663888 0.251776,0.1718 0.044207,0.167903 0.059482,0.0659365 -0.0227385,0.139702 -0.0945553,0.190033l0 0.275924z"/>
  </g>
  <polygon class="fil0 str0" points="0.017641,0.017641 1.63792,0.017641 1.6379,1.63792 0.0176236,1.63794 "/>
 </g>
</svg>
