<?xml version="1.0" encoding="UTF-8"?>
<!DOCTYPE svg PUBLIC "-//W3C//DTD SVG 1.1//EN" "http://www.w3.org/Graphics/SVG/1.1/DTD/svg11.dtd">
<!-- Creator: CorelDRAW -->
<svg xmlns="http://www.w3.org/2000/svg" xml:space="preserve" width="110px" height="110px" style="shape-rendering:geometricPrecision; text-rendering:geometricPrecision; image-rendering:optimizeQuality; fill-rule:evenodd; clip-rule:evenodd"
viewBox="0 0 1.25418 1.25418"
 xmlns:xlink="http://www.w3.org/1999/xlink">
 <defs>
  <style type="text/css">
   <![CDATA[
    .str0 {stroke:#4C4C4C;stroke-width:0.0113034}
    .fil0 {fill:none}
   ]]>
  </style>
 </defs>
 <g id="Capa_x0020_1">
  <metadata id="CorelCorpID_0Corel-Layer"/>
  <g id="_113170624">
   <polygon id="_113166736" class="fil0 str0" points="0.00573844,1.24843 1.24847,1.24843 1.24847,0.00577847 0.00573844,0.00577847 "/>
   <polygon id="_113166832" class="fil0 str0" points="0.640703,1.24847 0.673559,1.1866 0.934912,1.1958 0.679124,1.096 0.669943,1.01726 0.725058,0.976575 0.964471,1.0658 0.790036,0.889498 0.811362,0.811442 0.88468,0.792705 1.05117,0.961896 0.97388,0.734146 1.01505,0.671651 1.0847,0.684155 1.18337,0.930761 1.18469,0.671651 1.24838,0.640823 1.24846,1.24844 "/>
   <polygon id="_113166928" class="fil0 str0" points="0.933337,1.19576 1.08603,1.18863 0.963283,1.06519 1.11068,1.13121 1.05073,0.960975 1.17801,1.0892 1.1834,0.930281 1.2484,1.08471 1.24847,1.24846 1.0845,1.24836 "/>
   <polygon id="_113167024" class="fil0 str0" points="1.24846,1.24843 1.08438,1.24842 1.12623,1.22971 1.08605,1.18858 1.13125,1.18034 1.11067,1.1311 1.17287,1.14478 1.17805,1.08932 1.22221,1.12696 1.24846,1.08476 "/>
   <polygon id="_113167120" class="fil0 str0" points="0.35258,1.07568 0.401517,0.98238 0.49125,1.03188 0.462758,0.930241 0.560165,0.898906 0.470939,0.848461 0.518968,0.754658 0.421268,0.784965 0.391788,0.683635 0.342838,0.776931 0.253105,0.727434 0.281597,0.829071 0.18419,0.860405 0.273417,0.91085 0.225387,1.00465 0.323101,0.974347 "/>
   <polygon id="_113167216" class="fil0 str0" points="0.411926,0.938728 0.401184,0.981633 0.366259,0.949485 0.323087,0.973786 0.320578,0.92597 0.273844,0.910543 0.307527,0.873444 0.28157,0.829017 0.331161,0.825761 0.343159,0.777038 0.376361,0.811615 0.421201,0.784992 0.418105,0.833555 0.470832,0.848074 0.440685,0.883946 0.462745,0.930227 "/>
   <path id="_113167312" class="fil0 str0" d="M0.49137 1.03216l0.0686878 0.0394484 0.0762011 -0.0368061 0.00305605 -0.0817127 -0.0788835 -0.0541148 -0.0977403 0.0312144 0.0286788 0.101971zm-0.139204 0.0434653l0.01875 0.0756139 0.0798977 0.0278381 0.0599467 -0.0556228 -0.019524 -0.091121 -0.0895863 -0.0495774 -0.049484 0.0928693zm0.000493773 -0.000293594l-0.0337233 0.0702091 -0.0838879 0.0110498 -0.0474022 -0.0666459 0.0376869 -0.0852492 0.0977269 -0.0303603 0.0295997 0.100996zm-0.168577 -0.214938l-0.0795508 0.019137 -0.0278514 0.0798977 0.0556228 0.0599467 0.0931629 -0.0148799 0.0479093 -0.0938168 -0.0892928 -0.0502847zm0.0690347 -0.133092l-0.0688746 -0.0396753 -0.0761878 0.0368061 -0.00305605 0.0817127 0.0791371 0.0542883 0.0974867 -0.0314013 -0.0285054 -0.10173zm0.138577 -0.0433986l-0.0176424 -0.0758274 -0.0799111 -0.0278514 -0.0599467 0.0556228 0.0188301 0.0915081 0.0898666 0.0495507 0.0488034 -0.0930027zm0.127607 0.0707563l0.0436388 -0.0672465 -0.0368194 -0.0761744 -0.0817127 -0.0030694 -0.0525934 0.0756806 0.0296931 0.10093 0.0977936 -0.0301201zm0.0409965 0.144155l0.0795641 -0.0193105 0.0278514 -0.0798977 -0.0556228 -0.0599467 -0.0930694 0.0150267 -0.048016 0.09367 0.0892928 0.0504582z"/>
   <polygon id="_113167408" class="fil0 str0" points="0.613412,0.00564502 0.580556,0.0675134 0.319204,0.0583185 0.574991,0.158114 0.584173,0.236851 0.529057,0.277527 0.289631,0.188314 0.464079,0.364604 0.44274,0.442674 0.369435,0.46141 0.202941,0.29222 0.280236,0.519969 0.239066,0.582465 0.169417,0.56996 0.0707429,0.323354 0.0694084,0.582465 0.00573844,0.613292 0.00565837,0.00567171 "/>
   <polygon id="_113167504" class="fil0 str0" points="0.320779,0.0583586 0.168083,0.0654849 0.290832,0.188928 0.143434,0.122909 0.203381,0.293141 0.0761077,0.16492 0.0707162,0.323835 0.00571175,0.169404 0.00563168,0.00565837 0.169618,0.00575178 "/>
   <polygon id="_113167600" class="fil0 str0" points="0.00565837,0.00568506 0.169738,0.0056984 0.127887,0.0244084 0.168069,0.0655383 0.122869,0.0737723 0.143434,0.123016 0.0812456,0.109337 0.0760677,0.1648 0.0319084,0.127153 0.00565837,0.169351 "/>
   <polygon id="_113167696" class="fil0 str0" points="0.88117,0.16456 0.842443,0.262527 0.747959,0.222878 0.7871,0.320899 0.69359,0.362429 0.787687,0.403079 0.74992,0.501473 0.843844,0.46093 0.88396,0.558537 0.922674,0.46057 1.01717,0.500218 0.978017,0.402198 1.07153,0.360667 0.977443,0.320018 1.0152,0.221637 0.921273,0.262167 "/>
   <polygon id="_113167792" class="fil0 str0" points="0.836744,0.307046 0.842856,0.263234 0.88101,0.291486 0.921339,0.262727 0.928933,0.310009 0.977042,0.320365 0.947509,0.360841 0.978057,0.402251 0.92908,0.410765 0.92234,0.460503 0.885654,0.429649 0.843911,0.46089 0.841815,0.412287 0.787834,0.403452 0.813991,0.364578 0.787127,0.320912 "/>
   <path id="_113167888" class="fil0 str0" d="M1.07163 0.360667l0.0770685 -0.0275045 0.0191771 -0.0824066 -0.0616949 -0.0536878 -0.091041 0.0247153 -0.0376468 0.0983942 0.0941371 0.0404893zm-0.0544618 0.139698l0.0727047 0.0321086 0.0718372 -0.0447064 -0.00567171 -0.0815792 -0.0844618 -0.0455472 -0.0935899 0.0415837 0.0391815 0.0981406zm-0.133158 0.0579048l0.0256361 0.0735187 0.0824066 0.0191771 0.0536744 -0.0616949 -0.0284653 -0.0889858 -0.0946442 -0.0396886 -0.0386077 0.0976735zm-0.134413 -0.0567705l-0.0362189 0.0715169 0.0447064 0.0718372 0.0815792 -0.00567171 0.044226 -0.0808452 -0.0402758 -0.0971931 -0.094017 0.0403559zm-0.0561299 -0.138964l-0.0770552 0.027678 -0.0191637 0.08242 0.0616815 0.0536611 0.0909476 -0.0248354 0.0377402 -0.0982607 -0.0941504 -0.0406628zm0.0543417 -0.139938l-0.0725045 -0.031895 -0.0718506 0.0447064 0.00567171 0.0815792 0.0842082 0.0454137 0.0938435 -0.0414502 -0.0393683 -0.0983541zm0.133772 -0.0580383l-0.0266904 -0.0731717 -0.08242 -0.0191771 -0.0536878 0.0616815 0.0291326 0.0885321 0.0943506 0.0397554 0.039315 -0.0976202zm-0.000467082 0.000346975l0.0260498 -0.073412 0.0822465 -0.019911 0.0542216 0.0612144 -0.0283852 0.0887856 -0.0939369 0.0405828 -0.0401958 -0.0972598z"/>
   <polygon id="_113168056" class="fil0 str0" points="0.486446,0.580997 0.429929,0.524186 0.441286,0.443488 0.518915,0.417745 0.589338,0.47964 0.583559,0.584066 "/>
   <polygon id="_113187952" class="fil0 str0" points="0.766308,0.673826 0.822825,0.730623 0.811468,0.811335 0.733839,0.837065 0.663417,0.775183 0.669195,0.670743 "/>
   <polygon id="_113188000" class="fil0 str0" points="0.59198,0.661095 0.589845,0.589858 0.662683,0.591473 0.66323,0.662696 "/>
   <polygon id="_113168032" class="fil0 str0" points="1.18201,0.238225 1.18222,0.158101 1.24851,0.10907 1.24852,0.309075 "/>
   <polygon id="_113168176" class="fil0 str0" points="1.24847,0.631015 1.17538,0.594329 1.16935,0.500765 1.24822,0.43101 "/>
   <polygon id="_113188096" class="fil0 str0" points="1.19923,0.369435 1.24808,0.317549 1.24846,0.420948 "/>
   <polygon id="_113168344" class="fil0 str0" points="0.755485,0.0721975 0.675347,0.0719974 0.626317,0.0056984 0.826335,0.0056984 "/>
   <polygon id="_113170672" class="fil0 str0" points="1.14829,0.00575178 1.1116,0.0788301 1.01804,0.0848621 0.94827,0.005992 "/>
   <polygon id="_113168248" class="fil0 str0" points="0.886695,0.0549956 0.834809,0.00613879 0.938208,0.00576513 "/>
   <polygon id="_113168776" class="fil0 str0" points="1.24843,0.0808452 1.18253,0.0718639 1.17358,0.00577847 1.24846,0.00577847 "/>
   <polygon id="_113168920" class="fil0 str0" points="0.0721709,1.01598 0.0719573,1.09612 0.00567171,1.14515 0.00567171,0.945147 "/>
   <polygon id="_113168392" class="fil0 str0" points="0.00571175,0.623208 0.0788034,0.659894 0.0848355,0.753457 0.00596531,0.823212 "/>
   <polygon id="_156336104" class="fil0 str0" points="0.0549689,0.884787 0.0061121,0.93666 0.00572509,0.833274 "/>
   <polygon id="_113169424" class="fil0 str0" points="0.49871,1.18202 0.578835,1.18222 0.627878,1.24851 0.427861,1.24852 "/>
   <polygon id="_113170432" class="fil0 str0" points="0.105894,1.24847 0.142593,1.17539 0.236143,1.16936 0.305912,1.24822 "/>
   <polygon id="_113169112" class="fil0 str0" points="0.367487,1.19923 0.419373,1.24808 0.315988,1.24846 "/>
   <polygon id="_113169064" class="fil0 str0" points="0.00576513,1.17336 0.0716504,1.18236 0.080605,1.24844 0.00573844,1.24844 "/>
  </g>
 </g>
</svg>
