<?xml version="1.0" encoding="UTF-8"?>
<!DOCTYPE svg PUBLIC "-//W3C//DTD SVG 1.1//EN" "http://www.w3.org/Graphics/SVG/1.1/DTD/svg11.dtd">
<!-- Creator: CorelDRAW -->
<svg xmlns="http://www.w3.org/2000/svg" xml:space="preserve" width="110px" height="110px" style="shape-rendering:geometricPrecision; text-rendering:geometricPrecision; image-rendering:optimizeQuality; fill-rule:evenodd; clip-rule:evenodd"
viewBox="0 0 1.18706 1.18706"
 xmlns:xlink="http://www.w3.org/1999/xlink">
 <defs>
  <style type="text/css">
   <![CDATA[
    .str0 {stroke:#4C4C4C;stroke-width:0.0106982}
    .fil0 {fill:white}
   ]]>
  </style>
 </defs>
 <g id="Capa_x0020_1">
  <metadata id="CorelCorpID_0Corel-Layer"/>
  <g id="_202810456">
   <polygon id="_202811488" class="fil0 str0" points="0.00535542,0.00535542 1.1817,0.00535542 1.1817,1.1817 0.00535542,1.1817 "/>
   <polygon id="_202811440" class="fil0 str0" points="0.214987,0.215151 0.123781,0.179002 0.0410119,0.261771 0.0410119,0.0409992 0.261771,0.0409992 0.179002,0.123768 "/>
   <polygon id="_202811392" class="fil0 str0" points="0.215151,0.972058 0.179002,1.06328 0.261771,1.14605 0.0409992,1.14603 0.0409992,0.925274 0.123768,1.00804 "/>
   <polygon id="_202811344" class="fil0 str0" points="0.972071,0.971894 1.06329,1.00806 1.14605,0.925287 1.14605,1.14605 0.925287,1.14605 1.00806,1.06328 "/>
   <polygon id="_202811296" class="fil0 str0" points="0.971919,0.214987 1.00807,0.123768 0.925312,0.0409992 1.14607,0.0410119 1.14607,0.261771 1.0633,0.179002 "/>
   <polygon id="_202811248" class="fil0 str0" points="0.134365,0.556761 0.0410119,0.520006 0.0410119,0.35851 0.140441,0.259081 0.249242,0.301924 0.320428,0.483503 "/>
   <polygon id="_202811200" class="fil0 str0" points="0.556761,1.05268 0.520006,1.14605 0.35851,1.14605 0.259081,1.04662 0.301924,0.937804 0.483503,0.86663 "/>
   <polygon id="_202811152" class="fil0 str0" points="1.05269,0.630284 1.14605,0.66704 1.14605,0.828536 1.04662,0.927965 0.937817,0.885121 0.866643,0.703555 "/>
   <polygon id="_202811104" class="fil0 str0" points="0.63031,0.134365 0.667065,0.0409992 0.828561,0.0409992 0.92799,0.140428 0.885147,0.249242 0.703568,0.320415 "/>
   <polygon id="_202811056" class="fil0 str0" points="0.556774,0.134353 0.520006,0.0409992 0.35851,0.0409992 0.259093,0.140428 0.301937,0.249229 0.483503,0.320415 "/>
   <polygon id="_202811008" class="fil0 str0" points="0.134353,0.630284 0.0409992,0.66704 0.0409992,0.828536 0.140428,0.927965 0.249229,0.885121 0.320415,0.703542 "/>
   <polygon id="_202810960" class="fil0 str0" points="0.630284,1.05269 0.667052,1.14605 0.828548,1.14605 0.927977,1.04662 0.885134,0.937817 0.703555,0.866643 "/>
   <polygon id="_202810912" class="fil0 str0" points="1.05272,0.556761 1.14607,0.520006 1.14607,0.35851 1.04664,0.259081 0.937842,0.301924 0.866655,0.483503 "/>
   <polygon id="_202810864" class="fil0 str0" points="0.336103,0.336103 0.458444,0.384049 0.437426,0.437426 0.384062,0.458444 "/>
   <polygon id="_202810816" class="fil0 str0" points="0.336103,0.850943 0.384049,0.728602 0.437426,0.749619 0.458444,0.802984 "/>
   <polygon id="_202810768" class="fil0 str0" points="0.850955,0.850955 0.728614,0.802997 0.749632,0.749619 0.802997,0.728614 "/>
   <polygon id="_202810720" class="fil0 str0" points="0.850968,0.336103 0.803022,0.458444 0.749644,0.437426 0.728627,0.384062 "/>
   <polygon id="_202810672" class="fil0 str0" points="0.593554,0.229462 0.646149,0.349883 0.593542,0.372757 0.54096,0.349883 "/>
   <polygon id="_202810624" class="fil0 str0" points="0.2295,0.593529 0.349921,0.540922 0.372795,0.593529 0.349921,0.646123 "/>
   <polygon id="_202810576" class="fil0 str0" points="0.593567,0.957571 0.54096,0.83715 0.593567,0.814276 0.646161,0.83715 "/>
   <polygon id="_202810528" class="fil0 str0" points="0.957621,0.593529 0.837213,0.646123 0.814339,0.593529 0.837213,0.540935 "/>
   <polygon id="_202810480" class="fil0 str0" points="0.593529,0.74996 0.522128,0.778026 0.490159,0.696873 0.40902,0.664918 0.437098,0.593529 0.409032,0.522128 0.490172,0.490159 0.522128,0.40902 0.593529,0.437085 0.664943,0.40902 0.696911,0.490172 0.778051,0.522128 0.749985,0.593529 0.778026,0.664918 0.696886,0.696899 0.66493,0.778026 "/>
  </g>
 </g>
</svg>
