<?xml version="1.0" encoding="UTF-8"?>
<!DOCTYPE svg PUBLIC "-//W3C//DTD SVG 1.1//EN" "http://www.w3.org/Graphics/SVG/1.1/DTD/svg11.dtd">
<!-- Creator: CorelDRAW -->
<svg xmlns="http://www.w3.org/2000/svg" xml:space="preserve" width="110px" height="110px" style="shape-rendering:geometricPrecision; text-rendering:geometricPrecision; image-rendering:optimizeQuality; fill-rule:evenodd; clip-rule:evenodd"
viewBox="0 0 1.37376 1.37374"
 xmlns:xlink="http://www.w3.org/1999/xlink">
 <defs>
  <style type="text/css">
   <![CDATA[
    .str0 {stroke:#4C4C4C;stroke-width:0.0123809}
    .fil0 {fill:none}
   ]]>
  </style>
 </defs>
 <g id="Capa_x0020_1">
  <metadata id="CorelCorpID_0Corel-Layer"/>
  <g id="_202108544">
   <polygon id="_202109576" class="fil0 str0" points="0.00624162,0.00619777 0.00624162,1.36753 1.36756,1.36753 1.36756,0.00619777 "/>
   <polygon id="_202109528" class="fil0 str0" points="0.00619777,1.36754 0.00619777,1.21032 0.123415,1.0931 0.123415,1.25034 0.280639,1.25034 0.163437,1.36754 "/>
   <polygon id="_202109480" class="fil0 str0" points="1.36749,1.36756 1.21025,1.36756 1.09304,1.25036 1.25027,1.25036 1.25027,1.09312 1.36749,1.21033 "/>
   <polygon id="_202109432" class="fil0 str0" points="1.3675,0.00627086 1.3675,0.163495 1.25028,0.280712 1.25028,0.123473 1.09306,0.123473 1.21026,0.00627086 "/>
   <polygon id="_202109384" class="fil0 str0" points="0.00621239,0.00625624 0.163452,0.00625624 0.280654,0.123458 0.123415,0.123458 0.123415,0.280698 0.00621239,0.163481 "/>
   <polygon id="_202109336" class="fil0 str0" points="1.30707,0.686886 1.24156,0.621254 1.16495,0.621254 1.16495,0.486847 1.06065,0.591142 1.00535,0.535844 0.891982,0.535844 0.891968,0.613916 0.964835,0.686886 0.89188,0.759841 0.891895,0.837913 1.00527,0.837913 1.06056,0.782615 1.16486,0.88691 1.16486,0.752503 1.24147,0.752503 "/>
   <polygon id="_202109288" class="fil0 str0" points="0.6869,0.0665968 0.752503,0.132214 0.752503,0.208824 0.88691,0.208824 0.78263,0.313119 0.837913,0.368417 0.837913,0.481789 0.759841,0.481804 0.6869,0.408848 0.613945,0.481804 0.535873,0.481789 0.535873,0.368417 0.591171,0.313119 0.486876,0.208824 0.621283,0.208824 0.621283,0.132214 "/>
   <polygon id="_202109240" class="fil0 str0" points="0.408834,0.686886 0.481833,0.61393 0.481818,0.535859 0.368446,0.535859 0.313148,0.591156 0.208853,0.486861 0.208853,0.621268 0.132244,0.621268 0.0665968,0.686886 0.132214,0.752503 0.208824,0.752503 0.208824,0.886895 0.313104,0.782615 0.368402,0.837913 0.481789,0.837913 0.481789,0.759841 "/>
   <polygon id="_202109192" class="fil0 str0" points="0.686813,1.30716 0.621254,1.24153 0.621254,1.16492 0.486847,1.16492 0.591142,1.06062 0.535844,1.00533 0.535844,0.891953 0.613916,0.891938 0.686813,0.964923 0.759768,0.891968 0.837839,0.891968 0.837839,1.00535 0.782542,1.06065 0.886837,1.16495 0.75243,1.16495 0.75243,1.24156 "/>
   <polygon id="_202109144" class="fil0 str0" points="0.686813,0.84414 0.64929,0.806544 0.567199,0.806544 0.567199,0.724452 0.529661,0.686886 0.567228,0.649304 0.567228,0.567213 0.649319,0.567199 0.6869,0.529632 0.724467,0.567199 0.806573,0.567199 0.806573,0.64929 0.844052,0.686886 0.806485,0.724467 0.806485,0.806558 0.724394,0.806558 "/>
   <polygon id="_202109096" class="fil0 str0" points="1.16495,0.208824 1.00771,0.208824 0.903413,0.313119 0.95184,0.361532 0.921641,0.45213 1.01224,0.421916 1.06065,0.470344 1.16495,0.366049 "/>
   <polygon id="_202109048" class="fil0 str0" points="0.208853,0.208824 0.208853,0.366063 0.313148,0.470358 0.361561,0.421931 0.45216,0.45213 0.42196,0.361532 0.470373,0.313119 0.366078,0.208824 "/>
   <polygon id="_202109000" class="fil0 str0" points="0.208824,1.16493 0.366063,1.16492 0.470344,1.06062 0.421931,1.01221 0.452116,0.921626 0.361517,0.951826 0.313104,0.903398 0.208824,1.00769 "/>
   <polygon id="_202108952" class="fil0 str0" points="1.16486,1.16495 1.16486,1.00769 1.06056,0.903413 1.01215,0.951826 0.921553,0.921641 0.951767,1.01224 0.90334,1.06065 1.00764,1.16495 "/>
   <polygon id="_202108904" class="fil0 str0" points="1.36756,0.284221 1.25036,0.401437 1.25034,0.509255 1.36756,0.626472 "/>
   <polygon id="_202108856" class="fil0 str0" points="0.28425,0.00619777 0.401467,0.123415 0.509284,0.123429 0.626501,0.00619777 "/>
   <polygon id="_202108808" class="fil0 str0" points="0.00619777,0.74727 0.123415,0.864487 0.123415,0.972319 0.00619777,1.08952 "/>
   <polygon id="_202108760" class="fil0 str0" points="1.08946,1.36756 0.972246,1.25036 0.864429,1.25034 0.747212,1.36756 "/>
   <polygon id="_202108712" class="fil0 str0" points="0.747285,0.00619777 0.864502,0.123429 0.972319,0.123415 1.08954,0.00619777 "/>
   <polygon id="_202108664" class="fil0 str0" points="0.00624162,0.284235 0.123444,0.401452 0.123458,0.50927 0.00624162,0.626487 "/>
   <polygon id="_202108616" class="fil0 str0" points="0.284235,1.36754 0.401437,1.25033 0.509255,1.25033 0.626472,1.36754 "/>
   <polygon id="_202108568" class="fil0 str0" points="1.36747,0.747285 1.25025,0.864487 1.25027,0.972319 1.36747,1.08954 "/>
  </g>
 </g>
</svg>
