<?xml version="1.0" encoding="UTF-8"?>
<!DOCTYPE svg PUBLIC "-//W3C//DTD SVG 1.1//EN" "http://www.w3.org/Graphics/SVG/1.1/DTD/svg11.dtd">
<!-- Creator: CorelDRAW -->
<svg xmlns="http://www.w3.org/2000/svg" xml:space="preserve" width="110px" height="110px" style="shape-rendering:geometricPrecision; text-rendering:geometricPrecision; image-rendering:optimizeQuality; fill-rule:evenodd; clip-rule:evenodd"
viewBox="0 0 1.6423 1.6423"
 xmlns:xlink="http://www.w3.org/1999/xlink">
 <defs>
  <style type="text/css">
   <![CDATA[
    .str0 {stroke:#4C4C4C;stroke-width:0.014801}
    .fil0 {fill:none}
   ]]>
  </style>
 </defs>
 <g id="Capa_x0020_1">
  <metadata id="CorelCorpID_0Corel-Layer"/>
  <g id="_113166400">
   <polygon id="_113161336" class="fil0 str0" points="1.63489,0.00740925 1.63489,1.63489 0.00740925,1.63489 0.00740925,0.00740925 "/>
   <polygon id="_113187352" class="fil0 str0" points="0.769915,0.342783 1.10595,0.00740925 0.00742672,0.00740925 0.00742672,1.1059 0.3428,0.769846 0.769915,0.769846 "/>
   <polygon id="_113187400" class="fil0 str0" points="0.872387,1.2995 0.536349,1.63488 1.63488,1.63488 1.63488,0.536402 1.2995,0.872439 0.872387,0.872439 "/>
   <polygon id="_113187448" class="fil0 str0" points="0.6946,0.309651 0.997453,0.00740925 0.00742672,0.00740925 0.00742672,0.9974 0.309686,0.694547 0.6946,0.694547 "/>
   <polygon id="_113187328" class="fil0 str0" points="0.947703,1.33263 0.644849,1.63488 1.63488,1.63488 1.63488,0.644884 1.33262,0.947755 0.947703,0.947755 "/>
   <polygon id="_113161576" class="fil0 str0" points="0.619301,0.276536 0.888953,0.00740925 0.00742672,0.00740925 0.00742672,0.8889 0.276554,0.619249 0.619301,0.619249 "/>
   <polygon id="_113161672" class="fil0 str0" points="1.023,1.36575 0.753349,1.63488 1.63488,1.63488 1.63488,0.753384 1.36575,1.02305 1.023,1.02305 "/>
   <polygon id="_113161768" class="fil0 str0" points="0.543986,0.243404 0.78047,0.00740925 0.00742672,0.00740925 0.00742672,0.780418 0.243439,0.543933 0.543986,0.543933 "/>
   <polygon id="_113161864" class="fil0 str0" points="1.09832,1.39888 0.861832,1.63488 1.63488,1.63488 1.63488,0.861885 1.39886,1.09835 1.09832,1.09835 "/>
   <path id="_113161960" class="fil0 str0" d="M0.00740925 1.63488l0.461575 0c-0.0299166,-0.0328174 -0.0598332,-0.067924 -0.0897498,-0.100741 -0.0438439,0.0125992 -0.0859403,0.0365744 -0.131532,0.0378501 -0.0305981,0.000856258 -0.0377103,-0.0364521 -0.00798591,-0.0504668 0.0384093,-0.0180863 0.0827774,-0.00975085 0.124542,-0.0173698 0.0189076,-0.0307204 0.038619,-0.0669454 0.0575265,-0.0976483 -0.0354735,-0.00945378 -0.0709121,-0.0189076 -0.106386,-0.0283788 -0.027575,0.0244296 -0.0565305,0.0473738 -0.0827075,0.0732712 -0.0362948,0.0358929 -0.0785835,-0.00478805 -0.0416945,-0.0420964 0.02588,-0.026177 0.0488416,-0.0551325 0.0732537,-0.08269 -0.00945378,-0.0354735 -0.0189076,-0.0709296 -0.0283614,-0.106386 -0.0307204,0.0189076 -0.0669279,0.0386015 -0.0976483,0.0575091 -0.00761895,0.0417819 0.000681511,0.0861325 -0.0173698,0.124542 -0.0139972,0.0297418 -0.051323,0.0226297 -0.0504668,-0.00796844 0.00127565,-0.0455914 0.0252334,-0.0876878 0.0378501,-0.131532 -0.0328174,-0.0299166 -0.0679414,-0.0598332 -0.100759,-0.0897498l-8.73732e-005 0.461855z"/>
   <path id="_113162056" class="fil0 str0" d="M1.63489 0.00740925l-0.461575 0c0.0299166,0.0328174 0.0598332,0.0679414 0.0897498,0.100759 0.0438439,-0.0126167 0.0859403,-0.0365744 0.131532,-0.0378501 0.0305981,-0.000856258 0.0377103,0.0364521 0.00798591,0.0504668 -0.0384093,0.0180688 -0.0827774,0.00975085 -0.124542,0.0173523 -0.0189076,0.0307379 -0.038619,0.0669454 -0.0575265,0.0976658 0.0354735,0.00945378 0.0709121,0.0189076 0.106386,0.0283614 0.027575,-0.0244121 0.0565305,-0.0473738 0.0827075,-0.0732537 0.0362948,-0.0359104 0.0785835,0.00477058 0.0416945,0.0420789 -0.02588,0.026177 -0.0488416,0.0551325 -0.0732537,0.0827075 0.00945378,0.0354561 0.0189076,0.0709121 0.0283614,0.106386 0.0307204,-0.0189076 0.0669279,-0.038619 0.0976483,-0.0575265 0.00761895,-0.0417644 -0.000681511,-0.0861325 0.0173698,-0.124542 0.0139972,-0.0297418 0.051323,-0.0226122 0.0504668,0.00796844 -0.00127565,0.0456088 -0.0252334,0.0877053 -0.0378501,0.131532 0.0328174,0.0299166 0.0679414,0.0598332 0.100759,0.0897673l8.73732e-005 -0.461872z"/>
   <path id="_113162152" class="fil0 str0" d="M0.14303 1.6346l-0.135621 0.000297069 0.000384442 -0.134572c0.09134,-0.0088946 0.135935,0.0367142 0.135236,0.134275z"/>
   <path id="_113162248" class="fil0 str0" d="M1.49927 0.00768884l0.135621 -0.000279594 -0.000384442 0.134555c-0.09134,0.0088946 -0.135935,-0.0367142 -0.135236,-0.134275z"/>
   <path id="_113162344" class="fil0 str0" d="M0.00740925 0.00740925l0.63744 0c-0.0525463,0.0696365 -0.114214,0.138224 -0.18981,0.192466 -0.0532627,-0.0184882 -0.104848,-0.0421488 -0.149723,-0.080663 -0.0226471,-0.0194493 -0.0615108,0.00435119 -0.0259149,0.0331319 0.0484222,0.0391607 0.100549,0.0719606 0.164122,0.0921962 0.00578411,0.0744245 0.0193969,0.138539 0.0158495,0.214816 -0.0762943,0.00356483 -0.140409,-0.0100654 -0.214816,-0.015832 -0.0202356,-0.0635902 -0.0530006,-0.1157 -0.0921788,-0.164122 -0.0287807,-0.0355959 -0.0525987,0.00325028 -0.0331319,0.0259149 0.0385141,0.0448574 0.0621573,0.09646 0.0806455,0.149723 -0.0542413,0.0755953 -0.122829,0.137263 -0.192466,0.189792l-1.74746e-005 -0.637423z"/>
   <path id="_113187856" class="fil0 str0" d="M1.63489 1.63488l-0.63744 0c0.0525463,-0.069619 0.114214,-0.138224 0.18981,-0.192448 0.0532627,0.0184707 0.104848,0.0421314 0.149723,0.0806455 0.0226471,0.0194668 0.0615108,-0.00435119 0.0259149,-0.0331319 -0.0484222,-0.0391607 -0.100549,-0.0719431 -0.164122,-0.0921788 -0.00578411,-0.074442 -0.0193969,-0.138539 -0.0158495,-0.214833 0.0762943,-0.00354735 0.140409,0.0100654 0.214816,0.0158495 0.0202356,0.0635728 0.0530006,0.1157 0.0921788,0.164104 0.0287807,0.0356133 0.0525987,-0.00325028 0.0331319,-0.0259149 -0.0385141,-0.0448574 -0.0621573,-0.0964426 -0.0806455,-0.149705 0.0542413,-0.0755953 0.122829,-0.137263 0.192466,-0.18981l1.74746e-005 0.637423z"/>
   <path id="_113163304" class="fil0 str0" d="M0.00742672 0.00740925l0.218992 0.00132807c-0.0104149,0.150352 -0.0581032,0.199683 -0.217769,0.221089l-0.00122323 -0.222417z"/>
   <path id="_113163496" class="fil0 str0" d="M1.63488 1.63488l-0.218992 -0.00132807c0.0104149,-0.150352 0.0581032,-0.199683 0.217769,-0.221089l0.00122323 0.222417z"/>
   <path id="_113163352" class="fil0 str0" d="M0.209783 0.260687c0.0254431,0.0436866 0.0476359,0.090606 0.073079,0.134275 0.0406286,0.00798591 0.0901342,0.0198162 0.131444,0.0193444 0.000471815,-0.0412926 -0.011341,-0.0907633 -0.019327,-0.131392 -0.0436691,-0.0254606 -0.0906235,-0.0476359 -0.134293,-0.073079 -0.0112537,0.0195192 -0.0313845,0.0395801 -0.0509036,0.0508512z"/>
   <path id="_113162680" class="fil0 str0" d="M1.43252 1.3816c-0.0254431,-0.0436691 -0.0476359,-0.090606 -0.073079,-0.134275 -0.0406286,-0.00798591 -0.0901342,-0.0198162 -0.131444,-0.0193444 -0.000471815,0.0413101 0.011341,0.0907633 0.019327,0.131392 0.0436691,0.0254606 0.0906235,0.0476534 0.134293,0.0730964 0.0112537,-0.0195367 0.0313845,-0.0395975 0.0509036,-0.0508687z"/>
   <path id="_113163376" class="fil0 str0" d="M0.54257 0.00975085c-0.0238878,0.0433546 -0.0465175,0.08961 -0.0860801,0.109461 -0.0578061,-0.022053 -0.0989589,-0.0678191 -0.14109,-0.109461l0.22717 0z"/>
   <path id="_113163544" class="fil0 str0" d="M1.09973 1.63255c0.0238878,-0.0433721 0.0465175,-0.0896275 0.0860801,-0.109479 0.0578061,0.0220705 0.0989589,0.0678191 0.14109,0.109479l-0.22717 0z"/>
   <path id="_113188336" class="fil0 str0" d="M0.00975085 0.54257c0.0433546,-0.0239053 0.0896275,-0.046535 0.109479,-0.0860976 -0.0220705,-0.0577887 -0.0678366,-0.0989414 -0.109479,-0.14109l0 0.227188z"/>
   <path id="_113163208" class="fil0 str0" d="M1.63255 1.09973c-0.0433546,0.0238878 -0.0896275,0.0465175 -0.109479,0.0860801 0.0220705,0.0578061 0.0678366,0.0989589 0.109479,0.14109l0 -0.22717z"/>
   <path id="_113163112" class="fil0 str0" d="M0.635273 0.94447c-0.0885615,0.024482 -0.174257,0.0508687 -0.308585,0.0448399 0.0311573,0.0267886 0.0623321,0.0535598 0.0935068,0.0803484 0.0430051,-0.0230665 0.0833366,-0.0426032 0.127984,-0.0477932 0.0373433,-0.00431624 0.0463952,0.0200958 0.0143467,0.0369764 -0.0602176,0.031734 -0.11715,0.0605147 -0.18074,0.0848045 -0.00686754,0.0429702 -0.00735683,0.0881072 -0.0142244,0.131095 0.0429876,-0.00686754 0.0881246,-0.00739178 0.131095,-0.0142244 0.0243072,-0.0636077 0.053088,-0.120523 0.0848219,-0.18074 0.0168805,-0.0320485 0.0412926,-0.0229966 0.0369589,0.0143292 -0.00518997,0.0446652 -0.0247092,0.0849967 -0.0477932,0.128002 0.0267886,0.0311748 0.0535598,0.0623321 0.0803484,0.0935243 -0.00602875,-0.134345 0.0203929,-0.220058 0.0448574,-0.308602 -0.041712,-0.00153777 -0.0610389,-0.0202356 -0.0625767,-0.0625592z"/>
   <path id="_113162632" class="fil0 str0" d="M1.00703 0.697833c0.0885615,-0.024482 0.174257,-0.0508862 0.308585,-0.0448574 -0.0311573,-0.0267886 -0.0623321,-0.0535598 -0.0935068,-0.0803484 -0.0430051,0.0230665 -0.0833366,0.0426207 -0.127984,0.0477932 -0.0373433,0.00433371 -0.0463952,-0.0200784 -0.0143467,-0.0369589 0.0602176,-0.0317514 0.11715,-0.0605147 0.18074,-0.0848045 0.00686754,-0.0429876 0.00735683,-0.0881246 0.0142244,-0.131095 -0.0429876,0.00685006 -0.0881246,0.0073743 -0.131095,0.0142244 -0.0243072,0.0635902 -0.053088,0.120505 -0.0848219,0.180723 -0.0168805,0.0320485 -0.0412926,0.0230141 -0.0369589,-0.0143292 0.00518997,-0.0446652 0.0247092,-0.0849792 0.0477932,-0.127984 -0.0267886,-0.0311922 -0.0535598,-0.0623495 -0.0803484,-0.0935243 0.00602875,0.134345 -0.0203929,0.220041 -0.0448574,0.308585 0.041712,0.00155524 0.0610389,0.0202356 0.0625767,0.0625767z"/>
   <path id="_113162392" class="fil0 str0" d="M0.781921 0.862094c-0.0312621,0.00781117 -0.079265,0.00557441 -0.11051,0.0133856 0,0.0412576 0.0412926,0.0881072 0.0770108,0.0936816 0.0134031,-0.0312272 0.0200958,-0.07584 0.0334989,-0.107067z"/>
   <path id="_113162824" class="fil0 str0" d="M0.860382 0.780191c0.0312621,-0.00779369 0.079265,-0.00557441 0.11051,-0.0133681 0,-0.0412751 -0.0412926,-0.0881246 -0.0770108,-0.0936991 -0.0134031,0.0312272 -0.0200958,0.07584 -0.0334989,0.107067z"/>
   <path id="_113162920" class="fil0 str0" d="M0.00742672 0.00740925l0.168176 0.001031c-0.00800339,0.115455 -0.0446302,0.15334 -0.167232,0.169784l-0.000943631 -0.170815z"/>
   <path id="_113163016" class="fil0 str0" d="M1.63488 1.63488l-0.168176 -0.00101353c0.00800339,-0.115472 0.0446302,-0.15334 0.167232,-0.169784l0.000943631 0.170797z"/>
  </g>
 </g>
</svg>
