<?xml version="1.0" encoding="UTF-8"?>
<!DOCTYPE svg PUBLIC "-//W3C//DTD SVG 1.1//EN" "http://www.w3.org/Graphics/SVG/1.1/DTD/svg11.dtd">
<!-- Creator: CorelDRAW -->
<svg xmlns="http://www.w3.org/2000/svg" xml:space="preserve" width="110px" height="110px" style="shape-rendering:geometricPrecision; text-rendering:geometricPrecision; image-rendering:optimizeQuality; fill-rule:evenodd; clip-rule:evenodd"
viewBox="0 0 1.04002 1.04003"
 xmlns:xlink="http://www.w3.org/1999/xlink">
 <defs>
  <style type="text/css">
   <![CDATA[
    .str0 {stroke:#4C4C4C;stroke-width:0.00937315}
    .fil0 {fill:white}
   ]]>
  </style>
 </defs>
 <g id="Capa_x0020_1">
  <metadata id="CorelCorpID_0Corel-Layer"/>
  <g id="_202789432">
   <polygon id="_202790368" class="fil0 str0" points="1.03531,0.00469211 1.03531,1.03534 0.00469211,1.03534 0.00469211,0.00469211 "/>
   <polygon id="_202790320" class="fil0 str0" points="0.00470317,1.03533 0.00470317,0.00469211 1.03533,0.00469211 1.03533,1.03533 "/>
   <path id="_202790272" class="fil0 str0" d="M0.404063 0.404119c0.104344,-0.102142 0.156533,-0.223506 0.173032,-0.358017 0.0892828,0.00109556 0.164788,0.0059426 0.220175,0.0162785 0.0404805,0.0252311 0.0625688,0.0650919 0.0394292,0.140918l-0.0294806 0.0294917c-0.0256959,0.00497983 -0.0769771,0.00881983 -0.0835394,0.00451505 -0.137941,-0.111758 0.106823,-0.179639 0.0385881,-0.0290269 0.0839046,-0.0147956 0.0638967,-0.108782 0.00855424,-0.121187 -0.0443094,-0.00359654 -0.0933552,-0.00549994 -0.159266,-0.00138329 -0.0255189,0.129276 -0.0851883,0.244222 -0.182372,0.343442l-4.42651e-005 3.31989e-005c-0.0992203,0.0971841 -0.214166,0.156865 -0.343442,0.182383 -0.00411666,0.0659219 -0.00220219,0.114957 0.00139435,0.159266 0.0123942,0.0553425 0.106391,0.0753503 0.121176,-0.00855424 -0.150612,0.0682458 -0.0827316,-0.176529 0.0290379,-0.0385881 0.00429372,0.00657337 0.000464784,0.0578545 -0.00452611,0.0835394l-0.0294917 0.0294806c-0.0758151,0.0231507 -0.115676,0.00106236 -0.140918,-0.0394292 -0.0103359,-0.0553757 -0.0151719,-0.130892 -0.0162674,-0.220175 0.134511,-0.0164998 0.255864,-0.0686884 0.358017,-0.173032l-5.53314e-005 4.42651e-005z"/>
   <path id="_202790224" class="fil0 str0" d="M0.635935 0.635902c-0.104344,0.102142 -0.156533,0.223506 -0.173032,0.358017 -0.0892828,-0.0010845 -0.164788,-0.00593153 -0.220175,-0.0162674 -0.0404805,-0.0252422 -0.0625688,-0.065103 -0.0394181,-0.140918l0.0294806 -0.0294917c0.0256849,-0.0049909 0.076966,-0.00881983 0.0835283,-0.00452611 0.137941,0.111769 -0.106823,0.17965 -0.0385881,0.0290379 -0.0839046,0.0147846 -0.0638967,0.108782 -0.00855424,0.121176 0.0443205,0.00359654 0.0933552,0.00551101 0.159266,0.00139435 0.0255189,-0.129276 0.0851993,-0.244233 0.182383,-0.343453l3.31989e-005 -3.31989e-005c0.0992203,-0.0971841 0.214166,-0.156865 0.343442,-0.182383 0.00411666,-0.0659108 0.00221326,-0.114957 -0.00138329,-0.159266 -0.0124053,-0.0553425 -0.106391,-0.0753503 -0.121187,0.00855424 0.150612,-0.0682347 0.0827316,0.176529 -0.0290379,0.0385881 -0.00429372,-0.00656231 -0.000453718,-0.0578435 0.00452611,-0.0835394l0.0294917 -0.0294806c0.0758151,-0.0231396 0.115676,-0.0010513 0.140918,0.0394292 0.0103359,0.0553868 0.0151829,0.130892 0.0162674,0.220186 -0.134511,0.0164998 -0.255864,0.0686774 -0.358005,0.173021l4.42651e-005 -4.42651e-005z"/>
   <path id="_202790176" class="fil0 str0" d="M0.23279 0.807241c0.0256849,-0.0049909 0.076966,-0.00881983 0.0835283,-0.00452611 0.137941,0.111769 -0.106823,0.17965 -0.0385881,0.0290379 -0.0839046,0.0147846 -0.0638967,0.108782 -0.00855424,0.121176 0.0443205,0.00359654 0.0933552,0.00551101 0.159266,0.00139435 0.0255189,-0.129276 0.0851993,-0.244233 0.182383,-0.343453l3.31989e-005 -3.31989e-005c0.0992203,-0.0971841 0.214166,-0.156865 0.343442,-0.182383 0.00411666,-0.0659108 0.00221326,-0.114957 -0.00138329,-0.159266 -0.0124053,-0.0553425 -0.106391,-0.0753503 -0.121187,0.00855424 0.150612,-0.0682347 0.0827316,0.176529 -0.0290379,0.0385881 -0.00429372,-0.00656231 -0.000453718,-0.0578435 0.00452611,-0.0835394l0 0c-0.0256959,0.00497983 -0.0769771,0.00881983 -0.0835394,0.00451505 -0.137941,-0.111758 0.106823,-0.179639 0.0385881,-0.0290269 0.0839046,-0.0147956 0.0638967,-0.108782 0.00855424,-0.121187 -0.0443094,-0.00359654 -0.0933552,-0.00549994 -0.159266,-0.00138329 -0.0255189,0.129276 -0.0851883,0.244222 -0.182372,0.343442l-4.42651e-005 3.31989e-005c-0.0992203,0.0971841 -0.214166,0.156865 -0.343442,0.182383 -0.00411666,0.0659219 -0.00220219,0.114957 0.00139435,0.159266 0.0123942,0.0553425 0.106391,0.0753503 0.121176,-0.00855424 -0.150612,0.0682458 -0.0827316,-0.176529 0.0290379,-0.0385881 0.00429372,0.00657337 0.000464784,0.0578545 -0.00452611,0.0835394l1.10663e-005 1.10663e-005z"/>
   <path id="_202790128" class="fil0 str0" d="M0.532122 0.507865c0.0324685,-0.000509049 0.0631442,-0.00230179 0.0898361,-0.00687216 -0.00483597,-0.0186578 0.0507611,-0.0999507 0.0986891,-0.16626 0.0129476,-0.0146075 0.0272009,-0.00656231 0.0216789,0.0124274 -0.0214907,0.0318045 -0.0437229,0.061938 -0.0650698,0.123511 -0.00192553,0.0028883 0.0029879,0.0155039 0.00562167,0.0144194 0.0265038,-0.0087313 0.051248,-0.0185139 0.0751954,-0.0287834 -0.00521222,-0.0408899 -0.00142755,-0.0814589 0.011852,-0.121198 0.00365187,-0.00959447 0.00730375,-0.0100261 0.0109667,-0.00628565 -0.00483597,0.0343276 -0.00142755,0.073458 0.00760254,0.115886 0.0222211,-0.0134345 0.0452279,-0.0260611 0.0685999,-0.0383336 -0.0340067,-0.0184254 -0.0533616,-0.0478396 -0.0550105,-0.0905444 -0.00344162,-0.0258619 0.00126156,-0.0552872 0.00510156,-0.0830193l1.10663e-005 1.10663e-005c-0.0277432,0.00384 -0.0571574,0.00854317 -0.0830304,0.00510156 -0.0426937,-0.00164888 -0.0721079,-0.0210038 -0.0905333,-0.0550216 -0.0122725,0.023372 -0.0249102,0.0463899 -0.0383336,0.0685999 0.0424171,0.00904116 0.0815585,0.0124496 0.115886,0.00761361 0.00374041,0.00366294 0.00330882,0.00731482 -0.00628565,0.0109667 -0.039739,0.0132795 -0.080308,0.0170642 -0.121198,0.011852 -0.0102695,0.0239364 -0.0200521,0.0486917 -0.0287834,0.0751954 -0.00109556,0.00263378 0.0115311,0.00754721 0.0144194,0.00562167 0.0615728,-0.0213469 0.0917063,-0.043579 0.1235,-0.0650808 0.0190008,-0.00551101 0.027046,0.00874237 0.0124274,0.0216899 -0.0662981,0.0479281 -0.147591,0.103536 -0.166249,0.0986891 -0.00457038,0.0266919 -0.00636312,0.0573676 -0.00687216,0.0898472l-2.21326e-005 -3.31989e-005z"/>
   <path id="_202790080" class="fil0 str0" d="M0.507887 0.532156c-0.0324796,0.000520115 -0.0631553,0.00230179 -0.0898472,0.00688323 0.00484703,0.0186578 -0.0507611,0.0999507 -0.0986781,0.166249 -0.0129586,0.0146186 -0.027212,0.00656231 -0.0216899,-0.0124274 0.0214907,-0.0317934 0.0437229,-0.061938 0.0650698,-0.123511 0.00192553,-0.00287723 -0.0029879,-0.0155039 -0.00561061,-0.0144194 -0.0265148,0.0087313 -0.051259,0.0185139 -0.0752065,0.0287834 0.00521222,0.040901 0.00142755,0.0814589 -0.011852,0.121198 -0.00365187,0.00960554 -0.00730375,0.0100371 -0.0109556,0.00629672 0.0048249,-0.0343387 0.00142755,-0.0734691 -0.00761361,-0.115886 -0.0222211,0.0134234 -0.0452279,0.02605 -0.0685999,0.0383226 0.0340178,0.0184254 0.0533616,0.0478506 0.0550105,0.0905444 0.00344162,0.025873 -0.00126156,0.0552872 -0.00510156,0.0830304l-1.10663e-005 -1.10663e-005c0.0277432,-0.00385107 0.0571574,-0.00855424 0.0830304,-0.00511262 0.0426937,0.00165994 0.072119,0.0210038 0.0905333,0.0550216 0.0122725,-0.023372 0.0249102,-0.0463788 0.0383336,-0.0685999 -0.0424171,-0.00904116 -0.0815585,-0.0124496 -0.115886,-0.00761361 -0.00374041,-0.00365187 -0.00330882,-0.00731482 0.00628565,-0.0109667 0.0397501,-0.0132685 0.080308,-0.0170642 0.121209,-0.0118409 0.0102584,-0.0239474 0.0200521,-0.0486917 0.0287723,-0.0752065 0.00109556,-0.00262271 -0.0115311,-0.00754721 -0.0144194,-0.00562167 -0.0615618,0.0213469 -0.0917063,0.043579 -0.1235,0.0650808 -0.0189897,0.00552208 -0.027046,-0.0087313 -0.0124274,-0.0216899 0.0662981,-0.0479281 0.147591,-0.103525 0.166249,-0.0986781 0.00457038,-0.026703 0.00636312,-0.0573676 0.00688323,-0.0898472l2.21326e-005 2.21326e-005z"/>
   <path id="_202790032" class="fil0 str0" d="M0.403377 0.403388c-0.0932335,0.00536715 -0.164777,-0.0370278 -0.202513,-0.17965 -0.00875343,-0.0233499 -0.0415982,-0.0172523 -0.036386,-8.85303e-005 0.0305651,0.0616835 0.0528858,0.107232 0.0487691,0.125558 -0.00962767,0.117059 -0.139634,0.112146 -0.160528,0.00640738 -0.00836611,-0.0298458 0.0204284,-0.151243 -0.0123168,-0.194324 -0.00138329,-0.00441545 0.005843,-0.00369614 0.0195099,0.00172634 0.0381455,0.0341948 0.049588,0.0730043 0.0412441,0.112898 0.0238589,0.00900796 0.0353457,0.0175622 0.0366626,0.0283076 -0.0976489,-0.0113651 -0.0211919,0.125669 0.0234052,0.0416092 0.014353,-0.0450287 -0.018204,-0.222809 -0.156533,-0.237958l0 -0.0299122c0.0291375,0.00341948 0.0587952,0.00661764 0.0879327,0.0146628l0 0c-0.00804519,-0.0291375 -0.0112433,-0.0587952 -0.0146628,-0.0879327l0.0299122 0c0.0151497,0.138329 0.192919,0.170886 0.237947,0.156533 0.0840595,-0.0445861 -0.0529632,-0.121054 -0.0416092,-0.0234052 -0.0107454,-0.00131689 -0.0192885,-0.0128037 -0.0283076,-0.0366626 -0.039894,0.00834398 -0.0787034,-0.00309856 -0.112887,-0.0412441 -0.00542248,-0.0136669 -0.00615286,-0.0208931 -0.00172634,-0.0195099 0.0430811,0.0327451 0.164467,0.00395066 0.194313,0.0123168 0.105738,0.0208931 0.110652,0.150911 -0.00640738,0.160528 -0.0183258,0.00412773 -0.0638635,-0.018204 -0.125547,-0.0487581 -0.0171638,-0.00521222 -0.0232724,0.0276325 8.85303e-005,0.036386 0.142611,0.037736 0.185006,0.10928 0.179639,0.202513l0 0z"/>
   <path id="_202789984" class="fil0 str0" d="M0.00469211 0.077962c0.0291375,0.00341948 0.0587952,0.00661764 0.0879327,0.0146628l0 0c-0.00804519,-0.0291375 -0.0112433,-0.0587952 -0.0146628,-0.0879327l-0.0732699 0 0 0.0732699z"/>
   <polygon id="_202789936" class="fil0 str0" points="1.03531,0.00469211 1.03531,0.259836 0.780173,0.00469211 "/>
   <polygon id="_202789888" class="fil0 str0" points="0.00470317,1.03533 0.00470317,0.780195 0.259836,1.03533 "/>
   <path id="_202789840" class="fil0 str0" d="M1.03532 0.148687c-0.0286617,0.0372381 -0.0754831,0.00138329 -0.0608424,-0.035722 0.0347371,-0.0450398 0.00110663,-0.0848674 -0.0474412,-0.0474301 -0.0371053,0.0146518 -0.07296,-0.0321697 -0.035722,-0.0608424l0.143995 0 1.10663e-005 0.143995z"/>
   <path id="_202789792" class="fil0 str0" d="M0.00469211 0.891334c0.0286727,-0.0372381 0.0754942,-0.00138329 0.0608424,0.035733 -0.0347371,0.0450287 -0.00110663,0.0848674 0.0474412,0.047419 0.0371053,-0.0146518 0.07296,0.0321808 0.035722,0.0608424l-0.143995 0 -1.10663e-005 -0.143995z"/>
   <path id="_202789744" class="fil0 str0" d="M1.03531 0.539017l0 0.496312 -0.496312 0c0.0437008,-0.288144 0.209142,-0.453585 0.496312,-0.496312z"/>
   <path id="_202789696" class="fil0 str0" d="M1.03531 0.568929l0 0.4664 -0.466389 0c0.041067,-0.27077 0.196526,-0.42624 0.466389,-0.4664z"/>
   <path id="_202789648" class="fil0 str0" d="M1.03531 0.633711l0 0.401618 -0.401607 0c0.0353568,-0.233167 0.169237,-0.367036 0.401607,-0.401618z"/>
   <path id="_202789600" class="fil0 str0" d="M1.03531 0.665715l0 0.369614 -0.369603 0c0.032546,-0.214586 0.155747,-0.337787 0.369603,-0.369614z"/>
   <path id="_202789552" class="fil0 str0" d="M0.674225 1.03533c0.00131689,-0.038068 0.0598907,-0.0683454 0.131479,-0.0747528 -0.0332542,-0.0158027 -0.0652247,-0.0378135 -0.0898693,-0.0954246 0.0421072,-0.00856531 0.0834398,-0.0222432 0.134334,0.0288055 0.0446193,0.0688987 0.127384,0.0103802 0.0437672,-0.0437672 -0.0510488,-0.0508939 -0.0373598,-0.0922375 -0.0288055,-0.134334 0.0576111,0.0246336 0.0796219,0.0566151 0.0954246,0.0898693 0.00640738,-0.0715878 0.0366847,-0.130162 0.0747528,-0.13149l0 0.361093 -0.361082 0z"/>
   <path id="_202789504" class="fil0 str0" d="M1.03531 0.896746l0 0.138583 -0.138583 0c0.0122061,-0.0804519 0.0583968,-0.126654 0.138583,-0.138583z"/>
   <path id="_202789456" class="fil0 str0" d="M1.03531 0.931416l0 0.103912 -0.103912 0c0.00914075,-0.0603334 0.0437893,-0.0949709 0.103912,-0.103912z"/>
  </g>
 </g>
</svg>
