<?xml version="1.0" encoding="UTF-8"?>
<!DOCTYPE svg PUBLIC "-//W3C//DTD SVG 1.1//EN" "http://www.w3.org/Graphics/SVG/1.1/DTD/svg11.dtd">
<!-- Creator: CorelDRAW -->
<svg xmlns="http://www.w3.org/2000/svg" xml:space="preserve" width="111px" height="111px" style="shape-rendering:geometricPrecision; text-rendering:geometricPrecision; image-rendering:optimizeQuality; fill-rule:evenodd; clip-rule:evenodd"
viewBox="0 0 0.585729 0.585711"
 xmlns:xlink="http://www.w3.org/1999/xlink">
 <defs>
  <style type="text/css">
   <![CDATA[
    .str0 {stroke:#605D5C;stroke-width:0.00521253}
    .fil0 {fill:white}
   ]]>
  </style>
 </defs>
 <g id="Plan_x0020_1">
  <metadata id="CorelCorpID_0Corel-Layer"/>
  <g id="_202909544">
   <polygon id="_202905344" class="fil0 str0" points="0.00629565,0.00627719 0.57944,0.00627719 0.57944,0.579409 0.00629565,0.579409 "/>
   <polygon id="_202884584" class="fil0 str0" points="0.57944,0.579421 0.00628949,0.579421 0.57944,0.00628949 "/>
   <path id="_202883216" class="fil0 str0" d="M0.57944 0.00628949l0 0.132695 -0.116103 0.134467c-0.00816034,0.00944655 -0.0120313,0.0164807 -0.014056,0.0292935 -0.00595717,0.0376693 0.0228133,0.0586425 0.0569624,0.0450296 0.0109297,-0.00435711 0.0155514,-0.00950194 0.00791418,0.00641258 -0.0154406,0.032186 -0.0699414,0.0516268 -0.113205,0.0295766 -0.0255026,-0.0129913 -0.0506421,-0.045085 -0.055707,-0.0733323 -0.00353246,-0.019687 -0.00238779,-0.0441495 0.00296628,-0.0729138l0.231228 -0.231228z"/>
   <path id="_202879664" class="fil0 str0" d="M0.57944 0.00629565l-0.132701 0 -0.134473 0.116097c-0.00944655,0.00816034 -0.0164745,0.0120313 -0.0292935,0.014056 -0.0376631,0.00595102 -0.0586425,-0.0228133 -0.0450296,-0.0569624 0.00435711,-0.0109297 0.00950194,-0.0155514 -0.00641258,-0.00791418 -0.032186,0.0154406 -0.0516268,0.0699414 -0.0295766,0.113205 0.0129975,0.0255026 0.045085,0.050636 0.0733385,0.055707 0.019687,0.00353246 0.0441495,0.00238779 0.0729138,-0.00297243l0.231234 -0.231216z"/>
   <path id="_202883480" class="fil0 str0" d="M0.00629565 0.579421l0.132701 0 0.134473 -0.116097c0.00944655,-0.00816034 0.0164807,-0.0120313 0.0292935,-0.014056 0.0376693,-0.00595102 0.0586425,0.0228133 0.0450296,0.0569624 -0.00435711,0.0109297 -0.00950194,0.0155514 0.00641258,0.00791418 0.032186,-0.0154406 0.0516268,-0.0699414 0.0295766,-0.113205 -0.0129913,-0.0255026 -0.045085,-0.050636 -0.0733323,-0.055707 -0.0196931,-0.00353246 -0.0441557,-0.00238779 -0.0729138,0.00297243l-0.23124 0.231216z"/>
   <path id="_202886360" class="fil0 str0" d="M0.00628949 0.579421l0 -0.132701 0.116103 -0.134467c0.00816034,-0.00944655 0.0120313,-0.0164807 0.014056,-0.0292935 0.00595717,-0.0376631 -0.0228133,-0.0586425 -0.0569624,-0.0450296 -0.0109297,0.00435711 -0.0155514,0.00950194 -0.00791418,-0.00641258 0.0154406,-0.032186 0.0699414,-0.0516206 0.113205,-0.0295766 0.0255026,0.0129975 0.0506421,0.045085 0.055707,0.0733385 0.00353246,0.019687 0.00238779,0.0441495 -0.00296628,0.0729077l-0.231228 0.231234z"/>
   <path id="_202884800" class="fil0 str0" d="M0.00629565 0.00627719l0.180561 0c-0.0786679,0.0420325 -0.138812,0.102263 -0.180561,0.180561l0 -0.180561z"/>
   <path id="_202895384" class="fil0 str0" d="M0.57944 0.579421l-0.180568 0c0.0786679,-0.0420325 0.138812,-0.102263 0.180568,-0.180561l0 0.180561z"/>
  </g>
 </g>
</svg>
