<?xml version="1.0" encoding="UTF-8"?>
<!DOCTYPE svg PUBLIC "-//W3C//DTD SVG 1.1//EN" "http://www.w3.org/Graphics/SVG/1.1/DTD/svg11.dtd">
<!-- Creator: CorelDRAW -->
<svg xmlns="http://www.w3.org/2000/svg" xml:space="preserve" width="111px" height="111px" style="shape-rendering:geometricPrecision; text-rendering:geometricPrecision; image-rendering:optimizeQuality; fill-rule:evenodd; clip-rule:evenodd"
viewBox="0 0 87.3513 87.3522"
 xmlns:xlink="http://www.w3.org/1999/xlink">
 <defs>
  <style type="text/css">
   <![CDATA[
    .str0 {stroke:#4C4C4C;stroke-width:0.787267}
    .fil0 {fill:none}
   ]]>
  </style>
 </defs>
 <g id="Capa_x0020_1">
  <metadata id="CorelCorpID_0Corel-Layer"/>
  <g id="_133846000">
   <polygon id="_203605008" class="fil0 str0" points="86.9581,0.394098 86.9581,86.9581 0.394098,86.9581 0.394098,0.394098 "/>
   <polygon id="_203604960" class="fil0 str0" points="0.394098,86.9581 0.394098,0.394098 86.9581,0.394098 86.9581,86.9581 "/>
   <path id="_203604912" class="fil0 str0" d="M86.9581 0.394098l0 19.1035c-3.81086,0 -7.36239,-1.1163 -10.3451,-3.04032 3.2225,7.53155 -1.78181,13.6642 -10.6156,8.48612 -1.78738,4.6446 -3.64634,5.86872 -7.55107,3.96608 -1.90264,-3.9038 -0.683166,-5.7674 3.96236,-7.55572 -5.17905,-8.83375 0.953643,-13.8381 8.4852,-10.6156 -1.92309,-2.98176 -3.04032,-6.53329 -3.04032,-10.3441l19.1035 0 0.000929477 0z"/>
   <path id="_203604864" class="fil0 str0" d="M0.394098 86.9581l0 -19.1035c3.81086,0 7.36239,1.1163 10.3432,3.04032 -3.22064,-7.53155 1.78274,-13.6642 10.6165,-8.48612 1.78831,-4.64553 3.64727,-5.86872 7.55107,-3.96608 1.90357,3.9038 0.683166,5.7674 -3.96143,7.55572 5.17812,8.83282 -0.954573,13.8381 -8.48705,10.6156 1.92402,2.98176 3.04125,6.53329 3.04125,10.3451l-19.1035 0 0 -0.000929477z"/>
   <path id="_203604816" class="fil0 str0" d="M66.255 66.255c-20.9011,-4.89556 -32.9286,4.62694 -40.9239,20.7032l61.6271 0 0 -61.6271c-16.0762,7.99536 -25.5987,20.0237 -20.7032,40.9239z"/>
   <path id="_203604768" class="fil0 str0" d="M21.0973 21.0973c20.9002,4.89556 32.9286,-4.62694 40.9239,-20.7032l-61.628 0 0.000929477 61.6271c16.0753,-7.99536 25.5978,-20.0237 20.7032,-40.9239z"/>
   <polygon id="_203604720" class="fil0 str0" points="26.6518,43.6761 35.8193,46.9005 31.6385,55.7138 40.4518,51.533 43.6761,60.7004 46.9005,51.533 55.7138,55.7138 51.533,46.9005 60.7004,43.6761 51.533,40.4518 55.7138,31.6385 46.9005,35.8193 43.6761,26.6518 40.4518,35.8193 31.6385,31.6385 35.8193,40.4518 "/>
   <path id="_203604672" class="fil0 str0" d="M86.9581 86.9581l0 -52.3537c-15.1272,-0.400605 -26.7085,32.1004 -3.23458,39.0901l-0.170094 9.87198 -9.85896 0.158011c-6.98967,-23.4739 -39.4916,-11.8936 -39.0901,3.23365l52.3537 0z"/>
   <path id="_203604624" class="fil0 str0" d="M0.393169 0.394098l0.000929477 52.3537c15.1272,0.400605 26.7076,-32.1004 3.23365,-39.091l0.170094 -9.87105 9.85896 -0.158011c6.98967,23.4739 39.4916,11.8936 39.091,-3.23365l-52.3546 0 0 0z"/>
   <path id="_203604576" class="fil0 str0" d="M43.6761 46.8484c1.75113,0 3.17138,-1.42024 3.17138,-3.1723 0,-1.75206 -1.42024,-3.1723 -3.17138,-3.1723 -1.75206,0 -3.17323,1.42024 -3.17323,3.1723 0,1.75206 1.42117,3.1723 3.17323,3.1723z"/>
   <path id="_203604528" class="fil0 str0" d="M0.394098 86.9581l0 -16.3737c8.97968,0 16.3737,7.39306 16.3737,16.3737l-16.3737 0z"/>
   <path id="_203604480" class="fil0 str0" d="M86.9581 0.394098l0 16.3737c-8.98154,0 -16.3737,-7.39306 -16.3737,-16.3737l16.3737 0z"/>
  </g>
 </g>
</svg>
