<?xml version="1.0" encoding="UTF-8"?>
<!DOCTYPE svg PUBLIC "-//W3C//DTD SVG 1.1//EN" "http://www.w3.org/Graphics/SVG/1.1/DTD/svg11.dtd">
<!-- Creator: CorelDRAW -->
<svg xmlns="http://www.w3.org/2000/svg" xml:space="preserve" width="110px" height="110px" style="shape-rendering:geometricPrecision; text-rendering:geometricPrecision; image-rendering:optimizeQuality; fill-rule:evenodd; clip-rule:evenodd"
viewBox="0 0 0.382635 0.382652"
 xmlns:xlink="http://www.w3.org/1999/xlink">
 <defs>
  <style type="text/css">
   <![CDATA[
    .str0 {stroke:#4C4C4C;stroke-width:0.00344845}
    .fil0 {fill:white}
   ]]>
  </style>
 </defs>
 <g id="Plan_x0020_1">
  <metadata id="CorelCorpID_0Corel-Layer"/>
  <g id="_221647520">
   <polygon id="_221647376" class="fil0 str0" points="0.00172626,0.00173033 0.380909,0.00173033 0.380909,0.380921 0.00172626,0.380921 "/>
   <path id="_221647304" class="fil0 str0" d="M0.352373 0.00173847l8.14274e-006 0.170883c-0.0932669,0.0126742 -0.167109,0.0865369 -0.179759,0.179812l-0.170863 -5.29278e-005 0 -0.0379044 0.140047 -4.07137e-006c0.0231987,-0.0836096 0.0890734,-0.149484 0.172675,-0.172679l-1.22141e-005 -0.140055 0.0379044 0z"/>
   <path id="_221647232" class="fil0 str0" d="M0.00174255 0.00172626l0.163417 4.07137e-006c0,0.0121734 -0.00464543,0.0243509 -0.0139322,0.0336376 -0.00954736,0.00954736 -0.0222052,0.0141521 -0.0347247,0.0138793 0.00226775,0.0021619 0.00432379,0.00455179 0.00612741,0.00712897 0.00180769,0.0025731 0.00336295,0.00533349 0.00463322,0.00824859 0.00127434,0.0029151 0.00226775,0.00598491 0.00293546,0.00916465 0.000671776,0.00318381 0.00102598,0.00648162 0.00102598,0.00986085 0,0.00328152 -0.000333852,0.00648569 -0.000968986,0.009584 -0.000635133,0.00309424 -0.00156748,0.00608262 -0.00276853,0.00892851 -0.00120513,0.00284589 -0.00268303,0.00554927 -0.00438893,0.00808167 -0.00170997,0.00253239 -0.00365609,0.00488971 -0.00580984,0.00704347 -0.00214968,0.00214968 -0.004507,0.0040958 -0.0070394,0.00580577 -0.00252832,0.00170997 -0.00523578,0.00318381 -0.00808167,0.00438893 -0.00284182,0.00120105 -0.0058302,0.00213747 -0.00892444,0.00276853 -0.00309831,0.000635133 -0.00630248,0.000968986 -0.00958807,0.000968986 -0.00335888,0 -0.00663633,-0.000350138 -0.00979978,-0.00101377 -0.00316345,-0.000663633 -0.00621291,-0.00164076 -0.00910765,-0.00289474 -0.00289881,-0.00125805 -0.00565106,-0.00279703 -0.00821602,-0.00458436 -0.00256496,-0.00178326 -0.005077,-0.00392887 -0.00723482,-0.00616812 0.000272782,0.0125195 -0.00437265,0.0251244 -0.01392,0.0346718 -0.00928679,0.00928679 -0.0214602,0.0139322 -0.0336336,0.0139322l0 -0.163437z"/>
   <path id="_221647160" class="fil0 str0" d="M0.380885 0.380925l-0.163417 -4.07137e-006c0,-0.0121734 0.00464136,-0.0243509 0.0139282,-0.0336376 0.00954736,-0.00954736 0.0222093,-0.0141521 0.0347247,-0.0138793 -0.00226368,-0.0021619 -0.00431972,-0.00455179 -0.00612741,-0.00712897 -0.00180362,-0.0025731 -0.00336295,-0.00533349 -0.00463322,-0.00824859 -0.00127027,-0.0029151 -0.00226368,-0.00598491 -0.00293139,-0.00916465 -0.000675847,-0.00318381 -0.00102598,-0.00648162 -0.00102598,-0.00986085 0,-0.00328152 0.000333852,-0.00648569 0.000968986,-0.009584 0.000631062,-0.00309424 0.00156748,-0.00608262 0.00276853,-0.00892851 0.00120513,-0.00284589 0.00267896,-0.00554927 0.00438893,-0.00808167 0.00170997,-0.00253239 0.00365609,-0.00488971 0.00580577,-0.00704347 0.00214968,-0.00214968 0.00451108,-0.0040958 0.0070394,-0.00580577 0.00253239,-0.00170997 0.00523985,-0.00318381 0.00808167,-0.00438893 0.00284182,-0.00120105 0.00583427,-0.00213747 0.00892851,-0.00276853 0.00309831,-0.000635133 0.00630248,-0.000968986 0.009584,-0.000968986 0.00335888,0 0.0066404,0.000350138 0.00979978,0.00101377 0.00316345,0.000663633 0.00621698,0.00164076 0.00911172,0.00289474 0.00289881,0.00125805 0.00564699,0.00279703 0.00821602,0.00458436 0.00256496,0.00178326 0.00507292,0.00392887 0.00723482,0.00616812 -0.000272782,-0.0125195 0.00437265,-0.0251244 0.0139159,-0.0346718 0.00928679,-0.00928679 0.0214602,-0.0139322 0.0336376,-0.0139322l0 0.163437z"/>
   <path id="_221647088" class="fil0 str0" d="M0.352373 0.0681913l0.0285321 -4.07137e-006 0 -0.0379085 -0.0285321 -1.22141e-005 0 0.0379248zm-0.0379004 0l-0.0736144 0c-0.0231987,0.0836096 -0.0890734,0.149484 -0.172675,0.172675l1.22141e-005 0.140059 -0.0379044 0 -8.14274e-006 -0.170883c0.0932669,-0.0126742 0.167109,-0.0865369 0.179759,-0.179812l0.104427 3.66423e-005 4.07137e-006 0.0379248z"/>
   <path id="_221647016" class="fil0 str0" d="M0.0494223 0.116673c0.0021619,0.00224332 0.00454365,0.00427087 0.00710861,0.00605412 0.00256496,0.00178326 0.00531721,0.00332631 0.00821195,0.00458436 0.00289881,0.00125398 0.00594827,0.00223111 0.00911172,0.00289474 0.00316345,0.000663633 0.0064409,0.00101377 0.00979978,0.00101377 0.00328559,0 0.00648976,-0.000333852 0.00958807,-0.000968986 0.00309424,-0.000631062 0.00608262,-0.00156748 0.00892851,-0.00276853 0.00284182,-0.00120513 0.0055452,-0.00267896 0.00807759,-0.00438893 0.00253239,-0.00170997 0.00488971,-0.00365609 0.0070394,-0.00580577 0.00215375,-0.00215375 0.00409987,-0.00451108 0.00580984,-0.00704347 0.00170997,-0.00252832 0.00318381,-0.00523578 0.00438486,-0.00808167 0.00120513,-0.00284589 0.00213747,-0.00583427 0.0027726,-0.00892851 0.000635133,-0.00309424 0.000968986,-0.00630248 0.000968986,-0.009584 0,-0.00337924 -0.000354209,-0.00667704 -0.00102598,-0.00986085 -0.000671776,-0.00317974 -0.00166112,-0.00624955 -0.00293139,-0.00916465 -0.00127434,-0.0029151 -0.0028296,-0.00567549 -0.00463729,-0.00825266 -0.00180362,-0.0025731 -0.00385966,-0.00495893 -0.00612741,-0.00712489 -0.131232,-0.0543324 -0.121429,-0.0636314 -0.0670799,0.0674259z"/>
   <path id="_221646944" class="fil0 str0" d="M0.333205 0.265978c-0.0021619,-0.00224332 -0.00454365,-0.00427087 -0.00710861,-0.00605412 -0.00256903,-0.00178326 -0.00531721,-0.00332631 -0.00821602,-0.00458436 -0.00289474,-0.00125398 -0.00594827,-0.00223111 -0.00911172,-0.00289474 -0.00316345,-0.000663633 -0.0064409,-0.00101377 -0.00979978,-0.00101377 -0.00328152,0 -0.00648569,0.000333852 -0.009584,0.000968986 -0.00309424,0.000631062 -0.0060867,0.00156748 -0.00892851,0.00276853 -0.00284182,0.00120513 -0.00554927,0.00267896 -0.00808167,0.00438893 -0.00252832,0.00170997 -0.00488971,0.00365609 -0.0070394,0.00580577 -0.00214968,0.00215375 -0.0040958,0.00451108 -0.00580577,0.00704347 -0.00170997,0.00252832 -0.00318381,0.00523578 -0.00438893,0.00808167 -0.00120105,0.00284589 -0.00213747,0.00583427 -0.00276853,0.00892851 -0.000635133,0.00309424 -0.000968986,0.00630248 -0.000968986,0.009584 0,0.00337924 0.000354209,0.00667704 0.00102598,0.00986085 0.000667704,0.00317974 0.00166112,0.00624955 0.00293139,0.00916465 0.00127027,0.0029151 0.0028296,0.00567549 0.00463322,0.00825266 0.00180769,0.0025731 0.00385966,0.00495893 0.00612741,0.00712489 0.131236,0.0543324 0.121433,0.0636314 0.0670839,-0.0674259z"/>
  </g>
 </g>
</svg>
