<?xml version="1.0" encoding="UTF-8"?>
<!DOCTYPE svg PUBLIC "-//W3C//DTD SVG 1.1//EN" "http://www.w3.org/Graphics/SVG/1.1/DTD/svg11.dtd">
<!-- Creator: CorelDRAW -->
<svg xmlns="http://www.w3.org/2000/svg" xml:space="preserve" width="110px" height="110px" style="shape-rendering:geometricPrecision; text-rendering:geometricPrecision; image-rendering:optimizeQuality; fill-rule:evenodd; clip-rule:evenodd"
viewBox="0 0 1.18705 1.18719"
 xmlns:xlink="http://www.w3.org/1999/xlink">
 <defs>
  <style type="text/css">
   <![CDATA[
    .str0 {stroke:#4C4C4C;stroke-width:0.0106982}
    .fil0 {fill:none}
   ]]>
  </style>
 </defs>
 <g id="Capa_x0020_1">
  <metadata id="CorelCorpID_0Corel-Layer"/>
  <g id="_202247640">
   <polygon id="_202250544" class="fil0 str0" points="1.18154,0.00591119 0.00545649,0.00591119 0.00545649,1.18124 1.18154,1.18124 "/>
   <path id="_202250496" class="fil0 str0" d="M0.361606 0.00594909c0.00228617,0.00257667 -0.00673219,0.00920782 -0.0174683,0.0180872 -0.00752793,0.00622696 -0.00418078,0.0257415 -0.0113424,0.0316906 -0.00683324,0.00573436 0.00837419,0.0151822 -0.0754182,0.00342293 0.027434,0.0295686 0.0435129,0.0463801 0.0709343,0.0759361 -0.0187946,0.00188198 -0.063659,-0.00568384 -0.106149,-0.00445866 0.0250847,0.0416057 0.0663494,0.0401405 0.0216617,0.0936697 0.00515335,0.0107614 0.00188198,0.0160411 0.00245037,0.022268 -0.00529229,0.000555753 -0.00761634,0.000454707 -0.0194387,-0.00351135 -0.0402795,0.0380438 -0.0532134,0.0139191 -0.0895773,-0.0118855 -0.00106098,0.0325495 0.0103193,0.0822641 0.00925834,0.114814 -0.0245416,-0.0226596 -0.0579373,-0.041631 -0.0824788,-0.0642905 -0.0025893,0.0243521 -0.00627748,0.0523797 -0.0168115,0.0562321 -0.00847524,0.00454707 -0.0199313,0.00526702 -0.0243521,0.0127571 -0.00818473,0.0138307 -0.0133507,0.0160411 -0.0173294,0.0136665 -0.000631538,-0.119462 0.000581015,-0.238974 -3.78923e-005,-0.358436 0.115736,-0.000593645 0.240363,0.000618907 0.356099,3.78923e-005z"/>
   <path id="_202250448" class="fil0 str0" d="M0.361606 1.18114c0.00228617,-0.00257667 -0.00673219,-0.00920782 -0.0174683,-0.0180872 -0.00752793,-0.00623959 -0.00418078,-0.0257415 -0.0113424,-0.0316906 -0.00683324,-0.00573436 0.00837419,-0.0151822 -0.0754182,-0.00343557 0.027434,-0.029556 0.0435129,-0.0463675 0.0709343,-0.0759235 -0.0187946,-0.00188198 -0.063659,0.00568384 -0.106149,0.00445866 0.0250847,-0.0416183 0.0663494,-0.0401532 0.0216617,-0.0936697 0.00515335,-0.0107614 0.00188198,-0.0160411 0.00245037,-0.022268 -0.00529229,-0.000555753 -0.00761634,-0.000454707 -0.0194387,0.00349872 -0.0402795,-0.0380312 -0.0532134,-0.0139065 -0.0895773,0.0118982 -0.00106098,-0.0325495 0.0103193,-0.0822641 0.00925834,-0.114814 -0.0245416,0.0226596 -0.0579373,0.041631 -0.0824788,0.0642905 -0.0025893,-0.0243521 -0.00627748,-0.0523797 -0.0168115,-0.0562321 -0.00847524,-0.00454707 -0.0199313,-0.00526702 -0.0243521,-0.0127571 -0.00818473,-0.0138307 -0.0133507,-0.0160411 -0.0173294,-0.0136665 -0.000631538,0.119462 0.000581015,0.238974 -3.78923e-005,0.358436 0.115736,0.000593645 0.240363,-0.000631538 0.356099,-3.78923e-005z"/>
   <path id="_202250400" class="fil0 str0" d="M0.825331 1.18114c-0.00227354,-0.00257667 0.00673219,-0.00920782 0.017481,-0.0180872 0.00752793,-0.00623959 0.00418078,-0.0257415 0.0113424,-0.0316906 0.00683324,-0.00573436 -0.00837419,-0.0151822 0.0754182,-0.00343557 -0.027434,-0.029556 -0.0435129,-0.0463675 -0.0709469,-0.0759235 0.0188072,-0.00188198 0.0636716,0.00568384 0.106161,0.00445866 -0.0250847,-0.0416183 -0.066362,-0.0401532 -0.0216744,-0.0936697 -0.00514072,-0.0107614 -0.00186935,-0.0160411 -0.00243774,-0.022268 0.00529229,-0.000555753 0.00760371,-0.000454707 0.0194387,0.00349872 0.0402795,-0.0380312 0.0532134,-0.0139065 0.0895773,0.0118982 0.00106098,-0.0325495 -0.0103193,-0.0822641 -0.00925834,-0.114814 0.0245416,0.0226596 0.0579373,0.041631 0.0824788,0.0642905 0.00257667,-0.0243521 0.00626485,-0.0523797 0.0168115,-0.0562321 0.00847524,-0.00454707 0.0199313,-0.00526702 0.0243521,-0.0127571 0.00818473,-0.0138307 0.0133381,-0.0160411 0.0173294,-0.0136665 0.000631538,0.119462 -0.000593645,0.238974 3.78923e-005,0.358436 -0.115736,0.000593645 -0.240376,-0.000631538 -0.356111,-3.78923e-005z"/>
   <path id="_202250352" class="fil0 str0" d="M0.956476 0.595199c0.00238721,-0.00399132 0.000214723,-0.00923308 -0.013616,-0.0173925 -0.00749004,-0.00442076 -0.00822262,-0.0158642 -0.0127697,-0.0243395 -0.00385238,-0.010534 -0.0319053,-0.0142222 -0.05627,-0.0167989 0.0226722,-0.0245289 0.0416562,-0.0578994 0.0643284,-0.0824283 -0.0325747,-0.00106098 -0.0823146,0.0103067 -0.114889,0.00924571 0.0258299,-0.0363387 0.0499673,-0.0492473 0.0118982,-0.0895142 0.00397869,-0.0118224 0.0040671,-0.0141338 0.00351135,-0.0194261 -0.00622696,0.000568384 -0.0115192,-0.00270298 -0.0222807,0.00245037 -0.0535544,-0.0446623 -0.0520892,-0.00342293 -0.0937328,0.0216365 -0.00122518,-0.042452 0.00634064,-0.0872911 0.00447129,-0.106086 -0.0295812,0.0274214 -0.0464054,0.0434877 -0.075974,0.0708964 0.0117592,-0.0837293 0.0022988,-0.0685345 -0.0034482,-0.0753551 -0.00594909,-0.00716164 -0.0254762,-0.00381449 -0.0317032,-0.0113424 -0.00887942,-0.0107235 -0.0127065,-0.0353914 -0.0152958,-0.0331052 -0.0025893,-0.00227354 -0.0124413,0.0223817 -0.0213207,0.0331052 -0.00622696,0.0075153 -0.0257541,0.00418078 -0.0317032,0.0113424 -0.00574699,0.00682061 -0.0151948,-0.00837419 -0.00343557,0.0753551 -0.0295812,-0.0274087 -0.0464054,-0.0434751 -0.075974,-0.0708964 -0.00188198,0.0187946 0.00568384,0.0636337 0.00445866,0.106086 -0.0416436,-0.0250594 -0.0401784,-0.0662988 -0.0937328,-0.0216365 -0.010774,-0.00515335 -0.0160537,-0.00188198 -0.0222807,-0.00245037 -0.000555753,0.00529229 -0.000454707,0.00760371 0.00349872,0.0194261 -0.0380565,0.0402668 -0.0139191,0.0531755 0.0119108,0.0895142 -0.0325747,0.00106098 -0.0823273,-0.0103067 -0.114889,-0.00924571 0.0226722,0.0245289 0.0416562,0.0578994 0.0643284,0.0824283 -0.0243774,0.00257667 -0.0524176,0.00626485 -0.05627,0.0167989 -0.00454707,0.00847524 -0.00526702,0.0199187 -0.0127571,0.0243395 -0.0138433,0.0081721 -0.0161042,0.0134012 -0.0137296,0.0173925 -0.00238721,0.00399132 -0.000176831,0.00914467 0.0136665,0.0173294 0.00750267,0.00442076 0.00822262,0.0158516 0.0127697,0.0243395 0.00385238,0.0105214 0.0319053,0.0142096 0.05627,0.0167863 -0.0226722,0.0245289 -0.0416562,0.057912 -0.0643284,0.0824409 0.0325621,0.00104835 0.0823146,-0.0103193 0.114889,-0.00925834 -0.0258299,0.0363387 -0.0499799,0.0492599 -0.0118982,0.0895142 -0.00397869,0.0118224 -0.0040671,0.0141338 -0.00351135,0.0194387 0.00622696,-0.000568384 0.0115192,0.00269035 0.0222807,-0.00245037 0.0535544,0.0446497 0.0520892,0.0034103 0.0937328,-0.0216491 0.00122518,0.042452 -0.00634064,0.0872911 -0.00447129,0.106086 0.0295812,-0.0274214 0.0464054,-0.0434877 0.075974,-0.0708964 -0.0117592,0.0837419 -0.0022988,0.0685471 0.0034482,0.0753677 0.00594909,0.00714901 0.0254762,0.00381449 0.0316906,0.0113298 0.00889205,0.0107235 0.0127192,0.035404 0.0153085,0.0331178 0.0025893,0.00227354 0.0124413,-0.0223943 0.0213207,-0.0331178 0.00622696,-0.0075153 0.0257415,-0.00418078 0.0317032,-0.0113298 0.00574699,-0.00682061 0.0151948,0.00837419 0.00343557,-0.0753677 0.0295812,0.0274087 0.0464054,0.0434751 0.075974,0.0708964 0.00188198,-0.0187946 -0.00568384,-0.0636337 -0.00445866,-0.106086 0.0416436,0.0250594 0.0401784,0.0662988 0.0937328,0.0216491 0.0107614,0.00514072 0.0160537,0.00188198 0.0222807,0.00245037 0.000555753,-0.00530492 0.000454707,-0.00761634 -0.00351135,-0.0194387 0.0380691,-0.0402542 0.0139191,-0.0531755 -0.0118982,-0.0895142 0.0325747,-0.00106098 0.0823273,0.0103067 0.114889,0.00925834 -0.0226722,-0.0245289 -0.0416562,-0.057912 -0.0643284,-0.0824409 0.0243647,-0.00257667 0.0524176,-0.00626485 0.05627,-0.0167863 0.00454707,-0.00848787 0.00526702,-0.0199187 0.0127571,-0.0243395 0.0138559,-0.00818473 0.0160537,-0.0133381 0.0136791,-0.0173294z"/>
   <polygon id="_202250304" class="fil0 str0" points="0.629997,0.363273 0.585511,0.424254 0.535405,0.366267 0.518783,0.439285 0.449655,0.403868 0.463435,0.477796 0.385806,0.470357 0.427879,0.533927 0.353585,0.555602 0.417547,0.599152 0.35788,0.646619 0.433993,0.663519 0.398046,0.729565 0.474727,0.717237 0.467957,0.791809 0.533548,0.752136 0.557004,0.823866 0.601489,0.762885 0.651595,0.820873 0.668217,0.747867 0.737346,0.783271 0.723565,0.709356 0.801194,0.716783 0.759108,0.653212 0.833415,0.63155 0.769453,0.587999 0.829121,0.54052 0.753008,0.523621 0.788955,0.457574 0.712261,0.469902 0.719031,0.39533 0.653452,0.435016 "/>
   <polygon id="_202250256" class="fil0 str0" points="0.542845,0.452017 0.532172,0.526905 0.45544,0.530012 0.50163,0.589705 0.448897,0.645242 0.524922,0.654766 0.527069,0.730209 0.588378,0.683981 0.644156,0.735123 0.654829,0.660235 0.731561,0.657128 0.685357,0.597435 0.738103,0.541897 0.662079,0.532374 0.659932,0.456943 0.598635,0.503159 "/>
   <polygon id="_202250208" class="fil0 str0" points="0.59746,0.511268 0.572135,0.537628 0.534761,0.532424 0.536655,0.568093 0.506468,0.589402 0.53447,0.613488 0.529165,0.648817 0.566868,0.647225 0.58954,0.675872 0.614865,0.649524 0.65224,0.654728 0.650345,0.619046 0.680532,0.59775 0.65253,0.573651 0.657835,0.538323 0.620132,0.539927 "/>
   <polygon id="_202250160" class="fil0 str0" points="0.00546912,1.01355 0.0473906,0.957563 0.0708964,1.02918 0.136412,0.989594 0.12968,1.0642 0.206361,1.0519 0.170452,1.11788 0.24635,1.13477 0.187175,1.18122 0.00541859,1.18124 "/>
   <polygon id="_202250112" class="fil0 str0" points="0.00548175,1.18123 0.0053807,1.08733 0.0670819,1.0416 0.0692797,1.11696 0.145216,1.1265 0.0927603,1.18177 "/>
   <polygon id="_202250064" class="fil0 str0" points="0.00549438,1.18122 0.00548175,1.09516 0.0297202,1.12411 0.0674103,1.12256 0.0621307,1.15784 0.0899183,1.18177 "/>
   <polygon id="_202250016" class="fil0 str0" points="1.18153,1.01355 1.13961,0.957563 1.1161,1.02918 1.05059,0.989594 1.05732,1.0642 0.980639,1.0519 1.01655,1.11788 0.94065,1.13477 0.999838,1.18122 1.18158,1.18124 "/>
   <polygon id="_202249968" class="fil0 str0" points="1.18152,1.18123 1.18162,1.08733 1.11992,1.0416 1.11773,1.11696 1.04178,1.1265 1.09424,1.18177 "/>
   <polygon id="_202249920" class="fil0 str0" points="1.18151,1.18122 1.18152,1.09516 1.15728,1.12411 1.11959,1.12256 1.12487,1.15784 1.09708,1.18177 "/>
   <polygon id="_202249872" class="fil0 str0" points="0.00546912,0.173635 0.0473906,0.229627 0.0708964,0.158023 0.136412,0.197596 0.12968,0.122986 0.206361,0.135288 0.170452,0.0693049 0.24635,0.0524176 0.187175,0.00597435 0.00541859,0.00596172 "/>
   <polygon id="_202249824" class="fil0 str0" points="0.00548175,0.00596172 0.0053807,0.0998587 0.0670819,0.145607 0.0692797,0.070227 0.145216,0.0606908 0.0927603,0.00543122 "/>
   <polygon id="_202249776" class="fil0 str0" points="0.00549438,0.00597435 0.00548175,0.0920277 0.0297202,0.063078 0.0674103,0.0646316 0.0621307,0.0293539 0.0899183,0.00543122 "/>
   <path id="_202249728" class="fil0 str0" d="M0.825445 0.00594909c-0.00228617,0.00257667 0.00673219,0.00920782 0.017481,0.0180872 0.00752793,0.00622696 0.00416815,0.0257415 0.0113298,0.0316906 0.00683324,0.00573436 -0.00836156,0.0151822 0.0754182,0.00342293 -0.0274214,0.0295686 -0.0435003,0.0463801 -0.0709343,0.0759361 0.0188072,0.00188198 0.0636716,-0.00568384 0.106149,-0.00445866 -0.0250847,0.0416057 -0.0663494,0.0401405 -0.0216617,0.0936697 -0.00515335,0.0107614 -0.00188198,0.0160411 -0.00243774,0.022268 0.00529229,0.000555753 0.00760371,0.000454707 0.0194261,-0.00351135 0.0402921,0.0380438 0.053226,0.0139191 0.0895899,-0.0118855 0.00104835,0.0325495 -0.0103193,0.0822641 -0.00927097,0.114814 0.0245416,-0.0226596 0.0579499,-0.041631 0.0824915,-0.0642905 0.00257667,0.0243521 0.00626485,0.0523797 0.0168115,0.0562321 0.00847524,0.00454707 0.0199187,0.00526702 0.0243521,0.0127571 0.0081721,0.0138307 0.0133381,0.0160411 0.0173294,0.0136665 0.000618907,-0.119462 -0.000593645,-0.238974 3.78923e-005,-0.358436 -0.115736,-0.000593645 -0.240376,0.000618907 -0.356111,3.78923e-005z"/>
   <polygon id="_202249680" class="fil0 str0" points="1.18153,0.173635 1.13961,0.229627 1.1161,0.158023 1.05059,0.197596 1.05732,0.122986 0.980639,0.135288 1.01655,0.0693049 0.94065,0.0524176 0.999838,0.00597435 1.18158,0.00596172 "/>
   <polygon id="_202249632" class="fil0 str0" points="1.18152,0.00596172 1.18162,0.0998587 1.11992,0.145607 1.11773,0.070227 1.04178,0.0606908 1.09424,0.00543122 "/>
   <polygon id="_202249584" class="fil0 str0" points="1.18151,0.00597435 1.18152,0.0920277 1.15728,0.063078 1.11959,0.0646316 1.12487,0.0293539 1.09708,0.00543122 "/>
   <polygon id="_202249536" class="fil0 str0" points="0.00546912,0.509461 0.0742815,0.448821 0.0742815,0.532576 0.16252,0.532601 0.102259,0.590905 0.163442,0.654538 0.0742941,0.654627 0.0742562,0.738268 0.00544386,0.67769 "/>
   <polygon id="_202249488" class="fil0 str0" points="0.224171,0.596209 0.162671,0.532576 0.102259,0.590879 0.163758,0.654513 "/>
   <polygon id="_202249440" class="fil0 str0" points="0.162798,0.448657 0.0742688,0.448657 0.0742688,0.532588 0.162798,0.532588 "/>
   <polygon id="_202249392" class="fil0 str0" points="0.00548175,0.385655 0.0742815,0.448783 0.00551964,0.509436 "/>
   <polygon id="_202249344" class="fil0 str0" points="0.162798,0.738533 0.0742688,0.738533 0.0742688,0.654601 0.162798,0.654601 "/>
   <polygon id="_202249296" class="fil0 str0" points="0.00548175,0.801548 0.0742815,0.738407 0.00551964,0.677766 "/>
   <polygon id="_202249248" class="fil0 str0" points="0.256177,0.444539 0.162861,0.448518 0.16857,0.357046 "/>
   <polygon id="_202249200" class="fil0 str0" points="0.355935,0.16713 0.449251,0.163151 0.443542,0.254623 "/>
   <polygon id="_202249152" class="fil0 str0" points="0.678549,0.00589856 0.739228,0.0746604 0.655422,0.0746604 0.655397,0.162848 0.597056,0.102612 0.533371,0.163758 0.533296,0.0746604 0.449592,0.0746225 0.510207,0.0058733 "/>
   <polygon id="_202249104" class="fil0 str0" points="0.591738,0.224461 0.655422,0.163 0.597081,0.102625 0.533397,0.164073 "/>
   <polygon id="_202249056" class="fil0 str0" points="0.845427,0.338643 0.916829,0.339894 0.918003,0.272193 0.846602,0.270942 "/>
   <polygon id="_202249008" class="fil0 str0" points="0.269755,0.33906 0.341169,0.34031 0.342344,0.27261 0.270942,0.271372 "/>
   <polygon id="_202248960" class="fil0 str0" points="0.268858,0.914252 0.34026,0.915502 0.341435,0.847801 0.270033,0.846564 "/>
   <polygon id="_202248912" class="fil0 str0" points="0.844543,0.913835 0.915944,0.915086 0.917132,0.847385 0.845717,0.846134 "/>
   <polygon id="_202248864" class="fil0 str0" points="0.739404,0.163126 0.739404,0.0746478 0.65541,0.0746478 0.65541,0.163126 "/>
   <polygon id="_202248816" class="fil0 str0" points="0.802444,0.00589856 0.739265,0.0746478 0.678587,0.00593645 "/>
   <polygon id="_202248768" class="fil0 str0" points="0.449326,0.163126 0.449326,0.0746478 0.533321,0.0746478 0.533321,0.163126 "/>
   <polygon id="_202248720" class="fil0 str0" points="0.386286,0.00589856 0.449465,0.0746478 0.510144,0.00593645 "/>
   <polygon id="_202248672" class="fil0 str0" points="0.166814,0.831874 0.162836,0.738609 0.254371,0.744318 "/>
   <polygon id="_202248624" class="fil0 str0" points="0.443491,0.930179 0.44747,1.02344 0.355935,1.01774 "/>
   <polygon id="_202248576" class="fil0 str0" points="0.508451,1.18072 0.447773,1.11196 0.531591,1.11196 0.531603,1.02377 0.589945,1.08401 0.653629,1.02285 0.653717,1.11195 0.737409,1.11199 0.676794,1.18075 "/>
   <polygon id="_202248528" class="fil0 str0" points="0.59525,0.96216 0.531578,1.02362 0.589919,1.084 0.653604,1.02254 "/>
   <polygon id="_202248480" class="fil0 str0" points="0.447609,1.0235 0.447609,1.11196 0.531603,1.11196 0.531603,1.0235 "/>
   <polygon id="_202248432" class="fil0 str0" points="0.384556,1.18071 0.447735,1.11196 0.508426,1.18069 "/>
   <polygon id="_202248384" class="fil0 str0" points="0.737611,1.02398 0.737611,1.11191 0.654134,1.11191 0.654134,1.02398 "/>
   <polygon id="_202248336" class="fil0 str0" points="0.800272,1.18024 0.737484,1.11191 0.67716,1.18021 "/>
   <polygon id="_202248288" class="fil0 str0" points="0.743509,0.25643 0.739543,0.163177 0.831066,0.168886 "/>
   <polygon id="_202248240" class="fil0 str0" points="0.930583,0.443681 1.0239,0.447659 1.01819,0.356187 "/>
   <polygon id="_202248192" class="fil0 str0" points="0.831066,1.01949 0.73775,1.02346 0.743459,0.931985 "/>
   <polygon id="_202248144" class="fil0 str0" points="1.01996,0.831003 1.02392,0.73775 0.93239,0.743459 "/>
   <polygon id="_202248096" class="fil0 str0" points="1.18129,0.508603 1.11248,0.447962 1.11248,0.531717 1.02424,0.531729 1.08451,0.590046 1.02332,0.653679 1.11247,0.653768 1.1125,0.737409 1.18132,0.676832 "/>
   <polygon id="_202248048" class="fil0 str0" points="0.96259,0.595351 1.02409,0.531704 1.0845,0.590008 1.023,0.653654 "/>
   <polygon id="_202248000" class="fil0 str0" points="1.02396,0.447798 1.11249,0.447798 1.11249,0.531729 1.02396,0.531729 "/>
   <polygon id="_202247952" class="fil0 str0" points="1.18128,0.384783 1.11248,0.447924 1.18124,0.508565 "/>
   <polygon id="_202247904" class="fil0 str0" points="1.02396,0.737674 1.11249,0.737674 1.11249,0.653743 1.02396,0.653743 "/>
   <polygon id="_202247856" class="fil0 str0" points="1.18128,0.800676 1.11248,0.737548 1.18124,0.676895 "/>
   <polygon id="_202247808" class="fil0 str0" points="1.10231,0.589591 1.13057,0.608411 1.12582,0.640139 1.15972,0.63875 1.1813,0.676832 1.1813,0.501934 1.15972,0.540015 1.12582,0.538626 1.13057,0.570354 "/>
   <polygon id="_202247760" class="fil0 str0" points="0.589528,0.0848029 0.608335,0.0565479 0.640063,0.061297 0.638674,0.0273961 0.676756,0.00581015 0.501858,0.00581015 0.539939,0.0273961 0.53855,0.061297 0.570279,0.0565479 "/>
   <polygon id="_202247712" class="fil0 str0" points="0.0847271,0.597599 0.0564721,0.578779 0.0612339,0.547051 0.0273203,0.54844 0.00573436,0.510358 0.00573436,0.685256 0.0273203,0.647175 0.0612339,0.648564 0.0564721,0.616836 "/>
   <polygon id="_202247664" class="fil0 str0" points="0.597523,1.10239 0.578716,1.13064 0.546975,1.12589 0.548364,1.15979 0.510282,1.18138 0.685193,1.18138 0.647099,1.15979 0.648501,1.12589 0.61676,1.13064 "/>
  </g>
 </g>
</svg>
