<?xml version="1.0" encoding="UTF-8"?>
<!DOCTYPE svg PUBLIC "-//W3C//DTD SVG 1.1//EN" "http://www.w3.org/Graphics/SVG/1.1/DTD/svg11.dtd">
<!-- Creator: CorelDRAW -->
<svg xmlns="http://www.w3.org/2000/svg" xml:space="preserve" width="110px" height="110px" style="shape-rendering:geometricPrecision; text-rendering:geometricPrecision; image-rendering:optimizeQuality; fill-rule:evenodd; clip-rule:evenodd"
viewBox="0 0 0.575541 0.575541"
 xmlns:xlink="http://www.w3.org/1999/xlink">
 <defs>
  <style type="text/css">
   <![CDATA[
    .str0 {stroke:#605D5C;stroke-width:0.00518699}
    .fil0 {fill:#FAFAFA}
   ]]>
  </style>
 </defs>
 <g id="Plan_x0020_1">
  <metadata id="CorelCorpID_0Corel-Layer"/>
  <g id="_238308632">
   <polygon id="_238309064" class="fil0 str0" points="0.00260268,0.0026333 0.572902,0.0026333 0.572902,0.572939 0.00260268,0.572939 "/>
   <polygon id="_238301984" class="fil0 str0" points="0.338991,0.266557 0.367468,0.234498 0.45177,0.19958 0.468923,0.21274 0.4661,0.234174 0.381792,0.269093 "/>
   <polygon id="_238298840" class="fil0 str0" points="0.32697,0.248565 0.341006,0.208049 0.405534,0.143527 0.426411,0.149118 0.432008,0.170001 0.367486,0.234529 "/>
   <polygon id="_238307864" class="fil0 str0" points="0.308972,0.236544 0.306443,0.193737 0.341361,0.109435 0.362795,0.106612 0.375956,0.123765 0.341031,0.208067 "/>
   <polygon id="_238302080" class="fil0 str0" points="0.287746,0.232318 0.269031,0.19375 0.269031,0.102497 0.287746,0.0916817 0.306473,0.102497 0.306473,0.19375 "/>
   <polygon id="_238305584" class="fil0 str0" points="0.266527,0.236544 0.234468,0.208067 0.199549,0.123765 0.212703,0.106612 0.234137,0.109435 0.269062,0.193743 "/>
   <polygon id="_238309496" class="fil0 str0" points="0.248528,0.248565 0.208018,0.234529 0.14349,0.170001 0.149088,0.149124 0.16997,0.143527 0.234492,0.208055 "/>
   <polygon id="_238302920" class="fil0 str0" points="0.236507,0.266563 0.193707,0.269099 0.109398,0.234174 0.106575,0.21274 0.123728,0.19958 0.208037,0.234505 "/>
   <polygon id="_238307768" class="fil0 str0" points="0.232288,0.287789 0.193713,0.30651 0.10246,0.30651 0.0916511,0.287789 0.10246,0.269062 0.193713,0.269062 "/>
   <polygon id="_238308344" class="fil0 str0" points="0.236507,0.309015 0.208037,0.341067 0.123728,0.375992 0.106581,0.362832 0.109404,0.341398 0.193707,0.306473 "/>
   <polygon id="_238301480" class="fil0 str0" points="0.248534,0.327007 0.234498,0.367517 0.16997,0.432045 0.149088,0.426454 0.143496,0.405565 0.208018,0.341043 "/>
   <polygon id="_238306688" class="fil0 str0" points="0.266527,0.339028 0.269062,0.381828 0.234143,0.466137 0.212709,0.46896 0.199549,0.451807 0.234468,0.367498 "/>
   <polygon id="_238295384" class="fil0 str0" points="0.287752,0.343248 0.306473,0.381822 0.306473,0.473075 0.287752,0.483884 0.269031,0.473075 0.269031,0.381822 "/>
   <polygon id="_238311440" class="fil0 str0" points="0.308978,0.339028 0.341037,0.367498 0.375956,0.451807 0.362795,0.46896 0.341361,0.466137 0.306443,0.381828 "/>
   <polygon id="_238307480" class="fil0 str0" points="0.32697,0.327001 0.367486,0.341043 0.432008,0.405565 0.426417,0.426448 0.405534,0.432045 0.341006,0.367517 "/>
   <polygon id="_238296152" class="fil0 str0" points="0.343217,0.287783 0.381786,0.269062 0.473039,0.269062 0.483853,0.287783 0.473039,0.306504 0.381786,0.306504 "/>
   <polygon id="_238306160" class="fil0 str0" points="0.338998,0.309009 0.381798,0.306473 0.4661,0.341392 0.468923,0.362826 0.451776,0.375986 0.367468,0.341067 "/>
   <polygon id="_238299392" class="fil0 str0" points="0.521693,0.0238895 0.493223,0.0559423 0.408915,0.0908672 0.391768,0.0777068 0.394585,0.056273 0.478893,0.0213481 "/>
   <polygon id="_238306736" class="fil0 str0" points="0.0238834,0.0538479 0.0559423,0.0823182 0.0908611,0.166627 0.0777068,0.183774 0.056273,0.180951 0.0213481,0.0966482 "/>
   <polygon id="_238296992" class="fil0 str0" points="0.0538418,0.551658 0.0823182,0.519599 0.16662,0.48468 0.183774,0.497834 0.180951,0.519268 0.0966421,0.554193 "/>
   <polygon id="_238308680" class="fil0 str0" points="0.551652,0.5217 0.519599,0.493223 0.484674,0.408921 0.497834,0.391768 0.519268,0.394591 0.554193,0.478893 "/>
   <polygon id="_238296464" class="fil0 str0" points="0.533666,0.0418695 0.519623,0.0823794 0.4473,0.154716 0.426417,0.149118 0.42082,0.128236 0.49315,0.0559056 "/>
   <polygon id="_238305296" class="fil0 str0" points="0.0418695,0.0418756 0.0823794,0.0559178 0.154709,0.128242 0.149118,0.149124 0.128236,0.154722 0.0559056,0.0823917 "/>
   <polygon id="_238300448" class="fil0 str0" points="0.0418756,0.533672 0.0559117,0.493162 0.128242,0.420832 0.149124,0.426423 0.154722,0.447306 0.0823917,0.519636 "/>
   <polygon id="_238311200" class="fil0 str0" points="0.533672,0.533666 0.493156,0.51963 0.420826,0.4473 0.426423,0.426417 0.447306,0.42082 0.519636,0.49315 "/>
   <polygon id="_238306208" class="fil0 str0" points="0.551713,0.053903 0.554248,0.0967033 0.51933,0.181012 0.497896,0.183835 0.484735,0.166682 0.519654,0.0823733 "/>
   <polygon id="_238311344" class="fil0 str0" points="0.053903,0.0238283 0.0967033,0.021293 0.181012,0.0562118 0.183835,0.0776456 0.166682,0.090806 0.0823733,0.0558872 "/>
   <polygon id="_238297256" class="fil0 str0" points="0.0238222,0.521638 0.021293,0.478838 0.0562118,0.39453 0.0776456,0.391706 0.090806,0.40886 0.0558811,0.493168 "/>
   <polygon id="_238306304" class="fil0 str0" points="0.521638,0.551713 0.478838,0.554248 0.39453,0.51933 0.391706,0.497896 0.40886,0.484735 0.493168,0.51966 "/>
   <polygon id="_238308776" class="fil0 str0" points="0.572939,0.0581224 0.572939,0.198759 0.554218,0.18795 0.554218,0.0966972 "/>
   <polygon id="_238309928" class="fil0 str0" points="0.0581224,0.00260268 0.198759,0.00260268 0.18795,0.0213236 0.0966972,0.0213236 "/>
   <polygon id="_238300640" class="fil0 str0" points="0.00259656,0.517419 0.00259656,0.376782 0.0213236,0.387591 0.0213236,0.478844 "/>
   <polygon id="_238306544" class="fil0 str0" points="0.517419,0.572939 0.376782,0.572939 0.387591,0.554218 0.478844,0.554218 "/>
   <polygon id="_238300544" class="fil0 str0" points="0.517474,0.00266392 0.478899,0.0213848 0.387646,0.0213848 0.376837,0.00266392 "/>
   <polygon id="_238304144" class="fil0 str0" points="0.0026578,0.0580673 0.0213787,0.0966421 0.0213787,0.187895 0.0026578,0.198704 "/>
   <polygon id="_238302320" class="fil0 str0" points="0.0580673,0.572883 0.0966421,0.554163 0.187889,0.554163 0.198704,0.572883 "/>
   <polygon id="_238303568" class="fil0 str0" points="0.572877,0.517474 0.554156,0.478899 0.554156,0.387646 0.572877,0.376837 "/>
   <polygon id="_238309592" class="fil0 str0" points="0.28774,0.0917797 0.266802,0.0843085 0.267402,0.0519862 0.28782,0.0367376 0.307839,0.0519372 0.308678,0.0843085 "/>
   <polygon id="_238298048" class="fil0 str0" points="0.0917797,0.287801 0.0843085,0.308739 0.0519862,0.308139 0.0367315,0.287722 0.0519311,0.267702 0.0843085,0.266863 "/>
   <polygon id="_238299800" class="fil0 str0" points="0.287801,0.483762 0.308739,0.491233 0.308139,0.523555 0.287722,0.53881 0.267702,0.52361 0.266863,0.491233 "/>
   <polygon id="_238298288" class="fil0 str0" points="0.483762,0.28774 0.491233,0.266802 0.523555,0.267402 0.538804,0.28782 0.523604,0.307839 0.491233,0.308678 "/>
   <polygon id="_238302032" class="fil0 str0" points="0.350707,0.0657039 0.33062,0.0752205 0.307839,0.0519372 0.311844,0.0267188 0.337062,0.0231669 0.360229,0.0456112 "/>
   <polygon id="_238307048" class="fil0 str0" points="0.0656978,0.224835 0.0752205,0.244921 0.0519311,0.267702 0.0267188,0.263697 0.0231669,0.238479 0.0456112,0.215312 "/>
   <polygon id="_238303616" class="fil0 str0" points="0.224835,0.509844 0.244921,0.500321 0.267702,0.52361 0.263697,0.548822 0.238479,0.552374 0.215306,0.52993 "/>
   <polygon id="_238295864" class="fil0 str0" points="0.509837,0.350707 0.500321,0.33062 0.523604,0.307839 0.548822,0.311844 0.552374,0.337062 0.52993,0.360229 "/>
   <polygon id="_238309112" class="fil0 str0" points="0.376795,0.00273741 0.369317,0.0236752 0.337062,0.0231669 0.321746,0.00265167 "/>
   <polygon id="_238302872" class="fil0 str0" points="0.00273128,0.198747 0.0236691,0.206224 0.0231669,0.238479 0.00265167,0.253795 "/>
   <polygon id="_238305872" class="fil0 str0" points="0.198747,0.57281 0.206218,0.551872 0.238479,0.552374 0.253789,0.57289 "/>
   <polygon id="_238309784" class="fil0 str0" points="0.572804,0.376795 0.551866,0.369323 0.552374,0.337062 0.57289,0.321746 "/>
   <polygon id="_238311152" class="fil0 str0" points="0.198692,0.00272516 0.25374,0.00281089 0.238724,0.0230138 0.206163,0.0236691 "/>
   <polygon id="_238296608" class="fil0 str0" points="0.00272516,0.37685 0.00280477,0.321801 0.0230077,0.336817 0.023663,0.369378 "/>
   <polygon id="_238306016" class="fil0 str0" points="0.376844,0.572816 0.321801,0.572737 0.336817,0.552534 0.369372,0.551878 "/>
   <polygon id="_238311296" class="fil0 str0" points="0.572816,0.198698 0.57273,0.25374 0.552527,0.238724 0.551872,0.206169 "/>
   <polygon id="_238306640" class="fil0 str0" points="0.224774,0.0656916 0.215251,0.0456051 0.238724,0.0230138 0.263753,0.026829 0.267402,0.0519862 0.24486,0.0752205 "/>
   <polygon id="_238299896" class="fil0 str0" points="0.0656916,0.350768 0.0456051,0.36029 0.0230077,0.336817 0.026829,0.311789 0.0519862,0.308139 0.0752144,0.330681 "/>
   <polygon id="_238304288" class="fil0 str0" points="0.350768,0.50985 0.36029,0.529936 0.336817,0.552534 0.311789,0.548712 0.308139,0.523555 0.330675,0.500327 "/>
   <polygon id="_238309880" class="fil0 str0" points="0.50985,0.224774 0.529936,0.215251 0.552527,0.238724 0.548712,0.263753 0.523555,0.267402 0.500321,0.244866 "/>
   <polygon id="_238306496" class="fil0 str0" points="0.463191,0.397598 0.468923,0.362826 0.486854,0.344717 0.509929,0.350749 0.515961,0.373824 0.497853,0.391755 "/>
   <polygon id="_238299656" class="fil0 str0" points="0.397598,0.112375 0.362826,0.106643 0.344717,0.0887177 0.350749,0.0656365 0.373831,0.0596044 0.391755,0.0777191 "/>
   <polygon id="_238298648" class="fil0 str0" points="0.112387,0.177956 0.106661,0.212734 0.0887299,0.230842 0.0656488,0.22481 0.0596228,0.201729 0.0777313,0.183804 "/>
   <polygon id="_238303016" class="fil0 str0" points="0.17798,0.463179 0.212758,0.468911 0.230867,0.486842 0.224835,0.509923 0.201754,0.515949 0.183829,0.497841 "/>
   <polygon id="_238306784" class="fil0 str0" points="0.463087,0.178072 0.497859,0.183804 0.515967,0.201735 0.509935,0.224816 0.48686,0.230849 0.468929,0.212734 "/>
   <polygon id="_238301024" class="fil0 str0" points="0.178078,0.112479 0.18381,0.0777068 0.201735,0.0595983 0.224816,0.0656304 0.230849,0.0887116 0.212734,0.106636 "/>
   <polygon id="_238302128" class="fil0 str0" points="0.112497,0.397481 0.0777252,0.391749 0.0596106,0.373824 0.0656426,0.350743 0.0887238,0.344711 0.106649,0.362826 "/>
   <polygon id="_238301384" class="fil0 str0" points="0.397506,0.463075 0.391774,0.497847 0.373849,0.515961 0.350768,0.509929 0.344736,0.486848 0.362844,0.468917 "/>
   <polygon id="_238310360" class="fil0 str0" points="0.572939,0.0026578 0.572939,0.0581224 0.554248,0.0967033 0.551713,0.053903 0.51966,0.0823733 0.533696,0.0418633 0.493223,0.0559423 0.521693,0.0238834 0.478893,0.0213481 0.517474,0.0026578 "/>
   <polygon id="_238308296" class="fil0 str0" points="0.0026578,0.00260268 0.0581224,0.00260268 0.0966972,0.021293 0.053903,0.0238283 0.0823733,0.0558811 0.0418633,0.041845 0.0559423,0.0823182 0.0238834,0.0538479 0.0213481,0.0966482 0.0026578,0.0580673 "/>
   <polygon id="_238304432" class="fil0 str0" points="0.00259656,0.572883 0.00259656,0.517419 0.021293,0.478838 0.0238283,0.521638 0.0558811,0.493168 0.041845,0.533678 0.082312,0.519599 0.0538479,0.551658 0.0966421,0.554193 0.0580673,0.572883 "/>
   <polygon id="_238301936" class="fil0 str0" points="0.572877,0.572945 0.517413,0.572945 0.478838,0.554248 0.521638,0.551713 0.493168,0.51966 0.533678,0.533696 0.519599,0.493229 0.551658,0.521693 0.554193,0.478899 0.572877,0.517474 "/>
   <polygon id="_238304336" class="fil0 str0" points="0.572939,0.0581224 0.566239,0.0363212 0.551713,0.053903 0.553869,0.0311954 0.533721,0.0418817 0.544395,0.0217278 0.521693,0.0238834 0.539275,0.00935128 0.517474,0.0026578 0.572939,0.00266392 "/>
   <polygon id="_238301336" class="fil0 str0" points="0.0581224,0.00260268 0.0363212,0.00930228 0.053903,0.0238283 0.0311893,0.0216727 0.0418756,0.0418205 0.0217278,0.0311464 0.0238834,0.0538479 0.00935128,0.036266 0.0026578,0.0580673 0.0026578,0.00260268 "/>
   <polygon id="_238300784" class="fil0 str0" points="0.00260268,0.517419 0.00929616,0.53922 0.0238283,0.521638 0.0216727,0.544352 0.0418205,0.533666 0.0311403,0.553814 0.0538479,0.551658 0.0362599,0.56619 0.0580673,0.572883 0.00260268,0.572883 "/>
   <polygon id="_238301240" class="fil0 str0" points="0.517419,0.572939 0.53922,0.566245 0.521638,0.551713 0.544346,0.553869 0.53366,0.533721 0.553814,0.544401 0.551658,0.521693 0.56619,0.539281 0.572883,0.517474 0.572877,0.572939 "/>
   <polygon id="_238308248" class="fil0 str0" points="0.253697,0.0027619 0.238724,0.0230138 0.263716,0.0267862 0.267402,0.0519862 0.287783,0.0366886 0.307839,0.0519372 0.311807,0.0266759 0.337062,0.0231669 0.32171,0.0026088 "/>
   <polygon id="_238309688" class="fil0 str0" points="0.0027619,0.321844 0.0230077,0.336817 0.0267862,0.311826 0.0519862,0.308139 0.0366886,0.287758 0.0519311,0.267702 0.0266759,0.263734 0.0231669,0.238479 0.0026088,0.253832 "/>
   <polygon id="_238305536" class="fil0 str0" points="0.321838,0.572779 0.336817,0.552534 0.311826,0.548755 0.308139,0.523555 0.287752,0.538853 0.267702,0.52361 0.263734,0.548865 0.238479,0.552374 0.253832,0.572932 "/>
   <polygon id="_198827288" class="fil0 str0" points="0.572779,0.253703 0.552527,0.238724 0.548755,0.263716 0.523555,0.267402 0.538853,0.287789 0.523604,0.307839 0.548865,0.311807 0.552374,0.337062 0.572932,0.32171 "/>
   <polygon id="_198828368" class="fil0 str0" points="0.32171,0.0026088 0.314722,0.012897 0.311807,0.0266759 0.29959,0.0290153 0.287783,0.0366947 0.277495,0.0297073 0.263716,0.0267862 0.261376,0.014575 0.253697,0.00276803 "/>
   <polygon id="_198828128" class="fil0 str0" points="0.0026088,0.253832 0.012897,0.260819 0.0266759,0.263734 0.0290092,0.275951 0.0366886,0.287758 0.0297073,0.298047 0.0267862,0.311826 0.0145689,0.314159 0.0027619,0.321844 "/>
   <polygon id="_198828152" class="fil0 str0" points="0.253832,0.572932 0.260813,0.562644 0.263734,0.548865 0.275951,0.546532 0.287758,0.538853 0.298047,0.545834 0.311826,0.548755 0.314159,0.560972 0.321838,0.572779 "/>
   <polygon id="_262234344" class="fil0 str0" points="0.572932,0.32171 0.562644,0.314722 0.548865,0.311807 0.546526,0.29959 0.538847,0.287783 0.545834,0.277495 0.548755,0.263716 0.560966,0.261383 0.572773,0.253703 "/>
   <polygon id="_262234392" class="fil0 str0" points="0.341006,0.208049 0.308972,0.236538 0.306443,0.193743 0.287752,0.232318 0.269062,0.193743 0.266521,0.236538 0.234498,0.208055 0.248534,0.248565 0.208018,0.234529 0.236507,0.266563 0.193713,0.269068 0.232288,0.287789 0.193713,0.306479 0.236507,0.309009 0.208025,0.341043 0.248534,0.327007 0.234498,0.367517 0.266527,0.339028 0.269062,0.381828 0.287758,0.343248 0.306443,0.381828 0.308978,0.339028 0.341012,0.367517 0.326976,0.327001 0.367468,0.341067 0.338998,0.309009 0.381798,0.306473 0.343217,0.287783 0.381792,0.269093 0.338998,0.266563 0.367486,0.234529 0.32697,0.248565 "/>
   <polygon id="_196742536" class="fil0 str0" points="0.25412,0.281077 0.236507,0.266557 0.259221,0.268713 0.248534,0.248565 0.268682,0.259245 0.266527,0.236544 0.281059,0.254126 0.287752,0.232318 0.294446,0.25412 0.308978,0.236544 0.306822,0.259251 0.32697,0.248565 0.31629,0.268719 0.338991,0.266557 0.32141,0.281096 0.343217,0.287783 0.321391,0.294458 0.338991,0.309009 0.316284,0.306853 0.32697,0.327007 0.306816,0.316327 0.308978,0.339028 0.294446,0.321446 0.287752,0.343248 0.281059,0.321446 0.266527,0.339028 0.268682,0.316321 0.248534,0.327007 0.259209,0.306853 0.236507,0.309009 0.254089,0.294476 0.232288,0.287783 "/>
  </g>
 </g>
</svg>
