<?xml version="1.0" encoding="UTF-8"?>
<!DOCTYPE svg PUBLIC "-//W3C//DTD SVG 1.1//EN" "http://www.w3.org/Graphics/SVG/1.1/DTD/svg11.dtd">
<!-- Creator: CorelDRAW -->
<svg xmlns="http://www.w3.org/2000/svg" xml:space="preserve" width="110px" height="110px" style="shape-rendering:geometricPrecision; text-rendering:geometricPrecision; image-rendering:optimizeQuality; fill-rule:evenodd; clip-rule:evenodd"
viewBox="0 0 0.579164 0.57917"
 xmlns:xlink="http://www.w3.org/1999/xlink">
 <defs>
  <style type="text/css">
   <![CDATA[
    .str0 {stroke:#4C4C4C;stroke-width:0.00521963}
    .fil0 {fill:none}
   ]]>
  </style>
 </defs>
 <g id="Capa_x0020_1">
  <metadata id="CorelCorpID_0Corel-Layer"/>
  <g id="_206576120">
   <polygon id="_206577584" class="fil0 str0" points="0.0026129,0.00261906 0.576545,0.00261906 0.576545,0.576557 0.0026129,0.576557 "/>
   <polygon id="_206577536" class="fil0 str0" points="0.0559062,0.146094 0.146094,0.0559062 0.236276,0.146094 0.146094,0.236276 "/>
   <polygon id="_206577488" class="fil0 str0" points="0.28957,0.199388 0.27396,0.183778 0.251892,0.183778 0.251892,0.161704 0.236282,0.146094 0.251892,0.130485 0.251892,0.108411 0.273966,0.108411 0.28957,0.092801 0.305179,0.108411 0.327259,0.108411 0.327259,0.130485 0.342863,0.146094 0.327259,0.161704 0.327253,0.183778 0.305185,0.183778 "/>
   <polygon id="_206577440" class="fil0 str0" points="0.0559062,0.433057 0.146094,0.523239 0.236276,0.433057 0.146094,0.342869 "/>
   <polygon id="_206577392" class="fil0 str0" points="0.28957,0.379758 0.27396,0.395373 0.251892,0.395373 0.251892,0.417441 0.236282,0.433051 0.251892,0.448667 0.251892,0.470741 0.273966,0.470741 0.28957,0.486344 0.305179,0.470741 0.327259,0.470741 0.327259,0.448661 0.342863,0.433051 0.327259,0.417447 0.327253,0.395373 0.305185,0.395373 "/>
   <polygon id="_206577344" class="fil0 str0" points="0.199388,0.576551 0.28957,0.486363 0.379751,0.576551 "/>
   <polygon id="_206577296" class="fil0 str0" points="0.486363,0.576557 0.576545,0.486369 0.576545,0.576557 "/>
   <polygon id="_203623104" class="fil0 str0" points="0.576545,0.092801 0.560935,0.108417 0.538861,0.108417 0.538861,0.130491 0.523258,0.146094 0.538861,0.161704 0.538861,0.183784 0.560941,0.183784 0.576545,0.199388 "/>
   <polygon id="_206577128" class="fil0 str0" points="0.00261906,0.486375 0.0182287,0.470759 0.0403027,0.470759 0.0403027,0.448685 0.0559123,0.433082 0.0403027,0.417472 0.0403027,0.395392 0.0182287,0.395392 0.00261906,0.379788 "/>
   <polygon id="_206577080" class="fil0 str0" points="0.486363,0.289576 0.576551,0.379758 0.576551,0.199388 "/>
   <polygon id="_206577032" class="fil0 str0" points="0.576545,0.092801 0.486357,0.0026129 0.576545,0.0026129 "/>
   <polygon id="_206576984" class="fil0 str0" points="0.092801,0.00262522 0.00261906,0.0928134 0.00261906,0.00261906 "/>
   <polygon id="_206576936" class="fil0 str0" points="0.00263139,0.486363 0.0928134,0.576551 0.00262522,0.576551 "/>
   <polygon id="_206576888" class="fil0 str0" points="0.379776,0.00261906 0.395386,0.0182287 0.395386,0.0403027 0.41746,0.0403027 0.433069,0.0559123 0.448673,0.0403027 0.470753,0.0403027 0.470753,0.0182225 0.486363,0.00261906 "/>
   <polygon id="_206576840" class="fil0 str0" points="0.199388,0.289576 0.28957,0.199388 0.379758,0.289576 0.28957,0.379758 "/>
   <polygon id="_206576792" class="fil0 str0" points="0.146094,0.342863 0.130485,0.327253 0.108411,0.327253 0.108411,0.305185 0.092801,0.289576 0.108411,0.27396 0.108411,0.251886 0.130485,0.251886 0.146094,0.236282 0.161698,0.251886 0.183778,0.251886 0.183778,0.273966 0.199388,0.289576 0.183778,0.305179 0.183778,0.327253 0.161704,0.327253 "/>
   <polygon id="_203623248" class="fil0 str0" points="0.342863,0.146094 0.433051,0.0559123 0.523233,0.146094 0.433051,0.236282 "/>
   <polygon id="_206576624" class="fil0 str0" points="0.433051,0.342863 0.417441,0.327253 0.395367,0.327253 0.395367,0.305185 0.379758,0.289576 0.395367,0.27396 0.395367,0.251886 0.417441,0.251886 0.433051,0.236282 0.448654,0.251886 0.470735,0.251886 0.470735,0.273966 0.486344,0.289576 0.470735,0.305179 0.470735,0.327253 0.448661,0.327253 "/>
   <polygon id="_206576576" class="fil0 str0" points="0.342863,0.433057 0.433051,0.342869 0.523233,0.433057 0.433051,0.523239 "/>
   <polygon id="_206576528" class="fil0 str0" points="0.486363,0.576551 0.470753,0.560941 0.470753,0.538867 0.448679,0.538867 0.433069,0.523264 0.417466,0.538867 0.395386,0.538867 0.395386,0.560947 0.379776,0.576551 "/>
   <polygon id="_206576480" class="fil0 str0" points="0.379751,0.00261906 0.28957,0.0928072 0.199388,0.00261906 "/>
   <polygon id="_206576432" class="fil0 str0" points="0.092801,0.0026129 0.108411,0.0182225 0.108411,0.0402966 0.130485,0.0402966 0.146094,0.0559062 0.161698,0.0402966 0.183778,0.0402966 0.183778,0.0182225 0.199388,0.0026129 "/>
   <polygon id="_203623392" class="fil0 str0" points="0.092801,0.576557 0.108411,0.560947 0.108411,0.538873 0.130485,0.538873 0.146094,0.523264 0.161698,0.538873 0.183778,0.538873 0.183778,0.560947 0.199388,0.576557 "/>
   <polygon id="_206576264" class="fil0 str0" points="0.576526,0.379758 0.560917,0.395367 0.538836,0.395367 0.538836,0.417441 0.523233,0.433051 0.538836,0.448661 0.538836,0.470735 0.560917,0.470735 0.576526,0.486344 "/>
   <polygon id="_206576216" class="fil0 str0" points="0.00264371,0.199418 0.0182533,0.183809 0.0403274,0.183809 0.0403274,0.161735 0.055937,0.146125 0.0403274,0.130516 0.0403274,0.108441 0.0182472,0.108441 0.00264371,0.0928318 "/>
   <polygon id="_206576168" class="fil0 str0" points="0.092801,0.289576 0.0026129,0.199388 0.0026129,0.379758 "/>
  </g>
 </g>
</svg>
