<?xml version="1.0" encoding="UTF-8"?>
<!DOCTYPE svg PUBLIC "-//W3C//DTD SVG 1.1//EN" "http://www.w3.org/Graphics/SVG/1.1/DTD/svg11.dtd">
<!-- Creator: CorelDRAW -->
<svg xmlns="http://www.w3.org/2000/svg" xml:space="preserve" width="110px" height="110px" style="shape-rendering:geometricPrecision; text-rendering:geometricPrecision; image-rendering:optimizeQuality; fill-rule:evenodd; clip-rule:evenodd"
viewBox="0 0 1.78602 1.78602"
 xmlns:xlink="http://www.w3.org/1999/xlink">
 <defs>
  <style type="text/css">
   <![CDATA[
    .str0 {stroke:#4C4C4C;stroke-width:0.0160963}
    .fil0 {fill:none}
   ]]>
  </style>
 </defs>
 <g id="Capa_x0020_1">
  <metadata id="CorelCorpID_0Corel-Layer"/>
  <g id="_202797040">
   <polygon id="_202798120" class="fil0 str0" points="0.00805764,0.00805764 0.00805764,1.77796 1.77796,1.77796 1.77796,0.00805764 "/>
   <polygon id="_202798072" class="fil0 str0" points="1.77796,1.77796 1.77796,0.00805764 0.00805764,0.00805764 0.00805764,1.77796 "/>
   <path id="_202798024" class="fil0 str0" d="M0.536612 1.02522l0.488627 -0.488608c0.0600522,0.0852133 0.139051,0.164193 0.22417,0.224189l-0.488627 0.488608c-0.0610214,-0.0865816 -0.13755,-0.163129 -0.22417,-0.224189z"/>
   <path id="_202797976" class="fil0 str0" d="M0.410616 0.95063l0.942572 -0.942553 0.106194 0 -0.979953 0.979934c-0.0223295,-0.0133977 -0.0453052,-0.0258833 -0.068813,-0.0373806z"/>
   <path id="_202797928" class="fil0 str0" d="M1.3754 0.835391l-0.942572 0.942553 -0.106194 0 0.979953 -0.979934c0.0223295,0.0133977 0.0453052,0.0258833 0.068813,0.0373806z"/>
   <path id="_202797880" class="fil0 str0" d="M0.00807664 0.00805764l0.849549 1.90039e-005c0,0.118869 0.0227286,0.232607 0.064081,0.337071l-0.576558 0.576558c-0.104483,-0.0413524 -0.218183,-0.064081 -0.337071,-0.064081l0 -0.849568z"/>
   <path id="_202797832" class="fil0 str0" d="M1.77794 1.77796l-0.849549 -1.90039e-005c0,-0.118869 -0.0227286,-0.232607 -0.064081,-0.337071l0.576558 -0.576558c0.104483,0.0413524 0.218183,0.064081 0.337071,0.064081l0 0.849568z"/>
   <path id="_202797784" class="fil0 str0" d="M1.08453 0.47732l0.0595581 -0.0595771c0.13736,0.211665 0.379811,0.345471 0.633874,0.345471l-1.90039e-005 0.0825908c-0.277076,0 -0.538854,-0.140971 -0.693413,-0.368485z"/>
   <path id="_202797736" class="fil0 str0" d="M1.02281 0.00807664l-0.0825908 0c0,0.0953424 0.0161723,0.187302 0.0457423,0.272819l0.0658104 -0.0658104c-0.0188328,-0.0657914 -0.0289619,-0.135326 -0.0289619,-0.207009z"/>
   <path id="_202797688" class="fil0 str0" d="M0.763214 1.77794l0.0825908 0c0,-0.0953424 -0.0161723,-0.187302 -0.0457423,-0.272819l-0.0658104 0.0658104c0.0188328,0.0657914 0.0289619,0.135326 0.0289619,0.207009z"/>
   <path id="_202797640" class="fil0 str0" d="M0.541439 1.24458c-0.140553,-0.139697 -0.33329,-0.221775 -0.533381,-0.221775l1.90039e-005 -0.0825908c0.23065,0 0.44011,0.0941451 0.591856,0.245872l3.80077e-005 -3.80077e-005c0.0375896,0.0375516 0.0715875,0.078581 0.101519,0.122651l-0.0595581 0.0595771c-0.0290569,-0.0447731 -0.0627127,-0.0862965 -0.100302,-0.123886l-0.000190039 0.000190039z"/>
   <path id="_202797592" class="fil0 str0" d="M0.00807664 1.2588l0.138918 -0.138937c-0.0448301,-0.00946392 -0.0913325,-0.0144619 -0.138937,-0.0144619l1.90039e-005 0.153399z"/>
   <path id="_202797544" class="fil0 str0" d="M1.77794 0.527224l-0.138918 0.138937c0.0448301,0.00946392 0.0913325,0.0144619 0.138937,0.0144619l-1.90039e-005 -0.153399z"/>
   <path id="_202797496" class="fil0 str0" d="M0.00807664 1.45938l0.288688 -0.288707c-0.02442,-0.0116684 -0.0496571,-0.0219114 -0.0755783,-0.0305962l-0.213109 0.213109 0 0.106194z"/>
   <path id="_202797448" class="fil0 str0" d="M1.77794 0.326638l-0.288688 0.288707c0.02442,0.0116684 0.0496571,0.0219114 0.0755783,0.0305962l0.213109 -0.213109 0 -0.106194z"/>
   <path id="_202797400" class="fil0 str0" d="M0.00807664 1.55377l0.349861 -0.34988c0.0915416,0.0560424 0.168127,0.132742 0.224151,0.224227l-0.349842 0.349842 -0.22417 -1.90039e-005 0 -0.22417z"/>
   <path id="_202797352" class="fil0 str0" d="M1.2588 0.00805764l-0.153399 0c0,0.0476047 0.00501702,0.0940501 0.0144999,0.138899l0.138899 -0.138899z"/>
   <path id="_202797304" class="fil0 str0" d="M0.527224 1.77796l0.153399 0c0,-0.0476047 -0.00501702,-0.0940501 -0.0144999,-0.138899l-0.138899 0.138899z"/>
   <path id="_202797256" class="fil0 str0" d="M1.20393 0.3579l0.349842 -0.349842 0.22417 1.90039e-005 0 0.22417 -0.349861 0.34988c-0.0882349,-0.054028 -0.16999,-0.135783 -0.224151,-0.224227z"/>
   <path id="_202797208" class="fil0 str0" d="M0.00807664 0.00807664l0 0.267992c0.122176,0.00980599 0.176508,0.151404 0.0376276,0.207617 -0.00509303,0.00205242 -0.00933089,0.00843771 -0.00435188,0.0173315 0.01488,0.0266244 0.0389009,0.0389769 0.0633589,0.0486119 0.00347771,0.00136828 0.00549212,0.00385778 0.00484598,0.00714545 -0.00646131,0.0323826 -0.00847572,0.0647842 -0.000798162,0.0969767 0.00167234,0.00699342 0.00421886,0.00657534 0.00611924,0.00283158 0.00482698,-0.00955894 0.0141769,-0.0125425 0.0224436,-0.0179396 0.106403,-0.0631308 0.0964446,-0.229966 0.0117064,-0.326011 -0.0227286,-0.0257502 0.0313564,-0.0621426 0.068699,-0.014633 0.0766996,0.0975848 0.0805954,0.225158 0.126091,0.278197 0.02957,0.034473 0.0530778,0.0620856 0.069155,0.0616295 0.0241729,-0.000684139 0.0402882,-0.0191179 0.0487449,-0.049429 0.00108322,-0.00803863 0.00841871,-0.0106042 0.0164003,-0.00515005 0.0459323,0.029627 0.0855364,0.0291519 0.123316,0.0199921 0.00129226,-0.000513104 0.00157732,-0.00114023 0.00201441,-0.00256552 0.00898883,-0.0375516 0.00925488,-0.0769276 -0.0201631,-0.122556 -0.00545411,-0.00798162 -0.00288859,-0.0153171 0.00513104,-0.0164003 0.0303302,-0.00845672 0.0487449,-0.024572 0.049448,-0.0487449 0.000456093,-0.0160773 -0.0271565,-0.039585 -0.0616295,-0.069155 -0.0530398,-0.0454952 -0.180613,-0.049391 -0.278197,-0.126091 -0.0475096,-0.0373426 -0.0111173,-0.0914276 0.014633,-0.068699 0.0960455,0.0847382 0.26288,0.0946962 0.325992,-0.0117064 0.0054161,-0.00826668 0.00839971,-0.0176166 0.0179586,-0.0224436 0.00374376,-0.00190039 0.00416185,-0.0044469 -0.00283158,-0.00611924 -0.0321925,-0.00767756 -0.0645941,-0.00566315 -0.0969957,0.000798162 -0.00326866,0.000646131 -0.00575817,-0.00136828 -0.00712645,-0.00484598 -0.00963496,-0.024458 -0.0219875,-0.0484788 -0.0486119,-0.0633589 -0.00889381,-0.00497901 -0.0152791,-0.000741151 -0.0173505,0.00435188 -0.0561944,0.13888 -0.197792,0.0845482 -0.207598,-0.0376276l-0.26803 0z"/>
   <path id="_202797160" class="fil0 str0" d="M1.77794 1.77794l0 -0.267992c-0.122176,-0.00980599 -0.176508,-0.151404 -0.0376276,-0.207617 0.00509303,-0.00205242 0.00933089,-0.00843771 0.00435188,-0.0173315 -0.01488,-0.0266244 -0.0389009,-0.0389769 -0.0633589,-0.0486119 -0.00347771,-0.00136828 -0.00549212,-0.00385778 -0.00484598,-0.00714545 0.00646131,-0.0323826 0.00847572,-0.0647842 0.000798162,-0.0969767 -0.00167234,-0.00699342 -0.00421886,-0.00657534 -0.00611924,-0.00283158 -0.00482698,0.00955894 -0.0141769,0.0125425 -0.0224436,0.0179396 -0.106403,0.0631308 -0.0964446,0.229966 -0.0117064,0.326011 0.0227286,0.0257502 -0.0313564,0.0621426 -0.068699,0.014633 -0.0766996,-0.0975848 -0.0805954,-0.225158 -0.126091,-0.278197 -0.02957,-0.034473 -0.0530778,-0.0620856 -0.069155,-0.0616295 -0.0241729,0.000684139 -0.0402882,0.0191179 -0.0487449,0.049429 -0.00108322,0.00803863 -0.00841871,0.0106042 -0.0164003,0.00515005 -0.0459323,-0.029627 -0.0855364,-0.0291519 -0.123316,-0.0199921 -0.00129226,0.000513104 -0.00157732,0.00114023 -0.00201441,0.00256552 -0.00898883,0.0375516 -0.00925488,0.0769276 0.0201631,0.122556 0.00545411,0.00798162 0.00288859,0.0153171 -0.00513104,0.0164003 -0.0303302,0.00845672 -0.0487449,0.024572 -0.049448,0.0487449 -0.000456093,0.0160773 0.0271565,0.039585 0.0616295,0.069155 0.0530398,0.0454952 0.180613,0.049391 0.278197,0.126091 0.0475096,0.0373426 0.0111173,0.0914276 -0.014633,0.068699 -0.0960455,-0.0847382 -0.26288,-0.0946962 -0.325992,0.0117064 -0.0054161,0.00826668 -0.00839971,0.0176166 -0.0179586,0.0224436 -0.00374376,0.00190039 -0.00416185,0.0044469 0.00283158,0.00611924 0.0321925,0.00767756 0.0645941,0.00566315 0.0969957,-0.000798162 0.00326866,-0.000646131 0.00575817,0.00136828 0.00712645,0.00484598 0.00963496,0.024458 0.0219875,0.0484788 0.0486119,0.0633589 0.00889381,0.00497901 0.0152791,0.000741151 0.0173505,-0.00435188 0.0561944,-0.13888 0.197792,-0.0845482 0.207598,0.0376276l0.26803 0z"/>
   <path id="_202797112" class="fil0 str0" d="M0.00805764 0.00807664l1.90039e-005 0.126946c0.0624277,-0.0054351 0.115981,0.0101861 0.164554,0.0376276 -0.0274226,-0.0485929 -0.0430437,-0.102146 -0.0376086,-0.164573l-0.126965 0z"/>
   <path id="_202797064" class="fil0 str0" d="M1.77796 1.77794l-1.90039e-005 -0.126946c-0.0624277,0.0054351 -0.115981,-0.0101861 -0.164554,-0.0376276 0.0274226,0.0485929 0.0430437,0.102146 0.0376086,0.164573l0.126965 0z"/>
  </g>
 </g>
</svg>
