<?xml version="1.0" encoding="UTF-8"?>
<!DOCTYPE svg PUBLIC "-//W3C//DTD SVG 1.1//EN" "http://www.w3.org/Graphics/SVG/1.1/DTD/svg11.dtd">
<!-- Creator: CorelDRAW -->
<svg xmlns="http://www.w3.org/2000/svg" xml:space="preserve" width="110px" height="110px" style="shape-rendering:geometricPrecision; text-rendering:geometricPrecision; image-rendering:optimizeQuality; fill-rule:evenodd; clip-rule:evenodd"
viewBox="0 0 1.08497 1.08497"
 xmlns:xlink="http://www.w3.org/1999/xlink">
 <defs>
  <style type="text/css">
   <![CDATA[
    .str0 {stroke:#4C4C4C;stroke-width:0.00977816}
    .fil0 {fill:none}
   ]]>
  </style>
 </defs>
 <g id="Capa_x0020_1">
  <metadata id="CorelCorpID_0Corel-Layer"/>
  <g id="_113166496">
   <rect id="_160700504" class="fil0 str0" transform="matrix(2.97112E-015 -0.112183 0.112183 2.97112E-015 0.00491096 1.08006)" width="9.58396" height="9.58396"/>
   <rect id="_160700408" class="fil0 str0" transform="matrix(-8.91337E-015 0.112183 -0.112183 -8.91337E-015 1.08006 0.00490707)" width="9.58396" height="9.58396"/>
   <polygon id="_160700312" class="fil0 str0" points="1.08007,0.00489485 0.0049064,0.00489485 0.0049064,1.08007 1.08007,1.08007 "/>
   <polygon id="_160700216" class="fil0 str0" points="0.0049064,1.08008 1.08007,1.08008 1.08007,0.0049064 0.0049064,0.0049064 "/>
   <path id="_160700120" class="fil0 str0" d="M0.167152 0.167141c0.0563832,0.0027014 0.104951,-0.0113598 0.149039,-0.0332827 0.00122371,-0.0143844 -0.00380967,-0.0271757 0.0003117,-0.0418256 0.00437535,-0.0155388 0.0172474,-0.0337329 0.0151348,-0.0518346 -0.00116599,-0.00998596 -0.00204337,-0.0114983 -0.0109442,-0.00795413 -0.0441691,0.0175822 -0.0740924,0.0705713 -0.122521,0.0780175 -0.0596849,0.00923557 -0.096985,-0.0412945 -0.157894,-0.105366l-0.0353722 0 0 0.0353838c0.0640718,0.0609086 0.114602,0.0982087 0.105366,0.157894 -0.00744618,0.048429 -0.0604353,0.0783523 -0.0780175,0.122521 -0.00354415,0.00890078 -0.00203183,0.00977816 0.00795413,0.0109442 0.0181017,0.00211264 0.0362958,-0.0107594 0.0518346,-0.0151348 0.0146499,-0.00412137 0.0274412,0.000912013 0.041814,-0.0003117 0.0219345,-0.0440883 0.0359956,-0.0926674 0.0332942,-0.149051z"/>
   <path id="_160700024" class="fil0 str0" d="M0.917819 0.917831c-0.0563832,-0.0027014 -0.104951,0.0113598 -0.149039,0.0332827 -0.00122371,0.0143844 0.00380967,0.0271757 -0.0003117,0.0418256 -0.00437535,0.0155388 -0.0172474,0.0337329 -0.0151348,0.0518346 0.00116599,0.00998596 0.00204337,0.0114983 0.0109442,0.00795413 0.0441691,-0.0175822 0.0740924,-0.0705713 0.122521,-0.0780175 0.0596849,-0.00923557 0.096985,0.0412945 0.157894,0.105366l0.0353722 0 0 -0.0353838c-0.0640718,-0.0609086 -0.114602,-0.0982087 -0.105366,-0.157894 0.00744618,-0.048429 0.0604353,-0.0783523 0.0780175,-0.122521 0.00354415,-0.00890078 0.00203183,-0.00977816 -0.00795413,-0.0109442 -0.0181017,-0.00211264 -0.0362958,0.0107594 -0.0518346,0.0151348 -0.0146499,0.00412137 -0.0274412,-0.000912013 -0.041814,0.0003117 -0.0219345,0.0440883 -0.0359956,0.0926674 -0.0332942,0.149051z"/>
   <path id="_160699688" class="fil0 str0" d="M0.0049064 0.0837435c0.0634945,0.057376 0.0587151,0.103866 0,0.159267l0 -0.159267z"/>
   <path id="_160699592" class="fil0 str0" d="M1.08007 1.00123c-0.0634945,-0.057376 -0.0587151,-0.103866 0,-0.159267l0 0.159267z"/>
   <path id="_160699496" class="fil0 str0" d="M0.0837435 0.00489485c0.057376,0.0634945 0.103866,0.0587151 0.159267,0l-0.159267 0z"/>
   <path id="_160691600" class="fil0 str0" d="M1.00123 1.08008c-0.057376,-0.0634945 -0.103866,-0.0587151 -0.159267,0l0.159267 0z"/>
   <path id="_160689224" class="fil0 str0" d="M0.0314587 1.0534c0.0492602,0.0074 0.102815,0.0124911 0.146695,0.00377504 0.00618783,-0.00122371 0.0115676,-0.00267832 0.0173167,-0.00529891 0.0554942,-0.0252708 0.0697632,-0.0854175 0.0116599,-0.138314l0.113921 -0.114129c-0.00452543,0.0578493 0.0171089,0.0939257 0.0421835,0.132958 -0.0897928,0.0270833 -0.0609201,0.116495 0.0100552,0.134227 0.00681123,0.00169704 0.0134724,0.00223963 0.0204799,0.00262059 0.041283,0.00226271 0.0838936,-0.00310546 0.129852,-0.0122025 -0.0143613,-0.0484406 0.00180094,-0.124103 -0.0238855,-0.162788 -0.0300733,-0.0356262 -0.0759857,-0.0388471 -0.107294,0.00842746 -0.027649,-0.0212187 -0.0443423,-0.0627326 -0.0347142,-0.109545 0.00389048,-0.0188867 0.00887769,-0.0312393 0.0217613,-0.0444924 0.0320821,-0.0330172 0.0792643,-0.079703 0.118412,-0.116218 0.0150193,-0.0139919 0.0331788,0.00520655 0.0198103,0.0187482 -0.0162315,0.0164278 -0.0314933,0.034264 -0.0446771,0.0515922 -0.0414908,0.0613473 -0.0117061,0.119808 0.0439613,0.137772 0.0204683,0.00660343 0.0359956,0.0061532 0.056083,-0.000785023 0.0814,-0.0281223 0.077498,-0.114036 -0.00503339,-0.194189 -0.0141766,-0.013761 0.00502184,-0.0330172 0.0204914,-0.0178362 0.0429685,0.0421488 0.122706,0.107525 0.114948,0.173155 -0.00751544,0.063229 -0.0884652,0.0712178 -0.116437,0.113471 -0.00180094,0.00272449 -0.00219345,0.00451388 -0.00274758,0.00772325 -0.00831201,0.0470321 -0.0119023,0.093868 -0.00952418,0.140819 0.0249245,0.00190484 0.0415254,-4.61778e-005 0.0600543,-0.0149847 0.00368268,-0.00296693 0.00296693,-0.00266677 0.00711139,-0.000392512 0.0107941,0.00591076 0.0225348,0.00965117 0.0379813,0.0102399 0.00591076,0.000219345 0.00540281,9.23557e-005 0.00765398,-0.00529891 0.0236777,-0.0566371 0.0372655,-0.103034 0.0411329,-0.172347 0.0246243,0.0303504 0.0718296,0.0102861 0.144398,-0.0071922 0.0174783,-0.0725685 0.0373348,-0.119578 0.0069844,-0.144202 0.069313,-0.00386739 0.11571,-0.0174552 0.172359,-0.0411329 0.00537972,-0.00225117 0.00550671,-0.00174321 0.00528736,-0.00765398 -0.000577223,-0.0154465 -0.00431763,-0.0271872 -0.0102399,-0.0379813 -0.00227426,-0.00414446 -0.00256287,-0.00342871 0.000392512,-0.00711139 0.0149385,-0.0185289 0.0168895,-0.0351298 0.0149847,-0.0600543 -0.0469398,-0.00237816 -0.0937872,0.00121217 -0.140819,0.00952418 -0.00320936,0.000554134 -0.00498721,0.000946646 -0.00772325,0.00274758 -0.0422412,0.0279722 -0.05023,0.108922 -0.113471,0.116437 -0.0656187,0.00775788 -0.131007,-0.0719797 -0.173155,-0.114948 -0.015181,-0.0154696 0.0040752,-0.034668 0.0178362,-0.0204914 0.0801532,0.0825314 0.166067,0.0864334 0.194189,0.00503339 0.00693822,-0.0200874 0.00738846,-0.0356147 0.000785023,-0.056083 -0.0179632,-0.0556674 -0.0764243,-0.0854521 -0.137772,-0.0439613 -0.0173282,0.0131838 -0.0351644,0.0284456 -0.0515922,0.0446771 -0.0135417,0.0133685 -0.0327286,-0.00479095 -0.0187482,-0.0198103 0.0365151,-0.0391473 0.0832125,-0.0863295 0.116218,-0.118412 0.013253,-0.0128836 0.0256056,-0.0178708 0.0444924,-0.0217613 0.0468128,-0.00962808 0.0883382,0.00706521 0.109545,0.0347142 -0.0472746,0.0313086 -0.0440537,0.0772209 -0.00842746,0.107294 0.0386855,0.0256864 0.114348,0.00952418 0.162788,0.0238855 0.00909704,-0.0459585 0.0144652,-0.0885691 0.0122025,-0.129852 -0.000380967,-0.00700749 -0.000923557,-0.0136686 -0.00262059,-0.0204799 -0.0177323,-0.0709754 -0.107144,-0.0998481 -0.134227,-0.0100552 -0.0390318,-0.0250746 -0.0751083,-0.0467089 -0.132958,-0.0421835l0.114129 -0.113921c0.0528967,0.0581033 0.113043,0.0438343 0.138314,-0.0116599 0.00262059,-0.00574914 0.0040752,-0.0111289 0.00529891,-0.0173167 0.00872761,-0.0438805 0.00348643,-0.0971813 -0.00391357,-0.14643 -0.0492487,-0.00738846 -0.102561,-0.0126412 -0.14643,-0.00392512 -0.00618783,0.00122371 -0.0115676,0.00267832 -0.0173167,0.00529891 -0.0554942,0.0252708 -0.0697632,0.0854175 -0.0116599,0.138314l-0.113921 0.114129c0.00452543,-0.0578493 -0.0171089,-0.0939257 -0.0421835,-0.132958 0.0897928,-0.0270833 0.0609201,-0.116495 -0.0100552,-0.134227 -0.00681123,-0.00169704 -0.0134724,-0.00223963 -0.0204799,-0.00262059 -0.041283,-0.00226271 -0.0838936,0.00310546 -0.129852,0.0122025 0.0143613,0.0484406 -0.00180094,0.124103 0.0238855,0.162788 0.0300733,0.0356262 0.0759857,0.0388471 0.107294,-0.00842746 0.027649,0.0212187 0.0443423,0.0627326 0.0347142,0.109545 -0.00389048,0.0188867 -0.00887769,0.0312393 -0.0217613,0.0444924 -0.0320821,0.0330172 -0.0792643,0.079703 -0.118412,0.116218 -0.0150193,0.0139919 -0.0331788,-0.00520655 -0.0198103,-0.0187482 0.0162315,-0.0164278 0.0314933,-0.034264 0.0446771,-0.0515922 0.0414908,-0.0613473 0.0117061,-0.119808 -0.0439613,-0.137772 -0.0204683,-0.00660343 -0.0359956,-0.0061532 -0.056083,0.000785023 -0.0814,0.0281223 -0.077498,0.114036 0.00503339,0.194189 0.0141766,0.013761 -0.00502184,0.0330172 -0.0204914,0.0178362 -0.0429685,-0.0421488 -0.122706,-0.107525 -0.114948,-0.173155 0.00751544,-0.063229 0.0884652,-0.0712178 0.116437,-0.113471 0.00180094,-0.00272449 0.00219345,-0.00451388 0.00274758,-0.00772325 0.00831201,-0.0470321 0.0119023,-0.093868 0.00952418,-0.140819 -0.0249245,-0.00190484 -0.0415254,4.61778e-005 -0.0600543,0.0149847 -0.00368268,0.00296693 -0.00296693,0.00266677 -0.00711139,0.000392512 -0.0107941,-0.00591076 -0.0225348,-0.00965117 -0.0379813,-0.0102399 -0.00591076,-0.000219345 -0.00540281,-9.23557e-005 -0.00765398,0.00529891 -0.0236777,0.0566371 -0.0372655,0.103034 -0.0411329,0.172347 -0.0246243,-0.0303504 -0.0718296,-0.0102861 -0.144398,0.0071922 -0.0174783,0.0725685 -0.0373348,0.119578 -0.0069844,0.144202 -0.069313,0.00386739 -0.11571,0.0174552 -0.172359,0.0411329 -0.00537972,0.00225117 -0.00550671,0.00174321 -0.00528736,0.00765398 0.000577223,0.0154465 0.00431763,0.0271872 0.0102399,0.0379813 0.00227426,0.00414446 0.00256287,0.00342871 -0.000392512,0.00711139 -0.0149385,0.0185289 -0.0168895,0.0351298 -0.0149847,0.0600543 0.0469398,0.00237816 0.0937872,-0.00121217 0.140819,-0.00952418 0.00320936,-0.000554134 0.00498721,-0.000946646 0.00772325,-0.00274758 0.0422412,-0.0279722 0.05023,-0.108922 0.113471,-0.116437 0.0656187,-0.00775788 0.131007,0.0719797 0.173155,0.114948 0.015181,0.0154696 -0.0040752,0.034668 -0.0178362,0.0204914 -0.0801532,-0.0825314 -0.166067,-0.0864334 -0.194189,-0.00503339 -0.00693822,0.0200874 -0.00738846,0.0356147 -0.000785023,0.056083 0.0179632,0.0556674 0.0764243,0.0854521 0.137772,0.0439613 0.0173282,-0.0131838 0.0351644,-0.0284456 0.0515922,-0.0446771 0.0135417,-0.0133685 0.0327286,0.00479095 0.0187482,0.0198103 -0.0365151,0.0391473 -0.0832125,0.0863295 -0.116218,0.118412 -0.013253,0.0128836 -0.0256056,0.0178708 -0.0444924,0.0217613 -0.0468128,0.00962808 -0.0883382,-0.00706521 -0.109545,-0.0347142 0.0472746,-0.0313086 0.0440537,-0.0772209 0.00842746,-0.107294 -0.0386855,-0.0256864 -0.114348,-0.00952418 -0.162788,-0.0238855 -0.00909704,0.0459585 -0.0144652,0.0885691 -0.0122025,0.129852 0.000380967,0.00700749 0.000923557,0.0136686 0.00262059,0.0204799 0.0177323,0.0709754 0.107144,0.0998481 0.134227,0.0100552 0.0390318,0.0250746 0.0751083,0.0467089 0.132958,0.0421835l-0.114129 0.113921c-0.0528967,-0.0581033 -0.113043,-0.0438343 -0.138314,0.0116599 -0.00262059,0.00574914 -0.0040752,0.0111289 -0.00529891,0.0173167 -0.00872761,0.0438805 -0.00374041,0.0973314 0.00364805,0.14658z"/>
   <path id="_160699400" class="fil0 str0" d="M0.115595 0.666496c0.0434418,0.00383276 0.0322899,-0.0364112 0.00533354,-0.0420218 -0.0173744,-0.00170858 -0.0309161,-0.000173167 -0.0406365,0.00430608 -0.00735382,0.0128144 -0.00890078,0.0310546 -0.00431763,0.0479672 0.0126412,0.0287111 0.0429916,0.0266331 0.0396206,-0.0102515z"/>
   <path id="_156322904" class="fil0 str0" d="M0.969377 0.418475c-0.0434418,-0.00383276 -0.0322899,0.0364112 -0.00533354,0.0420218 0.0173744,0.00170858 0.0309161,0.000173167 0.0406365,-0.00430608 0.00735382,-0.0128144 0.00890078,-0.0310546 0.00431763,-0.0479672 -0.0126412,-0.0287111 -0.0429916,-0.0266331 -0.0396206,0.0102515z"/>
   <path id="_113163688" class="fil0 str0" d="M0.666496 0.115583c0.00383276,0.0434534 -0.0364112,0.0323014 -0.0420218,0.00533354 -0.00170858,-0.0173744 -0.000173167,-0.0309161 0.00430608,-0.0406365 0.0128144,-0.00735382 0.0310546,-0.00888924 0.0479672,-0.00430608 0.0287111,0.0126412 0.0266331,0.04298 -0.0102515,0.039609z"/>
   <path id="_113166640" class="fil0 str0" d="M0.418475 0.969388c-0.00383276,-0.0434534 0.0364112,-0.0323014 0.0420218,-0.00533354 0.00170858,0.0173744 0.000173167,0.0309161 -0.00430608,0.0406365 -0.0128144,0.00735382 -0.0310546,0.00888924 -0.0479672,0.00430608 -0.0287111,-0.0126412 -0.0266331,-0.04298 0.0102515,-0.039609z"/>
   <path id="_113166592" class="fil0 str0" d="M0.944672 0.140115c-0.00355569,0.0547323 0.0467204,0.0395513 0.0529891,0.00549516 0.00165086,-0.0218998 -0.000681123,-0.0388933 -0.00659189,-0.0509803 -0.0163239,-0.00887769 -0.0392973,-0.0102861 -0.0604353,-0.00402902 -0.0357301,0.0167279 -0.0322321,0.0548247 0.0140381,0.0495142z"/>
   <path id="_113166544" class="fil0 str0" d="M0.140115 0.944683c0.0547323,-0.00355569 0.0395513,0.0467204 0.00549516,0.0529891 -0.0218998,0.00165086 -0.0388933,-0.000681123 -0.0509803,-0.00659189 -0.00887769,-0.0163239 -0.0102861,-0.0393089 -0.00402902,-0.0604353 0.0167279,-0.0357301 0.0548247,-0.0322321 0.0495142,0.0140381z"/>
  </g>
 </g>
</svg>
