<?xml version="1.0" encoding="UTF-8"?>
<!DOCTYPE svg PUBLIC "-//W3C//DTD SVG 1.1//EN" "http://www.w3.org/Graphics/SVG/1.1/DTD/svg11.dtd">
<!-- Creator: CorelDRAW -->
<svg xmlns="http://www.w3.org/2000/svg" xml:space="preserve" width="110px" height="110px" style="shape-rendering:geometricPrecision; text-rendering:geometricPrecision; image-rendering:optimizeQuality; fill-rule:evenodd; clip-rule:evenodd"
viewBox="0 0 1.0895 1.08947"
 xmlns:xlink="http://www.w3.org/1999/xlink">
 <defs>
  <style type="text/css">
   <![CDATA[
    .str0 {stroke:#4C4C4C;stroke-width:0.00981873}
    .fil0 {fill:white}
   ]]>
  </style>
 </defs>
 <g id="Capa_x0020_1">
  <metadata id="CorelCorpID_0Corel-Layer"/>
  <g id="_202111952">
   <polygon id="_202112240" class="fil0 str0" points="0.00491516,1.08456 1.08456,1.08456 1.08456,0.00491516 0.00491516,0.00491516 "/>
   <polygon id="_202112192" class="fil0 str0" points="1.08455,0.347771 1.00273,0.585924 0.783006,0.35934 0.798829,0.648731 0.504256,0.504256 0.649496,0.800406 0.358818,0.787109 0.584962,1.00305 0.347771,1.08455 1.08331,1.08455 "/>
   <polygon id="_202112144" class="fil0 str0" points="1.08455,0.956659 1.08455,0.854971 1.03765,0.803872 1.02303,0.900425 0.950086,0.867676 0.945936,0.947026 0.867676,0.950086 0.900425,1.02303 0.803872,1.03765 0.854971,1.08456 0.956659,1.08456 1.08329,1.08456 "/>
   <path id="_202112096" class="fil0 str0" d="M0.144974 0.1448l0.119552 -0.00464853 0.0968194 0.220718c0.000255032,0.00188955 -0.204791,-0.0889481 -0.221194,-0.0963441l0.00482242 -0.119726zm-0.0779702 -0.0777963l0 -0.0620771 0.0682558 0 0.0046949 0.0403762 0.16817 0.00335019 0.197441 0.373564 0.389573 0.166594 0.189407 -0.478845 0 0.237794 -0.129707 0.377482 -0.450583 -0.220985 0.220985 0.450583 -0.37747 0.129718 -0.237806 0 0.478845 -0.189419 -0.166594 -0.389573 -0.373564 -0.197441 -0.00335019 -0.16817 -0.0403762 -0.00430076 0 -0.0686499 0.0620771 0z"/>
   <path id="_202112048" class="fil0 str0" d="M1.03514 0.491562l-0.0323195 0.0940488 0.0817377 0.0846937 0 -0.126194 -0.0494182 -0.0525481m-0.488931 0.304114l-0.187402 -0.00856675 0.311498 0.297448 -0.126194 0 -0.423248 -0.398024 0.387706 0.0210401 0.0376404 0.0881019zm0.103265 0.00471809l0.157169 0.00718726 -0.0217936 -0.444115 0.142354 0.144673 0.0364232 -0.0926229 -0.277092 -0.294666 0.031566 0.598084 -0.111565 -0.00605121 0.0429381 0.0875107z"/>
   <polygon id="_202112000" class="fil0 str0" points="0.00491516,0.00491516 0.00491516,0.0670038 0.0670038,0.0670038 0.0670038,0.00491516 "/>
  </g>
 </g>
</svg>
