<?xml version="1.0" encoding="UTF-8"?>
<!DOCTYPE svg PUBLIC "-//W3C//DTD SVG 1.1//EN" "http://www.w3.org/Graphics/SVG/1.1/DTD/svg11.dtd">
<!-- Creator: CorelDRAW -->
<svg xmlns="http://www.w3.org/2000/svg" xml:space="preserve" width="110px" height="110px" style="shape-rendering:geometricPrecision; text-rendering:geometricPrecision; image-rendering:optimizeQuality; fill-rule:evenodd; clip-rule:evenodd"
viewBox="0 0 0.657122 0.657122"
 xmlns:xlink="http://www.w3.org/1999/xlink">
 <defs>
  <style type="text/css">
   <![CDATA[
    .str0 {stroke:#4C4C4C;stroke-width:0.00592223}
    .fil0 {fill:none}
   ]]>
  </style>
 </defs>
 <g id="Capa_x0020_1">
  <metadata id="CorelCorpID_0Corel-Layer"/>
  <g id="_202811584">
   <polygon id="_206595752" class="fil0 str0" points="0.0029716,0.654151 0.654158,0.654151 0.654158,0.00296461 0.0029716,0.00296461 "/>
   <g>
    <polygon id="_206595704" class="fil0 str0" points="0.224961,0.0784363 0.224961,0.224954 0.328561,0.328561 0.328561,0.182044 "/>
    <polygon id="_206595656" class="fil0 str0" points="0.0784363,0.224954 0.182044,0.328561 0.328561,0.328561 0.224961,0.224961 "/>
    <polygon id="_206595608" class="fil0 str0" points="0.0784363,0.432162 0.224954,0.432162 0.328561,0.328561 0.182044,0.328561 "/>
    <polygon id="_206595560" class="fil0 str0" points="0.224954,0.578686 0.328561,0.475079 0.328561,0.328561 0.224961,0.432162 "/>
    <polygon id="_206595512" class="fil0 str0" points="0.432162,0.578686 0.432162,0.432169 0.328561,0.328561 0.328561,0.475079 "/>
    <polygon id="_206595464" class="fil0 str0" points="0.578686,0.432169 0.475079,0.328561 0.328561,0.328561 0.432162,0.432162 "/>
    <polygon id="_206595416" class="fil0 str0" points="0.578686,0.224961 0.432169,0.224961 0.328561,0.328561 0.475079,0.328561 "/>
    <polygon id="_206595368" class="fil0 str0" points="0.432169,0.0784363 0.328561,0.182044 0.328561,0.328561 0.432162,0.224961 "/>
   </g>
  </g>
 </g>
</svg>
