<?xml version="1.0" encoding="UTF-8"?>
<!DOCTYPE svg PUBLIC "-//W3C//DTD SVG 1.1//EN" "http://www.w3.org/Graphics/SVG/1.1/DTD/svg11.dtd">
<!-- Creator: CorelDRAW -->
<svg xmlns="http://www.w3.org/2000/svg" xml:space="preserve" width="110px" height="110px" style="shape-rendering:geometricPrecision; text-rendering:geometricPrecision; image-rendering:optimizeQuality; fill-rule:evenodd; clip-rule:evenodd"
viewBox="0 0 0.657122 0.657122"
 xmlns:xlink="http://www.w3.org/1999/xlink">
 <defs>
  <style type="text/css">
   <![CDATA[
    .str0 {stroke:#4C4C4C;stroke-width:0.00592223}
    .fil0 {fill:none}
   ]]>
  </style>
 </defs>
 <g id="Capa_x0020_1">
  <metadata id="CorelCorpID_0Corel-Layer"/>
  <g id="_196840064">
   <polygon id="_199270992" class="fil0 str0" points="0.654158,0.654158 0.00296461,0.654158 0.00296461,0.00296461 0.654158,0.00296461 "/>
   <polygon id="_199270944" class="fil0 str0" points="0.654158,0.170416 0.486706,0.00296461 0.654158,0.00296461 "/>
   <polygon id="_199270896" class="fil0 str0" points="0.170416,0.00296461 0.00296461,0.170416 0.00296461,0.00296461 "/>
   <polygon id="_199270848" class="fil0 str0" points="0.00296461,0.486706 0.170416,0.654158 0.00296461,0.654158 "/>
   <polygon id="_196839920" class="fil0 str0" points="0.486706,0.654158 0.654158,0.486706 0.654158,0.654158 "/>
   <polygon id="_199270680" class="fil0 str0" points="0.442055,0.0569219 0.442055,0.205768 0.337861,0.309955 0.337861,0.16111 "/>
   <polygon id="_199270632" class="fil0 str0" points="0.215067,0.6002 0.215067,0.451355 0.319262,0.347167 0.319262,0.496013 "/>
   <polygon id="_199270584" class="fil0 str0" points="0.0569219,0.215067 0.205768,0.215067 0.309955,0.319262 0.16111,0.319262 "/>
   <polygon id="_199270536" class="fil0 str0" points="0.6002,0.442055 0.451355,0.442055 0.347167,0.337861 0.496013,0.337861 "/>
   <polygon id="_199270488" class="fil0 str0" points="0.215067,0.0569219 0.215067,0.205768 0.319262,0.309955 0.319262,0.16111 "/>
   <polygon id="_199270440" class="fil0 str0" points="0.442055,0.6002 0.442055,0.451355 0.337861,0.347167 0.337861,0.496013 "/>
   <polygon id="_199270392" class="fil0 str0" points="0.0569219,0.442055 0.205768,0.442055 0.309955,0.337861 0.16111,0.337861 "/>
   <polygon id="_199270344" class="fil0 str0" points="0.6002,0.215067 0.451355,0.215067 0.347167,0.319262 0.496013,0.319262 "/>
  </g>
  <polygon class="fil0 str0" points="0.00296461,0.00296461 0.654158,0.00296461 0.654158,0.654158 0.00296461,0.654158 "/>
 </g>
</svg>
