<?xml version="1.0" encoding="UTF-8"?>
<!DOCTYPE svg PUBLIC "-//W3C//DTD SVG 1.1//EN" "http://www.w3.org/Graphics/SVG/1.1/DTD/svg11.dtd">
<!-- Creator: CorelDRAW -->
<svg xmlns="http://www.w3.org/2000/svg" xml:space="preserve" width="110px" height="110px" style="shape-rendering:geometricPrecision; text-rendering:geometricPrecision; image-rendering:optimizeQuality; fill-rule:evenodd; clip-rule:evenodd"
viewBox="0 0 0.486897 0.486897"
 xmlns:xlink="http://www.w3.org/1999/xlink">
 <defs>
  <style type="text/css">
   <![CDATA[
    .str0 {stroke:#605D5C;stroke-width:0.00436963}
    .fil0 {fill:none}
   ]]>
  </style>
 </defs>
 <g id="Plan_x0020_1">
  <metadata id="CorelCorpID_0Corel-Layer"/>
  <g id="_259530520">
   <polygon id="_259530568" class="fil0 str0" points="0.482656,0.0021874 0.482656,0.482656 0.0021874,0.482656 0.0021874,0.0021874 "/>
   <polygon id="_259530640" class="fil0 str0" points="0.0021874,0.482651 0.482656,0.482651 0.482656,0.0021874 0.0021874,0.0021874 "/>
   <path id="_259530712" class="fil0 str0" d="M0.304239 0.304234c-0.0086722,0.0779879 0.0241852,0.136191 0.0825175,0.178417 0.00711936,0 0.0958998,0 0.0958998,5.15895e-006 5.15895e-006,-0.0318411 -5.15895e-006,-0.0640587 0,-0.0958998 -0.0422312,-0.0583323 -0.100435,-0.0911897 -0.178417,-0.0825175l0 -5.15895e-006z"/>
   <polygon id="_259530784" class="fil0 str0" points="0.359584,0.428627 0.41949,0.419485 0.428627,0.359584 0.482656,0.482656 "/>
   <polygon id="_259530856" class="fil0 str0" points="0.343065,0.400995 0.306788,0.306782 0.400995,0.343065 0.393437,0.393432 "/>
   <polygon id="_259530928" class="fil0 str0" points="0.107889,0.139122 0.057445,0.139122 0.0021874,0.194374 0.0021874,0.0021874 0.194374,0.0021874 0.139122,0.0574398 0.139122,0.107889 0.107889,0.107889 "/>
   <polygon id="_259531000" class="fil0 str0" points="0.0430257,0.107889 0.0021874,0.148727 0.0021874,0.107889 "/>
   <polygon id="_259531072" class="fil0 str0" points="0.107889,0.0430257 0.148733,0.0021874 0.107889,0.0021874 "/>
   <polygon id="_259531144" class="fil0 str0" points="0.0766621,0.0766621 0.0766621,0.107889 0.0430308,0.107889 0.0430308,0.0766621 "/>
   <polygon id="_259531216" class="fil0 str0" points="0.0766621,0.0766569 0.107889,0.0766569 0.107889,0.0430257 0.0766621,0.0430257 "/>
   <polygon id="_259531288" class="fil0 str0" points="0.107889,0.0021874 0.107889,0.0430257 0.0766621,0.0430257 0.0766621,0.0766569 0.0430257,0.0766569 0.0430257,0.107889 0.0021874,0.107889 0.0021874,0.0021874 "/>
   <polygon id="_259531360" class="fil0 str0" points="0.0358238,0.0358186 0.0358238,0.0021874 0.0021874,0.0021874 0.0021874,0.0358186 "/>
   <polygon id="_259531432" class="fil0 str0" points="0.0358238,0.0358186 0.0021874,0.0358186 0.0021874,0.0021874 0.0358238,0.0021874 "/>
  </g>
 </g>
</svg>
