<?xml version="1.0" encoding="UTF-8"?>
<!DOCTYPE svg PUBLIC "-//W3C//DTD SVG 1.1//EN" "http://www.w3.org/Graphics/SVG/1.1/DTD/svg11.dtd">
<!-- Creator: CorelDRAW -->
<svg xmlns="http://www.w3.org/2000/svg" xml:space="preserve" width="110px" height="110px" style="shape-rendering:geometricPrecision; text-rendering:geometricPrecision; image-rendering:optimizeQuality; fill-rule:evenodd; clip-rule:evenodd"
viewBox="0 0 0.48626 0.48626"
 xmlns:xlink="http://www.w3.org/1999/xlink">
 <defs>
  <style type="text/css">
   <![CDATA[
    .str0 {stroke:#4C4C4C;stroke-width:0.00438249}
    .fil0 {fill:none}
   ]]>
  </style>
 </defs>
 <g id="Plan_x0020_1">
  <metadata id="CorelCorpID_0Corel-Layer"/>
  <g id="_113192696">
   <rect id="_113192912" class="fil0 str0" transform="matrix(1.24363E-014 -0.465665 0.465665 1.24363E-014 0.00220454 0.484066)" width="1.03478" height="1.03479"/>
   <path id="_113192864" class="fil0 str0" d="M0.484051 0.484072l2.06965e-005 -0.062695c-0.0508773,-0.00205931 -0.131822,-0.0784968 -0.0543284,-0.0799715 -0.00593474,-0.0118436 -0.024246,-0.0346771 -0.0617223,-0.00617275 -0.0218452,-0.0208259 -0.0390751,-0.0226472 -0.0483989,-0.0156259 -0.0070213,0.0093238 -0.00523105,0.0265692 0.0155949,0.0484144 -0.0285043,0.0374763 -0.00567085,0.0557876 0.00617275,0.0617223 0.00147463,-0.0774931 0.0779277,0.00345115 0.079987,0.0543233l0.0626743 5.17414e-006z"/>
   <path id="_113192816" class="fil0 str0" d="M0.484072 0.00220418l-0.062695 -2.06965e-005c-0.00205931,0.0508773 -0.0784968,0.131822 -0.0799715,0.0543284 -0.0118436,0.00593474 -0.0346771,0.024246 -0.00617275,0.0617223 -0.0208259,0.0218452 -0.0226472,0.0390751 -0.0156259,0.0483989 0.0093238,0.0070213 0.0265692,0.00523105 0.0484144,-0.0155949 0.0374763,0.0285043 0.0557876,0.00567085 0.0617223,-0.00617275 -0.0774931,-0.00147463 0.00345115,-0.0779277 0.0543233,-0.079987l5.17414e-006 -0.0626743z"/>
   <path id="_113192768" class="fil0 str0" d="M0.00220418 0.00218349l-2.06965e-005 0.062695c0.0508773,0.00205931 0.131822,0.0784968 0.0543284,0.0799715 0.00593474,0.0118436 0.024246,0.0346771 0.0617223,0.00617275 0.0218452,0.0208259 0.0390751,0.0226472 0.0483989,0.0156259 0.0070213,-0.0093238 0.00523105,-0.0265692 -0.0155949,-0.0484144 0.0285043,-0.0374763 0.00567085,-0.0557876 -0.00617275,-0.0617223 -0.00147463,0.0774931 -0.0779277,-0.00345115 -0.079987,-0.0543233l-0.0626743 -5.17414e-006z"/>
   <path id="_113192720" class="fil0 str0" d="M0.00218349 0.484051l0.062695 2.06965e-005c0.00205931,-0.0508773 0.0784968,-0.131822 0.0799715,-0.0543284 0.0118436,-0.00593474 0.0346771,-0.024246 0.00617275,-0.0617223 0.0208259,-0.0218452 0.0226472,-0.0390751 0.0156259,-0.0483989 -0.0093238,-0.0070213 -0.0265692,-0.00523105 -0.0484144,0.0155949 -0.0374763,-0.0285043 -0.0557876,-0.00567085 -0.0617223,0.00617275 0.0774931,0.00147463 -0.00345115,0.0779277 -0.0543233,0.079987l-5.17414e-006 0.0626743z"/>
  </g>
  <line class="fil0 str0" x1="0.0648785" y1="0.00218866" x2="0.421377" y2= "0.00218349" />
  <line class="fil0 str0" x1="0.484066" y1="0.0648785" x2="0.484072" y2= "0.421377" />
  <line class="fil0 str0" x1="0.421377" y1="0.484066" x2="0.0648785" y2= "0.484072" />
  <line class="fil0 str0" x1="0.00218866" y1="0.421377" x2="0.00218349" y2= "0.0648785" />
 </g>
</svg>
