<?xml version="1.0" encoding="UTF-8"?>
<!DOCTYPE svg PUBLIC "-//W3C//DTD SVG 1.1//EN" "http://www.w3.org/Graphics/SVG/1.1/DTD/svg11.dtd">
<!-- Creator: CorelDRAW -->
<svg xmlns="http://www.w3.org/2000/svg" xml:space="preserve" width="110px" height="110px" style="shape-rendering:geometricPrecision; text-rendering:geometricPrecision; image-rendering:optimizeQuality; fill-rule:evenodd; clip-rule:evenodd"
viewBox="0 0 0.353551 0.353551"
 xmlns:xlink="http://www.w3.org/1999/xlink">
 <defs>
  <style type="text/css">
   <![CDATA[
    .str0 {stroke:#4C4C4C;stroke-width:0.00318633}
    .fil0 {fill:none}
    .fil1 {fill:white}
   ]]>
  </style>
 </defs>
 <g id="Plan_x0020_1">
  <metadata id="CorelCorpID_0Corel-Layer"/>
  <g id="_202299944">
   <rect id="_202299800" class="fil0 str0" x="0.00159692" y="0.00159692" width="0.350357" height="0.350357"/>
   <path id="_202299728" class="fil1 str0" d="M0.351956 0.00176057c-0.0354672,-5.26666e-005 -0.023068,-0.000109095 -0.0585352,-0.000165524 -0.00870128,0.00396128 -0.0517036,0.0114663 -0.0426637,0.025675 0.00569552,0.00894956 0.028914,0.000180571 0.0524672,-0.00432995 -0.0203782,0.0159279 -0.0589941,0.0329919 -0.0428556,0.0532309 0.0119252,0.0149536 0.0346885,-0.0174853 0.0577602,-0.0292525 0.00317504,0.0225676 -0.0180458,0.0441045 0.00411552,0.0491154 0.00714009,0.00161386 0.0214052,-0.00732818 0.0293917,-0.0361142l0.000319762 -0.058159z"/>
   <path id="_202299656" class="fil1 str0" d="M0.00176057 0.00159505c-5.26666e-005,0.0354672 -0.000109095,0.023068 -0.000165524,0.0585352 0.00396128,0.00870128 0.0114663,0.0517036 0.025675,0.0426637 0.00894956,-0.00569552 0.000180571,-0.028914 -0.00432995,-0.0524672 0.0159279,0.0203782 0.0329919,0.0589941 0.0532309,0.0428556 0.0149536,-0.0119252 -0.0174853,-0.0346885 -0.0292525,-0.0577602 0.0225676,-0.00317504 0.0441045,0.0180458 0.0491154,-0.00411552 0.00161386,-0.00714009 -0.00732818,-0.0214052 -0.0361142,-0.0293917l-0.058159 -0.000319762z"/>
   <path id="_202299584" class="fil1 str0" d="M0.00159505 0.35179c0.0354672,5.26666e-005 0.023068,0.000109095 0.0585352,0.000165524 0.00870128,-0.00396128 0.0517036,-0.0114663 0.0426637,-0.025675 -0.00569552,-0.00894956 -0.028914,-0.000180571 -0.0524672,0.00432995 0.0203782,-0.0159279 0.0589941,-0.0329919 0.0428556,-0.0532309 -0.0119252,-0.0149536 -0.0346885,0.0174853 -0.0577602,0.0292525 -0.00317504,-0.0225676 0.0180458,-0.0441045 -0.00411552,-0.0491154 -0.00714009,-0.00161386 -0.0214052,0.00732818 -0.0293917,0.0361142l-0.000319762 0.058159z"/>
   <path id="_202299512" class="fil1 str0" d="M0.35179 0.351956c5.26666e-005,-0.0354672 0.000109095,-0.023068 0.000165524,-0.0585352 -0.00396128,-0.00870128 -0.0114663,-0.0517036 -0.025675,-0.0426637 -0.00894956,0.00569552 -0.000180571,0.028914 0.00432995,0.0524672 -0.0159279,-0.0203782 -0.0329919,-0.0589941 -0.0532309,-0.0428556 -0.0149536,0.0119252 0.0174853,0.0346885 0.0292525,0.0577602 -0.0225676,0.00317504 -0.0441045,-0.0180458 -0.0491154,0.00411552 -0.00161386,0.00714009 0.00732818,0.0214052 0.0361142,0.0293917l0.058159 0.000319762z"/>
   <path id="_202299440" class="fil1 str0" d="M0.156732 0.165674c-0.0971925,-0.0510114 0.031995,-0.0893602 0.0231432,-0.0200998 0.0216008,-0.0791053 0.10946,-0.0173612 0.0269427,0.0190578 0.102865,0.0192346 0.0250994,0.100183 -0.0179631,0.0339587 0.022293,0.0967636 -0.0839882,0.0487241 -0.0254116,-0.00880661 -0.0842703,0.0520986 -0.0880849,-0.0588023 -0.00671123,-0.02411z"/>
   <path id="_202299368" class="fil1 str0" d="M0.155701 0.161137c-0.00297566,0.0174816 0.0114437,0.0370284 0.0290833,0.038236 0.0138325,0.000944237 0.0282368,-0.0327135 0.0202879,-0.0441083 -0.00732818,-0.0104995 -0.0456356,-0.0160934 -0.0493712,0.00587233z"/>
  </g>
 </g>
</svg>
