<?xml version="1.0" encoding="UTF-8"?>
<!DOCTYPE svg PUBLIC "-//W3C//DTD SVG 1.1//EN" "http://www.w3.org/Graphics/SVG/1.1/DTD/svg11.dtd">
<!-- Creator: CorelDRAW -->
<svg xmlns="http://www.w3.org/2000/svg" xml:space="preserve" width="110px" height="110px" style="shape-rendering:geometricPrecision; text-rendering:geometricPrecision; image-rendering:optimizeQuality; fill-rule:evenodd; clip-rule:evenodd"
viewBox="0 0 0.500636 0.500646"
 xmlns:xlink="http://www.w3.org/1999/xlink">
 <defs>
  <style type="text/css">
   <![CDATA[
    .str0 {stroke:#4C4C4C;stroke-width:0.00451201}
    .fil1 {fill:none}
    .fil0 {fill:white}
   ]]>
  </style>
 </defs>
 <g id="Plan_x0020_1">
  <metadata id="CorelCorpID_0Corel-Layer"/>
  <g id="_112256696">
   <rect id="_112256816" class="fil0 str0" transform="matrix(-7.39335E-015 0.0930524 0.0930524 7.39335E-015 0.00225612 0.00226132)" width="5.33166" height="5.33166"/>
   <polygon id="_112256768" class="fil0 str0" points="0.0745147,0.251042 0.160999,0.301798 0.144656,0.404855 0.236159,0.365094 0.302262,0.442843 0.329877,0.342508 0.428651,0.336403 0.371588,0.251042 0.428651,0.165682 0.329877,0.159577 0.302262,0.0592367 0.236159,0.13699 0.144656,0.0972292 0.160999,0.200281 "/>
   <path id="_112256720" class="fil0 str0" d="M0.253876 0.243473c2.66352e-005,0.00536966 5.32705e-005,0.0107447 7.45786e-005,0.0161196 -0.00568396,0.000926906 -0.00722347,0.00655759 -0.000761768,0.00883757 0.0138343,0.00263156 0.0341091,-0.0245737 0.00246642,-0.0338001 -0.0240996,-0.000942887 -0.0417534,0.0218622 -0.0280682,0.0455942 0.0124813,0.0221179 0.0681702,0.017787 0.0709296,-0.0284411 0.00483163,-0.0217716 -0.0266192,-0.0506336 -0.0524927,-0.0438416 -0.0184103,0.00483163 -0.0352118,0.0217397 -0.0453012,0.0324737 -0.0039793,-0.00186979 -0.00792132,-0.00339866 -0.0119379,-0.00391538 -0.0101747,-0.00130513 0.0335391,-0.0429573 0.0651604,-0.0430212 0.0341251,0.00191241 0.0595031,0.0224695 0.0608455,0.0582246 -0.00160877,0.042057 -0.0406347,0.0653202 -0.0754949,0.0557848 -0.0139569,-0.00378753 -0.0387223,-0.0224002 -0.0309821,-0.0560512 0.00860318,-0.0205358 0.024595,-0.034466 0.0523436,-0.0323458 0.0260812,0.00713824 0.0346791,0.0303748 0.0219261,0.0508573 -0.0157734,0.0191347 -0.0360694,0.0178296 -0.0456102,0.00654161 -0.0098284,-0.0143937 -0.000516723,-0.0318184 0.0169027,-0.033017z"/>
  </g>
  <polygon class="fil1 str0" points="0.00225867,0.00225867 0.498377,0.00225867 0.498377,0.498388 0.00225867,0.498388 "/>
 </g>
</svg>
