<?xml version="1.0" encoding="UTF-8"?>
<!DOCTYPE svg PUBLIC "-//W3C//DTD SVG 1.1//EN" "http://www.w3.org/Graphics/SVG/1.1/DTD/svg11.dtd">
<!-- Creator: CorelDRAW -->
<svg xmlns="http://www.w3.org/2000/svg" xml:space="preserve" width="110px" height="110px" style="shape-rendering:geometricPrecision; text-rendering:geometricPrecision; image-rendering:optimizeQuality; fill-rule:evenodd; clip-rule:evenodd"
viewBox="0 0 0.735814 0.735814"
 xmlns:xlink="http://www.w3.org/1999/xlink">
 <defs>
  <style type="text/css">
   <![CDATA[
    .str0 {stroke:#4C4C4C;stroke-width:0.00663142}
    .fil0 {fill:white}
   ]]>
  </style>
 </defs>
 <g id="Capa_x0020_1">
  <metadata id="CorelCorpID_0Corel-Layer"/>
  <g id="_206582096">
   <polygon id="_206582528" class="fil0 str0" points="0.00331963,0.732487 0.00331963,0.00331963 0.732494,0.00331963 0.732494,0.732487 "/>
   <path id="_206582480" class="fil0 str0" d="M0.00331963 0.440696l0 -0.145594c0.0768447,0 0.173247,0.0250303 0.230518,0.0727969 -0.0572714,0.0477744 -0.153674,0.0727969 -0.230518,0.0727969z"/>
   <path id="_206582432" class="fil0 str0" d="M0.440688 0.732494l-0.145586 0c0,-0.0768368 0.0250225,-0.173239 0.0727891,-0.23051 0.0477744,0.0572714 0.0727969,0.153674 0.0727969,0.23051z"/>
   <path id="_206582384" class="fil0 str0" d="M0.732487 0.295126l0 0.145594c-0.0768368,0 -0.173239,-0.0250303 -0.23051,-0.0727969 0.0572714,-0.0477744 0.153674,-0.0727969 0.23051,-0.0727969z"/>
   <path id="_206582336" class="fil0 str0" d="M0.295118 0.00332746l0.145594 0c0,0.0768368 -0.0250303,0.173239 -0.0727969,0.23051 -0.0477666,-0.0572714 -0.0727969,-0.153674 -0.0727969,-0.23051z"/>
   <path id="_206582288" class="fil0 str0" d="M0.497239 0.135619c0.0543354,-0.0543354 0.143981,-0.104897 0.214476,-0.111521 -0.00663142,0.0704873 -0.0571931,0.160141 -0.111528,0.214468 -0.0543276,0.0543354 -0.140192,0.104803 -0.214468,0.111521 0.00671755,-0.0742766 0.0571931,-0.160133 0.111521,-0.214468z"/>
   <path id="_206582240" class="fil0 str0" d="M0.135619 0.238567c-0.0543276,-0.0543354 -0.104889,-0.143981 -0.111521,-0.214468 0.0704951,0.00662359 0.160141,0.0571853 0.214476,0.111521 0.0543276,0.0543276 0.104803,0.140192 0.111521,0.214468 -0.0742766,-0.00671755 -0.160141,-0.0571853 -0.214476,-0.111521z"/>
   <path id="_206582192" class="fil0 str0" d="M0.238575 0.600187c-0.0543354,0.0543276 -0.143981,0.104897 -0.214476,0.111521 0.00662359,-0.0704951 0.0571931,-0.160141 0.111521,-0.214476 0.0543354,-0.0543276 0.140199,-0.104795 0.214476,-0.111521 -0.00672538,0.0742766 -0.0571931,0.160141 -0.111521,0.214476z"/>
   <path id="_206582144" class="fil0 str0" d="M0.600187 0.497239c0.0543354,0.0543276 0.104897,0.143981 0.111521,0.214468 -0.0704873,-0.00662359 -0.160133,-0.0571931 -0.214468,-0.111521 -0.0543354,-0.0543354 -0.104803,-0.140199 -0.111521,-0.214468 0.0742766,0.00671755 0.160141,0.0571853 0.214468,0.111521z"/>
  </g>
 </g>
</svg>
