<?xml version="1.0" encoding="UTF-8"?>
<!DOCTYPE svg PUBLIC "-//W3C//DTD SVG 1.1//EN" "http://www.w3.org/Graphics/SVG/1.1/DTD/svg11.dtd">
<!-- Creator: CorelDRAW -->
<svg xmlns="http://www.w3.org/2000/svg" xml:space="preserve" width="110px" height="110px" style="shape-rendering:geometricPrecision; text-rendering:geometricPrecision; image-rendering:optimizeQuality; fill-rule:evenodd; clip-rule:evenodd"
viewBox="0 0 0.270653 0.27065"
 xmlns:xlink="http://www.w3.org/1999/xlink">
 <defs>
  <style type="text/css">
   <![CDATA[
    .str0 {stroke:#4C4C4C;stroke-width:0.00243927}
    .fil0 {fill:none}
   ]]>
  </style>
 </defs>
 <g id="Plan_x0020_1">
  <metadata id="CorelCorpID_0Corel-Layer"/>
  <g id="_209916120">
   <polygon id="_197314760" class="fil0 str0" points="0.269432,0.00124412 0.0012614,0.00124412 0.0012614,0.269357 0.269432,0.269357 "/>
   <polygon id="_197314832" class="fil0 str0" points="0.0012614,0.00124412 0.0953765,0.00124412 0.17851,0.0913763 0.0919983,0.178692 0.00130459,0.0953045 "/>
   <polygon id="_197314904" class="fil0 str0" points="0.269432,0.0193443 0.225323,0.0638934 0.241765,0.0833702 0.269432,0.0527165 "/>
   <polygon id="_197314976" class="fil0 str0" points="0.112711,0.00124412 0.147327,0.00143419 0.269432,0.130157 0.269432,0.165698 "/>
   <polygon id="_197315048" class="fil0 str0" points="0.269432,0.110171 0.250488,0.0912352 0.269432,0.072297 "/>
   <polygon id="_197315120" class="fil0 str0" points="0.0193558,0.269429 0.18929,0.102294 0.206382,0.12167 0.053209,0.26936 "/>
   <polygon id="_197315192" class="fil0 str0" points="0.0012182,0.112696 0.0845423,0.187859 0.0668828,0.205527 0.0012614,0.147422 "/>
   <polygon id="_197315264" class="fil0 str0" points="0.130169,0.269429 0.0996819,0.241099 0.115277,0.223878 0.165715,0.269429 "/>
   <polygon id="_197315336" class="fil0 str0" points="0.269429,0.189008 0.216321,0.131479 0.133365,0.214149 0.189022,0.269429 0.269429,0.269357 "/>
   <path id="_197315408" class="fil0 str0" d="M0.269432 0.189644l0 0.0797127 -0.0804096 7.48774e-005c0.0112345,-0.01717 0.0352442,-0.024459 0.0598788,-0.0102035 -0.00719687,-0.0131323 -0.0191628,-0.0257866 -0.0506948,-0.0148747 0.000918687,-0.00434001 0.00336948,-0.0109695 0.00826243,-0.0165335 -0.00635881,-0.00930783 -0.00846978,-0.0201017 -0.00678792,-0.0293634 0.00956414,-0.00056158 0.0191254,0.00309589 0.0278429,0.00675336 0.00581451,-0.00534797 0.0116261,-0.00778724 0.0174378,-0.00900256 -0.00679656,0.0241019 -0.00310165,0.0420177 0.0154708,0.0512046 -0.0139416,-0.0241364 -0.01031,-0.0450531 0.00899968,-0.0577679z"/>
   <polygon id="_197315480" class="fil0 str0" points="0.00122972,0.0753295 0.0750069,0.143537 0.0610999,0.0627875 0.141821,0.0751509 0.0753266,0.001247 0.0012614,0.00124412 "/>
   <polygon id="_197315552" class="fil0 str0" points="0.0012614,0.00124412 0.0012614,0.0583986 0.0548649,0.105957 0.0417182,0.0439559 0.102291,0.0533501 0.0583928,0.00121532 "/>
   <path id="_197315624" class="fil0 str0" d="M0.0365229 0.00124412c0,0.0194681 -0.0157905,0.0352557 -0.0352615,0.0352557l0 -0.0352557 0.0352615 0z"/>
   <polygon id="_197315696" class="fil0 str0" points="0.165027,0.00124412 0.268957,0.00124412 0.269017,0.00165594 0.217228,0.0534365 "/>
   <polygon id="_197315768" class="fil0 str0" points="0.0012614,0.268718 0.0012182,0.165012 0.0534624,0.217167 0.00190073,0.268718 "/>
   <polygon id="_197315840" class="fil0 str0" points="0.0723114,0.269429 0.0912467,0.250488 0.110185,0.269429 "/>
  </g>
 </g>
</svg>
