<?xml version="1.0" encoding="UTF-8"?>
<!DOCTYPE svg PUBLIC "-//W3C//DTD SVG 1.1//EN" "http://www.w3.org/Graphics/SVG/1.1/DTD/svg11.dtd">
<!-- Creator: CorelDRAW -->
<svg xmlns="http://www.w3.org/2000/svg" xml:space="preserve" width="110px" height="110px" style="shape-rendering:geometricPrecision; text-rendering:geometricPrecision; image-rendering:optimizeQuality; fill-rule:evenodd; clip-rule:evenodd"
viewBox="0 0 109.851 109.849"
 xmlns:xlink="http://www.w3.org/1999/xlink">
 <defs>
  <style type="text/css">
   <![CDATA[
    .str0 {stroke:#4C4C4C;stroke-width:0.977598}
    .fil0 {fill:none}
   ]]>
  </style>
 </defs>
 <g id="Capa_x0020_1">
  <metadata id="CorelCorpID_0Corel-Layer"/>
  <g id="_156318512">
   <rect id="_156323216" class="fil0 str0" transform="matrix(6.16713E-014 -0.465665 0.465665 6.16713E-014 1.18485 108.669)" width="230.819" height="230.819"/>
   <polygon id="_156344120" class="fil0 str0" points="28.0526,108.669 1.18189,81.7974 81.7985,1.17958 108.669,28.0514 "/>
   <polygon id="_156328376" class="fil0 str0" points="47.0528,20.1787 28.0526,1.17727 1.17958,1.17727 20.181,20.1787 "/>
   <polygon id="_156344216" class="fil0 str0" points="62.7971,89.6701 81.7985,108.67 108.672,108.67 89.6701,89.6701 "/>
   <polygon id="_156344672" class="fil0 str0" points="20.1798,47.0528 1.17843,28.0526 1.17843,1.17958 20.1798,20.181 "/>
   <polygon id="_156317168" class="fil0 str0" points="89.6713,62.796 108.672,81.7962 108.672,108.669 89.6713,89.6678 "/>
   <polygon id="_156316832" class="fil0 str0" points="1.18535,108.669 1.18535,81.7985 28.056,108.669 "/>
   <polygon id="_156317024" class="fil0 str0" points="108.669,1.18535 108.669,28.056 81.7985,1.18535 "/>
  </g>
  <line class="fil0 str0" x1="81.7985" y1="1.18535" x2="28.0526" y2= "1.17727" />
  <line class="fil0 str0" x1="81.7985" y1="108.67" x2="28.0526" y2= "108.669" />
  <line class="fil0 str0" x1="108.669" y1="27.4432" x2="108.669" y2= "80.7136" />
  <line class="fil0 str0" x1="1.17843" y1="28.0526" x2="1.18189" y2= "81.7974" />
 </g>
</svg>
