<?xml version="1.0" encoding="UTF-8"?>
<!DOCTYPE svg PUBLIC "-//W3C//DTD SVG 1.1//EN" "http://www.w3.org/Graphics/SVG/1.1/DTD/svg11.dtd">
<!-- Creator: CorelDRAW -->
<svg xmlns="http://www.w3.org/2000/svg" xml:space="preserve" width="111px" height="111px" style="shape-rendering:geometricPrecision; text-rendering:geometricPrecision; image-rendering:optimizeQuality; fill-rule:evenodd; clip-rule:evenodd"
viewBox="0 0 0.299206 0.299203"
 xmlns:xlink="http://www.w3.org/1999/xlink">
 <defs>
  <style type="text/css">
   <![CDATA[
    .str0 {stroke:#4C4C4C;stroke-width:0.00266281}
    .fil1 {fill:none}
    .fil0 {fill:white}
   ]]>
  </style>
 </defs>
 <g id="Plan_x0020_1">
  <metadata id="CorelCorpID_0Corel-Layer"/>
  <g id="_125459496">
   <rect id="_125460864" class="fil0 str0" x="0.00320889" y="0.00320684" width="0.292793" height="0.292787"/>
   <polygon id="_125460816" class="fil0 str0" points="0.107779,0.149168 0.0798969,0.176994 0.121722,0.176994 0.149605,0.149168 "/>
   <polygon id="_125460768" class="fil0 str0" points="0.191427,0.149168 0.219309,0.176994 0.177484,0.176994 0.149605,0.149168 "/>
   <polygon id="_125460720" class="fil0 str0" points="0.149595,0.190911 0.121713,0.218734 0.121713,0.176997 0.149595,0.149174 "/>
   <polygon id="_125460672" class="fil0 str0" points="0.149595,0.190911 0.177478,0.218734 0.177478,0.176997 0.149595,0.149174 "/>
   <rect id="_125460624" class="fil0 str0" transform="matrix(-0.32927 -0.329272 0.32927 -0.329272 0.107718 0.295996)" width="0.317397" height="0.127189"/>
   <rect id="_125460576" class="fil0 str0" transform="matrix(-0.32927 0.329272 -0.32927 -0.329272 0.295997 0.191488)" width="0.317397" height="0.127189"/>
   <polygon id="_125460528" class="fil0 str0" points="0.00320669,0.10772 0.00320669,0.191487 0.0450918,0.149602 "/>
   <polygon id="_125460480" class="fil0 str0" points="0.296,0.191484 0.296,0.107717 0.254115,0.149602 "/>
   <polygon id="_125460432" class="fil0 str0" points="0.107773,0.149174 0.0798906,0.121351 0.121713,0.121351 0.149595,0.149174 "/>
   <polygon id="_125460384" class="fil0 str0" points="0.191427,0.149168 0.219309,0.121345 0.177484,0.121345 0.149605,0.149168 "/>
   <polygon id="_125460336" class="fil0 str0" points="0.149595,0.107437 0.177478,0.079614 0.177478,0.121351 0.149595,0.149174 "/>
   <polygon id="_125460288" class="fil0 str0" points="0.149595,0.107437 0.121713,0.079614 0.121713,0.121351 0.149595,0.149174 "/>
   <rect id="_125460240" class="fil0 str0" transform="matrix(0.32927 0.329272 -0.32927 0.329272 0.191489 0.00320763)" width="0.317397" height="0.127189"/>
   <rect id="_125460192" class="fil0 str0" transform="matrix(0.32927 -0.329272 0.32927 0.329272 0.00321004 0.107716)" width="0.317397" height="0.127189"/>
   <polygon id="_125460144" class="fil0 str0" points="0.296,0.107717 0.191487,0.00320669 0.296,0.00320669 "/>
   <polygon id="_125460096" class="fil0 str0" points="0.107717,0.00320669 0.00320669,0.10772 0.00320669,0.00320669 "/>
   <polygon id="_125460048" class="fil0 str0" points="0.191487,0.00320669 0.10772,0.00320669 0.149605,0.0450886 "/>
   <polygon id="_125460000" class="fil0 str0" points="0.0327177,0.0327837 0.0696072,0.030319 0.0425578,0.00320984 0.00320669,0.00320984 "/>
   <polygon id="_125459952" class="fil0 str0" points="0.0327208,0.0327806 0.0302624,0.0697456 0.00320984,0.0426364 0.00320984,0.00320669 "/>
   <polygon id="_125459904" class="fil0 str0" points="0.00320669,0.191487 0.107723,0.295997 0.00320669,0.295997 "/>
   <polygon id="_125459856" class="fil0 str0" points="0.19149,0.295997 0.296,0.191484 0.296,0.295997 "/>
   <polygon id="_125459808" class="fil0 str0" points="0.107723,0.295997 0.191487,0.295997 0.149602,0.254115 "/>
   <polygon id="_125459760" class="fil0 str0" points="0.266489,0.26642 0.229599,0.268884 0.256652,0.295993 0.296,0.295993 "/>
   <polygon id="_125459712" class="fil0 str0" points="0.266486,0.266423 0.268944,0.229458 0.295997,0.256567 0.295997,0.295997 "/>
   <polygon id="_125459664" class="fil0 str0" points="0.0327837,0.266486 0.030319,0.229596 0.00320984,0.256649 0.00320984,0.295997 "/>
   <polygon id="_125459616" class="fil0 str0" points="0.0327806,0.266482 0.0697487,0.268944 0.0426396,0.295997 0.00320669,0.295997 "/>
   <polygon id="_125459568" class="fil0 str0" points="0.266423,0.0327177 0.268887,0.0696072 0.295997,0.0425547 0.295997,0.00320669 "/>
   <polygon id="_125459520" class="fil0 str0" points="0.266426,0.0327208 0.229458,0.0302592 0.256567,0.00320669 0.296,0.00320669 "/>
  </g>
  <polygon class="fil1 str0" points="0.149598,0.0450855 0.254118,0.149608 0.149598,0.254118 0.0450886,0.149608 "/>
 </g>
</svg>
