<?xml version="1.0" encoding="UTF-8"?>
<!DOCTYPE svg PUBLIC "-//W3C//DTD SVG 1.1//EN" "http://www.w3.org/Graphics/SVG/1.1/DTD/svg11.dtd">
<!-- Creator: CorelDRAW -->
<svg xmlns="http://www.w3.org/2000/svg" xml:space="preserve" width="110px" height="110px" style="shape-rendering:geometricPrecision; text-rendering:geometricPrecision; image-rendering:optimizeQuality; fill-rule:evenodd; clip-rule:evenodd"
viewBox="0 0 0.541638 0.541632"
 xmlns:xlink="http://www.w3.org/1999/xlink">
 <defs>
  <style type="text/css">
   <![CDATA[
    .str0 {stroke:#605D5C;stroke-width:0.00488149}
    .fil0 {fill:none}
   ]]>
  </style>
 </defs>
 <g id="Plan_x0020_1">
  <metadata id="CorelCorpID_0Corel-Layer"/>
  <g id="_259529296">
   <polygon id="_259529344" class="fil0 str0" points="0.539195,0.00244363 0.00244363,0.00244363 0.00244363,0.539189 0.539195,0.539189 "/>
   <path id="_259529416" class="fil0 str0" d="M0.382998 0.379633c0.0153073,0.00923276 0.0402104,0.0214278 0.066658,0.013999 -0.00401124,0.014241 -0.00852964,0.0285513 -0.00459333,0.0416627 0.00598228,0.00694474 0.00867949,0.0103278 0.0146675,0.0172725 0.0266263,-0.00575751 0.019428,0.00516389 0.0196758,0.0180909 0.00598228,0.00583243 0.0156185,0.0163043 0.0216007,0.0221367 0.01378,0.00625315 0.0232894,0.00125063 0.0381817,-0.0091636l5.76327e-006 0.055558 -0.0555234 5.76327e-006c0.0104373,-0.0148635 0.0123737,-0.0299056 0.00610907,-0.0436568 -0.00584396,-0.00597075 -0.0116879,-0.0119473 -0.0175319,-0.017918 -0.0129558,-0.000247821 -0.0249723,0.00657013 -0.019209,-0.0200043 -0.00695627,-0.00597075 -0.0139125,-0.0119415 -0.0208746,-0.0179123 -0.0131345,-0.00393055 -0.0274793,0.000576327 -0.0417549,0.0045818 0.00745191,-0.02639 0.00185001,-0.049374 -0.00741157,-0.0646524z"/>
   <path id="_259529488" class="fil0 str0" d="M0.539195 0.00244363l-0.0553562 0c0.0104373,0.0148577 0.0122873,0.0291622 0.00602262,0.0429191 -0.0058382,0.00597075 -0.0116879,0.0119415 -0.0175319,0.0179123 -0.0129558,0.000242057 -0.024978,-0.00657589 -0.019209,0.0199986 -0.00696203,0.00597651 -0.0139125,0.0119473 -0.0208746,0.017918 -0.0131345,0.00393055 -0.0274851,-0.000576327 -0.0417549,-0.0045818 0.00745191,0.02639 0.00691593,0.0333348 -0.00234565,0.0486074 -0.00416685,0.00472588 -0.00711764,0.0088351 -0.0112903,0.013561 -0.0129328,-0.00224191 -0.024442,-0.0051466 -0.0201023,0.0189439 -0.00478352,0.00476623 -0.00956127,0.00953822 -0.014339,0.0143102 -0.0183387,0.00895036 -0.0366832,0.0103508 -0.0550335,0.00659318 0.0104431,0.0148577 0.0119703,0.0288855 0.00570564,0.0426425 -0.00584396,0.00597075 -0.0116937,0.0119415 -0.0175319,0.0179123 -0.0129558,0.000247821 -0.024978,-0.00657013 -0.019209,0.0199986 -0.00696203,0.00597651 -0.0139183,0.0119473 -0.0208746,0.017918 -0.0131345,0.00393055 -0.0274851,-0.000570564 -0.0417607,-0.0045818 0.00745191,0.0263843 0.00691593,0.0333348 -0.00233989,0.0486074 -0.00416685,0.00472588 -0.00711764,0.0088351 -0.0112903,0.013561 -0.0129385,-0.00223615 -0.024442,-0.0051466 -0.0201023,0.0189439 -0.00478352,0.00477199 -0.00925005,0.00923276 -0.0140336,0.0140048 -0.0174397,0.00788992 -0.0360723,0.0105756 -0.0553389,0.00681795 0.0104373,0.0148577 0.0119646,0.0288855 0.00569988,0.0426367 -0.0058382,0.00597075 -0.0116879,0.0119473 -0.0175319,0.017918 -0.0129558,0.000242057 -0.024978,-0.00657589 -0.019209,0.0199986 -0.00696203,0.00597651 -0.0139125,0.0119473 -0.0208746,0.017918 -0.0131172,-0.000328507 -0.022471,0.000576327 -0.0362452,-0.00909445l0 0.055362 0.0553678 0c-0.00840285,-0.0111116 -0.0133881,-0.023324 -0.0108407,-0.038003 0.00598228,-0.00694474 0.0119703,-0.0138895 0.0179526,-0.0208342 0.0266263,0.00575175 0.0197968,-0.00623586 0.0200447,-0.0191686 0.00598228,-0.00583243 0.0119646,-0.0116649 0.0179526,-0.0174973 0.0137742,-0.00625315 0.0278366,-0.00472588 0.0427231,0.00569411 -0.00172322,-0.01865 -0.000714646,-0.0367293 0.00674879,-0.0553851 0.00463943,-0.00472012 0.00912902,-0.00918666 0.0137685,-0.0139125 0.0227246,0.00446077 0.0233585,-0.00629349 0.0194049,-0.020206 0.00459333,-0.00392479 0.00782076,-0.00618976 0.0124141,-0.0101203 0.0153073,-0.00923853 0.0239176,-0.0101607 0.0503595,-0.00272603 -0.004017,-0.0142468 -0.00852388,-0.0285628 -0.00459333,-0.0416685 0.00598228,-0.00694474 0.0119703,-0.0138895 0.0179526,-0.0208342 0.0266263,0.00575175 0.0197968,-0.00623586 0.0200447,-0.0191686 0.00598228,-0.00583243 0.0119703,-0.0116591 0.0179526,-0.0174973 0.01378,-0.00624739 0.0278366,-0.00472588 0.0427289,0.00569411 -0.00281824,-0.0161141 -0.00202291,-0.0339918 0.00669116,-0.0557481 0.00463943,-0.00471436 0.00918089,-0.00891002 0.0138261,-0.0136301 0.0227246,0.00446077 0.0233528,-0.00629349 0.0193992,-0.020206 0.00459333,-0.00392479 0.00782076,-0.00618976 0.0124141,-0.0101203 0.015313,-0.00923853 0.0239176,-0.0101664 0.0503595,-0.00272603 -0.00401124,-0.0142468 -0.00852388,-0.0285628 -0.00458757,-0.0416685 0.00598228,-0.00694474 0.0119703,-0.0138895 0.0179526,-0.0208342 0.0266263,0.00575175 0.0197968,-0.00623586 0.0200447,-0.0191686 0.00598228,-0.00583243 0.0119646,-0.0116649 0.0179526,-0.0174973 0.0137742,-0.00624739 0.0278136,-0.00457604 0.0427116,0.0058382l5.76327e-006 -0.0553505z"/>
  </g>
 </g>
</svg>
