<?xml version="1.0" encoding="UTF-8"?>
<!DOCTYPE svg PUBLIC "-//W3C//DTD SVG 1.1//EN" "http://www.w3.org/Graphics/SVG/1.1/DTD/svg11.dtd">
<!-- Creator: CorelDRAW -->
<svg xmlns="http://www.w3.org/2000/svg" xml:space="preserve" width="110px" height="110px" style="shape-rendering:geometricPrecision; text-rendering:geometricPrecision; image-rendering:optimizeQuality; fill-rule:evenodd; clip-rule:evenodd"
viewBox="0 0 0.333467 0.333445"
 xmlns:xlink="http://www.w3.org/1999/xlink">
 <defs>
  <style type="text/css">
   <![CDATA[
    .str0 {stroke:#4C4C4C;stroke-width:0.00300532}
    .fil0 {fill:none}
   ]]>
  </style>
 </defs>
 <g id="Plan_x0020_1">
  <metadata id="CorelCorpID_0Corel-Layer"/>
  <g id="_259518712">
   <polygon id="_259518568" class="fil0 str0" points="0.00154701,0.33192 0.00154701,0.00150444 0.331962,0.00150444 0.331962,0.33192 "/>
   <path id="_259518496" class="fil0 str0" d="M0.2979 0.0174465c-0.0175423,0.0294536 -0.0718013,0.0828043 -0.0879776,0.0174465 -0.00783797,0.00664223 -0.0173791,0.0371993 -0.00241987,0.0518072 0.00740864,0.00595742 0.00851213,0.010641 0,0.0152608 -0.0243158,0.00903371 -0.0278959,0.0261644 -0.0220946,0.0469817 0.0209095,0.00577647 0.0381147,0.00218214 0.0471875,-0.0220272 0.00463749,-0.0084731 0.00934241,-0.0073767 0.0153247,0 0.0146753,0.0148989 0.0453602,0.00539681 0.0520272,-0.00240923 -0.0656381,-0.0161053 -0.0112513,-0.0704566 0.01833,-0.0879243 -0.00700769,-0.00261502 -0.0165027,-0.010013 -0.0203773,-0.0191354z"/>
   <path id="_259518424" class="fil0 str0" d="M0.0356097 0.315999c0.0175423,-0.0294536 0.0718049,-0.0828043 0.0879776,-0.0174465 0.00783797,-0.00664223 0.0173791,-0.0371993 0.00241987,-0.0518072 -0.00740864,-0.00595742 -0.00851213,-0.010641 0,-0.0152608 0.0243158,-0.00903016 0.0278995,-0.0261644 0.0220946,-0.0469817 -0.020906,-0.00577647 -0.0381147,-0.00218214 -0.0471839,0.0220272 -0.00463749,0.0084731 -0.00934595,0.0073767 -0.0153247,0 -0.0146753,-0.0148953 -0.0453602,-0.00539681 -0.0520308,0.00240923 0.0656381,0.0161053 0.0112513,0.0704566 -0.01833,0.0879243 0.00701124,0.00261502 0.0165027,0.010013 0.0203773,0.0191354z"/>
   <path id="_259518352" class="fil0 str0" d="M0.00150798 0.101141l3.90302e-005 -0.0187664c0.00740509,-0.0106907 0.0392218,-0.0146008 0.0721562,-0.00970432 -0.00476523,-0.0333389 -0.00284565,-0.0553945 0.00965465,-0.0711698l0.0169568 7.0964e-006c-0.0134548,0.0116736 -0.0159953,0.0378912 -0.0103962,0.0876476 -0.0451224,-0.00485748 -0.0803844,-0.0041372 -0.0884104,0.0119858z"/>
   <path id="_259518280" class="fil0 str0" d="M0.331941 0.233117l2.12892e-005 0.0169817c-0.00740509,0.0106907 -0.0392821,0.015573 -0.0722165,0.0106765 0.00476523,0.0333389 0.00284565,0.0553945 -0.00965465,0.0711698l-0.0169533 -7.0964e-006c0.0134548,-0.0116736 0.0159953,-0.0378912 0.0103962,-0.0876476 0.0451189,0.00485748 0.0803809,0.00494974 0.0884069,-0.0111733z"/>
   <path id="_259518208" class="fil0 str0" d="M0.00155056 0.0661455l-3.5482e-006 -0.0395269c0.0107191,-2.48374e-005 0.0241739,-0.00769959 0.0251141,-0.0251106l0.0388634 0c-0.0101585,0.00995624 -0.0167936,0.0248587 -0.0145902,0.0487984 -0.0206647,-0.000695447 -0.0390231,0.00354465 -0.0493838,0.0158392z"/>
   <path id="_259518136" class="fil0 str0" d="M0.331962 0.267935l-6.03194e-005 0.0388953c-0.0107191,2.12892e-005 -0.0241703,0.00769604 -0.0251106,0.025107l-0.038867 0c0.0101585,-0.00995624 0.0167936,-0.0248587 0.0145937,-0.0487984 0.0206647,0.000695447 0.0390834,-0.00290952 0.0494441,-0.015204z"/>
   <path id="_259518064" class="fil0 str0" d="M0.00154701 0.082375l7.0964e-006 -0.0162295c0.00759314,-0.0103288 0.025689,-0.016602 0.0493838,-0.0158392 -0.00175281,-0.01723 0.00112833,-0.0358936 0.0145866,-0.0487984l0.0178297 -7.0964e-006c-0.0117091,0.0155659 -0.0144163,0.0333353 -0.0096511,0.0711662 -0.0415991,-0.00524069 -0.0659433,0.000780604 -0.0721562,0.00970787z"/>
   <path id="_259517992" class="fil0 str0" d="M0.331962 0.250102l-1.41928e-005 0.017851c-0.00890598,0.0108646 -0.0257422,0.0159492 -0.0494335,0.0151863 0.00175281,0.01723 -0.00113188,0.0358936 -0.0145866,0.0487984l-0.0178332 7.0964e-006c0.0117091,-0.0155659 0.0144163,-0.0333353 0.0096511,-0.0711662 0.0416026,0.00524069 0.0660391,-0.00215376 0.0722165,-0.0106765z"/>
   <path id="_259517920" class="fil0 str0" d="M0.331962 0.0391473c-0.0207818,0 -0.0376393,-0.0168575 -0.0376393,-0.0376393l0.0376393 0 0 0.0376393z"/>
   <path id="_259517848" class="fil0 str0" d="M0.00154701 0.294298c0.0207853,0 0.0376393,0.0168575 0.0376393,0.0376393l-0.0376393 0 0 -0.0376393z"/>
   <path id="_259517776" class="fil0 str0" d="M0.0266576 0.00150798c0,0.0138664 -0.0112442,0.025107 -0.0251106,0.025107l0 -0.025107 0.0251106 0z"/>
   <path id="_259517704" class="fil0 str0" d="M0.306795 0.331937c0,-0.0138664 0.0112407,-0.025107 0.0251106,-0.025107l-3.5482e-006 0.025107 -0.025107 0z"/>
  </g>
 </g>
</svg>
