<?xml version="1.0" encoding="UTF-8"?>
<!DOCTYPE svg PUBLIC "-//W3C//DTD SVG 1.1//EN" "http://www.w3.org/Graphics/SVG/1.1/DTD/svg11.dtd">
<!-- Creator: CorelDRAW -->
<svg xmlns="http://www.w3.org/2000/svg" xml:space="preserve" width="110px" height="110px" style="shape-rendering:geometricPrecision; text-rendering:geometricPrecision; image-rendering:optimizeQuality; fill-rule:evenodd; clip-rule:evenodd"
viewBox="0 0 1.66317 1.66317"
 xmlns:xlink="http://www.w3.org/1999/xlink">
 <defs>
  <style type="text/css">
   <![CDATA[
    .str0 {stroke:#4C4C4C;stroke-width:0.0149894}
    .fil0 {fill:none}
   ]]>
  </style>
 </defs>
 <g id="Capa_x0020_1">
  <metadata id="CorelCorpID_0Corel-Layer"/>
  <g id="_202793488">
   <polygon id="_202794280" class="fil0 str0" points="0.00822911,0.00750353 1.65497,0.00750353 1.65497,1.65561 0.00822911,1.65561 "/>
   <path id="_202794232" class="fil0 str0" d="M1.52177 0.206312c-0.0344738,-0.0240502 -0.0551793,-0.0457645 -0.0701333,-0.0720445l-0.136232 0.054206 -0.0331111 0.19472 0.17651 -0.0341375c0.0197322,-0.0458353 0.0432515,-0.0969088 0.062966,-0.142744z"/>
   <path id="_202794184" class="fil0 str0" d="M0.206312 0.141399c-0.0240502,0.0344738 -0.0457645,0.0551793 -0.0720445,0.0701333l0.054206 0.136232 0.19472 0.0331111 -0.0341375 -0.17651c-0.0458353,-0.0197322 -0.0969088,-0.0432515 -0.142744,-0.062966z"/>
   <path id="_202794136" class="fil0 str0" d="M0.141399 1.45685c0.0344738,0.0240502 0.0551793,0.0457645 0.0701333,0.0720445l0.136232 -0.054206 0.0331111 -0.19472 -0.17651 0.0341375c-0.0197322,0.0458353 -0.0432515,0.0969088 -0.062966,0.142744z"/>
   <path id="_202794088" class="fil0 str0" d="M1.45685 1.52177c0.0240502,-0.0344738 0.0457645,-0.0551793 0.0720445,-0.0701333l-0.054206 -0.136232 -0.19472 -0.0331111 0.0341375 0.17651c0.0458353,0.0197322 0.0969088,0.0432515 0.142744,0.062966z"/>
   <path id="_202794040" class="fil0 str0" d="M1.42013 0.00750353l-0.288461 0 0.158371 0.113721 0.134621 -0.0577454c-0.00323855,-0.0174316 -0.00484898,-0.0371283 -0.00453044,-0.0559757z"/>
   <path id="_202793992" class="fil0 str0" d="M0.00750353 0.243033l0 0.288461 0.113721 -0.158371 -0.0577454 -0.134621c-0.0174316,0.00323855 -0.0371283,0.00484898 -0.0559757,0.00453044z"/>
   <path id="_202793944" class="fil0 str0" d="M0.243033 1.65566l0.288461 0 -0.158371 -0.113721 -0.134621 0.0577454c0.00323855,0.0174316 0.00484898,0.0371283 0.00453044,0.0559757z"/>
   <path id="_202793896" class="fil0 str0" d="M1.65566 1.42013l0 -0.288461 -0.113721 0.158371 0.0577454 0.134621c0.0174316,-0.00323855 0.0371283,-0.00484898 0.0559757,-0.00453044z"/>
   <path id="_202793848" class="fil0 str0" d="M1.65497 0.243033l-1.7697e-005 0.288497 -0.113721 -0.158371 0.0577454 -0.134621c0.0174316,0.00323855 0.037146,0.00481359 0.0559934,0.00449504z"/>
   <path id="_202793800" class="fil0 str0" d="M0.243015 0.00748584l0.288514 1.7697e-005 -0.158371 0.113721 -0.134639 -0.0577454c0.00323855,-0.0174139 0.00483128,-0.0371283 0.00449504,-0.0559934z"/>
   <path id="_202793752" class="fil0 str0" d="M0.00748584 1.42013l1.7697e-005 -0.288514 0.113721 0.158388 -0.0577454 0.134621c-0.0174139,-0.00323855 -0.0371283,-0.00483128 -0.0559934,-0.00449504z"/>
   <path id="_202793704" class="fil0 str0" d="M1.42013 1.65566l-0.288514 -1.7697e-005 0.158388 -0.113721 0.134621 0.0577454c-0.00323855,0.0174316 -0.00483128,0.037146 -0.00449504,0.0559934z"/>
   <path id="_202793656" class="fil0 str0" d="M1.65497 1.46593l0 0.189677 -0.189677 0c0,-0.104749 0.0849457,-0.189677 0.189677,-0.189677z"/>
   <path id="_202793608" class="fil0 str0" d="M1.4653 0.00750353l0.189677 0 0 0.189677c-0.104731,0 -0.189677,-0.0849457 -0.189677,-0.189677z"/>
   <path id="_202793560" class="fil0 str0" d="M0.00822911 0.19718l0 -0.189677 0.189677 0c0,0.104731 -0.0849457,0.189677 -0.189677,0.189677z"/>
   <path id="_202793512" class="fil0 str0" d="M0.197906 1.65561l-0.189677 0 0 -0.189677c0.104731,0 0.189677,0.084928 0.189677,0.189677z"/>
  </g>
 </g>
</svg>
