<?xml version="1.0" encoding="UTF-8"?>
<!DOCTYPE svg PUBLIC "-//W3C//DTD SVG 1.1//EN" "http://www.w3.org/Graphics/SVG/1.1/DTD/svg11.dtd">
<!-- Creator: CorelDRAW -->
<svg xmlns="http://www.w3.org/2000/svg" xml:space="preserve" width="110px" height="110px" style="shape-rendering:geometricPrecision; text-rendering:geometricPrecision; image-rendering:optimizeQuality; fill-rule:evenodd; clip-rule:evenodd"
viewBox="0 0 1.80546 1.80546"
 xmlns:xlink="http://www.w3.org/1999/xlink">
 <defs>
  <style type="text/css">
   <![CDATA[
    .str0 {stroke:#4C4C4C;stroke-width:0.0162715}
    .fil0 {fill:none}
   ]]>
  </style>
 </defs>
 <g id="Capa_x0020_1">
  <metadata id="CorelCorpID_0Corel-Layer"/>
  <g id="_109284816">
   <polygon id="_109285080" class="fil0 str0" points="0.00814534,1.79731 1.79731,1.79731 1.79731,0.00814534 0.00814534,0.00814534 "/>
   <polygon id="_109285032" class="fil0 str0" points="0.66811,0.651223 0.919597,0.784584 1.1711,0.634356 1.01919,0.885844 1.15422,1.13735 0.90273,1.01919 0.634356,1.1711 0.784565,0.90273 "/>
   <polygon id="_109284984" class="fil0 str0" points="0.145194,0.145194 0.191377,0.328407 0.389996,0.389996 0.328407,0.206784 "/>
   <polygon id="_109284936" class="fil0 str0" points="0.145194,1.66027 0.328407,1.61408 0.389996,1.41546 0.206784,1.47705 "/>
   <polygon id="_109284888" class="fil0 str0" points="1.66027,1.66027 1.61408,1.47705 1.41546,1.41546 1.47705,1.59868 "/>
   <polygon id="_109284840" class="fil0 str0" points="1.66027,0.145194 1.47705,0.191377 1.41546,0.389996 1.59868,0.328407 "/>
  </g>
  <polygon class="fil0 str0" points="0.00814534,0.00814534 1.79731,0.00814534 1.79731,1.79731 0.00814534,1.79731 "/>
 </g>
</svg>
