<?xml version="1.0" encoding="UTF-8"?>
<!DOCTYPE svg PUBLIC "-//W3C//DTD SVG 1.1//EN" "http://www.w3.org/Graphics/SVG/1.1/DTD/svg11.dtd">
<!-- Creator: CorelDRAW -->
<svg xmlns="http://www.w3.org/2000/svg" xml:space="preserve" width="110px" height="110px" style="shape-rendering:geometricPrecision; text-rendering:geometricPrecision; image-rendering:optimizeQuality; fill-rule:evenodd; clip-rule:evenodd"
viewBox="0 0 0.278852 0.278852"
 xmlns:xlink="http://www.w3.org/1999/xlink">
 <defs>
  <style type="text/css">
   <![CDATA[
    .str0 {stroke:#4C4C4C;stroke-width:0.00251311}
    .fil0 {fill:none}
   ]]>
  </style>
 </defs>
 <g id="Plan_x0020_1">
  <metadata id="CorelCorpID_0Corel-Layer"/>
  <g id="_209919576">
   <polygon id="_231903664" class="fil0 str0" points="0.00125804,0.00125804 0.277594,0.00125804 0.277594,0.277594 0.00125804,0.277594 "/>
   <polygon id="_231903736" class="fil0 str0" points="0.139426,0.0885228 0.124926,0.0362666 0.0777196,0.0629644 0.10442,0.0157611 0.0521612,0.00125804 0.226691,0.00125804 0.174432,0.0157611 0.201132,0.0629644 0.153926,0.0362666 "/>
   <polygon id="_231903808" class="fil0 str0" points="0.00146574,0.0016764 0.139411,0.277594 0.00126101,0.277594 0.00126101,0.00167046 "/>
   <polygon id="_231903880" class="fil0 str0" points="0.277413,0.00162002 0.139411,0.277594 0.277594,0.277594 0.277594,0.00159629 "/>
   <polygon id="_231903952" class="fil0 str0" points="0.00126101,0.190329 0.0157611,0.242585 0.0629644,0.215888 0.0362666,0.263091 0.0885228,0.277594 0.00126101,0.277594 "/>
   <polygon id="_231904024" class="fil0 str0" points="0.190329,0.277594 0.242585,0.263091 0.215888,0.215888 0.263091,0.242585 0.277594,0.190329 0.277594,0.277591 "/>
  </g>
 </g>
</svg>
