<?xml version="1.0" encoding="UTF-8"?>
<!DOCTYPE svg PUBLIC "-//W3C//DTD SVG 1.1//EN" "http://www.w3.org/Graphics/SVG/1.1/DTD/svg11.dtd">
<!-- Creator: CorelDRAW -->
<svg xmlns="http://www.w3.org/2000/svg" xml:space="preserve" width="110px" height="110px" style="shape-rendering:geometricPrecision; text-rendering:geometricPrecision; image-rendering:optimizeQuality; fill-rule:evenodd; clip-rule:evenodd"
viewBox="0 0 0.500829 0.500136"
 xmlns:xlink="http://www.w3.org/1999/xlink">
 <defs>
  <style type="text/css">
   <![CDATA[
    .str0 {stroke:#4C4C4C;stroke-width:0.00451384}
    .fil1 {fill:none}
    .fil0 {fill:none;fill-rule:nonzero}
   ]]>
  </style>
 </defs>
 <g id="Plan_x0020_1">
  <metadata id="CorelCorpID_0Corel-Layer"/>
  <g id="_111864832">
   <polygon id="_111865144" class="fil0 str0" points="0.498569,0.00225959 0.00335207,0.00225959 0.00335207,0.497482 0.498569,0.497482 "/>
   <path id="_111865096" class="fil0 str0" d="M0.0601295 0.431783c0.0438008,0.0485225 0.105167,0.081004 0.164033,0.0572677 0.0601668,-0.0242639 0.0929468,-0.0999227 0.0755576,-0.16438 -0.00776999,-0.0287404 -0.0224253,-0.0490714 -0.0398039,-0.0708679 0.000751419,-0.000117243 0.00149218,-0.000218498 0.0022436,-0.00034107 0.0605985,-0.0101521 0.132218,0.0078073 0.180591,0.0458152 0.0411788,0.0323643 0.0474247,0.0929841 0.0289909,0.140046 -0.0112286,0.0286605 -0.0379813,0.0576727 -0.0711716,0.0504517 -0.0450425,-0.00978976 -0.0483733,-0.067196 -0.0239974,-0.0979349 0.0134243,-0.0148845 0.0345919,0.00886781 0.0480375,0.0185563 0.00536652,0.00386901 -0.00256868,-0.0312612 -0.021546,-0.0454049 -0.00345333,-0.00255802 -0.0250366,0.008191 -0.0376296,0.0207253 -7.99382e-005,7.4609e-005 -0.000181193,0.000122572 -0.000250473,0.000197181 -0.00013323,0.000159876 -0.000255802,0.000314424 -0.000394362,0.000458312 -0.00163074,0.00166271 -0.00305897,0.00336273 -0.00429002,0.00505742 -0.031048,0.0398145 -0.00974713,0.0943484 0.0389086,0.104938 0.0391431,0.00850009 0.0716033,-0.01983 0.0869141,-0.0548429 0.0162754,-0.0372512 0.0138186,-0.0816435 -0.00587812,-0.116571 -0.0259639,-0.0460497 -0.0899837,-0.0670521 -0.137755,-0.0761704 -0.0278238,-0.0053079 -0.0537558,-0.00492952 -0.0805137,-0.00235018l-0.161075 0.16496c-0.00593674,0.00701857 -0.00903301,0.0152362 -0.00928349,0.0246529l-0.0316875 -0.00426337z"/>
   <path id="_111865048" class="fil0 str0" d="M0.0601295 0.431783c-0.00040502,-0.000516934 0.115809,-0.119284 0.175534,-0.176168 -0.0269765,0.00280317 -0.0537078,0.00239815 -0.0808815,-0.00350662 -0.04913,-0.0106851 -0.114157,-0.0311386 -0.138805,-0.0808388 -0.0175811,-0.0354659 -0.0186522,-0.079773 -0.00111381,-0.115905 0.016787,-0.0345706 0.0528232,-0.0623838 0.0917317,-0.0489914 0.0446854,0.0153801 0.0609715,0.0651017 0.0324602,0.10296 2.13168e-005,-1.06584e-005 4.79629e-005,-1.06584e-005 5.32921e-005,-2.13168e-005 -0.00982707,0.0151936 -0.0394308,0.0308242 -0.0435237,0.0277759 -0.018972,-0.0141331 -0.0269232,-0.0492579 -0.0215513,-0.0453996 0.0130885,0.00942738 0.0335048,0.0322044 0.046961,0.0196861 0.0226651,-0.0265288 0.0261131,-0.0717419 -0.00683738,-0.0924352 -0.0354393,-0.0222548 -0.0702443,0.00555837 -0.0847132,0.0386155 -0.019846,0.0454209 -0.0162861,0.106222 0.0223081,0.140233 0.0460604,0.0405873 0.121176,0.0601295 0.181364,0.0520664 0.00237683,-0.000319753 0.00472168,-0.000602201 0.00708785,-0.000911295 -0.0348157,-0.04136 -0.0597245,-0.0954782 -0.0379813,-0.150225 0.0411202,-0.103472 0.169901,-0.138128 0.241248,-0.0304618 3.73045e-005,5.32921e-005 5.32921e-005,6.39505e-005 1.06584e-005,0.000127901 -0.0024621,0.00409816 -0.165451,0.162951 -0.179429,0.176269 -0.000628847,0.000596872 -0.0141011,0.0137867 -0.0147299,0.0143782 -0.0468225,0.0481334 -0.0936502,0.0962722 -0.140478,0.1444 -0.00257934,0.00264862 -0.00516401,0.0053079 -0.00774335,0.00796184 -0.00638973,0.0079725 -0.0093581,0.0164779 -0.00928349,0.0246529l-0.0316875 -0.00426337z"/>
   <polygon id="_111865000" class="fil0 str0" points="0.00336273,0.453143 0.00336806,0.497482 0.0477018,0.497482 "/>
   <path id="_111864952" class="fil0 str0" d="M0.249322 0.259032c0.0459485,0.0487836 0.0610994,0.11623 0.021935,0.173466l0 0c-0.018924,0.0276586 -0.0397932,0.0491087 -0.0725466,0.0533827 -0.0251166,0.00327214 -0.0621706,-0.00773802 -0.0835887,-0.0202617 -0.0013323,-0.000762077 -0.00611794,-0.00463641 -0.00982707,-0.00764209 -0.0167444,-0.0134403 -0.0187961,-0.0283514 -0.00419409,-0.0465826 0.00257934,-0.00265395 0.00516401,-0.00531322 0.00774335,-0.00796184 0.0468278,-0.0481281 0.0936556,-0.0962669 0.140478,-0.1444z"/>
   <path id="_111864904" class="fil0 str0" d="M0.207573 0.114642l0 0c0.0072424,-0.0391484 0.042623,-0.0773109 0.0779131,-0.0918703 0.0379973,-0.0117989 0.0706547,-0.0134509 0.0946308,0.00546244 0.014213,0.0156785 0.0401769,0.038834 0.0260225,0.0565749 -0.0494284,0.0507927 -0.10732,0.106595 -0.156727,0.157409 -0.00260066,-0.00303765 -0.00519598,-0.00609662 -0.007754,-0.00921421 -0.0274241,-0.0333822 -0.0421168,-0.075062 -0.0340856,-0.118362z"/>
   <polygon id="_111864856" class="fil0 str0" points="0.498574,0.0465986 0.498569,0.00225959 0.454235,0.00225959 "/>
  </g>
  <polygon class="fil1 str0" points="0.00335207,0.00225959 0.498569,0.00225959 0.498569,0.497482 0.00335207,0.497482 "/>
 </g>
</svg>
