<?xml version="1.0" encoding="UTF-8"?>
<!DOCTYPE svg PUBLIC "-//W3C//DTD SVG 1.1//EN" "http://www.w3.org/Graphics/SVG/1.1/DTD/svg11.dtd">
<!-- Creator: CorelDRAW -->
<svg xmlns="http://www.w3.org/2000/svg" xml:space="preserve" width="110px" height="110px" style="shape-rendering:geometricPrecision; text-rendering:geometricPrecision; image-rendering:optimizeQuality; fill-rule:evenodd; clip-rule:evenodd"
viewBox="0 0 0.51232 0.512178"
 xmlns:xlink="http://www.w3.org/1999/xlink">
 <defs>
  <style type="text/css">
   <![CDATA[
    .str0 {stroke:#4C4C4C;stroke-width:0.00461741}
    .fil1 {fill:none}
    .fil0 {fill:none;fill-rule:nonzero}
   ]]>
  </style>
 </defs>
 <g id="Plan_x0020_1">
  <metadata id="CorelCorpID_0Corel-Layer"/>
  <g id="_111864472">
   <polygon id="_111864784" class="fil0 str0" points="0.00231143,0.00231143 0.509867,0.00231143 0.509867,0.509867 0.00231143,0.509867 "/>
   <path id="_111864736" class="fil0 str0" d="M0.451672 0.44253c-0.044893,0.0497339 -0.107781,0.0830207 -0.168119,0.0586962 -0.0616673,-0.0248697 -0.0952593,-0.102412 -0.0774384,-0.168473 0.00796463,-0.0294599 0.0229835,-0.0502955 0.0407935,-0.0726357 -0.00076866,-0.000119933 -0.00152642,-0.000223511 -0.00229508,-0.000348895 -0.0621088,-0.0104069 -0.135513,0.00799734 -0.185094,0.0469537 -0.0422054,0.0331723 -0.0486055,0.095303 -0.0297106,0.143538 0.0115081,0.0293726 0.0389236,0.0591105 0.0729464,0.0517128 0.0461578,-0.0100416 0.0495759,-0.0688741 0.0245917,-0.100378 -0.0137596,-0.0152533 -0.035451,0.00908763 -0.0492324,0.0190148 -0.00550601,0.00396869 0.00263307,-0.0320384 0.022084,-0.0465339 0.00353802,-0.00262217 0.0256602,0.0083953 0.0385638,0.0212445 8.17724e-005,7.63209e-005 0.000185351,0.000125384 0.00025622,0.000201705 0.000141739,0.000163545 0.000267123,0.000316186 0.000408862,0.000468828 0.00166816,0.00170632 0.00313461,0.00344534 0.0043939,0.00518437 0.0318203,0.0408099 0.00998713,0.0966985 -0.0398777,0.107547 -0.00156458,0.000343444 -0.0031237,0.00062147 -0.00466648,0.000850433 -0.00958917,0.000158093 -0.0161691,-0.00047428 -0.0242864,-0.000981268 -0.0268704,-0.00628012 -0.0484038,-0.0292636 -0.0601299,-0.0560795 -0.00618199,-0.0141466 -0.00972546,-0.0292963 -0.0107067,-0.0445932 6.54179e-005,-0.00746854 3.27089e-005,-0.0139885 0.000376153,-0.0224111 0.00180444,-0.0184151 0.007305,-0.036416 0.0163599,-0.0524706 0.0266087,-0.0471881 0.0922229,-0.068716 0.141183,-0.0780653 0.0285167,-0.00543514 0.0550928,-0.00504808 0.0825247,-0.00240956l0.165087 0.169073c0.00608386,0.00719052 0.00925118,0.0156131 0.00951285,0.0252622l0.0324745 -0.00436664z"/>
   <path id="_111864688" class="fil0 str0" d="M0.451672 0.44253c0.000419765,-0.000528795 -0.118695,-0.122255 -0.179905,-0.180553 0.02765,0.00287294 0.0550437,0.00245862 0.0828954,-0.00359253 0.0503554,-0.0109575 0.117,-0.0319185 0.142262,-0.0828518 0.00615473,-0.0124185 0.010336,-0.0259 0.0124567,-0.0397359 0.000485183,-0.0123585 0.000479731,-0.0245917 0.000637824,-0.037877 -0.00171177,-0.0142556 -0.0056641,-0.0282333 -0.0119497,-0.041186 -0.0172104,-0.0354238 -0.0541388,-0.0639351 -0.0940164,-0.0502082 -0.0458034,0.0157603 -0.0624959,0.0667262 -0.0332704,0.105525 -2.1806e-005,-1.0903e-005 -4.90634e-005,-1.0903e-005 -5.45149e-005,-2.1806e-005 0.0100689,0.0155695 0.0404119,0.0315914 0.0446095,0.0284677 0.0194455,-0.0144846 0.02759,-0.0504863 0.0220894,-0.0465285 -0.0134161,0.00966004 -0.0343389,0.0330033 -0.0481312,0.0201705 -0.0232343,-0.0271866 -0.0267668,-0.0735243 0.00700517,-0.094736 0.0363233,-0.022809 0.0719924,0.00569681 0.0868204,0.0395778 0.020345,0.0465557 0.0166925,0.108872 -0.0228581,0.143729 -0.0472099,0.0415949 -0.124196,0.0616291 -0.185885,0.0533592 -0.00243682,-0.000321638 -0.00483547,-0.000616018 -0.00726139,-0.000932205 0.03568,-0.0423908 0.0612093,-0.0978543 0.0389236,-0.153966 -0.0421455,-0.106048 -0.174132,-0.14157 -0.247258,-0.0312207 -3.81604e-005,5.45149e-005 -5.45149e-005,6.54179e-005 -1.0903e-005,0.000130836 0.00252404,0.0042031 0.169569,0.167012 0.183901,0.180662 0.000643276,0.000610567 0.0144519,0.0141303 0.0150952,0.0147354 0.0479895,0.0493305 0.0959844,0.098672 0.143974,0.147997 0.00264942,0.00271484 0.0052934,0.00544059 0.00794282,0.00816088 0.00654724,0.00817178 0.00959462,0.0168887 0.00951285,0.0252622l0.0324745 -0.00436664z"/>
   <polygon id="_111864640" class="fil0 str0" points="0.509856,0.464423 0.509851,0.509867 0.464412,0.509867 "/>
   <path id="_111864592" class="fil0 str0" d="M0.257768 0.265477c-0.0470954,0.0500011 -0.0626213,0.119126 -0.0224819,0.177784l0 0c0.0193964,0.0283532 0.0407881,0.0503336 0.0743583,0.0547166 0.0257365,0.00335267 0.063717,-0.00793192 0.0856647,-0.0207702 0.00136832,-0.000779563 0.00627467,-0.00474825 0.0100744,-0.00783379 0.0171613,-0.0137705 0.0192656,-0.0290564 0.00430123,-0.0477387 -0.00264942,-0.00272029 -0.0052934,-0.00544604 -0.00794282,-0.00816088 -0.0479895,-0.0493251 -0.0959844,-0.0986665 -0.143974,-0.147997z"/>
   <path id="_111864544" class="fil0 str0" d="M0.300562 0.117491l0 0c-0.00743038,-0.040123 -0.0436882,-0.0792374 -0.0798589,-0.0941581 -0.0389454,-0.0120914 -0.0724121,-0.0137868 -0.0969875,0.00559323 -0.0145718,0.016071 -0.0411751,0.0398068 -0.0266741,0.0579875 0.0506607,0.0520617 0.109995,0.109253 0.160634,0.161331 0.00266578,-0.0031128 0.00532611,-0.00625286 0.00794827,-0.00944743 0.0281079,-0.0342081 0.0431649,-0.076926 0.0349386,-0.121307z"/>
   <polygon id="_111864496" class="fil0 str0" points="0.00230598,0.0477551 0.00231143,0.00231143 0.0477496,0.00231143 "/>
  </g>
  <polyline class="fil1 str0" points="0.00231143,0.00231143 0.509867,0.00231143 0.509851,0.509867 "/>
  <polyline class="fil1 str0" points="0.509867,0.509867 0.00231143,0.509867 0.00231143,0.00231143 "/>
 </g>
</svg>
