<?xml version="1.0" encoding="UTF-8"?>
<!DOCTYPE svg PUBLIC "-//W3C//DTD SVG 1.1//EN" "http://www.w3.org/Graphics/SVG/1.1/DTD/svg11.dtd">
<!-- Creator: CorelDRAW -->
<svg xmlns="http://www.w3.org/2000/svg" xml:space="preserve" width="110px" height="110px" style="shape-rendering:geometricPrecision; text-rendering:geometricPrecision; image-rendering:optimizeQuality; fill-rule:evenodd; clip-rule:evenodd"
viewBox="0 0 0.711017 0.711017"
 xmlns:xlink="http://www.w3.org/1999/xlink">
 <defs>
  <style type="text/css">
   <![CDATA[
    .str0 {stroke:#4C4C4C;stroke-width:0.00640794}
    .fil1 {fill:none}
    .fil0 {fill:white}
   ]]>
  </style>
 </defs>
 <g id="Capa_x0020_1">
  <metadata id="CorelCorpID_0Corel-Layer"/>
  <g id="_206596256">
   <polygon id="_206597744" class="fil0 str0" points="0.00321532,0.00321532 0.707809,0.00321532 0.707809,0.707809 0.00321532,0.707809 "/>
   <path id="_206597696" class="fil1 str0" d="M0.355508 0.496483c0.0371237,0 0.0837042,0.0120896 0.111371,0.0351718 -0.0276669,0.0230822 -0.0742474,0.0351718 -0.111371,0.0351718"/>
   <path id="_206597648" class="fil0 str0" d="M0.14419 0.00321532l0.0703436 0c0,0.0371237 -0.0120896,0.0836966 -0.0351718,0.111371 -0.0230822,-0.0276744 -0.0351718,-0.0742474 -0.0351718,-0.111371z"/>
   <path id="_206597600" class="fil0 str0" d="M0.00321532 0.566827l0 -0.0703436c0.0371237,0 0.0836966,0.0120896 0.111371,0.0351718 -0.0276744,0.0230822 -0.0742474,0.0351718 -0.111371,0.0351718z"/>
   <path id="_206597552" class="fil0 str0" d="M0.566827 0.707801l-0.0703436 0c0,-0.0371237 0.0120896,-0.0836966 0.0351718,-0.111371 0.0230822,0.0276744 0.0351718,0.0742474 0.0351718,0.111371z"/>
   <path id="_206597504" class="fil0 str0" d="M0.00321532 0.214534l0 -0.0703436c0.0371237,0 0.0836966,0.0120896 0.111371,0.0351718 -0.0276744,0.0230746 -0.0742474,0.0351718 -0.111371,0.0351718z"/>
   <path id="_206597456" class="fil0 str0" d="M0.214534 0.707801l-0.0703436 0c0,-0.0371237 0.0120896,-0.0836966 0.0351718,-0.111371 0.0230746,0.0276744 0.0351718,0.0742474 0.0351718,0.111371z"/>
   <path id="_206597408" class="fil0 str0" d="M0.707801 0.496483l0 0.0703436c-0.0371237,0 -0.0836966,-0.0120896 -0.111371,-0.0351718 0.0276744,-0.0230746 0.0742474,-0.0351718 0.111371,-0.0351718z"/>
   <path id="_206597360" class="fil1 str0" d="M0.355508 0.566827c-0.0371237,0 -0.0837042,-0.0120896 -0.111371,-0.0351718 0.0276669,-0.0230746 0.0742474,-0.0351718 0.111371,-0.0351718"/>
   <path id="_206597312" class="fil0 str0" d="M0.355508 0.496483c0.0371237,0 0.0837042,0.0120896 0.111371,0.0351718 -0.0276669,0.0230822 -0.0742474,0.0351718 -0.111371,0.0351718 -0.0371237,0 -0.0837042,-0.0120896 -0.111371,-0.0351718 0.0276669,-0.0230746 0.0742474,-0.0351718 0.111371,-0.0351718z"/>
   <path id="_206597264" class="fil0 str0" d="M0.496483 0.355508c0,-0.0371237 0.0120896,-0.0837042 0.0351718,-0.111371 0.0230822,0.0276669 0.0351718,0.0742474 0.0351718,0.111371 0,0.0371237 -0.0120896,0.0837042 -0.0351718,0.111371 -0.0230822,-0.0276669 -0.0351718,-0.0742474 -0.0351718,-0.111371z"/>
   <path id="_206597216" class="fil0 str0" d="M0.355508 0.214534c-0.0371237,0 -0.0837042,-0.0120896 -0.111371,-0.0351718 0.0276669,-0.0230822 0.0742474,-0.0351718 0.111371,-0.0351718 0.0371237,0 0.0836966,0.0120896 0.111371,0.0351718 -0.0276744,0.0230746 -0.0742474,0.0351718 -0.111371,0.0351718z"/>
   <path id="_206597168" class="fil0 str0" d="M0.214534 0.355508c0,0.0371237 -0.0120896,0.0837042 -0.0351718,0.111371 -0.0230822,-0.0276669 -0.0351718,-0.0742474 -0.0351718,-0.111371 0,-0.0371237 0.0120896,-0.0837042 0.0351718,-0.111371 0.0230746,0.0276669 0.0351718,0.0742474 0.0351718,0.111371z"/>
   <path id="_206597120" class="fil0 str0" d="M0.594145 0.0671283c0.0262521,-0.0262446 0.0658573,-0.0469739 0.099917,-0.0501741 -0.00320019,0.0340597 -0.0239295,0.0736648 -0.0501817,0.099917 -0.0262446,0.0262521 -0.0677335,0.0506356 -0.103616,0.0538812 0.00324558,-0.035883 0.027629,-0.0773719 0.0538812,-0.103624z"/>
   <path id="_206597072" class="fil0 str0" d="M0.0671132 0.116864c-0.0262521,-0.0262446 -0.0469815,-0.0658573 -0.0501817,-0.099917 0.0340597,0.00320019 0.0736724,0.0239295 0.099917,0.0501817 0.0262521,0.0262446 0.0506356,0.0677335 0.0538812,0.103616 -0.035883,-0.00324558 -0.0773719,-0.027629 -0.103616,-0.0538812z"/>
   <path id="_206597024" class="fil0 str0" d="M0.116848 0.643896c-0.0262521,0.0262521 -0.0658649,0.0469815 -0.0999245,0.0501817 0.00320019,-0.0340597 0.0239295,-0.0736648 0.0501817,-0.099917 0.0262521,-0.0262521 0.0677335,-0.0506356 0.103624,-0.0538812 -0.00325315,0.035883 -0.0276366,0.0773719 -0.0538812,0.103616z"/>
   <path id="_206596976" class="fil0 str0" d="M0.643881 0.594168c0.0262446,0.0262446 0.0469739,0.0658573 0.0501741,0.099917 -0.0340597,-0.00320019 -0.0736648,-0.0239295 -0.099917,-0.0501817 -0.0262521,-0.0262521 -0.0506356,-0.0677335 -0.0538812,-0.103616 0.035883,0.00324558 0.0773719,0.027629 0.103624,0.0538812z"/>
   <path id="_206596928" class="fil0 str0" d="M0.594145 0.291588c0.0262521,0.0262521 0.0658573,0.0469739 0.099917,0.0501817 -0.00320019,-0.0340597 -0.0239295,-0.0736724 -0.0501817,-0.0999245 -0.0262446,-0.0262446 -0.0677335,-0.0506356 -0.103616,-0.0538812 0.00324558,0.0358905 0.027629,0.0773719 0.0538812,0.103624z"/>
   <path id="_206596880" class="fil0 str0" d="M0.291565 0.116864c0.0262521,-0.0262446 0.0469815,-0.0658573 0.0501817,-0.099917 -0.0340597,0.00320019 -0.0736724,0.0239295 -0.099917,0.0501817 -0.0262521,0.0262446 -0.0506356,0.0677335 -0.0538812,0.103616 0.035883,-0.00324558 0.0773643,-0.027629 0.103616,-0.0538812z"/>
   <path id="_206596832" class="fil0 str0" d="M0.116848 0.419444c-0.0262521,-0.0262521 -0.0658649,-0.0469815 -0.0999245,-0.0501817 0.00320019,0.0340597 0.0239295,0.0736724 0.0501817,0.099917 0.0262521,0.0262521 0.0677335,0.0506356 0.103624,0.0538812 -0.00325315,-0.035883 -0.0276366,-0.0773643 -0.0538812,-0.103616z"/>
   <path id="_206596784" class="fil0 str0" d="M0.419421 0.594168c-0.0262521,0.0262446 -0.0469739,0.0658573 -0.0501817,0.099917 0.0340597,-0.00320019 0.0736724,-0.0239295 0.0999245,-0.0501817 0.0262446,-0.0262521 0.0506356,-0.0677335 0.0538812,-0.103616 -0.0358905,0.00324558 -0.0773719,0.027629 -0.103624,0.0538812z"/>
   <path id="_206596736" class="fil0 str0" d="M0.469172 0.0671283c-0.0262521,-0.0262446 -0.0658649,-0.0469739 -0.099917,-0.0501741 0.00320019,0.0340597 0.023922,0.0736648 0.0501741,0.099917 0.0262521,0.0262521 0.0677335,0.0506356 0.103624,0.0538812 -0.00324558,-0.035883 -0.027629,-0.0773719 -0.0538812,-0.103624z"/>
   <path id="_206596688" class="fil0 str0" d="M0.0671132 0.241837c-0.0262521,0.0262521 -0.0469815,0.0658649 -0.0501817,0.0999245 0.0340597,-0.00320775 0.0736724,-0.0239295 0.099917,-0.0501817 0.0262521,-0.0262521 0.0506356,-0.0677335 0.0538812,-0.103624 -0.035883,0.00324558 -0.0773719,0.0276366 -0.103616,0.0538812z"/>
   <path id="_206596640" class="fil0 str0" d="M0.241822 0.643896c0.0262446,0.0262521 0.0658573,0.0469815 0.099917,0.0501817 -0.00320019,-0.0340597 -0.0239295,-0.0736648 -0.0501817,-0.099917 -0.0262521,-0.0262521 -0.0677335,-0.0506356 -0.103616,-0.0538812 0.00324558,0.035883 0.027629,0.0773719 0.0538812,0.103616z"/>
   <path id="_206596592" class="fil0 str0" d="M0.643881 0.469194c0.0262446,-0.0262521 0.0469739,-0.0658649 0.0501741,-0.0999245 -0.0340597,0.00320019 -0.0736648,0.0239295 -0.099917,0.0501817 -0.0262521,0.0262521 -0.0506356,0.0677335 -0.0538812,0.103624 0.035883,-0.00324558 0.0773719,-0.0276366 0.103624,-0.0538812z"/>
   <path id="_206596544" class="fil0 str0" d="M0.469172 0.291588c-0.0262521,0.0262521 -0.0658649,0.0469739 -0.099917,0.0501817 0.00320019,-0.0340597 0.023922,-0.0736724 0.0501741,-0.0999245 0.0262521,-0.0262446 0.0677335,-0.0506356 0.103624,-0.0538812 -0.00324558,0.0358905 -0.027629,0.0773719 -0.0538812,0.103624z"/>
   <path id="_206596496" class="fil0 str0" d="M0.291565 0.241837c0.0262521,0.0262521 0.0469815,0.0658649 0.0501817,0.0999245 -0.0340597,-0.00320775 -0.0736724,-0.0239295 -0.099917,-0.0501817 -0.0262521,-0.0262521 -0.0506356,-0.0677335 -0.0538812,-0.103624 0.035883,0.00324558 0.0773643,0.0276366 0.103616,0.0538812z"/>
   <path id="_206596448" class="fil0 str0" d="M0.241822 0.419444c0.0262446,-0.0262521 0.0658573,-0.0469815 0.099917,-0.0501817 -0.00320019,0.0340597 -0.0239295,0.0736724 -0.0501817,0.099917 -0.0262521,0.0262521 -0.0677335,0.0506356 -0.103616,0.0538812 0.00324558,-0.035883 0.027629,-0.0773643 0.0538812,-0.103616z"/>
   <path id="_206596400" class="fil0 str0" d="M0.419421 0.469194c-0.0262521,-0.0262521 -0.0469739,-0.0658649 -0.0501817,-0.0999245 0.0340597,0.00320019 0.0736724,0.0239295 0.0999245,0.0501817 0.0262446,0.0262521 0.0506356,0.0677335 0.0538812,0.103624 -0.0358905,-0.00324558 -0.0773719,-0.0276366 -0.103624,-0.0538812z"/>
   <path id="_206596352" class="fil0 str0" d="M0.707801 0.14419l0 0.0703436c-0.0371237,0 -0.0836966,-0.0120972 -0.111371,-0.0351718 0.0276744,-0.0230822 0.0742474,-0.0351718 0.111371,-0.0351718z"/>
   <path id="_206596304" class="fil0 str0" d="M0.496483 0.00321532l0.0703436 0c0,0.0371237 -0.0120896,0.0836966 -0.0351718,0.111371 -0.0230822,-0.0276744 -0.0351718,-0.0742474 -0.0351718,-0.111371z"/>
  </g>
 </g>
</svg>
