<?xml version="1.0" encoding="UTF-8"?>
<!DOCTYPE svg PUBLIC "-//W3C//DTD SVG 1.1//EN" "http://www.w3.org/Graphics/SVG/1.1/DTD/svg11.dtd">
<!-- Creator: CorelDRAW -->
<svg xmlns="http://www.w3.org/2000/svg" xml:space="preserve" width="110px" height="110px" style="shape-rendering:geometricPrecision; text-rendering:geometricPrecision; image-rendering:optimizeQuality; fill-rule:evenodd; clip-rule:evenodd"
viewBox="0 0 0.332779 0.332779"
 xmlns:xlink="http://www.w3.org/1999/xlink">
 <defs>
  <style type="text/css">
   <![CDATA[
    .str0 {stroke:#4C4C4C;stroke-width:0.00299912}
    .fil0 {fill:white}
   ]]>
  </style>
 </defs>
 <g id="Plan_x0020_1">
  <metadata id="CorelCorpID_0Corel-Layer"/>
  <g id="_221648936">
   <polygon id="_221648792" class="fil0 str0" points="0.00150487,0.331274 0.331274,0.331274 0.331274,0.00150133 0.00150487,0.00150133 "/>
   <path id="_221648720" class="fil0 str0" d="M0.331274 0.0755517c-0.0225873,0.000116849 -0.0454932,-0.00546711 -0.0571568,-0.0171662 -0.0116105,-0.0116424 -0.0171378,-0.0343819 -0.0170422,-0.0568806l0.0741991 0 0 0.0740468z"/>
   <path id="_221648648" class="fil0 str0" d="M0.0755517 0.00150841c0.000116849,0.0225873 -0.00546711,0.0454896 -0.0171662,0.0571533 -0.0116424,0.0116105 -0.0343855,0.0171414 -0.0568806,0.0170422l0 -0.0741955 0.0740468 0z"/>
   <path id="_221648576" class="fil0 str0" d="M0.00150487 0.257231c0.0225873,-0.00012039 0.0454932,0.00546357 0.0571568,0.0171626 0.0116105,0.0116424 0.0171378,0.0343855 0.0170422,0.0568806l-0.0741991 0 0 -0.0740433z"/>
   <path id="_221648504" class="fil0 str0" d="M0.257227 0.331274c-0.000116849,-0.0225873 0.00546711,-0.0454932 0.0171662,-0.0571568 0.0116424,-0.011607 0.0343855,-0.0171378 0.0568806,-0.0170422l0 0.0741991 -0.0740468 0z"/>
   <path id="_221648384" class="fil0 str0" d="M0.331274 0.0612253c-0.0182178,9.56037e-005 -0.0366906,-0.00440485 -0.0460987,-0.0138413 -0.00936562,-0.0093904 -0.0138236,-0.0277321 -0.0137457,-0.0458791l0.0598444 0 0 0.0597204z"/>
   <path id="_221648312" class="fil0 str0" d="M0.0612253 0.00150487c9.20628e-005,0.0182214 -0.00440839,0.0366906 -0.0138448,0.0460987 -0.0093904,0.00936562 -0.0277321,0.0138271 -0.0458791,0.0137457l0 -0.0598444 0.059724 0z"/>
   <path id="_221648240" class="fil0 str0" d="M0.00150487 0.271553c0.0182178,-9.20628e-005 0.0366906,0.00440839 0.0460987,0.0138448 0.00936562,0.0093904 0.0138236,0.0277321 0.0137457,0.0458756l-0.0598444 0 0 -0.0597204z"/>
   <path id="_221648168" class="fil0 str0" d="M0.271553 0.331274c-9.20628e-005,-0.0182178 0.00440839,-0.0366906 0.0138448,-0.0460987 0.0093904,-0.00936208 0.0277321,-0.0138236 0.0458791,-0.0137457l0 0.0598444 -0.059724 0z"/>
   <path id="_221648096" class="fil0 str0" d="M0.331274 0.04743c-0.0140077,7.08175e-005 -0.0282137,-0.00338862 -0.0354477,-0.0106474 -0.00720214,-0.00721985 -0.0106297,-0.0213232 -0.0105695,-0.0352778l0.0460172 0 0 0.0459252z"/>
   <path id="_221648024" class="fil0 str0" d="M0.04743 0.00150487c7.08175e-005,0.0140112 -0.00339216,0.0282137 -0.0106474,0.0354513 -0.00722339,0.0071986 -0.0213267,0.0106297 -0.0352813,0.0105695l0 -0.0460208 0.0459287 0z"/>
   <path id="_221647952" class="fil0 str0" d="M0.00150487 0.285349c0.0140077,-7.08175e-005 0.0282137,0.00339216 0.0354477,0.0106474 0.00720214,0.00722339 0.0106297,0.0213267 0.0105695,0.0352778l-0.0460172 0 0 -0.0459252z"/>
   <path id="_221647880" class="fil0 str0" d="M0.285349 0.331274c-7.08175e-005,-0.0140077 0.00339216,-0.0282137 0.0106474,-0.0354477 0.00722339,-0.00720214 0.0213267,-0.0106297 0.0352813,-0.0105695l0 0.0460172 -0.0459287 0z"/>
   <path id="_221647808" class="fil0 str0" d="M0.113967 0.237472c0.000984364,0.0122408 0.0022697,0.0226227 0.00385956,0.0300196 0.0019404,0.00902924 0.00358337,0.012818 0.0127224,0.0151479 0.017885,0.00455711 0.0560556,0.00393037 0.0730093,-0.000474477 0.00840604,-0.00218472 0.00994632,-0.00577163 0.011908,-0.0141069 0.00174919,-0.00745 0.00317263,-0.018062 0.00425967,-0.030625 0.00164651,-0.0190216 -0.00102331,-0.0169608 0.0181682,-0.0185082 0.0122408,-0.000984364 0.0226227,-0.00227324 0.0300196,-0.00385956 0.00902924,-0.0019404 0.012818,-0.00358337 0.0151479,-0.0127224 0.00456065,-0.017885 0.00393037,-0.0560556 -0.000474477,-0.0730129 -0.00218472,-0.0084025 -0.00577163,-0.00994278 -0.0141033,-0.0119044 -0.00745355,-0.00174919 -0.0180656,-0.00317263 -0.0306286,-0.00425967 -0.0190216,-0.00164651 -0.0169608,0.00102331 -0.0185082,-0.0181682 -0.000984364,-0.0122408 -0.0022697,-0.0226227 -0.00385956,-0.0300196 -0.0019404,-0.00902924 -0.00358337,-0.012818 -0.0127224,-0.0151479 -0.017885,-0.00455711 -0.0560556,-0.00393037 -0.0730129,0.000474477 -0.0084025,0.00218472 -0.00994632,0.00577163 -0.0119044,0.0141033 -0.00174919,0.00745355 -0.00317263,0.0180656 -0.00425967,0.0306286 -0.00157215,0.0181505 0.000492182,0.0170104 -0.0181682,0.0185082 -0.0122408,0.000984364 -0.0226262,0.0022697 -0.0300231,0.00385956 -0.00902569,0.0019404 -0.012818,0.00358337 -0.0151443,0.0127224 -0.00456065,0.017885 -0.00393037,0.0560556 0.000474477,0.0730093 0.00218472,0.0084025 0.00577163,0.00994632 0.0141033,0.011908 0.00745355,0.00174919 0.0180656,0.00317263 0.0306286,0.00425967 0.0181505,0.00157215 0.0170104,-0.000492182 0.0185082,0.0181682z"/>
   <path id="_221647736" class="fil0 str0" d="M0.128438 0.107384c0.00080732,-0.013728 0.00193332,-0.025335 0.00337446,-0.0331178 0.00139511,-0.0075279 0.00249278,-0.0107713 0.00846978,-0.0127401 0.0120638,-0.00397995 0.0392258,-0.00454649 0.0519482,-0.000428446 0.00650105,0.00210328 0.00766954,0.00552377 0.00905048,0.0136819 0.00132075,0.00780409 0.00235114,0.0192836 0.0030841,0.0328239 0.00117557,0.0217268 3.54088e-005,0.0191668 0.0211426,0.0204132 0.0137315,0.000810861 0.025335,0.00193686 0.0331178,0.003378 0.0075279,0.00139156 0.0107713,0.00248924 0.0127401,0.00846624 0.00397995,0.0120638 0.00454649,0.0392258 0.000428446,0.0519482 -0.00210328,0.00650105 -0.00552377,0.00766954 -0.0136819,0.00905048 -0.00780409,0.00132075 -0.0192836,0.00235114 -0.0328239,0.0030841 -0.0217268,0.00117557 -0.0191668,3.54088e-005 -0.0204132,0.0211426 -0.000810861,0.013728 -0.00193686,0.025335 -0.003378,0.0331178 -0.00139511,0.00752436 -0.00248924,0.0107678 -0.00846624,0.0127401 -0.0120673,0.00397995 -0.0392258,0.00454649 -0.0519482,0.000428446 -0.00650459,-0.00210328 -0.00766954,-0.00552377 -0.00905402,-0.0136819 -0.00132075,-0.00780409 -0.0023476,-0.0192836 -0.00308056,-0.0328275 -0.00117557,-0.0217233 -3.54088e-005,-0.0191632 -0.0211426,-0.0204096 -0.0137315,-0.000810861 -0.025335,-0.00193686 -0.0331178,-0.003378 -0.0075279,-0.00139511 -0.0107713,-0.00248924 -0.0127401,-0.00846624 -0.00397995,-0.0120673 -0.00454649,-0.0392258 -0.000428446,-0.0519482 0.00209974,-0.00650459 0.00552377,-0.00766954 0.0136784,-0.00905048 0.00780409,-0.00132075 0.0192872,-0.00235114 0.0328275,-0.0030841 0.0222332,-0.0012039 0.0191137,0.000934791 0.0204132,-0.0211426z"/>
   <path id="_221647664" class="fil0 str0" d="M0.142786 0.207694c0.000453232,0.0167944 0.00121806,0.0312199 0.00228387,0.0401996 0.000867515,0.00728004 0.00160048,0.0103394 0.00568311,0.012216 0.00798114,0.00367897 0.0250234,0.00316908 0.0325973,-0.000382415 0.00374979,-0.00175982 0.00443672,-0.00465625 0.00531486,-0.0113768 0.00117203,-0.00900799 0.00201122,-0.0237416 0.00251756,-0.0409113 0.000545295,-0.0186533 -0.00193686,-0.0168227 0.0169325,-0.0173326 0.0167944,-0.000456773 0.0312199,-0.00121806 0.0401996,-0.00228741 0.00728004,-0.000863974 0.0103394,-0.00159694 0.0122196,-0.00567957 0.00367543,-0.00798114 0.00316554,-0.0250269 -0.000385956,-0.0325973 -0.00175982,-0.00374979 -0.00465625,-0.00443672 -0.0113768,-0.00531486 -0.00900799,-0.00117203 -0.0237416,-0.00201122 -0.0409113,-0.00251756 -0.0186533,-0.000545295 -0.0168227,0.0019404 -0.0173326,-0.0169325 -0.000456773,-0.0167944 -0.00121806,-0.0312199 -0.00228741,-0.0401996 -0.000863974,-0.00728004 -0.00159694,-0.0103394 -0.00567957,-0.0122196 -0.00798468,-0.00367543 -0.0250269,-0.00316554 -0.0325973,0.000385956 -0.00374979,0.00175982 -0.00444026,0.00465625 -0.00531486,0.0113768 -0.00117203,0.00900799 -0.00201122,0.0237416 -0.00251756,0.0409113 -0.000545295,0.0186533 0.0019404,0.0168227 -0.0169325,0.0173326 -0.0167944,0.000456773 -0.0312234,0.00121806 -0.0401996,0.00228387 -0.00728358,0.000867515 -0.0103394,0.00160048 -0.0122196,0.00568311 -0.00367543,0.00798114 -0.00316554,0.0250269 0.000385956,0.0325973 0.00175982,0.00374979 0.00465625,0.00443672 0.0113768,0.00531486 0.00900799,0.00117203 0.0237416,0.00201122 0.0409113,0.00251756 0.0174636,0.000513427 0.0168439,-0.00124285 0.0173326,0.0169325z"/>
   <path id="_221647592" class="fil0 str0" d="M0.141869 0.153922c-0.0196731,0.000194748 -0.0371509,0.000637358 -0.0470689,0.00133491 -0.00640899,0.00044615 -0.00910005,0.000825024 -0.0107536,0.00293185 -0.00323282,0.00412866 -0.00279021,0.0129384 0.000339924,0.016851 0.00154736,0.0019404 0.00409679,0.00229449 0.0100101,0.00274772 0.00985072,0.000750666 0.0274772,0.00124285 0.0473344,0.00145884 0.0134305,0.000148717 0.012478,-0.00181293 0.0126126,0.011777 0.000194748,0.0196731 0.000637358,0.0371509 0.00133491,0.0470689 0.00044615,0.00640899 0.000825024,0.00910005 0.00293185,0.0107536 0.00412866,0.00323282 0.0129384,0.00279021 0.016851,-0.000339924 0.0019404,-0.00154736 0.00229449,-0.00409679 0.00274772,-0.0100101 0.000750666,-0.00985426 0.00123931,-0.0274807 0.00145884,-0.047338 0.000138094,-0.0122868 -0.00123577,-0.0124851 0.011777,-0.0126091 0.0196731,-0.000194748 0.0371509,-0.000637358 0.0470689,-0.00133491 0.00640899,-0.00044615 0.00910005,-0.000825024 0.0107536,-0.00293539 0.00323282,-0.00412512 0.00279021,-0.0129348 -0.000339924,-0.0168475 -0.00154736,-0.0019404 -0.00409679,-0.00229449 -0.0100101,-0.00274772 -0.00985426,-0.000750666 -0.0274807,-0.00124285 -0.047338,-0.00146238 -0.0134305,-0.000145176 -0.0124745,0.00181647 -0.0126091,-0.0117734 -0.000194748,-0.0196731 -0.000637358,-0.0371509 -0.00133491,-0.0470689 -0.00044615,-0.00640899 -0.000825024,-0.00910005 -0.00293539,-0.0107536 -0.00412512,-0.00323282 -0.0129348,-0.00279021 -0.0168475,0.000339924 -0.0019404,0.00154736 -0.00229449,0.00409679 -0.00274772,0.0100101 -0.000750666,0.00985426 -0.00123931,0.0274807 -0.00146238,0.047338 -0.000134553,0.0122868 0.00123931,0.0124851 -0.0117734,0.0126091z"/>
  </g>
 </g>
</svg>
