<?xml version="1.0" encoding="UTF-8"?>
<!DOCTYPE svg PUBLIC "-//W3C//DTD SVG 1.1//EN" "http://www.w3.org/Graphics/SVG/1.1/DTD/svg11.dtd">
<!-- Creator: CorelDRAW -->
<svg xmlns="http://www.w3.org/2000/svg" xml:space="preserve" width="110px" height="110px" style="shape-rendering:geometricPrecision; text-rendering:geometricPrecision; image-rendering:optimizeQuality; fill-rule:evenodd; clip-rule:evenodd"
viewBox="0 0 0.477841 0.478353"
 xmlns:xlink="http://www.w3.org/1999/xlink">
 <defs>
  <style type="text/css">
   <![CDATA[
    .str0 {stroke:#605D5C;stroke-width:0.00429227}
    .fil0 {fill:none}
   ]]>
  </style>
 </defs>
 <g id="Plan_x0020_1">
  <metadata id="CorelCorpID_0Corel-Layer"/>
  <g id="_195245056">
   <polygon id="_195254776" class="fil0 str0" points="0.00294935,0.00298483 0.474861,0.00298483 0.474861,0.474912 0.00294935,0.474912 "/>
   <path id="_195239920" class="fil0 str0" d="M0.00294935 0.182571l0 -0.179617 0.179612 0c0,0.0991783 -0.0804332,0.179617 -0.179612,0.179617z"/>
   <path id="_195242200" class="fil0 str0" d="M0.182561 0.474912l-0.179612 0 0 -0.179622c0.0991783,0 0.179612,0.0804383 0.179612,0.179622z"/>
   <path id="_195271624" class="fil0 str0" d="M0.474886 0.29529l0 0.179622 -0.179612 0c0,-0.0991834 0.0804332,-0.179622 0.179612,-0.179622z"/>
   <path id="_195268216" class="fil0 str0" d="M0.295275 0.00295442l0.179612 0 0 0.179617c-0.0991783,0 -0.179612,-0.0804383 -0.179612,-0.179617z"/>
   <path id="_195264496" class="fil0 str0" d="M0.00294935 0.159062l0 -0.156108 0.156103 0c0,0.0861951 -0.0699078,0.156108 -0.156103,0.156108z"/>
   <path id="_195261520" class="fil0 str0" d="M0.159052 0.474912l-0.156103 0 0 -0.156108c0.0861951,0 0.156103,0.0699078 0.156103,0.156108z"/>
   <path id="_195259048" class="fil0 str0" d="M0.474886 0.318804l0 0.156108 -0.156098 0c0,-0.0862002 0.0699027,-0.156108 0.156098,-0.156108z"/>
   <path id="_195255904" class="fil0 str0" d="M0.318789 0.00295442l0.156098 0 0 0.156108c-0.0861951,0 -0.156098,-0.0699128 -0.156098,-0.156108z"/>
   <path id="_195256648" class="fil0 str0" d="M0.0260171 0.0032078c0.0117974,0.0103785 0.0211624,0.0202907 0.0329598,0.0306692 0.0204225,0.013115 0.0359395,0.00500681 0.04609,-0.0306692l0.0222772 0c-0.00323821,0.0416254 -0.0322807,0.0580445 -0.0611003,0.062955 -0.00490545,0.0288297 -0.0216793,0.0578671 -0.0632945,0.0611003l0 -0.0222063c0.0356659,-0.0101504 0.0441592,-0.0257891 0.0310442,-0.0462167 -0.0103734,-0.0118025 -0.0206708,-0.0211978 -0.0310442,-0.0330003l0.0230678 -0.022632z"/>
   <path id="_195246016" class="fil0 str0" d="M0.0032078 0.451844c0.0103734,-0.0117974 0.0202907,-0.0211624 0.0306641,-0.0329598 0.013115,-0.0204225 0.00500681,-0.0359446 -0.0306641,-0.046095l0 -0.0222772c0.0416203,0.00323821 0.0580445,0.0322807 0.062955,0.0611003 0.0288246,0.00490545 0.057862,0.0216843 0.0610952,0.0632996l-0.0222063 0c-0.0101504,-0.0356659 -0.0257891,-0.0441592 -0.0462167,-0.0310493 -0.0118025,0.0103785 -0.0211928,0.0206759 -0.0329953,0.0310493l-0.022632 -0.0230678z"/>
   <path id="_195246256" class="fil0 str0" d="M0.451824 0.474653c-0.0117974,-0.0103734 -0.0211624,-0.0202907 -0.0329598,-0.0306641 -0.0204225,-0.013115 -0.0359446,-0.00500681 -0.04609,0.0306641l-0.0222772 0c0.00323314,-0.0416203 0.0322807,-0.0580445 0.0610952,-0.062955 0.00490545,-0.0288297 0.0216793,-0.057862 0.0632945,-0.0611003l0 0.0222063c-0.0356659,0.0101504 -0.0441592,0.0257942 -0.0310442,0.0462167 0.0103734,0.0118025 0.0206708,0.0211978 0.0310442,0.0330003l-0.0230627 0.022632z"/>
   <path id="_195254200" class="fil0 str0" d="M0.474633 0.0260171c-0.0103785,0.0117974 -0.0202907,0.0211674 -0.0306692,0.0329598 -0.013115,0.0204276 -0.00500174,0.0359446 0.0306692,0.046095l0 0.0222772c-0.0416254,-0.00323314 -0.0580445,-0.0322807 -0.062955,-0.0611003 -0.0288246,-0.00490545 -0.057862,-0.0216793 -0.0610952,-0.0632945l0.0222063 0c0.0101504,0.0356659 0.0257891,0.0441592 0.0462116,0.0310442 0.0118025,-0.0103734 0.0211978,-0.0206708 0.0330003,-0.0310442l0.022632 0.0230627z"/>
   <path id="_195240376" class="fil0 str0" d="M0.285935 0.474912c0,-0.0527894 -0.0148633,-0.102366 -0.0400443,-0.144665 0.0215475,-0.0340442 0.050438,-0.0624229 0.0845025,-0.0839451 0.0422943,0.0251861 0.0917087,0.039649 0.144493,0.039649l0 -0.0940398c-0.0527843,0 -0.102356,0.0148684 -0.144655,0.0400494 -0.0340442,-0.0215526 -0.0624229,-0.0504431 -0.08394,-0.0845076 0.025181,-0.0422994 0.039644,-0.0917137 0.039644,-0.144498l-0.0940347 0c0,0.0527843 0.0148684,0.102361 0.0400494,0.14466 -0.0215526,0.0340442 -0.0504431,0.0624229 -0.0845025,0.0839451 -0.0422994,-0.025181 -0.0917087,-0.039649 -0.144498,-0.039649l0 0.0940398c0.0527894,0 0.102361,-0.0148684 0.14466,-0.0400494 0.0340392,0.0215526 0.0624178,0.0504431 0.08394,0.0845076 -0.025181,0.0422994 -0.039649,0.0917137 -0.039649,0.144503l0.0940347 0z"/>
   <path id="_195248440" class="fil0 str0" d="M0.474856 0.261378c-0.0375054,0 -0.0731561,-0.00811325 -0.105325,-0.0225002 0.0321692,-0.014387 0.0678199,-0.0223887 0.105325,-0.0223887l0 0.0448889z"/>
   <path id="_195271552" class="fil0 str0" d="M0.00294935 0.216489c0.0375105,0 0.0731561,0.00811325 0.105325,0.0225002 -0.0321692,0.0143819 -0.0678148,0.0223887 -0.105325,0.0223887l0 -0.0448889z"/>
   <path id="_195271864" class="fil0 str0" d="M0.261347 0.00296962c0,0.0375105 -0.00811325,0.0731612 -0.0225002,0.10533 -0.0143819,-0.0321692 -0.0223887,-0.0678199 -0.0223887,-0.10533l0.0448889 0z"/>
   <path id="_195244192" class="fil0 str0" d="M0.216458 0.474897c0,-0.0375105 0.00811325,-0.0731612 0.0225002,-0.10533 0.014387,0.0321692 0.0223887,0.0678199 0.0223887,0.10533l-0.0448889 0z"/>
   <path id="_195265384" class="fil0 str0" d="M0.238933 0.295168c-0.00589364,-0.00771798 -0.0164191,-0.0180914 -0.0274563,-0.0288956 -0.0108042,-0.0110373 -0.0212232,-0.0214563 -0.0289361,-0.027355 0.00771291,-0.00589871 0.0181319,-0.0162924 0.0289361,-0.0273297 0.0110373,-0.0108042 0.0215627,-0.0211725 0.0274563,-0.0288956 0.00589871,0.00772305 0.0163937,0.0180914 0.027431,0.0288956 0.0108042,0.0110373 0.0212181,0.021431 0.028931,0.0273297 -0.00771291,0.00589871 -0.0181269,0.0163177 -0.028931,0.027355 -0.0110373,0.0108042 -0.0215323,0.0211776 -0.027431,0.0288956z"/>
   <polygon id="_195266824" class="fil0 str0" points="0.452001,0.00295442 0.474886,0.00295442 0.474633,0.0260171 "/>
   <polygon id="_195261064" class="fil0 str0" points="0.00295442,0.0258448 0.00295442,0.00295949 0.0260171,0.00321794 "/>
   <polygon id="_195269776" class="fil0 str0" points="0.0258448,0.474917 0.00295949,0.474917 0.00321794,0.451849 "/>
   <polygon id="_195268264" class="fil0 str0" points="0.474897,0.452021 0.474897,0.474907 0.451829,0.474653 "/>
   <path id="_195248368" class="fil0 str0" d="M0.159052 0.474912c0,-0.0862002 -0.0699078,-0.156108 -0.156103,-0.156108l0 0.156108 1.01352e-005 5.06762e-006 0.000258448 -0.0230627 -1.01352e-005 -1.01352e-005c0.0103734,-0.0117974 0.0202907,-0.0211624 0.0306641,-0.0329598 0.013115,-0.0204225 0.00500681,-0.0359446 -0.0306641,-0.046095l0 -0.0222772c0.0416203,0.00323821 0.0580445,0.0322807 0.062955,0.0611003 0.0288246,0.00490545 0.057862,0.0216843 0.0610952,0.0632996l0.0317942 0z"/>
   <path id="_195261352" class="fil0 str0" d="M0.00294935 0.105057c0.0356659,-0.0101504 0.0441592,-0.0257891 0.0310442,-0.0462167 -0.0103683,-0.0118025 -0.0206657,-0.0211928 -0.0310392,-0.0329953 0,0 -5.06762e-006,-5.06762e-006 -5.06762e-006,-5.06762e-006l0 0.079217z"/>
   <path id="_195264328" class="fil0 str0" d="M0.372794 0.00298483c0.0101504,0.0356405 0.0257891,0.0441237 0.0462065,0.0310138 0.0117923,-0.0103633 0.0211776,-0.0206505 0.0329648,-0.0310138 1.01352e-005,-1.01352e-005 2.53381e-005,-2.02705e-005 3.54733e-005,-3.04057e-005l-0.0792119 0c0,1.01352e-005 5.06762e-006,2.02705e-005 5.06762e-006,3.04057e-005z"/>
   <path id="_195262264" class="fil0 str0" d="M0.105011 0.00298483c-0.0101504,0.0356405 -0.0257891,0.0441237 -0.0462065,0.0310138 -0.0117923,-0.0103633 -0.0211776,-0.0206505 -0.0329648,-0.0310138 -1.01352e-005,-1.01352e-005 -2.02705e-005,-2.02705e-005 -3.54733e-005,-3.04057e-005l0.079217 0c-5.06762e-006,1.01352e-005 -5.06762e-006,2.02705e-005 -1.01352e-005,3.04057e-005z"/>
   <path id="_195257560" class="fil0 str0" d="M0.00296456 0.37283c0.0356405,0.0101504 0.0441237,0.0257891 0.0310138,0.0462065 -0.0103633,0.0117923 -0.0206505,0.0211826 -0.0310138,0.0329648 -1.01352e-005,1.52029e-005 -2.02705e-005,2.53381e-005 -3.04057e-005,3.54733e-005l0 -0.079217c1.01352e-005,5.06762e-006 2.02705e-005,5.06762e-006 3.04057e-005,1.01352e-005z"/>
   <path id="_195271384" class="fil0 str0" d="M0.474841 0.105036c-0.0356405,-0.0101504 -0.0441237,-0.0257891 -0.0310138,-0.0462116 0.0103633,-0.0117873 0.0206505,-0.0211776 0.0310138,-0.0329598 1.52029e-005,-1.52029e-005 2.53381e-005,-2.53381e-005 3.54733e-005,-3.54733e-005l0 0.079217c-1.01352e-005,-5.06762e-006 -2.02705e-005,-1.01352e-005 -3.54733e-005,-1.01352e-005z"/>
   <path id="_195245320" class="fil0 str0" d="M0.474856 0.372814c-0.0356405,0.0101504 -0.0441237,0.0257891 -0.0310138,0.0462065 0.0103633,0.0117923 0.0206505,0.0211826 0.0310138,0.0329648 1.01352e-005,1.52029e-005 2.02705e-005,2.53381e-005 3.04057e-005,3.54733e-005l0 -0.079217c-1.01352e-005,5.06762e-006 -2.02705e-005,5.06762e-006 -3.04057e-005,1.01352e-005z"/>
   <path id="_195268648" class="fil0 str0" d="M0.372784 0.474881c0.0101504,-0.0356405 0.0257891,-0.0441237 0.0462116,-0.0310138 0.0117873,0.0103633 0.0211776,0.0206505 0.0329598,0.0310138 1.52029e-005,1.01352e-005 2.53381e-005,2.02705e-005 3.54733e-005,3.04057e-005l-0.079217 0c5.06762e-006,-1.01352e-005 5.06762e-006,-2.02705e-005 1.01352e-005,-3.04057e-005z"/>
  </g>
 </g>
</svg>
