<?xml version="1.0" encoding="UTF-8"?>
<!DOCTYPE svg PUBLIC "-//W3C//DTD SVG 1.1//EN" "http://www.w3.org/Graphics/SVG/1.1/DTD/svg11.dtd">
<!-- Creator: CorelDRAW -->
<svg xmlns="http://www.w3.org/2000/svg" xml:space="preserve" width="110px" height="110px" style="shape-rendering:geometricPrecision; text-rendering:geometricPrecision; image-rendering:optimizeQuality; fill-rule:evenodd; clip-rule:evenodd"
viewBox="0 0 1.84917 1.84921"
 xmlns:xlink="http://www.w3.org/1999/xlink">
 <defs>
  <style type="text/css">
   <![CDATA[
    .str1 {stroke:#1F1A17;stroke-width:0.0149931}
    .str0 {stroke:#4C4C4C;stroke-width:0.0166656}
    .fil0 {fill:none}
   ]]>
  </style>
 </defs>
 <g id="Capa_x0020_1">
  <metadata id="CorelCorpID_0Corel-Layer"/>
  <g id="_107894584">
   <polygon id="_109279632" class="fil0 str0" points="1.84083,1.84087 0.00834262,1.84087 0.00834262,0.00834262 1.84083,0.00834262 "/>
   <path id="_109279584" class="fil0 str0" d="M0.00895258 0.925244c0.390018,-0.0849413 0.721834,-0.426674 0.915524,-0.915308 0.000629632,1.9676e-005 -0.000137732,0 0.000216436,3.9352e-005 0.193691,0.488693 0.525487,0.830406 0.915563,0.915288 3.9352e-005,0.000432872 0,-0.000177084 1.9676e-005,0.00019676 -0.390037,0.0848429 -0.721794,0.42628 -0.915485,0.914875 -0.00127894,0 0.000413196,1.9676e-005 -0.000413196,0 -0.193671,-0.488496 -0.525487,-0.829914 -0.915426,-0.914835 0,-0.000255788 -1.9676e-005,0.000255788 0,-0.000255788z"/>
   <path id="_109279536" class="fil0 str0" d="M1.31371 0.503214l0.0755952 -0.0789598c-0.0425198,-0.0193612 -0.058418,-0.043602 -0.0555257,-0.0712861 0.0033646,-0.0324457 0.0300649,-0.0625893 0.0438381,-0.0915327 0.0304191,-0.0638486 0.0346494,-0.122719 -0.0293959,-0.168545 -0.0154653,-0.0110579 -0.0270348,-0.00960189 -0.00600118,-0.0202072 0.0713255,-0.0359677 0.122326,-0.0115301 0.157644,0.0698891 0.0107824,0.0248508 0.00440742,0.0319932 0.0256969,0.0122778 0.0733915,-0.0680593 0.0951334,-0.0346101 0.177143,-0.0414573 0.0452745,-0.00375812 0.0361251,-0.0119237 0.0324851,0.0332524 -0.00659146,0.0814193 0.0264642,0.103319 -0.0413786,0.176513 -0.019735,0.0212698 -0.012573,0.0149144 0.0122581,0.0256772 0.0814193,0.0353184 0.105857,0.0863186 0.0699088,0.157664 -0.0106054,0.0210336 -0.00916901,0.00944448 -0.0202072,-0.00600118 -0.0458254,-0.0640454 -0.104696,-0.059815 -0.168545,-0.0294156 -0.0289434,0.0137929 -0.059087,0.0404735 -0.0915524,0.0438578 -0.0276841,0.00289237 -0.051925,-0.0130255 -0.0712665,-0.0555257l-0.0791565 0.0753984 -0.0315406 -0.0315997z"/>
   <path id="_109279488" class="fil0 str0" d="M0.503194 0.535423l-0.0789598 -0.0755952c-0.0193612,0.0425198 -0.043602,0.058418 -0.0712861,0.0555453 -0.0324457,-0.00338427 -0.0625893,-0.0300846 -0.0915327,-0.0438578 -0.0638486,-0.0303994 -0.122719,-0.0346494 -0.168545,0.0293959 -0.0110382,0.0154653 -0.00960189,0.0270545 -0.0202072,0.00600118 -0.035948,-0.0713255 -0.0115105,-0.122326 0.0699088,-0.157644 0.0248311,-0.0107824 0.0319932,-0.00440742 0.0122581,-0.0256969 -0.0680593,-0.0733915 -0.0346101,-0.0951531 -0.0414573,-0.177143 -0.00375812,-0.0452745 -0.0119237,-0.0361251 0.0332524,-0.0324851 0.0814193,0.00659146 0.103319,-0.0264839 0.176513,0.0413786 0.0212698,0.019735 0.0149144,0.012573 0.0256772,-0.0122581 0.0353184,-0.081439 0.0863186,-0.105857 0.157664,-0.0699088 0.0210336,0.0106054 0.00944448,0.00916901 -0.00600118,0.0202072 -0.0640454,0.0458254 -0.059815,0.104696 -0.0294156,0.168545 0.0137929,0.0289434 0.0404735,0.059087 0.0438578,0.0915524 0.00289237,0.0276841 -0.0130255,0.051925 -0.0555257,0.0712665l0.0753984 0.0791565 -0.0315997 0.0315406z"/>
   <path id="_109279440" class="fil0 str0" d="M0.253565 0.925382c0.319105,0.144894 0.511714,0.396511 0.671188,0.668846 0.194222,-0.317531 0.333862,-0.50282 0.670715,-0.668925 -0.209569,-0.0971797 -0.428248,-0.249669 -0.671227,-0.668453 -0.242448,0.40017 -0.421991,0.546501 -0.670676,0.668531z"/>
   <path id="_109279392" class="fil0 str0" d="M1.23241 0.894294c-0.0431495,0 -0.103063,0.00169214 -0.146193,0.00169214 -0.00448613,-0.0256772 -0.0149144,-0.0493277 -0.0298288,-0.0694366 0.0314029,-0.033646 0.0778382,-0.0563717 0.103732,-0.094917 0.0277825,-0.0413589 -0.00143635,-0.0702827 -0.0426379,-0.0425985 -0.0385453,0.0258936 -0.0612514,0.072329 -0.0948973,0.103732 -0.0201089,-0.0149144 -0.0437594,-0.0253427 -0.0694366,-0.0298288 0,-0.0431101 -0.000177084,-0.10265 -0.000177084,-0.145779 0.0411819,-0.0122581 0.0712271,-0.0504099 0.0712271,-0.0955466 0,-0.0550534 -0.0446448,-0.0996786 -0.0996786,-0.0996786 -0.0550338,0 -0.0996786,0.0446252 -0.0996786,0.0996786 0,0.0447039 0.0294746,0.0825605 0.0700465,0.0951925 0,0.0431298 0.00108218,0.103024 0.00108218,0.146134 -0.0256772,0.00448613 -0.0493277,0.0149144 -0.0694366,0.0298288 -0.033646,-0.0314029 -0.0563521,-0.0778382 -0.0948973,-0.103732 -0.0413589,-0.0277825 -0.0703023,0.00143635 -0.0425985,0.0426379 0.0258936,0.038565 0.072329,0.0612711 0.103712,0.094917 -0.0148947,0.0201089 -0.0253427,0.0437594 -0.0298091,0.0694366 -0.0431298,-0.000177084 -0.102669,-0.000668984 -0.145799,0.00019676 -0.0122581,-0.0411819 -0.0503902,-0.0712074 -0.0955466,-0.0712074 -0.0550338,0 -0.0996786,0.0446252 -0.0996786,0.0996786 0,0.0550338 0.0446448,0.099895 0.0996786,0.0996786 0.0447235,-0.000177084 0.0825605,-0.0303404 0.0951925,-0.0700465 0.0431298,0 0.103024,-0.00114121 0.146153,-0.00114121 0.00446645,0.0256772 0.0149144,0.0493277 0.0298091,0.0694366 -0.0313832,0.033646 -0.0778186,0.0563717 -0.103712,0.094917 -0.0277825,0.0413589 0.00143635,0.0702827 0.0426379,0.0425985 0.0385453,-0.0258936 0.0612514,-0.072329 0.0948973,-0.103732 0.0201089,0.0149144 0.0437594,0.0253427 0.0694366,0.0298288 0,0.0431101 -0.000216436,0.102512 -0.000216436,0.145661 -0.0411622,0.0122581 -0.0707942,0.049977 -0.0707942,0.0951138 0,0.0550534 0.0446252,0.0996786 0.0996786,0.0996786 0.0550338,0 0.0996786,-0.0446252 0.0996786,-0.0996786 0,-0.0447235 -0.0303994,-0.0825015 -0.0709713,-0.0951138 0,-0.0431495 -0.00019676,-0.102551 -0.00019676,-0.145661 0.0256772,-0.00448613 0.049308,-0.0149144 0.0694366,-0.0298288 0.033646,0.0314029 0.0563521,0.0778382 0.0948973,0.103732 0.0413589,0.0277825 0.0702827,-0.00143635 0.0425985,-0.0426379 -0.0258936,-0.038565 -0.072329,-0.0612711 -0.103732,-0.094917 0.0149144,-0.0201089 0.0253427,-0.0437594 0.0298288,-0.0694366 0.0431298,0 0.102689,-0.000747688 0.145819,-0.000747688 0.0122581,0.0411622 0.0504099,0.0712074 0.0955663,0.0712074 0.0550338,0 0.0996589,-0.0446448 0.0996589,-0.0996786 0,-0.0550338 -0.0446252,-0.099895 -0.0996589,-0.0996786 -0.0447235,0.000177084 -0.0825605,0.0303404 -0.0951925,0.0700465z"/>
   <path id="_109279344" class="fil0 str0" d="M0.535404 1.34596l-0.0755952 0.0789598c0.0425198,0.0193612 0.058418,0.043602 0.0555257,0.0712861 -0.0033646,0.0324654 -0.0300649,0.0625893 -0.0438381,0.0915327 -0.0303994,0.0638486 -0.0346494,0.122739 0.0293959,0.168564 0.0154653,0.0110382 0.0270545,0.00960189 0.00600118,0.0201876 -0.0713255,0.0359677 -0.122326,0.0115301 -0.157644,-0.0698891 -0.0107824,-0.0248508 -0.00440742,-0.0319932 -0.0256969,-0.0122778 -0.0733915,0.0680593 -0.0951334,0.0346101 -0.177143,0.0414573 -0.0452745,0.00375812 -0.0361251,0.0119433 -0.0324654,-0.0332524 0.00657178,-0.0814193 -0.0264839,-0.103319 0.0413589,-0.176513 0.019735,-0.0212698 0.012573,-0.0149144 -0.0122581,-0.0256772 -0.0814193,-0.0353184 -0.105857,-0.0863186 -0.0699088,-0.157664 0.0106054,-0.0210336 0.00916901,-0.00944448 0.0202072,0.00600118 0.0458254,0.064065 0.104696,0.059815 0.168545,0.0294156 0.0289434,-0.0137732 0.059087,-0.0404735 0.0915524,-0.0438578 0.0276841,-0.00289237 0.051925,0.0130255 0.0712665,0.0555453l0.0791565 -0.0754181 0.0315406 0.0315997z"/>
   <path id="_109279296" class="fil0 str0" d="M1.34592 1.31375l0.0789598 0.0755952c0.0193612,-0.0425198 0.043602,-0.058418 0.0712861,-0.0555257 0.0324457,0.0033646 0.0625893,0.0300649 0.0915327,0.0438381 0.0638486,0.0304191 0.122719,0.0346494 0.168545,-0.0293959 0.0110382,-0.0154653 0.00960189,-0.0270545 0.0202072,-0.00600118 0.035948,0.0713255 0.0115105,0.122326 -0.0698891,0.157644 -0.0248508,0.0107824 -0.0320128,0.00440742 -0.0122778,0.0256969 0.0680593,0.0734111 0.0346101,0.0951531 0.0414573,0.177163 0.00375812,0.0452745 0.0119237,0.0361055 -0.0332524,0.0324654 -0.0814193,-0.00659146 -0.103319,0.0264839 -0.176513,-0.0413786 -0.0212698,-0.0197153 -0.0149144,-0.012573 -0.0256772,0.0122778 -0.0353184,0.0814193 -0.0863186,0.105837 -0.157664,0.0698891 -0.0210336,-0.0106054 -0.00944448,-0.00914934 0.00600118,-0.0202072 0.064065,-0.0458254 0.059815,-0.104696 0.0294156,-0.168545 -0.0137732,-0.0289434 -0.0404735,-0.059087 -0.0438578,-0.0915524 -0.00289237,-0.0276645 0.0130255,-0.051925 0.0555453,-0.0712665l-0.0754181 -0.0791565 0.0315997 -0.0315406z"/>
   <circle id="_109279248" class="fil0 str0" cx="0.924511" cy="0.925265" r="0.101098"/>
   <line id="_107895784" class="fil0 str1" x1="0.00834262" y1="1.84087" x2="1.84083" y2= "1.84087" />
   <polyline id="_108582408" class="fil0 str1" points="1.84083,1.84087 1.84083,0.00834262 0.00834262,0.00834262 0.00834262,1.84087 "/>
  </g>
 </g>
</svg>
