<?xml version="1.0" encoding="UTF-8"?>
<!DOCTYPE svg PUBLIC "-//W3C//DTD SVG 1.1//EN" "http://www.w3.org/Graphics/SVG/1.1/DTD/svg11.dtd">
<!-- Creator: CorelDRAW -->
<svg xmlns="http://www.w3.org/2000/svg" xml:space="preserve" width="110px" height="110px" style="shape-rendering:geometricPrecision; text-rendering:geometricPrecision; image-rendering:optimizeQuality; fill-rule:evenodd; clip-rule:evenodd"
viewBox="0 0 1.3849 1.3849"
 xmlns:xlink="http://www.w3.org/1999/xlink">
 <defs>
  <style type="text/css">
   <![CDATA[
    .str0 {stroke:#4C4C4C;stroke-width:0.0124812}
    .fil0 {fill:none}
   ]]>
  </style>
 </defs>
 <g id="Capa_x0020_1">
  <metadata id="CorelCorpID_0Corel-Layer"/>
  <g id="_108111440">
   <rect id="_108112712" class="fil0 str0" x="0.00625526" y="0.00625526" width="1.37239" height="1.37239"/>
   <path id="_108112784" class="fil0 str0" d="M0.693423 1.28147c0.0442369,-0.0140874 0.0597832,-0.0542572 0.012216,-0.151823 0.0169314,0.00167988 0.0348944,0.00293243 0.0602105,0.00125254 0.0169609,-0.00895937 0.0278212,-0.0306505 0.00626272,-0.0551856 -0.0142053,-0.00564381 -0.0336566,-0.00294716 -0.0545667,-0.00691109 0.00318293,-0.0432938 0.00869413,-0.0936166 0.0319914,-0.138605 0.0171525,-0.0298842 0.0446495,-0.047022 0.0765083,-0.0112876 0.0329345,0.0595621 0.0632461,0.121084 0.0828005,0.190667 -0.150939,-0.0488934 -0.129587,0.175371 0.00125254,0.119168 0.0530489,-0.0405382 0.0633787,-0.112243 0.0112876,-0.229554 0.000103151,-0.0218385 0.014279,-0.0217058 0.0213227,0 0.105479,0.222864 0.206994,0.324541 0.305797,0.248681 0.0758599,-0.0988036 -0.0249772,-0.200657 -0.247842,-0.306136 -0.0217206,-0.00705845 -0.0218385,-0.0212343 0,-0.0213227 0.117297,0.0520911 0.189016,0.0417465 0.229554,-0.0113024 0.0561876,-0.130824 -0.168062,-0.152191 -0.119168,-0.00123781 -0.0695825,-0.0195544 -0.131104,-0.049866 -0.190667,-0.0828005 -0.0357343,-0.0318588 -0.0185966,-0.0593706 0.0112876,-0.0765083 0.0449884,-0.0232973 0.0952965,-0.0288232 0.138605,-0.0319914 0.00396393,0.0209101 0.00126728,0.0403614 0.00691109,0.0545667 0.0245351,0.0215437 0.0462115,0.0106982 0.0551856,-0.00627745 0.00167988,-0.0253014 0.000427338,-0.0432791 -0.00125254,-0.0602105 0.097551,0.0475819 0.137736,0.0320356 0.151823,-0.0122012 -0.0140874,-0.0442369 -0.054272,-0.0597832 -0.151823,-0.0122012 0.00167988,-0.0169314 0.00293243,-0.0349091 0.00125254,-0.0602105 -0.00897411,-0.0169756 -0.0306505,-0.0278212 -0.0551856,-0.00627745 -0.00564381,0.0142053 -0.00294716,0.0336566 -0.00691109,0.0545667 -0.0433085,-0.0031682 -0.0936166,-0.00869413 -0.138605,-0.0319914 -0.0298842,-0.0171377 -0.047022,-0.0446495 -0.0112876,-0.0765083 0.0595621,-0.0329345 0.121084,-0.0632461 0.190667,-0.0828005 -0.0488934,0.150954 0.175356,0.129587 0.119168,-0.00123781 -0.0405382,-0.0530489 -0.112257,-0.0633934 -0.229554,-0.0113024 -0.0218385,-8.84148e-005 -0.0217206,-0.0142643 0,-0.0213227 0.222864,-0.105479 0.322464,-0.205019 0.246604,-0.303823 -0.0988036,-0.0758599 -0.199081,0.0235036 -0.30456,0.246368 -0.00704372,0.0217058 -0.0212196,0.0218385 -0.0213227,0 0.0520911,-0.117312 0.0417613,-0.189016 -0.0112876,-0.229554 -0.130839,-0.0562024 -0.152191,0.168062 -0.00125254,0.119168 -0.0195544,0.0695825 -0.049866,0.131104 -0.0828005,0.190667 -0.0318588,0.0357343 -0.0593558,0.0185966 -0.0765083,-0.0112876 -0.0232973,-0.0449884 -0.0288085,-0.0953112 -0.0319914,-0.138605 0.0209101,-0.00396393 0.0403614,-0.00126728 0.0545667,-0.00691109 0.0215585,-0.0245351 0.0106982,-0.0462262 -0.00626272,-0.0551856 -0.0253161,-0.00167988 -0.0432791,-0.000427338 -0.0602105,0.00125254 0.0475672,-0.0975658 0.0320209,-0.137736 -0.012216,-0.151823 -0.0442369,0.0140874 -0.0597832,0.0542572 -0.0122012,0.151823 -0.0169462,-0.00167988 -0.0349091,-0.00293243 -0.0602252,-0.00125254 -0.0169609,0.00895937 -0.0278065,0.0306505 -0.00626272,0.0551856 0.0142053,0.00564381 0.0336566,0.00294716 0.0545667,0.00691109 -0.0031682,0.0432938 -0.00869413,0.0936166 -0.0319914,0.138605 -0.0171377,0.0298842 -0.0446495,0.047022 -0.0765083,0.0112876 -0.0329345,-0.0595621 -0.0632461,-0.121084 -0.0827858,-0.190667 0.150939,0.0488934 0.129587,-0.175371 -0.00126728,-0.119168 -0.0530342,0.0405382 -0.0633787,0.112243 -0.0112876,0.229554 -8.84148e-005,0.0218385 -0.0142643,0.0217058 -0.0213227,0 -0.105479,-0.222864 -0.205756,-0.322228 -0.30456,-0.246368 -0.0758599,0.0988036 0.0237394,0.198344 0.246604,0.303823 0.0217206,0.00705845 0.0218385,0.0212343 0,0.0213227 -0.117297,-0.0520911 -0.189016,-0.0417465 -0.22954,0.0113024 -0.0562024,0.130824 0.168062,0.152191 0.119154,0.00123781 0.0695972,0.0195544 0.131104,0.049866 0.190667,0.0828005 0.0357343,0.0318588 0.0185966,0.0593706 -0.0112876,0.0765083 -0.0449884,0.0232973 -0.0952965,0.0288232 -0.13859,0.0319914 -0.00397867,-0.0209101 -0.00126728,-0.0403614 -0.00692583,-0.0545667 -0.0245351,-0.0215437 -0.0462115,-0.0106982 -0.0551856,0.00627745 -0.00167988,0.0253014 -0.000427338,0.0432791 0.00125254,0.0602105 -0.097551,-0.0475819 -0.139681,-0.0364269 -0.153783,0.00780998 0.0141022,0.0442369 0.0562318,0.0641744 0.153783,0.0165925 -0.00167988,0.0169314 -0.00293243,0.0349091 -0.00125254,0.0602105 0.00897411,0.0169756 0.0306505,0.0278212 0.0551856,0.00627745 0.00565855,-0.0142053 0.00294716,-0.0336566 0.00692583,-0.0545667 0.0432938,0.0031682 0.0936018,0.00869413 0.13859,0.0319914 0.0298842,0.0171377 0.047022,0.0446495 0.0112876,0.0765083 -0.0595621,0.0329345 -0.121069,0.0632461 -0.190667,0.0828005 0.0489081,-0.150954 -0.175356,-0.129587 -0.119154,0.00123781 0.0405235,0.0530489 0.112243,0.0633934 0.22954,0.0113024 0.0218385,8.84148e-005 0.0217206,0.0142643 0,0.0213227 -0.222864,0.105479 -0.322434,0.205049 -0.246574,0.303852 0.0988036,0.0758599 0.199051,-0.0235331 0.30453,-0.246397 0.00705845,-0.0217058 0.0212343,-0.0218385 0.0213227,0 -0.0520911,0.117312 -0.0417465,0.189016 0.0112876,0.229554 0.130854,0.0562024 0.152206,-0.168062 0.00126728,-0.119168 0.0195397,-0.0695825 0.0498512,-0.131104 0.0827858,-0.190667 0.0318588,-0.0357343 0.0593706,-0.0185966 0.0765083,0.0112876 0.0232973,0.0449884 0.0288232,0.0953112 0.0319914,0.138605 -0.0209101,0.00396393 -0.0403614,0.00126728 -0.0545667,0.00691109 -0.0215437,0.0245351 -0.0106982,0.0462262 0.00626272,0.0551856 0.0253161,0.00167988 0.0432791,0.000427338 0.0602252,-0.00125254 -0.0475819,0.0975658 -0.0320356,0.137736 0.0122012,0.151823l0 0z"/>
   <circle id="_108112616" class="fil0 str0" cx="0.692448" cy="0.692448" r="0.19213"/>
   <path id="_108111224" class="fil0 str0" d="M0.693393 0.670317c-0.0323156,-0.0812385 -0.0733254,-0.109959 -0.109369,-0.0856887 -0.0220006,0.0301495 -0.00719107,0.0597979 0.0857035,0.108721 -0.070555,0.0353365 -0.109192,0.0752705 -0.0850551,0.109988 0.0320062,0.0140138 0.0676226,0.00481861 0.108721,-0.0850551 0.0263476,0.0457694 0.0489376,0.0972563 0.109354,0.0857035 0.0214259,-0.0504849 -0.0167988,-0.0768178 -0.0857035,-0.110636 0.0505586,-0.0329051 0.115352,-0.0661343 0.0850698,-0.109369 -0.0568655,-0.0303116 -0.0803986,0.0351302 -0.108721,0.0863371z"/>
   <path id="_108112040" class="fil0 str0" d="M0.87012 0.514869c-0.0131738,0.00204828 -0.0205565,-0.0097109 -0.0236952,-0.0227079 0.0325514,-0.0113466 0.0666795,-0.0296337 0.0866023,-0.0400225 -0.0104035,0.0199081 -0.0286169,0.0536236 -0.0399488,0.0861897 -0.012997,-0.00315346 -0.0250067,-0.0102856 -0.0229584,-0.0234594z"/>
   <path id="_108111344" class="fil0 str0" d="M0.514869 0.514781c0.00204828,0.0131738 -0.0097109,0.0205565 -0.0227079,0.0236952 -0.0113466,-0.0325514 -0.0296337,-0.0666795 -0.0400225,-0.0866023 0.0199081,0.0104035 0.0536236,0.0286169 0.0861897,0.0399488 -0.00315346,0.012997 -0.0102856,0.0250067 -0.0234594,0.0229584z"/>
   <path id="_108109904" class="fil0 str0" d="M0.514781 0.870032c0.0131738,-0.00204828 0.0205565,0.0097109 0.0236952,0.0227079 -0.0325514,0.0113466 -0.0666795,0.0296337 -0.0866023,0.0400225 0.0104035,-0.0199081 0.0286169,-0.0536236 0.0399488,-0.0861897 0.012997,0.00315346 0.0250067,0.0102856 0.0229584,0.0234594z"/>
   <path id="_108111632" class="fil0 str0" d="M0.870032 0.87012c-0.00204828,-0.0131738 0.0097109,-0.0205565 0.0227079,-0.0236952 0.0113466,0.0325514 0.0296337,0.0666795 0.0400225,0.0866023 -0.0199081,-0.0104035 -0.0536236,-0.0286169 -0.0861897,-0.0399488 0.00315346,-0.012997 0.0102856,-0.0250067 0.0234594,-0.0229584z"/>
  </g>
 </g>
</svg>
