<?xml version="1.0" encoding="UTF-8"?>
<!DOCTYPE svg PUBLIC "-//W3C//DTD SVG 1.1//EN" "http://www.w3.org/Graphics/SVG/1.1/DTD/svg11.dtd">
<!-- Creator: CorelDRAW -->
<svg xmlns="http://www.w3.org/2000/svg" xml:space="preserve" width="110px" height="110px" style="shape-rendering:geometricPrecision; text-rendering:geometricPrecision; image-rendering:optimizeQuality; fill-rule:evenodd; clip-rule:evenodd"
viewBox="0 0 0.353285 0.353285"
 xmlns:xlink="http://www.w3.org/1999/xlink">
 <defs>
  <style type="text/css">
   <![CDATA[
    .str0 {stroke:#4C4C4C;stroke-width:0.00318393}
    .fil0 {fill:none}
   ]]>
  </style>
 </defs>
 <g id="Plan_x0020_1">
  <metadata id="CorelCorpID_0Corel-Layer"/>
  <g id="_214755336">
   <rect id="_214755192" class="fil0 str0" x="0.00159572" y="0.00159573" width="0.350094" height="0.350094"/>
   <path id="_214755120" class="fil0 str0" d="M0.0196299 0.317055c0.00277795,-0.00348466 0.00206749,-0.00233814 0.000154122,-0.00624758 -0.0110254,-0.0225469 0.0256632,-0.050973 -0.00774369,-0.0703773 0.0232048,-0.00586791 0.0299786,0.00243588 0.0301703,0.0164234 0.000105254,0.00819478 -0.0217462,0.0482214 -0.00842408,0.0502475 0.0134349,0.00204118 0.0137883,-0.0404175 0.0185435,-0.0494807 0.0182766,-0.034824 0.0445788,-0.0602993 0.0971382,-0.0568109 0.00261631,0.000172917 0.00277795,-0.000285689 0.00296215,0.00234566 0.00374404,0.0530029 -0.0217989,0.079448 -0.0567657,0.0977998 -0.00906312,0.00475523 -0.0515181,0.00510858 -0.0494807,0.0185435 0.00202614,0.0133222 0.0420527,-0.00852933 0.0502475,-0.00842408 0.0139875,0.000191713 0.0222913,0.00696556 0.0164271,0.0301703 -0.0194081,-0.0334069 -0.0478304,0.00328167 -0.0703811,-0.00774369 -0.00390944,-0.00191337 -0.00275916,-0.00262007 -0.00624758,0.000154122 -0.0161264,0.0128485 -0.0294448,-0.000473643 -0.0166001,-0.0166001z"/>
   <path id="_214755048" class="fil0 str0" d="M0.317055 0.333655c-0.00348842,-0.00277795 -0.00233814,-0.00206749 -0.00624758,-0.000154122 -0.0225507,0.0110254 -0.050973,-0.0256632 -0.0703811,0.00774369 -0.00586415,-0.0232048 0.00243964,-0.0299786 0.0164271,-0.0301703 0.00819478,-0.000105254 0.0482214,0.0217462 0.0502475,0.00842408 0.00203742,-0.0134349 -0.0404175,-0.0137883 -0.0494807,-0.0185435 -0.034824,-0.0182766 -0.0602993,-0.0445788 -0.0568109,-0.0971382 0.000172917,-0.00261631 -0.000285689,-0.00277795 0.00234566,-0.00296215 0.0529992,-0.00374404 0.079448,0.0217989 0.0977998,0.0567657 0.00475523,0.00906312 0.00510858,0.0515218 0.0185435,0.0494807 0.0133222,-0.00202614 -0.00852933,-0.0420527 -0.00842408,-0.0502475 0.000191713,-0.0139875 0.00696556,-0.0222913 0.0301703,-0.0164234 -0.0334069,0.0194043 0.00328167,0.0478304 -0.00774369,0.0703773 -0.00191337,0.00390944 -0.00262383,0.00275916 0.000154122,0.00624758 0.0128485,0.0161264 -0.000473643,0.0294448 -0.0166001,0.0166001z"/>
   <path id="_214754976" class="fil0 str0" d="M0.333655 0.0362299c-0.00277795,0.00348842 -0.00206749,0.00233814 -0.000154122,0.00624758 0.0110254,0.0225507 -0.0256632,0.050973 0.00774369,0.0703811 -0.0232048,0.00586415 -0.0299786,-0.00243964 -0.0301703,-0.0164271 -0.000105254,-0.00819102 0.0217462,-0.0482214 0.00842408,-0.0502475 -0.0134349,-0.00203742 -0.0137883,0.0404175 -0.0185435,0.0494807 -0.0182766,0.034824 -0.0445788,0.0602993 -0.0971382,0.0568146 -0.00261631,-0.000176676 -0.00277795,0.00028193 -0.00296215,-0.00234942 -0.00374404,-0.0529992 0.0217989,-0.079448 0.0567657,-0.097796 0.00906312,-0.00475523 0.0515181,-0.00511234 0.0494807,-0.0185473 -0.00202614,-0.0133222 -0.0420527,0.00852933 -0.0502475,0.00842408 -0.0139875,-0.000187954 -0.0222913,-0.00696556 -0.0164271,-0.0301666 0.0194081,0.0334069 0.0478304,-0.00328543 0.0703811,0.00774369 0.00390944,0.00190961 0.00275916,0.00262007 0.00624758,-0.000157881 0.0161264,-0.0128485 0.0294448,0.000473643 0.0166001,0.0166001z"/>
   <path id="_214754904" class="fil0 str0" d="M0.0362299 0.0196299c0.00348842,0.00277795 0.00233814,0.00206749 0.00624758,0.000157881 0.0225507,-0.0110291 0.050973,0.0256632 0.0703811,-0.00774369 0.00586415,0.023201 -0.00243964,0.0299786 -0.0164271,0.0301666 -0.00819478,0.000105254 -0.0482214,-0.0217462 -0.0502475,-0.00842408 -0.00203742,0.0134349 0.0404175,0.013792 0.0494807,0.0185473 0.034824,0.0182728 0.0602993,0.0445751 0.0568109,0.0971344 -0.000172917,0.00261631 0.000285689,0.00277795 -0.00234566,0.00296591 -0.0529992,0.00374404 -0.079448,-0.0217989 -0.0977998,-0.0567695 -0.00475523,-0.00906312 -0.00510858,-0.0515181 -0.0185435,-0.0494807 -0.0133222,0.00202614 0.00852933,0.0420565 0.00842408,0.0502475 -0.000191713,0.0139875 -0.00696556,0.0222913 -0.0301703,0.0164271 0.0334069,-0.0194081 -0.00328167,-0.0478304 0.00774369,-0.0703811 0.00191337,-0.00390944 0.00262383,-0.00275916 -0.000154122,-0.00624758 -0.0128485,-0.0161264 0.000473643,-0.0294448 0.0166001,-0.0166001z"/>
   <path id="_214754832" class="fil0 str0" d="M0.205279 0.351691c0.000473643,-0.0042252 0.000947286,-0.00845039 0.00142469,-0.0126718 0.00093225,-0.00829251 0.000999913,-0.00751814 -0.00614984,-0.0118411 -0.00796923,-0.00482665 -0.0159422,-0.0096533 -0.0239115,-0.0144762 -0.00796923,0.00482289 -0.0159422,0.00964954 -0.0239152,0.0144762 -0.007146,0.00432293 -0.00708209,0.00354856 -0.00614608,0.0118411 0.000473643,0.00422144 0.000951045,0.00844664 0.00142469,0.0126718l0.0572732 0z"/>
   <path id="_214754760" class="fil0 str0" d="M0.351691 0.14801c-0.0042252,-0.000477402 -0.00845039,-0.000951045 -0.0126718,-0.00142845 -0.00829251,-0.00093225 -0.00751814,-0.000999913 -0.0118448,0.00614984 -0.00482289,0.00796923 -0.00964954,0.0159422 -0.0144724,0.0239115 0.00482289,0.00797299 0.00964954,0.0159422 0.0144724,0.0239152 0.00432669,0.00714976 0.00355232,0.00708209 0.0118448,0.00614608 0.00422144,-0.000473643 0.00844664,-0.000947286 0.0126718,-0.00142469l0 -0.0572695z"/>
   <path id="_214754688" class="fil0 str0" d="M0.148006 0.00159761c-0.000473643,0.00422144 -0.000947286,0.00844664 -0.00142469,0.0126718 -0.00093225,0.00828875 -0.000999913,0.00751439 0.00614984,0.0118411 0.00796923,0.00482289 0.0159422,0.00964954 0.0239115,0.0144762 0.00796923,-0.00482665 0.0159422,-0.0096533 0.0239152,-0.0144762 0.007146,-0.00432669 0.00708209,-0.00355232 0.00614608,-0.0118411 -0.000473643,-0.0042252 -0.000951045,-0.00845039 -0.00142469,-0.0126718l-0.0572732 0z"/>
   <path id="_214754616" class="fil0 str0" d="M0.00159385 0.205279c0.0042252,0.000473643 0.00845039,0.000951045 0.0126718,0.00142469 0.00829251,0.00093225 0.00751814,0.000999913 0.0118448,-0.00614984 0.00482289,-0.00796923 0.00964954,-0.0159385 0.0144724,-0.0239115 -0.00482289,-0.00796923 -0.00964954,-0.0159422 -0.0144724,-0.0239115 -0.00432669,-0.00714976 -0.00355232,-0.00708209 -0.0118448,-0.00614984 -0.00422144,0.000473643 -0.00844664,0.000951045 -0.0126718,0.00142469l0 0.0572732z"/>
   <path id="_214754544" class="fil0 str0" d="M0.17474 0.234795c-0.00353353,0.00559726 -0.00628893,0.0198592 -0.0126869,0.0312604 -0.0056574,0.0100856 -0.0150776,0.0190623 -0.0188818,0.0282269 -0.00286065,0.00690542 -0.00343203,0.013574 0.00512737,0.0142958 0.0117734,0.000988636 0.0174722,-0.0121644 0.0260842,-0.0173632 0.00204869,-0.00123673 0.00246971,-0.00123673 0.0045184,0 0.00861203,0.0051988 0.0143108,0.0183518 0.0260842,0.0173632 0.00855941,-0.000721742 0.00798803,-0.00739034 0.00512737,-0.0142958 -0.00380418,-0.00916462 -0.0132244,-0.0181413 -0.0188818,-0.0282269 -0.00639794,-0.0114013 -0.00914958,-0.0256632 -0.0126869,-0.0312604 -0.00152242,-0.00241332 -0.00228176,-0.00241332 -0.00380418,0z"/>
   <path id="_214754472" class="fil0 str0" d="M0.234792 0.178545c0.00560102,0.00353729 0.0198629,0.00629269 0.0312642,0.0126906 0.0100856,0.0056574 0.0190623,0.0150776 0.0282231,0.0188781 0.00690917,0.00286065 0.0135778,0.00343203 0.0142995,-0.00512737 0.000988636,-0.0117734 -0.0121644,-0.0174684 -0.0173669,-0.0260842 -0.00123298,-0.00204869 -0.00123298,-0.00246971 0,-0.0045184 0.00520256,-0.00861203 0.0183555,-0.0143108 0.0173669,-0.0260842 -0.000721742,-0.00855941 -0.00739034,-0.00798803 -0.0142995,-0.00512362 -0.00916086,0.00380042 -0.0181375,0.0132207 -0.0282231,0.0188781 -0.0114013,0.00639794 -0.0256632,0.00915334 -0.0312642,0.0126869 -0.00241332,0.00152242 -0.00240957,0.00228176 0,0.00380418z"/>
   <path id="_214754400" class="fil0 str0" d="M0.178545 0.118493c0.00353353,-0.00559726 0.00628893,-0.0198629 0.0126869,-0.0312642 0.0056574,-0.0100856 0.0150776,-0.0190623 0.0188818,-0.0282231 0.00286065,-0.00690542 0.00343203,-0.0135778 -0.00512737,-0.0142958 -0.0117734,-0.000992395 -0.0174722,0.0121644 -0.0260842,0.0173632 -0.00204869,0.00123673 -0.00246971,0.00123673 -0.0045184,0 -0.00861203,-0.0051988 -0.0143108,-0.0183555 -0.0260842,-0.0173632 -0.00855941,0.000717983 -0.00798803,0.00739034 -0.00512737,0.0142958 0.00380418,0.00916086 0.0132244,0.0181375 0.0188818,0.0282231 0.00639794,0.0114013 0.00914958,0.0256669 0.0126869,0.0312642 0.00152242,0.00241332 0.00228176,0.00240957 0.00380418,0z"/>
   <path id="_214754328" class="fil0 str0" d="M0.118493 0.17474c-0.00560102,-0.00353353 -0.0198629,-0.00628893 -0.0312642,-0.0126869 -0.0100856,-0.0056574 -0.0190623,-0.0150776 -0.0282231,-0.0188781 -0.00690917,-0.00286441 -0.0135778,-0.00343579 -0.0142995,0.00512362 -0.000988636,0.0117734 0.0121644,0.0174722 0.0173669,0.0260842 0.00123298,0.00204869 0.00123298,0.00246971 0,0.0045184 -0.00520256,0.00861579 -0.0183555,0.0143108 -0.0173669,0.0260842 0.000721742,0.00855941 0.00739034,0.00798803 0.0142995,0.00512737 0.00916086,-0.00380042 0.0181375,-0.0132207 0.0282231,-0.0188781 0.0114013,-0.00639794 0.0256632,-0.00915334 0.0312642,-0.0126906 0.00241332,-0.00152242 0.00240957,-0.00228176 0,-0.00380418z"/>
   <path id="_214754256" class="fil0 str0" d="M0.139292 0.177988c0.00736026,0.0027742 0.0159234,0.00336813 0.0223214,0.00920597 0.00151115,0.00137958 0.00310123,0.00296591 0.00447705,0.00447705 0.00583784,0.00639794 0.00643553,0.0149649 0.00920973,0.0223214 0.00132319,0.00351849 0.00136078,0.00351473 0.00268398,0 0.0027742,-0.00736026 0.00337189,-0.0159234 0.00920973,-0.0223214 0.00137958,-0.00151115 0.00296591,-0.00309748 0.00447705,-0.00447705 0.00639794,-0.00583784 0.0149611,-0.00643177 0.0223214,-0.00920597 0.00351473,-0.00132695 0.00351473,-0.00136078 0,-0.00268774 -0.00736026,-0.0027742 -0.0159234,-0.00337189 -0.0223214,-0.00920973 -0.00151115,-0.00137582 -0.00310123,-0.00296215 -0.00447705,-0.0044733 -0.00583784,-0.0064017 -0.00643553,-0.0149649 -0.00920973,-0.0223214 -0.00132319,-0.00351849 -0.00136078,-0.00351473 -0.00268398,0 -0.0027742,0.0073565 -0.00337189,0.0159197 -0.00920973,0.0223214 -0.00137958,0.00150739 -0.00296591,0.00309748 -0.00447705,0.0044733 -0.00639794,0.00583784 -0.0149611,0.00643553 -0.0223214,0.00920973 -0.00351097,0.00132319 -0.00351473,0.00136078 0,0.00268774z"/>
  </g>
 </g>
</svg>
