<?xml version="1.0" encoding="UTF-8"?>
<!DOCTYPE svg PUBLIC "-//W3C//DTD SVG 1.1//EN" "http://www.w3.org/Graphics/SVG/1.1/DTD/svg11.dtd">
<!-- Creator: CorelDRAW -->
<svg xmlns="http://www.w3.org/2000/svg" xml:space="preserve" width="111px" height="111px" style="shape-rendering:geometricPrecision; text-rendering:geometricPrecision; image-rendering:optimizeQuality; fill-rule:evenodd; clip-rule:evenodd"
viewBox="0 0 6.66549 6.66549"
 xmlns:xlink="http://www.w3.org/1999/xlink">
 <defs>
  <style type="text/css">
   <![CDATA[
    .str0 {stroke:#4C4C4C;stroke-width:0.0600725}
    .fil1 {fill:none}
    .fil0 {fill:white}
   ]]>
  </style>
 </defs>
 <g id="Capa_x0020_1">
  <metadata id="CorelCorpID_0Corel-Layer"/>
  <g id="_165034704">
   <polygon id="_112884888" class="fil0 str0" points="0.0301426,6.63535 6.63542,6.63535 6.63542,0.0300717 0.0301426,0.0300717 "/>
   <rect id="_112884840" class="fil0 str0" x="3.0436" y="3.04337" width="0.578331" height="0.57872"/>
   <polygon id="_112884792" class="fil0 str0" points="4.65764,2.00714 5.23595,2.00714 5.23595,1.42841 4.65764,1.42841 "/>
   <rect id="_112884744" class="fil0 str0" transform="matrix(3.98248E-015 -0.15037 0.15037 3.98248E-015 1.42846 2.00786)" width="3.84606" height="3.84868"/>
   <polygon id="_112884696" class="fil0 str0" points="1.42961,5.23701 2.00792,5.23701 2.00792,4.65828 1.42961,4.65828 "/>
   <rect id="_112884648" class="fil0 str0" transform="matrix(-1.1944E-014 0.15037 -0.15037 -1.1944E-014 5.23707 4.65758)" width="3.84606" height="3.84868"/>
   <path id="_112884600" class="fil0 str0" d="M4.65721 2.00743c-0.0174473,0.67328 -0.372775,1.00769 -1.03527,1.03591 0.0056739,-0.644697 0.38462,-0.959457 1.03527,-1.03591z"/>
   <path id="_112884552" class="fil0 str0" d="M2.0075 2.00828c0.67328,0.0174473 1.00769,0.372775 1.03591,1.03527 -0.644697,-0.0056739 -0.959528,-0.38462 -1.03591,-1.03527z"/>
   <path id="_112884504" class="fil0 str0" d="M2.00835 4.65799c0.0174473,-0.67328 0.372775,-1.00769 1.03527,-1.03591 -0.0056739,0.644697 -0.38462,0.959528 -1.03527,1.03591z"/>
   <path id="_112884456" class="fil0 str0" d="M4.65806 4.65714c-0.67328,-0.0174473 -1.00769,-0.372775 -1.03591,-1.03527 0.644697,0.0056739 0.959528,0.384549 1.03591,1.03527z"/>
   <path id="_112884408" class="fil0 str0" d="M6.27122 0.392492c-0.0174473,0.67328 -0.372775,1.00769 -1.03527,1.03591 0.00574483,-0.644768 0.38462,-0.959528 1.03527,-1.03591z"/>
   <path id="_112884360" class="fil0 str0" d="M0.392563 0.394265c0.67328,0.0174473 1.00769,0.372775 1.03591,1.03527 -0.644768,-0.00574483 -0.959599,-0.38462 -1.03591,-1.03527z"/>
   <path id="_112884312" class="fil0 str0" d="M0.394336 6.27293c0.0174473,-0.67328 0.372775,-1.00769 1.03527,-1.03591 -0.00574483,0.644697 -0.38462,0.959599 -1.03527,1.03591z"/>
   <path id="_112884264" class="fil0 str0" d="M6.273 6.27115c-0.67328,-0.0174473 -1.00769,-0.372775 -1.03591,-1.03527 0.644768,0.00574483 0.959528,0.38462 1.03591,1.03527z"/>
   <path id="_112884216" class="fil0 str0" d="M0.442068 3.15966c0,0.117521 0,0.235041 0,0.352491 0.391712,0.0352491 0.722004,0.224119 0.94279,0.686613 0.12057,-0.0853923 0.180076,-0.256319 0.178515,-0.512637 0.282277,-0.0152486 0.511077,-0.0991515 0.622427,-0.334193 -0.218729,-0.267666 -0.440011,-0.310079 -0.622427,-0.320434 -0.0165252,-0.370506 -0.0900023,-0.441926 -0.160217,-0.531006 -0.133479,0.473487 -0.485899,0.649662 -0.961088,0.659166l0 0z"/>
   <path id="_112884168" class="fil0 str0" d="M6.14115 3.15966c0,0.117521 0,0.235041 0,0.352491 -0.391712,0.0352491 -0.722004,0.224119 -0.94279,0.686613 -0.1205,-0.0853923 -0.180076,-0.256319 -0.178586,-0.512637 -0.282206,-0.0152486 -0.511006,-0.0991515 -0.622356,-0.334193 0.218658,-0.267666 0.43994,-0.310079 0.622356,-0.320434 -0.0500013,-0.176955 0.0263127,-0.353981 0.160288,-0.531006 0.133408,0.473487 0.485899,0.649662 0.961017,0.659166l7.09238e-005 0z"/>
   <path id="_112884120" class="fil0 str0" d="M3.12157 0.44377c0.117521,0 0.234971,0 0.35242,0 0.0353201,0.391783 0.224048,0.722075 0.686542,0.943003 -0.0854632,0.1205 -0.256319,0.180005 -0.512566,0.178515 -0.0152486,0.282277 -0.0991515,0.511219 -0.334122,0.62264 -0.267595,-0.218871 -0.310079,-0.440224 -0.320363,-0.62264 -0.228729,0.0500722 -0.394194,-0.0263127 -0.530936,-0.160217 0.473345,-0.133479 0.64952,-0.48597 0.659024,-0.961301z"/>
   <path id="_112884072" class="fil0 str0" d="M3.12157 6.24555c0.117521,0 0.234971,0 0.35242,0 0.0353201,-0.391783 0.224048,-0.722146 0.686542,-0.943003 -0.0854632,-0.1205 -0.256319,-0.180005 -0.512566,-0.178515 -0.0152486,-0.282277 -0.0991515,-0.511148 -0.334122,-0.622569 -0.267595,0.2188 -0.310079,0.440082 -0.320363,0.622569 -0.280504,-0.0500722 -0.434408,0.0263127 -0.530936,0.160217 0.473345,0.133479 0.64952,0.48597 0.659024,0.961301z"/>
   <rect id="_112884024" class="fil1 str0" x="6.27124" y="0.0300593" width="0.364217" height="0.36243"/>
   <polygon id="_112883976" class="fil1 str0" points="0.392563,0.394265 0.392563,0.0300717 0.0300717,0.0300717 0.0300717,0.394265 "/>
   <polygon id="_112883928" class="fil1 str0" points="0.0301426,6.63535 0.394336,6.63535 0.394336,6.27293 0.0301426,6.27293 "/>
   <polygon id="_112883880" class="fil1 str0" points="6.273,6.27115 6.273,6.63542 6.63542,6.63542 6.63542,6.27115 "/>
   <polygon id="_118202176" class="fil1 str0" points="4.65835,4.65757 5.23708,4.65757 5.23708,5.23588 4.65835,5.23588 "/>
   <polygon id="_118213912" class="fil1 str0" points="2.00721,1.42954 1.42848,1.42954 1.42848,2.00785 2.0075,2.00828 "/>
  </g>
 </g>
</svg>
