<?xml version="1.0" encoding="UTF-8"?>
<!DOCTYPE svg PUBLIC "-//W3C//DTD SVG 1.1//EN" "http://www.w3.org/Graphics/SVG/1.1/DTD/svg11.dtd">
<!-- Creator: CorelDRAW -->
<svg xmlns="http://www.w3.org/2000/svg" xml:space="preserve" width="110px" height="110px" style="shape-rendering:geometricPrecision; text-rendering:geometricPrecision; image-rendering:optimizeQuality; fill-rule:evenodd; clip-rule:evenodd"
viewBox="0 0 0.570514 0.570441"
 xmlns:xlink="http://www.w3.org/1999/xlink">
 <defs>
  <style type="text/css">
   <![CDATA[
    .str0 {stroke:#605D5C;stroke-width:0.00514185}
    .fil0 {fill:none}
   ]]>
  </style>
 </defs>
 <g id="Plan_x0020_1">
  <metadata id="CorelCorpID_0Corel-Layer"/>
  <g id="_251135816">
   <path id="_235016688" class="fil0 str0" d="M0.56794 0.00270751l-0.565372 -0.000145696 0.00184548 0.562434 0.559945 0.00287142 0.00358169 -0.56516zm-0.355801 0.363942c0.0979743,0.026462 0.195627,0.0764235 0.298567,0.145635 -0.0688898,-0.10342 -0.121146,-0.205073 -0.147487,-0.303496 -0.0983689,-0.0263588 -0.203331,-0.0804423 -0.306684,-0.149375 0.0691691,0.103001 0.129159,0.209201 0.155603,0.307236z"/>
   <path id="_235016616" class="fil0 str0" d="M0.566508 0.00316888l-0.226818 0.000540288c0.00233113,0.0653506 0.0152009,0.127132 0.0355073,0.189927 0.0627585,0.0203185 0.125754,0.0342931 0.191062,0.0366243l0.000248897 -0.227091z"/>
   <path id="_235016544" class="fil0 str0" d="M0.00498401 0.565864l0.225628 -0.000267109c-0.00231899,-0.0656177 -0.0128212,-0.127939 -0.0330426,-0.190989 -0.0630134,-0.0202335 -0.127156,-0.0326055 -0.192731,-0.0349245l0.000145696 0.226181z"/>
   <path id="_235016472" class="fil0 str0" d="M0.56485 0.565888l-0.321799 -0.000115342c-0.000807397,-0.0636266 -0.00976162,-0.12372 -0.0316706,-0.189277 0.115185,0.039004 0.231353,0.0985328 0.353409,0.188263 -0.000315674,0.00092274 4.24946e-005,-0.000194261 6.07066e-005,0.00112914zm0.000376381 -0.000971305l0.00101987 -0.323942c-0.0633352,-0.000807397 -0.126112,-0.0129791 -0.191359,-0.0349913 0.0388097,0.115707 0.100906,0.236331 0.190224,0.358976 -0.00100166,0.000157837 -0.00064956,0.000267109 0.000115342,-4.24946e-005z"/>
   <path id="_235016400" class="fil0 str0" d="M0.00454692 0.00577319l0.000115342 0.321466c0.0635841,0.000801327 0.127205,0.0115464 0.192719,0.0334675 -0.0389433,-0.115142 -0.101878,-0.233028 -0.191438,-0.355048 -0.000849892,0.000230685 0.000613136,-3.03533e-005 -0.00139625,0.000115342zm0.000959164 -0.00197296l0.321969 -0.000546359c0.000807397,0.0633716 0.0115889,0.126774 0.0335829,0.192063 -0.115585,-0.0388219 -0.232949,-0.100925 -0.355431,-0.190236 0.00107451,-0.000692055 0.000364239,9.10599e-005 -0.000121413,-0.00128091z"/>
  </g>
 </g>
</svg>
