<?xml version="1.0" encoding="UTF-8"?>
<!DOCTYPE svg PUBLIC "-//W3C//DTD SVG 1.1//EN" "http://www.w3.org/Graphics/SVG/1.1/DTD/svg11.dtd">
<!-- Creator: CorelDRAW -->
<svg xmlns="http://www.w3.org/2000/svg" xml:space="preserve" width="110px" height="110px" style="shape-rendering:geometricPrecision; text-rendering:geometricPrecision; image-rendering:optimizeQuality; fill-rule:evenodd; clip-rule:evenodd"
viewBox="0 0 0.509651 0.509635"
 xmlns:xlink="http://www.w3.org/1999/xlink">
 <defs>
  <style type="text/css">
   <![CDATA[
    .str0 {stroke:#605D5C;stroke-width:0.00459326}
    .fil0 {fill:white}
   ]]>
  </style>
 </defs>
 <g id="Plan_x0020_1">
  <metadata id="CorelCorpID_0Corel-Layer"/>
  <g id="_202886096">
   <polygon id="_202910360" class="fil0 str0" points="0.00244576,0.507341 0.00244576,0.00239153 0.50733,0.00239153 0.50733,0.507341 "/>
   <polygon id="_202904408" class="fil0 str0" points="0.00244576,0.00239153 0.00244576,0.507347 0.50733,0.507347 0.50733,0.00239153 "/>
   <polygon id="_202899200" class="fil0 str0" points="0.507206,0.507238 0.507206,0.0022885 0.00232103,0.0022885 0.00232103,0.507238 "/>
   <path id="_202892024" class="fil0 str0" d="M0.0872937 0.271794c-0.0277006,0.00478307 -0.0567081,0.00533621 -0.0849997,0.00197396l0.000151843 0.0443383c0.0419955,0 0.0841158,-0.00836223 0.123422,-0.0250216 -0.0124945,-0.00815074 -0.0253958,-0.0152331 -0.0385736,-0.0212906z"/>
   <path id="_202893080" class="fil0 str0" d="M0.422358 0.237836c0.0277006,-0.00478307 0.0567081,-0.00533079 0.0849943,-0.00197396l-0.00014642 -0.0443383c-0.0419955,0 -0.0841158,0.00836223 -0.123422,0.0250216 0.0124945,0.00815074 0.0253958,0.0152331 0.0385736,0.0212906z"/>
   <path id="_202889624" class="fil0 str0" d="M0.27174 0.0873154c0.00478307,-0.027706 0.00533621,-0.0567189 0.00197396,-0.0850106l0.0443383 0.00014642c0,0.042001 -0.00836765,0.0841321 -0.0250216,0.123443 -0.00814531,-0.0125 -0.0152331,-0.0254012 -0.0212906,-0.0385791z"/>
   <path id="_202910408" class="fil0 str0" d="M0.237911 0.422314c-0.00478307,0.027706 -0.00533621,0.0567189 -0.00197939,0.0850106l-0.0443328 -0.00014642c0,-0.042001 0.00836765,-0.0841321 0.0250216,-0.123443 0.00814531,0.0125 0.0152331,0.0254012 0.0212906,0.0385791z"/>
   <path id="_202904456" class="fil0 str0" d="M0.507189 0.273768c-0.0645117,-0.00766267 -0.129262,-0.0378958 -0.181285,-0.0899238 -0.0520226,-0.052028 -0.0822557,-0.116789 -0.0899184,-0.181306l-0.0443328 -0.00014642c0,0.0808078 0.0231561,0.169278 0.0847883,0.230916 0.0610465,0.0610573 0.149924,0.0842134 0.229951,0.0847937l0.000797178 -0.0443328z"/>
   <path id="_202899272" class="fil0 str0" d="M0.00244576 0.235818c0.0645063,0.00766267 0.129257,0.0378958 0.181279,0.0899238 0.0520226,0.052028 0.0822557,0.116789 0.0899184,0.181306l0.0443328 0.00014642c0,-0.0808078 -0.0231615,-0.169278 -0.0847937,-0.230916 -0.0610465,-0.0610573 -0.149913,-0.0842134 -0.229945,-0.0847937l-0.000791755 0.0443328z"/>
   <path id="_202890776" class="fil0 str0" d="M0.228204 0.189924c-0.00545009,0.00709868 -0.0115076,0.0138557 -0.0179555,0.0203036 -0.00654553,0.00654011 -0.013449,0.0125705 -0.020667,0.0180856 0.00653469,0.00393166 0.0130314,0.00849238 0.0193492,0.0129555 0.00572666,-0.00497287 0.0113123,-0.0101789 0.0167407,-0.0156182 0.00538502,-0.00540671 0.0105423,-0.0109598 0.0154663,-0.0166431 -0.00437634,-0.00595443 -0.00894249,-0.012744 -0.0129338,-0.0190835z"/>
   <path id="_202895144" class="fil0 str0" d="M0.281447 0.319706c0.00545009,-0.00709868 0.0115076,-0.0138557 0.0179555,-0.0203036 0.00654011,-0.00654011 0.013449,-0.0125705 0.020667,-0.0180856 -0.00653469,-0.00393166 -0.0130314,-0.00849238 -0.0193492,-0.0129501 -0.00572666,0.00496745 -0.0113123,0.0101735 -0.0167407,0.0156128 -0.00538502,0.00540671 -0.0105423,0.0109598 -0.0154663,0.0166431 0.00437634,0.00595443 0.00894249,0.012744 0.0129338,0.0190835z"/>
  </g>
 </g>
</svg>
