<?xml version="1.0" encoding="UTF-8"?>
<!DOCTYPE svg PUBLIC "-//W3C//DTD SVG 1.1//EN" "http://www.w3.org/Graphics/SVG/1.1/DTD/svg11.dtd">
<!-- Creator: CorelDRAW -->
<svg xmlns="http://www.w3.org/2000/svg" xml:space="preserve" width="110px" height="110px" style="shape-rendering:geometricPrecision; text-rendering:geometricPrecision; image-rendering:optimizeQuality; fill-rule:evenodd; clip-rule:evenodd"
viewBox="0 0 1.17807 1.17812"
 xmlns:xlink="http://www.w3.org/1999/xlink">
 <defs>
  <style type="text/css">
   <![CDATA[
    .str0 {stroke:#4C4C4C;stroke-width:0.0106175}
    .fil0 {fill:white}
   ]]>
  </style>
 </defs>
 <g id="Capa_x0020_1">
  <metadata id="CorelCorpID_0Corel-Layer"/>
  <g id="_203597952">
   <polygon id="_203598192" class="fil0 str0" points="1.17275,0.00531502 1.17275,1.17276 0.00531502,1.17276 0.00531502,0.00531502 "/>
   <path id="_203598144" class="fil0 str0" d="M0.298293 0.726391c-0.00272019,-0.0374559 -0.0186277,-0.0692332 -0.0377066,-0.0891019 -0.0476346,-0.0495275 -0.121305,-0.0625267 -0.178317,-0.0308873 -0.0864318,0.0479731 -0.104621,0.159238 -0.0315517,0.232382 0.0147041,0.0144659 0.0292076,0.0243689 0.0486124,0.0315893 0.0110312,0.00411162 0.0236544,0.00734576 0.0388097,0.0100534 -0.00764661,0.00154186 -0.030085,0.00755887 -0.0378821,0.0105924 -0.0973251,0.0379071 -0.129729,0.165267 -0.0470705,0.241733 0.0111064,0.0102665 0.0236669,0.0188909 0.0369545,0.0257102 0.0537269,0.027603 0.123712,0.0137639 0.165618,-0.0283426 0.00797254,-0.00799761 0.0155941,-0.017675 0.0221376,-0.0289443 0.0101913,-0.0174995 0.0150049,-0.0357385 0.0201444,-0.063843 0.00852409,0.0246447 0.0039988,0.036077 0.0207837,0.0642441 0.00635546,0.0106426 0.0139018,0.0203074 0.0220874,0.0285306 0.0416803,0.0418433 0.111214,0.0559456 0.164778,0.0288064 0.0198937,-0.0100785 0.0381328,-0.0240054 0.0524106,-0.0415926 0.0378194,-0.0440871 0.0414296,-0.109372 0.0137012,-0.159438 -0.00686942,-0.0138015 -0.0155439,-0.0245318 -0.0287688,-0.0371926 -0.0304486,-0.0291323 -0.0506682,-0.0311505 -0.0888637,-0.0392234 0.0716024,-0.0218869 0.120403,-0.0482489 0.133076,-0.129967 0.0142779,-0.0921605 -0.0631786,-0.162697 -0.144508,-0.162384 -0.0803271,0.00030085 -0.134317,0.0590294 -0.144446,0.137276z"/>
   <path id="_203598096" class="fil0 str0" d="M0.298293 0.142666c-0.00272019,-0.0374433 -0.0186277,-0.0692332 -0.0377066,-0.0891019 -0.0476346,-0.0495275 -0.121305,-0.0625267 -0.178317,-0.0308873 -0.0864318,0.0479731 -0.104621,0.159238 -0.0315517,0.232382 0.0147041,0.0144659 0.0292076,0.0243689 0.0486124,0.0316018 0.0110312,0.00409909 0.0236544,0.00733323 0.0388097,0.0100409 -0.00764661,0.00154186 -0.030085,0.0075714 -0.0378821,0.0105924 -0.0973251,0.0379071 -0.129729,0.165267 -0.0470705,0.241733 0.0111064,0.0102665 0.0236669,0.0188909 0.0369545,0.0257102 0.0537269,0.027603 0.123712,0.0137639 0.165618,-0.0283426 0.00797254,-0.00799761 0.0155941,-0.017675 0.0221376,-0.0289443 0.0101913,-0.0174995 0.0150049,-0.0357385 0.0201444,-0.063843 0.00852409,0.0246447 0.0039988,0.036077 0.0207837,0.0642441 0.00635546,0.0106551 0.0139018,0.0203074 0.0220874,0.0285306 0.0416803,0.0418433 0.111214,0.0559456 0.164778,0.0288064 0.0198937,-0.0100785 0.0381328,-0.0240054 0.0524106,-0.0415926 0.0383334,-0.042984 0.0421817,-0.107867 0.0137012,-0.159438 -0.00686942,-0.013789 -0.0155439,-0.0245318 -0.0287688,-0.0371926 -0.0304486,-0.0291323 -0.0506682,-0.0311505 -0.0888637,-0.0392234 0.0716024,-0.0218869 0.120403,-0.0482489 0.133076,-0.129967 0.0142779,-0.0921605 -0.0631786,-0.162697 -0.144508,-0.162384 -0.0803271,0.00030085 -0.134317,0.0590294 -0.144446,0.137276z"/>
   <path id="_203598048" class="fil0 str0" d="M0.882018 0.142666c-0.00273272,-0.0374559 -0.0186277,-0.0692332 -0.0377191,-0.0891019 -0.0476221,-0.0495275 -0.121305,-0.0625267 -0.178304,-0.0308873 -0.0864318,0.0479731 -0.104621,0.159238 -0.0315517,0.232394 0.0147041,0.0144534 0.029195,0.0243563 0.0485999,0.0315768 0.0110437,0.00411162 0.0236669,0.00734576 0.0388222,0.010066 -0.00764661,0.00152932 -0.030085,0.00754633 -0.0378821,0.0105799 -0.0973251,0.0379071 -0.129729,0.165267 -0.0470705,0.241733 0.0111064,0.0102665 0.0236669,0.0188909 0.0369545,0.0257102 0.0537269,0.027603 0.1237,0.0137639 0.165618,-0.0283426 0.00797254,-0.00799761 0.0155941,-0.0176624 0.0221376,-0.0289443 0.0101913,-0.0174995 0.0150049,-0.0357385 0.0201444,-0.063843 0.00852409,0.0246447 0.00398627,0.036077 0.0207712,0.0642441 0.00635546,0.0106426 0.0139143,0.0203074 0.0221,0.0285306 0.0416803,0.0418433 0.111214,0.0559331 0.164778,0.0288064 0.0198937,-0.0100785 0.0381328,-0.0240054 0.0524106,-0.0415926 0.0357385,-0.0440871 0.0386593,-0.109372 0.0137012,-0.159438 -0.00686942,-0.0138015 -0.0155439,-0.0245318 -0.0287688,-0.0371926 -0.0304486,-0.0291323 -0.0506808,-0.0311505 -0.0888637,-0.0392234 0.0716024,-0.0218869 0.120403,-0.0482363 0.133064,-0.129967 0.0142904,-0.0921605 -0.063166,-0.162697 -0.144496,-0.162384 -0.0803271,0.00030085 -0.134317,0.0590294 -0.144446,0.137276z"/>
   <path id="_203598000" class="fil0 str0" d="M0.882018 0.726391c-0.00273272,-0.0374559 -0.0186277,-0.0692332 -0.0377191,-0.0891019 -0.0476221,-0.0495275 -0.121305,-0.0625267 -0.178304,-0.0308873 -0.0864318,0.0479731 -0.104621,0.159238 -0.0315517,0.232382 0.0147041,0.0144659 0.029195,0.0243689 0.0485999,0.0315893 0.0110437,0.00411162 0.0236669,0.00734576 0.0388222,0.0100534 -0.00764661,0.00154186 -0.030085,0.00755887 -0.0378821,0.0105924 -0.0973251,0.0379071 -0.129729,0.165267 -0.0470705,0.241733 0.0111064,0.0102665 0.0236669,0.0188909 0.0369545,0.0257102 0.0537269,0.027603 0.1237,0.0137639 0.165618,-0.0283551 0.00797254,-0.00798507 0.0155941,-0.0176624 0.0221376,-0.0289318 0.0101913,-0.0174995 0.0150049,-0.0357385 0.0201444,-0.063843 0.00852409,0.0246447 0.00398627,0.036077 0.0207712,0.0642441 0.00635546,0.0106426 0.0139143,0.0203074 0.0221,0.0285306 0.0416803,0.0418433 0.111214,0.0559331 0.164778,0.0288064 0.0198937,-0.0100785 0.0381328,-0.0240054 0.0524106,-0.0415926 0.0357385,-0.0440871 0.0386593,-0.109372 0.0137012,-0.159438 -0.00686942,-0.0138015 -0.0155439,-0.0245318 -0.0287688,-0.0371926 -0.0304486,-0.0291449 -0.0506808,-0.0311505 -0.0888637,-0.0392234 0.0716024,-0.0218869 0.120403,-0.0482489 0.133064,-0.129967 0.0142904,-0.0921605 -0.063166,-0.162697 -0.144496,-0.162384 -0.0803271,0.00030085 -0.134317,0.0590294 -0.144446,0.137276z"/>
  </g>
 </g>
</svg>
