<?xml version="1.0" encoding="UTF-8"?>
<!DOCTYPE svg PUBLIC "-//W3C//DTD SVG 1.1//EN" "http://www.w3.org/Graphics/SVG/1.1/DTD/svg11.dtd">
<!-- Creator: CorelDRAW -->
<svg xmlns="http://www.w3.org/2000/svg" xml:space="preserve" width="110px" height="110px" style="shape-rendering:geometricPrecision; text-rendering:geometricPrecision; image-rendering:optimizeQuality; fill-rule:evenodd; clip-rule:evenodd"
viewBox="0 0 0.487662 0.487662"
 xmlns:xlink="http://www.w3.org/1999/xlink">
 <defs>
  <style type="text/css">
   <![CDATA[
    .str0 {stroke:#605D5C;stroke-width:0.00439499}
    .fil0 {fill:white}
   ]]>
  </style>
 </defs>
 <g id="Plan_x0020_1">
  <metadata id="CorelCorpID_0Corel-Layer"/>
  <g id="_202889576">
   <polygon id="_202880312" class="fil0 str0" points="0.00220009,0.00220528 0.485457,0.00220528 0.485457,0.485462 0.00220009,0.485462 "/>
   <polygon id="_202891592" class="fil0 str0" points="0.225525,0.243826 0.0952214,0.37414 0.00220528,0.37414 0.00220528,0.400894 0.0867738,0.400894 0.0867738,0.485462 0.113523,0.485462 0.113523,0.392441 0.243836,0.262138 0.37414,0.392441 0.37414,0.485462 0.400894,0.485462 0.400894,0.400889 0.485457,0.400889 0.485457,0.37414 0.392441,0.37414 0.262138,0.243826 0.392441,0.113523 0.485457,0.113523 0.485457,0.0867687 0.400889,0.0867687 0.400889,0.00220009 0.37414,0.00220009 0.37414,0.0952214 0.243826,0.225525 0.113523,0.0952214 0.113523,0.00220009 0.0867687,0.00220009 0.0867687,0.0867738 0.00220528,0.0867738 0.00220528,0.113523 0.0952214,0.113523 "/>
   <path id="_202879880" class="fil0 str0" d="M0.00220528 0.217072c0.118644,0 0.214867,-0.0962176 0.214867,-0.214872l0.0535182 0c0,0.118649 0.0962176,0.214872 0.214867,0.214872l0 0.0535182c-0.118644,0 -0.214867,0.0962176 -0.214867,0.214872l-0.0535182 0c0,-0.118649 -0.0962176,-0.214872 -0.214867,-0.214872l0 -0.0535182zm0.241621 0.163886c0.0265671,-0.0613327 0.0757941,-0.110555 0.137127,-0.137122 -0.0613275,-0.0265671 -0.11056,-0.0757993 -0.137127,-0.137132 -0.0265671,0.0613275 -0.075789,0.110565 -0.137122,0.137132 0.0613327,0.0265671 0.110555,0.0757838 0.137122,0.137122z"/>
  </g>
 </g>
</svg>
