<?xml version="1.0" encoding="UTF-8"?>
<!DOCTYPE svg PUBLIC "-//W3C//DTD SVG 1.1//EN" "http://www.w3.org/Graphics/SVG/1.1/DTD/svg11.dtd">
<!-- Creator: CorelDRAW -->
<svg xmlns="http://www.w3.org/2000/svg" xml:space="preserve" width="110px" height="110px" style="shape-rendering:geometricPrecision; text-rendering:geometricPrecision; image-rendering:optimizeQuality; fill-rule:evenodd; clip-rule:evenodd"
viewBox="0 0 1.66496 1.66493"
 xmlns:xlink="http://www.w3.org/1999/xlink">
 <defs>
  <style type="text/css">
   <![CDATA[
    .str0 {stroke:#4C4C4C;stroke-width:0.0150053}
    .fil0 {fill:none}
   ]]>
  </style>
 </defs>
 <g id="Capa_x0020_1">
  <metadata id="CorelCorpID_0Corel-Layer"/>
  <g id="_196833392">
   <polygon id="_110107744" class="fil0 str0" points="1.65745,1.65733 1.65745,0.00751149 0.00751149,0.00751149 0.00751149,1.65733 "/>
   <path id="_110107696" class="fil0 str0" d="M0.00752921 0.00752921l0.000442894 1.59302c0.0831579,0.00568677 0.17055,-0.00170071 0.307847,-0.163853 0.110033,0 0.220065,0 0.330098,0 -0.00993855,-0.283683 0.0719969,-0.465535 0.304215,-0.485554 0.0200188,-0.232183 0.202757,-0.314933 0.486458,-0.304977 0,-0.110033 0,-0.220048 0,-0.33008 0.162153,-0.13728 0.169558,-0.224672 0.163871,-0.307829l-1.59293 -0.000726347z"/>
   <path id="_110107648" class="fil0 str0" d="M0.00752921 0.00752921l1.49663 0.000726347c0.00756464,0.10199 -0.0460787,0.177583 -0.189169,0.267296 0,0.0900847 0,0.180152 0,0.270236 -0.199604,0.0137652 -0.386434,0.0566019 -0.456199,0.313729 -0.257127,0.0697647 -0.299485,0.255993 -0.31325,0.455579 -0.0900847,0 -0.180187,0 -0.270272,0 -0.0897127,0.14309 -0.165306,0.196734 -0.267296,0.189151l-0.000442894 -1.49672z"/>
   <path id="_110107600" class="fil0 str0" d="M0.5308 0.558703l-0.0652649 0.0662924 0.0327033 0.0824315c0.0138715,0.0684715 -0.00389747,0.127217 -0.0351658,0.218347 -0.0441832,0.128758 -0.0263965,0.169062 -0.0386381,0.227931 -0.0346875,0.000230305 -0.069375,0.000478326 -0.104062,0.000708631 -0.0620761,-0.13914 -0.171276,-0.20646 -0.312719,-0.224672l0.00333057 -0.922213 0.918616 0.000425179c0.0182118,0.141425 0.0855495,0.250607 0.224689,0.312683 -0.000230305,0.0346875 -0.000478326,0.069375 -0.000708631,0.104062 -0.0588695,0.0122416 -0.0991729,-0.00556275 -0.227949,0.0386381 -0.09113,0.0312683 -0.149893,0.0490196 -0.218365,0.0351658l-0.0824315 -0.032721 -0.0662924 0.0652649c-0.06158,-0.0592593 -0.12316,-0.118519 -0.18474,-0.17776 0.0105763,-0.0125959 0.0211881,-0.0251741 0.0317821,-0.0377523 -0.0333588,-0.0211704 -0.0649815,-0.0446969 -0.0903859,-0.076479 -0.0304711,-0.0484704 -0.00593479,-0.0832996 0.0277961,-0.0665405 0.0294791,0.00993855 0.0576294,0.0268217 0.0764967,0.0446969 0.0892344,-0.0465748 -0.176573,-0.238986 -0.198647,-0.0655661 -0.0172197,-0.0542989 -0.0542811,-0.0854078 -0.135083,-0.0655484 -0.0198771,0.080784 0.0113204,0.117704 0.0656192,0.134923 -0.173437,0.0220916 0.0189736,0.287864 0.0655484,0.198629 -0.0178752,-0.0188673 -0.0347584,-0.047 -0.0446969,-0.0764613 -0.0167768,-0.0337486 0.0180701,-0.0582849 0.0665582,-0.0278138 0.0317998,0.0254044 0.0552909,0.0570094 0.076479,0.0903859 0.0125782,-0.010594 0.0251564,-0.0212058 0.0377346,-0.0317821 0.0592593,0.0615623 0.118536,0.123142 0.177796,0.184722z"/>
   <path id="_110107552" class="fil0 str0" d="M1.6574 1.6572l-0.45262 0.000230305c0.0306306,-0.269333 0.191897,-0.420838 0.45262,-0.453311l0 0.453081z"/>
   <path id="_110107504" class="fil0 str0" d="M1.34392 1.34442c-0.0906339,0.0871616 -0.124258,0.19622 -0.140043,0.31279 -0.0259713,3.54316e-005 -0.0519427,5.31473e-005 -0.077914,8.85789e-005 0.00783037,-0.137935 0.0536257,-0.264922 0.154942,-0.376159 0.111237,-0.101299 0.238348,-0.147112 0.376301,-0.15496 -3.54316e-005,0.0259713 -5.31473e-005,0.0519249 -8.85789e-005,0.0778963 -0.11657,0.0157848 -0.226036,0.0497105 -0.313197,0.140344z"/>
   <path id="_110107456" class="fil0 str0" d="M1.2809 1.28117c-0.0943897,0.102645 -0.14596,0.227825 -0.154907,0.375876 -0.032721,7.08631e-005 -0.0654598,0.000159442 -0.0981808,0.000248021 0.00396833,-0.177866 0.0637768,-0.327334 0.179904,-0.449113 0.121796,-0.116127 0.271618,-0.176183 0.449485,-0.180152 -8.85789e-005,0.032721 -0.000159442,0.0654598 -0.000248021,0.0981986 -0.148051,0.00891104 -0.273408,0.0605702 -0.376053,0.154942z"/>
   <path id="_110107408" class="fil0 str0" d="M0.882015 1.11113c0.0964801,0.0362819 0.025369,0.154039 -0.0555567,0.104275 -0.045937,-0.0401085 -0.0550784,-0.140628 0.0510214,-0.194944 0.270148,-0.0570802 0.2623,0.294596 0.0676034,0.327724 -0.167202,0.0284693 -0.18986,0.128138 -0.166227,0.164863 0.0309318,0.0552024 0.0789238,0.0544229 0.0906871,0.0310558 -0.10959,-0.0944605 0.0931319,-0.158131 0.0979328,-0.0362642 -0.0103106,0.115117 -0.11928,0.126331 -0.180683,0.107677 -0.145216,-0.0729004 -0.108527,-0.234716 -0.0158733,-0.285632 0.0901556,-0.0367071 0.176201,-0.0656015 0.203997,-0.102468 0.0737331,-0.0996158 -0.0468051,-0.178717 -0.0929015,-0.116286z"/>
   <path id="_110107360" class="fil0 str0" d="M0.00772408 1.15762c0.0196291,-0.0126491 0.0392405,-0.0218436 0.0588695,-0.0260245 0.0418801,-0.0155722 0.0565665,0.0198417 0.0370791,0.0402502 -0.0287527,0.03017 -0.0450867,0.0789769 0.0254221,0.0667353 0.0247135,-0.00846814 0.049427,-0.016954 0.0741405,-0.0254221 0,0.0420218 0,0.0840259 0,0.126048 -0.0247135,-0.00635996 -0.049427,-0.0127199 -0.0741405,-0.0190622 -0.0535017,-0.00554504 -0.0605702,0.025741 -0.0180169,0.0624836 0.0167768,0.0427305 -0.00299397,0.0540154 -0.0370614,0.0487184 -0.0221624,-0.00352544 -0.0443249,-0.0148281 -0.0664873,-0.0296562 7.08631e-005,-0.0813509 0.000141726,-0.162719 0.000194874,-0.24407z"/>
   <path id="_110107312" class="fil0 str0" d="M0.00765322 1.0073c0.139848,0.0149875 0.216062,0.104222 0.265187,0.225061 0.0676743,7.08631e-005 0.135349,0.00012401 0.203041,0.000177158 0.0401971,-0.137793 0.0755224,-0.274347 0.104328,-0.376655 0.0249792,-0.0887206 0.0188142,-0.166103 -0.0161214,-0.211048 -0.0220916,0.0206212 -0.043758,0.0419687 -0.0658496,0.0625898 0.0138715,0.0684715 -0.00389747,0.127217 -0.0351658,0.218347 -0.0441832,0.128758 -0.0263965,0.169062 -0.0386381,0.227931 -0.0346875,0.000230305 -0.069375,0.000478326 -0.104062,0.000708631 -0.0620761,-0.13914 -0.171276,-0.20646 -0.312719,-0.224672 0,0.0258473 0,0.0517124 0,0.0775597z"/>
   <path id="_110107264" class="fil0 str0" d="M0.353075 0.873689c-0.0356087,0.0525273 -0.127217,0.0564779 -0.180719,-0.0356087 -0.0364414,-0.00465925 -0.0729004,-0.0093185 -0.109342,-0.0139955 0.0298334,-0.0370614 0.0596667,-0.0741405 0.0895001,-0.111237 -0.0243946,-0.0157139 -0.0487893,-0.0314278 -0.0731839,-0.0471594 0.113292,-0.201978 0.276437,-0.230961 0.451203,-0.107056 -0.0207452,0.0211172 -0.0440591,0.0454764 -0.0648043,0.0666113 -0.152338,-0.15519 -0.386098,0.0598085 -0.112655,0.248446z"/>
   <path id="_110107216" class="fil0 str0" d="M0.544636 0.544973c-0.00464153,0.00462382 -0.00919449,0.00908819 -0.013836,0.0137297 -0.0592593,-0.06158 -0.118536,-0.123142 -0.177796,-0.184722 -0.0125782,0.0105763 -0.0251564,0.0211881 -0.0377346,0.0317821 -0.0211881,-0.0333588 -0.0446792,-0.0649815 -0.076479,-0.0903859 -0.0484881,-0.0304711 -0.083335,-0.00593479 -0.0665582,0.0278138 0.00993855,0.0294613 0.0268217,0.057594 0.0446969,0.0764613 -0.0465748,0.0892344 -0.238986,-0.176538 -0.0655484,-0.198629 -0.0542989,-0.0172197 -0.0854963,-0.0541394 -0.0656192,-0.134923 0.0808017,-0.0198594 0.117863,0.0112495 0.135083,0.0655484 0.0220739,-0.17342 0.287881,0.0189913 0.198647,0.0655484 -0.0188673,-0.0178575 -0.0470177,-0.0347406 -0.0764967,-0.0446792 -0.0337308,-0.0167591 -0.0582672,0.0180701 -0.0277961,0.0665405 0.0254044,0.0317821 0.0570271,0.0553087 0.0903859,0.076479 -0.010594,0.0125782 -0.0211881,0.0251564 -0.0317821,0.0377523 0.06158,0.0592416 0.12316,0.118519 0.18474,0.17776 -0.00464153,0.00464153 -0.00926535,0.00928307 -0.0139069,0.0139246z"/>
   <path id="_110107168" class="fil0 str0" d="M0.605206 0.605667c-0.0137652,0.0131451 -0.0273177,0.0259536 -0.0411006,0.039081 0.0188319,0.0244478 0.0303648,0.0589935 0.0312683,0.108314 0.0626961,0.0296739 0.122469,0.0429608 0.167609,0.0103637 0.0326147,-0.0451398 0.0196114,-0.105108 -0.0100803,-0.167822 -0.049303,-0.000868073 -0.0838488,-0.0124188 -0.108314,-0.0312329 -0.0131274,0.0137652 -0.0262548,0.0275303 -0.0393822,0.0412955z"/>
   <path id="_110107120" class="fil0 str0" d="M1.65742 1.65712c-1.77158e-005,-0.136022 -0.000425179,-0.271565 -0.000425179,-0.407605 -0.0676034,0.012153 -0.0892875,0.053856 -0.0585152,0.149379 0.0228711,0.0883663 -0.0491436,0.104629 -0.0844688,0.0487715 -0.0456181,-0.103885 -0.0908111,-0.10982 -0.136429,-0.0704025 -0.0393822,0.0456004 -0.0340143,0.0912363 0.0698887,0.136854 0.0558756,0.0353253 0.0395948,0.107322 -0.0487715,0.0844688 -0.0955235,-0.03079 -0.137244,-0.00908819 -0.149397,0.0584798 0.136039,1.77158e-005 0.272097,5.31473e-005 0.408118,5.31473e-005z"/>
   <path id="_110107072" class="fil0 str0" d="M1.11101 0.882246c0.0362819,0.0964624 0.154056,0.0253513 0.104293,-0.055539 -0.0401262,-0.045937 -0.140646,-0.0550961 -0.194962,0.0510037 -0.057098,0.27013 0.294613,0.262282 0.327742,0.0676034 0.0284693,-0.167202 0.128138,-0.189842 0.164863,-0.166209 0.0552201,0.030914 0.0544406,0.0789061 0.0310735,0.0906694 -0.0944605,-0.109572 -0.158149,0.0931141 -0.0362819,0.0979328 0.115135,-0.0103106 0.126349,-0.11928 0.107694,-0.180683 -0.0729004,-0.145199 -0.234734,-0.108509 -0.285649,-0.0158556 -0.0367071,0.0901379 -0.0656015,0.176183 -0.102468,0.203979 -0.0996335,0.0737154 -0.178734,-0.0468228 -0.116304,-0.0929015z"/>
   <path id="_110107024" class="fil0 str0" d="M1.1575 0.00802525c-0.0126491,0.0196114 -0.0218436,0.0392405 -0.0260245,0.0588518 -0.0155722,0.0418801 0.0198417,0.0565665 0.040268,0.0370791 0.0301523,-0.0287527 0.0789592,-0.0450867 0.0667176,0.0254221 -0.00846814,0.0247135 -0.0169363,0.049427 -0.0254221,0.0741405 0.0420218,0 0.0840437,0 0.126065,0 -0.00635996,-0.0247135 -0.0127199,-0.049427 -0.0190799,-0.0741405 -0.00552732,-0.0535017 0.0257587,-0.0605702 0.0625013,-0.0180169 0.0427305,0.0167768 0.0540154,-0.00299397 0.0487184,-0.0370614 -0.00352544,-0.0221624 -0.0148281,-0.0443249 -0.0296562,-0.0664696 -0.0813509,5.31473e-005 -0.162719,0.00012401 -0.244088,0.000194874z"/>
   <path id="_110106976" class="fil0 str0" d="M1.00716 0.00795438c0.0149875,0.139831 0.10424,0.216044 0.225097,0.265152 5.31473e-005,0.0676743 0.000106295,0.135349 0.000159442,0.203023 -0.137793,0.0401971 -0.274347,0.0755401 -0.376673,0.104328 -0.0887383,0.0249792 -0.166121,0.0188142 -0.211048,-0.0161214 0.0206035,-0.0220916 0.0419687,-0.0437403 0.0625721,-0.0658318 0.0684715,0.0138537 0.127235,-0.00389747 0.218365,-0.0351658 0.128776,-0.0442009 0.169079,-0.0263965 0.227949,-0.0386381 0.000230305,-0.0346875 0.000478326,-0.069375 0.000708631,-0.104062 -0.13914,-0.0620761 -0.206477,-0.171258 -0.224689,-0.312683 0.025865,0 0.0517124,0 0.0775597,0z"/>
   <path id="_110106928" class="fil0 str0" d="M0.873547 0.353341c0.0525273,-0.0356087 0.0564779,-0.127217 -0.0356087,-0.180701 -0.00465925,-0.0364414 -0.0093185,-0.0729004 -0.0139955,-0.109342 -0.0370791,0.0298334 -0.0741583,0.0596667 -0.111237,0.0895001 -0.0157316,-0.0243946 -0.0314455,-0.0487893 -0.0471771,-0.0731839 -0.201978,0.113275 -0.230978,0.276419 -0.107056,0.451168 0.0211172,-0.0207275 0.0454764,-0.0440591 0.0666113,-0.0647866 -0.155208,-0.152338 0.0598085,-0.38608 0.248464,-0.112655z"/>
   <polygon id="_110106880" class="fil0 str0" points="0.544565,0.54492 0.465535,0.624995 0.498168,0.70748 0.605224,0.605667 0.707338,0.498416 0.624836,0.465783 "/>
   <polygon id="_107896936" class="fil0 str0" points="1.65745,0.00751149 0.00751149,0.00751149 0.00751149,1.65733 1.65745,1.65733 "/>
  </g>
 </g>
</svg>
