<?xml version="1.0" encoding="UTF-8"?>
<!DOCTYPE svg PUBLIC "-//W3C//DTD SVG 1.1//EN" "http://www.w3.org/Graphics/SVG/1.1/DTD/svg11.dtd">
<!-- Creator: CorelDRAW -->
<svg xmlns="http://www.w3.org/2000/svg" xml:space="preserve" width="110px" height="110px" style="shape-rendering:geometricPrecision; text-rendering:geometricPrecision; image-rendering:optimizeQuality; fill-rule:evenodd; clip-rule:evenodd"
viewBox="0 0 282.117 282.114"
 xmlns:xlink="http://www.w3.org/1999/xlink">
 <defs>
  <style type="text/css">
   <![CDATA[
    .str0 {stroke:#4C4C4C;stroke-width:2.54257}
    .fil0 {fill:white}
   ]]>
  </style>
 </defs>
 <g id="Capa_x0020_1">
  <metadata id="CorelCorpID_0Corel-Layer"/>
  <path class="fil0 str0" d="M280.845 1.27279l0 279.569 -279.572 0 0 -279.569 279.572 0zm0 0l0 279.569 -279.572 0 0 -279.569 279.572 0zm-46.0395 138.076c-5.71553,-5.78458 -12.0795,-8.51626 -23.9398,-9.2187 -3.29604,-0.195121 -5.78157,-0.216134 -8.81045,-1.81912 -6.34592,-3.35908 -7.94591,-9.84609 -5.06713,-16.255 1.33583,-2.97784 1.41988,-2.19436 -0.042026,-5.10315 -2.98985,-5.94067 -1.32982,-11.1249 2.14933,-15.1654 2.12832,-2.47053 1.99323,-2.67766 3.22399,0.138085 9.20069,21.055 28.2355,35.9922 60.6525,42.5813 3.57521,0.723447 11.1309,1.9392 10.1283,7.21046 -0.879544,4.62286 -6.78119,5.20222 -10.4495,5.95568 -32.2219,6.62209 -51.1606,21.5323 -60.3313,42.5153 -1.22776,2.81574 -1.09568,2.60861 -3.22399,0.138085 -3.47915,-4.0405 -5.13918,-9.2247 -2.14933,-15.1654 1.4619,-2.9088 1.37785,-2.12531 0.042026,-5.10315 -2.87878,-6.40896 -1.27879,-12.896 5.06713,-16.255 3.02887,-1.60299 5.51441,-1.624 8.81045,-1.81912 11.8633,-0.705436 18.2243,-3.43712 23.9398,-9.2187 1.77109,-1.7861 1.77109,-1.63001 0,-3.41611zm-95.453 -92.0369c-5.78458,5.71553 -8.51626,12.0795 -9.2187,23.9398 -0.195121,3.29604 -0.216134,5.78157 -1.81912,8.81045 -3.35908,6.34592 -9.84609,7.94591 -16.255,5.06713 -2.97784,-1.33583 -2.19436,-1.41988 -5.10315,0.042026 -5.94067,2.98985 -11.1249,1.32982 -15.1654,-2.14933 -2.47053,-2.12832 -2.67766,-1.99323 0.138085,-3.22399 21.055,-9.20069 35.9922,-28.2355 42.5813,-60.6525 0.723447,-3.57521 1.9392,-11.1309 7.21046,-10.1283 4.62286,0.879544 5.20222,6.78119 5.95568,10.4495 6.62209,32.2219 21.5323,51.1606 42.5153,60.3313 2.81574,1.22776 2.60861,1.09568 0.138085,3.22399 -4.0405,3.47915 -9.2247,5.13918 -15.1654,2.14933 -2.9088,-1.4619 -2.12531,-1.37785 -5.10315,-0.042026 -6.40896,2.87878 -12.896,1.27879 -16.255,-5.06713 -1.60299,-3.02887 -1.624,-5.51441 -1.81912,-8.81045 -0.705436,-11.8633 -3.43712,-18.2243 -9.2187,-23.9398 -1.7861,-1.77109 -1.63001,-1.77109 -3.41611,0zm-92.0369 95.453c5.71553,5.78458 12.0795,8.51626 23.9398,9.2187 3.29604,0.195121 5.78157,0.216134 8.81045,1.81912 6.34592,3.35908 7.94591,9.84609 5.06713,16.255 -1.33583,2.97784 -1.41988,2.19436 0.042026,5.10315 2.98985,5.94067 1.32982,11.1249 -2.14933,15.1654 -2.12832,2.47053 -1.99323,2.67766 -3.22399,-0.138085 -9.20069,-21.055 -28.2355,-35.9922 -60.6525,-42.5813 -3.57521,-0.723447 -11.1309,-1.9392 -10.1283,-7.21046 0.879544,-4.62286 6.78119,-5.20222 10.4495,-5.95568 32.2219,-6.62209 51.1606,-21.5323 60.3313,-42.5153 1.22776,-2.81574 1.09568,-2.60861 3.22399,-0.138085 3.47915,4.0405 5.13918,9.2247 2.14933,15.1654 -1.4619,2.9088 -1.37785,2.12531 -0.042026,5.10315 2.87878,6.40896 1.27879,12.896 -5.06713,16.255 -3.02887,1.60299 -5.51441,1.624 -8.81045,1.81912 -11.8633,0.705436 -18.2243,3.43712 -23.9398,9.2187 -1.77109,1.7861 -1.77109,1.63001 0,3.41611zm95.453 92.0369c5.78458,-5.71553 8.51626,-12.0795 9.2187,-23.9398 0.195121,-3.29604 0.216134,-5.78157 1.81912,-8.81045 3.35908,-6.34592 9.84609,-7.94591 16.255,-5.06713 2.97784,1.33583 2.19436,1.41988 5.10315,-0.042026 5.94067,-2.98985 11.1249,-1.32982 15.1654,2.14933 2.47053,2.12832 2.67766,1.99323 -0.138085,3.22399 -21.055,9.20069 -35.9922,28.2355 -42.5813,60.6525 -0.723447,3.57521 -1.9392,11.1309 -7.21046,10.1283 -4.62286,-0.879544 -5.20222,-6.78119 -5.95568,-10.4495 -6.62209,-32.2219 -21.5323,-51.1606 -42.5153,-60.3313 -2.81574,-1.22776 -2.60861,-1.09568 -0.138085,-3.22399 4.0405,-3.47915 9.2247,-5.13918 15.1654,-2.14933 2.9088,1.4619 2.12531,1.37785 5.10315,0.042026 6.40896,-2.87878 12.896,-1.27879 16.255,5.06713 1.60299,3.02887 1.624,5.51441 1.81912,8.81045 0.705436,11.8633 3.43712,18.2243 9.2187,23.9398 1.7861,1.77109 1.63001,1.77109 3.41611,0zm43.5479 -92.5142c5.50841,5.37632 10.2093,7.47462 18.1942,10.4975 -0.795492,0.240148 -1.60299,0.567351 -2.45552,1.01763 -3.31105,1.75308 -5.3313,4.35869 -6.09677,7.35755 -8.67836,4.08853 -13.7935,2.7527 -17.0115,-3.34407 -12.899,1.27579 -10.6806,-11.4251 -17.1016,-15.2044 -1.68104,-0.990612 -1.69004,-2.1103 0.00900557,-3.10692 6.42097,-3.77934 4.1996,-16.4802 17.1016,-15.2044 3.21799,-6.09977 8.33015,-7.43259 17.0115,-3.34707 0.762471,3.00186 2.78272,5.60747 6.09377,7.35755 0.852527,0.450278 1.66003,0.780482 2.45852,1.01763 -7.98794,3.02287 -12.6888,5.12117 -18.1972,10.5005 -1.20074,1.17373 -1.23977,1.25177 -0.00600371,2.45852zm18.1972 -12.959c-7.98494,3.02287 -12.6828,5.12117 -18.1912,10.5005 -1.20074,1.17373 -1.23977,1.25177 -0.00600371,2.45552 5.50841,5.38233 10.2033,7.48062 18.1912,10.5035 2.03526,-0.61538 3.98646,-0.666412 6.35793,-0.804497 11.8633,-0.705436 18.2243,-3.43712 23.9428,-9.2157 1.76809,-1.78911 1.76809,-1.63301 0,-3.42212 -5.71854,-5.78157 -12.0825,-8.51326 -23.9428,-9.2157 -2.36846,-0.138085 -4.31667,-0.189117 -6.35193,-0.801495zm-75.1815 -51.728c3.02287,7.98794 5.12117,12.6828 10.5005,18.1942 1.17373,1.19774 1.25177,1.23977 2.45552,0.00600371 5.38233,-5.50841 7.48062,-10.2063 10.5035,-18.1912 -0.61538,-2.03526 -0.666412,-3.98646 -0.804497,-6.35793 -0.705436,-11.8633 -3.43712,-18.2243 -9.2157,-23.9428 -1.78911,-1.77109 -1.63301,-1.77109 -3.42212,0 -5.78157,5.71854 -8.51326,12.0825 -9.2157,23.9428 -0.138085,2.36546 -0.189117,4.31667 -0.801495,6.34892zm-51.728 75.1845c7.98794,-3.02287 12.6828,-5.12117 18.1942,-10.5005 1.19774,-1.17373 1.23977,-1.25177 0.00600371,-2.45852 -5.50841,-5.37933 -10.2063,-7.47762 -18.1912,-10.5005 -2.03526,0.61538 -3.98646,0.66341 -6.35793,0.804497 -11.8633,0.705436 -18.2243,3.43412 -23.9428,9.2157 -1.77109,1.78911 -1.77109,1.63001 0,3.41911 5.71854,5.78157 12.0825,8.51626 23.9428,9.2187 2.36546,0.138085 4.31667,0.186115 6.34892,0.801495zm75.1845 51.725c-3.02287,-7.98494 -5.12117,-12.6828 -10.5005,-18.1912 -1.17373,-1.20074 -1.25177,-1.23977 -2.45852,-0.00600371 -5.37933,5.50841 -7.47762,10.2033 -10.5005,18.1912 0.61538,2.03526 0.66341,3.98646 0.804497,6.35793 0.705436,11.8633 3.43412,18.2243 9.2157,23.9428 1.78911,1.76809 1.63001,1.76809 3.41911,0 5.78157,-5.71854 8.51626,-12.0825 9.2187,-23.9428 0.138085,-2.36846 0.186115,-4.31667 0.801495,-6.35193zm-10.4915 -108.709c5.37933,-5.51141 7.47762,-10.2123 10.4975,-18.1972 0.240148,0.795492 0.567351,1.60599 1.01763,2.45852 1.75308,3.30804 4.35869,5.32829 7.35755,6.09377 4.08853,8.67836 2.7557,13.7935 -3.34407,17.0115 1.27579,12.899 -11.4251,10.6806 -15.2044,17.1016 -0.987611,1.68404 -2.1103,1.69004 -3.10692,-0.00600371 -3.77934,-6.42097 -16.4802,-4.2026 -15.2044,-17.1016 -6.09977,-3.21799 -7.43259,-8.33315 -3.34407,-17.0115 2.99885,-0.765473 5.60446,-2.78572 7.35455,-6.09677 0.450278,-0.852527 0.780482,-1.66003 1.01763,-2.45552 3.02287,7.98494 5.12117,12.6858 10.5005,18.1942 1.17373,1.20074 1.25177,1.23977 2.45852,0.00900557zm-46.4867 44.0192c-5.50841,-5.37933 -10.2093,-7.47762 -18.1972,-10.5005 0.798494,-0.240148 1.60599,-0.567351 2.45852,-1.01763 3.31105,-1.75008 5.32829,-4.35569 6.09377,-7.35755 8.68137,-4.08553 13.7935,-2.7527 17.0115,3.34707 12.902,-1.27879 10.6806,11.4221 17.1016,15.2044 1.68404,0.987611 1.69004,2.1073 -0.00600371,3.10392 -6.42097,3.77934 -4.2026,16.4832 -17.1016,15.2044 -3.21799,6.09977 -8.33315,7.43259 -17.0115,3.34707 -0.765473,-3.00186 -2.78572,-5.60747 -6.09377,-7.35755 -0.855529,-0.450278 -1.66303,-0.777481 -2.45852,-1.01763 7.98494,-3.02287 12.6858,-5.11816 18.1972,-10.5005 1.20074,-1.17072 1.23977,-1.24877 0.00600371,-2.45552zm44.0192 46.4867c-5.37933,5.50841 -7.47762,10.2093 -10.5005,18.1942 -0.237147,-0.795492 -0.567351,-1.60299 -1.01763,-2.45552 -1.75008,-3.31105 -4.35569,-5.3313 -7.35755,-6.09677 -4.08553,-8.67836 -2.7527,-13.7935 3.34707,-17.0115 -1.27579,-12.899 11.4251,-10.6806 15.2044,-17.1016 0.987611,-1.68404 2.1073,-1.69004 3.10692,0.00600371 3.77934,6.42397 16.4802,4.2026 15.2044,17.1016 6.09677,3.21799 7.43259,8.33315 3.34407,17.0145 -2.99885,0.762471 -5.60446,2.78272 -7.35755,6.09377 -0.450278,0.852527 -0.777481,1.66003 -1.01763,2.45552 -3.02287,-7.98494 -5.11816,-12.6858 -10.5005,-18.1942 -1.17072,-1.20074 -1.24877,-1.23977 -2.45552,-0.00600371zm125.91 -63.3512c-20.1665,-10.0172 -28.1484,-24.7083 -24.0449,-39.3813 1.30581,-4.67689 0.864534,-4.47276 3.16996,-0.993614 7.39357,11.1639 22.9342,8.46523 27.2088,-2.67165 3.57821,-9.32376 -1.11069,-18.1012 -10.6416,-20.8809 -11.4821,-3.34707 -27.3859,2.56058 -32.5761,17.738 -3.36208,9.83408 -1.69605,21.9196 3.41011,30.8921 6.1418,10.8007 17.1436,16.4742 32.9394,16.9785 3.10092,0.0990612 3.16696,-0.37223 0.53433,-1.68104zm-249.346 36.2144c20.1665,10.0172 28.1454,24.7083 24.0449,39.3783 -1.30581,4.67689 -0.867536,4.47276 -3.16996,0.993614 -7.39657,-11.1639 -22.9372,-8.46223 -27.2088,2.67465 -3.57821,9.32376 1.10768,18.0982 10.6386,20.8779 11.4851,3.35007 27.3889,-2.55758 32.5791,-17.735 3.36208,-9.83408 1.69305,-21.9226 -3.41011,-30.8921 -6.1448,-10.8007 -17.1436,-16.4772 -32.9394,-16.9785 -3.10392,-0.0990612 -3.16696,0.37223 -0.53433,1.68104zm106.566 -142.78c-10.0172,20.1665 -24.7083,28.1484 -39.3813,24.0449 -4.67689,-1.30581 -4.47276,-0.864534 -0.993614,-3.16996 11.1639,-7.39657 8.46523,-22.9372 -2.67165,-27.2088 -9.32677,-3.57821 -18.1012,1.10768 -20.8809,10.6386 -3.35007,11.4851 2.56058,27.3889 17.738,32.5791 9.83408,3.36208 21.9196,1.69305 30.8921,-3.41011 10.8007,-6.1448 16.4742,-17.1436 16.9785,-32.9394 0.0990612,-3.10092 -0.375232,-3.16696 -1.68104,-0.53433zm36.2144 249.346c10.0172,-20.1665 24.7053,-28.1484 39.3783,-24.0449 4.67689,1.30581 4.47276,0.864534 0.993614,3.16996 -11.1639,7.39357 -8.46223,22.9342 2.67465,27.2088 9.32376,3.57821 18.0982,-1.11069 20.8779,-10.6416 3.35007,-11.4821 -2.55758,-27.3859 -17.735,-32.5761 -9.83408,-3.36208 -21.9226,-1.69605 -30.8921,3.41011 -10.8007,6.1418 -16.4772,17.1436 -16.9785,32.9394 -0.0990612,3.10092 0.37223,3.16696 1.68104,0.53433zm106.566 -106.578c-20.1665,10.0172 -28.1484,24.7083 -24.0449,39.3813 1.30581,4.67689 0.864534,4.47276 3.16996,0.993614 7.39357,-11.1639 22.9342,-8.46523 27.2088,2.67165 3.57821,9.32376 -1.11069,18.1012 -10.6416,20.8809 -11.4821,3.34707 -27.3859,-2.56058 -32.5761,-17.738 -3.36208,-9.83408 -1.69605,-21.9196 3.41011,-30.8921 6.1418,-10.8007 17.1436,-16.4742 32.9394,-16.9785 3.10092,-0.0990612 3.16696,0.37223 0.53433,1.68104zm-249.346 -36.1904c20.1665,-10.0172 28.1454,-24.7083 24.0449,-39.3813 -1.30581,-4.67689 -0.867536,-4.47276 -3.16996,-0.993614 -7.39657,11.1639 -22.9372,8.46523 -27.2088,-2.67165 -3.57821,-9.32677 1.10768,-18.1012 10.6386,-20.8809 11.4851,-3.35007 27.3889,2.55758 32.5791,17.735 3.36208,9.83708 1.69305,21.9226 -3.41011,30.8951 -6.1448,10.8007 -17.1436,16.4742 -32.9394,16.9785 -3.10392,0.0990612 -3.16696,-0.375232 -0.53433,-1.68104zm142.768 -106.578c10.0172,20.1665 24.7083,28.1484 39.3783,24.0449 4.67989,-1.30581 4.47577,-0.864534 0.993614,-3.16996 -11.1639,-7.39657 -8.46223,-22.9372 2.67465,-27.2088 9.32376,-3.57821 18.1012,1.10768 20.8809,10.6386 3.34707,11.4851 -2.56058,27.3889 -17.738,32.5791 -9.83408,3.36208 -21.9226,1.69305 -30.8921,-3.41011 -10.8007,-6.1448 -16.4742,-17.1436 -16.9785,-32.9394 -0.0990612,-3.10092 0.37223,-3.16696 1.68104,-0.53433zm-36.1904 249.346c-10.0172,-20.1665 -24.7083,-28.1484 -39.3813,-24.0449 -4.67689,1.30581 -4.47276,0.864534 -0.993614,3.16996 11.1639,7.39357 8.46223,22.9342 -2.67465,27.2088 -9.32376,3.57821 -18.0982,-1.11069 -20.8779,-10.6416 -3.35007,-11.4821 2.55758,-27.3859 17.735,-32.5761 9.83408,-3.36208 21.9226,-1.69605 30.8951,3.41011 10.8007,6.1418 16.4742,17.1436 16.9785,32.9394 0.0990612,3.10092 -0.375232,3.16696 -1.68104,0.53433zm147.331 -256.184c-7.38156,-1.11669 -15.3545,3.31105 -17.5579,10.5695 -0.714442,2.35646 -0.180111,2.05927 -2.7437,2.25139 -11.5421,0.870538 -14.8052,6.01872 -16.186,13.6044 -0.471291,2.5906 -0.0720445,2.51856 -2.34745,3.69528 -5.88364,3.03788 -7.17444,8.093 -6.61009,15.7657 0.123076,1.75008 -0.021013,1.68704 1.72907,1.81612 7.72678,0.58236 12.8209,-0.693429 15.8708,-6.60408 1.17373,-2.27541 1.10468,-1.87616 3.69228,-2.34745 7.58869,-1.38085 12.7369,-4.64387 13.6074,-16.186 0.192119,-2.56358 -0.111069,-2.02925 2.25139,-2.7437 7.19545,-2.18535 11.6022,-10.0412 10.5875,-17.3687 -0.273169,-1.96922 -0.330204,-2.15833 -2.29342,-2.45252zm-260.747 2.2724c-1.11669,7.38457 3.31105,15.3575 10.5695,17.5609 2.35646,0.714442 2.05927,0.177109 2.25139,2.7437 0.870538,11.5421 6.01872,14.8052 13.6044,16.186 2.5906,0.471291 2.51856,0.0720445 3.69528,2.34745 3.03488,5.88364 8.093,7.17444 15.7657,6.61009 1.75008,-0.126078 1.68704,0.021013 1.81612,-1.72907 0.58236,-7.72678 -0.693429,-12.8209 -6.60408,-15.8708 -2.27541,-1.17673 -1.87616,-1.10468 -2.34745,-3.69528 -1.38085,-7.58569 -4.64387,-12.7339 -16.186,-13.6044 -2.56659,-0.192119 -2.02925,0.108067 -2.7437,-2.25139 -2.18835,-7.19845 -10.0412,-11.6022 -17.3717,-10.5875 -1.96622,0.273169 -2.15833,0.330204 -2.44951,2.29042zm2.2724 260.75c7.38457,1.11669 15.3575,-3.31105 17.5609,-10.5695 0.714442,-2.35946 0.177109,-2.05927 2.7437,-2.25139 11.5421,-0.870538 14.8052,-6.01872 16.186,-13.6074 0.471291,-2.5876 0.0720445,-2.51856 2.34745,-3.69228 5.88364,-3.03788 7.17444,-8.093 6.61009,-15.7657 -0.126078,-1.75008 0.021013,-1.69004 -1.72907,-1.81612 -7.72978,-0.58236 -12.8209,0.693429 -15.8708,6.60108 -1.17673,2.27841 -1.10468,1.87916 -3.69528,2.35045 -7.58569,1.38085 -12.7339,4.64387 -13.6044,16.186 -0.192119,2.56358 0.108067,2.02625 -2.25139,2.7437 -7.19845,2.18535 -11.6022,10.0412 -10.5875,17.3687 0.270167,1.96922 0.327202,2.15833 2.29042,2.45252zm260.75 -2.27541c1.11669,-7.38156 -3.31105,-15.3545 -10.5695,-17.5579 -2.35946,-0.714442 -2.05927,-0.180111 -2.25139,-2.7437 -0.870538,-11.5421 -6.01872,-14.8052 -13.6074,-16.186 -2.5876,-0.471291 -2.51856,-0.0720445 -3.69228,-2.34745 -3.03788,-5.88364 -8.093,-7.17444 -15.7657,-6.61009 -1.75008,0.123076 -1.69004,-0.021013 -1.81612,1.72907 -0.58236,7.72678 0.693429,12.8209 6.60108,15.8708 2.27841,1.17373 1.87916,1.10468 2.35045,3.69228 1.38085,7.58869 4.64387,12.7369 16.186,13.6074 2.56358,0.192119 2.02625,-0.111069 2.7437,2.25139 2.18535,7.19545 10.0412,11.6022 17.3687,10.5875 1.96922,-0.273169 2.15833,-0.330204 2.45252,-2.29342zm-162.599 -160.344l31.1352 18.9477 31.1382 -18.9477 -19.0228 31.1593 18.9477 31.1382 -31.1623 -19.0228 -31.1382 18.9477 19.0258 -31.1593 -18.9237 -31.0632z"/>
 </g>
</svg>
