<?xml version="1.0" encoding="UTF-8"?>
<!DOCTYPE svg PUBLIC "-//W3C//DTD SVG 1.1//EN" "http://www.w3.org/Graphics/SVG/1.1/DTD/svg11.dtd">
<!-- Creator: CorelDRAW -->
<svg xmlns="http://www.w3.org/2000/svg" xml:space="preserve" width="111px" height="111px" style="shape-rendering:geometricPrecision; text-rendering:geometricPrecision; image-rendering:optimizeQuality; fill-rule:evenodd; clip-rule:evenodd"
viewBox="0 0 1.18851 1.18856"
 xmlns:xlink="http://www.w3.org/1999/xlink">
 <defs>
  <style type="text/css">
   <![CDATA[
    .str0 {stroke:#4C4C4C;stroke-width:0.0107115}
    .fil0 {fill:none}
   ]]>
  </style>
 </defs>
 <g id="Capa_x0020_1">
  <metadata id="CorelCorpID_0Corel-Layer"/>
  <polygon class="fil0 str0" points="0.00536207,1.1832 0.00536207,0.00541266 1.18315,0.00541266 1.18315,1.1832 "/>
  <polygon class="fil0 str0" points="1.18315,0.00536207 1.18315,1.18315 0.00536207,1.18315 0.00536207,0.00536207 "/>
  <path class="fil0 str0" d="M1.18315 0.177492c0,-0.0191087 -0.0794573,0.0761566 -0.067342,0.141627 -0.0388877,-0.0152136 -0.0736652,-0.0531149 -0.13328,-0.0164783 0.00765107,0.0169968 0.0228267,0.0166806 0.0258366,0.0304905 0.00569088,0.0260895 0.00987683,0.0528113 0.0235349,0.0716798 0.00897894,0.0114323 0.0165035,0.0226244 0.0252422,0.0307181 0.0466652,0.0433013 0.0658877,0.09438 0.00108759,0.0879177 -0.0658751,-0.0740446 -0.0819233,-0.0895365 -0.155184,-0.0820245 -0.0130764,0.00134052 -0.0240661,-0.0210183 -0.0373574,-0.0234338 -0.0215242,0.0406076 -0.0146445,0.0976554 0.0378507,0.131826 -0.0490933,-0.01209 -0.0913196,-0.00495739 -0.118484,0.04449 0.0271645,0.0494474 0.0693908,0.05658 0.118484,0.04449 -0.0524952,0.0341706 -0.0593748,0.0912184 -0.0378507,0.131826 0.0132914,-0.00241546 0.0242811,-0.0247743 0.0373574,-0.0234338 0.0732606,0.00751196 0.0893088,-0.00797987 0.155184,-0.0820245 0.0648001,-0.00646231 0.0455776,0.0446165 -0.00108759,0.0879177 -0.00873866,0.00809369 -0.0162633,0.0192857 -0.0252422,0.0307181 -0.0136581,0.0188684 -0.0178441,0.0455902 -0.0235349,0.0716798 -0.00300984,0.0138099 -0.0181855,0.0134937 -0.0258366,0.0304905 0.0596151,0.0366366 0.0943927,-0.00126464 0.13328,-0.0164783 -0.0121152,0.0654704 0.067342,0.160736 0.067342,0.141627l0 -0.833625zm-0.0883351 0.416812c0,-0.048638 0.0396591,-0.0883224 0.0883098,-0.0883224 1.26464e-005,0 2.52928e-005,-1.26464e-005 2.52928e-005,-1.26464e-005l0 0.17667c0,0 -1.26464e-005,-1.26464e-005 -2.52928e-005,-1.26464e-005 -0.0486507,0 -0.0883098,-0.0396844 -0.0883098,-0.0883224z"/>
  <path class="fil0 str0" d="M0.00536207 1.01112c0,0.0191087 0.0794573,-0.0761566 0.067342,-0.141627 0.0388877,0.0152136 0.0736652,0.0531149 0.13328,0.0164783 -0.00765107,-0.0169968 -0.0228267,-0.0166806 -0.0258366,-0.0304905 -0.00569088,-0.0260895 -0.00987683,-0.0528113 -0.0235349,-0.0716798 -0.00897894,-0.0114323 -0.0165035,-0.0226244 -0.0252422,-0.0307181 -0.0466652,-0.0433013 -0.0658877,-0.09438 -0.00108759,-0.0879177 0.0658751,0.0740446 0.0819233,0.0895365 0.155184,0.0820245 0.0130764,-0.00134052 0.0240661,0.0210183 0.0373574,0.0234338 0.0215242,-0.0406076 0.0146445,-0.0976554 -0.0378507,-0.131826 0.0490933,0.01209 0.0913196,0.00495739 0.118484,-0.04449 -0.0271645,-0.0494474 -0.0693908,-0.05658 -0.118484,-0.04449 0.0524952,-0.0341706 0.0593748,-0.0912184 0.0378507,-0.131826 -0.0132914,0.00241546 -0.0242811,0.0247743 -0.0373574,0.0234338 -0.0732606,-0.00751196 -0.0893088,0.00797987 -0.155184,0.0820245 -0.0648001,0.00646231 -0.0455776,-0.0446165 0.00108759,-0.0879177 0.00873866,-0.00809369 0.0162633,-0.0192857 0.0252422,-0.0307181 0.0136581,-0.0188684 0.0178441,-0.0455902 0.0235349,-0.0716798 0.00300984,-0.0138099 0.0181855,-0.0134937 0.0258366,-0.0304905 -0.0596151,-0.0366366 -0.0943927,0.00126464 -0.13328,0.0164783 0.0121152,-0.0654704 -0.067342,-0.160736 -0.067342,-0.141627l0 0.833625zm0.0883351 -0.416812c0,0.048638 -0.0396591,0.0883224 -0.0883098,0.0883224 -1.26464e-005,0 -2.52928e-005,1.26464e-005 -2.52928e-005,1.26464e-005l0 -0.17667c0,0 1.26464e-005,1.26464e-005 2.52928e-005,1.26464e-005 0.0486507,0 0.0883098,0.0396844 0.0883098,0.0883224z"/>
  <path class="fil0 str0" d="M0.177416 0.00537472c-0.0191087,0 0.0761566,0.0794573 0.141627,0.067342 -0.0152136,0.0388877 -0.0531149,0.0736652 -0.0164783,0.13328 0.0169968,-0.00765107 0.0166806,-0.0228267 0.0304905,-0.0258366 0.0260895,-0.00569088 0.0528113,-0.00987683 0.0716798,-0.0235349 0.0114323,-0.00897894 0.0226244,-0.0165035 0.0307181,-0.0252422 0.0433013,-0.0466652 0.09438,-0.0658877 0.0879177,-0.00108759 -0.0740446,0.0658751 -0.0895365,0.0819233 -0.0820245,0.155184 0.00134052,0.0130764 -0.0210183,0.0240661 -0.0234338,0.0373574 0.0406076,0.0215242 0.0976554,0.0146445 0.131826,-0.0378507 -0.01209,0.0490933 -0.00495739,0.0913196 0.04449,0.118484 0.0494474,-0.0271645 0.05658,-0.0693908 0.04449,-0.118484 0.0341706,0.0524952 0.0912184,0.0593748 0.131826,0.0378507 -0.00241546,-0.0132914 -0.0247743,-0.0242811 -0.0234338,-0.0373574 0.00751196,-0.0732606 -0.00797987,-0.0893088 -0.0820245,-0.155184 -0.00646231,-0.0648001 0.0446165,-0.0455776 0.0879177,0.00108759 0.00809369,0.00873866 0.0192857,0.0162633 0.0307181,0.0252422 0.0188684,0.0136581 0.0455902,0.0178441 0.0716798,0.0235349 0.0138099,0.00300984 0.0134937,0.0181855 0.0304905,0.0258366 0.0366366,-0.0596151 -0.00126464,-0.0943927 -0.0164783,-0.13328 0.0654704,0.0121152 0.160736,-0.067342 0.141627,-0.067342l-0.833625 0zm0.416812 0.0883351c-0.048638,0 -0.0883224,-0.0396591 -0.0883224,-0.0883098 0,-1.26464e-005 -1.26464e-005,-2.52928e-005 -1.26464e-005,-2.52928e-005l0.17667 0c0,0 -1.26464e-005,1.26464e-005 -1.26464e-005,2.52928e-005 0,0.0486507 -0.0396844,0.0883098 -0.0883224,0.0883098z"/>
  <path class="fil0 str0" d="M1.01109 1.18318c0.0191087,0 -0.0761566,-0.0794573 -0.141627,-0.067342 0.0152136,-0.0388877 0.0531149,-0.0736652 0.0164783,-0.13328 -0.0169968,0.00765107 -0.0166806,0.0228267 -0.0304905,0.0258366 -0.0260895,0.00569088 -0.0528113,0.00987683 -0.0716798,0.0235349 -0.0114323,0.00897894 -0.0226244,0.0165035 -0.0307181,0.0252422 -0.0433013,0.0466652 -0.09438,0.0658877 -0.0879177,0.00108759 0.0740446,-0.0658751 0.0895365,-0.0819233 0.0820245,-0.155184 -0.00134052,-0.0130764 0.0210183,-0.0240661 0.0234338,-0.0373574 -0.0406076,-0.0215242 -0.0976554,-0.0146445 -0.131826,0.0378507 0.01209,-0.0490933 0.00495739,-0.0913196 -0.04449,-0.118484 -0.0494474,0.0271645 -0.05658,0.0693908 -0.04449,0.118484 -0.0341706,-0.0524952 -0.0912184,-0.0593748 -0.131826,-0.0378507 0.00241546,0.0132914 0.0247743,0.0242811 0.0234338,0.0373574 -0.00751196,0.0732606 0.00797987,0.0893088 0.0820245,0.155184 0.00646231,0.0648001 -0.0446165,0.0455776 -0.0879177,-0.00108759 -0.00809369,-0.00873866 -0.0192857,-0.0162633 -0.0307181,-0.0252422 -0.0188684,-0.0136581 -0.0455902,-0.0178441 -0.0716798,-0.0235349 -0.0138099,-0.00300984 -0.0134937,-0.0181855 -0.0304905,-0.0258366 -0.0366366,0.0596151 0.00126464,0.0943927 0.0164783,0.13328 -0.0654704,-0.0121152 -0.160736,0.067342 -0.141627,0.067342l0.833625 0zm-0.416812 -0.0883351c0.048638,0 0.0883224,0.0396591 0.0883224,0.0883098 0,1.26464e-005 1.26464e-005,2.52928e-005 1.26464e-005,2.52928e-005l-0.17667 0c0,0 1.26464e-005,-1.26464e-005 1.26464e-005,-2.52928e-005 0,-0.0486507 0.0396844,-0.0883098 0.0883224,-0.0883098z"/>
 </g>
</svg>
