<?xml version="1.0" encoding="UTF-8"?>
<!DOCTYPE svg PUBLIC "-//W3C//DTD SVG 1.1//EN" "http://www.w3.org/Graphics/SVG/1.1/DTD/svg11.dtd">
<!-- Creator: CorelDRAW -->
<svg xmlns="http://www.w3.org/2000/svg" xml:space="preserve" width="110px" height="110px" style="shape-rendering:geometricPrecision; text-rendering:geometricPrecision; image-rendering:optimizeQuality; fill-rule:evenodd; clip-rule:evenodd"
viewBox="0 0 0.33983 0.33983"
 xmlns:xlink="http://www.w3.org/1999/xlink">
 <defs>
  <style type="text/css">
   <![CDATA[
    .str0 {stroke:#4C4C4C;stroke-width:0.00306267}
    .fil0 {fill:white}
   ]]>
  </style>
 </defs>
 <g id="Plan_x0020_1">
  <metadata id="CorelCorpID_0Corel-Layer"/>
  <g id="_235010184">
   <rect id="_235010328" class="fil0 str0" x="0.00153494" y="0.00153495" width="0.33676" height="0.33676"/>
   <path id="_235010256" class="fil0 str0" d="M0.169716 0.313c0.00429208,0.00171394 0.0238361,-0.010421 0.0145685,-0.0284608 0.0199598,0.0075247 0.0376597,-0.0318634 -0.00274447,-0.0329156 0.0268553,-0.0368714 0.060646,0.00621213 0.0493752,0.0351105 0.0324058,0.000336279 0.0591237,0.00990035 0.0815242,0.0262515 -0.0163511,-0.0223969 -0.0254813,-0.049556 -0.0258176,-0.0819618 -0.0288983,0.0112744 -0.0719819,-0.0225163 -0.0351105,-0.0493716 0.00105223,0.0404041 0.0404403,0.0227007 0.0329156,0.00274086 0.0180398,0.00926757 0.03165,-0.0141273 0.0270325,-0.0141273 0.00461751,0 -0.00899276,-0.0233913 -0.0270325,-0.0141273 0.0075247,-0.0199598 -0.0318634,-0.0376597 -0.0329156,0.00274447 -0.0368714,-0.0268553 0.00621213,-0.060646 0.0351105,-0.0493716 0.000336279,-0.0324058 0.00979549,-0.0585668 0.0261466,-0.0809638 -0.0224005,0.0163511 -0.0494475,0.0249172 -0.0818533,0.0252535 0.0112708,0.0288947 -0.0225199,0.0719782 -0.0493752,0.0351105 0.0404041,-0.00105584 0.0227043,-0.0404403 0.00274447,-0.0329156 0.00926757,-0.0180434 -0.0102764,-0.0304604 -0.0145685,-0.0287501 -0.00428847,-0.00171032 -0.0226934,0.00994374 -0.0134259,0.0279871 -0.0199598,-0.0075247 -0.0376633,0.0318598 0.00274086,0.0329156 -0.0268517,0.0368714 -0.0606424,-0.00621213 -0.0493716,-0.0351105 -0.0324058,-0.000336279 -0.0598179,-0.00882281 -0.0822149,-0.0251739 0.0163511,0.0223969 0.0256259,0.049198 0.0259658,0.0816038 0.0288947,-0.0112744 0.0719782,0.0225163 0.0351068,0.0493716 -0.00105223,-0.0404041 -0.0404403,-0.0227007 -0.0329156,-0.00274086 -0.0180398,-0.00926757 -0.0327963,0.0146263 -0.0281751,0.0146263 -0.00462113,1.44636e-005 0.0102475,0.022679 0.0282872,0.013415 -0.0075247,0.0199598 0.0318598,0.0376597 0.0329156,-0.00274447 0.0368678,0.0268553 -0.00621574,0.060646 -0.0351105,0.0493752 -0.000339895,0.0324058 -0.00949899,0.0603314 -0.0258501,0.0827319 0.0223969,-0.0163511 0.0493318,-0.0254488 0.0817376,-0.025785 -0.0112744,-0.0288947 0.0225163,-0.0719782 0.0493716,-0.0351105 -0.0404041,0.00105584 -0.0227007,0.0404403 -0.00274086,0.0329156 -0.00926757,0.0180434 0.00939051,0.0291912 0.013679,0.0274773z"/>
   <path id="_235010472" class="fil0 str0" d="M0.210283 0.129569c-0.0277268,0.00850461 -0.0544519,0.00718481 -0.0807107,2.89273e-005 0.00846845,0.0261213 0.00773081,0.0530851 4.70068e-005,0.0806781 0.0255319,-0.00857693 0.0521848,-0.0100378 0.0806492,-1.44636e-005 -0.00831659,-0.0306303 -0.00587223,-0.0564335 1.44636e-005,-0.0806926z"/>
  </g>
 </g>
</svg>
