<?xml version="1.0" encoding="UTF-8"?>
<!DOCTYPE svg PUBLIC "-//W3C//DTD SVG 1.1//EN" "http://www.w3.org/Graphics/SVG/1.1/DTD/svg11.dtd">
<!-- Creator: CorelDRAW -->
<svg xmlns="http://www.w3.org/2000/svg" xml:space="preserve" width="110px" height="110px" style="shape-rendering:geometricPrecision; text-rendering:geometricPrecision; image-rendering:optimizeQuality; fill-rule:evenodd; clip-rule:evenodd"
viewBox="0 0 0.517662 0.517662"
 xmlns:xlink="http://www.w3.org/1999/xlink">
 <defs>
  <style type="text/css">
   <![CDATA[
    .str0 {stroke:#4C4C4C;stroke-width:0.00466536}
    .fil0 {fill:white}
   ]]>
  </style>
 </defs>
 <g id="Plan_x0020_1">
  <metadata id="CorelCorpID_0Corel-Layer"/>
  <g id="_117778816">
   <polygon id="_117779272" class="fil0 str0" points="0.515326,0.00233543 0.00233543,0.00233543 0.00233543,0.515326 0.515326,0.515326 "/>
   <path id="_117779224" class="fil0 str0" d="M0.466442 0.515326c0,-0.0126025 -0.00202698,-0.0250288 -0.00930868,-0.0344091 -0.0186835,-0.0240704 -0.0440537,-0.0457998 -0.0625169,-0.0627868 -0.00867525,-0.00798123 -0.0147452,-0.0122941 -0.0222858,-0.000275405 -0.0242632,0.0386173 -0.0552076,0.0686639 -0.10564,0.0737203 -0.00539243,0.000534285 -0.0103277,0.000534285 -0.0157201,0 -0.0504321,-0.00505643 -0.0813766,-0.0351031 -0.10564,-0.0737203 -0.00754058,-0.0120187 -0.0136105,-0.00770583 -0.0222858,0.000275405 -0.0184631,0.016987 -0.0438334,0.0387164 -0.0625169,0.0627868 -0.0072817,0.00938029 -0.00930868,0.0218065 -0.00930868,0.0344091l0.415222 0z"/>
   <path id="_117779176" class="fil0 str0" d="M0.515326 0.0512198c-0.0126025,0 -0.0250288,0.00202698 -0.0344091,0.00930868 -0.0240704,0.0186835 -0.0457998,0.0440537 -0.0627868,0.0625169 -0.00798123,0.00867525 -0.0122941,0.0147452 -0.000275405,0.0222858 0.0386173,0.0242632 0.0686639,0.0552076 0.0737203,0.10564 0.000534285,0.00539243 0.000534285,0.0103277 0,0.0157201 -0.00505643,0.0504321 -0.0351031,0.0813766 -0.0737203,0.10564 -0.0120187,0.00754058 -0.00770583,0.0136105 0.000275405,0.0222858 0.016987,0.0184631 0.0387164,0.0438334 0.0627868,0.0625169 0.00938029,0.0072817 0.0218065,0.00930868 0.0344091,0.00930868l0 -0.415222z"/>
   <path id="_117779128" class="fil0 str0" d="M0.0512198 0.00233543c0,0.0126025 0.00202698,0.0250288 0.00930868,0.0344091 0.0186835,0.0240704 0.0440537,0.0457998 0.0625169,0.0627868 0.00867525,0.00798123 0.0147452,0.0122941 0.0222858,0.000275405 0.0242632,-0.0386173 0.0552076,-0.0686639 0.10564,-0.0737203 0.00539243,-0.000534285 0.0103277,-0.000534285 0.0157201,0 0.0504321,0.00505643 0.0813766,0.0351031 0.10564,0.0737203 0.00754058,0.0120187 0.0136105,0.00770583 0.0222858,-0.000275405 0.0184631,-0.016987 0.0438334,-0.0387164 0.0625169,-0.0627868 0.0072817,-0.00938029 0.00930868,-0.0218065 0.00930868,-0.0344091l-0.415222 0z"/>
   <path id="_117779080" class="fil0 str0" d="M0.00233543 0.466442c0.0126025,0 0.0250288,-0.00202698 0.0344091,-0.00930868 0.0240704,-0.0186835 0.0457998,-0.0440537 0.0627868,-0.0625169 0.00798123,-0.00867525 0.0122941,-0.0147452 0.000275405,-0.0222858 -0.0386173,-0.0242632 -0.0686639,-0.0552076 -0.0737203,-0.10564 -0.000534285,-0.00539243 -0.000534285,-0.0103277 0,-0.0157201 0.00505643,-0.0504321 0.0351031,-0.0813766 0.0737203,-0.10564 0.0120187,-0.00754058 0.00770583,-0.0136105 -0.000275405,-0.0222858 -0.016987,-0.0184631 -0.0387164,-0.0438334 -0.0627868,-0.0625169 -0.00938029,-0.0072817 -0.0218065,-0.00930868 -0.0344091,-0.00930868l0 0.415222z"/>
   <path id="_117779032" class="fil0 str0" d="M0.22641 0.453118c-0.0355878,-0.012261 -0.0655849,-0.0416853 -0.0597683,-0.082324 0.00196088,-0.0137262 0.0123491,-0.0334672 0.0281298,-0.0337261 0.00708341,-0.00011567 0.01534,0.00389973 0.0151197,0.0116882 -0.000225832,0.00818503 -0.00648854,0.0129991 -0.0140732,0.0127567 -0.00397134,-0.000132194 -0.00817952,-0.00150922 -0.0116937,0.000616907 -0.00669784,0.00404845 -0.00682453,0.012272 8.26214e-005,0.0174111 0.00324978,0.00241255 0.00871931,0.00153676 0.0132745,0.00102451 0.00198842,-0.000225832 0.0026549,-0.000572842 0.00414209,0.000671988 0.00201045,0.00166895 0.00425225,0.00271549 0.00657116,0.00396583 0.00171302,0.00092536 0.00148168,0.000622415 0.00260533,-0.000991457 0.00759016,-0.0108509 0.0113852,-0.0230404 0.0124373,-0.0371191 0.000214816,-0.00286972 -0.000848247,-0.00464883 0.00222527,-0.00304047 0.00539243,0.00282565 0.00989254,0.00667581 0.0138969,0.0110878 0.00187275,0.00206003 0.00232992,0.00185072 0.000583858,0.00396032 -0.00865322,0.0104599 -0.0140567,0.0219663 -0.0148829,0.0351967 -0.000181767,0.00293581 -0.000870279,0.00356925 0.00218671,0.00308453 0.0047645,-0.000760117 0.00925911,-0.00206554 0.013627,-0.00361882 0.00144863,-0.000512253 0.0013605,-0.000826214 0.00185072,0.000633431 0.00268795,0.0079592 0.00799225,0.0146075 0.0147397,0.0201156 0.00144863,0.00118424 0.00128339,0.00117873 0.00273202,0 0.00674742,-0.0055136 0.0120517,-0.0121564 0.0147397,-0.0201156 0.00049022,-0.00145965 0.000402091,-0.00114568 0.00185072,-0.000633431 0.00436792,0.00155328 0.00886253,0.0028587 0.013627,0.00361882 0.00305699,0.000484712 0.00236848,-0.000148719 0.00218671,-0.00308453 -0.000826214,-0.0132304 -0.00622966,-0.0247369 -0.0148829,-0.0351967 -0.00174607,-0.0021096 -0.00128889,-0.00190029 0.000583858,-0.00396032 0.00400439,-0.00441198 0.0085045,-0.00826214 0.0138969,-0.0110878 0.00307352,-0.00160836 0.00201045,0.000170751 0.00222527,0.00304047 0.00105205,0.0140787 0.00484712,0.0262681 0.0124373,0.0371191 0.00112365,0.00161387 0.000892311,0.00191682 0.00260533,0.000991457 0.00231891,-0.00125034 0.0045607,-0.00229688 0.00657116,-0.00396583 0.00148719,-0.00124483 0.00215367,-0.00089782 0.00414209,-0.000671988 0.00455519,0.000512253 0.0100247,0.00138804 0.0132745,-0.00102451 0.00690715,-0.00513905 0.00678047,-0.0133626 8.26214e-005,-0.0174111 -0.00351416,-0.00212612 -0.00772235,-0.000749101 -0.0116937,-0.000616907 -0.00758465,0.000242356 -0.0138474,-0.00457172 -0.0140732,-0.0127567 -0.000220324,-0.00778845 0.00803631,-0.0118038 0.0151197,-0.0116882 0.0157807,0.00025888 0.026169,0.0199999 0.0281298,0.0337261 0.00586061,0.0409582 -0.0246487,0.0705201 -0.0606001,0.0826049 -0.0219498,0.00737534 -0.0421039,0.00726518 -0.0640096,-0.000280913z"/>
   <path id="_117778984" class="fil0 str0" d="M0.453118 0.291252c-0.012261,0.0355878 -0.0416853,0.0655849 -0.082324,0.0597683 -0.0137262,-0.00196088 -0.0334672,-0.0123491 -0.0337261,-0.0281298 -0.00011567,-0.00708341 0.00389973,-0.01534 0.0116882,-0.0151197 0.00818503,0.000225832 0.0129991,0.00648854 0.0127567,0.0140732 -0.000132194,0.00397134 -0.00150922,0.00817952 0.000616907,0.0116937 0.00404845,0.00669784 0.012272,0.00682453 0.0174111,-8.26214e-005 0.00241255,-0.00324978 0.00153676,-0.00871931 0.00102451,-0.0132745 -0.000225832,-0.00198842 -0.000572842,-0.0026549 0.000671988,-0.00414209 0.00166895,-0.00201045 0.00271549,-0.00425225 0.00396583,-0.00657116 0.00092536,-0.00171302 0.000622415,-0.00148168 -0.000991457,-0.00260533 -0.0108509,-0.00759016 -0.0230404,-0.0113852 -0.0371191,-0.0124373 -0.00286972,-0.000214816 -0.00464883,0.000848247 -0.00304047,-0.00222527 0.00282565,-0.00539243 0.00667581,-0.00989254 0.0110878,-0.0138969 0.00206003,-0.00187275 0.00185072,-0.00232992 0.00396032,-0.000583858 0.0104599,0.00865322 0.0219663,0.0140567 0.0351967,0.0148829 0.00293581,0.000181767 0.00356925,0.000870279 0.00308453,-0.00218671 -0.000760117,-0.0047645 -0.00206554,-0.00925911 -0.00361882,-0.013627 -0.000512253,-0.00144863 -0.000826214,-0.0013605 0.000633431,-0.00185072 0.0079592,-0.00268795 0.0146075,-0.00799225 0.0201156,-0.0147397 0.00118424,-0.00144863 0.00117873,-0.00128339 0,-0.00273202 -0.0055136,-0.00674742 -0.0121564,-0.0120517 -0.0201156,-0.0147397 -0.00145965,-0.00049022 -0.00114568,-0.000402091 -0.000633431,-0.00185072 0.00155328,-0.00436792 0.0028587,-0.00886253 0.00361882,-0.013627 0.000484712,-0.00305699 -0.000148719,-0.00236848 -0.00308453,-0.00218671 -0.0132304,0.000826214 -0.0247369,0.00622966 -0.0351967,0.0148829 -0.0021096,0.00174607 -0.00190029,0.00128889 -0.00396032,-0.000583858 -0.00441198,-0.00400439 -0.00826214,-0.0085045 -0.0110878,-0.0138969 -0.00160836,-0.00307352 0.000170751,-0.00201045 0.00304047,-0.00222527 0.0140787,-0.00105205 0.0262681,-0.00484712 0.0371191,-0.0124373 0.00161387,-0.00112365 0.00191682,-0.000892311 0.000991457,-0.00260533 -0.00125034,-0.00231891 -0.00229688,-0.0045607 -0.00396583,-0.00657116 -0.00124483,-0.00148719 -0.00089782,-0.00215367 -0.000671988,-0.00414209 0.000512253,-0.00455519 0.00138804,-0.0100247 -0.00102451,-0.0132745 -0.00513905,-0.00690715 -0.0133626,-0.00678047 -0.0174111,-8.26214e-005 -0.00212612,0.00351416 -0.000749101,0.00772235 -0.000616907,0.0116937 0.000242356,0.00758465 -0.00457172,0.0138474 -0.0127567,0.0140732 -0.00778845,0.000220324 -0.0118038,-0.00803631 -0.0116882,-0.0151197 0.00025888,-0.0157807 0.0199999,-0.026169 0.0337261,-0.0281298 0.0409582,-0.00586061 0.0705201,0.0246487 0.0826049,0.0606001 0.00737534,0.0219498 0.00726518,0.0421039 -0.000280913,0.0640096z"/>
   <path id="_117778936" class="fil0 str0" d="M0.291252 0.0645439c0.0355878,0.012261 0.0655849,0.0416853 0.0597683,0.082324 -0.00196088,0.0137262 -0.0123491,0.0334672 -0.0281298,0.0337261 -0.00708341,0.00011567 -0.01534,-0.00389973 -0.0151197,-0.0116882 0.000225832,-0.00818503 0.00648854,-0.0129991 0.0140732,-0.0127567 0.00397134,0.000132194 0.00817952,0.00150922 0.0116937,-0.000616907 0.00669784,-0.00404845 0.00682453,-0.012272 -8.26214e-005,-0.0174111 -0.00324978,-0.00241255 -0.00871931,-0.00153676 -0.0132745,-0.00102451 -0.00198842,0.000225832 -0.0026549,0.000572842 -0.00414209,-0.000671988 -0.00201045,-0.00166895 -0.00425225,-0.00271549 -0.00657116,-0.00396583 -0.00171302,-0.00092536 -0.00148168,-0.000622415 -0.00260533,0.000991457 -0.00759016,0.0108509 -0.0113852,0.0230404 -0.0124373,0.0371191 -0.000214816,0.00286972 0.000848247,0.00464883 -0.00222527,0.00304047 -0.00539243,-0.00282565 -0.00989254,-0.00667581 -0.0138969,-0.0110878 -0.00187275,-0.00206003 -0.00232992,-0.00185072 -0.000583858,-0.00396032 0.00865322,-0.0104599 0.0140567,-0.0219663 0.0148829,-0.0351967 0.000181767,-0.00293581 0.000870279,-0.00356925 -0.00218671,-0.00308453 -0.0047645,0.000760117 -0.00925911,0.00206554 -0.013627,0.00361882 -0.00144863,0.000512253 -0.0013605,0.000826214 -0.00185072,-0.000633431 -0.00268795,-0.0079592 -0.00799225,-0.0146075 -0.0147397,-0.0201156 -0.00144863,-0.00118424 -0.00128339,-0.00117873 -0.00273202,0 -0.00674742,0.0055136 -0.0120517,0.0121564 -0.0147397,0.0201156 -0.00049022,0.00145965 -0.000402091,0.00114568 -0.00185072,0.000633431 -0.00436792,-0.00155328 -0.00886253,-0.0028587 -0.013627,-0.00361882 -0.00305699,-0.000484712 -0.00236848,0.000148719 -0.00218671,0.00308453 0.000826214,0.0132304 0.00622966,0.0247369 0.0148829,0.0351967 0.00174607,0.0021096 0.00128889,0.00190029 -0.000583858,0.00396032 -0.00400439,0.00441198 -0.0085045,0.00826214 -0.0138969,0.0110878 -0.00307352,0.00160836 -0.00201045,-0.000170751 -0.00222527,-0.00304047 -0.00105205,-0.0140787 -0.00484712,-0.0262681 -0.0124373,-0.0371191 -0.00112365,-0.00161387 -0.000892311,-0.00191682 -0.00260533,-0.000991457 -0.00231891,0.00125034 -0.0045607,0.00229688 -0.00657116,0.00396583 -0.00148719,0.00124483 -0.00215367,0.00089782 -0.00414209,0.000671988 -0.00455519,-0.000512253 -0.0100247,-0.00138804 -0.0132745,0.00102451 -0.00690715,0.00513905 -0.00678047,0.0133626 -8.26214e-005,0.0174111 0.00351416,0.00212612 0.00772235,0.000749101 0.0116937,0.000616907 0.00758465,-0.000242356 0.0138474,0.00457172 0.0140732,0.0127567 0.000220324,0.00778845 -0.00803631,0.0118038 -0.0151197,0.0116882 -0.0157807,-0.00025888 -0.026169,-0.0199999 -0.0281298,-0.0337261 -0.00586061,-0.0409582 0.0246487,-0.0705201 0.0606001,-0.0826049 0.0219498,-0.00737534 0.0421039,-0.00726518 0.0640096,0.000280913z"/>
   <path id="_117778888" class="fil0 str0" d="M0.0645439 0.22641c0.012261,-0.0355878 0.0416853,-0.0655849 0.082324,-0.0597683 0.0137262,0.00196088 0.0334672,0.0123491 0.0337261,0.0281298 0.00011567,0.00708341 -0.00389973,0.01534 -0.0116882,0.0151197 -0.00818503,-0.000225832 -0.0129991,-0.00648854 -0.0127567,-0.0140732 0.000132194,-0.00397134 0.00150922,-0.00817952 -0.000616907,-0.0116937 -0.00404845,-0.00669784 -0.012272,-0.00682453 -0.0174111,8.26214e-005 -0.00241255,0.00324978 -0.00153676,0.00871931 -0.00102451,0.0132745 0.000225832,0.00198842 0.000572842,0.0026549 -0.000671988,0.00414209 -0.00166895,0.00201045 -0.00271549,0.00425225 -0.00396583,0.00657116 -0.00092536,0.00171302 -0.000622415,0.00148168 0.000991457,0.00260533 0.0108509,0.00759016 0.0230404,0.0113852 0.0371191,0.0124373 0.00286972,0.000214816 0.00464883,-0.000848247 0.00304047,0.00222527 -0.00282565,0.00539243 -0.00667581,0.00989254 -0.0110878,0.0138969 -0.00206003,0.00187275 -0.00185072,0.00232992 -0.00396032,0.000583858 -0.0104599,-0.00865322 -0.0219663,-0.0140567 -0.0351967,-0.0148829 -0.00293581,-0.000181767 -0.00356925,-0.000870279 -0.00308453,0.00218671 0.000760117,0.0047645 0.00206554,0.00925911 0.00361882,0.013627 0.000512253,0.00144863 0.000826214,0.0013605 -0.000633431,0.00185072 -0.0079592,0.00268795 -0.0146075,0.00799225 -0.0201156,0.0147397 -0.00118424,0.00144863 -0.00117873,0.00128339 0,0.00273202 0.0055136,0.00674742 0.0121564,0.0120517 0.0201156,0.0147397 0.00145965,0.00049022 0.00114568,0.000402091 0.000633431,0.00185072 -0.00155328,0.00436792 -0.0028587,0.00886253 -0.00361882,0.013627 -0.000484712,0.00305699 0.000148719,0.00236848 0.00308453,0.00218671 0.0132304,-0.000826214 0.0247369,-0.00622966 0.0351967,-0.0148829 0.0021096,-0.00174607 0.00190029,-0.00128889 0.00396032,0.000583858 0.00441198,0.00400439 0.00826214,0.0085045 0.0110878,0.0138969 0.00160836,0.00307352 -0.000170751,0.00201045 -0.00304047,0.00222527 -0.0140787,0.00105205 -0.0262681,0.00484712 -0.0371191,0.0124373 -0.00161387,0.00112365 -0.00191682,0.000892311 -0.000991457,0.00260533 0.00125034,0.00231891 0.00229688,0.0045607 0.00396583,0.00657116 0.00124483,0.00148719 0.00089782,0.00215367 0.000671988,0.00414209 -0.000512253,0.00455519 -0.00138804,0.0100247 0.00102451,0.0132745 0.00513905,0.00690715 0.0133626,0.00678047 0.0174111,8.26214e-005 0.00212612,-0.00351416 0.000749101,-0.00772235 0.000616907,-0.0116937 -0.000242356,-0.00758465 0.00457172,-0.0138474 0.0127567,-0.0140732 0.00778845,-0.000220324 0.0118038,0.00803631 0.0116882,0.0151197 -0.00025888,0.0157807 -0.0199999,0.026169 -0.0337261,0.0281298 -0.0409582,0.00586061 -0.0705201,-0.0246487 -0.0826049,-0.0606001 -0.00737534,-0.0219498 -0.00726518,-0.0421039 0.000280913,-0.0640096z"/>
   <path id="_117778840" class="fil0 str0" d="M0.230134 0.246944c-0.00559072,0.00717705 -0.0215422,-0.00462129 -0.0361662,-0.00976034 -0.00241255,-0.000848247 -0.00305148,-0.0017681 -0.00393829,0.000820706 -0.00111814,0.00324427 -0.00140456,0.00649404 -0.0013605,0.00974382 2.20324e-005,0.00172403 -2.75405e-005,0.00149269 -0.00153125,0.00235746 -0.00371246,0.00214816 -0.00730373,0.00434589 -0.0093913,0.00751304 -0.000754609,0.00115119 -0.000749101,0.00127237 0,0.00242356 0.00208757,0.00316715 0.00567885,0.00536488 0.0093913,0.00751304 0.00150371,0.000864771 0.00155328,0.000633431 0.00153125,0.00235746 -4.40648e-005,0.00324978 0.000242356,0.00649955 0.0013605,0.00974382 0.000886803,0.0025888 0.00152574,0.00166895 0.00393829,0.000820706 0.014624,-0.00513905 0.0305754,-0.0169374 0.0361662,-0.00976034 0.00111814,0.00902777 -0.0184962,0.0119636 -0.0324757,0.0186724 -0.00230789,0.00110713 -0.00340951,0.000903328 -0.00220324,0.00336545 0.00150371,0.00308453 0.00360229,0.00558521 0.00592671,0.00784904 0.00123381,0.00120627 0.00104103,0.00107408 0.000589366,0.00275405 -0.00111264,0.00414209 -0.00209858,0.0082346 -0.00133296,0.0119471 0.000280913,0.00134948 0.000369042,0.00143761 0.00171853,0.00171853 0.00371246,0.000765625 0.00780497,-0.000220324 0.0119471,-0.00133296 0.00167997,-0.000451664 0.00154777,-0.000644447 0.00275405,0.000589366 0.00226383,0.00232442 0.0047645,0.004423 0.00784904,0.00592671 0.00246212,0.00120627 0.00225832,0.000104654 0.00336545,-0.00220324 0.00670886,-0.0139795 0.00963917,-0.0335939 0.0186724,-0.0324757 0.00717705,0.00559072 -0.00461578,0.0215422 -0.00976034,0.0361662 -0.000848247,0.00241255 -0.0017681,0.00305148 0.000820706,0.00393829 0.00324427,0.00111814 0.00649404,0.00140456 0.00974382,0.0013605 0.00172403,-2.20324e-005 0.00149269,2.75405e-005 0.00235746,0.00153125 0.00214816,0.00371246 0.00434589,0.00730373 0.00751304,0.0093913 0.00115119,0.000754609 0.00127237,0.000749101 0.00242356,0 0.00316715,-0.00208757 0.00536488,-0.00567885 0.00751304,-0.0093913 0.000864771,-0.00150371 0.000633431,-0.00155328 0.00235746,-0.00153125 0.00324978,4.40648e-005 0.00649955,-0.000242356 0.00974382,-0.0013605 0.0025888,-0.000886803 0.00166895,-0.00152574 0.000820706,-0.00393829 -0.00513905,-0.014624 -0.0169374,-0.0305754 -0.00976034,-0.0361662 0.00902777,-0.00111814 0.0119636,0.0184962 0.0186724,0.0324757 0.00110713,0.00230789 0.000903328,0.00340951 0.00336545,0.00220324 0.00308453,-0.00150371 0.00558521,-0.00360229 0.00784904,-0.00592671 0.00120627,-0.00123381 0.00107408,-0.00104103 0.00275405,-0.000589366 0.00414209,0.00111264 0.0082346,0.00209858 0.0119471,0.00133296 0.00134948,-0.000280913 0.00143761,-0.000369042 0.00171853,-0.00171853 0.000765625,-0.00371246 -0.000220324,-0.00780497 -0.00133296,-0.0119471 -0.000451664,-0.00167997 -0.000644447,-0.00154777 0.000589366,-0.00275405 0.00232442,-0.00226383 0.004423,-0.0047645 0.00592671,-0.00784904 0.00120627,-0.00246212 0.000104654,-0.00225832 -0.00220324,-0.00336545 -0.0139795,-0.00670886 -0.0335939,-0.00963917 -0.0324757,-0.0186724 0.00559072,-0.00717705 0.0215422,0.00461578 0.0361662,0.00976034 0.00241255,0.000848247 0.00305148,0.0017681 0.00393829,-0.000820706 0.00111814,-0.00324427 0.00140456,-0.00649404 0.0013605,-0.00974382 -2.20324e-005,-0.00172403 2.75405e-005,-0.00149269 0.00153125,-0.00235746 0.00371246,-0.00214816 0.00730373,-0.00434589 0.0093913,-0.00751304 0.000754609,-0.00115119 0.000749101,-0.00127237 0,-0.00242356 -0.00208757,-0.00316715 -0.00567885,-0.00536488 -0.0093913,-0.00751304 -0.00150371,-0.000864771 -0.00155328,-0.000633431 -0.00153125,-0.00235746 4.40648e-005,-0.00324978 -0.000242356,-0.00649955 -0.0013605,-0.00974382 -0.000886803,-0.0025888 -0.00152574,-0.00166895 -0.00393829,-0.000820706 -0.014624,0.00513905 -0.0305754,0.0169374 -0.0361662,0.00976034 -0.00111814,-0.00902777 0.0184962,-0.0119636 0.0324757,-0.0186724 0.00230789,-0.00110713 0.00340951,-0.000903328 0.00220324,-0.00336545 -0.00150371,-0.00308453 -0.00360229,-0.00558521 -0.00592671,-0.00784904 -0.00123381,-0.00120627 -0.00104103,-0.00107408 -0.000589366,-0.00275405 0.00111264,-0.00414209 0.00209858,-0.0082346 0.00133296,-0.0119471 -0.000280913,-0.00134948 -0.000369042,-0.00143761 -0.00171853,-0.00171853 -0.00371246,-0.000765625 -0.00780497,0.000220324 -0.0119471,0.00133296 -0.00167997,0.000451664 -0.00154777,0.000644447 -0.00275405,-0.000589366 -0.00226383,-0.00232442 -0.0047645,-0.004423 -0.00784904,-0.00592671 -0.00246212,-0.00120627 -0.00225832,-0.000104654 -0.00336545,0.00220324 -0.00670886,0.0139795 -0.00963917,0.0335939 -0.0186724,0.0324757 -0.00717705,-0.00559072 0.00461578,-0.0215422 0.00976034,-0.0361662 0.000848247,-0.00241255 0.0017681,-0.00305148 -0.000820706,-0.00393829 -0.00324427,-0.00111814 -0.00649404,-0.00140456 -0.00974382,-0.0013605 -0.00172403,2.20324e-005 -0.00149269,-2.75405e-005 -0.00235746,-0.00153125 -0.00214816,-0.00371246 -0.00434589,-0.00730373 -0.00751304,-0.0093913 -0.00115119,-0.000754609 -0.00127237,-0.000749101 -0.00242356,0 -0.00316715,0.00208757 -0.00536488,0.00567885 -0.00751304,0.0093913 -0.000864771,0.00150371 -0.000633431,0.00155328 -0.00235746,0.00153125 -0.00324978,-4.40648e-005 -0.00649955,0.000242356 -0.00974382,0.0013605 -0.0025888,0.000886803 -0.00166895,0.00152574 -0.000820706,0.00393829 0.00513905,0.014624 0.0169374,0.0305754 0.00976034,0.0361662 -0.00902777,0.00111814 -0.0119636,-0.0184962 -0.0186724,-0.0324757 -0.00110713,-0.00230789 -0.000903328,-0.00340951 -0.00336545,-0.00220324 -0.00308453,0.00150371 -0.00558521,0.00360229 -0.00784904,0.00592671 -0.00120627,0.00123381 -0.00107408,0.00104103 -0.00275405,0.000589366 -0.00414209,-0.00111264 -0.0082346,-0.00209858 -0.0119471,-0.00133296 -0.00134948,0.000280913 -0.00143761,0.000369042 -0.00171853,0.00171853 -0.000765625,0.00371246 0.000220324,0.00780497 0.00133296,0.0119471 0.000451664,0.00167997 0.000644447,0.00154777 -0.000589366,0.00275405 -0.00232442,0.00226383 -0.004423,0.0047645 -0.00592671,0.00784904 -0.00120627,0.00246212 -0.000104654,0.00225832 0.00220324,0.00336545 0.0139795,0.00670886 0.0335939,0.00964467 0.0324757,0.0186724z"/>
  </g>
  <polyline class="fil0 str0" points="0.515326,0.466442 0.515326,0.515326 0.466442,0.515326 "/>
  <polyline class="fil0 str0" points="0.466442,0.00233543 0.515326,0.00233543 0.515326,0.0512198 "/>
  <polyline class="fil0 str0" points="0.0512198,0.00233543 0.00233543,0.00233543 0.00233543,0.0512198 "/>
  <polyline class="fil0 str0" points="0.00233543,0.466442 0.00233543,0.515326 0.0512198,0.515326 "/>
 </g>
</svg>
