<?xml version="1.0" encoding="UTF-8"?>
<!DOCTYPE svg PUBLIC "-//W3C//DTD SVG 1.1//EN" "http://www.w3.org/Graphics/SVG/1.1/DTD/svg11.dtd">
<!-- Creator: CorelDRAW -->
<svg xmlns="http://www.w3.org/2000/svg" xml:space="preserve" width="110px" height="110px" style="shape-rendering:geometricPrecision; text-rendering:geometricPrecision; image-rendering:optimizeQuality; fill-rule:evenodd; clip-rule:evenodd"
viewBox="0 0 0.554606 0.554453"
 xmlns:xlink="http://www.w3.org/1999/xlink">
 <defs>
  <style type="text/css">
   <![CDATA[
    .str0 {stroke:#605D5C;stroke-width:0.00499863}
    .fil0 {fill:white}
   ]]>
  </style>
 </defs>
 <g id="Plan_x0020_1">
  <metadata id="CorelCorpID_0Corel-Layer"/>
  <g id="_259519672">
   <polygon id="_259521064" class="fil0 str0" points="0.552104,0.00269112 0.552104,0.551732 0.00254358,0.551732 0.00254358,0.00269112 "/>
   <path id="_259521136" class="fil0 str0" d="M0.550434 0.551018c-0.216239,-0.145367 -0.397306,-0.116048 -0.546627,0.000171146 -0.000761303,0.000590157 -0.001499,0.00141638 -0.00063737,9.44251e-005 0.0660268,-0.100958 0.0930501,-0.18947 -0.000672779,-0.218028 4.72126e-005,-0.0110064 8.85236e-005,-0.0220129 0.000129835,-0.0330193 0.173618,-0.00848056 0.335793,0.0318036 0.548167,0.250563 0.00162883,0.00168195 0.00133375,0.00135146 -0.000359996,0.000218358z"/>
   <path id="_259521208" class="fil0 str0" d="M0.551354 0.550404c-0.146082,-0.216552 -0.116497,-0.397813 0.000330488,-0.547229 0.000519338,-0.000666877 0.000483929,-0.000584255 -0.000177047,-0.000147539 -0.101141,0.0660622 -0.189848,0.0931622 -0.218453,-0.000531141 -0.0110123,4.1311e-005 -0.0220306,8.2622e-005 -0.0330488,0.000129835 -0.00848646,0.173506 0.0318626,0.335575 0.251012,0.547843 0.00107409,0.00104458 0.00137507,0.00147539 0.00033639,-6.49173e-005z"/>
   <path id="_259521352" class="fil0 str0" d="M0.430514 0.360745c-0.0180824,-0.108016 -0.00649763,-0.198747 0.0296554,-0.275155 -0.0413818,0.00819138 -0.0834659,0.00649763 -0.127114,-0.0169316 0.00329898,0.0852954 0.0286167,0.179697 0.0974585,0.292086z"/>
   <path id="_259521496" class="fil0 str0" d="M0.361088 0.43062c-0.108117,-0.0180647 -0.19893,-0.00649173 -0.275414,0.0296318 0.00819728,-0.0413464 0.00650353,-0.0833951 -0.0169493,-0.126996 0.085378,0.00329308 0.179868,0.0285872 0.292364,0.0973641z"/>
  </g>
 </g>
</svg>
