<?xml version="1.0" encoding="UTF-8"?>
<!DOCTYPE svg PUBLIC "-//W3C//DTD SVG 1.1//EN" "http://www.w3.org/Graphics/SVG/1.1/DTD/svg11.dtd">
<!-- Creator: CorelDRAW -->
<svg xmlns="http://www.w3.org/2000/svg" xml:space="preserve" width="110px" height="110px" style="shape-rendering:geometricPrecision; text-rendering:geometricPrecision; image-rendering:optimizeQuality; fill-rule:evenodd; clip-rule:evenodd"
viewBox="0 0 0.620386 0.620386"
 xmlns:xlink="http://www.w3.org/1999/xlink">
 <defs>
  <style type="text/css">
   <![CDATA[
    .str0 {stroke:#4C4C4C;stroke-width:0.00559115}
    .fil0 {fill:none}
   ]]>
  </style>
 </defs>
 <g id="Capa_x0020_1">
  <metadata id="CorelCorpID_0Corel-Layer"/>
  <g id="_205698104">
   <polygon id="_205698488" class="fil0 str0" points="0.00279887,0.00279887 0.00279887,0.617588 0.617588,0.617588 0.617588,0.00279887 "/>
   <path id="_205698440" class="fil0 str0" d="M0.112113 0.128623c-0.0403724,0.0145291 -0.0549279,0.0468613 -0.0146941,0.0881844 0.00157107,-0.0740052 0.0493368,-0.0638328 0.0904089,-0.0268269 -0.0870028,0.0994789 -0.157331,0.21816 -0.161972,0.40455 0.162995,0 0.19474,-0.0343918 0.322887,-0.0928513 0.0457392,-0.0208661 0.10476,0.00088455 0.134749,0.0297116 -0.0058684,-0.0463795 -0.0171431,-0.0668099 -0.0650012,-0.0877223 0.0784081,-0.099162 0.180956,-0.205519 0.175874,-0.417811 -0.183874,0.00277247 -0.280561,0.0616545 -0.376323,0.135541 -0.0173609,-0.0166216 -0.0499903,-0.0490529 -0.0196185,-0.0810023 -0.0157899,-0.00512247 -0.0344182,0.0228465 -0.0355734,0.0425046 -0.0260546,-0.0144432 -0.029771,-0.050492 -0.0222722,-0.0701501 -0.0217969,0.00720182 -0.0581625,0.0287215 -0.028464,0.0758733z"/>
   <path id="_205698392" class="fil0 str0" d="M0.228663 0.512749c0.0743946,-0.0726123 0.0503203,-0.237449 -0.011783,-0.289849 -0.0913661,0.0981058 -0.122636,0.209401 -0.135198,0.313731 0.059146,0.0139944 0.100403,0.00134003 0.123632,-0.0379102 0.0103242,-0.0174402 -0.00497064,-0.0584925 -0.0440823,-0.0676747 0.102938,-0.00347219 0.079055,0.0364448 0.0674304,0.0817021z"/>
   <path id="_205698344" class="fil0 str0" d="M0.242512 0.19571c0.046188,0.0477723 0.0888973,0.14599 0.0453959,0.285353 0.0769955,-0.0379234 0.134894,-0.0930428 0.132207,-0.128999 -0.00633047,-0.0847584 -0.0359959,-0.0808175 -0.0920262,-0.021018 0.0149449,-0.0511785 0.019097,-0.100865 0.0681236,-0.0927457 -0.0188396,-0.0423858 0.0474092,-0.088719 0.0804016,-0.094396 -0.0590008,0.0703349 -0.0421019,0.130583 -0.0112549,0.16246 0.0583275,-0.0851148 0.0798735,-0.124794 0.0743682,-0.230148 -0.109823,0.00460098 -0.205856,0.0443727 -0.297215,0.119493z"/>
   <circle id="_205698296" class="fil0 str0" transform="matrix(1.12024E-013 0.845712 0.845716 -1.11938E-013 0.525138 0.426888)" r="0.0380224"/>
   <circle id="_205698248" class="fil0 str0" transform="matrix(6.39854E-014 0.482989 0.482992 -6.39422E-014 0.546441 0.54262)" r="0.0380224"/>
   <circle id="_205698200" class="fil0 str0" transform="matrix(6.46816E-014 0.488553 0.488555 -6.46815E-014 0.0723859 0.263481)" r="0.0380224"/>
   <circle id="_205698152" class="fil0 str0" transform="matrix(8.93972E-014 0.675072 0.675076 -8.9397E-014 0.196588 0.359622)" r="0.0380224"/>
  </g>
 </g>
</svg>
