<?xml version="1.0" encoding="UTF-8"?>
<!DOCTYPE svg PUBLIC "-//W3C//DTD SVG 1.1//EN" "http://www.w3.org/Graphics/SVG/1.1/DTD/svg11.dtd">
<!-- Creator: CorelDRAW -->
<svg xmlns="http://www.w3.org/2000/svg" xml:space="preserve" width="110px" height="110px" style="shape-rendering:geometricPrecision; text-rendering:geometricPrecision; image-rendering:optimizeQuality; fill-rule:evenodd; clip-rule:evenodd"
viewBox="0 0 0.540897 0.54092"
 xmlns:xlink="http://www.w3.org/1999/xlink">
 <defs>
  <style type="text/css">
   <![CDATA[
    .str0 {stroke:#4C4C4C;stroke-width:0.00487487}
    .fil0 {fill:none}
   ]]>
  </style>
 </defs>
 <g id="Plan_x0020_1">
  <metadata id="CorelCorpID_0Corel-Layer"/>
  <g id="_113191856">
   <polygon id="_113192168" class="fil0 str0" points="0.538451,0.53848 0.538451,0.00245758 0.00244031,0.00245758 0.00244031,0.53848 "/>
   <path id="_113192120" class="fil0 str0" d="M0.538451 0.465766l0 0.0727144 -0.0727029 -1.72664e-005c0.00966341,-0.0407256 0.0359486,-0.0664985 0.0727029,-0.0726971z"/>
   <path id="_113192072" class="fil0 str0" d="M0.538451 0.465766c0,-0.0186189 5.75545e-006,-0.0373299 5.75545e-006,-0.0559488 -0.0834368,0.011062 -0.123288,0.063028 -0.128922,0.128663l0.0562078 -1.72664e-005c0.00908786,-0.0366737 0.0303427,-0.0639546 0.0727086,-0.0726971z"/>
   <path id="_113192024" class="fil0 str0" d="M0.538457 0.409811l-5.75545e-006 -0.103725c-0.310196,0.113923 -0.448914,-0.069428 -0.535061,-0.302933 -0.000293528,-0.000800008 -0.000264751,-0.000794253 -0.000172664,4.60436e-005 0.0155052,0.14075 0.0485818,0.279232 0.203352,0.402024 0.0466652,0.0445414 0.0819922,0.0886973 0.0995003,0.133239l0.103719 -5.75545e-006c0.00915693,-0.0861937 0.0642654,-0.118821 0.128669,-0.128646z"/>
   <path id="_113191976" class="fil0 str0" d="M0.439786 0.388597c-0.0428206,0.0285758 -0.0644438,0.0692554 -0.0685072,0.119955 -0.0218995,-0.0426939 -0.0494566,-0.084985 -0.0972269,-0.125831 0.060956,0.0128519 0.114931,0.0123857 0.165734,0.00587632z"/>
   <path id="_113191928" class="fil0 str0" d="M0.00244031 0.53848l-5.75545e-006 -0.0582049c0.0467976,-0.0516782 0.110954,-0.00515689 0.0581934,0.0581991l-0.0581876 5.75545e-006z"/>
   <path id="_113191880" class="fil0 str0" d="M0.53844 0.00244031l5.75545e-006 0.0582049c-0.0467976,0.0516782 -0.110977,0.00515113 -0.0582164,-0.0582049l0.0582107 0z"/>
  </g>
  <line class="fil0 str0" x1="0.306069" y1="0.538463" x2="0.0606279" y2= "0.538474" />
  <polyline class="fil0 str0" points="0.00243456,0.480275 0.00338996,0.00315399 0.480229,0.00244031 "/>
  <line class="fil0 str0" x1="0.538446" y1="0.0606452" x2="0.538451" y2= "0.306086" />
 </g>
</svg>
