<?xml version="1.0" encoding="UTF-8"?>
<!DOCTYPE svg PUBLIC "-//W3C//DTD SVG 1.1//EN" "http://www.w3.org/Graphics/SVG/1.1/DTD/svg11.dtd">
<!-- Creator: CorelDRAW -->
<svg xmlns="http://www.w3.org/2000/svg" xml:space="preserve" width="110px" height="110px" style="shape-rendering:geometricPrecision; text-rendering:geometricPrecision; image-rendering:optimizeQuality; fill-rule:evenodd; clip-rule:evenodd"
viewBox="0 0 18.2716 18.2716"
 xmlns:xlink="http://www.w3.org/1999/xlink">
 <defs>
  <style type="text/css">
   <![CDATA[
    .str0 {stroke:#4C4C4C;stroke-width:0.164674}
    .fil0 {fill:white}
   ]]>
  </style>
 </defs>
 <g id="Capa_x0020_1">
  <metadata id="CorelCorpID_0Corel-Layer"/>
  <g id="_198301672">
   <rect id="_198302464" class="fil0 str0" x="0.0823636" y="0.0823365" width="18.1069" height="18.1069"/>
   <path id="_198305776" class="fil0 str0" d="M0.0834061 10.767c0.140954,0.000583259 0.284631,0.00038884 0.428112,0.00038884 0.143676,0 0.287158,-0.00019442 0.428112,0.00038884 0.1324,0.438417 0.289297,0.777485 0.456692,1.04656 0.167007,0.269077 0.344706,0.468163 0.518129,0.627198 0.348789,0.319821 0.793427,0.53271 1.24079,0.738212 0.513463,0.235831 0.858752,0.431029 1.13191,0.68183 0.0408282,0.0377174 0.080101,0.0767958 0.118013,0.11743 0.254884,0.273937 0.447943,0.617477 0.686691,1.13736 0.205502,0.44736 0.418391,0.891998 0.738212,1.24079 0.159035,0.173422 0.358121,0.351122 0.627198,0.518129 0.269077,0.167395 0.608145,0.324292 1.04656,0.456692 0.000583259,0.140954 0.00038884,0.284436 0.00038884,0.428112 0,0.143482 -0.00019442,0.287158 0.00038884,0.428112l3.26256 -0.00019442c0.00038884,-0.14076 0.00038884,-0.284436 0.00038884,-0.428112 0,-0.143482 -0.00019442,-0.287158 0.00019442,-0.427918 0.438611,-0.1324 0.777485,-0.289491 1.04656,-0.456692 0.269077,-0.167201 0.468357,-0.344901 0.627393,-0.518323 0.319821,-0.348789 0.532516,-0.793427 0.738018,-1.24059 0.235831,-0.513657 0.431223,-0.858947 0.682025,-1.13191 0.037523,-0.0408282 0.0766014,-0.0802954 0.117235,-0.118013 0.274132,-0.254884 0.617672,-0.447943 1.13755,-0.686885 0.447166,-0.205307 0.891804,-0.418197 1.24059,-0.738018 0.173422,-0.159035 0.351122,-0.358316 0.518323,-0.627393 0.167201,-0.269077 0.324292,-0.607951 0.456498,-1.04656 0.140954,-0.00038884 0.284631,-0.00019442 0.428112,-0.00019442 0.143676,0 0.287352,0 0.428112,-0.00038884l0 -3.26256c-0.140954,-0.000583259 -0.284631,-0.00038884 -0.428112,-0.00038884 -0.143676,0 -0.287158,0.00019442 -0.428112,-0.00038884 -0.1324,-0.438417 -0.289297,-0.777485 -0.456692,-1.04656 -0.167007,-0.269077 -0.344706,-0.468163 -0.518129,-0.627198 -0.348789,-0.319821 -0.793427,-0.53271 -1.24079,-0.738212 -0.513463,-0.235831 -0.858752,-0.431029 -1.13191,-0.68183 -0.0408282,-0.037523 -0.080101,-0.0766014 -0.118013,-0.11743 -0.254884,-0.273937 -0.447943,-0.617477 -0.686691,-1.13736 -0.205502,-0.44736 -0.418391,-0.891998 -0.738212,-1.24079 -0.159035,-0.173422 -0.358121,-0.351122 -0.627198,-0.518129 -0.269077,-0.167395 -0.608145,-0.324292 -1.04656,-0.456692 -0.000583259,-0.140954 -0.00038884,-0.284436 -0.00038884,-0.428112 0,-0.143482 0.00019442,-0.287158 -0.00038884,-0.428112l-3.26236 0.00019442c-0.000583259,0.140954 -0.00038884,0.284631 -0.00038884,0.428112 0,0.143676 0.00019442,0.287158 -0.00038884,0.428112 -0.438417,0.1324 -0.777485,0.289297 -1.04656,0.456692 -0.269077,0.167007 -0.468163,0.344706 -0.627198,0.518129 -0.319821,0.348789 -0.53271,0.793427 -0.738212,1.24079 -0.235831,0.513463 -0.431029,0.858752 -0.68183,1.13191 -0.0377174,0.0408282 -0.0766014,0.080101 -0.11743,0.118013 -0.273937,0.254884 -0.617477,0.447943 -1.13736,0.686691 -0.44736,0.205502 -0.891998,0.418391 -1.24079,0.738212 -0.173422,0.159035 -0.351122,0.358121 -0.518129,0.627198 -0.167395,0.269077 -0.324292,0.608145 -0.456692,1.04656 -0.140954,0.000583259 -0.284436,0.00038884 -0.428112,0.00038884 -0.143482,0 -0.287158,-0.00019442 -0.428112,0.00038884l0 3.26236z"/>
   <path id="_198295024" class="fil0 str0" d="M0.812869 0.81423c-0.156119,0.365704 0.0694079,1.28784 1.26412,1.93467 0.284436,0.154175 0.565956,0.328375 0.831145,0.567511 0.16584,0.149509 0.550986,0.479439 0.0559929,0.327597 -0.151647,-0.0464663 -0.300184,-0.144648 -0.439972,-0.253329 -0.262272,-0.203558 -0.508991,-0.332847 -0.858947,-0.335569 -0.711382,-0.00544375 -0.838144,0.731018 -0.505103,0.974043 0.223,-0.506075 0.769125,-0.575288 1.62321,0.0311072 -0.04355,0.318848 0.14912,0.367842 0.438611,0.31321 0.30835,0.0262467 0.607562,-0.0859336 0.827451,-0.295907 0.209973,-0.2195 0.335569,-0.531349 0.309322,-0.83931 0.054632,-0.289297 0.00563817,-0.481772 -0.313599,-0.438222 -0.606784,-0.853308 -0.537571,-1.39885 -0.0311072,-1.62166 -0.243025,-0.332652 -0.980265,-0.205891 -0.974821,0.504519 0.00252746,0.349761 0.132011,0.596091 0.335763,0.858169 0.108875,0.139788 0.207057,0.287936 0.253523,0.439583 0.152036,0.49441 -0.178089,0.109653 -0.327792,-0.0557985 -0.239525,-0.265189 -0.41392,-0.54632 -0.568095,-0.830367 -0.647612,-1.19354 -1.55361,-1.43618 -1.9197,-1.28025z"/>
   <path id="_198290464" class="fil0 str0" d="M0.814425 17.4587c0.365704,0.156119 1.28764,-0.0696023 1.93448,-1.26431 0.154175,-0.284242 0.328375,-0.565762 0.567706,-0.831145 0.149509,-0.165646 0.479439,-0.550791 0.327403,-0.0557985 -0.0464663,0.151647 -0.144454,0.29999 -0.253135,0.439972 -0.203558,0.262272 -0.333041,0.508991 -0.335569,0.858947 -0.00563817,0.711188 0.731018,0.838144 0.973849,0.505103 -0.506075,-0.223 -0.575094,-0.769125 0.0311072,-1.62341 0.318848,0.0437445 0.367842,-0.14912 0.31321,-0.438417 0.0264411,-0.30835 -0.0859336,-0.607756 -0.295713,-0.827451 -0.219694,-0.210168 -0.531544,-0.335763 -0.83931,-0.309322 -0.289297,-0.0548264 -0.481772,-0.00563817 -0.438417,0.313405 -0.853308,0.606979 -1.39885,0.537765 -1.62166,0.0313016 -0.332652,0.243025 -0.205891,0.980265 0.504714,0.974821 0.349567,-0.00252746 0.596091,-0.132205 0.858169,-0.335957 0.139593,-0.108681 0.287936,-0.206863 0.439389,-0.253329 0.494604,-0.152231 0.109847,0.178089 -0.0557985,0.327792 -0.264994,0.239331 -0.546125,0.413725 -0.830367,0.568095 -1.19354,0.647612 -1.43618,1.55361 -1.28006,1.9197z"/>
   <path id="_198305824" class="fil0 str0" d="M17.4587 17.4571c0.156119,-0.365704 -0.0694079,-1.28784 -1.26412,-1.93467 -0.284436,-0.154175 -0.565956,-0.328375 -0.831145,-0.567511 -0.16584,-0.149509 -0.550986,-0.479439 -0.0559929,-0.327403 0.151647,0.0462719 0.300184,0.144454 0.439972,0.253135 0.262272,0.203558 0.508991,0.332847 0.858947,0.335569 0.711382,0.00544375 0.838144,-0.731018 0.505103,-0.974043 -0.223,0.506075 -0.769125,0.575288 -1.62321,-0.0311072 0.04355,-0.318848 -0.14912,-0.367842 -0.438611,-0.31321 -0.30835,-0.0262467 -0.607562,0.0859336 -0.827451,0.295907 -0.209973,0.2195 -0.335569,0.531349 -0.309322,0.83931 -0.054632,0.289297 -0.00563817,0.481772 0.313599,0.438222 0.606784,0.853308 0.537571,1.39885 0.0311072,1.62166 0.243025,0.332652 0.980265,0.206085 0.974821,-0.504519 -0.00252746,-0.349761 -0.132011,-0.596091 -0.335763,-0.858169 -0.108875,-0.139788 -0.207057,-0.287936 -0.253523,-0.439583 -0.152036,-0.49441 0.178089,-0.109653 0.327792,0.0557985 0.239525,0.265189 0.41392,0.54632 0.568095,0.830367 0.647612,1.19354 1.55361,1.43618 1.9197,1.28025z"/>
   <path id="_198305464" class="fil0 str0" d="M17.4571 0.812675c-0.365704,-0.156119 -1.28764,0.0696023 -1.93448,1.26431 -0.154175,0.284242 -0.328375,0.565762 -0.567706,0.831145 -0.149509,0.165646 -0.479439,0.550791 -0.327403,0.0557985 0.0464663,-0.151647 0.144454,-0.29999 0.253135,-0.439972 0.203558,-0.262272 0.333041,-0.508991 0.335569,-0.858947 0.00563817,-0.711188 -0.731018,-0.837949 -0.973849,-0.505103 0.506075,0.223 0.575094,0.769125 -0.0311072,1.62341 -0.318848,-0.0437445 -0.367842,0.14912 -0.31321,0.438417 -0.0264411,0.30835 0.0859336,0.607756 0.295713,0.827451 0.219694,0.210168 0.531544,0.335763 0.83931,0.309322 0.289297,0.0548264 0.481772,0.00563817 0.438417,-0.313405 0.853308,-0.606979 1.39885,-0.537765 1.62166,-0.0311072 0.332652,-0.243219 0.205891,-0.980459 -0.504714,-0.975015 -0.349567,0.00272188 -0.596091,0.132205 -0.858169,0.335957 -0.139593,0.108681 -0.287936,0.206863 -0.439389,0.253329 -0.494604,0.152231 -0.109847,-0.178089 0.0557985,-0.327792 0.264994,-0.239331 0.546125,-0.413725 0.830367,-0.568095 1.19354,-0.647612 1.43618,-1.55361 1.28006,-1.9197z"/>
   <path id="_198305584" class="fil0 str0" d="M9.13481 5.15076c0.625643,-0.811314 1.62379,-1.39846 2.80081,-1.20268 0.731991,0.121512 1.06678,0.471079 0.569261,-0.52785 -0.472635,-0.949352 -1.2682,-1.75269 -2.6165,-2.0033 -0.00019442,-0.423641 -0.00038884,-0.911051 -0.000583259,-1.33469l-1.50403 0c-0.00019442,0.423641 -0.00038884,0.911051 -0.000583259,1.33469 -1.3483,0.250607 -2.14367,1.05395 -2.6165,2.0033 -0.49752,0.998929 -0.162535,0.649362 0.569261,0.52785 1.17702,-0.195781 2.17322,0.391367 2.79887,1.20268z"/>
   <path id="_198305296" class="fil0 str0" d="M9.13695 13.1208c-0.625643,0.811314 -1.62379,1.39846 -2.80081,1.20268 -0.731991,-0.121707 -1.06698,-0.471274 -0.569456,0.52785 0.472829,0.949352 1.2682,1.75269 2.6165,2.0033 0.00019442,0.423641 0.00038884,0.910857 0.000777679,1.3345l1.50384 0c0.00019442,-0.423641 0.00038884,-0.910857 0.000777679,-1.3345 1.3483,-0.250607 2.14367,-1.05395 2.61631,-2.0033 0.497715,-0.999123 0.162729,-0.649557 -0.569261,-0.52785 -1.17702,0.195781 -2.17322,-0.391367 -2.79867,-1.20268z"/>
   <path id="_198305512" class="fil0 str0" d="M13.1208 9.13462c0.811314,0.625643 1.39846,1.62379 1.20268,2.80081 -0.121512,0.731991 -0.471079,1.06678 0.52785,0.569261 0.949352,-0.472635 1.75269,-1.2682 2.0033,-2.61631 0.423641,-0.00038884 0.911051,-0.000583259 1.3345,-0.000777679l0 -1.50403c-0.423446,-0.00019442 -0.910857,-0.00038884 -1.3345,-0.000583259 -0.250607,-1.3483 -1.05395,-2.14367 -2.0033,-2.6165 -0.998929,-0.49752 -0.649362,-0.162535 -0.52785,0.569261 0.195781,1.17702 -0.391367,2.17322 -1.20268,2.79887z"/>
   <path id="_198305632" class="fil0 str0" d="M5.15076 9.13676c-0.811314,-0.625643 -1.39846,-1.62379 -1.20268,-2.80081 0.121512,-0.731991 0.471079,-1.06678 -0.52785,-0.569261 -0.949352,0.472635 -1.75269,1.2682 -2.0033,2.6165 -0.423641,0.00019442 -0.911051,0.00038884 -1.3345,0.000583259l0 1.50403c0.423446,0.00019442 0.910857,0.00038884 1.3345,0.000583259 0.250607,1.3483 1.05395,2.14387 2.0033,2.6165 0.998929,0.49752 0.649362,0.162535 0.52785,-0.569261 -0.195781,-1.17702 0.391367,-2.17322 1.20268,-2.79887z"/>
   <path id="_198305440" class="fil0 str0" d="M6.54728 6.55409c0.385923,-0.422863 0.88811,-0.64178 1.59833,-0.710604 0.339263,-0.0326625 0.208807,-0.238748 0.0863224,-0.419169 -0.599202,-0.881694 -1.77816,-1.345 -3.00476,-0.414114 -0.0964322,0.0729074 -0.162729,0.142704 -0.235442,0.23972 -0.914162,1.2194 -0.458442,2.39603 0.419752,2.99173 0.180616,0.122484 0.386701,0.252746 0.419558,-0.086128 0.0688246,-0.709827 0.292991,-1.2161 0.716243,-1.60144z"/>
   <path id="_198305176" class="fil0 str0" d="M6.55409 11.7243c-0.422863,-0.385923 -0.64178,-0.887915 -0.710604,-1.59833 -0.0326625,-0.339263 -0.238748,-0.208807 -0.419169,-0.0863224 -0.881694,0.599202 -1.345,1.77816 -0.414114,3.00476 0.0729074,0.0964322 0.142704,0.162729 0.23972,0.235442 1.2194,0.914162 2.39603,0.458442 2.99173,-0.419752 0.122484,-0.180616 0.252746,-0.386701 -0.086128,-0.419558 -0.709827,-0.0688246 -1.2161,-0.292991 -1.60144,-0.716243z"/>
   <path id="_198305152" class="fil0 str0" d="M11.7245 11.7175c-0.385923,0.422669 -0.88811,0.641585 -1.59852,0.71041 -0.339263,0.0328569 -0.208807,0.238748 -0.086128,0.419169 0.599007,0.881694 1.77797,1.34519 3.00456,0.414114 0.0964322,-0.0729074 0.162924,-0.142704 0.235637,-0.239525 0.914162,-1.2194 0.458247,-2.39622 -0.419947,-2.99173 -0.180616,-0.122484 -0.386701,-0.25294 -0.419558,0.086128 -0.0688246,0.709632 -0.292991,1.2159 -0.716048,1.60144z"/>
   <path id="_198305272" class="fil0 str0" d="M11.7175 6.54709c0.422863,0.385923 0.64178,0.88811 0.710604,1.59833 0.0326625,0.339263 0.238748,0.208807 0.419169,0.0863224 0.881694,-0.599202 1.345,-1.77816 0.414114,-3.00476 -0.0729074,-0.0964322 -0.142704,-0.162729 -0.23972,-0.235442 -1.2194,-0.914162 -2.39603,-0.458442 -2.99173,0.419752 -0.122484,0.180616 -0.252746,0.386701 0.086128,0.419558 0.709827,0.0688246 1.2161,0.292991 1.60144,0.716243z"/>
   <path id="_198305368" class="fil0 str0" d="M11.2349 11.2157c-1.08992,1.06328 -3.10819,1.06309 -4.19811,0 -1.09867,-1.07164 -1.09867,-3.08816 0,-4.15981 1.08992,-1.06328 3.10819,-1.06328 4.19811,0.00019442 1.09847,1.07164 1.09847,3.08778 0,4.15961z"/>
   <path id="_198305392" class="fil0 str0" d="M7.03741 9.16825c0.240886,-0.216389 0.499464,-0.47244 0.846504,-0.508019 -0.361815,-0.915134 -0.153008,-1.12822 0.763487,-0.765042 0.0355788,-0.347428 0.291241,-0.606201 0.507436,-0.847476 0.216195,0.241275 0.47244,0.500048 0.507825,0.847476 0.916689,-0.363176 1.1253,-0.150092 0.763487,0.765042 0.347234,0.0355788 0.605812,0.29163 0.846698,0.508019 -0.240886,0.216389 -0.499464,0.47244 -0.846698,0.507825 0.361815,0.915328 0.153203,1.12822 -0.763487,0.765042 -0.0353844,0.347428 -0.29163,0.606201 -0.507825,0.847476 -0.216195,-0.241275 -0.471857,-0.500048 -0.507436,-0.847476 -0.405754,0.160785 -0.690579,0.191115 -0.922911,0.160591 -0.0303295,-0.232526 -0.00116652,-0.519295 0.159424,-0.925633 -0.347039,-0.0353844 -0.605618,-0.291435 -0.846504,-0.507825z"/>
  </g>
 </g>
</svg>
