<?xml version="1.0" encoding="UTF-8"?>
<!DOCTYPE svg PUBLIC "-//W3C//DTD SVG 1.1//EN" "http://www.w3.org/Graphics/SVG/1.1/DTD/svg11.dtd">
<!-- Creator: CorelDRAW -->
<svg xmlns="http://www.w3.org/2000/svg" xml:space="preserve" width="110px" height="110px" style="shape-rendering:geometricPrecision; text-rendering:geometricPrecision; image-rendering:optimizeQuality; fill-rule:evenodd; clip-rule:evenodd"
viewBox="0 0 36.7951 36.7951"
 xmlns:xlink="http://www.w3.org/1999/xlink">
 <defs>
  <style type="text/css">
   <![CDATA[
    .str0 {stroke:#4C4C4C;stroke-width:0.331618}
    .fil0 {fill:white}
   ]]>
  </style>
 </defs>
 <g id="Capa_x0020_1">
  <metadata id="CorelCorpID_0Corel-Layer"/>
  <g id="_198306448">
   <rect id="_198290944" class="fil0 str0" x="0.168928" y="0.167254" width="36.4604" height="36.462"/>
   <rect id="_198291016" class="fil0 str0" transform="matrix(7.709E-015 0.0970668 0.0970626 -7.71579E-015 0.168929 0.165796)" width="375.638" height="375.638"/>
   <rect id="_198291088" class="fil0 str0" x="0.16747" y="0.165797" width="36.4604" height="36.462"/>
   <rect id="_198291160" class="fil0 str0" transform="matrix(-2.5589E-015 -0.0970668 -0.0970626 2.559E-015 36.6273 36.6279)" width="375.638" height="375.638"/>
   <rect id="_198291232" class="fil0 str0" x="0.165817" y="0.165965" width="36.4604" height="36.462"/>
   <path id="_198291304" class="fil0 str0" d="M18.3991 13.5599l-1.04066 1.03205c0.0211421,-4.811 -1.59584,-8.24268 -4.99893,-10.1709 1.37385,-0.443984 2.90665,-0.501929 4.34157,0.997985l1.69802 -2.11813 1.69802 2.11813c1.43492,-1.49991 2.96772,-1.44197 4.34157,-0.997985 -3.4031,1.92824 -5.02007,5.35991 -4.99893,10.1709l-1.04066 -1.03205z"/>
   <path id="_198291376" class="fil0 str0" d="M13.5595 18.3983l1.03205 1.04066c-4.811,-0.0211421 -8.24229,1.59584 -10.1705,4.99893 -0.443984,-1.37385 -0.501929,-2.90665 0.997985,-4.34157l-2.11813 -1.69802 2.11813 -1.69802c-1.49991,-1.43492 -1.44197,-2.96812 -0.997985,-4.34196 1.92824,3.4031 5.35952,5.02047 10.1705,4.99893l-1.03205 1.04105z"/>
   <path id="_198291448" class="fil0 str0" d="M18.3975 23.2379l1.04105 -1.03166c-0.0215336,4.811 1.59584,8.24229 4.99854,10.1705 -1.37385,0.443984 -2.90665,0.501929 -4.34157,-0.997985l-1.69802 2.11813 -1.69802 -2.11813c-1.43453,1.49991 -2.96733,1.44197 -4.34118,0.997985 3.4027,-1.92824 5.02007,-5.35952 4.99854,-10.1705l1.04066 1.03166z"/>
   <path id="_198291520" class="fil0 str0" d="M23.2371 18.3995l-1.03166 -1.04066c4.81061,0.0215336 8.2419,-1.59584 10.1701,-4.99893 0.443984,1.37385 0.501929,2.90665 -0.997985,4.34157l2.11813 1.69802 -2.11813 1.69842c1.49991,1.43492 1.44197,2.96772 0.997985,4.34157 -1.92824,-3.4031 -5.35952,-5.02047 -10.1701,-4.99893l1.03166 -1.04105z"/>
   <path id="_198291592" class="fil0 str0" d="M18.3991 5.10112l-1.13384 1.41456c-0.532468,-0.383298 -0.899714,-0.260753 -1.15303,-0.0908327 1.69567,2.41842 1.8006,4.51932 1.96543,6.23183l0.642876 0c0.16483,-1.71251 0.270149,-3.81341 1.96543,-6.23183 -0.253314,-0.16992 -0.62056,-0.292466 -1.15303,0.0908327l-1.13384 -1.41456z"/>
   <path id="_198291664" class="fil0 str0" d="M5.10112 18.3983l1.41456 1.13384c-0.383298,0.532468 -0.260753,0.899714 -0.0908327,1.15303 2.41842,-1.69567 4.51932,-1.8006 6.23144,-1.96543l0 -0.642876c-1.71212,-0.16483 -3.81302,-0.270149 -6.23144,-1.96543 -0.16992,0.253314 -0.292466,0.62056 0.0908327,1.15303l-1.41456 1.13384z"/>
   <path id="_198291736" class="fil0 str0" d="M18.3975 31.6967l1.13384 -1.41456c0.532468,0.383298 0.899714,0.260753 1.15303,0.0908327 -1.69528,-2.41842 -1.8006,-4.51932 -1.96543,-6.23144l-0.642876 0c-0.164439,1.71212 -0.269758,3.81302 -1.96504,6.23144 0.253314,0.16992 0.62056,0.292466 1.15303,-0.0908327l1.13345 1.41456z"/>
   <path id="_198291808" class="fil0 str0" d="M31.6955 18.3995l-1.41456 -1.13345c0.383298,-0.532859 0.260753,-0.899714 0.0908327,-1.15342 -2.41803,1.69567 -4.51893,1.80099 -6.23144,1.96582l0 0.642485c1.71251,0.16483 3.81341,0.270149 6.23144,1.96582 0.16992,-0.253705 0.292466,-0.620951 -0.0908327,-1.15342l1.41456 -1.13384z"/>
   <path id="_198291880" class="fil0 str0" d="M14.9941 15.4099c0.12098,0.129202 0.185581,0.303428 0.135858,0.462777 -0.0524637,0.167179 -0.205157,0.2678 -0.394261,0.32966 -1.47564,0.48157 -3.44734,0.0164439 -4.76285,-0.670674 -1.00621,-0.52542 -1.87538,-1.2834 -2.65842,-2.18664 -0.381732,-0.44046 -0.731752,-0.801442 -0.708652,-1.42513 0.0536383,-1.42827 1.6252,-2.13183 2.83226,-1.50892 0.327311,0.168745 0.586498,0.403266 0.846859,0.739974 0.465518,0.603333 0.405615,1.04379 0.537949,1.66827 0.366855,1.73209 1.51244,2.44544 3.15252,2.44387 0.361373,-0.00039152 0.739582,-0.15191 1.01874,0.14682z"/>
   <path id="_198291952" class="fil0 str0" d="M15.4095 21.8034c0.129202,-0.12098 0.303428,-0.185581 0.462777,-0.135858 0.167179,0.0524637 0.2678,0.205157 0.32966,0.394261 0.48157,1.47603 0.0164439,3.44773 -0.670674,4.76324 -0.52542,1.00621 -1.2834,1.87538 -2.18664,2.65842 -0.44046,0.381732 -0.801442,0.731752 -1.42513,0.708652 -1.42827,-0.0536383 -2.13183,-1.6252 -1.50853,-2.83265 0.168745,-0.32692 0.403266,-0.586498 0.739974,-0.846467 0.602941,-0.465909 1.04379,-0.406007 1.66827,-0.538341 1.73169,-0.366855 2.44504,-1.51205 2.44348,-3.15252 -0.00039152,-0.361373 -0.15191,-0.739582 0.14682,-1.01874z"/>
   <path id="_198292024" class="fil0 str0" d="M21.8026 21.388c-0.120588,-0.129202 -0.185581,-0.303428 -0.135466,-0.462777 0.0524637,-0.167179 0.204765,-0.2678 0.39387,-0.32966 1.47603,-0.48157 3.44734,-0.0164439 4.76285,0.670674 1.00621,0.525812 1.87577,1.2834 2.65881,2.18703 0.381341,0.440069 0.731752,0.801442 0.70826,1.42513 -0.0536383,1.42787 -1.62481,2.13183 -2.83226,1.50853 -0.32692,-0.168745 -0.586498,-0.403266 -0.846467,-0.739974 -0.465909,-0.602941 -0.406007,-1.04379 -0.538341,-1.66827 -0.366855,-1.73209 -1.51244,-2.44504 -3.15252,-2.44387 -0.360982,0.00039152 -0.739582,0.15191 -1.01874,-0.14682z"/>
   <path id="_198292096" class="fil0 str0" d="M21.3876 14.9944c-0.129202,0.12098 -0.30382,0.185972 -0.462777,0.135858 -0.167571,-0.0524637 -0.2678,-0.205157 -0.32966,-0.394261 -0.481962,-1.47564 -0.0168354,-3.44734 0.670283,-4.76285 0.525812,-1.0066 1.2834,-1.87577 2.18703,-2.65881 0.440069,-0.381341 0.801051,-0.731752 1.42474,-0.708652 1.42827,0.0536383 2.13183,1.6252 1.50892,2.83265 -0.168745,0.32692 -0.403266,0.586498 -0.739974,0.846467 -0.602941,0.465909 -1.04379,0.406007 -1.66827,0.538341 -1.73169,0.366855 -2.44504,1.51244 -2.44348,3.15252 0,0.361373 0.151518,0.739582 -0.14682,1.01874z"/>
   <path id="_198292168" class="fil0 str0" d="M15.3911 15.0113c0.129202,0.12098 0.303428,0.185581 0.462777,0.135858 0.167179,-0.0524637 0.2678,-0.205157 0.32966,-0.394261 0.481962,-1.47603 0.0168354,-3.44734 -0.670674,-4.76285 -0.52542,-1.0066 -1.28301,-1.87577 -2.18664,-2.65881 -0.440069,-0.381732 -0.801442,-0.731752 -1.42513,-0.708652 -1.42787,0.0536383 -2.13144,1.6252 -1.50853,2.83265 0.168745,0.32692 0.403266,0.586498 0.739974,0.846467 0.602941,0.465909 1.04379,0.406007 1.66827,0.538341 1.73169,0.366855 2.44504,1.51244 2.44348,3.15252 0,0.361373 -0.15191,0.739582 0.14682,1.01874z"/>
   <path id="_198292240" class="fil0 str0" d="M15.0109 21.4064c0.12098,-0.129202 0.185581,-0.303428 0.135858,-0.462777 -0.0524637,-0.167179 -0.205157,-0.2678 -0.394261,-0.32966 -1.47564,-0.481962 -3.44734,-0.0168354 -4.76285,0.670674 -1.00621,0.52542 -1.87538,1.2834 -2.65842,2.18664 -0.381732,0.44046 -0.731752,0.801442 -0.708652,1.42513 0.0536383,1.42827 1.6252,2.13183 2.83226,1.50853 0.32692,-0.168745 0.586498,-0.403266 0.846859,-0.739974 0.465518,-0.602941 0.405615,-1.04379 0.537949,-1.66827 0.366855,-1.73169 1.51244,-2.44504 3.15252,-2.44348 0.361373,0.00039152 0.739582,0.15191 1.01874,-0.14682z"/>
   <path id="_198299248" class="fil0 str0" d="M21.4056 21.7865c-0.129202,-0.120588 -0.303428,-0.185581 -0.462777,-0.135858 -0.167179,0.0528553 -0.2678,0.205157 -0.32966,0.394261 -0.48157,1.47603 -0.0164439,3.44773 0.670674,4.76324 0.52542,1.00621 1.2834,1.87538 2.18664,2.65842 0.44046,0.381732 0.801442,0.732143 1.42513,0.708652 1.42827,-0.0536383 2.13183,-1.6252 1.50853,-2.83226 -0.168745,-0.327311 -0.403266,-0.586889 -0.739974,-0.846859 -0.602941,-0.465518 -1.04379,-0.406007 -1.66827,-0.537949 -1.73169,-0.367246 -2.44504,-1.51244 -2.44348,-3.15291 0.00039152,-0.360982 0.15191,-0.739582 -0.14682,-1.01874z"/>
   <path id="_198299200" class="fil0 str0" d="M21.7858 15.3914c-0.120588,0.129202 -0.185581,0.30382 -0.135466,0.462777 0.0524637,0.167571 0.204765,0.2678 0.39387,0.32966 1.47603,0.481962 3.44734,0.0168354 4.76285,-0.670283 1.0066,-0.525812 1.87577,-1.2834 2.65881,-2.18703 0.381341,-0.440069 0.731752,-0.801442 0.70826,-1.42513 -0.0532468,-1.42827 -1.62481,-2.13183 -2.83226,-1.50853 -0.32692,0.168745 -0.586498,0.403266 -0.846467,0.739974 -0.465909,0.602941 -0.406007,1.04379 -0.538341,1.66827 -0.366855,1.73169 -1.51205,2.44504 -3.15252,2.44348 -0.360982,0 -0.739582,-0.151518 -1.01874,0.14682z"/>
   <path id="_198299152" class="fil0 str0" d="M34.0654 34.0576c-0.403266,0.202416 -0.789305,0.0970971 -1.1127,-0.230214 -0.286201,-0.289334 -0.287376,-0.539124 -0.204374,0.00234912 0.135858,0.88836 -0.120197,1.59623 -1.13149,1.95525 -0.139381,-2.30057 -0.860953,-4.3447 -2.28139,-6.08149 -0.348453,-0.425191 0.0418927,-0.650707 0.368029,-0.383298 1.73835,1.42513 3.78561,2.14906 6.08932,2.28844 -0.358633,1.01169 -1.0665,1.26735 -1.95525,1.13149 -0.541081,-0.0830023 -0.291683,-0.0818278 -0.00234912,0.204374 0.327703,0.323396 0.433022,0.709435 0.230214,1.11309z"/>
   <path id="_198296368" class="fil0 str0" d="M34.0576 2.72968c0.202808,0.403658 0.0970971,0.789305 -0.230214,1.11309 -0.289334,0.28581 -0.538732,0.286984 0.00234912,0.203982 0.888751,-0.135858 1.59662,0.120197 1.95525,1.13189 -2.30018,0.139381 -4.34431,0.860953 -6.08109,2.28139 -0.425191,0.348453 -0.650315,-0.0422842 -0.383298,-0.368029 1.42513,-1.73874 2.14906,-3.78561 2.28844,-6.08971 1.0113,0.358633 1.26735,1.0665 1.13149,1.95525 -0.0830023,0.541473 -0.0818278,0.291683 0.204374,0.00234912 0.323396,-0.327311 0.709435,-0.43263 1.1127,-0.230214z"/>
   <path id="_198301624" class="fil0 str0" d="M2.73085 2.73634c0.403266,-0.202808 0.789305,-0.0970971 1.1127,0.230214 0.286201,0.289334 0.287376,0.539124 0.204374,-0.00234912 -0.135858,-0.888751 0.120197,-1.59662 1.13149,-1.95564 0.139381,2.30057 0.860953,4.34509 2.28139,6.08188 0.348453,0.425191 -0.0418927,0.650315 -0.368029,0.382907 -1.73835,-1.42513 -3.78561,-2.14866 -6.08932,-2.28844 0.358633,-1.0113 1.0665,-1.26735 1.95525,-1.13149 0.541081,0.0830023 0.291683,0.0818278 0.00234912,-0.203982 -0.327703,-0.323787 -0.433022,-0.709826 -0.230214,-1.11309z"/>
   <path id="_198306928" class="fil0 str0" d="M2.73594 34.0638c-0.202416,-0.403266 -0.0970971,-0.789305 0.230214,-1.1127 0.289334,-0.286201 0.539124,-0.287376 -0.00234912,-0.204374 -0.88836,0.135858 -1.59623,-0.120197 -1.95525,-1.13149 2.30018,-0.139381 4.3447,-0.860953 6.08149,-2.28178 0.4248,-0.348062 0.650315,0.0422842 0.382907,0.368421 -1.42513,1.73835 -2.14866,3.78561 -2.28844,6.08971 -1.0113,-0.359024 -1.26735,-1.06689 -1.13149,-1.95564 0.0830023,-0.541081 0.0818278,-0.291683 -0.203982,-0.00234912 -0.323396,0.327703 -0.709435,0.433022 -1.11309,0.230214z"/>
   <path id="_198306880" class="fil0 str0" d="M35.2169 28.5336c-1.81548,1.2603 -3.10593,0.999943 -3.76447,0.671849 -0.464735,-0.231389 -0.769729,-0.840594 -0.569271,-1.47799 0.247441,-0.787739 1.17534,-1.66435 0.926337,0.029364 -0.267017,0.849991 1.73365,0.593936 1.7497,-0.613512 0.00587281,-0.416578 -0.124503,-0.925163 -0.307343,-1.42513 0.736841,-0.282678 0.866826,0.198892 1.02852,0.536383 0.247049,0.517198 0.410705,-0.499188 0.898539,-0.644834 0.184798,-0.0552044 0.338274,-0.0289725 0.39387,0.210638 0.0959225,0.410313 -0.113541,0.654622 -0.250965,0.937691 -0.109626,0.225516 -0.111583,0.332792 0.077521,0.484702 0.563789,0.451815 0.377817,0.901671 -0.182448,1.29084z"/>
   <path id="_198306832" class="fil0 str0" d="M28.534 1.57822c1.2603,1.81587 0.999943,3.10593 0.67224,3.76486 -0.23178,0.464735 -0.840986,0.769729 -1.47838,0.569271 -0.787347,-0.247832 -1.66435,-1.17534 0.0297555,-0.926729 0.849599,0.267408 0.593545,-1.73326 -0.613904,-1.7497 -0.416578,-0.00587281 -0.925163,0.124895 -1.42513,0.307735 -0.282286,-0.737233 0.198892,-0.867218 0.536774,-1.02852 0.516807,-0.247049 -0.49958,-0.411096 -0.645226,-0.898539 -0.0552044,-0.184798 -0.028581,-0.338665 0.210638,-0.394261 0.410705,-0.0959225 0.654622,0.113541 0.938083,0.251356 0.225124,0.109234 0.332792,0.111192 0.484311,-0.0779126 0.451815,-0.563789 0.901671,-0.377817 1.29084,0.182448z"/>
   <path id="_198306784" class="fil0 str0" d="M1.57939 8.2603c1.81548,-1.2607 3.10593,-1.00033 3.76447,-0.67224 0.464735,0.23178 0.769729,0.840986 0.569271,1.47838 -0.247441,0.787347 -1.17495,1.66435 -0.926337,-0.0297555 0.267017,-0.849991 -1.73365,-0.593545 -1.7497,0.613904 -0.00587281,0.416578 0.124503,0.925163 0.307343,1.42513 -0.736841,0.282286 -0.866826,-0.198892 -1.02813,-0.536774 -0.247441,-0.516807 -0.411096,0.49958 -0.898931,0.645226 -0.184798,0.0552044 -0.338274,0.028581 -0.39387,-0.210638 -0.0959225,-0.410705 0.113541,-0.654622 0.250965,-0.938083 0.109626,-0.225124 0.111583,-0.332792 -0.077521,-0.484311 -0.563789,-0.451815 -0.377817,-0.901671 0.182448,-1.29084z"/>
   <path id="_198306736" class="fil0 str0" d="M8.25951 35.2153c-1.2603,-1.81548 -0.999943,-3.10593 -0.671849,-3.76447 0.231389,-0.465126 0.840594,-0.769729 1.47799,-0.569271 0.787739,0.247441 1.66435,1.17495 -0.029364,0.926337 -0.849991,-0.267017 -0.593936,1.73365 0.613904,1.7501 0.416578,0.00548129 0.924771,-0.124895 1.42474,-0.307735 0.282678,0.736841 -0.198892,0.866826 -0.536383,1.02852 -0.517198,0.247049 0.499188,0.411096 0.644834,0.898539 0.0552044,0.184798 0.0289725,0.338274 -0.210638,0.39387 -0.410313,0.0959225 -0.654622,-0.113541 -0.937691,-0.250965 -0.225516,-0.109626 -0.332792,-0.111192 -0.484702,0.0779126 -0.451815,0.563789 -0.901671,0.377817 -1.29084,-0.18284z"/>
   <path id="_198306688" class="fil0 str0" d="M28.534 35.2153c1.2603,-1.81587 0.999943,-3.10593 0.67224,-3.76486 -0.23178,-0.464735 -0.840986,-0.769338 -1.47838,-0.569271 -0.787347,0.247832 -1.66435,1.17534 0.0297555,0.926729 0.849599,-0.267408 0.593545,1.73326 -0.613904,1.7497 -0.416578,0.00587281 -0.925163,-0.124895 -1.42513,-0.307735 -0.282286,0.737233 0.198892,0.867218 0.536774,1.02852 0.516807,0.247049 -0.49958,0.411096 -0.645226,0.898931 -0.0552044,0.184406 -0.028581,0.338274 0.210638,0.39387 0.410705,0.0959225 0.654622,-0.113541 0.938083,-0.251356 0.225124,-0.109234 0.332792,-0.111192 0.484311,0.0779126 0.451815,0.563789 0.901671,0.377817 1.29084,-0.182448z"/>
   <path id="_198306640" class="fil0 str0" d="M35.2153 8.26147c-1.81548,-1.2607 -3.10554,-0.999943 -3.76447,-0.67224 -0.464735,0.23178 -0.769338,0.840986 -0.569271,1.47838 0.247832,0.787347 1.17534,1.66435 0.926729,-0.0297555 -0.267408,-0.849991 1.73326,-0.593545 1.7497,0.613904 0.00548129,0.416578 -0.124895,0.925163 -0.307735,1.42513 0.736841,0.282678 0.866826,-0.198892 1.02852,-0.536383 0.247049,-0.517198 0.411096,0.499188 0.898539,0.644834 0.184798,0.0552044 0.338274,0.0289725 0.39387,-0.210638 0.0959225,-0.410705 -0.113541,-0.654622 -0.250965,-0.938083 -0.109626,-0.225124 -0.111192,-0.332792 0.0779126,-0.484311 0.563398,-0.451815 0.377817,-0.901671 -0.18284,-1.29084z"/>
   <path id="_198306592" class="fil0 str0" d="M8.26225 1.57861c-1.2603,1.81548 -0.999943,3.10593 -0.671849,3.76447 0.231389,0.465126 0.840594,0.769729 1.47799,0.569271 0.787347,-0.247441 1.66435,-1.17495 -0.0297555,-0.926337 -0.849599,0.267017 -0.593545,-1.73365 0.613904,-1.7501 0.416578,-0.00548129 0.925163,0.124895 1.42513,0.307735 0.282286,-0.736841 -0.198892,-0.866826 -0.536774,-1.02852 -0.516807,-0.247049 0.49958,-0.411096 0.645226,-0.898539 0.0552044,-0.184798 0.028581,-0.338274 -0.210638,-0.39387 -0.410705,-0.0959225 -0.654622,0.113541 -0.938083,0.250965 -0.225124,0.109626 -0.332792,0.111192 -0.484311,-0.0779126 -0.451815,-0.563789 -0.901671,-0.377817 -1.29084,0.18284z"/>
   <path id="_198306544" class="fil0 str0" d="M1.57822 28.532c1.81548,1.2607 3.10593,1.00033 3.76447,0.67224 0.465126,-0.231389 0.769729,-0.840594 0.569271,-1.47799 -0.247441,-0.787739 -1.17495,-1.66474 -0.926337,0.029364 0.267408,0.849991 -1.73365,0.593545 -1.7497,-0.613904 -0.00587281,-0.416578 0.124503,-0.925163 0.307735,-1.42474 -0.737233,-0.282678 -0.867218,0.198501 -1.02852,0.536383 -0.247049,0.516807 -0.411096,-0.499188 -0.898931,-0.645226 -0.184406,-0.0548129 -0.338274,-0.028581 -0.39387,0.211029 -0.0959225,0.410313 0.113541,0.654622 0.251356,0.937691 0.109234,0.225516 0.111192,0.332792 -0.0779126,0.484311 -0.563789,0.451815 -0.377817,0.902063 0.182448,1.29084z"/>
   <path id="_198306496" class="fil0 str0" d="M16.4208 20.3763c0.649141,0.309301 1.10605,0.095531 1.46233,-0.389563 0.217294,-0.295989 0.0994462,-0.176967 0.0978801,0.095531 -0.0019576,0.308127 0.131159,0.541081 0.418144,0.636221 0.286984,-0.0951395 0.420101,-0.328094 0.418144,-0.636221 -0.00156608,-0.272498 -0.119414,-0.39152 0.0978801,-0.095531 0.356675,0.485094 0.813188,0.699255 1.46272,0.389954 0.30891,-0.649141 0.0951395,-1.10605 -0.390346,-1.46233 -0.295989,-0.217294 -0.176967,-0.0994462 0.095531,-0.0978801 0.308127,0.00156608 0.541081,-0.131159 0.636221,-0.418535 -0.0951395,-0.286984 -0.328094,-0.41971 -0.636221,-0.417752 -0.272498,0.00117456 -0.39152,0.119022 -0.095531,-0.0982716 0.485485,-0.356284 0.699255,-0.813188 0.390346,-1.46233 -0.649532,-0.309301 -1.10605,-0.0951395 -1.46272,0.390346 -0.217294,0.295598 -0.0994462,0.176576 -0.0978801,-0.0959225 0.0019576,-0.308127 -0.131159,-0.541081 -0.418144,-0.636221 -0.286984,0.0951395 -0.420101,0.328094 -0.418144,0.636221 0.00156608,0.27289 0.119022,0.39152 -0.0978801,0.0959225 -0.356675,-0.485485 -0.813188,-0.700038 -1.46233,-0.390737 -0.309301,0.649141 -0.0951395,1.10565 0.389954,1.46233 0.295989,0.217294 0.176967,0.0994462 -0.095531,0.0978801 -0.308127,-0.00156608 -0.541081,0.131159 -0.636221,0.418535 0.0951395,0.286984 0.328094,0.41971 0.636221,0.417752 0.272498,-0.00117456 0.39152,-0.119022 0.095531,0.0982716 -0.485094,0.356284 -0.699255,0.813188 -0.389954,1.46233z"/>
  </g>
 </g>
</svg>
