<?xml version="1.0" encoding="UTF-8"?>
<!DOCTYPE svg PUBLIC "-//W3C//DTD SVG 1.1//EN" "http://www.w3.org/Graphics/SVG/1.1/DTD/svg11.dtd">
<!-- Creator: CorelDRAW -->
<svg xmlns="http://www.w3.org/2000/svg" xml:space="preserve" width="110px" height="110px" style="shape-rendering:geometricPrecision; text-rendering:geometricPrecision; image-rendering:optimizeQuality; fill-rule:evenodd; clip-rule:evenodd"
viewBox="0 0 1.25882 1.25882"
 xmlns:xlink="http://www.w3.org/1999/xlink">
 <defs>
  <style type="text/css">
   <![CDATA[
    .str0 {stroke:#4C4C4C;stroke-width:0.011345}
    .fil0 {fill:none}
   ]]>
  </style>
 </defs>
 <g id="Capa_x0020_1">
  <metadata id="CorelCorpID_0Corel-Layer"/>
  <g id="_110100400">
   <rect id="_110100904" class="fil0 str0" x="0.00568978" y="0.00568631" width="1.24744" height="1.24745"/>
   <path id="_110100856" class="fil0 str0" d="M0.494772 0.559976c-0.0241901,-0.0367138 -0.0587742,-0.063422 -0.0945236,-0.100136 0,0 -0.0433306,-0.0270833 -0.0875719,-0.00486213 -0.0492375,0.0247393 -0.0993589,-0.00304051 -0.102882,-0.00944298 -0.0180957,-0.0328696 0.00381738,0.073441 0.0343698,0.110155 -0.0856432,0.0113048 -0.134921,0.0357494 -0.140345,0.0737624 0.00542469,0.038013 0.0547023,0.0613995 0.140345,0.0727043 -0.0305524,0.0367138 -0.0524655,0.143024 -0.0343698,0.110155 0.0035227,-0.00640248 0.0536442,-0.0341823 0.102882,-0.00944298 0.0442414,0.0222211 0.0875719,-0.00486213 0.0875719,-0.00486213 0.0357494,-0.0367138 0.0703335,-0.063422 0.0945236,-0.100136 0.0345573,0.0112378 0.0560551,0.0325749 0.0673599,0.067159 -0.0368209,0.0241231 -0.0635961,0.0586001 -0.100417,0.0942557 0,0 -0.0271502,0.04321 -0.00486213,0.0873308 0.0247929,0.0491169 -0.0030539,0.099091 -0.00948317,0.102614 -0.03295,0.0180287 0.0736419,-0.00381738 0.110449,-0.034276 0.011345,0.0854021 0.0358699,0.134546 0.0739767,0.139957 0.0381068,-0.00542469 0.0615736,-0.054555 0.0729052,-0.139957 0.0368209,0.0304586 0.143413,0.0523047 0.110449,0.034276 -0.00641587,-0.0035227 -0.034276,-0.0534968 -0.00946977,-0.102614 0.0222881,-0.0441208 -0.00486213,-0.0873308 -0.00486213,-0.0873308 -0.0368209,-0.0356556 -0.0636095,-0.0701326 -0.100417,-0.0942557 0.0113048,-0.0345975 0.0327491,-0.0559346 0.0673465,-0.0671858 0.0241901,0.0367138 0.0587608,0.063422 0.0945102,0.100149 0,0 0.0433306,0.0270699 0.0875719,0.00484874 0.0492508,-0.0247393 0.0993589,0.00304051 0.102895,0.00945638 0.0180823,0.0328696 -0.00381738,-0.073441 -0.0343698,-0.110155 0.0856298,-0.0113048 0.134907,-0.0357628 0.140332,-0.0737758 -0.00542469,-0.0379996 -0.0547023,-0.0613995 -0.140332,-0.0727043 0.0305524,-0.0367138 0.0524521,-0.143011 0.0343698,-0.110141 -0.0035361,0.00640248 -0.0536442,0.0341823 -0.102895,0.00944298 -0.0442414,-0.0222211 -0.0875719,0.00484874 -0.0875719,0.00484874 -0.0357494,0.0367272 -0.0703201,0.0634354 -0.0945102,0.100149 -0.0345707,-0.0112378 -0.0560685,-0.0325883 -0.0673733,-0.067159 0.0368209,-0.0241231 0.0635961,-0.0586135 0.100417,-0.0942557 0,0 0.0271636,-0.0432234 0.00487553,-0.0873442 -0.0248062,-0.0491035 0.00304051,-0.0990776 0.00946977,-0.1026 0.0329634,-0.0180421 -0.0736419,0.00380398 -0.110449,0.034276 -0.0113316,-0.0854021 -0.0358565,-0.134546 -0.0739767,-0.139957 -0.0381068,0.0054113 -0.0615736,0.054555 -0.0729052,0.139957 -0.0368209,-0.030472 -0.143413,-0.0523181 -0.110449,-0.034276 0.00641587,0.0035227 0.034276,0.0534968 0.00946977,0.1026 -0.0222881,0.0441208 0.00487553,0.0873442 0.00487553,0.0873442 0.0368209,0.0356422 0.0635961,0.0701326 0.100404,0.0942557 -0.0113048,0.0345975 -0.0327491,0.0559346 -0.0673332,0.0671724z"/>
   <path id="_110100808" class="fil0 str0" d="M1.25313 1.25313l0 -0.298197c-0.0456344,0.00037504 -0.060261,0.0773789 -0.134037,0.164027 -0.0862593,0.0740973 -0.163786,0.0883488 -0.164161,0.134184l0.298197 -1.33943e-005z"/>
   <path id="_110100760" class="fil0 str0" d="M1.25313 0.00569258l-0.298197 0c0.00037504,0.0456344 0.0773789,0.060261 0.164027,0.134037 0.0740973,0.0862593 0.0883488,0.163786 0.134184,0.164161l-1.33943e-005 -0.298197z"/>
   <path id="_110100712" class="fil0 str0" d="M0.00569258 0.00569258l0 0.298197c0.0456344,-0.00037504 0.060261,-0.0773789 0.134037,-0.164027 0.0862593,-0.0740973 0.163786,-0.0883488 0.164161,-0.134184l-0.298197 1.33943e-005z"/>
   <path id="_110100664" class="fil0 str0" d="M0.00569258 1.25313l0.298197 0c-0.00037504,-0.0456344 -0.0773789,-0.060261 -0.164027,-0.134037 -0.0740973,-0.0862593 -0.0883488,-0.163786 -0.134184,-0.164161l1.33943e-005 0.298197z"/>
   <path id="_110100616" class="fil0 str0" d="M0.694682 0.56611c0.00354949,0.00621496 0.010702,0.00889382 0.0195959,0.0193949 0.0184038,-0.00667036 0.0442682,0.0014064 0.0566981,0.0173858 0.00889382,0.0114387 0.0102199,0.0347984 0.00304051,0.0474962 -0.010702,0.0189128 -0.0396605,0.0291862 -0.0597386,0.0219131 -0.00889382,0.0105011 -0.0160196,0.0131934 -0.0195691,0.0194217 -0.00624174,0.0035361 -0.00889382,0.0106083 -0.0194351,0.0194753 0.00729989,0.0200245 -0.00300032,0.0489026 -0.02198,0.0595779 -0.011278,0.0063355 -0.0332313,0.00605422 -0.0442414,-0.000696504 -0.0182162,-0.0111708 -0.0279539,-0.0392721 -0.0208013,-0.0588813 -0.0105279,-0.00886703 -0.01318,-0.0159392 -0.0194217,-0.0194753 -0.00354949,-0.00622835 -0.0106887,-0.00889382 -0.0195825,-0.0194083 -0.0192476,0.00697843 -0.0466524,-0.00216988 -0.0583054,-0.0195959 -0.00744723,-0.0111441 -0.00806337,-0.0335393 -0.00143319,-0.0452727 0.010702,-0.0189128 0.0396605,-0.0291996 0.0597386,-0.0219131 0.00889382,-0.0105145 0.0160062,-0.0132068 0.0195557,-0.0194217 0.00624174,-0.00354949 0.00889382,-0.0106217 0.0194351,-0.0194887 -0.00608101,-0.0166893 4.01829e-005,-0.0395266 0.013247,-0.0528539 0.0149748,-0.0151222 0.0455272,-0.0151088 0.0605155,0 0.0132068,0.0133273 0.0193414,0.0361646 0.0132604,0.0528539 0.0105279,0.00886703 0.01318,0.0159392 0.0194217,0.0194887z"/>
   <path id="_110100568" class="fil0 str0" d="M1.25314 1.11801l-1.33943e-005 0.135122 -0.135108 0c0,-0.0746063 0.0605021,-0.135122 0.135122,-0.135122z"/>
   <path id="_110100520" class="fil0 str0" d="M1.11801 0.00567918l0.135122 1.33943e-005 0 0.135108c-0.0746063,0 -0.135122,-0.0605021 -0.135122,-0.135122z"/>
   <path id="_110100472" class="fil0 str0" d="M0.00567918 0.140814l1.33943e-005 -0.135122 0.135108 0c0,0.0746063 -0.0605021,0.135122 -0.135122,0.135122z"/>
   <path id="_110100424" class="fil0 str0" d="M0.140814 1.25314l-0.135122 -1.33943e-005 0 -0.135108c0.0746063,0 0.135122,0.0605021 0.135122,0.135122z"/>
  </g>
  <polygon class="fil0 str0" points="0.00569258,0.00567918 1.25313,0.00567918 1.25313,1.25313 0.00569258,1.25314 "/>
 </g>
</svg>
