<?xml version="1.0" encoding="UTF-8"?>
<!DOCTYPE svg PUBLIC "-//W3C//DTD SVG 1.1//EN" "http://www.w3.org/Graphics/SVG/1.1/DTD/svg11.dtd">
<!-- Creator: CorelDRAW -->
<svg xmlns="http://www.w3.org/2000/svg" xml:space="preserve" width="110px" height="110px" style="shape-rendering:geometricPrecision; text-rendering:geometricPrecision; image-rendering:optimizeQuality; fill-rule:evenodd; clip-rule:evenodd"
viewBox="0 0 1.6757 1.6757"
 xmlns:xlink="http://www.w3.org/1999/xlink">
 <defs>
  <style type="text/css">
   <![CDATA[
    .str0 {stroke:#4C4C4C;stroke-width:0.0151021}
    .fil0 {fill:none}
   ]]>
  </style>
 </defs>
 <g id="Capa_x0020_1">
  <metadata id="CorelCorpID_0Corel-Layer"/>
  <g id="_110430040">
   <polygon id="_110430664" class="fil0 str0" points="1.66814,0.00755995 1.66814,1.66814 0.00755995,1.66814 0.00755995,0.00755995 "/>
   <path id="_110430616" class="fil0 str0" d="M1.66813 1.66814l0 -0.243862c-0.0120353,-0.000624052 -0.0240706,-0.00121244 -0.0361237,-0.0018365 -0.00829098,-0.126843 -0.0165998,-0.253686 -0.0249086,-0.380547 -0.0689132,-0.0149773 -0.137826,-0.0299545 -0.206757,-0.0449318 -0.0398502,0.059909 -0.0797004,0.119818 -0.119551,0.179727 0.0752072,0.101435 0.150432,0.202888 0.225657,0.304306 -0.00755995,0.0106089 -0.0148346,0.0179014 -0.0254435,0.0254435 -0.101435,-0.0752072 -0.20287,-0.150432 -0.304306,-0.225657 -0.059909,0.0398502 -0.119818,0.0797004 -0.179727,0.119568 0.0149773,0.0689132 0.0299545,0.137826 0.0449318,0.206757 0.126861,0.00830881 0.253704,0.0165998 0.380547,0.0249086 0.000606222,0.0120353 0.00121244,0.0240706 0.00181867,0.0361237l0.243862 0z"/>
   <path id="_110430568" class="fil0 str0" d="M1.66813 1.66814l0 -0.214032c-0.0440759,0.0308103 -0.0818756,0.0654363 -0.141375,0.0726397 -0.00722118,0.0594989 -0.0418293,0.0972986 -0.0726397,0.141392l0.214014 0z"/>
   <path id="_110430520" class="fil0 str0" d="M1.66813 1.5262l0 0.141927 -0.141927 1.78301e-005c0,-0.0781848 0.0637603,-0.141945 0.141927,-0.141945z"/>
   <path id="_110430472" class="fil0 str0" d="M0.00757778 0.00757778l1.53453 0c0.0263707,0.0479807 -0.0592493,0.11126 -0.253864,0.177053 -0.0869394,0.0294018 -0.192832,0.0786127 -0.266524,0.148364 -0.118606,0.128234 -0.169065,0.327503 0.0149416,0.446821 0.225604,0.0479629 0.294392,-0.129571 0.19679,-0.202193 -0.111545,0.232076 -0.347918,-0.0208077 -0.132032,-0.16475 0.490576,-0.126897 0.469751,-0.185807 0.505678,-0.262102 0.0260141,0.0685388 0.0217705,0.178657 -0.127039,0.322011 0.0523134,0.0336988 0.096318,0.081947 0.122047,0.162254 -0.118713,0.179299 -0.224784,0.349915 -0.574039,0.393046 -0.0431309,0.349237 -0.213729,0.455308 -0.393046,0.574039 -0.0802888,-0.0257466 -0.128537,-0.0697512 -0.162236,-0.122047 -0.143372,0.148792 -0.25349,0.153053 -0.322011,0.127039 0.076277,-0.0359276 0.135205,-0.0151199 0.262102,-0.505696 0.143942,-0.215886 0.396826,0.0204867 0.164732,0.132032 0.0726397,0.0976018 0.250156,0.0288134 0.202193,-0.19679 -0.119319,-0.184006 -0.31857,-0.133547 -0.446804,-0.0149416 -0.0697512,0.0737095 -0.118962,0.179584 -0.148364,0.266524 -0.0657929,0.194615 -0.12909,0.280235 -0.177053,0.253864l0 -1.53453z"/>
   <polygon id="_110430424" class="fil0 str0" points="1.18691,0.00757778 0.00757778,0.00757778 0.00757778,1.1877 "/>
   <polygon id="_110430376" class="fil0 str0" points="0.00757778,0.00757778 1.0468,0.00757778 0.00757778,1.04803 "/>
   <path id="_110430328" class="fil0 str0" d="M0.00757778 0.68997l3.56601e-005 -0.682356 0.682356 -3.56601e-005c0,0.375822 -0.306534,0.682392 -0.682392,0.682392z"/>
   <path id="_110430280" class="fil0 str0" d="M0.00757778 0.58923l3.56601e-005 -0.581617 0.581617 -3.56601e-005c0,0.320353 -0.261282,0.581652 -0.581652,0.581652z"/>
   <path id="_110430232" class="fil0 str0" d="M0.00757778 0.00757778l0 0.29063c0.0283855,0.00199697 0.0561825,-0.0047428 0.0826245,-0.0144245 0.0109477,0.0291522 0.0219131,0.0582865 0.0328608,0.0874565 -0.0739056,0.103111 0.0238388,0.169207 0.0866006,0.141856 0.0682178,-0.0297584 0.0968707,-0.146634 -0.0332887,-0.165196 -0.0121779,-0.0298654 -0.024338,-0.0597485 -0.036516,-0.0896317 0.051101,-0.0172952 0.101079,-0.0673263 0.118392,-0.118409 0.0298832,0.0121779 0.0597664,0.024338 0.0896317,0.036516 0.0185433,0.130159 0.135437,0.101489 0.165178,0.0332887 0.0273691,-0.0627618 -0.0387269,-0.160506 -0.141838,-0.0866006 -0.02917,-0.0109655 -0.0583043,-0.0219131 -0.0874565,-0.0328608 0.00968172,-0.0264598 0.0164215,-0.054239 0.0144245,-0.0826245l-0.290612 0z"/>
   <path id="_110430184" class="fil0 str0" d="M0.00757778 0.00757778l0.241187 0c-0.0508513,0.0420968 -0.0829989,0.0962645 -0.0736203,0.167567 -0.0713024,-0.00937861 -0.12547,0.0227868 -0.167567,0.073656l0 -0.241223z"/>
   <path id="_110430136" class="fil0 str0" d="M0.00757778 0.149523l0 -0.141927 0.141927 -1.78301e-005c0,0.078167 -0.0637425,0.141945 -0.141927,0.141945z"/>
   <polygon id="_110430088" class="fil0 str0" points="0.712935,0.712935 0.903895,0.712935 0.903895,0.903895 0.712935,0.903895 "/>
  </g>
  <polygon class="fil0 str0" points="0.00761344,0.00761344 1.66814,0.00755995 1.66813,1.66814 0.00755995,1.66814 "/>
 </g>
</svg>
