<?xml version="1.0" encoding="UTF-8"?>
<!DOCTYPE svg PUBLIC "-//W3C//DTD SVG 1.1//EN" "http://www.w3.org/Graphics/SVG/1.1/DTD/svg11.dtd">
<!-- Creator: CorelDRAW -->
<svg xmlns="http://www.w3.org/2000/svg" xml:space="preserve" width="110px" height="110px" style="shape-rendering:geometricPrecision; text-rendering:geometricPrecision; image-rendering:optimizeQuality; fill-rule:evenodd; clip-rule:evenodd"
viewBox="0 0 1.25882 1.25882"
 xmlns:xlink="http://www.w3.org/1999/xlink">
 <defs>
  <style type="text/css">
   <![CDATA[
    .str0 {stroke:#4C4C4C;stroke-width:0.011345}
    .fil0 {fill:none}
   ]]>
  </style>
 </defs>
 <g id="Capa_x0020_1">
  <metadata id="CorelCorpID_0Corel-Layer"/>
  <g id="_196252176">
   <polygon id="_196252920" class="fil0 str0" points="0.00567918,0.00567918 1.25314,0.00567918 1.25314,1.25314 0.00567918,1.25314 "/>
   <circle id="_196252872" class="fil0 str0" cx="0.629411" cy="0.629412" r="0.540562"/>
   <path id="_196252824" class="fil0 str0" d="M0.00569258 0.514475c0.0472551,-0.258055 0.250781,-0.461554 0.508849,-0.508782l-0.508849 0 0 0.508782z"/>
   <path id="_196252776" class="fil0 str0" d="M0.514475 1.25314c-0.258055,-0.0472685 -0.461554,-0.250795 -0.508782,-0.508863l0 0.508863 0.508782 0z"/>
   <path id="_196252728" class="fil0 str0" d="M1.25314 0.744348c-0.0472685,0.258055 -0.250795,0.461554 -0.508863,0.508782l0.508863 0 0 -0.508782z"/>
   <path id="_196252680" class="fil0 str0" d="M0.744348 0.00569258c0.258055,0.0472551 0.461554,0.250781 0.508782,0.508849l0 -0.508849 -0.508782 0z"/>
   <circle id="_196252632" class="fil0 str0" cx="0.629411" cy="0.629412" r="0.49898"/>
   <path id="_196252584" class="fil0 str0" d="M0.672086 0.646382c0.0593903,0.0373299 0.121406,0.0720211 0.186877,0.103283 0.0595377,0.0284227 0.0927689,0.053162 0.155615,0.0200513 0.101716,-0.053604 0.104583,-0.204142 0.00499607,-0.261591 -0.0615334,-0.0354949 -0.0956755,-0.0120415 -0.156271,0.0140908 -0.067293,0.0290254 -0.131224,0.0617075 -0.19257,0.0971622 -0.0128585,0.00742044 -0.0108226,0.0193414 0.00135282,0.0270029z"/>
   <path id="_196252536" class="fil0 str0" d="M0.658732 0.594077c0.0538585,-0.0449513 0.106029,-0.0932109 0.155977,-0.145824 0.0454335,-0.0478444 0.0792407,-0.0717934 0.067159,-0.141805 -0.0195423,-0.113302 -0.16183,-0.162553 -0.247232,-0.0855896 -0.0527735,0.0475632 -0.0410267,0.0872772 -0.0348921,0.152976 0.0068043,0.0729855 0.0181225,0.143882 0.0328964,0.213184 0.00309408,0.0145194 0.0150552,0.0162741 0.0260921,0.00705879z"/>
   <path id="_196252488" class="fil0 str0" d="M0.60486 0.590608c-0.0261055,-0.0651097 -0.055881,-0.129643 -0.0904785,-0.1934 -0.0314632,-0.0580107 -0.0437994,-0.0975507 -0.114119,-0.107704 -0.113785,-0.0164214 -0.204598,0.103685 -0.157785,0.208697 0.0289183,0.064882 0.0703201,0.0659803 0.134706,0.0804462 0.0714988,0.0160866 0.142422,0.0272172 0.212902,0.0345975 0.0147605,0.00154034 0.0201316,-0.00929564 0.0147739,-0.0226364z"/>
   <path id="_196252440" class="fil0 str0" d="M0.584916 0.64077c-0.0699852,0.0047014 -0.14056,0.0130862 -0.211898,0.0262796 -0.064882,0.0120013 -0.106311,0.0115191 -0.13768,0.0752492 -0.0507912,0.103149 0.0353743,0.226632 0.149708,0.214563 0.0706549,-0.00744723 0.0844912,-0.0464916 0.118151,-0.103243 0.0373835,-0.063047 0.0698914,-0.127058 0.0986892,-0.191793 0.00602743,-0.0135684 -0.00262528,-0.0220202 -0.0169706,-0.0210558z"/>
   <path id="_196252392" class="fil0 str0" d="M0.626465 0.675233c-0.0171581,0.0680162 -0.0309944,0.137734 -0.0404776,0.209648 -0.00863932,0.0654177 -0.0218997,0.104663 0.029012,0.154209 0.0824017,0.0801649 0.226471,0.0363789 0.250326,-0.0760796 0.0147471,-0.069503 -0.0181091,-0.0947245 -0.0616941,-0.14427 -0.0483936,-0.0550372 -0.099225,-0.105748 -0.151905,-0.153137 -0.0110369,-0.00992517 -0.0217523,-0.00431296 -0.0252616,0.0096305z"/>
   <path id="_196252344" class="fil0 str0" d="M0.00569258 0.369053c0.0240026,-0.0574481 0.0557203,-0.110878 0.0938538,-0.15899 0.0147873,-0.0186583 -0.061587,-0.138484 -0.0449513,-0.155454 0.0146802,-0.0149882 0.122169,0.0726775 0.138176,0.059109 0.0525056,-0.0444959 0.111896,-0.0811159 0.176349,-0.108025l-0.363427 0 0 0.363361z"/>
   <path id="_196252296" class="fil0 str0" d="M0.369053 1.25314c-0.0574481,-0.024016 -0.110878,-0.0557337 -0.15899,-0.0938672 -0.0186583,-0.0147873 -0.138484,0.061587 -0.155454,0.0449513 -0.0149882,-0.0146802 0.0726775,-0.122169 0.059109,-0.138176 -0.0444959,-0.0525056 -0.0811159,-0.111896 -0.108025,-0.176349l0 0.363441 0.363361 0z"/>
   <path id="_196252248" class="fil0 str0" d="M1.25314 0.88977c-0.024016,0.0574481 -0.0557337,0.110878 -0.0938672,0.15899 -0.0147873,0.0186583 0.061587,0.138484 0.0449513,0.155454 -0.0146802,0.0149882 -0.122169,-0.0726775 -0.138176,-0.059109 -0.0525056,0.0444959 -0.111896,0.0811159 -0.176349,0.108025l0.363441 0 0 -0.363361z"/>
   <path id="_196252200" class="fil0 str0" d="M0.88977 0.00569258c0.0574481,0.0240026 0.110878,0.0557203 0.15899,0.0938538 0.0186583,0.0147873 0.138484,-0.061587 0.155454,-0.0449513 0.0149882,0.0146802 -0.0726775,0.122169 -0.059109,0.138176 0.0444959,0.0525056 0.0811159,0.111896 0.108025,0.176349l0 -0.363427 -0.363361 0z"/>
  </g>
  <polygon class="fil0 str0" points="0.00567918,0.00567918 1.25314,0.00567918 1.25314,1.25314 0.00567918,1.25314 "/>
 </g>
</svg>
