<?xml version="1.0" encoding="UTF-8"?>
<!DOCTYPE svg PUBLIC "-//W3C//DTD SVG 1.1//EN" "http://www.w3.org/Graphics/SVG/1.1/DTD/svg11.dtd">
<!-- Creator: CorelDRAW -->
<svg xmlns="http://www.w3.org/2000/svg" xml:space="preserve" width="110px" height="110px" style="shape-rendering:geometricPrecision; text-rendering:geometricPrecision; image-rendering:optimizeQuality; fill-rule:evenodd; clip-rule:evenodd"
viewBox="0 0 0.513978 0.513978"
 xmlns:xlink="http://www.w3.org/1999/xlink">
 <defs>
  <style type="text/css">
   <![CDATA[
    .str0 {stroke:#605D5C;stroke-width:0.00463216}
    .fil0 {fill:white}
   ]]>
  </style>
 </defs>
 <g id="Plan_x0020_1">
  <metadata id="CorelCorpID_0Corel-Layer"/>
  <g id="_235013136">
   <rect id="_235012944" class="fil0 str0" x="0.00232086" y="0.00232111" width="0.509336" height="0.509339"/>
   <ellipse id="_235013016" class="fil0 str0" cx="0.256065" cy="0.25813" rx="0.192612" ry="0.187467"/>
   <path id="_235012752" class="fil0 str0" d="M0.257831 0.472163c-0.0603658,-0.00388839 -0.107278,-0.0248616 -0.146649,-0.0532999 -0.00124691,-0.000656268 -0.00356572,0.00146567 -0.00285477,0.00545797 -0.000678144,0.00987684 -0.00593376,0.0121902 -0.015034,0.00988231 -0.00875571,0.00112659 -0.0105222,0.0112331 -0.00349463,0.0147223 0.0155098,0.0159801 0.00429309,0.0341752 -0.0181513,0.024982 -0.00773303,-0.00435872 -0.01003,-0.00243913 -0.0131199,0.00166255 -0.0236694,0.015734 -0.0393433,-0.00160786 -0.0222202,-0.0259499 0.0026907,-0.00282195 0.00479623,-0.00599939 0.00283289,-0.0116105 -0.0194748,-0.0194802 -0.000453919,-0.0424715 0.0200873,-0.0221873 0.00327587,0.00444622 0.0121957,0.00690722 0.0141481,-0.00447903 -0.00168989,-0.00802835 0.00167348,-0.0155317 0.0123925,-0.0129613 0.00366963,0.000470326 0.00509702,-0.000207818 0.00591735,-0.00352197 -0.0406121,-0.0423949 -0.0444622,-0.0900346 -0.0504725,-0.137373 0.00601032,-0.0473334 0.00986043,-0.0949784 0.0504725,-0.137368 -0.000820335,-0.00331962 -0.00224772,-0.0039923 -0.00591735,-0.00352197 -0.0107191,0.00256492 -0.0140824,-0.00493295 -0.0123925,-0.0129668 -0.0019524,-0.0113863 -0.0108722,-0.00891978 -0.0141481,-0.00447903 -0.0205412,0.0202842 -0.039562,-0.00270711 -0.0200873,-0.0221873 0.00196334,-0.00561109 -0.000142191,-0.00878306 -0.00283289,-0.011605 -0.0171231,-0.0243476 -0.00144926,-0.041684 0.0222202,-0.0259554 0.00308993,0.00410168 0.00538687,0.00602673 0.0131199,0.00166255 0.0224444,-0.00919323 0.0336611,0.00900728 0.0181513,0.024982 -0.00702754,0.00349463 -0.00526108,0.0135957 0.00349463,0.0147223 0.00910026,-0.00230788 0.0143559,5.4689e-006 0.015034,0.00988231 -0.000710957,0.0039923 0.00160786,0.00611423 0.00285477,0.00545797 0.0393706,-0.0284328 0.0862829,-0.0494115 0.146649,-0.0532999 0.0603658,0.00388839 0.107278,0.0248671 0.146649,0.0532999 0.00124691,0.000656268 0.00356572,-0.00146567 0.00285477,-0.00545797 0.000678144,-0.00987684 0.00593376,-0.0121902 0.015034,-0.00988231 0.00875571,-0.00112659 0.0105222,-0.0112277 0.00349463,-0.0147223 -0.0155098,-0.0159747 -0.00429309,-0.0341752 0.0181513,-0.024982 0.0077385,0.00436418 0.01003,0.00243913 0.0131199,-0.00166255 0.0236694,-0.0157286 0.0393433,0.00160786 0.0222202,0.0259554 -0.0026907,0.00282195 -0.00479623,0.00599392 -0.00282742,0.011605 0.0194693,0.0194802 0.00044845,0.0424715 -0.0200928,0.0221873 -0.00327587,-0.00444075 -0.0121957,-0.00690722 -0.0141481,0.00447903 0.00168989,0.00803382 -0.00167895,0.0155317 -0.0123925,0.0129668 -0.00366963,-0.000470326 -0.00509702,0.000202349 -0.00591188,0.00352197 0.0406066,0.0423895 0.0444567,0.0900346 0.0504725,0.137368 -0.00601579,0.0473388 -0.0098659,0.0949784 -0.050478,0.137373 0.000820335,0.00331416 0.00224225,0.0039923 0.00591735,0.00352197 0.0107136,-0.00257038 0.0140824,0.00493295 0.0123925,0.0129613 0.0019524,0.0113863 0.0108722,0.00892525 0.0141481,0.00447903 0.0205412,-0.0202842 0.039562,0.00270711 0.0200873,0.0221873 -0.00196334,0.00561109 0.000142191,0.00878853 0.00283289,0.0116105 0.0171231,0.0243421 0.00144926,0.041684 -0.0222202,0.0259499 -0.00308993,-0.00410168 -0.00538687,-0.00602126 -0.0131199,-0.00166255 -0.0224444,0.00919323 -0.0336611,-0.00900181 -0.0181513,-0.024982 0.00702754,-0.00348916 0.00526108,-0.0135957 -0.0035001,-0.0147223 -0.00909479,0.00230788 -0.0143504,-5.4689e-006 -0.0150285,-0.00988231 0.000710957,-0.0039923 -0.00160786,-0.00611423 -0.00285477,-0.00545797 -0.0393706,0.0284383 -0.0862884,0.0494115 -0.146649,0.0532999zm-0.000125785 -0.0278805c-0.0909096,-0.00149848 -0.186446,-0.0656104 -0.190717,-0.186796 0.00427121,-0.121185 0.100059,-0.185297 0.190969,-0.186796 0.0909096,0.00149848 0.186446,0.0656104 0.190723,0.186796 -0.00427121,0.121185 -0.100065,0.185297 -0.190974,0.186796z"/>
   <path id="_235012872" class="fil0 str0" d="M0.149082 0.159851c-0.00916588,-0.00644784 -0.0190263,-0.00255398 -0.0281922,0.00400871 0.00393761,-0.0132566 0.0142684,-0.0188458 0.0274976,-0.0209514 0.0132621,-0.0166802 0.0314024,-0.0205795 0.061465,-0.0131801 0.0197099,-0.0124308 0.0277055,-0.0168825 0.0341314,-0.0234835 0.000213287,0.00866821 0.00335244,0.0138363 -0.00969637,0.0338744 0.0271203,-0.00743224 0.0178067,-0.0132402 0.0306477,-0.0288047 0.0040798,0.0206396 -0.00168989,0.0372979 -0.0254687,0.0449981 -0.0153239,0.0049603 -0.0164395,0.0178177 -0.0164395,0.0245718 -0.00149301,0.0143121 -0.00809398,0.0260703 -0.0170192,0.036669 -0.0110581,0.0139402 -0.000519546,0.0177849 0.00907838,0.0150121 0.0387745,-0.0257148 0.0775928,-0.0768709 0.0806609,-0.133037 0.00436418,0.00523374 0.00873384,0.0139566 0.013098,0.0191959 0.00759631,-0.00535406 0.00983856,-0.0120917 0.0137051,-0.0230405 0.00552906,0.0324251 -0.0125675,0.0589712 -0.0314243,0.083893 0.00785335,-0.0026196 0.0171067,-0.00523921 0.0249601,-0.00785881 -0.0117855,0.00872837 -0.0249601,0.0174622 -0.0367456,0.0261906 -0.00788616,0.00861899 -0.00864634,0.0137051 0.00785335,0.0170247 -0.0074213,0.0129394 -0.0164997,0.0257585 0.0026196,0.0405902 0.0213342,0.0138746 0.0484818,0.0146621 0.0772592,0.011791 0.00961433,-0.00671034 0.0154114,-0.0195185 -0.00392667,-0.0190318 -0.0453755,0.00861352 -0.079764,-0.0749185 -0.00654628,-0.0818039 0.0170302,0.00159692 0.0242765,0.00645877 0.0301173,0.0117855 0.00436418,0.00210006 0.00913854,0.00694004 0.0103144,0.0153457 0.0014766,0.0105659 0.00651346,0.0181677 0.0118621,0.0227124 -0.00436418,0.0106644 -0.0073338,0.00507514 -0.011698,0.00384464 -0.012491,0.0110198 -0.0235874,0.0180747 -0.0248835,-0.00261414 0.000771115,-0.00759084 -0.00472513,-0.0123925 -0.0150996,-0.0144051 -0.0023571,-0.00558922 0.00366417,-0.00931354 0.01248,-0.011173 0.00386651,-0.0255945 -0.0409129,-0.0220561 -0.0419027,0.00724083 -0.00192505,0.0337431 0.0189388,0.0415144 0.0523812,0.0419082 0.0106534,0.00773303 0.0204974,0.0246483 -0.00785881,0.0392831 -0.0126605,0.00281649 -0.0253156,0.00330869 -0.0379761,-0.00130707 -0.00197974,0.0356518 0.0305055,0.0675191 0.0544703,0.0797093 -0.00458841,0.016259 -0.00450638,0.0288813 -0.022428,0.0394527 -0.00491654,-0.000377354 -0.00587907,-0.00517358 -0.00707676,-0.00741036 -0.00842758,-0.00102815 -0.0119769,-0.0017063 -0.00924792,-0.0083018 0.00715879,-0.00471419 0.0133879,-0.0126769 0.0130926,-0.0211209 -0.0155426,-0.0165872 -0.0288758,-0.0317798 -0.0462779,-0.048367 -0.00441887,-0.000552359 -0.0113972,0.00215475 -0.0139566,0.00532124 -0.00175552,0.00261414 0.0013891,0.0101229 0.00523374,0.0183318 -0.0133441,0.0101667 -0.0278695,0.0200928 -0.0222584,0.0340494 -0.000514077,0.00882134 -0.00289852,0.0160184 -0.0183318,0.0117855 -0.00822523,-0.00763459 -0.0174239,-0.0123488 -0.0275031,-0.0144051 -0.0170466,-4.37512e-005 -0.0192287,-0.0065955 -0.00654628,-0.0196443 0.000574235,-0.00770022 0.00517358,-0.0107573 0.00785881,-0.00916588 0.00969637,0.00287664 0.0119605,0.00823617 0.0157122,0.013098 0.0174567,-0.000267976 0.0250585,-0.0157176 0.0130926,-0.0261906 -0.00628924,-0.00558922 -0.0116433,-0.0116378 -0.0104729,-0.0209568 -0.00059611,-0.0107519 -0.00582985,-0.0168661 -0.0157122,-0.0183318 -0.0175552,0.00409621 -0.0381183,0.0116816 -0.0519382,0.0269726 0.007826,0.0174458 0.00906197,0.0287774 0.00741036,0.0424332 0.0108722,0.011348 0.0152364,0.0226959 0.013098,0.0340439 -0.0157176,-0.00966902 -0.0314298,-0.0109761 -0.0471419,-0.00392667 -0.0199615,-0.00813773 -0.0131144,-0.0136996 -0.00323212,-0.0201693 -0.00766193,-0.0148207 -0.00452278,-0.0189552 0.00453919,-0.0151871 0.00560563,0.00925338 0.011687,0.0145965 0.0228764,0.00523921 -0.00350557,-0.0261632 -0.0100847,-0.0417551 -0.0228764,-0.0419027 -0.0074213,0.00261414 -0.0148371,0.00523374 -0.0222584,0.00785335 -0.0122339,-0.00662831 -0.0308556,-0.00942292 -0.0523812,-0.0104729 -0.000842211,-0.0075799 -0.00132894,-0.0152746 -0.00785881,-0.0209514 -0.00420559,-0.00398683 -0.00376807,-0.00704395 0.00131254,-0.00917135 0.000273445,-0.0101065 0.00761271,-0.0118511 0.0130926,-0.00523374 0.0181568,-0.00527202 0.0123433,0.00378448 0.00671581,0.00916588 0.00079846,0.00709317 -0.00218209,0.00954324 0.00690722,0.012923 0.00771662,0.00219303 0.0158872,0.00226959 0.0217334,-0.00113753 -0.00162973,-0.0480443 0.0228545,-0.0716044 0.0510686,-0.0916643 0.00874478,-0.00562203 0.0100518,-0.0121683 0.00393214,-0.0196443 -0.0159254,-0.0127207 -0.0340549,-0.0122011 -0.0536882,-0.0026196 -0.00030079,-0.00858618 0.00662831,-0.0169372 0.0137871,-0.023653z"/>
   <path id="_235012800" class="fil0 str0" d="M0.159397 0.142006c0.0134699,0.0102159 0.0260156,0.00836195 0.0376261,-0.00557828 -0.0125402,-0.00650253 -0.0250859,-0.0046431 -0.0376261,0.00557828z"/>
  </g>
 </g>
</svg>
