<?xml version="1.0" encoding="UTF-8"?>
<!DOCTYPE svg PUBLIC "-//W3C//DTD SVG 1.1//EN" "http://www.w3.org/Graphics/SVG/1.1/DTD/svg11.dtd">
<!-- Creator: CorelDRAW -->
<svg xmlns="http://www.w3.org/2000/svg" xml:space="preserve" width="111px" height="111px" style="shape-rendering:geometricPrecision; text-rendering:geometricPrecision; image-rendering:optimizeQuality; fill-rule:evenodd; clip-rule:evenodd"
viewBox="0 0 24.442 24.4417"
 xmlns:xlink="http://www.w3.org/1999/xlink">
 <defs>
  <style type="text/css">
   <![CDATA[
    .str0 {stroke:#4C4C4C;stroke-width:0.220282}
    .fil0 {fill:none}
   ]]>
  </style>
 </defs>
 <g id="Capa_x0020_1">
  <metadata id="CorelCorpID_0Corel-Layer"/>
  <g id="_453087520">
   <rect id="_453088288" class="fil0 str0" x="0.110148" y="0.110767" width="24.2212" height="24.2208"/>
   <polygon id="_453088240" class="fil0 str0" points="0.110531,0.110271 0.110531,24.3312 24.3317,24.3312 24.3317,0.110271 "/>
   <path id="_453088192" class="fil0 str0" d="M0.110271 0.110791l8.23498 0 11.2154 5.01058c-6.87999,1.88371 -12.5556,7.55956 -14.4393,14.4393l-5.01058 -11.2154 -0.000520148 -8.23446z"/>
   <polygon id="_453088144" class="fil0 str0" points="24.3312,0.110791 24.3312,4.5916 15.2486,0.110791 "/>
   <polygon id="_453088096" class="fil0 str0" points="0.110531,24.3309 4.59134,24.3309 0.110531,15.2484 "/>
   <path id="_453088048" class="fil0 str0" d="M0.110271 0.110791l4.60201 0c1.66785,1.36669 6.81783,3.32894 10.2269,4.99342 -4.03582,1.92871 -7.9065,5.79938 -9.83495,9.83495 -1.66447,-3.40905 -3.62673,-8.55903 -4.99342,-10.2269l-0.000520148 -4.60148z"/>
   <path id="_453088000" class="fil0 str0" d="M0.110271 0.110791l1.2109 0c-0.0535752,0.692576 0.906877,1.80647 1.93443,2.31986 0.551616,0.275418 1.03743,0.224184 1.59347,0.276718 0.398953,0.0377107 0.74095,0.158385 1.01871,0.372946 -0.718324,0.806229 -0.125616,1.11702 0.571382,1.21376 0.666829,0.0923262 1.33106,-0.0507144 1.99815,0.0109231 0.994782,0.0925863 1.56148,0.506624 1.81349,1.15655 -0.821833,-0.243429 -1.63612,0.511045 -2.44911,0.305587 -0.383869,-0.0967474 -0.395052,0.235887 -0.242649,0.45981 0.250191,0.367744 0.604151,0.835357 0.449668,1.78567 -0.95031,0.154484 -1.41402,-0.203378 -1.78177,-0.453569 -0.223924,-0.152403 -0.556558,-0.14122 -0.45981,0.242649 0.205458,0.812991 -0.549016,1.62728 -0.305587,2.44911 -0.650184,-0.252011 -1.06422,-0.818712 -1.15655,-1.81349 -0.0616375,-0.667089 0.0814031,-1.33132 -0.0109231,-1.99815 -0.0967474,-0.696998 -0.407536,-1.28945 -1.21376,-0.571382 -0.214561,-0.277759 -0.335235,-0.619756 -0.373206,-1.01871 -0.0522748,-0.556038 -0.0010403,-1.04186 -0.276458,-1.59347 -0.513386,-1.02755 -1.62754,-1.988 -2.31986,-1.93417l-0.000520148 -1.21064z"/>
   <path id="_453087952" class="fil0 str0" d="M7.31666 24.3315c0,-9.39542 7.61938,-17.0148 17.0148,-17.0148l-0.000260074 17.0151 -17.0145 -0.000260074z"/>
   <path id="_453087904" class="fil0 str0" d="M8.72704 24.3315c0,-8.6165 6.9874,-15.6039 15.6042,-15.6039l0 15.6042 -15.6042 -0.000260074z"/>
   <path id="_453087856" class="fil0 str0" d="M10.4284 24.3317c0,-7.67712 6.22565,-13.9025 13.9028,-13.9025l0 13.9025 -13.9028 0z"/>
   <path id="_453087808" class="fil0 str0" d="M24.3312 24.3317l-12.5756 -0.000780221c0.195055,-0.419239 0.648364,-0.766958 1.59763,-0.772419 0.397393,-0.00156044 0.327953,0.0655386 0.269696,-0.31651 -0.0676192,-0.438744 -0.00364103,-0.816111 0.204938,-1.07853 0.221843,-0.279059 0.222103,-0.201297 0.367744,0.0436924 0.221583,0.372686 0.475155,0.624177 0.73991,0.827295 0.24811,0.190894 0.215341,0.182052 0.335755,-0.0938866l0.150843 -0.323532c0.067099,-0.144081 0.0418719,-0.187773 0.160986,-0.0710001 1.35915,1.33002 3.41555,1.78697 4.3786,0.932624 0.456169,-0.404935 0.553957,-0.971896 0.306107,-1.52585 -0.157605,-0.3524 -0.490239,-0.658247 -1.18984,-0.731587 -1.00414,-0.10533 -1.79633,0.0410917 -2.56017,-0.70454 -0.164107,-0.160466 -0.171649,-0.129257 -0.0161246,-0.271517 0.253052,-0.231206 0.405455,-0.559159 -0.49388,-0.548235 -0.358642,0.0221063 -0.74173,-0.0723005 -1.09023,-0.254612 -0.230165,-0.120154 -0.248891,-0.100128 -0.091546,-0.297784l0.304286 -0.381268c0.130037,-0.163846 0.0720404,-0.124055 -0.108191,-0.196876 -0.408056,-0.165147 -0.77424,-0.381268 -1.06812,-0.683994 -0.196096,-0.202597 -0.24577,-0.255653 0.0340697,-0.408056 0.243949,-0.133158 0.823654,-0.213521 1.14901,-0.240828 0.66917,-0.0559159 0.835357,-0.113652 0.338096,-0.503503 -0.508704,-0.398953 -0.546935,-1.08399 -0.378927,-1.63118 0.547455,-0.168008 1.23509,-0.132638 1.63404,0.376327 0.389851,0.497261 0.447587,0.331074 0.503503,-0.338096 0.0273077,-0.325352 0.107671,-0.905057 0.240828,-1.14901 0.152403,-0.279839 0.205458,-0.230165 0.408056,-0.0340697 0.302726,0.293883 0.518847,0.660067 0.683994,1.06812 0.0728207,0.180231 0.0330294,0.238228 0.196876,0.108191l0.381268 -0.304286c0.197656,-0.157345 0.17763,-0.138619 0.297784,0.0912859 0.182312,0.348759 0.276718,0.731848 0.254612,1.09049 -0.0109231,0.899335 0.31703,0.746932 0.548496,0.49388 0.142,-0.155524 0.110791,-0.147982 0.271257,0.0158645 0.745631,0.764097 0.59921,1.55628 0.70454,2.56043 0.0733408,0.699598 0.379188,1.03223 0.731587,1.18984 0.553957,0.24785 1.12092,0.150063 1.52585,-0.306367 0.854342,-0.962793 0.397653,-3.0192 -0.932624,-4.37834 -0.116773,-0.119114 -0.0730807,-0.0938866 0.0710001,-0.160986l0.323532 -0.150843c0.275938,-0.120414 0.284781,-0.0879049 0.0938866,-0.335755 -0.203118,-0.264755 -0.454609,-0.518327 -0.827295,-0.73991 -0.244989,-0.145641 -0.322752,-0.145901 -0.0436924,-0.367744 0.262414,-0.208579 0.639781,-0.272557 1.07853,-0.204938 0.382308,0.0582565 0.314949,0.127696 0.31677,-0.269696 0.00520148,-0.949269 0.35292,-1.40258 0.772159,-1.59763l0 12.5761z"/>
   <path id="_453087760" class="fil0 str0" d="M22.1583 24.3317c0,-1.19972 0.973196,-2.17292 2.17292,-2.17292l0 2.17292 -2.17292 0z"/>
   <path id="_453087640" class="fil0 str0" d="M24.3317 22.1583c-1.19972,0 -2.17292,0.973196 -2.17292,2.17292l2.1724 0.000520148 0.000520148 -2.17344z"/>
   <polygon id="_453087592" class="fil0 str0" points="18.6395,0.110791 24.3312,0.110791 24.3312,2.89618 "/>
   <polygon id="_453087544" class="fil0 str0" points="0.110531,18.6392 0.110531,24.3309 2.89592,24.3309 "/>
  </g>
 </g>
</svg>
