<?xml version="1.0" encoding="UTF-8"?>
<!DOCTYPE svg PUBLIC "-//W3C//DTD SVG 1.1//EN" "http://www.w3.org/Graphics/SVG/1.1/DTD/svg11.dtd">
<!-- Creator: CorelDRAW -->
<svg xmlns="http://www.w3.org/2000/svg" xml:space="preserve" width="111px" height="111px" style="shape-rendering:geometricPrecision; text-rendering:geometricPrecision; image-rendering:optimizeQuality; fill-rule:evenodd; clip-rule:evenodd"
viewBox="0 0 0.321012 0.321056"
 xmlns:xlink="http://www.w3.org/1999/xlink">
 <defs>
  <style type="text/css">
   <![CDATA[
    .str0 {stroke:#4C4C4C;stroke-width:0.00287521}
    .fil0 {fill:none}
    .fil1 {fill:white}
   ]]>
  </style>
 </defs>
 <g id="Plan_x0020_1">
  <metadata id="CorelCorpID_0Corel-Layer"/>
  <g id="_119465520">
   <polygon id="_119466120" class="fil0 str0" points="0.317567,0.31759 0.317567,0.0014393 0.0014393,0.0014393 0.0014393,0.31759 "/>
   <polygon id="_119466072" class="fil1 str0" points="0.317567,0.31759 0.317567,0.240004 0.307987,0.24905 0.248891,0.249064 0.248959,0.308384 0.239987,0.31759 "/>
   <polygon id="_119466024" class="fil1 str0" points="0.00151398,0.271801 0.0846948,0.189217 0.189404,0.189217 0.189404,0.0845013 0.271852,0.0014427 0.0014427,0.0014427 "/>
   <polygon id="_119465976" class="fil0 str0" points="0.0911819,0.204972 0.00144609,0.29447 0.00152417,0.271804 0.084705,0.189224 0.189414,0.189224 0.189414,0.0845047 0.271852,0.0014427 0.294456,0.0014427 0.205165,0.0909816 0.205165,0.204972 "/>
   <polygon id="_119465928" class="fil0 str0" points="0.31757,0.0177401 0.317567,0.0402564 0.248891,0.108545 0.248891,0.190545 0.287847,0.190541 0.301425,0.176932 0.301425,0.118406 0.317567,0.102401 0.317567,0.183382 0.2943,0.206292 0.233143,0.206292 0.233143,0.101953 "/>
   <polygon id="_119465880" class="fil0 str0" points="0.0178589,0.31759 0.0403819,0.31759 0.108545,0.248901 0.190538,0.248901 0.190538,0.287861 0.176929,0.301439 0.118406,0.301439 0.102482,0.31759 0.183426,0.31759 0.206285,0.294314 0.206285,0.23315 0.101953,0.23315 "/>
   <polygon id="_119465832" class="fil1 str0" points="0.233143,0.233299 0.301486,0.233208 0.317567,0.217294 0.317567,0.240004 0.307987,0.24905 0.248891,0.249064 0.248959,0.308384 0.239987,0.31759 0.217325,0.31759 0.233116,0.301884 "/>
   <polygon id="_119465784" class="fil0 str0" points="0.31759,0.286876 0.294758,0.261288 0.296517,0.296456 0.31757,0.31759 "/>
   <polygon id="_119465736" class="fil0 str0" points="0.286618,0.31759 0.260894,0.294989 0.29652,0.296456 0.317567,0.317587 "/>
   <polygon id="_119465688" class="fil0 str0" points="0.0144372,0.0109645 0.114302,0.0109645 0.185225,0.0809913 0.085445,0.0809913 "/>
   <polygon id="_119465640" class="fil0 str0" points="0.0109713,0.0144439 0.0109713,0.114316 0.0809947,0.185246 0.0809947,0.0854586 "/>
   <polygon id="_119465592" class="fil1 str0" points="0.317176,0.0404193 0.248891,0.108545 0.248891,0.190545 0.287847,0.190541 0.301425,0.176932 0.301425,0.118406 0.317176,0.102544 "/>
   <polygon id="_119465544" class="fil1 str0" points="0.0404261,0.31719 0.108545,0.248901 0.190538,0.248901 0.190538,0.287861 0.176929,0.301439 0.118406,0.301439 0.102547,0.31719 "/>
  </g>
  <polyline class="fil0 str0" points="0.0014427,0.0014427 0.317567,0.0014393 0.317567,0.240004 "/>
  <polyline class="fil0 str0" points="0.239987,0.31759 0.0014393,0.31759 0.0014427,0.0014427 "/>
 </g>
</svg>
