<?xml version="1.0" encoding="UTF-8"?>
<!DOCTYPE svg PUBLIC "-//W3C//DTD SVG 1.1//EN" "http://www.w3.org/Graphics/SVG/1.1/DTD/svg11.dtd">
<!-- Creator: CorelDRAW -->
<svg xmlns="http://www.w3.org/2000/svg" xml:space="preserve" width="110px" height="110px" style="shape-rendering:geometricPrecision; text-rendering:geometricPrecision; image-rendering:optimizeQuality; fill-rule:evenodd; clip-rule:evenodd"
viewBox="0 0 1.18306 1.18306"
 xmlns:xlink="http://www.w3.org/1999/xlink">
 <defs>
  <style type="text/css">
   <![CDATA[
    .str0 {stroke:#4C4C4C;stroke-width:0.0106621}
    .fil1 {fill:white}
    .fil0 {fill:white;fill-rule:nonzero}
   ]]>
  </style>
 </defs>
 <g id="Capa_x0020_1">
  <metadata id="CorelCorpID_0Corel-Layer"/>
  <g id="_202816768">
   <polygon id="_203597424" class="fil0 str0" points="1.17771,1.17771 0.00533736,1.17771 0.00533736,0.00534995 1.17771,0.00534995 "/>
   <path id="_203597376" class="fil0 str0" d="M0.0244965 1.15856c0.250541,-0.000251762 0.539527,-0.12568 0.773956,-0.360108 0.234429,-0.234429 0.359857,-0.523414 0.360121,-0.773968 -0.250554,0.000264351 -0.53954,0.125692 -0.773968,0.360121 -0.234429,0.234429 -0.359857,0.523414 -0.360108,0.773956z"/>
   <path id="_203597328" class="fil0 str0" d="M0.680262 1.17771c1.25881e-005,-0.274723 0.222722,-0.49742 0.497445,-0.497432l0 0.497432 -0.497445 0z"/>
   <path id="_203597280" class="fil0 str0" d="M0.744827 1.17771l0.43288 0 0 -0.432855c-0.239061,0 -0.432868,0.193794 -0.43288,0.432855z"/>
   <path id="_203597232" class="fil0 str0" d="M1.17771 1.17771l0 -0.15146c-0.0135826,0.00425479 -0.0213369,-0.0219033 -0.0229104,-0.0363293 -0.00343656,-0.0314955 -0.0023288,-0.081785 -0.00390232,-0.119398 -0.00195116,-0.0469537 -0.00978097,-0.0567347 -0.0381546,-0.0655338 -0.028361,-0.00881169 -0.0406848,0.0137085 -0.05535,0.0274043 -0.0146778,0.0136959 -0.0322759,0.00684794 -0.0479356,0.00684794 -0.0156596,0 -0.0195619,0.000981874 -0.0410876,0.0215131 -0.0215257,0.0205438 0,0.0645771 0.0087991,0.0782604 0.00881169,0.0137085 0.0895897,0.0873616 0.105224,0.106924 0.0161002,0.0201284 -0.0163268,0.0525554 -0.0364552,0.0364552 -0.0195619,-0.0156344 -0.093215,-0.0964124 -0.106924,-0.105224 -0.0136833,-0.0087991 -0.0577165,-0.0303248 -0.0782604,-0.0087991 -0.0205312,0.0215257 -0.0215131,0.025428 -0.0215131,0.0410876 0,0.0156596 0.00684794,0.0332578 -0.00686053,0.0479356 -0.0136833,0.0146652 -0.0361909,0.0269889 -0.0273918,0.05535 0.0087991,0.0283736 0.0185801,0.0362034 0.0655464,0.0381546 0.0376007,0.00157352 0.0878903,0.000465761 0.119386,0.00390232 0.014426,0.00157352 0.0405841,0.00931521 0.0363293,0.0229104l0.15146 0z"/>
   <path id="_203597184" class="fil0 str0" d="M1.17771 1.17771l0 -0.110939c0,0 -0.0122986,-0.00278198 -0.0191465,-0.0106118 -0.00684794,-0.00781722 -0.0942725,-0.142586 -0.0942725,-0.142586l0.0466012 0.149673c0.00372608,0.0114426 0.00937815,0.0201662 0.000427996,0.0313948 -0.0062563,0.00782981 -0.00884945,0.010423 -0.0166793,0.0166793 -0.0112286,0.00895016 -0.0199522,0.00329809 -0.0313948,-0.000415408l-0.149673 -0.0466012c0,0 0.134768,0.0874245 0.142586,0.0942599 0.00782981,0.00684794 0.0106118,0.0191465 0.0106118,0.0191465l0.110939 0z"/>
   <path id="_203597136" class="fil0 str0" d="M1.17771 1.10387l0 0 0 0.0738419 -0.0738545 0c0,-0.0407855 0.033069,-0.0738419 0.0738545,-0.0738419z"/>
   <path id="_203597088" class="fil0 str0" d="M0.424648 0.42466c0.216037,-0.216037 0.472936,-0.341037 0.689414,-0.355677 -0.01464,0.216491 -0.139653,0.473389 -0.355677,0.689414 -0.216025,0.216037 -0.472923,0.341037 -0.689414,0.355677 0.0146526,-0.216478 0.139653,-0.473389 0.355677,-0.689414z"/>
   <path id="_203597040" class="fil0 str0" d="M0.00534995 0.502795c0.274711,-1.25881e-005 0.49742,-0.222722 0.49742,-0.497457l-0.49742 0 0 0.497457z"/>
   <path id="_203596992" class="fil0 str0" d="M0.00534995 0.43823l0 -0.432893 0.432855 0c0,0.239074 -0.193794,0.43288 -0.432855,0.432893z"/>
   <path id="_202816960" class="fil0 str0" d="M0.00534995 0.00534995l0.15146 0c-0.00425479,0.0135826 0.0219033,0.0213369 0.0363293,0.0229104 0.0314955,0.00343656 0.081785,0.0023288 0.119386,0.00388973 0.0469663,0.00196375 0.0567473,0.00979356 0.0655464,0.0381672 0.0087991,0.028361 -0.0137085,0.0406848 -0.0274043,0.0553374 -0.0136959,0.0146778 -0.00684794,0.0322885 -0.00684794,0.0479482 0,0.015647 -0.000981874,0.0195494 -0.0215131,0.0410876 -0.0205438,0.0215131 -0.0645771,-1.25881e-005 -0.0782604,-0.00881169 -0.0137085,-0.0087991 -0.0873616,-0.0895771 -0.106924,-0.105224 -0.0201284,-0.0160876 -0.0525554,0.0163394 -0.0364678,0.0364678 0.015647,0.0195619 0.096425,0.093215 0.105237,0.106911 0.0087991,0.0136959 0.0303122,0.0577165 0.0087991,0.0782729 -0.0215257,0.0205312 -0.025428,0.0215131 -0.0410876,0.0215131 -0.0156596,0 -0.0332578,-0.00684794 -0.0479356,0.00684794 -0.0146652,0.0136959 -0.0269889,0.0362034 -0.05535,0.0274043 -0.0283736,-0.00881169 -0.0362034,-0.0185801 -0.0381546,-0.0655464 -0.00157352,-0.0376007 -0.000465761,-0.0878903 -0.00390232,-0.119386 -0.00157352,-0.014426 -0.00931521,-0.0405841 -0.0229104,-0.0363293l0 -0.15146z"/>
   <path id="_202816912" class="fil0 str0" d="M0.00534995 0.00534995l0.110939 0c0,0 0.00278198,0.0122986 0.0106118,0.0191339 0.00781722,0.00686053 0.142586,0.094285 0.142586,0.094285l-0.149673 -0.0466012c-0.0114426,-0.00372608 -0.0201662,-0.00937815 -0.0313948,-0.000427996 -0.00782981,0.0062563 -0.010423,0.00884945 -0.0166793,0.0166667 -0.00895016,0.0112412 -0.00329809,0.0199648 0.000415408,0.0314074l0.0466012 0.14966c0,0 -0.0874245,-0.134756 -0.0942599,-0.142573 -0.00684794,-0.0078424 -0.0191465,-0.0106118 -0.0191465,-0.0106118l0 -0.110939z"/>
   <path id="_202816864" class="fil0 str0" d="M0.0791919 0.00534995l0 0 -0.0738419 0 0 0.0738545c0.0407855,0 0.0738419,-0.033069 0.0738419,-0.0738545z"/>
   <path id="_202816816" class="fil1 str0" d="M0.803261 0.644021c-0.0233258,0.0166415 -0.0230866,0.0105363 -0.0259441,0.0376511 -0.0028575,0.0271274 -0.0207326,0.0484265 -0.0469159,0.0495091 -0.0261707,0.00108258 -0.0224572,-0.0240937 -0.0231873,-0.0309794 -0.00237916,-0.0225705 0.00664653,-0.0429003 -0.00377644,-0.0642498 -0.0104481,-0.0213369 -0.0168555,-0.0350076 -0.0375126,-0.0302367 -0.0206697,0.0047709 -0.033283,0.0148792 -0.0409492,0.0317472 -0.00766617,0.0168681 -0.0199144,0.0336984 0.0106873,0.0706445 0.0305891,0.0369587 0.0618958,0.0591894 0.036002,0.0850831 -0.0258938,0.0258938 -0.0314451,0.023074 -0.0390609,0.0281848 -0.00760323,0.0050856 -0.0193731,0.0114048 -0.0224698,0.02286 -0.00308409,0.0114552 -0.0188318,0.0321752 -0.0346677,0.025428 -0.0158233,-0.00674723 -0.017787,-0.0160121 -0.00895016,-0.0507931 0.00884945,-0.0347684 0.0118706,-0.0553626 0.0018001,-0.0645267 -0.0100831,-0.00916415 -0.0307402,-0.0252895 -0.0474824,-0.0102341 -0.0167422,0.015068 -0.0320997,0.038784 -0.0157603,0.0651184 0.0163268,0.0263218 0.0287009,0.0432276 0.0336481,0.05 0.00493454,0.00675982 0.0116944,0.0225957 -0.0103726,0.0296073 -0.0220796,0.00701158 -0.0309416,0.0108635 -0.0376637,0.0259441 -0.00670947,0.0150806 -0.00971803,0.0327165 -0.0307905,0.0261833 -0.0210725,-0.00653324 -0.0305891,-0.0187563 -0.0288016,-0.0406093 0.00177493,-0.021853 0.0132175,-0.0328676 0.0123867,-0.0445997 -0.000818228,-0.0117195 -0.00872357,-0.0205312 -0.0237034,-0.0164275 -0.0347306,0.00951662 -0.0321249,0.0493706 -0.0271778,0.0766239 0.00162387,0.00898792 0.00541289,0.0172206 0.0145141,0.0254784 0.0197382,0.0179129 -0.00501007,0.0367951 -0.0164904,0.0407603 -0.0114804,0.00395267 -0.0182276,0.00673465 -0.0255035,0.013998 -0.00725076,0.00726335 -0.0361783,0.0219663 -0.0384567,0.00333585 -0.00227845,-0.018643 0.0144512,-0.0589628 0.00675982,-0.0730111 -0.00769134,-0.0140609 -0.0170821,-0.0188948 -0.0248112,-0.0111783 -0.00771652,0.0077417 -0.0160373,0.0193983 -0.0168303,0.0385952 -0.000793052,0.0191969 0.00135952,0.0513344 -0.00332326,0.0593782 -0.00469537,0.00803122 -0.00532478,0.0128399 -0.0150302,0.0158484 -0.00970544,0.00302115 -0.0362034,0.0119461 -0.0417926,0.0100076 -0.00557654,-0.00193857 -0.00377644,-0.013784 -0.00208963,-0.0229859 0.00168681,-0.00922709 0.00312185,-0.0123364 -0.00326032,-0.0159869 -0.00638218,-0.00366314 -0.0138973,-0.0011707 -0.0212362,0.00785499 -0.00732629,0.0090131 -0.0170443,0.0229104 -0.0359265,0.0367573 -0.0131672,0.00968027 -0.0317347,0.0148036 -0.0475453,0.0166793 0.00187563,-0.0158107 0.00701158,-0.0343656 0.0166793,-0.0475453 0.0138469,-0.0188696 0.0277442,-0.0286002 0.0367573,-0.0359265 0.00902568,-0.00733888 0.0115055,-0.014854 0.00785499,-0.0212362 -0.00365056,-0.00638218 -0.00677241,-0.00494713 -0.0159743,-0.00326032 -0.00921451,0.00168681 -0.0210599,0.00348691 -0.0229985,-0.00208963 -0.00193857,-0.00558913 0.00698641,-0.0320871 0.0100076,-0.0417926 0.00300856,-0.00970544 0.00782981,-0.0103348 0.015861,-0.0150302 0.00803122,-0.00468278 0.0401687,-0.00253021 0.0593656,-0.00332326 0.0191969,-0.000793052 0.0308661,-0.0091138 0.0385952,-0.0168429 0.00770393,-0.00771652 0.00288268,-0.0171073 -0.0111783,-0.0247986 -0.0140609,-0.00769134 -0.0543681,0.00903827 -0.0729985,0.00675982 -0.018643,-0.00227845 -0.00394008,-0.0311934 0.00333585,-0.0384567 0.00726335,-0.00727593 0.0100327,-0.0140232 0.0139854,-0.0255035 0.00396526,-0.0114804 0.0228474,-0.036216 0.0407603,-0.0164904 0.00825781,0.00910121 0.0164904,0.0128902 0.0254784,0.0145141 0.0272533,0.00494713 0.0671073,0.00755287 0.0766239,-0.0271778 0.00410373,-0.0149673 -0.00470796,-0.0228852 -0.0164275,-0.0237034 -0.0117321,-0.000830816 -0.0227467,0.0106118 -0.0445997,0.0123867 -0.021853,0.00178751 -0.0340886,-0.00772911 -0.0406093,-0.0288016 -0.00653324,-0.0210725 0.0111027,-0.0240685 0.0261833,-0.0307905 0.0150806,-0.00672206 0.0189325,-0.0155967 0.0259441,-0.0376637 0.00701158,-0.022067 0.0228474,-0.0153197 0.0296073,-0.0103726 0.00677241,0.00494713 0.0236783,0.0173213 0.05,0.0336481 0.0263344,0.0163394 0.0500504,0.000981874 0.0651184,-0.0157603 0.0150554,-0.0167422 -0.00106999,-0.0374119 -0.0102341,-0.0474824 -0.00916415,-0.0100705 -0.0297583,-0.00704935 -0.0645267,0.0018001 -0.034781,0.00883686 -0.0440458,0.00687311 -0.0507931,-0.00895016 -0.00674723,-0.0158359 0.0139854,-0.0315836 0.025428,-0.0346677 0.0114552,-0.00309668 0.0177744,-0.0148666 0.0228726,-0.0224698 0.00509819,-0.00761581 0.00227845,-0.0131672 0.0281722,-0.0390609 0.0258938,-0.0258938 0.0481244,0.00541289 0.0850831,0.036002 0.0369461,0.0305891 0.0537765,0.0183535 0.0706445,0.0106873 0.0168681,-0.00766617 0.0269763,-0.0202795 0.0317472,-0.0409492 0.0047709,-0.0206571 -0.0088998,-0.0270645 -0.0302367,-0.0375126 -0.0213495,-0.0104356 -0.0416793,-0.00139728 -0.0642498,-0.00377644 -0.00687311,-0.000730111 -0.0320619,0.00298339 -0.0309794,-0.0231873 0.00108258,-0.0261833 0.0223817,-0.0440584 0.0495091,-0.0469159 0.0271148,-0.0028575 0.0210096,-0.00261833 0.0376511,-0.0259441 0.0085851,-0.0120468 0.0166541,-0.0141994 0.023288,-0.0122608 0.0160373,0.00470796 0.0419562,0.0523414 0.0742951,0.0629154 0.00947886,0.00310927 0.0191591,0.00363797 0.0281596,0.00329809 0.0268253,-0.000994462 0.0442473,-0.00310927 0.0511581,-0.035146 0.00323515,-0.0149421 -0.0380791,-0.0162764 -0.0744336,-0.0217397 -0.0134819,-0.00202669 -0.0228349,-0.00553877 -0.0293429,-0.00994462 -0.0370972,-0.025063 -7.55287e-005,-0.048351 0.0270645,-0.0613923 0.0128902,-0.00619336 0.0117825,-0.016566 0.0202543,-0.0333963 0.00847181,-0.0168303 0.0252392,-0.00852216 0.0325277,0.00511078 0.00727593,0.0136329 0.0163268,0.0210725 0.0382175,0.0393379 0.0117321,0.00978097 0.0221803,0.011493 0.0322256,0.00950403 0.0132805,-0.00263092 0.0334592,-0.0111153 0.0372986,-0.0259189 0.00292044,-0.011279 -0.0020141,-0.0237916 -0.0202417,-0.0225579 -0.00658359,0.000453172 -0.0136329,0.0015861 -0.0181395,0.00196375 -0.0100453,0.000843404 -0.0295695,-0.0114048 -0.0326284,-0.0217397 -0.00305891,-0.0103097 0.00378902,-0.018001 0.0222684,-0.0222558 0.0184542,-0.0042422 0.0193983,-0.00601712 0.0331068,-0.0213998 0.0136959,-0.0153701 0.0286506,0.00229104 0.0423339,0.0187185 0.0136959,0.0164275 0.0331571,0.0304255 0.0438318,0.035637 0.0106621,0.00522407 0.0266868,-0.00327291 0.0314451,-0.0130539 0.0047709,-0.00978097 -0.0022281,-0.0195116 -0.0103223,-0.0239678 -0.00809416,-0.0044562 -0.0254532,-0.0163646 -0.0307402,-0.0252895 -0.0052996,-0.00892498 -0.00332326,-0.0251259 0.0111783,-0.0387966 0.0145015,-0.0136581 0.0363167,-0.0145645 0.055501,-0.00446878 0.0191843,0.0101083 0.0326536,0.0108384 0.0427367,0.00912639 0.0100831,-0.00172457 0.0226838,-0.0110524 0.0484769,-0.0343404 0.0257805,-0.0232754 0.0369965,-0.0102341 0.0369965,-0.0102341 0,0 0.0130413,0.011216 -0.0102467,0.0369965 -0.0232754,0.0257931 -0.0326032,0.0383938 -0.0343278,0.0484769 -0.00172457,0.0100831 -0.000981874,0.0235524 0.00912639,0.0427367 0.0100957,0.0191843 0.00918933,0.0409995 -0.00446878,0.055501 -0.0136707,0.0145015 -0.0298716,0.0164779 -0.0387966,0.0111783 -0.00892498,-0.00528701 -0.0208333,-0.022646 -0.0252895,-0.0307402 -0.0044562,-0.00809416 -0.0141994,-0.0150932 -0.0239678,-0.0103223 -0.00978097,0.00475831 -0.018278,0.020783 -0.0130539,0.0314451 0.00521148,0.0106747 0.0192221,0.030136 0.035637,0.0438193 0.0164149,0.0136959 0.0340886,0.0286506 0.0187185,0.0423464 -0.0153827,0.0136959 -0.0171576,0.0146526 -0.0214124,0.0331068 -0.0042422,0.0184794 -0.0119335,0.0253273 -0.0222558,0.0222684 -0.0103223,-0.00305891 -0.0225705,-0.0225831 -0.0217271,-0.0326284 0.000377644,-0.00450655 0.00151057,-0.0115559 0.00196375,-0.0181521 0.00123364,-0.018215 -0.011279,-0.0231496 -0.0225705,-0.0202291 -0.014791,0.00383938 -0.0232754,0.0240181 -0.0259064,0.0372986 -0.00198892,0.0100453 -0.000289527,0.0204935 0.00950403,0.0322256 0.0182654,0.0218907 0.0257049,0.0309416 0.0393253,0.0382175 0.0136455,0.00727593 0.0219537,0.0240559 0.00512337,0.0325277 -0.0168303,0.00847181 -0.0272029,0.00737664 -0.0333963,0.0202417 -0.0130413,0.02714 -0.0363293,0.0641742 -0.0613923,0.0270771 -0.00440584,-0.00650806 -0.00791793,-0.015861 -0.00994462,-0.0293429 -0.00546325,-0.0363545 -0.00679759,-0.0776687 -0.0217397,-0.0744336 -0.0320368,0.00691088 -0.0341516,0.0243328 -0.035146,0.0511581 -0.000339879,0.00900051 0.000188822,0.0186808 0.00329809,0.0281596 0.0105614,0.0323389 0.0582075,0.0582578 0.0629154,0.0742951 0.00193857,0.00663394 -0.000213998,0.0147029 -0.0122608,0.023288z"/>
  </g>
 </g>
</svg>
