<?xml version="1.0" encoding="UTF-8"?>
<!DOCTYPE svg PUBLIC "-//W3C//DTD SVG 1.1//EN" "http://www.w3.org/Graphics/SVG/1.1/DTD/svg11.dtd">
<!-- Creator: CorelDRAW -->
<svg xmlns="http://www.w3.org/2000/svg" xml:space="preserve" width="110px" height="110px" style="shape-rendering:geometricPrecision; text-rendering:geometricPrecision; image-rendering:optimizeQuality; fill-rule:evenodd; clip-rule:evenodd"
viewBox="0 0 1.26844 1.26844"
 xmlns:xlink="http://www.w3.org/1999/xlink">
 <defs>
  <style type="text/css">
   <![CDATA[
    .str0 {stroke:#4C4C4C;stroke-width:0.0114317}
    .fil0 {fill:none}
   ]]>
  </style>
 </defs>
 <g id="Capa_x0020_1">
  <metadata id="CorelCorpID_0Corel-Layer"/>
  <g id="_203609928">
   <polygon id="_203611056" class="fil0 str0" points="0.00572259,0.00572259 1.26272,0.00572259 1.26272,1.26272 0.00572259,1.26272 "/>
   <path id="_203611008" class="fil0 str0" d="M0.684322 1.26272c-0.00615448,-0.0718428 0.122104,-0.0359281 0.252374,-0.118541 0.0298142,-0.0189088 0.0256842,-0.0129838 0.0065054,-0.0373453 -0.0297467,-0.0377502 -0.0300166,-0.095219 0.00168708,-0.135007 0.00754464,-0.00948816 0.0174512,-0.0193947 0.0269394,-0.0269394 0.0397882,-0.0317037 0.097257,-0.0314338 0.135007,-0.00168708 0.0243615,0.0191788 0.0184365,0.0233088 0.0373453,-0.0065054 0.0826131,-0.13027 0.0466985,-0.258529 0.118541,-0.252374l0 0.5784 -0.5784 0z"/>
   <path id="_203610960" class="fil0 str0" d="M0.00572259 0.684322c0.0718428,-0.00615448 0.0359281,0.122104 0.118541,0.252374 0.0189088,0.0298142 0.0129838,0.0256842 0.0373453,0.0065054 0.0377502,-0.0297467 0.095219,-0.0300166 0.135007,0.00168708 0.00948816,0.00754464 0.0193947,0.0174512 0.0269394,0.0269394 0.0317037,0.0397882 0.0314338,0.097257 0.00168708,0.135007 -0.0191788,0.0243615 -0.0233088,0.0184365 0.0065054,0.0373453 0.13027,0.0826131 0.258529,0.0466985 0.252374,0.118541l-0.5784 0 0 -0.5784z"/>
   <path id="_203610912" class="fil0 str0" d="M0.806885 1.26272c0.00921823,-0.0276412 0.0578063,-0.0420421 0.120849,-0.0723287 0.0310424,-0.0149273 0.0712085,-0.0367245 0.0918719,-0.0654589 0.00560112,-0.00780108 -0.00182205,-0.00844892 -0.0166819,-0.0193407 -0.040571,-0.0297197 -0.0492224,-0.0622062 -0.0271283,-0.101279 0.00776059,-0.0137261 0.0147924,-0.0207579 0.0285185,-0.0285185 0.0390729,-0.0220941 0.0715594,-0.0134427 0.101279,0.0271283 0.0108918,0.0148598 0.0115397,0.022283 0.0193407,0.0166819 0.0287344,-0.0206634 0.0505315,-0.0608295 0.0654589,-0.0918719 0.0302865,-0.063043 0.0446875,-0.111631 0.0723287,-0.120849l0 0.455837 -0.455837 0z"/>
   <path id="_203610864" class="fil0 str0" d="M0.00572259 0.806885c0.0276412,0.00921823 0.0420421,0.0578063 0.0723287,0.120849 0.0149273,0.0310424 0.0367245,0.0712085 0.0654589,0.0918719 0.00780108,0.00560112 0.00844892,-0.00182205 0.0193407,-0.0166819 0.0297197,-0.040571 0.0622062,-0.0492224 0.101279,-0.0271283 0.0137261,0.00776059 0.0207579,0.0147924 0.0285185,0.0285185 0.0220941,0.0390729 0.0134427,0.0715594 -0.0271283,0.101279 -0.0148598,0.0108918 -0.022283,0.0115397 -0.0166819,0.0193407 0.0206634,0.0287344 0.0608295,0.0505315 0.0918719,0.0654589 0.063043,0.0302865 0.111631,0.0446875 0.120849,0.0723287l-0.455837 0 0 -0.455837z"/>
   <path id="_203610816" class="fil0 str0" d="M0.584123 0.00572259c0.00615448,0.0718428 -0.122104,0.0359281 -0.252374,0.118541 -0.0298142,0.0189088 -0.0256842,0.0129838 -0.0065054,0.0373453 0.0297467,0.0377502 0.0300166,0.095219 -0.00168708,0.135007 -0.00754464,0.00948816 -0.0174512,0.0193947 -0.0269394,0.0269394 -0.0397882,0.0317037 -0.097257,0.0314338 -0.135007,0.00168708 -0.0243615,-0.0191788 -0.0184365,-0.0233088 -0.0373453,0.0065054 -0.0826131,0.13027 -0.0466985,0.258529 -0.118541,0.252374l0 -0.5784 0.5784 0z"/>
   <path id="_203610768" class="fil0 str0" d="M0.461559 0.00572259c-0.00921823,0.0276412 -0.0578063,0.0420421 -0.120849,0.0723287 -0.0310424,0.0149273 -0.0712085,0.0367245 -0.0918719,0.0654589 -0.00560112,0.00780108 0.00182205,0.00844892 0.0166819,0.0193407 0.040571,0.0297197 0.0492224,0.0622062 0.0271283,0.101279 -0.00776059,0.0137261 -0.0147924,0.0207579 -0.0285185,0.0285185 -0.0390729,0.0220941 -0.0715594,0.0134427 -0.101279,-0.0271283 -0.0108918,-0.0148598 -0.0115397,-0.022283 -0.0193407,-0.0166819 -0.0287344,0.0206634 -0.0505315,0.0608295 -0.0654589,0.0918719 -0.0302865,0.063043 -0.0446875,0.111631 -0.0723287,0.120849l0 -0.455837 0.455837 0z"/>
   <path id="_203610720" class="fil0 str0" d="M0.00572259 0.00572259l0 0.367245c0.0328374,-0.0231468 0.0455918,-0.0682797 0.0484801,-0.104208 0.00064784,-0.0081115 -0.00112022,-0.00751765 0.00634344,-0.00557413 0.0127004,0.00334718 0.0246989,-0.000431894 0.0359821,-0.0113372 0.00553364,-0.00535818 0.00499377,-0.00465635 -0.000472384,-0.00939369 -0.0363061,-0.0313798 -0.0558222,-0.0652429 -0.0463611,-0.131296 0.00584406,-0.040733 0.0184635,-0.0552959 0.0614639,-0.0614639 0.0660527,-0.00946117 0.0999159,0.010055 0.131296,0.0463611 0.00473733,0.00546615 0.00403551,0.00600602 0.00939369,0.000472384 0.0109053,-0.0112832 0.0146844,-0.0232818 0.0113372,-0.0359821 -0.00194352,-0.00746366 -0.00253737,-0.0056956 0.00557413,-0.00634344 0.0359281,-0.00288829 0.081061,-0.0156426 0.104208,-0.0484801l-0.367245 0z"/>
   <path id="_203610672" class="fil0 str0" d="M0.00572259 1.26272l0.367245 0c-0.0231468,-0.0328374 -0.0682797,-0.0455918 -0.104208,-0.0484801 -0.0081115,-0.00064784 -0.00751765,0.00112022 -0.00557413,-0.00634344 0.00334718,-0.0127004 -0.000431894,-0.0246989 -0.0113372,-0.0359821 -0.00535818,-0.00553364 -0.00465635,-0.00499377 -0.00939369,0.000472384 -0.0313798,0.0363061 -0.0652429,0.0558222 -0.131296,0.0463611 -0.040733,-0.00584406 -0.0552959,-0.0184635 -0.0614639,-0.0614639 -0.00946117,-0.0660527 0.010055,-0.0999159 0.0463611,-0.131296 0.00546615,-0.00473733 0.00600602,-0.00403551 0.000472384,-0.00939369 -0.0112832,-0.0109053 -0.0232818,-0.0146844 -0.0359821,-0.0113372 -0.00746366,0.00194352 -0.0056956,0.00253737 -0.00634344,-0.00557413 -0.00288829,-0.0359281 -0.0156426,-0.081061 -0.0484801,-0.104208l0 0.367245z"/>
   <path id="_203610624" class="fil0 str0" d="M1.26272 1.26272l0 -0.367245c-0.0328374,0.0231468 -0.0455918,0.0682797 -0.0484801,0.104208 -0.00064784,0.0081115 0.00112022,0.00751765 -0.00634344,0.00557413 -0.0127004,-0.00334718 -0.0246989,0.000431894 -0.0359821,0.0113372 -0.00553364,0.00535818 -0.00499377,0.00465635 0.000472384,0.00939369 0.0363061,0.0313798 0.0558222,0.0652429 0.0463611,0.131296 -0.00584406,0.040733 -0.0184635,0.0552959 -0.0614639,0.0614639 -0.0660527,0.00946117 -0.0999159,-0.010055 -0.131296,-0.0463611 -0.00473733,-0.00546615 -0.00403551,-0.00600602 -0.00939369,-0.000472384 -0.0109053,0.0112832 -0.0146844,0.0232818 -0.0113372,0.0359821 0.00194352,0.00746366 0.00253737,0.0056956 -0.00557413,0.00634344 -0.0359281,0.00288829 -0.081061,0.0156426 -0.104208,0.0484801l0.367245 0z"/>
   <path id="_203610576" class="fil0 str0" d="M0.634222 1.21378c-0.0527315,-0.0722207 -0.122968,-0.0508825 -0.200169,-0.0759998 -0.0358472,-0.0116611 -0.0351588,-0.0109323 -0.0323245,-0.0453623 0.0048723,-0.0594259 -0.00614099,-0.111172 -0.038371,-0.152688 -0.00996055,-0.0128353 -0.0218106,-0.0246989 -0.034646,-0.034646 -0.0415158,-0.0322301 -0.093262,-0.0432433 -0.152688,-0.038371 -0.03443,0.0028343 -0.0337147,0.00353613 -0.0453623,-0.0323245 -0.0251308,-0.077201 -0.00377907,-0.147438 -0.0759998,-0.200169 0.0722207,-0.0527315 0.0508825,-0.122968 0.0759998,-0.200169 0.0116611,-0.0358472 0.0109323,-0.0351588 0.0453623,-0.0323245 0.0594259,0.0048723 0.111172,-0.00614099 0.152688,-0.038371 0.0128353,-0.00996055 0.0246989,-0.0218106 0.034646,-0.034646 0.0322301,-0.0415158 0.0432433,-0.093262 0.038371,-0.152688 -0.0028343,-0.03443 -0.00352263,-0.0337012 0.0323245,-0.0453623 0.077201,-0.0251173 0.147438,-0.00377907 0.200169,-0.0759998 0.0527315,0.0722207 0.122968,0.050869 0.200169,0.0759998 0.0358607,0.0116476 0.0351588,0.0109323 0.0323245,0.0453623 -0.0048723,0.0594259 0.00614099,0.111172 0.038371,0.152688 0.00996055,0.0128353 0.0218106,0.0246989 0.034646,0.034646 0.0415158,0.0322301 0.093262,0.0432433 0.152688,0.038371 0.03443,-0.0028343 0.0337147,-0.00353613 0.0453623,0.0323245 0.0251308,0.077201 0.00377907,0.147438 0.0759998,0.200169 -0.0722207,0.0527315 -0.0508825,0.122968 -0.0759998,0.200169 -0.0116611,0.0358472 -0.0109323,0.0351588 -0.0453623,0.0323245 -0.0594259,-0.0048723 -0.111172,0.00614099 -0.152688,0.038371 -0.0128353,0.00996055 -0.0246989,0.0218106 -0.034646,0.034646 -0.0322301,0.0415158 -0.0432433,0.093262 -0.038371,0.152688 0.0028343,0.03443 0.00353613,0.0337147 -0.0323245,0.0453623 -0.077201,0.0251308 -0.147438,0.00377907 -0.200169,0.0759998z"/>
   <path id="_203610528" class="fil0 str0" d="M0.634222 1.16636c-0.0578602,-0.0652564 -0.111928,-0.0438102 -0.166994,-0.0582921 -0.0355097,-0.0093397 -0.0297062,-0.0150623 -0.0300301,-0.0478592 -0.000553364,-0.054945 -0.010163,-0.10603 -0.0463071,-0.148045 -0.0103115,-0.011985 -0.0226204,-0.0242805 -0.0346055,-0.0346055 -0.0420151,-0.0361306 -0.0931001,-0.0457537 -0.148045,-0.0463071 -0.0327969,-0.00032392 -0.0385195,0.00547965 -0.0478592,-0.0300301 -0.0144819,-0.0550799 0.00696428,-0.109134 -0.0582921,-0.166994 0.0652564,-0.0578602 0.0438102,-0.111928 0.0582921,-0.166994 0.0093397,-0.0355097 0.0150623,-0.0297062 0.0478592,-0.0300301 0.054945,-0.000553364 0.10603,-0.010163 0.148045,-0.0463071 0.011985,-0.0103115 0.0242805,-0.0226204 0.0346055,-0.0346055 0.0361306,-0.0420151 0.0457537,-0.0931001 0.0463071,-0.148045 0.00032392,-0.0327969 -0.00547965,-0.0385195 0.0300301,-0.0478592 0.0550664,-0.0144819 0.109134,0.00696428 0.166994,-0.0582921 0.0578602,0.0652564 0.111914,0.0438102 0.166994,0.0582921 0.0355097,0.0093397 0.0297062,0.0150623 0.0300301,0.0478592 0.000553364,0.054945 0.010163,0.10603 0.0463071,0.148045 0.0103115,0.011985 0.0226204,0.0242805 0.0346055,0.0346055 0.0420151,0.0361306 0.0931001,0.0457537 0.148045,0.0463071 0.0327969,0.00032392 0.0385195,-0.00547965 0.0478592,0.0300301 0.0144819,0.0550799 -0.00696428,0.109134 0.0582921,0.166994 -0.0652564,0.0578602 -0.0438102,0.111928 -0.0582921,0.166981 -0.0093397,0.0355232 -0.0150623,0.0297197 -0.0478592,0.0300436 -0.054945,0.000553364 -0.10603,0.010163 -0.148045,0.0463071 -0.011985,0.0103115 -0.0242805,0.0226204 -0.0346055,0.0346055 -0.0361306,0.0420151 -0.0457537,0.0931001 -0.0463071,0.148045 -0.00032392,0.0327969 0.00547965,0.0385195 -0.0300436,0.0478592 -0.0550664,0.0144819 -0.109121,-0.00696428 -0.166981,0.0582921z"/>
   <path id="_203610480" class="fil0 str0" d="M1.17962 1.17962c-0.0523131,0.012201 -0.0956509,0.0048588 -0.124682,-0.0489119l0.058886 -0.0168843 0.0168843 -0.058886c0.0537707,0.0290313 0.0611129,0.0723692 0.0489119,0.124682z"/>
   <path id="_203610432" class="fil0 str0" d="M0.0888216 1.17962c-0.012201,-0.0523131 -0.0048588,-0.0956509 0.0489119,-0.124682l0.0168843 0.058886 0.058886 0.0168843c-0.0290313,0.0537707 -0.0723692,0.0611129 -0.124682,0.0489119z"/>
   <path id="_203610384" class="fil0 str0" d="M0.634222 1.12865c-0.016196,-0.0144684 -0.0257247,-0.0333773 -0.0290853,-0.0563891 -0.00226744,-0.0154807 0.000863787,-0.0139691 -0.0105814,-0.00381956 -0.00522321,0.00462936 -0.0105004,0.008098 -0.0158856,0.00967712 -0.0111483,0.00329319 -0.0160475,-8.098e-005 -0.0194622,-0.00992006 -0.0097446,-0.0281541 -0.0012282,-0.0576713 0.0143335,-0.0877014 0.0480482,-0.0625436 0.0467525,-0.0779703 0.0162635,-0.0655803 -0.00827346,0.00337417 -0.0195432,0.0119985 -0.0301921,0.0194892 -0.0156831,0.0110133 -0.0245505,0.016223 -0.0428519,0.00861088 -0.022391,-0.0093532 -0.0521242,-0.0316902 -0.083072,-0.040733 -0.0158586,-0.00462936 -0.0308939,0.00311773 -0.0208659,-0.0152242 0.014185,-0.0259946 0.0357527,-0.0334987 0.0676453,-0.0280056 0.0146304,0.00252388 0.014131,0.00669435 0.0218376,-0.00615448 0.0105949,-0.0176402 0.0251983,-0.0328374 0.0532309,-0.00912375 0.0266154,0.0224855 0.0209603,-0.00866486 0.0286669,-0.0173837 0.00383306,-0.00431894 0.0137396,0.00333368 0.0246314,0.0125384 0.0106894,0.00904277 0.00803052,0.00626246 0.00803052,-0.00639742l0 -0.0226339c0,-0.00819248 0.00164659,-0.00838143 -0.00643791,-0.00948816 -0.0368729,-0.00520972 -0.0697643,-0.022391 -0.0948816,-0.0475083 -0.0251173,-0.0251173 -0.0423121,-0.0580087 -0.0474948,-0.0948816 -0.00113372,-0.00807101 -0.00130918,-0.00643791 -0.00951516,-0.00643791l-0.0226204 0c-0.0126599,0 -0.0154402,-0.00265884 -0.00639742,0.00803052 0.00920473,0.0108918 0.0168573,0.0207984 0.0125384,0.0246314 -0.00871885,0.0077066 -0.0398692,0.00205149 -0.0173702,0.0286669 0.0237002,0.0280326 0.0085029,0.0426495 -0.00913725,0.0532309 -0.0128353,0.0077066 -0.00867836,0.00720722 -0.00615448,0.0218376 0.00549315,0.0318926 -0.002011,0.0534603 -0.0280056,0.0676453 -0.018342,0.010028 -0.0105949,-0.00500727 -0.0152242,-0.0208659 -0.00904277,-0.0309479 -0.0313798,-0.060681 -0.040733,-0.0830855 -0.00761212,-0.018288 -0.00240241,-0.0271553 0.00861088,-0.0428384 0.00749065,-0.0106489 0.016115,-0.0219186 0.0194892,-0.0301921 0.0123899,-0.030489 -0.00303675,-0.0317847 -0.0655803,0.0162635 -0.0300301,0.0155617 -0.0595473,0.0240781 -0.0877014,0.0143335 -0.00983908,-0.00340116 -0.0132132,-0.00831395 -0.00992006,-0.0194622 0.00157911,-0.00538517 0.00504776,-0.0106624 0.00967712,-0.0158856 0.0101495,-0.0114452 0.0116611,-0.00831395 -0.00381956,-0.0105679 -0.0230118,-0.00338767 -0.0419207,-0.0129028 -0.0563891,-0.0290988 0.0144684,-0.016196 0.0333773,-0.0257247 0.0563891,-0.0290853 0.0154807,-0.00226744 0.0139691,0.000863787 0.00381956,-0.0105814 -0.00462936,-0.00522321 -0.008098,-0.0105004 -0.00967712,-0.0158856 -0.00329319,-0.0111483 8.098e-005,-0.0160475 0.00992006,-0.0194622 0.0281541,-0.0097446 0.0576713,-0.0012282 0.0877014,0.0143335 0.0625436,0.0480482 0.0779703,0.0467525 0.0655803,0.0162635 -0.00337417,-0.00827346 -0.0119985,-0.0195432 -0.0194892,-0.0301921 -0.0110133,-0.0156831 -0.016223,-0.0245505 -0.00861088,-0.0428519 0.0093532,-0.022391 0.0316902,-0.0521242 0.040733,-0.083072 0.00462936,-0.0158586 -0.00311773,-0.0308939 0.0152242,-0.0208659 0.0259946,0.014185 0.0334987,0.0357527 0.0280056,0.0676453 -0.00252388,0.0146304 -0.00669435,0.014131 0.00615448,0.0218376 0.0176402,0.0105949 0.0328374,0.0251983 0.00912375,0.0532309 -0.0224855,0.0266154 0.00866486,0.0209603 0.0173837,0.0286669 0.00431894,0.00383306 -0.00333368,0.0137396 -0.0125384,0.0246314 -0.00904277,0.0106894 -0.00626246,0.00803052 0.00639742,0.00803052l0.0226339 0c0.00819248,0 0.00838143,0.00164659 0.00948816,-0.00643791 0.00520972,-0.0368729 0.022391,-0.0697643 0.0475083,-0.0948816 0.0251173,-0.0251173 0.0580087,-0.0423121 0.0948816,-0.0474948 0.00807101,-0.00113372 0.00643791,-0.00130918 0.00643791,-0.00951516l0 -0.0226204c0,-0.0126599 0.00265884,-0.0154402 -0.00803052,-0.00639742 -0.0108918,0.00920473 -0.0207984,0.0168573 -0.0246314,0.0125384 -0.0077066,-0.00871885 -0.00205149,-0.0398692 -0.0286669,-0.0173702 -0.0280326,0.0237002 -0.0426495,0.0085029 -0.0532309,-0.00913725 -0.0077066,-0.0128353 -0.00720722,-0.00867836 -0.0218376,-0.00615448 -0.0318926,0.00549315 -0.0534603,-0.002011 -0.0676453,-0.0280056 -0.010028,-0.018342 0.00500727,-0.0105949 0.0208659,-0.0152242 0.0309479,-0.00904277 0.060681,-0.0313798 0.0830855,-0.040733 0.018288,-0.00761212 0.0271553,-0.00240241 0.0428384,0.00861088 0.0106489,0.00749065 0.0219186,0.016115 0.0301921,0.0194892 0.030489,0.0123899 0.0317847,-0.00303675 -0.0162635,-0.0655803 -0.0155617,-0.0300301 -0.0240781,-0.0595473 -0.0143335,-0.0877014 0.00340116,-0.00983908 0.00831395,-0.0132132 0.0194622,-0.00992006 0.00538517,0.00157911 0.0106624,0.00504776 0.0158856,0.00967712 0.0114452,0.0101495 0.00831395,0.0116611 0.0105679,-0.00381956 0.00337417,-0.0230118 0.0129028,-0.0419207 0.0290988,-0.0563891 0.016196,0.0144684 0.0257112,0.0333773 0.0290853,0.0563891 0.00226744,0.0154807 -0.000863787,0.0139691 0.0105814,0.00381956 0.00522321,-0.00462936 0.0105004,-0.008098 0.0158856,-0.00967712 0.0111483,-0.00329319 0.0160475,8.098e-005 0.0194622,0.00992006 0.0097446,0.0281541 0.0012282,0.0576713 -0.0143335,0.0877014 -0.0480482,0.0625436 -0.0467525,0.0779703 -0.0162635,0.0655803 0.00827346,-0.00337417 0.0195432,-0.0119985 0.0301921,-0.0194892 0.0156831,-0.0110133 0.0245505,-0.016223 0.0428519,-0.00861088 0.022391,0.0093532 0.0521242,0.0316902 0.083072,0.040733 0.0158586,0.00462936 0.0308939,-0.00311773 0.0208659,0.0152242 -0.014185,0.0259946 -0.0357527,0.0334987 -0.0676453,0.0280056 -0.0146304,-0.00252388 -0.014131,-0.00669435 -0.0218376,0.00615448 -0.0105949,0.0176402 -0.0251983,0.0328374 -0.0532309,0.00912375 -0.0266154,-0.0224855 -0.0209603,0.00866486 -0.0286669,0.0173837 -0.00383306,0.00431894 -0.0137396,-0.00333368 -0.0246314,-0.0125384 -0.0106894,-0.00904277 -0.00803052,-0.00626246 -0.00803052,0.00639742l0 0.0226339c0,0.00819248 -0.00164659,0.00838143 0.00643791,0.00948816 0.0368729,0.00520972 0.0697643,0.022391 0.0948816,0.0475083 0.0251173,0.0251173 0.0423121,0.0580087 0.0474948,0.0948816 0.00113372,0.00807101 0.00130918,0.00643791 0.00951516,0.00643791l0.0226204 0c0.0126599,0 0.0154402,0.00265884 0.00639742,-0.00803052 -0.00920473,-0.0108918 -0.0168573,-0.0207984 -0.0125384,-0.0246314 0.00871885,-0.0077066 0.0398692,-0.00205149 0.0173702,-0.0286669 -0.0237002,-0.0280326 -0.0085029,-0.0426495 0.00913725,-0.0532309 0.0128353,-0.0077066 0.00867836,-0.00720722 0.00615448,-0.0218376 -0.00549315,-0.0318926 0.002011,-0.0534603 0.0280056,-0.0676453 0.018342,-0.010028 0.0105949,0.00500727 0.0152242,0.0208659 0.00904277,0.0309479 0.0313798,0.060681 0.040733,0.0830855 0.00761212,0.018288 0.00240241,0.0271553 -0.00861088,0.0428384 -0.00749065,0.0106489 -0.016115,0.0219186 -0.0194892,0.0301921 -0.0123899,0.030489 0.00303675,0.0317847 0.0655803,-0.0162635 0.0300301,-0.0155617 0.0595473,-0.0240781 0.0877014,-0.0143335 0.00983908,0.00340116 0.0132132,0.00831395 0.00992006,0.0194622 -0.00157911,0.00538517 -0.00504776,0.0106624 -0.00967712,0.0158856 -0.0101495,0.0114452 -0.0116611,0.00831395 0.00381956,0.0105679 0.0230118,0.00338767 0.0419207,0.0129028 0.0563891,0.0290988 -0.0144684,0.016196 -0.0333773,0.0257247 -0.0563891,0.0290853 -0.0154807,0.00226744 -0.0139691,-0.000863787 -0.00381956,0.0105814 0.00462936,0.00522321 0.008098,0.0105004 0.00967712,0.0158856 0.00329319,0.0111483 -8.098e-005,0.0160475 -0.00992006,0.0194622 -0.0281541,0.0097446 -0.0576713,0.0012282 -0.0877014,-0.0143335 -0.0625436,-0.0480482 -0.0779703,-0.0467525 -0.0655803,-0.0162635 0.00337417,0.00827346 0.0119985,0.0195432 0.0194892,0.0301921 0.0110133,0.0156831 0.016223,0.0245505 0.00861088,0.0428519 -0.0093532,0.022391 -0.0316902,0.0521242 -0.040733,0.083072 -0.00462936,0.0158586 0.00311773,0.0308939 -0.0152242,0.0208659 -0.0259946,-0.014185 -0.0334987,-0.0357527 -0.0280056,-0.0676453 0.00252388,-0.0146304 0.00669435,-0.014131 -0.00615448,-0.0218376 -0.0176402,-0.0105949 -0.0328374,-0.0251983 -0.00912375,-0.0532309 0.0224855,-0.0266154 -0.00866486,-0.0209603 -0.0173837,-0.0286669 -0.00431894,-0.00383306 0.00333368,-0.0137396 0.0125384,-0.0246314 0.00904277,-0.0106894 0.00626246,-0.00803052 -0.00639742,-0.00803052l-0.0226339 0c-0.00819248,0 -0.00838143,-0.00164659 -0.00948816,0.00643791 -0.00520972,0.0368729 -0.022391,0.0697643 -0.0475083,0.0948816 -0.0251173,0.0251173 -0.0580087,0.0423121 -0.0948816,0.0474948 -0.00807101,0.00113372 -0.00643791,0.00130918 -0.00643791,0.00951516l0 0.0226204c0,0.0126599 -0.00265884,0.0154402 0.00803052,0.00639742 0.0108918,-0.00920473 0.0207984,-0.0168573 0.0246314,-0.0125384 0.0077066,0.00871885 0.00205149,0.0398692 0.0286669,0.0173702 0.0280326,-0.0237002 0.0426495,-0.0085029 0.0532309,0.00913725 0.0077066,0.0128353 0.00720722,0.00867836 0.0218376,0.00615448 0.0318926,-0.00549315 0.0534603,0.002011 0.0676453,0.0280056 0.010028,0.018342 -0.00500727,0.0105949 -0.0208659,0.0152242 -0.0309479,0.00904277 -0.060681,0.0313798 -0.0830855,0.040733 -0.018288,0.00761212 -0.0271553,0.00240241 -0.0428384,-0.00861088 -0.0106489,-0.00749065 -0.0219186,-0.016115 -0.0301921,-0.0194892 -0.030489,-0.0123899 -0.0317847,0.00303675 0.0162635,0.0655803 0.0155617,0.0300301 0.0240781,0.0595473 0.0143335,0.0877014 -0.00340116,0.00983908 -0.00831395,0.0132132 -0.0194622,0.00992006 -0.00538517,-0.00157911 -0.0106624,-0.00504776 -0.0158856,-0.00967712 -0.0114452,-0.0101495 -0.00831395,-0.0116611 -0.0105679,0.00381956 -0.00338767,0.0230118 -0.0129028,0.0419207 -0.0290988,0.0563891z"/>
   <path id="_203610336" class="fil0 str0" d="M0.653077 0.724434l0 0.0383575c0.0564161,-0.00781457 0.1019,-0.0532984 0.109714,-0.109714l-0.0383575 0c-0.00724771,0.0354828 -0.0358742,0.0641092 -0.0713569,0.0713569z"/>
   <path id="_203610288" class="fil0 str0" d="M0.615367 0.54401l0 -0.0383575c-0.0564161,0.00781457 -0.1019,0.0532984 -0.109714,0.109714l0.0383575 0c0.00724771,-0.0354828 0.0358742,-0.0641092 0.0713569,-0.0713569z"/>
   <path id="_203610240" class="fil0 str0" d="M0.653077 0.505653l0 0.0383575c0.0354828,0.00724771 0.0641092,0.0358742 0.0713569,0.0713569l0.0383575 0c-0.00781457,-0.0564161 -0.0532984,-0.1019 -0.109714,-0.109714z"/>
   <path id="_203610192" class="fil0 str0" d="M0.615367 0.762792l0 -0.0383575c-0.0354828,-0.00724771 -0.0641092,-0.0358742 -0.0713569,-0.0713569l-0.0383575 0c0.00781457,0.0564161 0.0532984,0.1019 0.109714,0.109714z"/>
   <path id="_203610144" class="fil0 str0" d="M0.0888216 0.0888216c0.0523131,-0.012201 0.0956509,-0.0048588 0.124682,0.0489119l-0.058886 0.0168843 -0.0168843 0.058886c-0.0537707,-0.0290313 -0.0611129,-0.0723692 -0.0489119,-0.124682z"/>
   <path id="_203610096" class="fil0 str0" d="M1.26272 0.584123c-0.0718428,0.00615448 -0.0359281,-0.122104 -0.118541,-0.252374 -0.0189088,-0.0298142 -0.0129838,-0.0256842 -0.0373453,-0.0065054 -0.0377502,0.0297467 -0.095219,0.0300166 -0.135007,-0.00168708 -0.00948816,-0.00754464 -0.0193947,-0.0174512 -0.0269394,-0.0269394 -0.0317037,-0.0397882 -0.0314338,-0.097257 -0.00168708,-0.135007 0.0191788,-0.0243615 0.0233088,-0.0184365 -0.0065054,-0.0373453 -0.13027,-0.0826131 -0.258529,-0.0466985 -0.252374,-0.118541l0.5784 0 0 0.5784z"/>
   <path id="_203610048" class="fil0 str0" d="M1.26272 0.461559c-0.0276412,-0.00921823 -0.0420421,-0.0578063 -0.0723287,-0.120849 -0.0149273,-0.0310424 -0.0367245,-0.0712085 -0.0654589,-0.0918719 -0.00780108,-0.00560112 -0.00844892,0.00182205 -0.0193407,0.0166819 -0.0297197,0.040571 -0.0622062,0.0492224 -0.101279,0.0271283 -0.0137261,-0.00776059 -0.0207579,-0.0147924 -0.0285185,-0.0285185 -0.0220941,-0.0390729 -0.0134427,-0.0715594 0.0271283,-0.101279 0.0148598,-0.0108918 0.022283,-0.0115397 0.0166819,-0.0193407 -0.0206634,-0.0287344 -0.0608295,-0.0505315 -0.0918719,-0.0654589 -0.063043,-0.0302865 -0.111631,-0.0446875 -0.120849,-0.0723287l0.455837 0 0 0.455837z"/>
   <path id="_203610000" class="fil0 str0" d="M1.17962 0.0888216c0.012201,0.0523131 0.0048588,0.0956509 -0.0489119,0.124682l-0.0168843 -0.058886 -0.058886 -0.0168843c0.0290313,-0.0537707 0.0723692,-0.0611129 0.124682,-0.0489119z"/>
   <path id="_203609952" class="fil0 str0" d="M1.26272 0.00572259l-0.367245 0c0.0231468,0.0328374 0.0682797,0.0455918 0.104208,0.0484801 0.0081115,0.00064784 0.00751765,-0.00112022 0.00557413,0.00634344 -0.00334718,0.0127004 0.000431894,0.0246989 0.0113372,0.0359821 0.00535818,0.00553364 0.00465635,0.00499377 0.00939369,-0.000472384 0.0313798,-0.0363061 0.0652429,-0.0558222 0.131296,-0.0463611 0.040733,0.00584406 0.0552959,0.0184635 0.0614639,0.0614639 0.00946117,0.0660527 -0.010055,0.0999159 -0.0463611,0.131296 -0.00546615,0.00473733 -0.00600602,0.00403551 -0.000472384,0.00939369 0.0112832,0.0109053 0.0232818,0.0146844 0.0359821,0.0113372 0.00746366,-0.00194352 0.0056956,-0.00253737 0.00634344,0.00557413 0.00288829,0.0359281 0.0156426,0.081061 0.0484801,0.104208l0 -0.367245z"/>
  </g>
 </g>
</svg>
