<?xml version="1.0" encoding="UTF-8"?>
<!DOCTYPE svg PUBLIC "-//W3C//DTD SVG 1.1//EN" "http://www.w3.org/Graphics/SVG/1.1/DTD/svg11.dtd">
<!-- Creator: CorelDRAW -->
<svg xmlns="http://www.w3.org/2000/svg" xml:space="preserve" width="111px" height="111px" style="shape-rendering:geometricPrecision; text-rendering:geometricPrecision; image-rendering:optimizeQuality; fill-rule:evenodd; clip-rule:evenodd"
viewBox="0 0 6.57635 6.57635"
 xmlns:xlink="http://www.w3.org/1999/xlink">
 <defs>
  <style type="text/css">
   <![CDATA[
    .str0 {stroke:#4C4C4C;stroke-width:0.0592698}
    .fil0 {fill:none}
   ]]>
  </style>
 </defs>
 <g id="Capa_x0020_1">
  <metadata id="CorelCorpID_0Corel-Layer"/>
  <g id="_133846000">
   <rect id="_202107584" class="fil0 str0" x="0.0296801" y="0.0296801" width="6.51702" height="6.51702"/>
   <path id="_202107536" class="fil0 str0" d="M3.30168 6.28595c0.0222524,-0.0797727 -0.0256812,-0.134284 0.435671,-0.494591 0.253383,-0.197892 0.412439,-0.549942 0.367934,-0.863435 0.189845,0.106784 0.370244,0.110562 0.569605,0.0744546 0.199502,-0.0361776 0.398584,0.0519223 0.508586,0.0671771 -0.0328188,-0.132185 -0.143031,-0.260381 -0.119239,-0.399494 0.0510825,-0.298518 -0.02925,-0.522511 -0.208949,-0.667222 0.333156,-0.0237919 0.58577,-0.099576 0.816481,-0.317132 0.139043,-0.130995 0.40859,-0.26213 0.61418,-0.401243 -0.20559,-0.139112 -0.475138,-0.303766 -0.61418,-0.434971 -0.230641,-0.217486 -0.483395,-0.2932 -0.816481,-0.317062 0.179699,-0.144711 0.260031,-0.368704 0.208949,-0.667222 -0.0237919,-0.138973 0.0864205,-0.267379 0.119239,-0.399494 -0.110002,0.0153248 -0.309084,0.103425 -0.508586,0.067247 -0.199362,-0.0361077 -0.37976,-0.032329 -0.569605,0.0743146 0.0445048,-0.313493 -0.114551,-0.665543 -0.367934,-0.863365 -0.461352,-0.360237 -0.424755,-0.373812 -0.447077,-0.453585 -0.0223224,0.0797727 0.0107063,0.0933481 -0.450576,0.453585 -0.253313,0.197892 -0.412509,0.549942 -0.368004,0.863365 -0.189845,-0.106644 -0.370174,-0.110422 -0.569535,-0.0743146 -0.199502,0.0361776 -0.400263,-0.0536717 -0.510266,-0.0689265 0.0328188,0.132185 0.144711,0.2622 0.120919,0.401173 -0.0510825,0.298518 0.02925,0.522511 0.208879,0.667222 -0.333086,0.0238618 -0.58577,0.099576 -0.816481,0.317062 -0.139043,0.131135 -0.40922,0.281724 -0.61481,0.420836 0.20559,0.139112 0.451836,0.286972 0.590878,0.418037 0.230711,0.217626 0.483395,0.29327 0.816481,0.317132 -0.179699,0.144781 -0.260031,0.368704 -0.208949,0.667292 0.0237919,0.138973 -0.0864205,0.267309 -0.119169,0.399424 0.110002,-0.0153248 0.309014,-0.103425 0.508586,-0.067247 0.199292,0.0361077 0.37969,0.032329 0.569535,-0.0743146 -0.0445048,0.313493 0.114621,0.665473 0.368004,0.863365 0.461282,0.360307 0.463592,0.412159 0.485914,0.491862l0 6.99761e-005z"/>
   <path id="_202107488" class="fil0 str0" d="M3.28769 4.57532c0.208739,-0.00510825 0.393126,-0.171581 0.399144,-0.425595 0.295369,0.41006 0.923405,-0.0508026 0.474648,-0.502778 0.374372,-0.0359677 0.399494,-0.17571 0.413839,-0.362056 -0.0143451,-0.186346 -0.0394665,-0.326089 -0.413839,-0.362056 0.448757,-0.451976 -0.179279,-0.912838 -0.474648,-0.502778 -0.00601794,-0.254013 -0.190405,-0.413909 -0.399144,-0.419017 -0.208809,0.00510825 -0.392216,0.165004 -0.398234,0.419017 -0.295299,-0.41006 -0.923335,0.0508026 -0.474578,0.502778 -0.374442,0.0359677 -0.399494,0.17571 -0.413769,0.362056 0.0143451,0.186346 0.0393266,0.326089 0.413769,0.362056 -0.448757,0.451976 0.179279,0.912838 0.474578,0.502778 0.00601794,0.254013 0.189425,0.420486 0.398234,0.425595z"/>
   <path id="_202107440" class="fil0 str0" d="M3.64659 3.28818c0,-0.197962 -0.160455,-0.358418 -0.358418,-0.358418 -0.197892,0 -0.358418,0.160455 -0.358418,0.358418 0,0.197892 0.160525,0.358418 0.358418,0.358418 0.197962,0 0.358418,-0.160525 0.358418,-0.358418z"/>
   <path id="_202107392" class="fil0 str0" d="M1.32633 0.456034c0.535527,0.151218 0.969029,0.0482835 1.25327,-0.426364l-2.54993 0 0 2.54993c0.474578,-0.284243 0.577583,-0.717675 0.426364,-1.2532 0.549942,0.0980365 0.968049,-0.32217 0.870293,-0.870363z"/>
   <path id="_202107344" class="fil0 str0" d="M1.23536 0.87687c0,-0.197962 -0.160525,-0.358418 -0.358488,-0.358418 -0.197892,0 -0.358418,0.160455 -0.358418,0.358418 0,0.197892 0.160525,0.358418 0.358418,0.358418 0.197962,0 0.358488,-0.160525 0.358488,-0.358418z"/>
   <path id="_202107296" class="fil0 str0" d="M0.456034 5.25003c0.151218,-0.535527 0.0482835,-0.969029 -0.426364,-1.25327l0 2.55 2.54993 0c-0.284243,-0.474718 -0.717675,-0.577653 -1.2532,-0.426434 0.0980365,-0.549942 -0.32217,-0.968049 -0.870363,-0.870293z"/>
   <path id="_202107248" class="fil0 str0" d="M5.25003 6.12032c-0.535527,-0.151288 -0.969029,-0.0482835 -1.25327,0.426294l2.55 0 0 -2.54986c-0.474718,0.284243 -0.577653,0.717675 -0.426434,1.25313 -0.549942,-0.0979665 -0.968049,0.32217 -0.870293,0.870433z"/>
   <path id="_202107200" class="fil0 str0" d="M6.12032 1.32633c-0.151288,0.535527 -0.0482835,0.969029 0.426294,1.25327l0 -2.54993 -2.54986 0c0.284243,0.474578 0.717675,0.577583 1.25313,0.426364 -0.0979665,0.549942 0.32217,0.968049 0.870433,0.870293z"/>
   <path id="_202107152" class="fil0 str0" d="M0.87687 5.341c-0.197892,0 -0.358418,0.160525 -0.358418,0.358418 0,0.197962 0.160525,0.358418 0.358418,0.358418 0.197892,0 0.358418,-0.160455 0.358418,-0.358418 0,-0.197892 -0.160525,-0.358418 -0.358418,-0.358418z"/>
   <path id="_202107104" class="fil0 str0" d="M6.0579 5.69948c0,-0.197962 -0.160525,-0.358418 -0.358488,-0.358418 -0.197892,0 -0.358418,0.160455 -0.358418,0.358418 0,0.197892 0.160525,0.358418 0.358418,0.358418 0.197962,0 0.358488,-0.160525 0.358488,-0.358418z"/>
   <path id="_202107056" class="fil0 str0" d="M5.69948 1.23529c0.197962,0 0.358418,-0.160455 0.358418,-0.358418 0,-0.197892 -0.160455,-0.358418 -0.358418,-0.358418 -0.197892,0 -0.358418,0.160525 -0.358418,0.358418 0,0.197962 0.160525,0.358418 0.358418,0.358418z"/>
   <path id="_202107008" class="fil0 str0" d="M0.518313 6.54668l-0.488643 0 0 -0.488713c0.269828,0 0.488643,0.218815 0.488643,0.488713z"/>
   <path id="_202106960" class="fil0 str0" d="M6.54668 6.05797l0 0.488713 -0.488713 0c0,-0.269898 0.218815,-0.488713 0.488713,-0.488713z"/>
   <path id="_202106912" class="fil0 str0" d="M6.05797 0.0296699l0.488713 0 0 0.488643c-0.269898,0 -0.488713,-0.218815 -0.488713,-0.488643z"/>
   <path id="_202106864" class="fil0 str0" d="M0.0296699 0.518313l0 -0.488643 0.488643 0c0,0.269828 -0.218815,0.488643 -0.488643,0.488643z"/>
  </g>
 </g>
</svg>
