<?xml version="1.0" encoding="UTF-8"?>
<!DOCTYPE svg PUBLIC "-//W3C//DTD SVG 1.1//EN" "http://www.w3.org/Graphics/SVG/1.1/DTD/svg11.dtd">
<!-- Creator: CorelDRAW -->
<svg xmlns="http://www.w3.org/2000/svg" xml:space="preserve" width="110px" height="110px" style="shape-rendering:geometricPrecision; text-rendering:geometricPrecision; image-rendering:optimizeQuality; fill-rule:evenodd; clip-rule:evenodd"
viewBox="0 0 0.333254 0.333254"
 xmlns:xlink="http://www.w3.org/1999/xlink">
 <defs>
  <style type="text/css">
   <![CDATA[
    .str0 {stroke:#4C4C4C;stroke-width:0.00300347}
    .fil0 {fill:none}
   ]]>
  </style>
 </defs>
 <g id="Plan_x0020_1">
  <metadata id="CorelCorpID_0Corel-Layer"/>
  <g id="_221641904">
   <rect id="_221641760" class="fil0 str0" x="0.00150232" y="0.00150173" width="0.33025" height="0.33025"/>
   <path id="_221641688" class="fil0 str0" d="M0.166627 0.311031c-0.00834376,-0.00828702 -0.0196591,-0.0118543 -0.0354175,-0.0111983 -0.00715584,0.000297865 -0.00518072,0.000386515 -0.00796079,-0.00601048 -0.00615941,-0.0141486 -0.0217157,-0.0234958 -0.0433748,-0.0214888 -0.00424812,0.000393607 -0.00397153,0.00091487 -0.00669486,-0.00239001 -0.0058651,-0.00712747 -0.0117692,-0.0123046 -0.0205137,-0.01395 -0.00624807,-0.00117727 -0.00511689,0.000219852 -0.00293609,-0.0059502 0.0057268,-0.0162017 0.00548922,-0.0389316 -0.0164641,-0.0489314 -0.00278716,-0.00126947 -0.00291836,-0.000588637 -0.00216306,-0.00358501 0.00291836,-0.0115564 0.00174464,-0.0222725 -0.0088792,-0.0308999 0.00828702,-0.00834021 0.0118543,-0.0196591 0.0111983,-0.0354175 -0.000297865,-0.00715584 -0.000386515,-0.00518072 0.00601048,-0.00796079 0.0141486,-0.00615941 0.0234958,-0.0217157 0.0214888,-0.0433748 -0.000393607,-0.00424812 -0.00091487,-0.00397153 0.00239001,-0.00669486 0.00712747,-0.0058651 0.0123046,-0.0117692 0.01395,-0.0205137 0.00117727,-0.00624807 -0.000219852,-0.00511689 0.0059502,-0.00293609 0.0162017,0.0057268 0.0389316,0.00548922 0.0489314,-0.0164641 0.00126947,-0.00278716 0.000585091,-0.00292191 0.00358501,-0.00216306 0.01156,0.00291836 0.0222725,0.00174464 0.0308999,-0.0088792 0.00862744,0.0106238 0.0193399,0.0117976 0.0308999,0.0088792 0.00299992,-0.000758846 0.00231554,-0.000624097 0.00358501,0.00216306 0.00999974,0.0219533 0.0327296,0.0221909 0.0489314,0.0164641 0.00617005,-0.00218079 0.00477293,-0.00331197 0.0059502,0.00293609 0.00164535,0.00874445 0.00682252,0.0146486 0.01395,0.0205137 0.00330488,0.00272333 0.00278362,0.00244675 0.00239001,0.00669486 -0.00200704,0.021659 0.00734024,0.0372153 0.0214888,0.0433748 0.006397,0.00278007 0.00630835,0.000804944 0.00601048,0.00796079 -0.000656011,0.0157585 0.00291127,0.0270773 0.0111983,0.0354175 -0.0106238,0.00862744 -0.0117976,0.0193435 -0.0088792,0.0308999 0.0007553,0.00299638 0.000624097,0.00231554 -0.00216306,0.00358501 -0.0219533,0.00999974 -0.0221909,0.0327296 -0.0164641,0.0489314 0.00218079,0.00617005 0.00331197,0.00477293 -0.00293609,0.0059502 -0.00874445,0.00164535 -0.0146486,0.00682252 -0.0205137,0.01395 -0.00272333,0.00330488 -0.00244675,0.00278362 -0.00669486,0.00239001 -0.021659,-0.00200704 -0.0372153,0.00734024 -0.0433748,0.0214888 -0.00278007,0.006397 -0.000804944,0.00630835 -0.00796079,0.00601048 -0.0157585,-0.000656011 -0.0270738,0.00291127 -0.0354175,0.0111983z"/>
   <path id="_221641616" class="fil0 str0" d="M0.291751 0.0740513c-0.0122373,0.0178967 -0.0039538,0.0388997 0.0147549,0.0398607 0.0280418,0.00140422 0.0216767,-0.0395805 -0.00443606,-0.0264107 -0.00135457,-0.0054644 0.00991109,-0.0142159 0.0166698,-0.0253362 0.00601403,-0.00989691 0.00588637,-0.0206342 0.00231909,-0.0314318 -0.00434386,-0.0131486 -0.0142301,-0.0214853 -0.0296659,-0.0230951 -0.0102657,-0.00107089 -0.0204427,0.000499987 -0.0295134,0.0055495 -0.0079076,0.0044006 -0.012872,0.00973379 -0.0224001,0.0110565 0.00157088,-0.0168719 -0.0124181,-0.0190952 -0.0201449,-0.0135032 -0.00631544,0.00457435 -0.0062197,0.0150847 -0.00210987,0.0211094 0.00445379,0.00652465 0.0137585,0.0101806 0.0226306,0.00791823 0.0072374,-0.00184392 0.0153329,-0.00781895 0.0212725,-0.0119642 0.00262759,-0.00182974 0.00513462,-0.00365948 0.0076842,-0.005241 0.0120954,-0.0075069 0.0318112,-0.00559915 0.0386905,0.00813099 0.00251767,0.00502469 0.00275525,0.0110352 0.000989336,0.0156237 -0.00157443,0.00409209 -0.00576935,0.00773384 -0.0102551,0.00809908 -0.00241483,0.00019503 -0.0050176,-0.000453889 -0.00691471,-0.0021737 -0.00173754,-0.00157443 -0.00201059,-0.00185102 -6.02821e-005,-0.00276943 0.0167088,-0.00786504 0.00662394,-0.022854 -0.00610622,-0.0220101 -0.00699273,0.000464527 -0.0135032,0.00593247 -0.0159641,0.0123791 -0.00414883,0.0108685 0.00478002,0.0221484 0.0136557,0.0272121 0.00849623,0.00484739 0.0141628,-0.000695017 0.00890402,0.00699627z"/>
   <path id="_221641472" class="fil0 str0" d="M0.0415025 0.0740513c0.0122373,0.0178967 0.0039538,0.0388997 -0.0147549,0.0398607 -0.0280418,0.00140422 -0.0216767,-0.0395805 0.00443606,-0.0264107 0.00135457,-0.0054644 -0.00991109,-0.0142159 -0.0166698,-0.0253362 -0.00601403,-0.00989691 -0.00588637,-0.0206342 -0.00231909,-0.0314318 0.00434386,-0.0131486 0.0142301,-0.0214853 0.0296659,-0.0230951 0.0102657,-0.00107089 0.0204427,0.000499987 0.0295134,0.0055495 0.0079076,0.0044006 0.012872,0.00973379 0.0224001,0.0110565 -0.00157088,-0.0168719 0.0124181,-0.0190952 0.0201449,-0.0135032 0.00631544,0.00457435 0.0062197,0.0150847 0.00210987,0.0211094 -0.00445379,0.00652465 -0.0137585,0.0101806 -0.0226306,0.00791823 -0.0072374,-0.00184392 -0.0153329,-0.00781895 -0.0212725,-0.0119642 -0.00262759,-0.00182974 -0.00513462,-0.00365948 -0.0076842,-0.005241 -0.0120954,-0.0075069 -0.0318112,-0.00559915 -0.0386905,0.00813099 -0.00251767,0.00502469 -0.00275525,0.0110352 -0.000989336,0.0156237 0.00157443,0.00409209 0.00576935,0.00773384 0.0102551,0.00809908 0.00241483,0.00019503 0.0050176,-0.000453889 0.00691471,-0.0021737 0.00173754,-0.00157443 0.00201059,-0.00185102 6.02821e-005,-0.00276943 -0.0167088,-0.00786504 -0.00662394,-0.022854 0.00610622,-0.0220101 0.00699273,0.000464527 0.0135032,0.00593247 0.0159641,0.0123791 0.00414883,0.0108685 -0.00478002,0.0221484 -0.0136557,0.0272121 -0.00849623,0.00484739 -0.0141628,-0.000695017 -0.00890402,0.00699627z"/>
   <path id="_221641256" class="fil0 str0" d="M0.0740513 0.291751c0.0178967,-0.0122373 0.0388997,-0.0039538 0.0398607,0.0147549 0.00140422,0.0280418 -0.0395805,0.0216767 -0.0264107,-0.00443606 -0.0054644,-0.00135457 -0.0142159,0.00991109 -0.0253362,0.0166698 -0.00989691,0.00601403 -0.0206342,0.00588637 -0.0314318,0.00231909 -0.0131486,-0.00434386 -0.0214853,-0.0142301 -0.0230951,-0.0296659 -0.00107089,-0.0102657 0.000499987,-0.0204427 0.0055495,-0.0295134 0.0044006,-0.0079076 0.00973379,-0.012872 0.0110565,-0.0224001 -0.0168719,0.00157088 -0.0190952,-0.0124181 -0.0135032,-0.0201449 0.00457435,-0.00631544 0.0150847,-0.0062197 0.0211094,-0.00210987 0.00652465,0.00445379 0.0101806,0.0137585 0.00791823,0.0226306 -0.00184392,0.0072374 -0.00781895,0.0153329 -0.0119642,0.0212725 -0.00182974,0.00262759 -0.00365948,0.00513462 -0.005241,0.0076842 -0.0075069,0.0120954 -0.00559915,0.0318112 0.00813099,0.0386905 0.00502469,0.00251767 0.0110352,0.00275525 0.0156237,0.000989336 0.00409209,-0.00157443 0.00773384,-0.00576935 0.00809908,-0.0102551 0.00019503,-0.00241483 -0.000453889,-0.0050176 -0.0021737,-0.00691471 -0.00157443,-0.00173754 -0.00185102,-0.00201059 -0.00276943,-6.02821e-005 -0.00786504,0.0167088 -0.022854,0.00662394 -0.0220101,-0.00610622 0.000464527,-0.00699273 0.00593247,-0.0135032 0.0123791,-0.0159641 0.0108685,-0.00414883 0.0221484,0.00478002 0.0272121,0.0136557 0.00484739,0.00849623 -0.000695017,0.0141628 0.00699627,0.00890402z"/>
   <path id="_221641184" class="fil0 str0" d="M0.259203 0.291751c-0.0178967,-0.0122373 -0.0388997,-0.0039538 -0.0398607,0.0147549 -0.00140422,0.0280418 0.0395805,0.0216767 0.0264107,-0.00443606 0.0054644,-0.00135457 0.0142159,0.00991109 0.0253362,0.0166698 0.00989691,0.00601403 0.0206342,0.00588637 0.0314318,0.00231909 0.0131486,-0.00434386 0.0214853,-0.0142301 0.0230951,-0.0296659 0.00107089,-0.0102657 -0.000499987,-0.0204427 -0.0055495,-0.0295134 -0.0044006,-0.0079076 -0.00973379,-0.012872 -0.0110565,-0.0224001 0.0168719,0.00157088 0.0190952,-0.0124181 0.0135032,-0.0201449 -0.00457435,-0.00631544 -0.0150847,-0.0062197 -0.0211094,-0.00210987 -0.00652465,0.00445379 -0.0101806,0.0137585 -0.00791823,0.0226306 0.00184392,0.0072374 0.00781895,0.0153329 0.0119642,0.0212725 0.00182974,0.00262759 0.00365948,0.00513462 0.005241,0.0076842 0.0075069,0.0120954 0.00559915,0.0318112 -0.00813099,0.0386905 -0.00502469,0.00251767 -0.0110352,0.00275525 -0.0156237,0.000989336 -0.00409209,-0.00157443 -0.00773384,-0.00576935 -0.00809908,-0.0102551 -0.00019503,-0.00241483 0.000453889,-0.0050176 0.0021737,-0.00691471 0.00157443,-0.00173754 0.00185102,-0.00201059 0.00276943,-6.02821e-005 0.00786504,0.0167088 0.022854,0.00662394 0.0220101,-0.00610622 -0.000464527,-0.00699273 -0.00593247,-0.0135032 -0.0123791,-0.0159641 -0.0108685,-0.00414883 -0.0221484,0.00478002 -0.0272121,0.0136557 -0.00484739,0.00849623 0.000695017,0.0141628 -0.00699627,0.00890402z"/>
   <path id="_221641112" class="fil0 str0" d="M0.33175 0.176712c-0.00888275,0 -0.0160847,0.00735442 -0.0160847,0.0164251 0,0.00906714 0.00720194,0.0164216 0.0160847,0.0164216l0 -0.0328467z"/>
   <path id="_221641040" class="fil0 str0" d="M0.176712 0.00150351c0,0.00888275 0.00735442,0.0160847 0.0164251,0.0160847 0.00906714,0 0.0164216,-0.00720194 0.0164216,-0.0160847l-0.0328467 0z"/>
   <path id="_221640968" class="fil0 str0" d="M0.176712 0.33175c0,-0.00888275 0.00735442,-0.0160847 0.0164251,-0.0160847 0.00906714,0 0.0164216,0.00720194 0.0164216,0.0160847l-0.0328467 0z"/>
   <path id="_221640896" class="fil0 str0" d="M0.00150351 0.156542c0.00888275,0 0.0160847,-0.00735442 0.0160847,-0.0164251 0,-0.00906714 -0.00720194,-0.0164216 -0.0160847,-0.0164216l0 0.0328467z"/>
   <path id="_221640824" class="fil0 str0" d="M0.00150351 0.176712c0.00888275,0 0.0160847,0.00735442 0.0160847,0.0164251 0,0.00906714 -0.00720194,0.0164216 -0.0160847,0.0164216l0 -0.0328467z"/>
   <path id="_221640752" class="fil0 str0" d="M0.00150351 0.209558c0.0088792,0 0.0160847,-0.00735442 0.0160847,-0.0164216 0,-0.00907069 -0.00720549,-0.0164251 -0.0160847,-0.0164251l0 0.0328467z"/>
   <path id="_221640680" class="fil0 str0" d="M0.33175 0.123695c-0.0088792,0 -0.0160847,0.00735442 -0.0160847,0.0164216 0,0.00907069 0.00720549,0.0164251 0.0160847,0.0164251l0 -0.0328467z"/>
   <path id="_221640608" class="fil0 str0" d="M0.33175 0.209558c-0.0088792,0 -0.0160847,-0.00735442 -0.0160847,-0.0164216 0,-0.00907069 0.00720549,-0.0164251 0.0160847,-0.0164251l0 0.0328467z"/>
   <path id="_221640536" class="fil0 str0" d="M0.123695 0.00150351c0,0.0088792 0.00735442,0.0160847 0.0164216,0.0160847 0.00907069,0 0.0164251,-0.00720549 0.0164251,-0.0160847l-0.0328467 0z"/>
   <path id="_221640464" class="fil0 str0" d="M0.123695 0.33175c0,-0.0088792 0.00735442,-0.0160847 0.0164216,-0.0160847 0.00907069,0 0.0164251,0.00720549 0.0164251,0.0160847l-0.0328467 0z"/>
  </g>
 </g>
</svg>
