<?xml version="1.0" encoding="UTF-8"?>
<!DOCTYPE svg PUBLIC "-//W3C//DTD SVG 1.1//EN" "http://www.w3.org/Graphics/SVG/1.1/DTD/svg11.dtd">
<!-- Creator: CorelDRAW -->
<svg xmlns="http://www.w3.org/2000/svg" xml:space="preserve" width="110px" height="110px" style="shape-rendering:geometricPrecision; text-rendering:geometricPrecision; image-rendering:optimizeQuality; fill-rule:evenodd; clip-rule:evenodd"
viewBox="0 0 1.19653 1.19653"
 xmlns:xlink="http://www.w3.org/1999/xlink">
 <defs>
  <style type="text/css">
   <![CDATA[
    .str0 {stroke:#4C4C4C;stroke-width:0.0107836}
    .fil0 {fill:none}
   ]]>
  </style>
 </defs>
 <g id="Capa_x0020_1">
  <metadata id="CorelCorpID_0Corel-Layer"/>
  <g id="_197911056">
   <polygon id="_196240272" class="fil0 str0" points="1.19069,0.00539814 1.19069,1.19113 0.00589467,1.19113 0.00589467,0.00539814 "/>
   <polygon id="_196240224" class="fil0 str0" points="0.00544907,0.00588194 1.19113,0.00588194 1.19113,1.19071 0.00544907,1.19071 "/>
   <polygon id="_196240176" class="fil0 str0" points="0.00588194,1.19113 0.00588194,0.00539814 1.19067,0.00539814 1.19067,1.19113 "/>
   <polygon id="_196240128" class="fil0 str0" points="1.19108,1.19069 0.00539814,1.19069 0.00539814,0.00585648 1.19108,0.00585648 "/>
   <path id="_196240080" class="fil0 str0" d="M0.597997 0.032147c-0.0760833,0.00356481 -0.139817,0.0103889 -0.199757,0.0453622 -0.0295879,0.0172639 -0.0573171,0.0401932 -0.0772546,0.0682789 -0.0254375,0.0358264 -0.0341076,0.0752684 -0.0167037,0.107912 0.0118657,0.0222419 0.0347824,0.0335092 0.0482777,0.0544525 0.0256921,0.0399132 -0.00462152,0.0702904 -0.0445347,0.0445601 -0.0209305,-0.0134954 -0.0321979,-0.0364247 -0.054427,-0.0482905 -0.0326308,-0.0174167 -0.0720728,-0.00874652 -0.107874,0.0167037 -0.0280729,0.0199502 -0.0510023,0.0476921 -0.0682534,0.0772928 -0.0349606,0.0599525 -0.0412372,0.123763 -0.0447893,0.199884 0.00355208,0.076096 0.00987962,0.14011 0.0448657,0.200062 0.0172511,0.0295752 0.0401932,0.0573171 0.0682789,0.0772546 0.0358136,0.0254375 0.0752684,0.0340949 0.107912,0.016691 0.0222419,-0.011853 0.0335092,-0.0347824 0.0544398,-0.048265 0.0399132,-0.0257048 0.0702904,0.00460879 0.0445601,0.0445347 -0.0134826,0.0209305 -0.0364247,0.0321852 -0.0482905,0.054427 -0.0174039,0.0326308 -0.00874652,0.0720601 0.0167037,0.107874 0.0199502,0.0280729 0.0476921,0.0510023 0.0772928,0.0682534 0.0599525,0.0349606 0.123903,0.0408044 0.200024,0.0443437 0.076096,-0.00355208 0.139932,-0.00987962 0.199859,-0.044853 0.0295879,-0.0172511 0.0573171,-0.0401932 0.0772546,-0.0682789 0.0254375,-0.0358264 0.0341076,-0.0752684 0.0167037,-0.107912 -0.0118657,-0.0222419 -0.0347824,-0.0335092 -0.0482777,-0.0544525 -0.0256921,-0.0399132 0.00462152,-0.0702904 0.0445347,-0.0445601 0.0209433,0.0134826 0.0321979,0.0364247 0.054427,0.0482905 0.0326308,0.0174039 0.0720728,0.00874652 0.107874,-0.0167037 0.0280729,-0.0199502 0.0510023,-0.0476921 0.0682534,-0.0772928 0.0349606,-0.0599525 0.0412372,-0.123763 0.0447893,-0.199884 -0.00355208,-0.076096 -0.00987962,-0.14011 -0.044853,-0.200062 -0.0172639,-0.0295752 -0.040206,-0.0573171 -0.0682916,-0.0772546 -0.0358136,-0.0254375 -0.0752684,-0.0340949 -0.107912,-0.016691 -0.0222419,0.011853 -0.0335092,0.0347824 -0.0544398,0.048265 -0.0399132,0.0256921 -0.0702904,-0.00460879 -0.0445601,-0.0445347 0.0134826,-0.0209305 0.0364247,-0.0321852 0.0482905,-0.054427 0.0174039,-0.0326308 0.00874652,-0.0720601 -0.0167037,-0.107874 -0.0199502,-0.0280729 -0.0476921,-0.0510023 -0.0772928,-0.0682534 -0.0599525,-0.0349606 -0.124005,-0.0413009 -0.200126,-0.044853zm-0.000585648 0.0153287c-0.0504294,0.0106562 -0.0698321,0.0538541 -0.0780566,0.046368l-0.0261122 -0.0237697c-0.0445347,0.00977777 -0.0823344,0.0367303 -0.109491,0.0674131 -0.0180914,0.020434 -0.0437708,0.0527719 -0.0424467,0.0813923 0.00179514,0.0388946 0.0436435,0.0647777 0.0726585,0.0250937 0.0352152,0.00933217 0.0271053,0.0527592 -0.00646759,0.0600034 -0.021669,0.00465972 -0.0181041,-0.0036412 -0.00819907,0.020294 0.0228021,0.0551273 -0.0199375,0.0980705 -0.0751666,0.0751921 -0.0239224,-0.00990508 -0.0156215,-0.0134572 -0.0202812,0.0082118 -0.00724421,0.0335856 -0.0506585,0.0416956 -0.0599907,0.00646759 0.0396713,-0.029015 0.0138009,-0.0708888 -0.0250683,-0.072684 -0.0286203,-0.00132407 -0.0609328,0.024368 -0.0813541,0.0424722 -0.0306701,0.027169 -0.0576226,0.0649687 -0.0673877,0.109529l0.0237569 0.026125c0.00313194,0.00346296 -0.0027118,0.00892476 -0.0113437,0.017875 -0.0440891,0.045706 -0.0406007,0.0780184 0.00193518,0.12333 0.00758796,0.00808448 0.0124005,0.0132407 0.00948494,0.0164491l-0.0237697 0.0261122c0.00977777,0.0445474 0.0367303,0.0823344 0.0674131,0.109491 0.020434,0.0180914 0.0527592,0.0437708 0.0813923,0.0424467 0.0388819,-0.00178241 0.064765,-0.0436435 0.025081,-0.0726585 0.00933217,-0.0352152 0.0527592,-0.0271053 0.0600034,0.00648032 0.00467245,0.0216562 -0.0036412,0.0180914 0.020294,0.00819907 0.0551273,-0.0228148 0.0980705,0.0199248 0.0751921,0.0751539 -0.00990508,0.0239352 -0.0134572,0.0156215 0.0082118,0.020294 0.0335856,0.00724421 0.0416956,0.0506585 0.00646759,0.059978 -0.029015,-0.0396713 -0.0708888,-0.0137882 -0.072684,0.025081 -0.00132407,0.0286203 0.024368,0.0609328 0.0424722,0.0813541 0.027169,0.0306701 0.0649687,0.0576226 0.109529,0.0673877l0.026125 -0.0237569c0.00822453,-0.00747337 0.0291041,0.0352025 0.0795462,0.0458588 0.0504294,-0.0106562 0.0698321,-0.0538541 0.0780566,-0.046368l0.0261122 0.0237697c0.0445474,-0.00977777 0.0823344,-0.036743 0.109491,-0.0674131 0.0180914,-0.020434 0.0437708,-0.0527719 0.0424467,-0.0813923 -0.00179514,-0.0388946 -0.0436435,-0.0647777 -0.0726585,-0.0250937 -0.0352152,-0.00933217 -0.0271053,-0.0527592 0.00648032,-0.0600034 0.0216562,-0.00465972 0.0180914,0.0036412 0.00819907,-0.020294 -0.0228148,-0.0551273 0.0199248,-0.0980705 0.0751539,-0.0751921 0.0239224,0.00990508 0.0156215,0.0134572 0.0202812,-0.0082118 0.00724421,-0.0335856 0.0506585,-0.0416956 0.0599907,-0.00648032 -0.0396713,0.0290278 -0.0138009,0.0709016 0.0250683,0.0726967 0.0286203,0.00132407 0.0609328,-0.024368 0.0813541,-0.0424722 0.0306701,-0.027169 0.0576226,-0.0649687 0.0673877,-0.109529l-0.0237442 -0.026125c-0.00314467,-0.00346296 0.00269907,-0.00892476 0.011331,-0.017875 0.0441018,-0.045706 0.0406134,-0.0780312 -0.00192245,-0.12333 -0.00760069,-0.00808448 -0.0124132,-0.0132407 -0.00949768,-0.0164491l0.0237697 -0.0261122c-0.00977777,-0.0445474 -0.0367303,-0.0823344 -0.0674131,-0.109491 -0.020434,-0.0180914 -0.0527592,-0.0437708 -0.0813923,-0.0424467 -0.0388819,0.00178241 -0.064765,0.0436435 -0.025081,0.0726585 -0.00933217,0.0352152 -0.0527592,0.0271053 -0.0600034,-0.00648032 -0.00467245,-0.0216562 0.0036412,-0.0180914 -0.020294,-0.00819907 -0.0551273,0.0228148 -0.0980705,-0.0199375 -0.0751921,-0.0751539 0.00990508,-0.0239352 0.0134572,-0.0156215 -0.0082118,-0.020294 -0.0335856,-0.00724421 -0.0416956,-0.0506585 -0.00646759,-0.059978 0.029015,0.0396713 0.0708888,0.0137882 0.072684,-0.025081 0.00132407,-0.0286203 -0.024368,-0.0609328 -0.0424722,-0.0813541 -0.027169,-0.0306701 -0.0649687,-0.0576226 -0.109529,-0.0673877l-0.026125 0.0237569c-0.00822453,0.00747337 -0.0290914,-0.0352025 -0.0795462,-0.0458588z"/>
   <path id="_196240032" class="fil0 str0" d="M0.0814941 0.538478c0.00915393,-0.0095486 0.0155706,-0.0153032 0.0122986,-0.0188935l-0.0237569 -0.026125c0.00977777,-0.0445601 0.0367303,-0.0823726 0.0674004,-0.109529 0.0204213,-0.0181041 0.0527337,-0.0437835 0.0813414,-0.0424722 0.0388819,0.00179514 0.0647523,0.0436689 0.025081,0.072684 -0.0543124,-0.0601307 -0.134126,0.0390474 -0.128855,0.0727349 0.0616967,-0.0277546 0.0758032,0.0287222 0.0685208,0.0346933 -0.0439872,0.00738425 -0.0640902,0.0348078 -0.0696284,0.0769745 0.00555092,0.0421539 0.0257303,0.0693229 0.0697303,0.0767071 0.00730786,0.00597106 -0.00681134,0.0624224 -0.0685335,0.0346805 -0.00527083,0.033662 0.0745682,0.132815 0.128906,0.0726967 0.039684,0.029015 0.0138009,0.0708761 -0.025081,0.0726585 -0.0286331,0.00132407 -0.0609583,-0.0243553 -0.0813923,-0.0424467 -0.0306701,-0.0271562 -0.0576354,-0.0649432 -0.0674131,-0.109491l0.0237697 -0.0261122c0.00327199,-0.00360301 -0.0031574,-0.00962499 -0.0123368,-0.0194919 -0.040537,-0.0435926 -0.0416319,-0.0759305 -5.09259e-005,-0.119268z"/>
   <path id="_196239984" class="fil0 str0" d="M0.538885 1.11464c-0.0095486,-0.00915393 -0.0152905,-0.0155706 -0.0188808,-0.0123113l-0.026125 0.0237569c-0.0445601,-0.00976504 -0.0823726,-0.0367176 -0.109529,-0.0673877 -0.0181041,-0.0204213 -0.0437835,-0.0527465 -0.0424722,-0.0813541 0.00179514,-0.0388819 0.0436689,-0.0647523 0.0726967,-0.025081 -0.0601435,0.0543124 0.0390347,0.134126 0.0727222,0.128868 -0.0277546,-0.0617094 0.0287222,-0.0758159 0.0346933,-0.0685208 0.00737152,0.0439872 0.0347951,0.0640775 0.0769745,0.0696284 0.0421539,-0.00555092 0.0693229,-0.025743 0.0766944,-0.069743 0.00597106,-0.00729513 0.0624224,0.00681134 0.0346805,0.0685462 0.033662,0.00527083 0.132815,-0.0745809 0.0726967,-0.128919 0.029015,-0.039684 0.0708761,-0.0138009 0.0726585,0.0250937 0.00132407,0.0286203 -0.0243553,0.0609455 -0.0424467,0.0813796 -0.0271562,0.0306828 -0.0649432,0.0576481 -0.109491,0.0674259l-0.0261122 -0.0237697c-0.00359027,-0.00327199 -0.00962499,0.0031574 -0.0194919,0.0123368 -0.0435798,0.0405243 -0.0759178,0.0416319 -0.119268,5.09259e-005z"/>
   <path id="_196239936" class="fil0 str0" d="M1.11503 0.657224c-0.00915393,0.0095486 -0.0155706,0.0152905 -0.0122986,0.0188935l0.0237569 0.026125c-0.00977777,0.0445601 -0.0367303,0.0823599 -0.0674004,0.109529 -0.0204213,0.0181041 -0.0527337,0.0437835 -0.0813414,0.0424722 -0.0388819,-0.00179514 -0.0647523,-0.0436689 -0.025081,-0.0726967 0.0543124,0.0601435 0.134126,-0.0390474 0.128855,-0.0727222 -0.0616967,0.0277546 -0.0758032,-0.0287222 -0.0685208,-0.0346933 0.0439872,-0.00738425 0.0640902,-0.0348078 0.0696284,-0.0769745 -0.00555092,-0.0421539 -0.0257303,-0.0693356 -0.0697303,-0.0767071 -0.00730786,-0.00597106 0.00681134,-0.0624224 0.0685335,-0.0346805 0.00527083,-0.033662 -0.0745682,-0.132815 -0.128906,-0.0726967 -0.039684,-0.029015 -0.0138009,-0.0708761 0.025081,-0.0726712 0.0286331,-0.00131134 0.0609583,0.024368 0.0813923,0.0424595 0.0306701,0.0271562 0.0576354,0.0649432 0.0674131,0.109491l-0.0237697 0.0261122c-0.00327199,0.00359027 0.0031574,0.00962499 0.0123368,0.0194919 0.040537,0.0435926 0.0416319,0.0759305 5.09259e-005,0.119268z"/>
   <path id="_196239888" class="fil0 str0" d="M0.657606 0.0810231c0.00953587,0.00915393 0.0152905,0.0155706 0.0188808,0.0122986l0.026125 -0.0237569c0.0445601,0.00977777 0.0823599,0.0367303 0.109529,0.0674004 0.0181041,0.0204213 0.0437835,0.0527337 0.0424722,0.0813541 -0.00179514,0.0388692 -0.0436689,0.0647523 -0.0726967,0.025081 0.0601435,-0.0543252 -0.0390347,-0.134139 -0.0727222,-0.128868 0.0277546,0.0617094 -0.0287222,0.0758159 -0.0346933,0.0685208 -0.00737152,-0.0439872 -0.0348078,-0.0640902 -0.0769745,-0.0696284 -0.0421539,0.00555092 -0.0693229,0.0257303 -0.0766944,0.069743 -0.00597106,0.00729513 -0.0624351,-0.00681134 -0.0346805,-0.0685462 -0.0336747,-0.00527083 -0.132815,0.0745682 -0.0726967,0.128906 -0.029015,0.0396967 -0.0708761,0.0138009 -0.0726585,-0.025081 -0.00132407,-0.0286203 0.0243553,-0.0609583 0.0424467,-0.0813923 0.0271562,-0.0306701 0.0649432,-0.0576354 0.109491,-0.0674131l0.0261122 0.0237697c0.00359027,0.00327199 0.00962499,-0.0031574 0.0194919,-0.0123368 0.0435798,-0.040537 0.0759178,-0.0416319 0.119268,-5.09259e-005z"/>
   <path id="_196239840" class="fil0 str0" d="M0.59829 0.329809c-0.013088,0.00348842 -0.0238715,0.014272 -0.0337384,0.0248518 -0.00935763,0.0100324 -0.0217326,0.017684 -0.0290659,0.0291678 -0.0120567,0.0188553 -0.0133044,0.035037 0.00516898,0.0596979 0.0195428,0.0260995 0.00296643,0.0462916 -0.0149977,0.0355717 -0.0105035,-0.00627661 -0.0123495,-0.0161308 -0.0183715,-0.0257558 -0.0464571,-0.0742881 -0.126385,0.00888657 -0.054096,0.0540833 0.00961226,0.00602199 0.0194791,0.00786805 0.0257558,0.0183715 0.0107199,0.0179641 -0.00947221,0.0345405 -0.0355717,0.0149977 -0.0246609,-0.0184734 -0.0408426,-0.0172257 -0.0596979,-0.00516898 -0.0114838,0.00733333 -0.0191354,0.0197083 -0.0291678,0.0290659 -0.0105799,0.00986689 -0.0211852,0.0205231 -0.0246609,0.0336111 0.00347569,0.013088 0.0142592,0.0238588 0.0248391,0.0337384 0.0100324,0.00935763 0.017684,0.0217326 0.0291678,0.0290659 0.0188553,0.012044 0.035037,0.0133044 0.0596979,-0.00516898 0.0260995,-0.0195428 0.0462916,-0.00296643 0.0355717,0.0149977 -0.00627661,0.0105035 -0.0161308,0.0123495 -0.0257558,0.0183588 -0.0742881,0.0464699 0.00887383,0.126411 0.0540833,0.0541087 0.00600925,-0.00961226 0.00786805,-0.0194791 0.0183588,-0.0257558 0.0179768,-0.0107199 0.0345532,0.00947221 0.0150104,0.0355717 -0.0184734,0.0246609 -0.0172257,0.0408426 -0.00518171,0.0596979 0.00734606,0.0114838 0.0197083,0.0191354 0.0290659,0.0291678 0.00987962,0.0105799 0.0204849,0.0207523 0.0335729,0.024228 0.013088,-0.00347569 0.0238715,-0.0142592 0.0337384,-0.0248391 0.00935763,-0.0100324 0.0217326,-0.017684 0.0290787,-0.0291678 0.012044,-0.0188553 0.0132917,-0.035037 -0.00518171,-0.0596979 -0.0195428,-0.0260995 -0.00296643,-0.0462916 0.0149977,-0.0355717 0.0105035,0.00627661 0.0123623,0.0161308 0.0183715,0.025743 0.0464571,0.0743009 0.126398,-0.00887383 0.054096,-0.0540706 -0.00961226,-0.00602199 -0.0194791,-0.00786805 -0.025743,-0.0183715 -0.0107326,-0.0179641 0.00945948,-0.0345405 0.035559,-0.0149977 0.0246609,0.0184734 0.0408426,0.0172257 0.0596979,0.00516898 0.0114838,-0.00733333 0.0191354,-0.0197083 0.0291678,-0.0290659 0.0105799,-0.00986689 0.0211852,-0.0205231 0.0246609,-0.0336111 -0.00347569,-0.013088 -0.0142592,-0.0238715 -0.0248391,-0.0337384 -0.0100324,-0.00935763 -0.017684,-0.0217326 -0.0291678,-0.0290659 -0.0188553,-0.0120567 -0.035037,-0.0133044 -0.0596979,0.00516898 -0.0260868,0.0195428 -0.0462916,0.00296643 -0.035559,-0.0149977 0.00626388,-0.0105035 0.0161308,-0.0123495 0.025743,-0.0183715 0.0742881,-0.0464571 -0.00887383,-0.126398 -0.0540833,-0.054096 -0.00600925,0.00961226 -0.00786805,0.0194791 -0.0183588,0.0257558 -0.0179768,0.0107199 -0.0345532,-0.00947221 -0.0149977,-0.0355717 0.0184606,-0.0246609 0.0172129,-0.0408426 0.00516898,-0.0596979 -0.00734606,-0.0114838 -0.0197083,-0.0191354 -0.0290659,-0.0291678 -0.00987962,-0.0105799 -0.0204849,-0.0207523 -0.0335729,-0.0242407z"/>
   <circle id="_196239792" class="fil0 str0" transform="matrix(-1.61025E-014 0.055281 -0.055238 -1.60949E-014 0.598286 0.598265)" r="1.3501"/>
   <path id="_196239744" class="fil0 str0" d="M0.812433 0.597704c-0.00436689,0.0187153 -0.0186007,0.0215926 -0.0379143,0.0181933 -0.018066,-0.00317014 -0.0415173,-0.00854282 -0.0554965,-0.018066 0.0139792,-0.00951041 0.0372523,-0.0150231 0.055331,-0.0181933 0.0193009,-0.0033993 0.0337129,-0.000649305 0.0380798,0.018066z"/>
   <path id="_196239696" class="fil0 str0" d="M0.598124 0.383676c0.0187153,0.00436689 0.0215926,0.0186007 0.0181933,0.0379016 -0.00318287,0.0180787 -0.00855555,0.0415301 -0.018066,0.0555092 -0.00952314,-0.0139792 -0.0150231,-0.0372523 -0.0181933,-0.055331 -0.0033993,-0.0193009 -0.000662036,-0.0337129 0.018066,-0.0380798z"/>
   <path id="_196239648" class="fil0 str0" d="M0.384096 0.597997c0.00436689,-0.0187153 0.0186007,-0.0215926 0.0379143,-0.0181933 0.018066,0.00317014 0.0415173,0.00854282 0.0554965,0.018066 -0.0139792,0.00951041 -0.0372523,0.0150104 -0.055331,0.0181933 -0.0193009,0.0033993 -0.0337129,0.000649305 -0.0380798,-0.018066z"/>
   <path id="_196239600" class="fil0 str0" d="M0.462483 0.00541087c-0.014081,0.0081736 -0.0255139,0.017162 -0.0425995,0.0397095 -0.00716782,0.00945948 -0.00373032,0.0101724 -0.0097905,0.00164236 -0.0178368,-0.0250555 -0.0683043,0.0203322 -0.0864339,0.0508113 -0.0134954,0.0226747 -0.0274872,-0.00719328 -0.0291423,-0.0214653 -0.0118403,0.00749884 -0.0220382,0.0180405 -0.0259722,0.0303773 -0.00210069,0.0109618 -0.00244444,0.0249155 0.00101852,0.0377361 -0.0416064,-0.00108217 -0.0761724,0.0124641 -0.079508,0.061493 -0.0519953,0.00822453 -0.0863958,0.0335983 -0.0736643,0.0830346 -0.0222291,0.000394676 -0.0474247,0.0174803 -0.0740717,0.057037 0.0323634,0.034846 -0.0195428,0.0820161 -0.0364375,0.116951l1.27315e-005 -0.457327 0.456589 0z"/>
   <path id="_196239552" class="fil0 str0" d="M0.00544907 0.734109c0.0081736,0.014081 0.017162,0.0255139 0.0397095,0.0425995 0.00945948,0.00716782 0.0101597,0.00373032 0.00164236,0.0097905 -0.0250555,0.0178368 0.0203322,0.0683043 0.0508113,0.0864467 0.0226747,0.0134954 -0.00719328,0.0274745 -0.0214653,0.0291296 0.00749884,0.011853 0.0180405,0.0220382 0.0303773,0.0259849 0.0109618,0.00208796 0.0249155,0.00243171 0.0377233,-0.00101852 -0.00106944,0.0416064 0.0124768,0.0761597 0.0615057,0.0794953 0.0082118,0.0520081 0.0335856,0.0864085 0.0830219,0.073677 0.000394676,0.0222291 0.017493,0.0474247 0.0570497,0.0740717 0.034846,-0.0323634 0.0820034,0.0195428 0.116926,0.0364375l-0.457302 0 0 -0.456614z"/>
   <path id="_196239504" class="fil0 str0" d="M0.734084 1.19112c0.014081,-0.0081736 0.0255139,-0.017162 0.0425995,-0.0397095 0.00716782,-0.00945948 0.00373032,-0.0101724 0.0097905,-0.00164236 0.0178368,0.0250555 0.0683043,-0.0203322 0.0864339,-0.0508113 0.0134954,-0.0226747 0.0274872,0.00719328 0.0291423,0.0214653 0.0118403,-0.00749884 0.0220382,-0.0180405 0.0259722,-0.0303773 0.00210069,-0.0109618 0.00244444,-0.0249155 -0.00101852,-0.0377361 0.0416064,0.00108217 0.0761724,-0.0124641 0.079508,-0.061493 0.0519953,-0.00822453 0.0863958,-0.0335983 0.0736643,-0.0830346 0.0222291,-0.000394676 0.0474247,-0.0174803 0.0740717,-0.057037 -0.0323634,-0.034846 0.0195428,-0.0820161 0.0364375,-0.116951l-1.27315e-005 0.457327 -0.456589 0z"/>
   <path id="_196239456" class="fil0 str0" d="M1.19108 0.462458c-0.0081736,-0.014081 -0.017162,-0.0255139 -0.0397095,-0.0425995 -0.00945948,-0.00716782 -0.0101597,-0.00373032 -0.00164236,-0.0097905 0.0250555,-0.0178368 -0.0203322,-0.0683043 -0.0508113,-0.0864467 -0.0226747,-0.0134954 0.00719328,-0.0274745 0.0214653,-0.0291296 -0.00749884,-0.011853 -0.0180405,-0.0220382 -0.0303773,-0.0259849 -0.0109618,-0.00208796 -0.0249155,-0.00243171 -0.0377233,0.00101852 0.00106944,-0.0416064 -0.0124768,-0.0761597 -0.0615057,-0.0794953 -0.0082118,-0.0520081 -0.0335856,-0.0864085 -0.0830219,-0.073677 -0.000394676,-0.0222291 -0.017493,-0.0474247 -0.0570497,-0.0740717 -0.034846,0.0323634 -0.0820034,-0.0195428 -0.116926,-0.0364375l0.457302 1.27315e-005 0 0.456601z"/>
   <path id="_196239408" class="fil0 str0" d="M0.734084 1.19072c0.014081,-0.0081736 0.0255139,-0.017162 0.0425995,-0.0397095 0.00716782,-0.00945948 0.00373032,-0.0101724 0.0097905,-0.00164236 0.0178368,0.0250555 0.0683043,-0.0203322 0.0864339,-0.050824 0.0134954,-0.022662 0.0274872,0.00720601 0.0291423,0.021478 0.0118403,-0.00749884 0.0220382,-0.0180405 0.0259722,-0.0303773 0.00210069,-0.0109618 0.00244444,-0.0249155 -0.00101852,-0.0377361 0.0416064,0.00108217 0.0761724,-0.0124641 0.079508,-0.061493 0.0519953,-0.00822453 0.0863958,-0.0335983 0.0736643,-0.0830346 0.0222291,-0.000394676 0.0474247,-0.017493 0.0740717,-0.0570497 -0.0323634,-0.034846 0.0195428,-0.0820034 0.0364375,-0.116939l0 -0.136265 0.00043287 -0.135106c-0.0081736,-0.0140937 -0.017162,-0.0255139 -0.0396967,-0.0425995 -0.00947221,-0.00716782 -0.0101724,-0.00373032 -0.00165509,-0.0097905 0.0250555,-0.0178368 -0.0203322,-0.0683043 -0.0508113,-0.0864467 -0.0226747,-0.0134954 0.00719328,-0.0274745 0.0214653,-0.0291296 -0.00749884,-0.011853 -0.0180405,-0.0220382 -0.0303773,-0.0259849 -0.0109618,-0.00208796 -0.0249155,-0.00243171 -0.0377233,0.00101852 0.00106944,-0.0416064 -0.0124641,-0.0761597 -0.0615057,-0.0794953 -0.0082118,-0.0520081 -0.0335856,-0.0864085 -0.0830219,-0.073677 -0.000394676,-0.0222291 -0.017493,-0.0474247 -0.0570497,-0.0740717 -0.0348333,0.0323634 -0.0820034,-0.0195428 -0.116926,-0.0364375l-0.271333 0c-0.014081,0.0081736 -0.0255139,0.017162 -0.0425995,0.0397095 -0.00716782,0.00945948 -0.00373032,0.0101724 -0.0097905,0.00164236 -0.0178368,-0.0250555 -0.0683043,0.0203322 -0.0864339,0.0508113 -0.0134954,0.0226747 -0.0274872,-0.00719328 -0.0291423,-0.0214653 -0.0118403,0.00749884 -0.0220382,0.0180405 -0.0259722,0.0303773 -0.00210069,0.0109618 -0.00244444,0.0249155 0.00101852,0.0377361 -0.0416064,-0.00108217 -0.0761724,0.0124641 -0.079508,0.061493 -0.0519953,0.00822453 -0.0863958,0.0335983 -0.0736643,0.0830346 -0.0222291,0.000394676 -0.0474247,0.0174803 -0.0740717,0.057037 0.0323634,0.034846 -0.0195428,0.0820161 -0.0364375,0.116951l0 0.136252 -0.00043287 0.135119c0.0081736,0.014081 0.017162,0.0255139 0.0397095,0.0425995 0.00945948,0.00716782 0.0101597,0.00373032 0.00164236,0.0097905 -0.0250555,0.0178368 0.0203322,0.0683043 0.0508113,0.0864467 0.0226747,0.0134954 -0.00719328,0.0274745 -0.0214653,0.0291296 0.00749884,0.011853 0.0180405,0.0220382 0.0303773,0.0259849 0.0109618,0.00208796 0.0249155,0.00243171 0.0377233,-0.00101852 -0.00106944,0.0416064 0.0124768,0.0761597 0.0615057,0.0794953 0.0082118,0.0520081 0.0335856,0.0864085 0.0830219,0.073677 0.000394676,0.0222291 0.017493,0.0474247 0.0570497,0.0740717 0.034846,-0.0323634 0.0820034,0.0195428 0.116926,0.0364375l0.271333 0zm-0.135807 -0.0272326c0.076096,-0.00355208 0.14011,-0.00989235 0.20005,-0.0448657 0.0295879,-0.0172639 0.0573171,-0.0401932 0.0772546,-0.0682789 0.0254375,-0.0358264 0.0341076,-0.0752684 0.0167037,-0.107912 -0.0118657,-0.0222419 -0.0347824,-0.0335092 -0.0482777,-0.0544525 -0.0256921,-0.0399132 0.00462152,-0.0702904 0.0445347,-0.0445601 0.0209433,0.0134826 0.0321979,0.0364247 0.054427,0.0482905 0.0326308,0.0174039 0.0720728,0.00874652 0.107874,-0.0167037 0.0280729,-0.0199502 0.0510023,-0.0476921 0.0682534,-0.0772928 0.0349606,-0.0599525 0.0413009,-0.124005 0.044853,-0.200126 -0.00356481,-0.076096 -0.00995601,-0.139868 -0.0449166,-0.19982 -0.0172639,-0.0295752 -0.040206,-0.0573171 -0.0682916,-0.0772546 -0.0358136,-0.0254375 -0.0752684,-0.0340949 -0.107912,-0.016691 -0.0222419,0.011853 -0.0335092,0.0347824 -0.0544398,0.048265 -0.0399132,0.0256921 -0.0702904,-0.00460879 -0.0445601,-0.0445347 0.0134826,-0.0209305 0.0364247,-0.0321852 0.0482905,-0.054427 0.0174039,-0.0326308 0.00874652,-0.0720601 -0.0167037,-0.107874 -0.0199502,-0.0280729 -0.0476921,-0.0510023 -0.0772928,-0.0682534 -0.0599525,-0.0349606 -0.124005,-0.0413009 -0.200126,-0.044853 -0.0760833,0.00356481 -0.139817,0.0103889 -0.199757,0.0453622 -0.0295879,0.0172639 -0.0573171,0.0401932 -0.0772546,0.0682789 -0.0254375,0.0358264 -0.0341076,0.0752684 -0.0167037,0.107912 0.0118657,0.0222419 0.0347824,0.0335092 0.0482777,0.0544525 0.0256921,0.0399132 -0.00462152,0.0702904 -0.0445347,0.0445601 -0.0209305,-0.0134954 -0.0321979,-0.0364247 -0.054427,-0.0482905 -0.0326308,-0.0174167 -0.0720728,-0.00874652 -0.107874,0.0167037 -0.0280729,0.0199502 -0.0510023,0.0476921 -0.0682534,0.0772928 -0.0349606,0.0599525 -0.0413009,0.124005 -0.0448402,0.200126 0.00355208,0.076096 0.00994328,0.139868 0.0449166,0.19982 0.0172511,0.0295752 0.0401932,0.0573171 0.0682789,0.0772546 0.0358136,0.0254375 0.0752684,0.0340949 0.107912,0.016691 0.0222419,-0.011853 0.0335092,-0.0347824 0.0544398,-0.048265 0.0399132,-0.0257048 0.0702904,0.00460879 0.0445601,0.0445347 -0.0134826,0.0209305 -0.0364247,0.0321852 -0.0482905,0.054427 -0.0174039,0.0326308 -0.00874652,0.0720601 0.0167037,0.107874 0.0199502,0.0280729 0.0476921,0.0510023 0.0772928,0.0682534 0.0599525,0.0349606 0.123712,0.0408044 0.199833,0.0443564z"/>
   <path id="_196239360" class="fil0 str0" d="M0.130014 0.230745c-0.0982488,-0.0653379 0.0599652,-0.227244 0.124055,-0.0862175 0.00620023,-0.000547453 0.0097905,-0.000471064 0.0154942,-0.000305555 -0.00346296,-0.0128206 -0.00311921,-0.0267743 -0.00101852,-0.0377361 -0.125965,-0.13587 -0.280334,0.0638483 -0.154471,0.156279 0.00110764,-0.013941 0.00839004,-0.0248009 0.0159398,-0.0320196z"/>
   <path id="_196239312" class="fil0 str0" d="M0.230771 1.06659c-0.0653252,0.0982488 -0.227231,-0.059978 -0.0862048,-0.124055 -0.000547453,-0.00621296 -0.000471064,-0.00980323 -0.000305555,-0.0154942 -0.0128206,0.00346296 -0.0267743,0.00311921 -0.0377361,0.00101852 -0.13587,0.125965 0.0638483,0.280334 0.156266,0.154458 -0.0139282,-0.00109491 -0.0247882,-0.00837731 -0.0320196,-0.0159271z"/>
   <path id="_196239264" class="fil0 str0" d="M1.06657 0.965784c0.098236,0.0653379 -0.059978,0.227244 -0.124068,0.0862175 -0.00620023,0.000547453 -0.0097905,0.000471064 -0.0154942,0.000305555 0.00346296,0.0128206 0.00311921,0.0267743 0.00101852,0.0377361 0.125965,0.13587 0.280334,-0.0638483 0.154471,-0.156279 -0.00110764,0.013941 -0.00839004,0.0248009 -0.0159271,0.0320196z"/>
   <path id="_196239216" class="fil0 str0" d="M0.965758 0.129976c0.0653252,-0.0982488 0.227231,0.059978 0.0862048,0.124055 0.000547453,0.00621296 0.000471064,0.00980323 0.000305555,0.0155069 0.0128206,-0.00346296 0.0267743,-0.00311921 0.0377361,-0.00103125 0.13587,-0.125965 -0.0638483,-0.280334 -0.156266,-0.154458 0.0139282,0.00109491 0.0247882,0.00837731 0.0320196,0.0159271z"/>
   <path id="_196239168" class="fil0 str0" d="M0.130014 0.230745c-0.0982488,-0.0653379 0.059978,-0.227244 0.124055,-0.0862175 -0.0344514,0.00264815 -0.0611111,0.0184861 -0.0640138,0.0611874 -0.0253866,0.00401041 -0.0466226,0.0122349 -0.0600416,0.0250301z"/>
   <path id="_196239120" class="fil0 str0" d="M0.230771 1.06659c-0.0653379,0.0982488 -0.227231,-0.059978 -0.0862048,-0.124055 0.00264815,0.0344514 0.0184734,0.0610983 0.0611874,0.0640011 0.00401041,0.0253993 0.0122349,0.0466354 0.0250173,0.0600543z"/>
   <path id="_196239072" class="fil0 str0" d="M1.06655 0.965784c0.0982488,0.0653379 -0.0599652,0.227244 -0.124055,0.0862175 0.0344514,-0.00264815 0.0611111,-0.0184861 0.0640138,-0.0611874 0.0253866,-0.00401041 0.0466354,-0.0122349 0.0600416,-0.0250301z"/>
   <path id="_196239024" class="fil0 str0" d="M0.965758 0.129976c0.0653379,-0.0982488 0.227231,0.059978 0.0862048,0.124055 -0.00264815,-0.0344514 -0.0184734,-0.0610983 -0.0611874,-0.0640011 -0.00401041,-0.0253866 -0.0122349,-0.0466354 -0.0250173,-0.0600543z"/>
   <path id="_196238976" class="fil0 str0" d="M0.00588194 0.308165l0 -0.108319c0.0143993,0.0192373 0.0234768,0.0326435 0.0299444,0.0449803 0.00864467,0.0165 0.0153032,0.0332419 0.00359027,0.0505821 -0.00621296,0.00923032 -0.0165382,0.0141319 -0.0335347,0.0127569z"/>
   <path id="_196238928" class="fil0 str0" d="M0.308191 1.19072l-0.108319 0c0.0192373,-0.0143993 0.0326562,-0.0234641 0.0449803,-0.0299317 0.0165,-0.0086574 0.0332546,-0.015316 0.0505949,-0.00360301 0.00921758,0.00622569 0.0141192,0.0165509 0.0127442,0.0335347z"/>
   <path id="_196238880" class="fil0 str0" d="M1.19069 0.888364l0 0.108319c-0.0143993,-0.0192373 -0.0234768,-0.0326435 -0.0299317,-0.0449803 -0.0086574,-0.0165 -0.015316,-0.0332419 -0.00360301,-0.0505821 0.00622569,-0.00923032 0.0165509,-0.0141319 0.0335347,-0.0127569z"/>
   <path id="_196238832" class="fil0 str0" d="M0.888338 0.00584374l0.108319 0c-0.0192373,0.0143993 -0.0326562,0.0234768 -0.0449803,0.0299317 -0.0165,0.0086574 -0.0332546,0.015316 -0.0505949,0.00360301 -0.00921758,-0.00621296 -0.0141192,-0.0165509 -0.0127442,-0.0335347z"/>
   <path id="_196238784" class="fil0 str0" d="M0.308 0.00600925l-0.108319 0c0.01925,0.0143993 0.0326562,0.0234641 0.044993,0.0299317 0.0165,0.0086574 0.0332419,0.015316 0.0505821,0.00360301 0.00921758,-0.00622569 0.0141319,-0.0165509 0.0127442,-0.0335347z"/>
   <path id="_196238736" class="fil0 str0" d="M0.00604745 0.888593l0 0.108319c0.0143993,-0.0192373 0.0234641,-0.0326562 0.0299317,-0.0449803 0.0086574,-0.0165 0.015316,-0.0332419 0.00360301,-0.0505949 -0.00622569,-0.00921758 -0.0165509,-0.0141192 -0.0335347,-0.0127442z"/>
   <path id="_196238688" class="fil0 str0" d="M0.888567 1.19052l0.108319 0c-0.01925,-0.0143993 -0.0326562,-0.0234641 -0.0449803,-0.0299317 -0.0165127,-0.0086574 -0.0332546,-0.015316 -0.0505949,-0.00360301 -0.00921758,0.00622569 -0.0141319,0.0165509 -0.0127442,0.0335347z"/>
   <path id="_196238640" class="fil0 str0" d="M1.19048 0.307974l0 -0.108319c-0.0143993,0.0192373 -0.0234641,0.0326562 -0.0299317,0.0449803 -0.0086574,0.0165 -0.015316,0.0332546 -0.00360301,0.0505949 0.00622569,0.00921758 0.0165509,0.0141319 0.0335347,0.0127442z"/>
   <path id="_196238592" class="fil0 str0" d="M0.112979 0.00541087c0,0.0591377 -0.0479594,0.107097 -0.107097,0.107097l1.27315e-005 -0.107097 0.107084 0z"/>
   <path id="_196238544" class="fil0 str0" d="M0.00544907 1.08363c0.0591377,0 0.107097,0.0479594 0.107097,0.107097l-0.107097 0 0 -0.107097z"/>
   <path id="_196238496" class="fil0 str0" d="M1.08359 1.19112c0,-0.0591377 0.0479594,-0.107097 0.107097,-0.107097l-1.27315e-005 0.107097 -0.107084 0z"/>
   <path id="_196238448" class="fil0 str0" d="M1.19108 0.112941c-0.0591377,0 -0.107097,-0.0479594 -0.107097,-0.107097l0.107097 1.27315e-005 0 0.107084z"/>
   <path id="_196238400" class="fil0 str0" d="M0.0800937 0.00541087c0,0.0409699 -0.0332291,0.0742117 -0.0742117,0.0742117l1.27315e-005 -0.0742117 0.074199 0z"/>
   <path id="_196238352" class="fil0 str0" d="M0.00544907 1.11651c0.0409699,0 0.0742117,0.0332291 0.0742117,0.0742117l-0.0742117 0 0 -0.0742117z"/>
   <path id="_196238304" class="fil0 str0" d="M1.11647 1.19112c0,-0.0409699 0.0332291,-0.0742117 0.0742117,-0.0742117l-1.27315e-005 0.0742117 -0.074199 0z"/>
   <path id="_196238256" class="fil0 str0" d="M1.19108 0.0800555c-0.0409699,0 -0.0742117,-0.0332291 -0.0742117,-0.0742117l0.0742117 1.27315e-005 0 0.074199z"/>
   <circle id="_196238208" class="fil0 str0" transform="matrix(-6.71084E-015 0.0230387 -0.0230208 -6.70766E-015 0.598286 0.598266)" r="1.3501"/>
   <path id="_196238160" class="fil0 str0" d="M0.598366 0.811988c-0.0187153,-0.00436689 -0.0215926,-0.0186007 -0.0181933,-0.0379143 0.00318287,-0.018066 0.00855555,-0.0415173 0.018066,-0.0555092 0.00951041,0.0139919 0.0150231,0.037265 0.0181933,0.055331 0.0033993,0.0193136 0.000662036,0.0337257 -0.018066,0.0380926z"/>
   <circle id="_109279224" class="fil0 str0" cx="0.598247" cy="0.59827" r="0.0739415"/>
   <circle id="_196843880" class="fil0 str0" cx="0.598247" cy="0.59827" r="0.0318069"/>
  </g>
 </g>
</svg>
