<?xml version="1.0" encoding="UTF-8"?>
<!DOCTYPE svg PUBLIC "-//W3C//DTD SVG 1.1//EN" "http://www.w3.org/Graphics/SVG/1.1/DTD/svg11.dtd">
<!-- Creator: CorelDRAW -->
<svg xmlns="http://www.w3.org/2000/svg" xml:space="preserve" width="110px" height="110px" style="shape-rendering:geometricPrecision; text-rendering:geometricPrecision; image-rendering:optimizeQuality; fill-rule:evenodd; clip-rule:evenodd"
viewBox="0 0 1.0963 1.09629"
 xmlns:xlink="http://www.w3.org/1999/xlink">
 <defs>
  <style type="text/css">
   <![CDATA[
    .str0 {stroke:#4C4C4C;stroke-width:0.00988029}
    .fil0 {fill:white}
   ]]>
  </style>
 </defs>
 <g id="Capa_x0020_1">
  <metadata id="CorelCorpID_0Corel-Layer"/>
  <g id="_110721808">
   <polygon id="_110721592" class="fil0 str0" points="0.0050043,0.00494598 1.09098,0.00494598 1.09098,1.09096 0.0050043,1.09096 "/>
   <path id="_110721640" class="fil0 str0" d="M0.548444 0.0595617c-0.171044,0.00134148 -0.231469,0.14621 -0.203427,0.285187 -0.176422,-0.0347268 -0.289981,0.0700602 -0.285339,0.203543 -0.00531926,0.104052 0.0775492,0.242889 0.285269,0.20345 -0.0289876,0.147936 0.0424607,0.28465 0.203182,0.28577 0.164745,-0.00449104 0.232881,-0.133681 0.203835,-0.285619 0.128094,0.0279961 0.286108,-0.0264213 0.285175,-0.203602 0.00124816,-0.17031 -0.148648,-0.230933 -0.284254,-0.205071 0.0243799,-0.137309 -0.0343885,-0.282399 -0.204441,-0.283659z"/>
   <path id="_110721760" class="fil0 str0" d="M0.548245 1.03703c0.145603,0.0031379 0.23778,-0.126869 0.203672,-0.285444 0.158563,0.0341202 0.288255,-0.0578936 0.285129,-0.203508 0.00312623,-0.145603 -0.126566,-0.237419 -0.285129,-0.203298 0.0341086,-0.158575 -0.0580686,-0.288581 -0.203672,-0.285455 -0.145591,-0.00312623 -0.237967,0.126881 -0.203858,0.285455 -0.158563,-0.0341202 -0.288255,0.0578936 -0.285129,0.203497 -0.00312623,0.145615 0.126566,0.23743 0.285129,0.20331 -0.0341086,0.158575 0.0582669,0.288581 0.203858,0.285444zm-9.33203e-005 0.0543124c-0.030749,1.1665e-005 -0.0417842,-5.83252e-005 -0.0725449,-4.66602e-005 -0.133378,-0.0409093 -0.187259,-0.144915 -0.197746,-0.240008 -0.0249749,0.0131698 -0.0464152,0.0344935 -0.0552573,0.0573453 0.117199,0.0323938 0.00642744,0.175302 -0.0586285,0.0760677 -0.019469,0.0510812 -0.0652776,0.0750645 -0.123428,0.0713434 -0.00370948,-0.0581502 0.0199705,-0.104204 0.0710401,-0.123673 -0.0992345,-0.0650559 0.0436739,-0.175827 0.0760677,-0.0586285 0.0228518,-0.0088421 0.0441755,-0.0302824 0.0573453,-0.0552573 -0.0950934,-0.0104869 -0.199099,-0.0643677 -0.240008,-0.197757 1.1665e-005,-0.0307607 -4.66602e-005,-0.0417958 -4.66602e-005,-0.0725449 0,-0.0307607 5.83252e-005,-0.0417958 4.66602e-005,-0.0725449 0.0409093,-0.13339 0.144915,-0.187282 0.240008,-0.197769 -0.0131698,-0.0249632 -0.0344935,-0.0464152 -0.0573453,-0.0552456 -0.0323938,0.117199 -0.175302,0.00641577 -0.0760677,-0.0586402 -0.0510695,-0.0194573 -0.0747496,-0.0655225 -0.0710401,-0.123673 0.0581502,-0.00370948 0.103959,0.0202738 0.123428,0.0713434 0.0650559,-0.0992345 0.175827,0.0436739 0.0586285,0.0760677 0.0088421,0.0228518 0.0302824,0.0441872 0.0552573,0.057357 0.0104869,-0.0950934 0.0643677,-0.199099 0.197746,-0.240008 0.0307607,0 0.0417958,-6.99902e-005 0.0725449,-5.83252e-005 0.030749,-1.1665e-005 0.0417842,5.83252e-005 0.0725449,5.83252e-005 0.133378,0.0409093 0.187259,0.144915 0.197746,0.240008 0.0249749,-0.0131698 0.0464152,-0.0345052 0.0552573,-0.057357 -0.117199,-0.0323938 -0.00642744,-0.175302 0.0586285,-0.0760677 0.019469,-0.0510695 0.0652776,-0.0750529 0.123428,-0.0713434 0.00370948,0.0581502 -0.0199705,0.104215 -0.0710401,0.123673 0.0992345,0.0650559 -0.0436739,0.175839 -0.0760677,0.0586402 -0.0228518,0.00883044 -0.0441755,0.0302824 -0.0573453,0.0552456 0.0950934,0.0104869 0.199099,0.0643794 0.240008,0.197769 -1.1665e-005,0.030749 4.66602e-005,0.0417842 4.66602e-005,0.0725449 0,0.030749 -5.83252e-005,0.0417842 -4.66602e-005,0.0725449 -0.0409093,0.13339 -0.144915,0.187271 -0.240008,0.197757 0.0131698,0.0249749 0.0344935,0.0464152 0.0573453,0.0552573 0.0323938,-0.117199 0.175302,-0.00642744 0.0760677,0.0586285 0.0510695,0.019469 0.0747496,0.0655225 0.0710401,0.123673 -0.0581502,0.00372115 -0.103959,-0.0202622 -0.123428,-0.0713434 -0.0650559,0.0992345 -0.175827,-0.0436739 -0.0586285,-0.0760677 -0.0088421,-0.0228518 -0.0302824,-0.0441755 -0.0552573,-0.0573453 -0.0104869,0.0950934 -0.0643677,0.199099 -0.197746,0.240008 -0.0307607,-1.1665e-005 -0.0417958,5.83252e-005 -0.0725449,4.66602e-005z"/>
   <path id="_110721784" class="fil0 str0" d="M0.60846 0.609242c0.0151995,-0.0121666 0.0302824,-0.0178358 0.045482,-0.0171126 0.00781558,-0.00397778 0.0200405,0.0587335 0.0483516,-0.00121316 0.0407343,0.000233301 0.0818769,-0.0011665 0.116032,0.0253831 0.024065,0.0362666 -0.0294426,0.0415042 -0.0435106,0.0132981 -0.0799405,0.0814803 0.0968198,0.173984 0.10999,0.0362666 -0.00496931,-0.033187 -0.000431606,-0.0578236 -0.136586,-0.0955017 0.040361,-0.0121783 0.0995261,0.0133448 0.142628,0.0411076 0.0621863,0.00898208 0.122436,-0.0202272 0.144833,-0.0626879 -0.0223969,-0.0424607 -0.0826468,-0.0723816 -0.144833,-0.0633878 -0.0431023,0.0277511 -0.102267,0.0532859 -0.142628,0.0410959 0.136154,-0.0376781 0.131617,-0.0623146 0.136586,-0.09549 -0.0131698,-0.137729 -0.18993,-0.0452254 -0.10999,0.0362549 0.014068,-0.0282061 0.0675756,-0.0229568 0.0435106,0.0132981 -0.0341552,0.0265496 -0.0752978,0.0251498 -0.116032,0.0253831 -0.0283111,-0.059935 -0.040536,0.00276461 -0.0483516,-0.0012015 -0.0151995,0.000723232 -0.0302824,-0.00454937 -0.045482,-0.016716 -0.0121783,-0.0151995 -0.0178942,-0.0303991 -0.0171709,-0.0455986 -0.00397778,-0.00781558 0.0587335,-0.0200405 -0.00121316,-0.0483516 0.000233301,-0.0407343 -0.0011665,-0.0818769 0.0253831,-0.116032 0.0362666,-0.024065 0.0415042,0.0294426 0.0132981,0.0435106 0.0814803,0.0799405 0.173996,-0.0968198 0.0362666,-0.10999 -0.033187,0.00496931 -0.0578236,0.000431606 -0.0955017,0.136586 -0.0121783,-0.040361 0.0133448,-0.0995261 0.0411076,-0.142628 0.00898208,-0.0621863 -0.0202272,-0.122436 -0.0626996,-0.144821 -0.0424607,0.0223969 -0.0723816,0.0826351 -0.0633878,0.144821 0.0277628,0.0431023 0.0532859,0.102267 0.0410959,0.142628 -0.0376781,-0.136154 -0.062303,-0.131617 -0.09549,-0.136586 -0.137717,0.0131698 -0.0452137,0.18993 0.0362666,0.10999 -0.0282177,-0.014068 -0.0229685,-0.0675756 0.0132981,-0.0435106 0.0265496,0.0341552 0.0251382,0.0752978 0.0253831,0.116032 -0.0599466,0.0283111 0.00276461,0.040536 -0.00121316,0.0483516 0.000723232,0.0151995 -0.00499264,0.0303991 -0.0171709,0.0455986 -0.0151995,0.0121666 -0.0300025,0.0174392 -0.0451904,0.016716 -0.00781558,0.00396611 -0.0200405,-0.0587335 -0.0483516,0.0012015 -0.0407343,-0.000233301 -0.0818769,0.0011665 -0.116032,-0.0253831 -0.0240766,-0.0362549 0.0294309,-0.0415042 0.0434989,-0.0132981 0.0799405,-0.0814803 -0.0968198,-0.173984 -0.10999,-0.0362549 0.00496931,0.0331754 0.000431606,0.0578119 0.136586,0.09549 -0.040361,0.01219 -0.0995261,-0.0133448 -0.142628,-0.0410959 -0.0621863,-0.00899375 -0.122425,0.0209271 -0.144821,0.0633878 0.0223852,0.0424607 0.0826351,0.07167 0.144821,0.0626879 0.0431023,-0.0277628 0.102267,-0.0532859 0.142628,-0.0411076 -0.136154,0.0376781 -0.131617,0.0623146 -0.136586,0.0955017 0.0131698,0.137717 0.18993,0.0452137 0.10999,-0.0362666 -0.014068,0.0282061 -0.0675756,0.0229685 -0.0434989,-0.0132981 0.0341552,-0.0265496 0.0752978,-0.0251498 0.116032,-0.0253831 0.0283111,0.0599466 0.040536,-0.00276461 0.0483516,0.00121316 0.0151879,-0.000723232 0.0303874,0.00499264 0.045587,0.0171709 0.0121783,0.0151995 0.0174976,0.0303408 0.0167743,0.0455403 0.00397778,0.00781558 -0.0587335,0.0200405 0.00121316,0.0483516 -0.000244966,0.0407343 0.0011665,0.0818769 -0.0253831,0.116032 -0.0362666,0.024065 -0.0415159,-0.0294426 -0.0132981,-0.0435106 -0.0814803,-0.0799405 -0.173984,0.0968198 -0.0362666,0.10999 0.033187,-0.00496931 0.0578119,-0.000431606 0.09549,-0.136586 0.01219,0.040361 -0.0133331,0.0995261 -0.0410959,0.142628 -0.00899375,0.0621863 0.0209271,0.122425 0.0633878,0.144821 0.0424724,-0.0223852 0.0716817,-0.0826351 0.0626996,-0.144821 -0.0277628,-0.0431023 -0.0532859,-0.102267 -0.0411076,-0.142628 0.0376781,0.136154 0.0623146,0.131617 0.0955017,0.136586 0.137729,-0.0131698 0.0452137,-0.18993 -0.0362666,-0.10999 0.0282061,0.014068 0.0229685,0.0675756 -0.0132981,0.0435106 -0.0265496,-0.0341552 -0.0251498,-0.0752978 -0.0253831,-0.116032 0.0599466,-0.0283111 -0.00276461,-0.040536 0.00121316,-0.0483516 -0.000723232,-0.0151995 0.00499264,-0.0303991 0.0171709,-0.0455986z"/>
  </g>
 </g>
</svg>
