<?xml version="1.0" encoding="UTF-8"?>
<!DOCTYPE svg PUBLIC "-//W3C//DTD SVG 1.1//EN" "http://www.w3.org/Graphics/SVG/1.1/DTD/svg11.dtd">
<!-- Creator: CorelDRAW -->
<svg xmlns="http://www.w3.org/2000/svg" xml:space="preserve" width="110px" height="110px" style="shape-rendering:geometricPrecision; text-rendering:geometricPrecision; image-rendering:optimizeQuality; fill-rule:evenodd; clip-rule:evenodd"
viewBox="0 0 0.339172 0.339187"
 xmlns:xlink="http://www.w3.org/1999/xlink">
 <defs>
  <style type="text/css">
   <![CDATA[
    .str0 {stroke:#4C4C4C;stroke-width:0.00305678}
    .fil0 {fill:white}
   ]]>
  </style>
 </defs>
 <g id="Plan_x0020_1">
  <metadata id="CorelCorpID_0Corel-Layer"/>
  <g id="_202278536">
   <polygon id="_202278392" class="fil0 str0" points="0.337552,0.00153019 0.337552,0.337642 0.00153019,0.337642 0.00153019,0.00153019 "/>
   <path id="_202278320" class="fil0 str0" d="M0.150186 0.337631c0.00240717,-0.00987768 0.00860372,-0.0169584 0.0185788,-0.0213289 -0.00716375,-0.0138475 -0.0119492,-0.0271537 0.0113573,-0.034072 0.00954566,0.0488759 0.0666247,0.0172724 0.0679275,-0.0298315 0.00201379,-0.00236025 0.00251183,-0.00263453 0.00430908,-0.00453644 0.0470931,-0.00130283 0.0786858,-0.0583927 0.0298243,-0.0679456 0.00691835,-0.0233102 0.0202209,-0.0185247 0.0340648,-0.0113573 0.00436682,-0.00997873 0.0114801,-0.0159768 0.0213541,-0.018384l-5.05252e-005 0.187463 -0.187366 -7.21789e-006z"/>
   <path id="_202278248" class="fil0 str0" d="M0.238627 0.228807c-0.0193042,-0.0172147 -0.019676,-0.0344257 -0.0114404,-0.0516404 -0.00237108,-0.00396262 -0.0070194,-0.0060125 -0.0131149,-0.00474576 0.00568048,-0.00891048 0.00875169,-0.0179798 0.00251183,-0.0276337 -0.000104659,-0.0126277 0.00489012,-0.0187015 0.0100437,-0.0245661 -0.0161861,-0.00749217 -0.0295825,-0.00405284 -0.0368365,0.0234473 -0.00623265,0.0152622 -0.0136743,0.0184237 -0.0228843,0.00390849 -0.00208958,-0.0163305 -0.00878778,-0.0290773 -0.0175792,-0.0401964 -0.00382187,0.00297738 -0.00502726,0.00660798 -0.00586093,0.0103288 -9.38325e-005,0.00781697 -0.00353316,0.0100509 -0.0103252,0.0066982 -0.00604498,-0.00706992 -0.0124653,-0.00856042 -0.0192573,-0.00446426 -0.00269588,0.0079072 -0.00129922,0.0143275 0.00418638,0.0192609 0.0033491,0.0033491 0.00297738,0.00595476 -0.00111516,0.00781336 -0.00613881,-0.00111516 -0.0113501,0.00102494 -0.0145116,0.0103288 0.0121838,0.00829335 0.025674,0.0120106 0.0393483,0.0150746 0.00843771,0.00513914 0.0184922,0.0100437 0.00111516,0.0189794 -0.0166048,0.00474576 -0.0273955,0.015071 -0.0253925,0.0376846 0.00837275,-0.00502365 0.0171172,-0.0066982 0.0262298,-0.00502365 0.00595476,0.00498034 0.0129308,0.00228085 0.0203725,-0.00390849 0.000934716,0.0130427 0.0042766,0.0133531 0.00530154,0.0128406 0.0248512,-0.00913063 0.044455,-0.00538454 0.0611175,0.00558304 0.00269588,-0.00325888 0.00539537,-0.00651414 0.00809125,-0.00976941z"/>
   <path id="_202278176" class="fil0 str0" d="M0.256711 0.252424c-0.000490816,0.0056877 0.00143997,0.0115017 -0.000108268,0.0164315 -0.014526,0.04618 -0.0423546,0.0540078 -0.0661592,0.0572559 0.00167094,0.0053665 0.00186943,0.00959257 -0.00127757,0.0115161l-0.0389802 3.60894e-006c0.00240717,-0.00987768 0.00860011,-0.0169584 0.0185788,-0.0213289 -0.00716375,-0.0138475 -0.0119492,-0.0271537 0.0113573,-0.034072 0.00954566,0.0488759 0.0666247,0.0172724 0.0679275,-0.0298315 0.00288716,7.21789e-006 0.00577431,1.44358e-005 0.00866147,2.52626e-005z"/>
   <path id="_202278104" class="fil0 str0" d="M0.252384 0.256527c0.0056877,-0.000490816 0.0115017,0.00143997 0.0164279,-0.000108268 0.0461692,-0.0145296 0.0539934,-0.0423654 0.0572415,-0.0661772 0.00536289,0.00167455 0.00965393,0.00183695 0.0115775,-0.00131005 -7.21789e-006,-0.012985 -2.16537e-005,-0.0257715 -2.88716e-005,-0.0387564 -0.00987407,0.00240717 -0.0169873,0.00840523 -0.0213541,0.018384 -0.0138439,-0.00716736 -0.0271465,-0.0119528 -0.0340648,0.0113573 0.0488615,0.00955287 0.0172688,0.0666428 -0.0298243,0.0679456 7.21789e-006,0.00288716 1.80447e-005,0.00577792 2.52626e-005,0.00866507z"/>
   <path id="_202277960" class="fil0 str0" d="M0.337602 0.133004c0.000144358,-0.00602333 -0.000147967,-0.0124653 -3.60894e-006,-0.0184886 -0.0755749,0.00934716 -0.0868204,0.0561552 -0.0965573,0.106431 0.00425855,0.00264175 0.0116894,0.00779532 0.0159479,0.0104407 0.00803351,-0.0533474 0.023303,-0.0890868 0.080613,-0.0983834z"/>
   <path id="_202277744" class="fil0 str0" d="M0.133037 0.337613c-0.00601972,0.000144358 -0.0124617,-0.000147967 -0.018485,-3.60894e-006 0.00934716,-0.0755749 0.0561516,-0.0868204 0.106428,-0.0965573 0.00264536,0.00425855 0.00779532,0.0116894 0.0104407,0.0159479 -0.0533438,0.00803351 -0.0890832,0.023303 -0.0983834,0.080613z"/>
   <path id="_202277672" class="fil0 str0" d="M0.264716 0.264832c-0.0198456,-0.00956009 -0.0524596,-0.00194161 -0.0458155,-0.0261865 0.0010069,-0.00369195 0.00571296,-0.00616769 0.0121044,-0.00761126 0.00144358,-0.00639505 0.00384353,-0.0110253 0.00753187,-0.0120322 0.0242413,-0.00664767 0.0166228,0.0259808 0.0261793,0.04583z"/>
  </g>
 </g>
</svg>
