<?xml version="1.0" encoding="UTF-8"?>
<!DOCTYPE svg PUBLIC "-//W3C//DTD SVG 1.1//EN" "http://www.w3.org/Graphics/SVG/1.1/DTD/svg11.dtd">
<!-- Creator: CorelDRAW -->
<svg xmlns="http://www.w3.org/2000/svg" xml:space="preserve" width="110px" height="110px" style="shape-rendering:geometricPrecision; text-rendering:geometricPrecision; image-rendering:optimizeQuality; fill-rule:evenodd; clip-rule:evenodd"
viewBox="0 0 0.347639 0.347631"
 xmlns:xlink="http://www.w3.org/1999/xlink">
 <defs>
  <style type="text/css">
   <![CDATA[
    .str0 {stroke:#4C4C4C;stroke-width:0.00313298}
    .fil0 {fill:none}
   ]]>
  </style>
 </defs>
 <g id="Plan_x0020_1">
  <metadata id="CorelCorpID_0Corel-Layer"/>
  <g id="_202293320">
   <path id="_202293176" class="fil0 str0" d="M0.346059 0.346063l0 -0.272987c-0.0753691,0 -0.143618,0.0305567 -0.19302,0.0799594 -0.0494027,0.0494027 -0.0799631,0.117655 -0.0799631,0.19302l0.272984 7.39783e-006z"/>
   <path id="_202293104" class="fil0 str0" d="M0.00157204 0.00157574l0.267768 0c-0.0642205,0.11099 -0.156778,0.203548 -0.267768,0.267768l0 -0.267768z"/>
   <path id="_202293032" class="fil0 str0" d="M0.00157204 0.00157574l0.248626 0c-0.0596302,0.103055 -0.145571,0.188996 -0.248626,0.248626l0 -0.248626z"/>
   <path id="_202292960" class="fil0 str0" d="M0.346059 0.0862032l0 0.25986 -0.259856 -7.39783e-006c0,-0.143488 0.116364,-0.259852 0.259856,-0.259852z"/>
   <path id="_202292888" class="fil0 str0" d="M0.24735 0.346063c0.00168301,-0.0125097 0.00609211,-0.0278528 0.0174478,-0.0285445 0.00771224,-0.000473461 0.016253,0.00413539 0.0240429,0.00484188 -0.00600704,-0.00500833 -0.0153061,-0.00778991 -0.0204254,-0.013575 -0.00753839,-0.0085223 0.000192344,-0.0224894 0.0078454,-0.0325209 0.0100352,-0.00765675 0.0240023,-0.0153875 0.0325246,-0.0078454 0.0057851,0.0051193 0.00856668,0.0144147 0.013575,0.0204217 -0.000706493,-0.00778621 -0.00531534,-0.016327 -0.00484188,-0.0240392 0.000691697,-0.0113594 0.0160348,-0.0157685 0.0285445,-0.0174515l-0.000403182 0.0987092 -0.0983097 3.69891e-006z"/>
   <path id="_202292816" class="fil0 str0" d="M0.345578 0.302649l0.000484558 0.0434142 -0.043895 -3.69891e-006c0,-0.023969 0.0194378,-0.0434105 0.0434105,-0.0434105z"/>
   <path id="_202292744" class="fil0 str0" d="M0.00157204 0.200474l0 -0.198905 0.198905 3.69891e-006c0,0.109832 -0.0890699,0.198902 -0.198905,0.198902z"/>
   <path id="_202292672" class="fil0 str0" d="M0.00157204 0.18415l0 -0.182575 0.182578 3.69891e-006c0,0.100818 -0.0817608,0.182571 -0.182578,0.182571z"/>
   <path id="_202292600" class="fil0 str0" d="M0.00157204 0.160034l0 -0.158458 0.158465 3.69891e-006c0,0.0874978 -0.07096,0.158454 -0.158465,0.158454z"/>
   <path id="_202292528" class="fil0 str0" d="M0.0765009 0.00157204c0.0130498,0.00744222 0.0283633,0.00881821 0.0437545,0.0131385 0.0122915,0.00345479 0.0170298,0.0119068 0.00667654,0.0220936 -0.00503052,0.00495285 -0.00700574,0.00455706 -0.0145626,0.00663955 -0.00811912,0.00223784 -0.00992789,0.00209728 -0.00872204,0.01285 0.00263363,0.0234807 0.0228297,0.0390309 0.00882191,0.0561717 -0.0171408,0.0140115 -0.0326947,-0.00618458 -0.0561754,-0.00881821 -0.0107527,-0.00120585 -0.0106122,0.000602923 -0.01285,0.00872204 -0.00208249,0.00755688 -0.0016867,0.0095284 -0.00663955,0.0145626 -0.0101868,0.0103533 -0.0186388,0.00561495 -0.0220936,-0.00667654 -0.00432403,-0.0153912 -0.00569633,-0.0307047 -0.0131385,-0.0437545l0 -0.0749326 0.0749289 3.69891e-006z"/>
   <path id="_202292456" class="fil0 str0" d="M0.152998 0.152994c-0.0494064,0.0494064 -0.0799224,0.117696 -0.0799224,0.193061l-0.0715037 7.39783e-006 0 -0.0767192c0.0554948,-0.0321103 0.106384,-0.071304 0.151426,-0.116349z"/>
   <path id="_202292384" class="fil0 str0" d="M0.346063 0.00157574l0 0.0715c-0.0753691,0 -0.143666,0.0305197 -0.193065,0.0799187 0.045038,-0.045038 0.0842354,-0.0959276 0.116342,-0.151419l0.0767229 0z"/>
   <path id="_202292312" class="fil0 str0" d="M0.052606 0.00156834c-0.00262993,0.00848531 -0.00604772,0.019693 -0.00387646,0.028674 0.00119845,0.00496764 0.00366932,0.00833365 0.00732385,0.0101831 0.00622897,0.00315147 0.0136379,0.00333272 0.0204402,0.00309599 0.00638433,-0.000221935 0.00465693,0.00405401 0.000140559,0.00528575 -0.0114333,0.00312188 -0.017899,0.000473461 -0.0253339,0.000332902 -0.00114296,-2.21935e-005 -0.0016978,-5.54837e-005 -0.00195673,0.00020344 -0.000255225,0.000258924 -0.000225634,0.000810062 -0.00020344,0.00195673 0.000140559,0.00743482 0.00279268,0.0139005 -0.000329203,0.0253302 -0.00123544,0.00451637 -0.00550768,0.00624747 -0.00528945,-0.000140559 0.00023673,-0.0067986 5.54837e-005,-0.0142075 -0.00309599,-0.0204365 -0.00184946,-0.00365453 -0.00521177,-0.0061291 -0.0101794,-0.00732755 -0.00898466,-0.00216756 -0.0201887,0.00125023 -0.028674,0.00387646l0 -0.0510339 0.0510339 0z"/>
   <path id="_202292240" class="fil0 str0" d="M0.269699 0.253842c0.0248382,0.01801 0.0525024,-0.00122064 0.0612466,-0.0235066 0.0101757,-0.0259442 0.00925468,-0.0552211 -0.0149732,-0.0770632 -0.0228371,-0.0205845 -0.0600926,-0.023403 -0.0913669,-0.0124912 -0.041413,0.014448 -0.0723619,0.0458111 -0.0854264,0.0878603 -0.00946922,0.0304828 -0.00610321,0.0657741 0.0136897,0.0877308 0.0218421,0.0242279 0.0511227,0.0251489 0.0770632,0.0149732 0.022286,-0.00874053 0.0415166,-0.0364084 0.0235066,-0.0612466 -0.011659,-0.0144665 -0.0306788,-0.0230368 -0.0492954,-0.0226226 -0.0030664,6.65805e-005 -0.00536712,0.000628815 -0.0010209,-0.00114296 0.00379878,-0.00154984 0.0081746,-0.00255965 0.0131016,-0.00336971 0.00685039,-0.00112447 0.00665435,-0.000299612 0.000577031,-0.00357685 -0.00418717,-0.00226004 -0.00786759,-0.00471612 -0.010135,-0.00771593 -0.00287776,-0.00379509 -0.00085075,-0.00229333 0.00194933,-0.00122804 0.00451268,0.0017052 0.00939894,0.00287776 0.01457,0.00363233 0.004091,0.000595525 0.0040984,0.000891438 0.00127243,-0.00214907 -0.00209359,-0.00225264 -0.021339,-0.0240207 -0.0129462,-0.0212651 0.00699465,0.00229333 0.0135491,0.00819309 0.0200111,0.0141964 0.00304421,0.00282967 0.00274459,0.00282227 0.00214907,-0.00127243 -0.000754578,-0.00517108 -0.00192344,-0.0100573 -0.00363233,-0.0145663 -0.00106159,-0.00280008 -0.00256705,-0.00482708 0.00123174,-0.00195303 0.00299612,0.00227113 0.0054522,0.00595155 0.00771224,0.0101387 0.00328094,0.00607732 0.00245608,0.00627336 0.00357685,-0.000577031 0.000810062,-0.00492695 0.00181987,-0.00930277 0.00336971,-0.0131016 0.00177548,-0.00434622 0.00121324,-0.0020455 0.00114296,0.0010209 -0.000414278,0.0186129 0.0081635,0.0376401 0.0226263,0.0492954z"/>
   <path id="_202292168" class="fil0 str0" d="M0.275824 0.147557c0.024546,0.00458665 0.0419309,0.0209137 0.0476383,0.0399927 0.0122841,0.041069 -0.0436324,0.0956058 -0.0580064,0.0323137 -0.000495654,-0.00218236 -0.00061402,-0.00318476 0.000425375,-0.00527835 0.00132051,-0.00265212 0.00338821,-0.00368782 0.00619938,-0.00310339 0.00337341,0.000687998 0.00379139,0.00167191 0.00440541,0.00488627 0.00492695,0.0258073 0.0320696,0.0187424 0.0347735,-0.00592936 0.00209728,-0.0191493 -0.013845,-0.0395562 -0.0385982,-0.0218495 -0.00355836,-0.0357648 -0.0357093,-0.0283041 -0.0422675,0.00222305 -0.0266396,-0.0273017 -0.0672869,0.0133457 -0.0399853,0.0399853 -0.0305271,0.00655448 -0.0379878,0.0387091 -0.00222305,0.0422675 -0.0177067,0.0247494 0.00270021,0.0406955 0.0218495,0.0385945 0.0246755,-0.00270391 0.0317404,-0.0298428 0.00592936,-0.0347698 -0.00321436,-0.00061402 -0.00419457,-0.0010357 -0.00488627,-0.00440541 -0.000584428,-0.00281487 0.000451268,-0.00488257 0.00310339,-0.00619938 0.00209728,-0.00103939 0.00309969,-0.00092103 0.00527835,-0.000425375 0.0632921,0.014374 0.00875903,0.0702868 -0.0323137,0.0580027 -0.017777,-0.00531904 -0.0327946,-0.0212651 -0.0382246,-0.0436287 -0.00831146,-0.0342113 0.00839653,-0.0730868 0.0339412,-0.0983948 0.023895,-0.0236767 0.0607214,-0.0403071 0.0929611,-0.0342815z"/>
  </g>
 </g>
</svg>
