<?xml version="1.0" encoding="UTF-8"?>
<!DOCTYPE svg PUBLIC "-//W3C//DTD SVG 1.1//EN" "http://www.w3.org/Graphics/SVG/1.1/DTD/svg11.dtd">
<!-- Creator: CorelDRAW -->
<svg xmlns="http://www.w3.org/2000/svg" xml:space="preserve" width="110px" height="110px" style="shape-rendering:geometricPrecision; text-rendering:geometricPrecision; image-rendering:optimizeQuality; fill-rule:evenodd; clip-rule:evenodd"
viewBox="0 0 1.25331 1.25331"
 xmlns:xlink="http://www.w3.org/1999/xlink">
 <defs>
  <style type="text/css">
   <![CDATA[
    .str0 {stroke:#4C4C4C;stroke-width:0.0112955}
    .fil1 {fill:none}
    .fil0 {fill:white}
   ]]>
  </style>
 </defs>
 <g id="Capa_x0020_1">
  <metadata id="CorelCorpID_0Corel-Layer"/>
  <g id="_202808944">
   <polygon id="_202810408" class="fil0 str0" points="0.00566778,0.00565444 1.24764,0.00565444 1.24764,1.24764 0.00566778,1.24764 "/>
   <line id="_202810360" class="fil1 str0" x1="0.317609" y1="0.317582" x2="1.17463" y2= "0.00565444" />
   <path id="_202810312" class="fil0 str0" d="M1.24768 0.0056411l-4.00078e-005 0.267199c-0.0406213,0.0197239 -0.0530637,0.0535305 -0.0487429,0.0957121 0.0039341,0.0385142 0.0141494,0.0400612 -0.00841498,0.0731477l-0.0288323 0.0422616c-0.0348468,0.0309661 -0.00261385,0.0870704 -0.0400879,0.0826962 -0.0177635,-0.00206707 -0.0131893,-0.00516101 -0.0152963,0.0141628 -0.00398745,0.0363271 -0.0145895,0.0430351 -0.0272187,0.0791088 -0.00241381,0.00690802 0.00190704,0.0105354 0.00948186,0.0109221 0.0168566,0.000866836 0.0248582,0.0245915 0.0196438,0.0409013 -0.0020404,0.00638792 -0.00610786,0.0116289 -0.0124558,0.0139227 -0.0354336,0.0128425 -0.0514767,0.0538372 -0.0238847,0.0565844 0.0162298,0.00161365 0.0548107,-0.0187903 0.0505032,0.013416 0.00202706,0.0175768 -0.0126558,0.044182 -0.0437819,0.0588115 -0.0262185,0.0123091 -0.0463557,0.00536105 -0.0664263,0.0299259 -0.0245248,0.0299925 -0.00142695,0.0547974 0.0265252,0.0497831 0.0138427,-0.00248049 0.0205107,-0.00516101 0.035567,-0.00122691 0.0249382,0.00652128 0.0486362,0.0214842 0.06812,0.0427284 0.00364071,0.00397411 0.00661463,0.00738811 0.00872171,0.0103887 0.00188037,0.00266719 0.00309394,0.00498764 0.00350735,0.00705472 0.00384075,0.0192838 -0.0505966,0.0152163 -0.0598384,0.0128825 -0.0179368,-0.00454756 -0.0171634,-0.00265385 -0.0088684,0.0163099 0.01703,0.0389676 0.0672665,0.0590382 0.0573046,0.12085 -0.0618254,0.00997529 -0.081896,-0.0402746 -0.12085,-0.0573179 -0.0189771,-0.00828162 -0.0208574,-0.00905511 -0.0163099,0.00888174 0.00233379,0.00924181 0.00640125,0.0636791 -0.0128825,0.0598384 -0.00206707,-0.000413414 -0.00438753,-0.00162699 -0.00705472,-0.00350735 -0.00300059,-0.00212042 -0.00642793,-0.005081 -0.010402,-0.00872171 -0.0212442,-0.0194838 -0.0362071,-0.0431818 -0.042715,-0.06812 -0.0039341,-0.0150696 -0.00126691,-0.0217376 0.00121357,-0.0355803 0.00502765,-0.0279521 -0.0197772,-0.0510367 -0.0497697,-0.0265252 -0.0245648,0.0200839 -0.0176168,0.0402079 -0.0299259,0.0664397 -0.0146295,0.0311261 -0.0412347,0.045809 -0.0588115,0.0437819 -0.0322063,0.00430751 -0.0118023,-0.0342734 -0.013416,-0.0505032 -0.0027472,-0.0275921 -0.0437419,-0.0115489 -0.0565844,0.0238847 -0.00228045,0.00634791 -0.00753481,0.0104154 -0.0139227,0.0124558 -0.0163099,0.00521435 -0.0400345,-0.00280055 -0.040888,-0.0196438 -0.000386742,-0.00757482 -0.00402746,-0.0118957 -0.0109221,-0.00948186 -0.0360871,0.0126291 -0.042795,0.0232312 -0.0791222,0.0272187 -0.0193104,0.00209374 -0.0162298,-0.00246715 -0.0141628,0.0152963 0.00438753,0.037474 -0.0517168,0.00524103 -0.0826962,0.0400879l-0.0422483 0.0288323c-0.0330865,0.0225644 -0.0346468,0.0123491 -0.073161,0.00841498 -0.0421683,-0.00432085 -0.0759749,0.00812159 -0.0956987,0.0487429l-0.267159 -4.00078e-005 -1.33359e-005 -0.267146c0.0406213,-0.0197239 0.0530637,-0.0535305 0.0487295,-0.0957121 -0.0039341,-0.0385142 -0.0141361,-0.0400612 0.00842832,-0.0731477l0.0288323 -0.0422616c0.0348468,-0.0309661 0.00261385,-0.0870704 0.0400745,-0.0826962 0.0177768,0.00206707 0.0132026,0.00516101 0.0153097,-0.0141628 0.00398745,-0.0363271 0.0145762,-0.0430351 0.0272187,-0.0791088 0.00241381,-0.00690802 -0.00190704,-0.0105487 -0.00948186,-0.0109355 -0.0168566,-0.000853501 -0.0248582,-0.0245781 -0.0196438,-0.040888 0.0020404,-0.00638792 0.00610786,-0.0116289 0.0124424,-0.0139227 0.0354336,-0.0128425 0.0514901,-0.0538372 0.023898,-0.0565844 -0.0162432,-0.00161365 -0.0548107,0.018777 -0.0505166,-0.013416 -0.00202706,-0.0175768 0.0126691,-0.044182 0.0437952,-0.0588115 0.0262185,-0.0123224 0.0463424,-0.00536105 0.0664263,-0.0299259 0.0245248,-0.0299925 0.00142695,-0.0548107 -0.0265252,-0.0497831 -0.0138427,0.00248049 -0.0205107,0.00514767 -0.035567,0.00122691 -0.0249382,-0.00652128 -0.0486362,-0.0214842 -0.06812,-0.0427284 -0.00364071,-0.00397411 -0.00661463,-0.00740145 -0.00872171,-0.0103887 -0.00188037,-0.00266719 -0.00309394,-0.00498764 -0.00350735,-0.00705472 -0.00384075,-0.0192838 0.0505832,-0.0152163 0.0598251,-0.0128825 0.0179502,0.00453422 0.0171767,0.00265385 0.00888174,-0.0163099 -0.01703,-0.0389676 -0.0672665,-0.0590382 -0.0573046,-0.120864 0.0618254,-0.00996195 0.081896,0.0402879 0.12085,0.0573312 0.0189771,0.00828162 0.0208574,0.00905511 0.0163099,-0.00888174 -0.00233379,-0.00924181 -0.00640125,-0.0636791 0.0128825,-0.0598384 0.00206707,0.000413414 0.00438753,0.00162699 0.00705472,0.00350735 0.00300059,0.00210708 0.00641459,0.005081 0.0103887,0.00872171 0.0212442,0.0194838 0.0362071,0.0431818 0.0427284,0.06812 0.0039341,0.0150563 0.00125358,0.0217376 -0.00122691,0.035567 -0.00501432,0.0279521 0.0197905,0.05105 0.0497831,0.0265252 0.0245648,-0.0200706 0.0176034,-0.0402079 0.0299259,-0.0664263 0.0146295,-0.0311261 0.0412347,-0.045809 0.0588115,-0.0437819 0.032193,-0.00430751 0.0118023,0.0342734 0.013416,0.0505032 0.0027472,0.0275921 0.0437419,0.0115489 0.0565711,-0.0238847 0.00229378,-0.00634791 0.00754815,-0.0104154 0.0139227,-0.0124558 0.0163099,-0.00521435 0.0400478,0.00280055 0.0409013,0.0196438 0.000386742,0.00757482 0.00402746,0.0118957 0.0109221,0.00948186 0.0360871,-0.0126291 0.0427817,-0.0232312 0.0791222,-0.0272187 0.0193104,-0.00210708 0.0162298,0.00246715 0.0141628,-0.0152963 -0.00438753,-0.037474 0.0517168,-0.00524103 0.0826962,-0.0400879l0.0422483 -0.0288323c0.0330865,-0.0225644 0.0346468,-0.0123624 0.0731477,-0.00842832 0.0421816,0.00432085 0.0759882,-0.00810825 0.0957121,-0.0487295l0.267212 -1.33359e-005z"/>
   <path id="_202810264" class="fil0 str0" d="M0.00566778 0.809158c0.0517168,-0.0463557 0.069827,-0.101553 0.0388076,-0.169687 -0.0127358,-0.0444887 0.0461157,0.00948186 0.064586,-0.0225244 0.020644,-0.035767 0.0723475,-0.0439953 0.0651994,-0.0235646 -0.0126425,0.0360737 -0.0232312,0.0427817 -0.0272187,0.0791088 -0.00210708,0.0193238 0.00246715,0.0162298 -0.0153097,0.0141628 -0.0374607,-0.00437419 -0.00522769,0.0517301 -0.0400745,0.0826962l-0.0288323 0.0422616c-0.0225644,0.0330865 -0.0123624,0.0346335 -0.00842832,0.0731477 0.00432085,0.0421816 -0.00810825,0.0759882 -0.0487295,0.0957121l0 -0.171314z"/>
   <polygon id="_202810216" class="fil0 str0" points="0.0252716,1.22804 0.346241,0.346214 1.22803,0.0252716 0.907071,0.907084 "/>
   <path id="_202810168" class="fil0 str0" d="M0.0720141 0.0719874c-0.00710806,0.0466091 -0.00896176,0.093725 0.0215776,0.121971 0.0245115,0.0226978 0.029059,0.0219243 -0.00168033,0.0202706 -0.0551441,-0.00297392 -0.0560243,0.0912579 0.0649194,0.141574 -0.0786687,0.0323263 -0.0873638,0.105954 -0.0674132,0.148029 0.00476093,0.0100286 0.0103754,0.0182302 0.0181102,0.0215376 0.0657862,0.0281522 0.112542,-0.0504632 0.0739478,-0.0543173 -0.0162432,-0.00161365 -0.0548107,0.0187903 -0.0505166,-0.013416 -0.00202706,-0.0175768 0.0126691,-0.044182 0.0437952,-0.0588115 0.0262185,-0.0123224 0.0463424,-0.00536105 0.0664263,-0.0299259 0.0245115,-0.0299925 0.00142695,-0.0548107 -0.0265252,-0.0497831 -0.0138427,0.00248049 -0.0205107,0.00514767 -0.035567,0.00122691 -0.0249382,-0.00652128 -0.0486362,-0.0214842 -0.06812,-0.0427284 -0.00364071,-0.00397411 -0.00661463,-0.00740145 -0.00872171,-0.0103887 -0.00188037,-0.00266719 -0.00309394,-0.00498764 -0.00350735,-0.00705472 -0.00384075,-0.0192838 0.0505832,-0.0152296 0.0598251,-0.0128825 0.0179502,0.00453422 0.0171767,0.00265385 0.00888174,-0.0163099 -0.01703,-0.0389676 -0.0672665,-0.0590382 -0.0573046,-0.120864 0.0618254,-0.00996195 0.081896,0.0402879 0.12085,0.0573179 0.0189771,0.00829496 0.0208574,0.00906844 0.0163099,-0.0088684 -0.00233379,-0.00924181 -0.00640125,-0.0636791 0.0128825,-0.0598384 0.00206707,0.000413414 0.00438753,0.00162699 0.00705472,0.00350735 0.00300059,0.00210708 0.00641459,0.005081 0.0103887,0.00872171 0.0212575,0.0194838 0.0362071,0.0431818 0.0427284,0.06812 0.0039341,0.0150563 0.00125358,0.0217376 -0.00122691,0.035567 -0.00501432,0.0279521 0.0197905,0.05105 0.0497831,0.0265252 0.0245648,-0.0200706 0.0176034,-0.0402079 0.0299259,-0.0664263 0.0146295,-0.0311261 0.0412347,-0.0458223 0.0588115,-0.0437819 0.032193,-0.00430751 0.0118023,0.03426 0.013416,0.0505032 0.00385409,0.0385942 0.0824695,-0.0081616 0.0543173,-0.0739478 -0.00330731,-0.00772151 -0.0115089,-0.0133493 -0.0215376,-0.0181102 -0.0420749,-0.0199506 -0.115703,-0.0112555 -0.148029,0.0674132 -0.0503032,-0.120944 -0.144535,-0.120064 -0.141574,-0.064906 0.00165366,0.030726 0.00244048,0.0261785 -0.0202573,0.00166699 -0.0282589,-0.0305393 -0.0753748,-0.0286856 -0.121971,-0.0215909z"/>
   <polygon id="_202810120" class="fil0 str0" points="0.0892842,1.16403 0.376087,0.376074 1.16403,0.0892842 0.877225,0.877238 "/>
   <polygon id="_202810072" class="fil0 str0" points="0.153257,1.10007 0.40592,0.405906 1.10006,0.153257 0.847393,0.847406 "/>
   <path id="_202810024" class="fil0 str0" d="M0.458356 0.386822c0.196665,0.132599 0.277681,0.0573179 0.335959,-0.122291l-0.335959 0.122291z"/>
   <path id="_202809976" class="fil0 str0" d="M0.534998 0.358924c0.0926181,0.0856701 0.145949,0.0250582 0.175394,-0.0638392l-0.175394 0.0638392z"/>
   <path id="_202809928" class="fil0 str0" d="M1.24764 0.444154c-0.0517168,0.0463557 -0.069827,0.101553 -0.0388076,0.169687 0.0127358,0.0444887 -0.046129,-0.00948186 -0.064586,0.0225244 -0.020644,0.035767 -0.0723475,0.0439953 -0.0651994,0.0235646 0.0126425,-0.0360737 0.0232312,-0.0427817 0.0272187,-0.0791088 0.00210708,-0.0193238 -0.00246715,-0.0162298 0.0152963,-0.0141628 0.037474,0.00437419 0.00524103,-0.0517301 0.0400879,-0.0827095l0.0288323 -0.0422483c0.0225644,-0.0330865 0.0123491,-0.0346335 0.00842832,-0.0731477 -0.00433418,-0.0421816 0.00810825,-0.0759882 0.0487295,-0.0957121l0 0.171314z"/>
   <path id="_202809880" class="fil0 str0" d="M0.444154 1.24766c0.0463424,-0.0517168 0.10154,-0.069827 0.169673,-0.0388076 0.0444887,0.0127358 -0.00948186,-0.046129 0.0225244,-0.0645993 0.035767,-0.0206307 0.0439953,-0.0723342 0.023578,-0.0651861 -0.0360871,0.0126425 -0.0427817,0.0232312 -0.0791222,0.0272187 -0.0193104,0.00210708 -0.0162298,-0.00248049 -0.0141628,0.0152963 0.00438753,0.037474 -0.0517168,0.00524103 -0.0826962,0.0400879l-0.0422616 0.0288323c-0.0330731,0.0225644 -0.0346335,0.0123491 -0.0731477,0.00841498 -0.0421683,-0.00432085 -0.0759749,0.00812159 -0.0956987,0.0487429l0.171314 0z"/>
   <path id="_202809832" class="fil0 str0" d="M0.386849 0.458343c0.132599,0.196679 0.0573179,0.277694 -0.122291,0.335972l0.122291 -0.335972z"/>
   <path id="_202809784" class="fil0 str0" d="M0.386822 0.458343c0.132599,0.196679 0.0573179,0.277694 -0.122277,0.335972l0.122277 -0.335972z"/>
   <path id="_202809736" class="fil0 str0" d="M0.35895 0.534998c0.0856701,0.0926181 0.0250582,0.145949 -0.0638392,0.175394l0.0638392 -0.175394z"/>
   <path id="_202809688" class="fil0 str0" d="M0.358924 0.534998c0.0856701,0.0926181 0.0250582,0.145949 -0.0638392,0.175381l0.0638392 -0.175381z"/>
   <path id="_202809640" class="fil0 str0" d="M1.1813 1.18132c0.00709472,-0.0466091 0.00896176,-0.093725 -0.0215776,-0.121984 -0.0245115,-0.0226844 -0.029059,-0.021911 0.00166699,-0.0202573 0.0551575,0.00296058 0.0560376,-0.0912712 -0.064906,-0.141574 0.0786687,-0.0323263 0.0873638,-0.105954 0.0674132,-0.148029 -0.00476093,-0.010042 -0.0103887,-0.0182302 -0.0181102,-0.0215509 -0.0657862,-0.0281388 -0.112542,0.0504766 -0.0739478,0.0543306 0.0162432,0.00161365 0.0548107,-0.0187903 0.0505032,0.013416 0.0020404,0.0175768 -0.0126558,0.044182 -0.0437819,0.0588115 -0.0262185,0.0123224 -0.0463557,0.00536105 -0.0664263,0.0299259 -0.0245248,0.0299925 -0.00142695,0.0547974 0.0265252,0.0497831 0.0138427,-0.00248049 0.0205107,-0.00516101 0.035567,-0.00122691 0.0249382,0.00652128 0.0486362,0.0214709 0.06812,0.0427284 0.00364071,0.00397411 0.00661463,0.00738811 0.00872171,0.0103887 0.00188037,0.00266719 0.00309394,0.00498764 0.00350735,0.00705472 0.00384075,0.0192838 -0.0505966,0.0152163 -0.0598384,0.0128825 -0.0179368,-0.00454756 -0.0171634,-0.00265385 -0.0088684,0.0163099 0.01703,0.0389676 0.0672665,0.0590382 0.0573046,0.12085 -0.0618254,0.00997529 -0.081896,-0.0402746 -0.12085,-0.0573179 -0.0189771,-0.00828162 -0.0208574,-0.00906844 -0.0163099,0.00888174 0.00233379,0.00924181 0.00640125,0.0636658 -0.0128825,0.0598384 -0.00206707,-0.000413414 -0.00438753,-0.00162699 -0.00705472,-0.00350735 -0.00300059,-0.00212042 -0.00642793,-0.005081 -0.010402,-0.00872171 -0.0212442,-0.0194838 -0.0362071,-0.0431818 -0.042715,-0.06812 -0.0039341,-0.0150696 -0.00126691,-0.0217376 0.00121357,-0.0355803 0.00502765,-0.0279521 -0.0197772,-0.0510367 -0.0497697,-0.0265252 -0.0245648,0.0200839 -0.0176034,0.0402079 -0.0299259,0.0664397 -0.0146295,0.0311261 -0.0412347,0.045809 -0.0588115,0.0437819 -0.0322063,0.00430751 -0.0118023,-0.0342734 -0.013416,-0.0505032 -0.00385409,-0.0385942 -0.0824695,0.00814826 -0.0543173,0.0739478 0.00330731,0.00772151 0.0115089,0.0133493 0.0215376,0.0180969 0.0420749,0.0199506 0.115703,0.0112689 0.148029,-0.0674132 0.0503032,0.120944 0.144535,0.120077 0.141574,0.0649194 -0.00165366,-0.030726 -0.00244048,-0.0261918 0.0202573,-0.00166699 0.0282589,0.0305393 0.0753614,0.0286856 0.121971,0.0215909z"/>
   <path id="_202809592" class="fil0 str0" d="M0.794956 0.86649c-0.196665,-0.132599 -0.277681,-0.0573179 -0.335959,0.122291l0.335959 -0.122291z"/>
   <path id="_202809544" class="fil0 str0" d="M0.86649 0.794969c-0.132599,-0.196679 -0.0573179,-0.277694 0.122277,-0.335972l-0.122277 0.335972z"/>
   <path id="_202809496" class="fil0 str0" d="M0.718314 0.894389c-0.0926181,-0.0856701 -0.145949,-0.0250582 -0.175394,0.0638392l0.175394 -0.0638392z"/>
   <path id="_202809448" class="fil0 str0" d="M0.894389 0.718314c-0.0856701,-0.0926181 -0.0250582,-0.145949 0.0638392,-0.175381l-0.0638392 0.175381z"/>
   <polygon id="_202809400" class="fil0 str0" points="0.50994,0.243594 0.770084,0.148442 0.783967,0.186437 0.523836,0.281588 "/>
   <polygon id="_202809352" class="fil0 str0" points="0.743426,1.00974 0.483281,1.1049 0.469399,1.0669 0.72953,0.97175 "/>
   <polygon id="_202809304" class="fil0 str0" points="0.243621,0.509913 0.148456,0.770058 0.18645,0.78394 0.281602,0.523796 "/>
   <polygon id="_202809256" class="fil0 str0" points="1.00974,0.743426 1.1049,0.483281 1.06692,0.469385 0.971764,0.72953 "/>
   <polygon id="_202809208" class="fil0 str0" points="0.346241,0.346214 0.307887,0.455062 0.269893,0.441166 0.317609,0.317596 0.441206,0.269866 0.455102,0.30786 "/>
   <polygon id="_202809160" class="fil0 str0" points="0.907124,0.907124 0.945479,0.798276 0.983459,0.812172 0.935757,0.935743 0.812159,0.983459 0.798263,0.945479 "/>
   <polygon id="_202809112" class="fil0 str0" points="0.839845,0.123518 1.09998,0.0283522 1.11387,0.0663463 0.853741,0.161512 "/>
   <polygon id="_202809064" class="fil0 str0" points="0.413521,1.12982 0.15339,1.22497 0.139494,1.18699 0.399625,1.09183 "/>
   <polygon id="_202809016" class="fil0 str0" points="0.123544,0.839818 0.0283789,1.09996 0.066373,1.11386 0.161538,0.853714 "/>
   <polygon id="_202808968" class="fil0 str0" points="1.12982,0.413521 1.22499,0.153377 1.18699,0.139481 1.09183,0.399625 "/>
  </g>
 </g>
</svg>
