<?xml version="1.0" encoding="UTF-8"?>
<!DOCTYPE svg PUBLIC "-//W3C//DTD SVG 1.1//EN" "http://www.w3.org/Graphics/SVG/1.1/DTD/svg11.dtd">
<!-- Creator: CorelDRAW -->
<svg xmlns="http://www.w3.org/2000/svg" xml:space="preserve" width="110px" height="110px" style="shape-rendering:geometricPrecision; text-rendering:geometricPrecision; image-rendering:optimizeQuality; fill-rule:evenodd; clip-rule:evenodd"
viewBox="0 0 1.63535 1.63535"
 xmlns:xlink="http://www.w3.org/1999/xlink">
 <defs>
  <style type="text/css">
   <![CDATA[
    .str0 {stroke:#4C4C4C;stroke-width:0.0147384}
    .fil0 {fill:white}
   ]]>
  </style>
 </defs>
 <g id="Capa_x0020_1">
  <metadata id="CorelCorpID_0Corel-Layer"/>
  <g id="_202801360">
   <polygon id="_202802104" class="fil0 str0" points="1.62797,0.0073779 0.0073779,0.0073779 0.0073779,1.62797 1.62797,1.62797 "/>
   <polygon id="_202802056" class="fil0 str0" points="0.0073779,1.62797 1.62797,1.62797 1.62797,0.0073779 0.0073779,0.0073779 "/>
   <polygon id="_202802008" class="fil0 str0" points="1.62796,0.426039 1.62796,1.62796 0.426021,1.62796 "/>
   <polygon id="_202801960" class="fil0 str0" points="0.0073953,1.20931 0.0073953,0.0073953 1.20933,0.0073953 "/>
   <path id="_202801912" class="fil0 str0" d="M1.62796 1.62796l-0.59761 0c0.019019,-0.0325393 0.0460944,-0.0549514 0.0858202,-0.0592668 -0.00408916,-0.0322261 0.00814353,-0.0529503 0.0247438,-0.0663837 0.0863771,0.0966261 0.189059,0.139014 0.232839,0.0330091 -0.112861,0.000191408 -0.127216,-0.104369 -0.059493,-0.143364 -0.0466687,-0.0600672 -0.130557,-0.0685065 -0.223564,-0.024883 -0.00662967,-0.0420227 0.00582923,-0.0758148 0.0284501,-0.103987 -0.0591798,-0.0784075 -0.0526197,-0.129548 -0.0301032,-0.174042 0.044511,-0.0225339 0.0956342,-0.029094 0.174059,0.0300858 0.0281543,-0.0226035 0.0619639,-0.0350798 0.103969,-0.0284501 -0.0436235,0.0930241 -0.0351668,0.176913 0.024883,0.223582 0.038995,-0.0677409 0.143556,-0.0533679 0.143364,0.059493 0.106005,-0.0437802 0.0636169,-0.146462 -0.0329917,-0.232839 0.0134159,-0.0166003 0.0341402,-0.0288504 0.0663663,-0.0247438 0.00431537,-0.0397258 0.0267275,-0.0668013 0.0592668,-0.0858202l0 0.59761z"/>
   <path id="_202801864" class="fil0 str0" d="M0.0073953 0.0073953l0.59761 0c-0.019019,0.0325393 -0.0460944,0.0549514 -0.0858202,0.0592668 0.00408916,0.0322261 -0.00814353,0.0529503 -0.0247438,0.0663837 -0.0863771,-0.0966261 -0.189059,-0.139014 -0.232839,-0.0330091 0.112861,-0.000191408 0.127216,0.104369 0.059493,0.143364 0.0466687,0.0600672 0.130557,0.0685065 0.223564,0.024883 0.00662967,0.0420227 -0.00582923,0.0758148 -0.0284501,0.103987 0.0591798,0.0784075 0.0526197,0.129548 0.0301032,0.174042 -0.044511,0.0225339 -0.0956342,0.029094 -0.174059,-0.0300858 -0.0281543,0.0226035 -0.0619639,0.0350798 -0.103969,0.0284501 0.0436235,-0.0930241 0.0351668,-0.176913 -0.024883,-0.223582 -0.038995,0.0677409 -0.143556,0.0533679 -0.143364,-0.059493 -0.106005,0.0437802 -0.0636169,0.146462 0.0329917,0.232839 -0.0134159,0.0166003 -0.0341402,0.0288504 -0.0663663,0.0247438 -0.00431537,0.0397258 -0.0267275,0.0668013 -0.0592668,0.0858202l0 -0.59761z"/>
   <path id="_202801816" class="fil0 str0" d="M1.62796 1.42553l0 0.202422 -0.202422 0c0.0170005,-0.117994 0.0844804,-0.185474 0.202422,-0.202422z"/>
   <path id="_202801768" class="fil0 str0" d="M0.0073953 0.209818l0 -0.202422 0.202422 0c-0.0170005,0.117994 -0.0844804,0.185474 -0.202422,0.202422z"/>
   <path id="_202801720" class="fil0 str0" d="M1.48557 1.57529c-0.00328873,0.0123893 0.0435017,0.0309384 0.0522717,0.0206894 0.0120587,-0.0190364 0.0390994,-0.046077 0.0581357,-0.0581357 0.010249,-0.00876995 -0.00830013,-0.0555604 -0.0206894,-0.0522717 -0.0290766,0.00784771 -0.0818703,0.0606414 -0.089718,0.089718z"/>
   <path id="_202801672" class="fil0 str0" d="M0.149785 0.0600672c0.00328873,-0.0123893 -0.0435017,-0.0309384 -0.0522717,-0.0206894 -0.0120587,0.0190364 -0.0390994,0.046077 -0.0581357,0.0581357 -0.010249,0.00876995 0.00830013,0.0555604 0.0206894,0.0522717 0.0290766,-0.00784771 0.0818703,-0.0606414 0.089718,-0.089718z"/>
   <polygon id="_202801624" class="fil0 str0" points="0.0073953,1.20933 0.0073953,1.62796 0.426021,1.62796 "/>
   <polygon id="_202801576" class="fil0 str0" points="1.62796,0.426021 1.62796,0.0073953 1.20933,0.0073953 "/>
   <path id="_202801528" class="fil0 str0" d="M0.0558736 1.62796l0.208217 0c-0.00657746,-0.064313 -0.0348536,-0.114253 -0.064748,-0.157354 -0.0827925,0.0995842 -0.134264,0.117872 -0.143469,0.157354z"/>
   <path id="_202801480" class="fil0 str0" d="M1.57948 0.0073953l-0.208217 0c0.00657746,0.064313 0.0348536,0.114253 0.064748,0.157354 0.0827925,-0.0995842 0.134264,-0.117872 0.143469,-0.157354z"/>
   <path id="_202801432" class="fil0 str0" d="M0.0073953 1.57948l0 -0.208217c0.064313,0.00657746 0.114253,0.0348536 0.157354,0.064748 -0.0995842,0.0827925 -0.117872,0.134264 -0.157354,0.143469z"/>
   <path id="_202801384" class="fil0 str0" d="M1.62796 0.0558736l0 0.208217c-0.064313,-0.00657746 -0.114253,-0.0348536 -0.157354,-0.064748 0.0995842,-0.0827925 0.117872,-0.134264 0.157354,-0.143469z"/>
  </g>
 </g>
</svg>
