<?xml version="1.0" encoding="UTF-8"?>
<!DOCTYPE svg PUBLIC "-//W3C//DTD SVG 1.1//EN" "http://www.w3.org/Graphics/SVG/1.1/DTD/svg11.dtd">
<!-- Creator: CorelDRAW -->
<svg xmlns="http://www.w3.org/2000/svg" xml:space="preserve" width="111px" height="111px" style="shape-rendering:geometricPrecision; text-rendering:geometricPrecision; image-rendering:optimizeQuality; fill-rule:evenodd; clip-rule:evenodd"
viewBox="0 0 0.372302 0.372302"
 xmlns:xlink="http://www.w3.org/1999/xlink">
 <defs>
  <style type="text/css">
   <![CDATA[
    .str0 {stroke:#4C4C4C;stroke-width:0.00335539}
    .fil0 {fill:none}
    .fil1 {fill:white}
   ]]>
  </style>
 </defs>
 <g id="Plan_x0020_1">
  <metadata id="CorelCorpID_0Corel-Layer"/>
  <g id="_95938984">
   <polygon id="_95939536" class="fil0 str0" points="0.00167968,0.00167968 0.370623,0.00167968 0.370623,0.370623 0.00167968,0.370623 "/>
   <path id="_95939488" class="fil0 str0" d="M0.0781248 0.00167968c-0.00148556,0.0439489 0.0253893,0.0524741 0.00649687,0.0840354 0.0200452,-0.0150577 0.0378046,-0.0144674 0.0518086,-0.00242444 0.0108862,0.00936104 0.00671871,0.0116032 0.0174821,-0.000392189 0.0200848,-0.0223865 0.051658,-0.053302 0.0821854,-0.0165512 0.00993149,0.0119558 0.00867966,0.0191816 0.0106802,-0.000174306 0.00142614,-0.0137979 0.00339501,-0.0275047 0.00629483,-0.0410531 0.00136672,-0.00639783 0.00266213,-0.00676229 -0.00415958,-0.00861627 -0.0169949,-0.00461515 -0.0366835,0.00152122 -0.0590581,0.0207543 -0.0101296,0.00870739 -0.009056,0.01173 -0.00727728,-0.00215506 0.000534803,-0.00416354 0.000661571,-0.00789132 0.000332766,-0.0110011 -0.000800224,-0.00761401 -0.00255121,-0.00732482 -0.00934123,-0.0063701 -0.0103514,0.00145783 -0.0182982,0.00515788 -0.0242523,0.0107198 -0.0100701,0.00940065 -0.00773286,0.0195619 -0.0146496,0.0295647 -0.00611656,0.00883416 -0.00837462,0.00731294 -0.0137147,-0.00114487 -0.0037872,-0.00600168 -0.0057323,-0.0126689 -0.00654044,-0.0197521 -0.00124787,-0.0109654 0.00165591,-0.00939273 -0.00872323,-0.0124669 -0.013279,-0.00393377 -0.0180962,-0.012344 -0.0187023,-0.0229728l-0.00886189 0z"/>
   <path id="_95939440" class="fil1 str0" d="M0.370626 0.294177c-0.0439489,0.00148953 -0.0524741,-0.0253853 -0.0840354,-0.00649687 0.0150537,-0.0200452 0.0144674,-0.0378046 0.00242048,-0.0518086 -0.00935707,-0.0108862 -0.0115993,-0.00671871 0.00039615,-0.0174782 0.0223825,-0.0200888 0.053302,-0.051658 0.0165512,-0.0821854 -0.0119558,-0.00993149 -0.0191856,-0.00868362 0.000174306,-0.0106842 0.0137979,-0.00142614 0.0275008,-0.00339105 0.0410491,-0.00629087 0.00640179,-0.00137068 0.00676625,-0.00266609 0.00861627,0.00415958 0.00461515,0.0169949 -0.00151726,0.0366835 -0.0207504,0.0590581 -0.00870739,0.0101296 -0.01173,0.009056 0.00215506,0.00727332 0.00416354,-0.000530842 0.00789132,-0.000661571 0.0110011,-0.000332766 0.00761401,0.000804185 0.00732482,0.00255121 0.0063701,0.00934123 -0.00145783,0.0103514 -0.00516184,0.0183022 -0.0107198,0.0242563 -0.00940065,0.0100701 -0.0195659,0.0077289 -0.0295647,0.0146496 -0.00883416,0.0061126 -0.00731294,0.00837462 0.00114487,0.0137147 0.00599772,0.0037872 0.0126689,0.0057323 0.0197521,0.00653648 0.0109615,0.00124787 0.00939273,-0.00165195 0.0124669,0.00872323 0.00393377,0.0132829 0.0123401,0.0180962 0.0229728,0.0187062l0 0.00885792z"/>
   <path id="_95939392" class="fil1 str0" d="M0.00167968 0.0781288c0.0439489,-0.00148953 0.0524741,0.0253853 0.0840354,0.00649687 -0.0150577,0.0200452 -0.0144674,0.0378046 -0.00242048,0.0518086 0.00935707,0.0108862 0.0115993,0.00671871 -0.00039615,0.0174782 -0.0223825,0.0200888 -0.053302,0.051658 -0.0165512,0.0821854 0.0119558,0.00993545 0.0191856,0.00868362 -0.000174306,0.0106842 -0.0137979,0.00142614 -0.0275008,0.00339105 -0.0410531,0.00629087 -0.00639783,0.00137068 -0.00676229,0.00266609 -0.00861627,-0.00415562 -0.00461515,-0.0169988 0.00152122,-0.0366875 0.0207543,-0.0590621 0.00870739,-0.0101296 0.01173,-0.009056 -0.00215506,-0.00727332 -0.00416354,0.000534803 -0.00789132,0.000661571 -0.0110011,0.000332766 -0.00761401,-0.000800224 -0.00732482,-0.00255121 -0.0063701,-0.00934123 0.00145783,-0.0103514 0.00516184,-0.0183022 0.0107198,-0.0242523 0.00940065,-0.0100741 0.0195619,-0.00773286 0.0295647,-0.0146536 0.00883416,-0.0061126 0.00731294,-0.00837066 -0.00114487,-0.0137147 -0.00600168,-0.0037872 -0.0126689,-0.00572834 -0.0197521,-0.00653648 -0.0109654,-0.00124787 -0.00939273,0.00165591 -0.0124669,-0.00872323 -0.00393377,-0.0132829 -0.0123401,-0.0180962 -0.0229728,-0.0187062l0 -0.00885792z"/>
   <path id="_95939344" class="fil0 str0" d="M0.294177 0.370623c0.00148556,-0.043945 -0.0253853,-0.0524701 -0.00649687,-0.0840354 -0.0200452,0.0150577 -0.0378046,0.0144674 -0.0518086,0.00242444 -0.0108862,-0.00936104 -0.00671871,-0.0115993 -0.0174821,0.000392189 -0.0200848,0.0223865 -0.0516541,0.053302 -0.0821814,0.0165551 -0.00993545,-0.0119598 -0.00868362,-0.0191856 -0.0106842,0.000174306 -0.00142614,0.013794 -0.00339105,0.0275008 -0.00629483,0.0410491 -0.00136672,0.00639783 -0.00266213,0.00676625 0.00415958,0.00861627 0.0169949,0.00461515 0.0366835,-0.00152122 0.0590581,-0.0207543 0.0101296,-0.00870739 0.009056,-0.0117261 0.00727728,0.00215506 -0.000534803,0.00416354 -0.000661571,0.00789132 -0.000332766,0.0110011 0.000800224,0.00761401 0.00255121,0.00732878 0.00934123,0.0063701 0.0103514,-0.00145783 0.0182982,-0.00515788 0.0242523,-0.0107159 0.0100701,-0.00940461 0.00773286,-0.0195659 0.0146536,-0.0295687 0.0061126,-0.00883416 0.00837066,-0.00730898 0.0137108,0.00114884 0.0037872,0.00599772 0.0057323,0.0126689 0.00654044,0.0197521 0.00124787,0.0109615 -0.00165591,0.00938877 0.00872323,0.0124629 0.0132829,0.00393774 0.0180962,0.012344 0.0187023,0.0229728l0.00886189 0z"/>
   <path id="_95939296" class="fil0 str0" d="M0.184638 0.0820626c0.0155846,-0.00514599 0.035301,0.00167175 0.0374441,0.0298737 -0.0254051,-0.0275364 -0.0596048,0.0121618 -0.0299331,0.0368737 -0.0141901,0.0107991 -0.0135761,0.0210475 -0.00303847,0.0343859 0.0133384,0.0105376 0.0235868,0.0111516 0.0343859,-0.00303847 0.0247119,0.0296717 0.0644101,-0.004528 0.0368697,-0.0299331 0.0282059,0.00214317 0.0350237,0.0218556 0.0298777,0.0374402l-0.102579 0.102579c-0.0155846,0.00514599 -0.035301,-0.00167572 -0.0374441,-0.0298777 0.0254091,0.0275364 0.0596048,-0.0121579 0.0299371,-0.0368697 0.0141861,-0.010803 0.0135761,-0.0210475 0.00303847,-0.0343859 -0.0133384,-0.0105376 -0.0235868,-0.0111516 -0.0343859,0.00303847 -0.0247119,-0.0296717 -0.0644101,0.004528 -0.0368697,0.0299331 -0.0282059,-0.00214317 -0.0350237,-0.0218556 -0.0298777,-0.0374402l0.102575 -0.102579z"/>
   <path id="_95939248" class="fil1 str0" d="M0.00167968 0.00168364l0 0.0764452c0.043636,-0.00147764 0.0523315,0.0250129 0.0833461,0.0069049 0.018112,-0.0310146 -0.00837462,-0.039718 -0.00690094,-0.083354l-0.0764452 3.9615e-006z"/>
   <path id="_95939200" class="fil1 str0" d="M0.370623 0.370623l-0.0764452 0c0.00147764,-0.043632 -0.0250169,-0.0523315 -0.0069049,-0.0833461 0.0310146,-0.018108 0.039718,0.00837858 0.083354,0.00690094l-3.9615e-006 0.0764452z"/>
   <path id="_95939152" class="fil0 str0" d="M0.00167968 0.019863c0.00329597,0 0.00638198,-0.000875493 0.00904808,-0.00240859l0.0166264 0.0179377c-0.00572041,0.00252744 -0.0086757,0.00889358 -0.0112388,0.0129977 0.0159966,0.0043735 0.0261301,0.0133622 0.0437707,0.0115002 0.00186191,-0.0176406 -0.00712675,-0.0277781 -0.0115002,-0.0437746 -0.00410412,0.00256309 -0.0104703,0.00551838 -0.0129937,0.0112388l-0.0179417 -0.0166264c0.0015331,-0.00266609 0.00240859,-0.00575607 0.00240859,-0.00904808l-0.0181793 0 0 0.0181833z"/>
   <path id="_95939104" class="fil0 str0" d="M0.352443 0.370623c0,-0.00329201 0.000875493,-0.00638198 0.00240859,-0.00904808l-0.0179377 -0.0166225c-0.00252744,0.00571645 -0.00889358,0.0086757 -0.0129977,0.0112388 -0.0043735,-0.0159966 -0.0133622,-0.026134 -0.0115002,-0.0437707 0.0176406,-0.00186191 0.0277781,0.00712279 0.0437746,0.0114963 -0.00256309,0.00410412 -0.00551838,0.0104703 -0.0112388,0.0129977l0.0166264 0.0179377c0.00266213,-0.0015331 0.0057521,-0.00240859 0.00904808,-0.00240859l0 0.0181793 -0.0181833 0z"/>
   <path id="_95939056" class="fil0 str0" d="M0.257411 0.114777c0.0372302,-0.0133978 0.0701622,-0.0219903 0.0942482,-0.0206791 -0.0110922,-0.0106921 -0.0195381,-0.022327 -0.0232659,-0.0356456l0.0327418 -0.0370361c0.00287209,0.00138257 0.00608883,0.00215902 0.00949177,0.00215902l0 -0.0218952 -0.0218992 0c0,0.00339897 0.000776455,0.00661967 0.00215902,0.00949177l-0.0370361 0.0327418c-0.0133146,-0.00372778 -0.0249535,-0.0121737 -0.0356456,-0.0232659 0.00131126,0.024082 -0.00739613,0.0568951 -0.0207939,0.0941293z"/>
   <path id="_95939008" class="fil0 str0" d="M0.00167968 0.370623l0.0218952 0c0,-0.00339897 -0.000776455,-0.00661967 -0.00215902,-0.00949177l0.0370361 -0.0327418c0.0133186,0.00373174 0.0249535,0.0121777 0.0356456,0.0232659 -0.00131126,-0.024082 0.00740009,-0.0568912 0.0207979,-0.0941254 -0.0372302,0.0133978 -0.0701662,0.0219903 -0.0942482,0.0206791 0.0110922,0.0106921 0.0195381,0.022327 0.0232659,0.0356456l-0.0327418 0.0370361c-0.00287209,-0.00138257 -0.00609279,-0.00215902 -0.00949177,-0.00215902l0 0.0218913z"/>
  </g>
 </g>
</svg>
