<?xml version="1.0" encoding="UTF-8"?>
<!DOCTYPE svg PUBLIC "-//W3C//DTD SVG 1.1//EN" "http://www.w3.org/Graphics/SVG/1.1/DTD/svg11.dtd">
<!-- Creator: CorelDRAW -->
<svg xmlns="http://www.w3.org/2000/svg" xml:space="preserve" width="110px" height="110px" style="shape-rendering:geometricPrecision; text-rendering:geometricPrecision; image-rendering:optimizeQuality; fill-rule:evenodd; clip-rule:evenodd"
viewBox="0 0 0.496435 0.496441"
 xmlns:xlink="http://www.w3.org/1999/xlink">
 <defs>
  <style type="text/css">
   <![CDATA[
    .str0 {stroke:#605D5C;stroke-width:0.0044743}
    .fil0 {fill:white}
   ]]>
  </style>
 </defs>
 <g id="Plan_x0020_1">
  <metadata id="CorelCorpID_0Corel-Layer"/>
  <g id="_259514032">
   <polygon id="_259514080" class="fil0 str0" points="0.494206,0.00223979 0.00283671,0.00223979 0.00283671,0.493678 0.494206,0.493678 "/>
   <polygon id="_259514152" class="fil0 str0" points="0.00288426,0.209531 0.048372,0.209357 0.0465073,0.19577 0.0750699,0.193208 0.0741138,0.177926 0.106004,0.177466 0.104351,0.162274 0.140103,0.162976 0.140367,0.146727 0.175966,0.144165 0.175443,0.128614 0.21268,0.124995 0.210572,0.108846 0.24644,0.105682 0.244686,0.0898346 0.277375,0.0902889 0.277998,0.0739447 0.310396,0.0732369 0.308494,0.0572414 0.346972,0.0555827 0.345921,0.040443 0.381071,0.0398408 0.381071,0.0226831 0.41622,0.0223345 0.414377,0.00230846 0.00223451,0.00225564 "/>
   <polygon id="_259514224" class="fil0 str0" points="0.00288426,0.286936 0.048372,0.287116 0.0465073,0.300697 0.0750699,0.303264 0.0741138,0.318547 0.106004,0.319006 0.104351,0.334199 0.140103,0.333491 0.140367,0.349745 0.175966,0.352307 0.175443,0.367859 0.21268,0.371477 0.210572,0.387626 0.24644,0.39079 0.244686,0.406638 0.277375,0.406184 0.277998,0.422528 0.310396,0.423236 0.308494,0.439231 0.346972,0.44089 0.345921,0.456029 0.381071,0.456632 0.381071,0.473784 0.41622,0.474138 0.414377,0.494164 0.00223451,0.494217 "/>
   <path id="_259514296" class="fil0 str0" d="M0.0028103 0.124266c5.28252e-006,-0.014342 1.58476e-005,-0.0286894 2.11301e-005,-0.0430314 0.0475585,0.0477276 0.104689,0.0623602 0.125629,0.00342836 0.00455882,-0.0165766 0.0033544,-0.029767 -0.00625451,-0.0380077 -0.0279709,-0.0172157 -0.0409131,0.0275378 -0.00799774,0.0285626 -0.00766494,0.0122079 -0.0182511,0.0144107 -0.031748,0.00661372 -0.0054093,0.00426828 -0.0108239,0.00854184 -0.0162385,0.0128101 -0.00290539,-0.00813508 -0.00414678,-0.0179342 -0.00371889,-0.0294025 -0.0181613,-0.00631261 -0.0288267,-0.0201317 -0.0319857,-0.0414467 0.0201106,0.0144688 0.044986,0.00896444 0.0726083,1.0565e-005 0.0336602,-0.0109084 0.0576006,0.0191861 0.0430684,0.0548431 0.00475427,-0.00512933 0.00950326,-0.0102587 0.0142575,-0.015388 -0.0013312,-0.024812 0.0199045,-0.0468031 0.0497191,-0.0211671 0.0270465,-0.0271944 0.0528411,-0.02814 0.0773837,-0.00282615 -0.0177176,0.000306386 -0.0523128,0.00242996 -0.0610501,0.0227835 -0.0147594,0.0343786 -0.0334384,0.0337342 -0.0560053,0.0146167 -0.0465549,0.0798876 -0.106871,0.0902043 -0.167688,0.0476008z"/>
   <polygon id="_259514368" class="fil0 str0" points="0.00282087,0.248189 0.00288426,0.209531 0.0483668,0.209357 0.0465073,0.19577 0.0750699,0.193208 0.0741138,0.177926 0.106004,0.177466 0.104351,0.162274 0.140103,0.162976 0.140367,0.146727 0.175971,0.144165 0.175443,0.128614 0.212674,0.124995 0.210572,0.108846 0.24644,0.105682 0.244686,0.0898346 0.277375,0.0902889 0.277998,0.0739447 0.310396,0.0732369 0.308494,0.0572414 0.346972,0.0555827 0.345921,0.040443 0.381071,0.0398408 0.381071,0.0226831 0.41622,0.0223345 0.414377,0.00230846 0.494201,0.00230846 0.494079,0.0387843 0.45202,0.0398408 0.453684,0.0558362 0.418043,0.0558362 0.418946,0.0725607 0.385555,0.0718317 0.384737,0.0887305 0.351045,0.0878272 0.351045,0.105407 0.317474,0.105228 0.317733,0.118968 0.287153,0.119818 0.287153,0.138127 0.255843,0.137224 0.255341,0.15416 0.224528,0.153896 0.224708,0.169891 0.188612,0.171476 0.188877,0.185475 0.15753,0.186293 0.155042,0.205052 0.12079,0.204375 0.119887,0.221533 0.073575,0.221311 0.0736648,0.248157 0.073575,0.274691 0.119887,0.274464 0.12079,0.291627 0.155042,0.290951 0.15753,0.309709 0.188877,0.310528 0.188612,0.324526 0.224708,0.326111 0.224528,0.342101 0.255341,0.341843 0.255843,0.358778 0.287153,0.357875 0.287153,0.376179 0.317733,0.377035 0.317474,0.390775 0.351045,0.390595 0.351045,0.408175 0.384737,0.407267 0.385555,0.424171 0.418946,0.423442 0.418043,0.440166 0.453684,0.440166 0.45202,0.456162 0.494079,0.457218 0.494201,0.493694 0.414377,0.493694 0.41622,0.473663 0.381071,0.473314 0.381071,0.456162 0.345921,0.455559 0.346972,0.44042 0.308494,0.438761 0.310396,0.422765 0.277998,0.422058 0.277375,0.405713 0.244686,0.406168 0.24644,0.39032 0.210572,0.387151 0.212674,0.371007 0.175443,0.367389 0.175971,0.351837 0.140367,0.349275 0.140103,0.333021 0.104351,0.333729 0.106004,0.318536 0.0741138,0.318076 0.0750699,0.302794 0.0465073,0.300227 0.0483668,0.286645 0.00288426,0.286471 "/>
   <path id="_259514440" class="fil0 str0" d="M0.0028103 0.371736c5.28252e-006,0.014342 1.58476e-005,0.0286841 2.11301e-005,0.0430314 0.0475585,-0.0477276 0.104689,-0.0623602 0.125629,-0.00342836 0.00455882,0.0165766 0.0033544,0.029767 -0.00625451,0.0380077 -0.0279709,0.0172157 -0.0409131,-0.0275378 -0.00799774,-0.0285626 -0.00766494,-0.0122079 -0.0182511,-0.0144107 -0.031748,-0.00661372 -0.0054093,-0.00427356 -0.0108239,-0.00854184 -0.0162385,-0.0128101 -0.00290539,0.00813508 -0.00414678,0.0179342 -0.00371889,0.0294025 -0.0181613,0.00631261 -0.0288267,0.0201317 -0.0319857,0.0414467 0.0201106,-0.0144688 0.044986,-0.00896444 0.0726083,-1.58476e-005 0.0336602,0.0109084 0.0576006,-0.0191808 0.0430684,-0.0548379 0.00475427,0.00512933 0.00950326,0.0102587 0.0142575,0.015388 -0.0013312,0.024812 0.0199045,0.0468031 0.0497191,0.0211618 0.0270465,0.0271997 0.0528411,0.0281453 0.0773837,0.00283143 -0.0177176,-0.000306386 -0.0523128,-0.00242996 -0.0610501,-0.0227835 -0.0147594,-0.0343786 -0.0334384,-0.0337342 -0.0560053,-0.0146167 -0.0465549,-0.0798929 -0.106871,-0.0902043 -0.167688,-0.0476008z"/>
   <path id="_259514512" class="fil0 str0" d="M0.494116 0.247935c0,0.00764381 0,0.0154197 0,0.0230635 -0.0336021,-0.00721592 -0.0638868,-0.00412565 -0.0876317,0.0193446 -0.0284305,0.0467133 0.0144477,0.0991001 0.0425771,0.062619 -0.0323766,-0.0159057 0.0121287,-0.0506066 0.0251131,-0.0142628 0.0018753,0.0137663 0.00193869,0.0283883 -0.019334,0.0437287 0.0187899,0.0159426 0.0217957,0.0308288 0.0159374,0.0451339 -0.0113838,-0.0121075 -0.0241306,-0.0260745 -0.0401736,-0.0321547 -0.0436231,-0.0165237 -0.0587152,-0.0471254 -0.049101,-0.0754503 -0.0181719,0.01608 -0.0363437,0.0311405 -0.0545209,0.0455829 -0.00923385,-0.0102058 -0.0184677,-0.0204169 -0.0277068,-0.0306281 0.0507862,-0.00595868 0.0771935,-0.0286524 0.0912714,-0.0598193 -0.0301632,-0.00400943 -0.0590005,0.00518215 -0.0853233,0.0395238 -0.0088852,-0.0133542 -0.0106337,-0.02627 0.00733214,-0.037976 -0.0113944,-0.0258949 -0.070865,-0.0116321 -0.0397774,0.0319117 -0.0139617,0.00591642 -0.0285256,0.0106232 -0.0502051,0.00110405 -0.000417319,-0.0139617 -0.000839921,-0.0279181 -0.00125724,-0.0418851 -0.0104118,-0.0100051 -0.0313042,-0.0162754 -0.0517529,0.0145111 -0.00337553,-0.00451127 -0.00483879,-0.0120336 -0.00438449,-0.0225669 -0.0154461,0.00951382 -0.0300734,0.00561004 -0.0438766,-0.0117166 0.0138032,-0.0173267 0.0284305,-0.0212305 0.0438766,-0.0117113 -0.000454297,-0.0105333 0.00100896,-0.0180557 0.00438449,-0.0225669 0.0204486,0.0307865 0.041341,0.0245162 0.0517529,0.0145058 0.000417319,-0.0139617 0.000839921,-0.0279181 0.00125724,-0.0418798 0.0216795,-0.0095191 0.0362434,-0.00481238 0.0502051,0.00110405 -0.0310876,0.0435385 0.028383,0.0578066 0.0397774,0.0319117 -0.0179659,-0.0117061 -0.0162173,-0.0246218 -0.00733214,-0.037976 0.0263228,0.0343364 0.0551601,0.0435333 0.0853233,0.0395238 -0.0140779,-0.0311669 -0.0404852,-0.0538606 -0.0912714,-0.0598193 0.00923913,-0.0102111 0.018473,-0.0204222 0.0277068,-0.0306281 0.0181772,0.0144371 0.036349,0.0295029 0.0545209,0.0455829 -0.00961419,-0.0283249 0.00547797,-0.0589318 0.049101,-0.0754555 0.016043,-0.0060749 0.0287897,-0.0200419 0.0401736,-0.0321494 0.00585832,0.0142998 0.00285256,0.0291912 -0.0159374,0.0451339 0.0212727,0.0153404 0.0212093,0.0299625 0.019334,0.0437287 -0.0129844,0.0363437 -0.0574897,0.00163758 -0.0251131,-0.0142628 -0.0281294,-0.0364811 -0.0710077,0.0159057 -0.0425771,0.062619 0.0237449,0.023465 0.0540296,0.0265552 0.0876317,0.0193446 0,0.00764381 0,0.0152876 0,0.0229314z"/>
  </g>
 </g>
</svg>
