<?xml version="1.0" encoding="UTF-8"?>
<!DOCTYPE svg PUBLIC "-//W3C//DTD SVG 1.1//EN" "http://www.w3.org/Graphics/SVG/1.1/DTD/svg11.dtd">
<!-- Creator: CorelDRAW -->
<svg xmlns="http://www.w3.org/2000/svg" xml:space="preserve" width="110px" height="110px" style="shape-rendering:geometricPrecision; text-rendering:geometricPrecision; image-rendering:optimizeQuality; fill-rule:evenodd; clip-rule:evenodd"
viewBox="0 0 0.333349 0.333349"
 xmlns:xlink="http://www.w3.org/1999/xlink">
 <defs>
  <style type="text/css">
   <![CDATA[
    .str0 {stroke:#4C4C4C;stroke-width:0.00300426}
    .fil0 {fill:none}
   ]]>
  </style>
 </defs>
 <g id="Plan_x0020_1">
  <metadata id="CorelCorpID_0Corel-Layer"/>
  <g id="_214754064">
   <rect id="_214753920" class="fil0 str0" transform="matrix(9.59306E-015 0.0517448 0.0517448 -9.59306E-015 0.0015059 0.00150524)" width="6.38398" height="6.38398"/>
   <rect id="_214753848" class="fil0 str0" x="0.00150553" y="0.00150579" width="0.330338" height="0.330338"/>
   <rect id="_214753776" class="fil0 str0" transform="matrix(-1.23339E-014 -0.0517448 -0.0517448 1.23339E-014 0.331843 0.331843)" width="6.38398" height="6.38398"/>
   <rect id="_214753704" class="fil0 str0" x="0.00150535" y="0.00150487" width="0.330338" height="0.330338"/>
   <path id="_214753632" class="fil0 str0" d="M0.322666 0.0704991c-0.00289076,0.0387397 -0.0486499,0.0521685 -0.0499268,0.080881 -0.000606528,0.0136699 0.00783166,0.0289431 0.0247435,0.0261374 0.00971509,-0.00161386 0.015979,-0.00845237 0.0160464,-0.0178802 6.7392e-005,-0.00941005 -0.00869002,-0.0152767 -0.016057,-0.0113077 -0.000996692,0.000535589 -0.00134784,0.00100733 -6.3845e-005,0.00124143 0.00630647,0.00113857 0.0104635,0.00658313 0.00803029,0.0124569 -0.00447979,0.0108288 -0.0225125,0.00380587 -0.0218776,-0.00855523 0.000556871,-0.010914 0.0065583,-0.0178482 0.017224,-0.0180327 0.00551905,-9.22206e-005 0.0126626,0.00228778 0.0218811,0.00770042l0 -0.0726415z"/>
   <path id="_214753560" class="fil0 str0" d="M0.26285 0.322666c-0.0387397,-0.00289076 -0.052172,-0.0486535 -0.080881,-0.0499268 -0.0136735,-0.000606528 -0.0289431,0.00783166 -0.0261374,0.0247435 0.00161386,0.00971509 0.00844883,0.015979 0.0178766,0.0160464 0.0094136,6.7392e-005 0.0152802,-0.00869002 0.0113112,-0.016057 -0.000535589,-0.000996692 -0.00100733,-0.00134784 -0.00124143,-6.7392e-005 -0.00113857,0.00631002 -0.00658313,0.010467 -0.0124604,0.00803383 -0.0108253,-0.00447979 -0.00380587,-0.0225125 0.00855878,-0.0218776 0.010914,0.000556871 0.0178482,0.0065583 0.0180291,0.017224 9.57676e-005,0.00551905 -0.00228423,0.0126626 -0.00770042,0.0218811l0.072645 0z"/>
   <path id="_214753488" class="fil0 str0" d="M0.0106834 0.26285c0.00289076,-0.0387397 0.0486499,-0.052172 0.0499268,-0.080881 0.000606528,-0.0136735 -0.00783166,-0.0289431 -0.0247435,-0.0261374 -0.00971509,0.00161386 -0.015979,0.00844883 -0.0160464,0.0178766 -6.7392e-005,0.0094136 0.00869002,0.0152767 0.016057,0.0113112 0.000996692,-0.000535589 0.00134784,-0.00100733 6.3845e-005,-0.00124143 -0.00630647,-0.00113857 -0.0104635,-0.00658313 -0.00803029,-0.0124604 0.00447979,-0.0108253 0.0225125,-0.00380587 0.0218776,0.00855878 -0.000556871,0.0109104 -0.0065583,0.0178482 -0.017224,0.0180291 -0.00551905,9.57676e-005 -0.0126626,-0.00228423 -0.0218811,-0.00770042l0 0.072645z"/>
   <path id="_214753416" class="fil0 str0" d="M0.0704991 0.0106799c0.0387397,0.00289431 0.052172,0.0486535 0.080881,0.0499304 0.0136735,0.000606528 0.0289431,-0.00783166 0.0261374,-0.0247435 -0.00161386,-0.00971509 -0.00844883,-0.015979 -0.0178766,-0.0160464 -0.0094136,-7.09389e-005 -0.0152802,0.00869002 -0.0113112,0.016057 0.000535589,0.000996692 0.00100733,0.00134784 0.00124143,6.3845e-005 0.00113857,-0.00630647 0.00658313,-0.0104635 0.0124569,-0.00803029 0.0108288,0.00447979 0.00380942,0.0225125 -0.00855523,0.0218776 -0.010914,-0.000556871 -0.0178482,-0.0065583 -0.0180291,-0.017224 -9.57676e-005,-0.00551905 0.00228423,-0.0126626 0.00770042,-0.0218847l-0.072645 0z"/>
   <path id="_214753344" class="fil0 str0" d="M0.322666 0.173212c-0.00623553,0.0156633 -0.0190081,0.0211469 -0.0392505,0.0178766 0.0189017,0.0150816 0.0311422,0.0345153 0.0392505,0.0566483l0 -0.0745249z"/>
   <path id="_214753272" class="fil0 str0" d="M0.160138 0.322666c-0.0156669,-0.00623553 -0.0211469,-0.0190081 -0.0178802,-0.0392505 -0.0150781,0.0189017 -0.0345118,0.0311422 -0.0566447,0.0392505l0.0745249 0z"/>
   <path id="_214753200" class="fil0 str0" d="M0.0106834 0.160138c0.00623553,-0.0156669 0.0190081,-0.0211469 0.0392505,-0.0178802 -0.0189017,-0.0150781 -0.0311422,-0.0345118 -0.0392505,-0.0566483l0 0.0745284z"/>
   <path id="_214753128" class="fil0 str0" d="M0.173212 0.0106799c0.0156669,0.00623908 0.0211469,0.0190116 0.0178802,0.0392541 0.0150781,-0.0189017 0.0345118,-0.0311422 0.0566447,-0.0392541l-0.0745249 0z"/>
   <path id="_214753056" class="fil0 str0" d="M0.273455 0.0106799c0.0280244,0.00411091 0.044429,0.0198416 0.0492103,0.0471957l0 -0.0471957 -0.0492103 0z"/>
   <path id="_214752984" class="fil0 str0" d="M0.322666 0.273455c-0.00410736,0.0280244 -0.0198381,0.044429 -0.0471921,0.0492103l0.0471921 0 0 -0.0492103z"/>
   <path id="_214752912" class="fil0 str0" d="M0.0598937 0.322666c-0.0280244,-0.00411091 -0.044429,-0.0198416 -0.0492103,-0.0471921l0 0.0471921 0.0492103 0z"/>
   <path id="_214752840" class="fil0 str0" d="M0.0106834 0.0598937c0.00410736,-0.0280244 0.0198381,-0.044429 0.0471921,-0.0492139l-0.0471921 0 0 0.0492139z"/>
   <path id="_214752696" class="fil0 str0" d="M0.284926 0.0569817c0.00661151,0.00264602 0.0101833,0.00858716 0.00967252,0.0149397 -0.00107472,0.0133862 -0.0133365,0.0268929 -0.0270703,0.0211433 -0.00889219,-0.00372075 -0.00815088,-0.0156917 0.000432727,-0.0242363 0.00233034,-0.00231616 0.0019721,-0.00361789 -0.00138331,-0.00403997 -0.0315182,-0.00394066 -0.0287515,0.055907 0.0104848,0.0447979 0.0294538,-0.00833887 0.0452945,-0.0508739 0.0169934,-0.0702792 -0.000670373,-0.000461103 -0.000748406,2.12817e-005 -0.000645544,0.00067392 0.00100379,0.00642707 0.00105344,0.0115737 -0.00818281,0.014805 -0.00288367,0.00100733 -0.00316388,0.0010499 -0.00030149,0.00219556z"/>
   <path id="_214752480" class="fil0 str0" d="M0.276367 0.284926c-0.00264602,0.00661151 -0.00858716,0.0101797 -0.0149397,0.00967252 -0.0133862,-0.00107472 -0.0268929,-0.0133365 -0.0211433,-0.0270738 0.00372075,-0.00888865 0.0156881,-0.00814734 0.0242327,0.000436274 0.0023197,0.0023268 0.00362143,0.0019721 0.00404352,-0.00138331 0.00394066,-0.0315182 -0.055907,-0.0287515 -0.0447979,0.0104848 0.00833887,0.0294538 0.0508703,0.0452945 0.0702792,0.0169934 0.000461103,-0.000670373 -2.48286e-005,-0.000748406 -0.00067392,-0.000645544 -0.00642707,0.00100379 -0.0115737,0.00105344 -0.014805,-0.00818281 -0.00100733,-0.00288367 -0.0010499,-0.00316388 -0.00219556,-0.00030149z"/>
   <path id="_214752408" class="fil0 str0" d="M0.0484229 0.276367c-0.00661151,-0.00264602 -0.0101833,-0.00858716 -0.00967252,-0.0149397 0.00107472,-0.0133897 0.0133365,-0.0268929 0.0270703,-0.0211433 0.00889219,0.00372075 0.00815088,0.0156881 -0.000432727,0.0242327 -0.00233034,0.0023197 -0.0019721,0.00362143 0.00138331,0.00404352 0.0315182,0.00394066 0.0287515,-0.055907 -0.0104848,-0.0447979 -0.0294538,0.00833887 -0.0452945,0.0508703 -0.0169934,0.0702792 0.000670373,0.000457556 0.000748406,-2.48286e-005 0.000645544,-0.00067392 -0.00100379,-0.00642707 -0.00105344,-0.0115737 0.00818281,-0.014805 0.00288367,-0.00100733 0.00316388,-0.0010499 0.00030149,-0.00219556z"/>
   <path id="_214752336" class="fil0 str0" d="M0.0569817 0.0484229c0.00264602,-0.00661151 0.00858716,-0.0101833 0.0149397,-0.00967252 0.0133862,0.00107472 0.0268929,0.0133365 0.0211433,0.0270703 -0.00372075,0.00889219 -0.0156917,0.00815088 -0.0242327,-0.000432727 -0.0023197,-0.00233034 -0.00362143,-0.0019721 -0.00404352,0.00138331 -0.00394066,0.0315182 0.055907,0.028748 0.0447979,-0.0104848 -0.00833887,-0.0294538 -0.0508703,-0.0452945 -0.0702792,-0.0169934 -0.000461103,0.000670373 2.48286e-005,0.000748406 0.00067392,0.000645544 0.00642707,-0.00100733 0.0115737,-0.00105344 0.014805,0.00818281 0.00100733,0.00288367 0.0010499,0.00316388 0.00219556,0.00030149z"/>
   <path id="_214752264" class="fil0 str0" d="M0.284263 0.032107c-0.0226969,-0.0119319 -0.0544953,-0.00511824 -0.0728117,0.0224273 -0.000411446,0.000617169 -0.000308584,0.000798063 0.000432727,0.000670373 0.0125917,-0.00214945 0.0193982,0.00184796 0.0208809,0.0115027 0.000159613,0.0010428 0.000514307,0.00166352 0.00135493,0.000606528 0.0123717,-0.0155853 0.0252862,-0.0192635 0.0413787,-0.0163053 0.00142942,0.000262474 0.00126981,0.000443368 0.00138331,-0.00100024 0.00046465,-0.00607592 0.0024403,-0.0124108 0.00755145,-0.0170927 0.000393711,-0.000361789 0.000276662,-0.000574605 -0.000170253,-0.000808704z"/>
   <path id="_214752192" class="fil0 str0" d="M0.301242 0.284263c0.0119319,-0.0226969 0.00511824,-0.0544953 -0.0224273,-0.0728117 -0.000620716,-0.000411446 -0.000798063,-0.000308584 -0.000670373,0.000432727 0.00214945,0.0125917 -0.00184796,0.0193982 -0.0115027,0.0208809 -0.00104635,0.000159613 -0.00166352,0.000514307 -0.000606528,0.00135493 0.0155853,0.0123682 0.0192635,0.0252862 0.0163053,0.0413787 -0.000262474,0.00142942 -0.000443368,0.00126981 0.00100024,0.00137976 0.00607592,0.000468197 0.0124108,0.00244385 0.0170927,0.007555 0.000361789,0.000393711 0.000574605,0.000276662 0.000808704,-0.000170253z"/>
   <path id="_214752120" class="fil0 str0" d="M0.0490862 0.301242c0.0226969,0.0119319 0.0544953,0.00511824 0.0728117,-0.0224273 0.000411446,-0.000620716 0.000308584,-0.000798063 -0.000432727,-0.000670373 -0.0125917,0.00214945 -0.0193982,-0.00184796 -0.0208809,-0.0115027 -0.000159613,-0.00104635 -0.000514307,-0.00166352 -0.00135493,-0.000606528 -0.0123717,0.0155853 -0.0252862,0.0192635 -0.0413787,0.0163053 -0.00142942,-0.000262474 -0.00126981,-0.000446915 -0.00138331,0.000996692 -0.00046465,0.00607947 -0.0024403,0.0124143 -0.00755145,0.0170963 -0.000393711,0.000358242 -0.000276662,0.000571058 0.000170253,0.000808704z"/>
   <path id="_214752048" class="fil0 str0" d="M0.032107 0.0490862c-0.0119319,0.0226969 -0.00511824,0.0544953 0.0224273,0.0728117 0.000617169,0.000411446 0.000798063,0.000305037 0.000670373,-0.000432727 -0.00214945,-0.0125917 0.00184796,-0.0193982 0.0115027,-0.0208809 0.00104635,-0.000159613 0.00166352,-0.000514307 0.000606528,-0.00135493 -0.0155853,-0.0123717 -0.0192635,-0.0252862 -0.0163053,-0.0413787 0.000262474,-0.00142942 0.000443368,-0.00126981 -0.00100024,-0.00138331 -0.00607592,-0.00046465 -0.0124108,-0.0024403 -0.0170927,-0.00755145 -0.000361789,-0.000393711 -0.000574605,-0.000276662 -0.000808704,0.000170253z"/>
   <path id="_214751976" class="fil0 str0" d="M0.229881 0.14834c0.00765786,0.00799482 0.0208525,0.0175219 0.0326284,0.0237113 0.00146489,0.000769687 0.00220975,0.00125207 0.00146844,-0.000961222 -0.00437338,-0.0130102 -0.0030752,-0.0282195 0.00202176,-0.0391618 0.00103571,-0.00222748 0.00274179,-0.00391583 -0.000996692,-0.00421377 -0.00763303,-0.000610075 -0.013904,-0.00223812 -0.018923,-0.0050473 -0.00184441,-0.00103216 -0.00136557,-0.000911565 -0.001511,0.00112084 -0.000656185,0.00926817 -0.00539845,0.0167451 -0.0142162,0.0224238 -0.0015642,0.00100733 -0.00182668,0.000716483 -0.000471744,0.00212817z"/>
   <path id="_214751904" class="fil0 str0" d="M0.185009 0.229881c-0.00799482,0.00765786 -0.0175219,0.0208525 -0.0237113,0.0326284 -0.000769687,0.00146489 -0.00125207,0.00220975 0.000957676,0.00146844 0.0130102,-0.00437338 0.0282231,-0.0030752 0.0391654,0.00202176 0.00222748,0.00103571 0.00391583,0.00273824 0.00421377,-0.000996692 0.000610075,-0.00763658 0.00223812,-0.013904 0.0050473,-0.018923 0.00103216,-0.00184796 0.000911565,-0.00136557 -0.00112084,-0.001511 -0.00927172,-0.000659732 -0.0167451,-0.00539845 -0.0224238,-0.0142162 -0.00100733,-0.00156775 -0.000716483,-0.00182668 -0.00212817,-0.000471744z"/>
   <path id="_214751832" class="fil0 str0" d="M0.103468 0.185009c-0.00765786,-0.00799482 -0.0208525,-0.0175219 -0.0326284,-0.0237113 -0.00146489,-0.000769687 -0.00220975,-0.00125207 -0.00146844,0.000957676 0.00437338,0.0130102 0.0030752,0.0282231 -0.00202176,0.0391654 -0.00103571,0.00222748 -0.00274179,0.00391583 0.000996692,0.00421377 0.00763303,0.000610075 0.013904,0.00223812 0.018923,0.0050473 0.00184441,0.00103216 0.00136557,0.000911565 0.001511,-0.00112084 0.000656185,-0.00927172 0.00539845,-0.0167451 0.0142162,-0.0224238 0.0015642,-0.00100733 0.00182668,-0.000716483 0.000471744,-0.00212817z"/>
   <path id="_214751760" class="fil0 str0" d="M0.14834 0.103468c0.00799482,-0.00765786 0.0175219,-0.0208525 0.0237113,-0.0326284 0.000769687,-0.00146489 0.00125207,-0.00220975 -0.000961222,-0.00146844 -0.0130067,0.00437338 -0.0282195,0.0030752 -0.0391618,-0.00202176 -0.00222748,-0.00103571 -0.00391583,-0.00274179 -0.00421377,0.000996692 -0.000610075,0.00763303 -0.00223812,0.013904 -0.0050473,0.018923 -0.00103216,0.00184441 -0.000911565,0.00136557 0.00112084,0.001511 0.00927172,0.000656185 0.0167451,0.00539845 0.0224238,0.0142162 0.00100733,0.0015642 0.000716483,0.00182313 0.00212817,0.000471744z"/>
   <path id="_214751688" class="fil0 str0" d="M0.234556 0.11031c-0.00386972,-0.00800546 -0.00521756,-0.0190081 -0.0044124,-0.0335506 6.7392e-005,-0.00125562 -0.000439821,-0.000854814 -0.00161386,-0.000996692 -0.00821118,-0.00100024 -0.0147979,-0.0047068 -0.020214,-0.0103606 -0.0019721,-0.00206078 -0.00155356,-0.000865455 -0.00173446,0.00130882 -0.00169189,0.0200757 -3.90164e-005,0.0385908 0.00636677,0.054889 0.000276662,0.000698748 0.000918659,0.00159613 0.00150391,0.00101797 0.00527786,-0.00521756 0.0114992,-0.00870421 0.0186676,-0.0104529 0.00122724,-0.00030149 0.00221329,-0.000248286 0.00143651,-0.00185505z"/>
   <path id="_214751616" class="fil0 str0" d="M0.223039 0.234556c0.00800546,-0.00386972 0.0190081,-0.00521756 0.033547,-0.0044124 0.00125917,6.7392e-005 0.000858361,-0.000439821 0.00100024,-0.00161741 0.00100024,-0.00820763 0.00470325,-0.0147943 0.0103606,-0.0202105 0.00206078,-0.0019721 0.000865455,-0.00155356 -0.00130882,-0.00173446 -0.0200757,-0.00169189 -0.0385908,-3.90164e-005 -0.054889,0.00636677 -0.000698748,0.000276662 -0.00159613,0.000918659 -0.00101797,0.00150391 0.00521756,0.00527786 0.00870421,0.0114992 0.0104529,0.0186676 0.00030149,0.00122724 0.000248286,0.00221329 0.00185505,0.00143651z"/>
   <path id="_214751544" class="fil0 str0" d="M0.0987931 0.223039c0.00386972,0.00800546 0.00521756,0.0190081 0.0044124,0.033547 -6.7392e-005,0.00125917 0.000439821,0.000858361 0.00161386,0.00100024 0.00821118,0.00100024 0.0147979,0.00470325 0.020214,0.0103606 0.0019721,0.00206078 0.00155356,0.000865455 0.00173446,-0.00130882 0.00169189,-0.0200757 3.90164e-005,-0.0385908 -0.00636677,-0.054889 -0.000276662,-0.000698748 -0.000918659,-0.00159613 -0.00150391,-0.00101797 -0.00527786,0.00521756 -0.0114992,0.00870421 -0.0186676,0.0104529 -0.00122724,0.00030149 -0.00221329,0.000248286 -0.00143651,0.00185505z"/>
   <path id="_214751472" class="fil0 str0" d="M0.11031 0.0987931c-0.00800546,0.00386972 -0.0190081,0.00521401 -0.033547,0.0044124 -0.00125917,-7.09389e-005 -0.000858361,0.000439821 -0.00100024,0.00161386 -0.00100024,0.00821118 -0.0047068,0.0147979 -0.0103606,0.020214 -0.00206078,0.0019721 -0.000865455,0.00155356 0.00130882,0.00173446 0.0200757,0.00168835 0.0385908,3.90164e-005 0.054889,-0.00636677 0.000698748,-0.000276662 0.00159613,-0.000918659 0.00101797,-0.00150391 -0.00521756,-0.00527786 -0.00870421,-0.0114992 -0.0104529,-0.0186676 -0.00030149,-0.00122724 -0.000248286,-0.00221329 -0.00185505,-0.00143651z"/>
   <path id="_214751400" class="fil0 str0" d="M0.222702 0.160694c-0.00373139,-0.00251124 -0.00712936,-0.00527786 -0.0102258,-0.00826793 -0.000986051,-0.000950582 -0.00175574,-0.0001738 -0.00302555,0.000191535 -0.00954838,0.00275952 -0.0191748,0.00200048 -0.0252472,0.00693073 -0.00788841,0.00640579 -0.00223812,0.0210689 0.00910146,0.0180469 0.00885318,-0.00235872 0.0166352,-0.0137373 0.028028,-0.0157662 0.00111729,-0.000202176 0.00258927,-0.000315678 0.00136912,-0.00113502z"/>
   <path id="_214751328" class="fil0 str0" d="M0.172655 0.222702c0.00251124,-0.00373139 0.00527786,-0.00712936 0.00826793,-0.0102258 0.000950582,-0.000986051 0.0001738,-0.00175574 -0.000191535,-0.00302909 -0.00275952,-0.00954483 -0.00200048,-0.0191712 -0.00693428,-0.0252436 -0.00640224,-0.00788841 -0.0210653,-0.00223812 -0.0180433,0.00910146 0.00235872,0.00884963 0.0137373,0.0166352 0.0157662,0.028028 0.000198629,0.00111729 0.000315678,0.00258927 0.00113502,0.00136912z"/>
   <path id="_214751256" class="fil0 str0" d="M0.110647 0.172655c0.00373139,0.00251124 0.00712936,0.00527786 0.0102258,0.00826793 0.000986051,0.000950582 0.00175574,0.0001738 0.00302555,-0.000191535 0.00954483,-0.00275952 0.0191748,-0.00200048 0.0252472,-0.00693428 0.00788841,-0.00640579 0.00223812,-0.0210653 -0.00910146,-0.0180433 -0.00885318,0.00235872 -0.0166352,0.0137373 -0.028028,0.0157662 -0.00111729,0.000198629 -0.00258927,0.000315678 -0.00136912,0.00113502z"/>
   <path id="_214751184" class="fil0 str0" d="M0.160694 0.110647c-0.00251124,0.00373139 -0.00527786,0.00712936 -0.00826793,0.0102258 -0.000950582,0.000986051 -0.0001738,0.00175574 0.000191535,0.00302555 0.00275952,0.00954483 0.00200048,0.0191748 0.00693428,0.0252472 0.00640224,0.00788841 0.0210653,0.00223812 0.0180433,-0.00910146 -0.00235872,-0.00885318 -0.0137373,-0.0166352 -0.0157662,-0.028028 -0.000198629,-0.00111729 -0.000315678,-0.00258927 -0.00113502,-0.00136912z"/>
   <path id="_214751112" class="fil0 str0" d="M0.197097 0.201559c0.0221294,-0.0120064 0.041439,-0.0130634 0.0640649,-0.0107614 0.000485932,4.96572e-005 -0.0274888,-0.0239703 -0.035356,-0.0217428 -0.0104351,0.00295461 -0.0199303,0.0181178 -0.0383567,0.0143758 -0.00217428,-0.000439821 -0.00528495,-0.00169544 -0.00283401,0.00113857 0.00607592,0.00703005 0.003891,0.0151703 0.00601917,0.0186747 0.00158549,0.00261055 0.00446915,-0.000602981 0.00646254,-0.0016848z"/>
   <path id="_214751040" class="fil0 str0" d="M0.13179 0.197097c0.0120029,0.0221294 0.0130599,0.041439 0.0107579,0.0640649 -4.96572e-005,0.000485932 0.0239738,-0.0274888 0.0217463,-0.035356 -0.00295461,-0.0104351 -0.0181178,-0.0199303 -0.0143793,-0.0383567 0.000443368,-0.00217428 0.00169899,-0.00528495 -0.00113857,-0.00283401 -0.0070265,0.00607592 -0.0151703,0.003891 -0.0186747,0.00601917 -0.00260701,0.00158549 0.000606528,0.00446915 0.00168835,0.00646254z"/>
   <path id="_214750968" class="fil0 str0" d="M0.136252 0.13179c-0.0221294,0.0120029 -0.041439,0.0130599 -0.0640649,0.0107579 -0.000485932,-4.96572e-005 0.0274888,0.0239738 0.035356,0.0217463 0.0104351,-0.00295461 0.0199303,-0.0181178 0.0383567,-0.0143793 0.00217428,0.000443368 0.00528495,0.00169899 0.00283401,-0.00113857 -0.00607592,-0.0070265 -0.003891,-0.0151703 -0.00601917,-0.0186747 -0.00158549,-0.00260701 -0.00446915,0.000606528 -0.00646254,0.00168835z"/>
   <path id="_214750896" class="fil0 str0" d="M0.201559 0.136252c-0.0120064,-0.0221294 -0.0130634,-0.041439 -0.0107614,-0.0640649 4.96572e-005,-0.000489479 -0.0239703,0.0274888 -0.0217428,0.035356 0.00295461,0.0104351 0.0181178,0.0199303 0.0143793,0.0383567 -0.000443368,0.00217428 -0.00169899,0.00528495 0.00113502,0.00283401 0.00703005,-0.00607592 0.0151703,-0.003891 0.0186747,-0.00601917 0.00261055,-0.00158549 -0.000602981,-0.00446915 -0.0016848,-0.00646254z"/>
   <path id="_214750824" class="fil0 str0" d="M0.162627 0.158712c-0.00257508,0.00182313 -0.00157484,0.0109636 -0.00414993,0.0127867 0.00257508,0.00274179 0.00873258,-0.00167416 0.0113112,0.00106763 0.00323482,-0.00274179 0.00366754,-0.00984278 0.00690236,-0.0125846 -0.00323482,-0.00182313 -0.0108288,0.000553324 -0.0140636,-0.00126981z"/>
  </g>
 </g>
</svg>
