<?xml version="1.0" encoding="UTF-8"?>
<!DOCTYPE svg PUBLIC "-//W3C//DTD SVG 1.1//EN" "http://www.w3.org/Graphics/SVG/1.1/DTD/svg11.dtd">
<!-- Creator: CorelDRAW -->
<svg xmlns="http://www.w3.org/2000/svg" xml:space="preserve" width="110px" height="110px" style="shape-rendering:geometricPrecision; text-rendering:geometricPrecision; image-rendering:optimizeQuality; fill-rule:evenodd; clip-rule:evenodd"
viewBox="0 0 0.500354 0.499465"
 xmlns:xlink="http://www.w3.org/1999/xlink">
 <defs>
  <style type="text/css">
   <![CDATA[
    .str0 {stroke:#4C4C4C;stroke-width:0.00450942}
    .fil1 {fill:none}
    .fil0 {fill:white}
   ]]>
  </style>
 </defs>
 <g id="Plan_x0020_1">
  <metadata id="CorelCorpID_0Corel-Layer"/>
  <g id="_112895136">
   <rect id="_112896312" class="fil0 str0" transform="matrix(-3.69235E-014 0.464853 -0.464851 -3.69236E-014 0.497834 0.0022566)" width="1.06414" height="1.06381"/>
   <polygon id="_112896264" class="fil0 str0" points="0.00333814,0.496973 0.00323166,0.447162 0.0523934,0.447098 0.0523827,0.496824 "/>
   <polygon id="_112896216" class="fil0 str0" points="0.00333814,0.00227334 0.00310921,0.0512274 0.0522709,0.0514138 0.0523827,0.00242242 "/>
   <polygon id="_112896168" class="fil0 str0" points="0.448365,0.496851 0.44836,0.447215 0.401365,0.49708 "/>
   <polygon id="_112896120" class="fil0 str0" points="0.0523242,0.496851 0.0523348,0.447215 0.10049,0.49708 "/>
   <path id="_112896072" class="fil0 str0" d="M0.394039 0.473553c0.0139009,0.00142683 0.0238994,-0.00301338 0.0252996,-0.0203483 -0.00386522,0.000889106 -0.00924245,0.00451474 -0.0153491,0.00266732 -0.0136827,-0.00413674 -0.0241443,-0.00155461 -0.0337594,0.00587236 -0.00795404,-0.0035724 -0.0156738,-0.00737905 -0.0236279,-0.0109514 -0.00707558,0.00350319 -0.0143854,0.00724595 -0.0214663,0.0107491 -0.0068786,-0.0063249 -0.0124954,-0.0131769 -0.0295854,-0.0104191 -0.00598949,0.000968966 -0.0142896,0 -0.0202578,-0.00108609 0.00408883,0.0100783 0.00943944,0.0191397 0.0235746,0.0210564 0.00180483,0.00761863 0.00606935,0.0128681 0.0128734,0.0154928 0.0164884,-0.00849709 0.0286803,-0.00580847 0.0389131,0.00195923 0.00862487,-0.00759734 0.0185009,-0.00738438 0.0296227,0.000649527 0.00979082,0.000734711 0.012735,-0.00635685 0.0137625,-0.0156419z"/>
   <path id="_112896024" class="fil0 str0" d="M0.107816 0.473553c-0.0139009,0.00142683 -0.0238994,-0.00301338 -0.0252996,-0.0203483 0.00386522,0.000889106 0.00924245,0.00451474 0.0153437,0.00266732 0.013688,-0.00413674 0.0241496,-0.00155461 0.0337648,0.00587236 0.00795404,-0.0035724 0.0156738,-0.00737905 0.0236279,-0.0109514 0.00707558,0.00350319 0.0143854,0.00724595 0.0214663,0.0107491 0.0068786,-0.0063249 0.0124954,-0.0131769 0.0295854,-0.0104191 0.00598949,0.000968966 0.0142896,0 0.0202578,-0.00108609 -0.00408883,0.0100783 -0.00943944,0.0191397 -0.0235746,0.0210564 -0.00180483,0.00761863 -0.00606935,0.0128681 -0.0128734,0.0154928 -0.0164884,-0.00849709 -0.0286803,-0.00580847 -0.0389131,0.00195923 -0.00862487,-0.00759734 -0.0185009,-0.00738438 -0.0296227,0.000649527 -0.00979082,0.000734711 -0.012735,-0.00635685 -0.0137625,-0.0156419z"/>
   <polygon id="_112895976" class="fil0 str0" points="0.497979,0.49709 0.448099,0.497197 0.448408,0.447316 0.49783,0.447673 "/>
   <polygon id="_112895928" class="fil0 str0" points="0.497979,0.0025076 0.448179,0.00240112 0.44812,0.0515735 0.49783,0.0515682 "/>
   <polygon id="_112895880" class="fil0 str0" points="0.497857,0.447673 0.448232,0.447316 0.498086,0.400657 "/>
   <polygon id="_112895832" class="fil0 str0" points="0.497857,0.0515096 0.448232,0.0515149 0.498086,0.0996917 "/>
   <path id="_112895784" class="fil0 str0" d="M0.474565 0.393331c0.00142683,0.0139063 -0.00300805,0.0239047 -0.020343,0.0253049 0.000889106,-0.00386522 0.00451474,-0.00924777 0.00266732,-0.0153491 -0.00413142,-0.013688 -0.00155461,-0.0241603 0.00587236,-0.0337754 -0.0035724,-0.00795404 -0.00737905,-0.0156792 -0.0109514,-0.0236332 0.00350851,-0.00708091 0.00724595,-0.0143907 0.0107491,-0.0214717 -0.0063249,-0.00688392 -0.0131716,-0.0125007 -0.0104137,-0.0296014 0.000963642,-0.00598949 -5.32399e-006,-0.0142896 -0.00108609,-0.0202631 0.010073,0.00409415 0.0191291,0.00944476 0.0210457,0.0235853 0.00761863,0.00180483 0.0128681,0.00606935 0.0154875,0.0128787 -0.00849177,0.0164937 -0.00580847,0.0286857 0.00195923,0.0389237 -0.00759734,0.00863019 -0.00737905,0.0185062 0.000654851,0.0296333 0.000729387,0.00979082 -0.00636217,0.0127403 -0.0156419,0.0137678z"/>
   <path id="_112895736" class="fil0 str0" d="M0.474565 0.107018c0.00142683,-0.0139063 -0.00300805,-0.0239047 -0.020343,-0.0253103 0.000889106,0.00387054 0.00451474,0.00924777 0.00266732,0.0153544 -0.00413142,0.013688 -0.00155461,0.0241549 0.00587236,0.0337754 -0.0035724,0.00795404 -0.00737905,0.0156738 -0.0109514,0.0236332 0.00350851,0.00707558 0.00724595,0.0143907 0.0107491,0.0214717 -0.0063249,0.0068786 -0.0131716,0.0125007 -0.0104137,0.0295961 0.000963642,0.00598949 -5.32399e-006,0.0142896 -0.00108609,0.0202631 0.010073,-0.00409415 0.0191291,-0.00944476 0.0210457,-0.02358 0.00761863,-0.00181016 0.0128681,-0.00607467 0.0154875,-0.0128787 -0.00849177,-0.016499 -0.00580847,-0.028691 0.00195923,-0.038929 -0.00759734,-0.00862487 -0.00737905,-0.0185009 0.000654851,-0.029628 0.000729387,-0.00979614 -0.00636217,-0.0127403 -0.0156419,-0.0137678z"/>
   <path id="_112895688" class="fil0 str0" d="M0.0324231 0.201018c-0.00142683,-0.0139329 0.00300805,-0.0239473 0.020343,-0.0253528 -0.000889106,0.00387587 -0.00451474,0.00926374 -0.00266732,0.015381 0.00413674,0.0137093 0.00155461,0.0241975 -0.00587236,0.033834 0.0035724,0.00797001 0.00737905,0.0157058 0.0109514,0.0236758 -0.00350319,0.00709156 -0.00724595,0.0144174 -0.0107491,0.0215089 0.0063249,0.00689457 0.0131769,0.012522 0.0104137,0.0296493 -0.000963642,0.00600546 5.32399e-006,0.0143162 0.00109142,0.0203057 -0.0100783,-0.0041048 -0.0191344,-0.00946606 -0.0210511,-0.0236279 -0.00761331,-0.00181016 -0.0128681,-0.00608532 -0.0154875,-0.0129054 0.00849177,-0.0165203 0.00580847,-0.0287389 -0.00195923,-0.0389929 0.00759734,-0.00864084 0.00737905,-0.0185381 -0.000649527,-0.0296812 -0.000734711,-0.00981212 0.00635685,-0.0127669 0.0156366,-0.0137945z"/>
   <path id="_112895640" class="fil0 str0" d="M0.0140926 0.447109c0.00833205,-0.0188097 0.00457331,-0.0295428 -0.000915726,-0.0391207 0.00281639,-0.00916259 0.00937022,-0.00960448 0.0157004,-0.0105628 -6.38879e-005,-0.0133526 0.00929569,-0.0190652 0.021296,-0.0226323 -0.000181016,0.00270459 -0.00158655,0.00693716 -0.000548371,0.011782 0.0029069,0.0135336 0.00220946,0.0256563 -0.00913064,0.0375821 0.00389184,0.0076559 0.00777835,0.0153171 0.0116702,0.022973 -0.0126924,-5.32399e-006 -0.0253848,-1.5972e-005 -0.0380719,-2.1296e-005z"/>
   <path id="_112895592" class="fil0 str0" d="M0.0141405 0.051499c0.00833205,0.018815 0.00457331,0.0295428 -0.000915726,0.039126 0.00282172,0.00916259 0.00937022,0.00960448 0.0157058,0.0105628 -6.38879e-005,0.0133526 0.00929569,0.0190599 0.021296,0.0226323 -0.00018634,-0.00270459 -0.00159187,-0.00694248 -0.000548371,-0.0117873 0.00290158,-0.0135283 0.00220946,-0.0256563 -0.00913064,-0.0375767 0.00388651,-0.00766122 0.00777835,-0.0153171 0.0116702,-0.022973 -0.0126924,5.32399e-006 -0.0253848,1.0648e-005 -0.0380772,1.5972e-005z"/>
   <path id="_112895544" class="fil0 str0" d="M0.298591 0.0313423c0.0139329,-0.00142683 0.0239526,0.00300805 0.0253582,0.0203483 -0.00387587,-0.000889106 -0.00926374,-0.00451474 -0.015381,-0.00266732 -0.0137199,0.00413674 -0.0242082,0.00155461 -0.0338446,-0.00587236 -0.00797001,0.0035724 -0.0157058,0.00737905 -0.0236811,0.0109514 -0.00709156,-0.00350851 -0.0144174,-0.00724595 -0.0215142,-0.0107545 -0.00689457,0.00633023 -0.0125274,0.0131822 -0.0296546,0.0104191 -0.00600546,-0.000963642 -0.0143215,5.32399e-006 -0.0203057,0.00109142 0.00409947,-0.0100783 0.00946073,-0.0191397 0.0236279,-0.0210564 0.00181016,-0.00761863 0.00608532,-0.0128734 0.0129054,-0.0154928 0.016531,0.00849709 0.0287442,0.00580847 0.0390036,-0.00195923 0.00864616,0.00759734 0.0185435,0.00737905 0.0296919,-0.000654851 0.00981212,-0.000729387 0.0127616,0.00636217 0.0137945,0.0156472z"/>
   <path id="_112895496" class="fil0 str0" d="M0.0524466 0.0130012c0.018815,0.00833737 0.0295481,0.00457331 0.0391313,-0.000915726 0.00916259,0.00282172 0.00960448,0.00937555 0.0105628,0.0157111 0.0133579,-6.38879e-005 0.0190652,0.00929569 0.0226376,0.0213013 -0.00270459,-0.000181016 -0.00694248,-0.00159187 -0.0117873,-0.000548371 -0.0135283,0.00290158 -0.0256616,0.00220946 -0.0375874,-0.00913597 -0.0076559,0.00389184 -0.0153171,0.00778367 -0.022973,0.0116755 5.32399e-006,-0.0126977 1.0648e-005,-0.0253901 1.5972e-005,-0.0380878z"/>
   <path id="_112895448" class="fil0 str0" d="M0.448136 0.0130544c-0.018815,0.00833205 -0.0295481,0.00457331 -0.039126,-0.000915726 -0.00916791,0.00281639 -0.0096098,0.00937022 -0.0105681,0.0157058 -0.0133526,-6.38879e-005 -0.0190652,0.00930101 -0.0226376,0.0213013 0.00270459,-0.000181016 0.00694248,-0.00158655 0.0117873,-0.000548371 0.0135336,0.0029069 0.0256616,0.00221478 0.0375874,-0.00913064 0.00766122,0.00388651 0.0153171,0.00777835 0.0229783,0.0116702 -5.32399e-006,-0.0126924 -1.5972e-005,-0.0253901 -2.1296e-005,-0.0380825z"/>
   <polygon id="_112895400" class="fil0 str0" points="0.105069,0.00254487 0.208498,0.00254487 0.156344,0.0503703 "/>
   <polygon id="_112895352" class="fil0 str0" points="0.297776,0.00254487 0.401205,0.00254487 0.349051,0.0503703 "/>
   <polygon id="_112895304" class="fil0 str0" points="0.497937,0.20147 0.497937,0.3049 0.450106,0.252746 "/>
   <polygon id="_112895256" class="fil0 str0" points="0.303723,0.497208 0.200294,0.497208 0.252448,0.449382 "/>
   <polygon id="_112895208" class="fil0 str0" points="0.00224672,0.392745 0.00224672,0.289311 0.0500721,0.34147 "/>
   <polygon id="_112895160" class="fil0 str0" points="0.00446683,0.204867 0.00446683,0.101438 0.0522922,0.153592 "/>
  </g>
  <polygon class="fil1 str0" points="0.00333814,0.00227334 0.497836,0.00225737 0.497836,0.496925 0.00331685,0.496925 "/>
 </g>
</svg>
