<?xml version="1.0" encoding="UTF-8"?>
<!DOCTYPE svg PUBLIC "-//W3C//DTD SVG 1.1//EN" "http://www.w3.org/Graphics/SVG/1.1/DTD/svg11.dtd">
<!-- Creator: CorelDRAW -->
<svg xmlns="http://www.w3.org/2000/svg" xml:space="preserve" width="110px" height="110px" style="shape-rendering:geometricPrecision; text-rendering:geometricPrecision; image-rendering:optimizeQuality; fill-rule:evenodd; clip-rule:evenodd"
viewBox="0 0 1.48219 1.48219"
 xmlns:xlink="http://www.w3.org/1999/xlink">
 <defs>
  <style type="text/css">
   <![CDATA[
    .str0 {stroke:#4C4C4C;stroke-width:0.0133581}
    .fil0 {fill:white}
   ]]>
  </style>
 </defs>
 <g id="Capa_x0020_1">
  <metadata id="CorelCorpID_0Corel-Layer"/>
  <g id="_202110632">
   <rect id="_202110704" class="fil0 str0" x="0.00669469" y="0.00669475" width="1.4688" height="1.4688"/>
   <path id="_202110656" class="fil0 str0" d="M0.857992 0.742911c-0.017427,-0.0581163 -0.00982536,-0.0889644 -0.00138785,-0.114845 -0.0258803,0.00843751 -0.0570123,0.0160549 -0.115129,-0.00135631 -0.0581163,0.0174112 -0.0892483,0.00950994 -0.115129,0.00107243 0.00843751,0.0258803 0.0160391,0.0570123 -0.00137208,0.115129 0.0174112,0.0581005 0.00980959,0.0889487 0.00138785,0.114829 0.0258803,-0.00843751 0.0569965,-0.0160391 0.115113,0.00137208m-0.000646613 -0.635857c-0.0068604,0.00137208 -0.0113236,0.00438435 -0.0146355,0.0171273 -0.0105981,0.0408943 -0.0919767,0.0568546 -0.102827,0.0633365 0.0372354,0.0321571 0.0909831,0.0710643 0.102401,0.135473l0.00124591 0.107969c-0.127335,0.0217956 -0.185594,-0.0793283 -0.22898,-0.166306 0.0120648,-0.113299 0.0546309,-0.180783 0.118109,-0.216931 -0.0117021,-0.0313686 -0.0671689,-0.0418406 -0.11087,-0.0217009 -0.00241297,-0.0096361 -0.00482594,-0.0192722 -0.00723891,-0.0289083 -0.107842,0.0184994 -0.136356,0.108505 -0.115696,0.236203 -0.0410205,-0.0175374 -0.0309112,-0.136483 -0.0843593,-0.233806 -0.0136735,0.0120175 -0.0401846,0.0272681 -0.0409732,0.0650871 -0.039948,-0.0492372 -0.0866619,-0.0703231 -0.139463,-0.0616963 -0.00861099,0.0528014 0.0123014,0.0993733 0.0615228,0.139337 -0.037819,0.000772781 -0.0530538,0.0272839 -0.0650713,0.0409732 0.0973073,0.0534481 0.216252,0.0433388 0.23379,0.0843593 -0.127698,-0.0206758 -0.217688,0.00783821 -0.236203,0.115696 0.0096361,0.0023972 0.0192722,0.00482594 0.0289241,0.00722314 -0.0201554,0.0437173 -0.00968342,0.0991841 0.0216852,0.110886 0.036163,-0.0634784 0.103647,-0.10606 0.216931,-0.118109 0.0869773,0.0433861 0.188101,0.101629 0.166321,0.22898l-0.107984 -0.00126168c-0.0644089,-0.0114182 -0.103316,-0.0651502 -0.135473,-0.102386 -0.0064819,0.0108505 -0.0224264,0.0921975 -0.0633207,0.102827 -0.0127588,0.00331192 -0.021354,0.00656075 -0.0227261,0.0134054 0.00137208,0.0068604 0.00998307,0.013847 0.0227261,0.0171589 0.0408943,0.0105981 0.0568388,0.0919767 0.0633207,0.102811 0.0321571,-0.0372354 0.0710643,-0.0909674 0.135473,-0.102386l0.107984 -0.00126168c0.0217798,0.127351 -0.0793441,0.185609 -0.166321,0.22898 -0.113283,-0.0120491 -0.180768,-0.0546309 -0.216931,-0.118094 -0.0313686,0.0116863 -0.0418406,0.0671689 -0.0216852,0.11087 -0.00965188,0.00241297 -0.019288,0.00482594 -0.0289241,0.00722314 0.0185152,0.107858 0.108505,0.136372 0.236203,0.115712 -0.0175374,0.0410205 -0.136483,0.0308955 -0.23379,0.0843593 0.0120175,0.0136735 0.0272524,0.0401846 0.0650713,0.0409732 -0.0492214,0.039948 -0.0733511,0.091267 -0.0647401,0.144068 0.0528014,0.00862676 0.102733,-0.0172062 0.142681,-0.0664276 0.000788552,0.037819 0.0272997,0.0530538 0.0409732,0.0650713 0.0534481,-0.0973231 0.0433388,-0.216268 0.0843593,-0.233806 -0.0206601,0.127714 0.00785398,0.217703 0.115696,0.236219 0.00241297,-0.0096361 0.00482594,-0.019288 0.00723891,-0.0289241 0.0437015,0.0201554 0.0991683,0.00968342 0.11087,-0.0217009 -0.0634784,-0.0361472 -0.106044,-0.103631 -0.118109,-0.216931 0.0433861,-0.0869615 0.101644,-0.188085 0.22898,-0.166306l-0.00124591 0.107984c-0.0114182,0.0644089 -0.0651659,0.103316 -0.102401,0.135457 0.0108505,0.0064819 0.0922133,0.0224422 0.102827,0.0633365 0.00331192,0.0127588 0.0102196,0.0197138 0.01708,0.0210859 0.0068604,-0.00137208 0.0101723,-0.00832711 0.0134842,-0.0210859 0.0106297,-0.0408943 0.0919767,-0.0568546 0.102827,-0.0633365 -0.0372354,-0.0321414 -0.0909674,-0.0710485 -0.102386,-0.135457l-0.00126168 -0.107984c0.127335,-0.0217798 0.185594,0.0793441 0.22898,0.166306 -0.0120491,0.113299 -0.0546309,0.180783 -0.118109,0.216931 0.0117021,0.0313844 0.0671846,0.0418563 0.110886,0.0217009 0.00241297,0.0096361 0.00481017,0.019288 0.00722314,0.0289241 0.107858,-0.0185152 0.136372,-0.108505 0.115696,-0.236219 0.0410205,0.0175374 0.0309112,0.136483 0.0843593,0.233806 0.0136735,-0.0120175 0.0402004,-0.0272524 0.0409732,-0.0650713 0.039948,0.0492214 0.0920556,0.0677839 0.144857,0.0591729 0.00861099,-0.0528014 -0.0176793,-0.0968657 -0.0669165,-0.136814 0.037819,-0.000788552 0.0530695,-0.0272997 0.0650871,-0.0409732 -0.0973231,-0.0534638 -0.216268,-0.0433388 -0.233806,-0.0843593 0.127714,0.0206601 0.217703,-0.00785398 0.236203,-0.115712 -0.0096361,-0.0023972 -0.0192722,-0.00481017 -0.0289083,-0.00722314 0.0201396,-0.0437015 0.00968342,-0.0991841 -0.0217009,-0.11087 -0.036163,0.0634627 -0.103647,0.106044 -0.216931,0.118094 -0.0869773,-0.0433704 -0.188085,-0.101629 -0.166306,-0.22898l0.107969 0.00126168c0.0644247,0.0114182 0.103316,0.0651502 0.135473,0.102386 0.0064819,-0.0108347 0.0224422,-0.0922133 0.0633207,-0.102811 0.0127588,-0.00331192 0.0190199,-0.0116706 0.020392,-0.018531 -0.00137208,-0.00684463 -0.00656075,-0.0152033 -0.0193038,-0.0185152 -0.0408785,-0.0106139 -0.057927,-0.0854948 -0.0644089,-0.0963453 -0.0321571,0.0372354 -0.0710485,0.0909674 -0.135473,0.102386l-0.107969 0.00126168c-0.0217798,-0.127351 0.0793283,-0.185594 0.166306,-0.22898 0.113283,0.0120491 0.180768,0.0546309 0.216931,0.118109 0.0313844,-0.0117021 0.0418406,-0.0671689 0.0217009,-0.110886 0.0096361,-0.0023972 0.0192722,-0.00482594 0.0289083,-0.00722314 -0.0184994,-0.107858 -0.108489,-0.136372 -0.236203,-0.115696 0.0175374,-0.0410205 0.136483,-0.0309112 0.233806,-0.0843593 -0.0120175,-0.0136893 -0.0272681,-0.0402004 -0.0650871,-0.0409732 0.0492372,-0.0399638 0.0701496,-0.0865357 0.0615386,-0.139337 -0.0528014,-0.00862676 -0.099531,0.0124591 -0.139479,0.0616963 -0.000772781,-0.037819 -0.0272997,-0.0530695 -0.0409732,-0.0650871 -0.0534481,0.0973231 -0.0433388,0.216268 -0.0843593,0.233806 0.0206758,-0.127698 -0.00783821,-0.217703 -0.115696,-0.236203 -0.00241297,0.0096361 -0.00481017,0.0192722 -0.00722314,0.0289083 -0.0437015,-0.0201396 -0.0991841,-0.00966765 -0.110886,0.0217009 0.0634784,0.0361472 0.10606,0.103631 0.118109,0.216931 -0.0433861,0.0869773 -0.101644,0.188101 -0.22898,0.166306l0.00126168 -0.107969c0.0114182,-0.0644089 0.0651502,-0.103316 0.102386,-0.135473 -0.0108505,-0.0064819 -0.0922133,-0.0224264 -0.102827,-0.0633365 -0.00331192,-0.012743 -0.00906835,-0.0157553 -0.0159287,-0.0171273zm0.000646613 0.635857c0.0581163,-0.0174112 0.0892483,-0.00952571 0.115129,-0.0010882 -0.00842173,-0.0258803 -0.0160391,-0.0570123 0.00138785,-0.115113"/>
  </g>
 </g>
</svg>
