<?xml version="1.0" encoding="UTF-8"?>
<!DOCTYPE svg PUBLIC "-//W3C//DTD SVG 1.1//EN" "http://www.w3.org/Graphics/SVG/1.1/DTD/svg11.dtd">
<!-- Creator: CorelDRAW -->
<svg xmlns="http://www.w3.org/2000/svg" xml:space="preserve" width="110px" height="110px" style="shape-rendering:geometricPrecision; text-rendering:geometricPrecision; image-rendering:optimizeQuality; fill-rule:evenodd; clip-rule:evenodd"
viewBox="0 0 0.339815 0.339815"
 xmlns:xlink="http://www.w3.org/1999/xlink">
 <defs>
  <style type="text/css">
   <![CDATA[
    .str0 {stroke:#4C4C4C;stroke-width:0.00306253}
    .fil0 {fill:none}
   ]]>
  </style>
 </defs>
 <g id="Plan_x0020_1">
  <metadata id="CorelCorpID_0Corel-Layer"/>
  <g id="_202287416">
   <rect id="_202287272" class="fil0 str0" x="0.00153488" y="0.00153488" width="0.336745" height="0.336745"/>
   <path id="_202287200" class="fil0 str0" d="M0.304474 0.130561c-0.0143726,-0.0231335 -0.0363997,-0.0293815 -0.0568612,-0.032162 0.0112992,-0.0108725 0.0238639,-0.0159599 0.0346243,-0.0139676 0.00275158,0.00105218 0.00308061,0.00335179 0.00125105,0.00551762 -0.00269373,0.00922014 0.00376399,0.0101892 0.00797994,0.00485233 0.00119319,-0.00403517 0.00365551,-0.00184041 0.00321078,0.000430273 -0.00347111,0.00589366 -0.00102325,0.00961787 0.0067289,0.00703985 0.00108111,-0.00103049 0.00237193,-0.00107026 0.00387246,-0.000430273 0.000639986,0.00210075 0.00497526,-0.00044112 0.0106773,-0.00297576 -0.012091,-0.0183499 -0.0276857,-0.0248293 -0.0477278,-0.0222549 0.0201035,-0.0142533 0.0267312,-0.0189176 0.0254295,-0.0216764 0.000788232,-0.00210436 0.00340241,-0.00476555 0.00736165,-0.00176448 0.00228876,0.00244786 0.00390139,0.00556824 0.00555016,0.00865247 0.00678675,-0.00512351 0.0120151,-0.0122791 0.00430273,-0.0181221 0.00707239,-0.00305892 0.00698561,-0.00998668 0.00389415,-0.0187585 -0.00877179,-0.00309146 -0.0155947,-0.00300468 -0.0186536,0.00406771 -0.00584304,-0.00771238 -0.0129986,-0.0024804 -0.0181221,0.00430273 0.00308423,0.00165239 0.00620461,0.0032614 0.00865247,0.00555016 0.00300107,0.00396285 0.00033988,0.00657703 -0.0017681,0.00736165 -0.0027552,-0.00130167 -0.00742312,0.0053296 -0.0216728,0.0254331 0.00257079,-0.0200457 -0.003905,-0.0356404 -0.0222585,-0.0477314 -0.00253102,0.00570564 -0.0050765,0.0100373 -0.00297576,0.0106809 0.000639986,0.00149692 0.000603829,0.00278774 -0.000430273,0.00387246 -0.00257802,0.00774853 0.00114981,0.0102 0.00704346,0.00672528 0.00227069,-0.00044112 0.00446183,0.0020212 0.000430273,0.00321078 -0.00534045,0.00421957 -0.00436782,0.0106737 0.00485233,0.00797994 0.00216221,-0.00182595 0.00446183,-0.00150053 0.00551401,0.00125105 0.00199589,0.0107604 -0.00309507,0.0233251 -0.0139676,0.0346243 -0.00278051,-0.0204615 -0.00902489,-0.042485 -0.0321548,-0.0568575 -0.0289549,-0.0179883 -0.0624981,-0.0162166 -0.0883145,0.00722787 -0.0153741,0.0139604 -0.0201939,0.0323537 -0.0225405,0.0496297 -0.0108725,-0.0112992 -0.0159635,-0.0238639 -0.0139676,-0.0346243 0.00105218,-0.00275158 0.00335179,-0.003077 0.00551401,-0.00125105 0.00922014,0.00269373 0.0101928,-0.00376037 0.00485233,-0.00797994 -0.00403155,-0.00118958 -0.00184041,-0.0036519 0.000430273,-0.00321078 0.00589366,0.00347473 0.00962149,0.00102325 0.00704346,-0.00672528 -0.0010341,-0.00108472 -0.00107026,-0.00237554 -0.000430273,-0.00387246 0.00210075,-0.000643602 -0.000444736,-0.00497526 -0.00297576,-0.0106809 -0.0183535,0.012091 -0.0248293,0.0276857 -0.0222585,0.0477314 -0.0142496,-0.0201035 -0.0189176,-0.0267348 -0.0216728,-0.0254331 -0.00210798,-0.000784616 -0.00476916,-0.0033988 -0.0017681,-0.00736165 0.00244786,-0.00228876 0.00556824,-0.00389777 0.00865247,-0.00555016 -0.00512351,-0.00678313 -0.0122791,-0.0120151 -0.0181221,-0.00430273 -0.00305892,-0.00707239 -0.00988182,-0.00715917 -0.0186536,-0.00406771 -0.00309146,0.00877179 -0.00317824,0.0156996 0.00389415,0.0187585 -0.00771238,0.00584304 -0.00248401,0.0129986 0.00430273,0.0181221 0.00164878,-0.00308423 0.0032614,-0.00620461 0.00555016,-0.00865247 0.00395924,-0.00300107 0.00657342,-0.00033988 0.00736165,0.00176448 -0.00130167,0.00275881 0.00532599,0.00742312 0.0254295,0.0216764 -0.0200421,-0.00257441 -0.0356367,0.003905 -0.0477278,0.0222549 0.00570202,0.00253463 0.0100373,0.0050765 0.0106773,0.00297576 0.00150053,-0.000639986 0.00279135,-0.000600213 0.00387246,0.000430273 0.00775215,0.00257802 0.0102,-0.00114619 0.0067289,-0.00703985 -0.000444736,-0.00227069 0.00201758,-0.00446544 0.00321078,-0.000430273 0.00421595,0.00533683 0.0106737,0.00436782 0.00797994,-0.00485233 -0.00182957,-0.00216583 -0.00150053,-0.00446544 0.00125105,-0.00551762 0.0107604,-0.00199227 0.0233251,0.00309507 0.0346243,0.0139676 -0.0181872,0.00247317 -0.0376109,0.00768345 -0.0517991,0.0250607 -0.0223417,0.0273639 -0.0228298,0.0619051 -0.00208628,0.0902019 0.0143292,0.0195431 0.0347907,0.0251583 0.0538854,0.0277544 -0.0112992,0.0108725 -0.0238639,0.0159599 -0.0346243,0.0139676 -0.00275158,-0.00105218 -0.00308061,-0.00335179 -0.00125105,-0.00551762 0.00269373,-0.00922014 -0.00376399,-0.0101892 -0.00797994,-0.00485233 -0.00119319,0.00403517 -0.00365551,0.00184041 -0.00321078,-0.000430273 0.00347111,-0.00589366 0.00102325,-0.00961787 -0.0067289,-0.00703985 -0.00108111,0.00103049 -0.00237193,0.00107026 -0.00387246,0.000430273 -0.000639986,-0.00210075 -0.00497526,0.00044112 -0.0106773,0.00297576 0.012091,0.0183499 0.0276857,0.0248293 0.0477278,0.0222549 -0.0201035,0.0142533 -0.0267312,0.0189176 -0.0254295,0.0216764 -0.000788232,0.00210436 -0.00340241,0.00476555 -0.00736165,0.00176448 -0.00228876,-0.00244786 -0.00390139,-0.00556824 -0.00555016,-0.00865247 -0.00678675,0.00512351 -0.0120151,0.0122791 -0.00430273,0.0181221 -0.00707239,0.00305892 -0.00698561,0.00998668 -0.00389415,0.0187585 0.00877179,0.00309146 0.0155947,0.00300468 0.0186536,-0.00406771 0.00584304,0.00771238 0.0129986,0.0024804 0.0181221,-0.00430273 -0.00308423,-0.00165239 -0.00620461,-0.0032614 -0.00865247,-0.00555016 -0.00300107,-0.00396285 -0.00033988,-0.00657703 0.0017681,-0.00736165 0.0027552,0.00130167 0.00742312,-0.0053296 0.0216728,-0.0254331 -0.00257079,0.0200457 0.003905,0.0356404 0.0222585,0.0477314 0.00253102,-0.00570564 0.0050765,-0.0100373 0.00297576,-0.0106809 -0.000639986,-0.00149692 -0.000603829,-0.00278774 0.000430273,-0.00387246 0.00257802,-0.00774853 -0.00114981,-0.0102 -0.00704346,-0.00672528 -0.00227069,0.00044112 -0.00446183,-0.0020212 -0.000430273,-0.00321078 0.00534045,-0.00421957 0.00436782,-0.0106737 -0.00485233,-0.00797994 -0.00216221,0.00182595 -0.00446183,0.00150053 -0.00551401,-0.00125105 -0.00199589,-0.0107604 0.00309507,-0.0233251 0.0139676,-0.0346243 0.0024117,0.0177316 0.00742312,0.0366383 0.0237735,0.0507216 0.0288211,0.0248221 0.0693318,0.024428 0.0972996,-0.00164516 0.0148969,-0.0138881 0.0196226,-0.0320246 0.0219367,-0.0490765 0.0108725,0.0112992 0.0159635,0.0238639 0.0139676,0.0346243 -0.00105218,0.00275158 -0.00335179,0.003077 -0.00551401,0.00125105 -0.00922014,-0.00269373 -0.0101928,0.00376037 -0.00485233,0.00797994 0.00403155,0.00118958 0.00184041,0.0036519 -0.000430273,0.00321078 -0.00589366,-0.00347473 -0.00962149,-0.00102325 -0.00704346,0.00672528 0.0010341,0.00108472 0.00107026,0.00237554 0.000430273,0.00387246 -0.00210075,0.000643602 0.000444736,0.00497526 0.00297576,0.0106809 0.0183535,-0.012091 0.0248293,-0.0276857 0.0222585,-0.0477314 0.0142496,0.0201035 0.0189176,0.0267348 0.0216728,0.0254331 0.00210798,0.000784616 0.00476916,0.0033988 0.0017681,0.00736165 -0.00244786,0.00228876 -0.00556824,0.00389777 -0.00865247,0.00555016 0.00512351,0.00678313 0.0122791,0.0120151 0.0181221,0.00430273 0.00305892,0.00707239 0.00988182,0.00715917 0.0186536,0.00406771 0.00309146,-0.00877179 0.00317824,-0.0156996 -0.00389415,-0.0187585 0.00771238,-0.00584304 0.00248401,-0.0129986 -0.00430273,-0.0181221 -0.00164878,0.00308423 -0.0032614,0.00620461 -0.00555016,0.00865247 -0.00395924,0.00300107 -0.00657342,0.00033988 -0.00736165,-0.00176448 0.00130167,-0.00275881 -0.00532599,-0.00742312 -0.0254295,-0.0216764 0.0200421,0.00257441 0.0356367,-0.003905 0.0477278,-0.0222549 -0.00570202,-0.00253463 -0.0100373,-0.0050765 -0.0106773,-0.00297576 -0.00150053,0.000639986 -0.00279135,0.000600213 -0.00387246,-0.000430273 -0.00775215,-0.00257802 -0.0102,0.00114619 -0.0067289,0.00703985 0.000444736,0.00227069 -0.00201758,0.00446544 -0.00321078,0.000430273 -0.00421595,-0.00533683 -0.0106737,-0.00436782 -0.00797994,0.00485233 0.00182957,0.00216583 0.00150053,0.00446544 -0.00125105,0.00551762 -0.0107604,0.00199227 -0.0233251,-0.00309507 -0.0346243,-0.0139676 0.0195503,-0.00265757 0.0405325,-0.00847891 0.0548978,-0.0291754 0.0182559,-0.0262973 0.0187476,-0.0546628 0.00196335,-0.0816796z"/>
   <path id="_202287128" class="fil0 str0" d="M0.140696 0.198866c-0.00301914,-0.00301191 -0.00667827,-0.00265034 -0.0108436,0.00122935 -0.00854038,-0.00245147 -0.0118379,0.000994329 -0.00946963,0.0111871 -0.0153994,0.00650833 -0.0320789,0.0070977 -0.0459271,0.00224176 -0.0404927,-0.0142062 -0.0410531,-0.073696 -7.59306e-005,-0.0875588 0.0139206,-0.0047077 0.030676,-0.00391946 0.0460031,0.00255633 -0.00236831,0.0101928 0.000929246,0.0136386 0.00946963,0.0111871 0.00416533,0.00387969 0.00807757,0.00399539 0.0110967,0.000987097 0.00301191,-0.00301914 0.00265034,-0.00667827 -0.00122935,-0.0108436 0.00245147,-0.00854038 -0.000994329,-0.0118379 -0.0111871,-0.00946963 -0.00650833,-0.0153994 -0.0070977,-0.0320789 -0.00224176,-0.0459271 0.0142062,-0.0404927 0.073696,-0.0410531 0.0875588,-7.59306e-005 0.0047077,0.0139206 0.00391946,0.030676 -0.00255633,0.0460031 -0.0101928,-0.00236831 -0.0136386,0.000929246 -0.0111871,0.00946963 -0.00387969,0.00416533 -0.00425211,0.00783531 -0.0012402,0.0108545 0.00301914,0.0030083 0.00693138,0.00289259 0.0110967,-0.000987097 0.00854038,0.00245147 0.0118379,-0.000994329 0.00946963,-0.0111871 0.0153994,-0.00650833 0.0320789,-0.0070977 0.0459271,-0.00224176 0.0404927,0.0142062 0.0410531,0.073696 7.59306e-005,0.0875588 -0.0139206,0.0047077 -0.030676,0.00391946 -0.0460031,-0.00255633 0.00236831,-0.0101928 -0.000929246,-0.0136386 -0.00946963,-0.0111871 -0.00416533,-0.00387969 -0.00783531,-0.00425211 -0.0108545,-0.0012402 -0.0030083,0.00301914 -0.00289259,0.00693138 0.000987097,0.0110967 -0.00245147,0.00854038 0.000994329,0.0118379 0.0111871,0.00946963 0.00650833,0.0153994 0.0070977,0.0320789 0.00224176,0.0459271 -0.0142062,0.0404927 -0.073696,0.0410531 -0.0875588,7.59306e-005 -0.0047077,-0.0139206 -0.00391946,-0.030676 0.00255633,-0.0460031 0.0101928,0.00236831 0.0136386,-0.000929246 0.0111871,-0.00946963 0.00387969,-0.00416533 0.00399539,-0.00807757 0.000987097,-0.0110967z"/>
   <path id="_202287056" class="fil0 str0" d="M0.169654 0.0516328c-0.00347834,0.0053296 -0.00620823,0.012543 -0.00842106,0.0210472 0.0041581,0.00951663 0.00760029,0.0193514 0.00602383,0.0314172 -0.0154537,-0.0414111 -0.0510543,-0.010887 -0.0279714,0.00473301 -0.00150053,-0.0124852 0.0130094,-0.0213763 0.0223778,-0.00516328 -0.00342411,0.00644325 -0.000733996,0.0093937 0.00473301,0.0107568 -0.000867778,0.00429912 -0.00435697,0.00685183 -0.00903935,0.00860908 0.00377845,-0.000715917 0.00739781,-0.000958172 0.0098999,0.00215137 0.000799079,0.00157646 0.00179702,0.00315654 0.00259972,0.00473301 0.000799079,-0.00157646 0.00159816,-0.00315654 0.00239724,-0.00473301 0.00250209,-0.00310954 0.00612145,-0.00286728 0.00989628,-0.00215137 -0.00467877,-0.00175725 -0.00816796,-0.00430996 -0.00903574,-0.00860908 0.005467,-0.00136313 0.00815711,-0.00431358 0.00473301,-0.0107568 0.009372,-0.016213 0.0238784,-0.00732188 0.0223778,0.00516328 0.0230829,-0.01562 -0.0125177,-0.0461441 -0.0279714,-0.00473301 -0.00157646,-0.0120657 0.00257441,-0.0214269 0.00673251,-0.0309435 -0.00221283,-0.00850422 -0.00585027,-0.0161913 -0.00933223,-0.0215209z"/>
   <path id="_202286984" class="fil0 str0" d="M0.0516364 0.170153c0.0053296,0.00348196 0.012543,0.00621184 0.0210508,0.00842468 0.00951663,-0.0041581 0.0193478,-0.0076039 0.0314136,-0.00602383 -0.0414111,0.0154537 -0.010887,0.0510507 0.00473301,0.0279714 -0.0124852,0.00150053 -0.0213726,-0.0130094 -0.00516328,-0.0223778 0.00644325,0.00342049 0.00939731,0.000733996 0.0107604,-0.00473301 0.00429912,0.000867778 0.00684821,0.00435697 0.00860547,0.00903574 -0.000715917,-0.00377845 -0.000954556,-0.00739419 0.00215137,-0.00989628 0.00158008,-0.000802695 0.00315654,-0.00180064 0.00473662,-0.00259972 -0.00158008,-0.000799079 -0.00315654,-0.00159816 -0.00473662,-0.00240085 -0.00310592,-0.00250209 -0.00286728,-0.00611783 -0.00215137,-0.00989628 -0.00175725,0.00467877 -0.00430635,0.00816796 -0.00860547,0.00903935 -0.00136313,-0.00547062 -0.0043172,-0.00815711 -0.0107604,-0.00473301 -0.0162094,-0.009372 -0.00732188,-0.0238784 0.00516328,-0.0223814 -0.01562,-0.0230793 -0.0461441,0.0125177 -0.00473301,0.0279714 -0.0120657,0.00158008 -0.0214233,-0.00257441 -0.0309399,-0.00673251 -0.00850422,0.00221283 -0.0161949,0.00585027 -0.0215245,0.00933223z"/>
   <path id="_202286912" class="fil0 str0" d="M0.17016 0.288171c0.00347834,-0.0053296 0.00620823,-0.012543 0.00842106,-0.0210472 -0.0041581,-0.00951663 -0.00760029,-0.0193478 -0.00602383,-0.0314172 0.0154537,0.0414147 0.0510543,0.010887 0.0279714,-0.00473301 0.00150053,0.0124888 -0.0130094,0.0213763 -0.0223778,0.00516328 0.00342411,-0.00644325 0.000733996,-0.0093937 -0.00473301,-0.0107568 0.000867778,-0.00429912 0.00435697,-0.00685183 0.00903935,-0.00860908 -0.00377845,0.000719533 -0.00739781,0.000958172 -0.0098999,-0.00215137 -0.000799079,-0.00157646 -0.00179702,-0.00315293 -0.00259972,-0.00473301 -0.000799079,0.00158008 -0.00159816,0.00315654 -0.00239724,0.00473301 -0.00250209,0.00310954 -0.00612145,0.0028709 -0.00989628,0.00215137 0.00467877,0.00175725 0.00816796,0.00430996 0.00903574,0.00860908 -0.005467,0.00136313 -0.00815711,0.00431358 -0.00473301,0.0107568 -0.009372,0.016213 -0.0238784,0.00732549 -0.0223778,-0.00516328 -0.0230829,0.01562 0.0125177,0.0461477 0.0279714,0.00473301 0.00157646,0.0120693 -0.00257441,0.0214269 -0.00673251,0.0309435 0.00221283,0.00850422 0.00585027,0.0161913 0.00933223,0.0215209z"/>
   <path id="_202286840" class="fil0 str0" d="M0.288178 0.169651c-0.0053296,-0.00348196 -0.012543,-0.00621184 -0.0210508,-0.00842468 -0.00951663,0.00416172 -0.0193478,0.0076039 -0.0314136,0.00602744 0.0414111,-0.0154573 0.010887,-0.0510543 -0.00473301,-0.0279714 0.0124852,-0.00150053 0.0213726,0.0130058 0.00516328,0.0223742 -0.00644325,-0.00342049 -0.00939731,-0.00073038 -0.0107604,0.00473662 -0.00429912,-0.000871394 -0.00684821,-0.00435697 -0.00860547,-0.00903935 0.000715917,0.00377845 0.000954556,0.00739781 -0.00215137,0.0098999 -0.00158008,0.000799079 -0.00315654,0.00179702 -0.00473662,0.0025961 0.00158008,0.000799079 0.00315654,0.00160177 0.00473662,0.00240085 0.00310592,0.00250209 0.00286728,0.00611783 0.00215137,0.00989628 0.00175725,-0.00467877 0.00430635,-0.00816796 0.00860547,-0.00903574 0.00136313,0.005467 0.0043172,0.0081535 0.0107604,0.00473301 0.0162094,0.00936839 0.00732188,0.0238747 -0.00516328,0.0223778 0.01562,0.0230829 0.0461441,-0.0125177 0.00473301,-0.0279714 0.0120657,-0.00158008 0.0214233,0.00257441 0.0309399,0.00673251 0.00850422,-0.00221283 0.0161949,-0.00585027 0.0215245,-0.00933223z"/>
   <path id="_202286768" class="fil0 str0" d="M0.169737 0.135652c0.00980228,0.000668912 0.0167915,0.00554293 0.02215,0.0122284 0.00668551,0.00535853 0.0115559,0.0122682 0.0122248,0.0220705 -0.000668912,0.00980228 -0.00553932,0.0166794 -0.0122248,0.0220379 -0.0126117,0.0157321 -0.0316594,0.0157285 -0.0442675,0 -0.00668551,-0.00535853 -0.0115523,-0.0122357 -0.0122248,-0.0220379 0.000672528,-0.00980228 0.00553932,-0.016712 0.0122248,-0.0220705 0.00535853,-0.00668551 0.0123152,-0.0115595 0.0221175,-0.0122284zm1.80787e-005 0.0148788c0.00381461,-7.95463e-005 0.00931415,0.00233215 0.0125611,0.00690607 0.00457753,0.00324694 0.00699646,0.00867778 0.0069133,0.012496 8.31621e-005,0.00381822 -0.00233577,0.00925268 -0.0069133,0.0124996 -0.00324694,0.00457391 -0.00874648,0.00698561 -0.0125611,0.00690607 -0.00381822,7.95463e-005 -0.00931415,-0.00233215 -0.0125647,-0.00690607 -0.00457391,-0.00324694 -0.00699646,-0.0086814 -0.0069133,-0.0124996 -8.31621e-005,-0.00381822 0.00233938,-0.00924907 0.0069133,-0.012496 0.00325055,-0.00457391 0.00874648,-0.00698561 0.0125647,-0.00690607z"/>
   <path id="_202286696" class="fil0 str0" d="M0.17813 0.169929c-0.000137398,-0.00364828 -0.00162708,-0.00450883 -0.00306976,-0.00520667 -0.000697838,-0.00144268 -0.00165601,-0.00295768 -0.00530068,-0.00309507 -0.00364828,0.000137398 -0.00460645,0.00165239 -0.00530429,0.00309507 -0.00144268,0.000697838 -0.00293237,0.00155838 -0.00306976,0.00520667 0.000137398,0.00364828 0.00162708,0.00450883 0.00306976,0.00520667 0.000697838,0.00144268 0.00165601,0.00295768 0.00530429,0.00309507 0.00364467,-0.000137398 0.00460284,-0.00165239 0.00530068,-0.00309507 0.00144268,-0.000697838 0.00293237,-0.00155838 0.00306976,-0.00520667zm0.0111003 7.23148e-006c-0.000307338,-0.0061793 -0.00330479,-0.00974442 -0.00690607,-0.0125105 -0.00276966,-0.00360128 -0.00639625,-0.0065915 -0.0125755,-0.00689883 -0.0061793,0.000307338 -0.00978781,0.00329756 -0.0125575,0.00689883 -0.00360128,0.00276604 -0.00659873,0.00633116 -0.00690607,0.0125105 0.000307338,0.0061793 0.00330479,0.00972996 0.00690607,0.0124996 0.00276966,0.00360128 0.00637817,0.00658788 0.0125575,0.00689522 0.0061793,-0.000307338 0.00980589,-0.00329394 0.0125755,-0.00689522 0.00360128,-0.00276966 0.00659873,-0.00632032 0.00690607,-0.0124996z"/>
   <path id="_202286624" class="fil0 str0" d="M0.17813 0.169929c-0.000137398,-0.00364828 -0.00162708,-0.00450883 -0.00306976,-0.00520667 -0.000697838,-0.00144268 -0.00165601,-0.00295768 -0.00530068,-0.00309507 -0.00364828,0.000137398 -0.00460645,0.00165239 -0.00530429,0.00309507 -0.00144268,0.000697838 -0.00293237,0.00155838 -0.00306976,0.00520667 0.000137398,0.00364828 0.00162708,0.00450883 0.00306976,0.00520667 0.000697838,0.00144268 0.00165601,0.00295768 0.00530429,0.00309507 0.00364467,-0.000137398 0.00460284,-0.00165239 0.00530068,-0.00309507 0.00144268,-0.000697838 0.00293237,-0.00155838 0.00306976,-0.00520667z"/>
  </g>
 </g>
</svg>
