<?xml version="1.0" encoding="UTF-8"?>
<!DOCTYPE svg PUBLIC "-//W3C//DTD SVG 1.1//EN" "http://www.w3.org/Graphics/SVG/1.1/DTD/svg11.dtd">
<!-- Creator: CorelDRAW -->
<svg xmlns="http://www.w3.org/2000/svg" xml:space="preserve" width="110px" height="110px" style="shape-rendering:geometricPrecision; text-rendering:geometricPrecision; image-rendering:optimizeQuality; fill-rule:evenodd; clip-rule:evenodd"
viewBox="0 0 1.04213 1.04216"
 xmlns:xlink="http://www.w3.org/1999/xlink">
 <defs>
  <style type="text/css">
   <![CDATA[
    .str0 {stroke:#4C4C4C;stroke-width:0.00939228}
    .fil2 {fill:none}
    .fil1 {fill:none;fill-rule:nonzero}
    .fil0 {fill:white;fill-rule:nonzero}
   ]]>
  </style>
 </defs>
 <g id="Capa_x0020_1">
  <metadata id="CorelCorpID_0Corel-Layer"/>
  <g id="_109281720">
   <polygon id="_109283328" class="fil0 str0" points="0.00476822,1.03742 1.03743,1.03742 1.03743,0.00472386 0.00476822,0.00472386 "/>
   <polygon id="_109283280" class="fil0 str0" points="1.0374,1.03739 1.0374,0.00470169 0.00473495,0.00470169 0.00473495,1.03739 "/>
   <polygon id="_109283232" class="fil0 str0" points="0.00473495,0.00476822 0.00473495,1.03744 1.03741,1.03744 1.03741,0.00476822 "/>
   <polygon id="_109283184" class="fil1 str0" points="1.03738,0.00473495 0.00471277,0.00473495 0.00471277,1.03742 1.03738,1.03742 "/>
   <polygon id="_109283136" class="fil1 str0" points="0.00471277,1.03743 1.03738,1.03743 1.03738,0.00474604 0.00471277,0.00474604 "/>
   <polygon id="_109283088" class="fil1 str0" points="0.00472386,0.00475713 0.00472386,1.03744 1.0374,1.03744 1.0374,0.00475713 "/>
   <polygon id="_109283040" class="fil1 str0" points="0.00472386,1.03744 1.03739,1.03744 1.03739,0.00475713 0.00472386,0.00475713 "/>
   <path id="_109282992" class="fil0 str0" d="M1.01337 0.521078c0,0.00821686 -0.000321578,0.0161232 -0.000942555,0.0237302 -0.00915942,0.113938 -0.0823128,0.160112 -0.0823128,0.160112 -0.0940226,0.0648367 -0.142326,-0.00450209 -0.142326,-0.00450209 -0.0106121,0.00284984 -0.0137059,0.0122532 -0.0142714,0.0204368 -0.000499,0.00720777 0.000964733,0.013473 0.000964733,0.013473 -1.10889e-005,0 -2.21778e-005,-1.10889e-005 -3.32666e-005,-2.21778e-005 -0.0269349,-0.0190618 -0.0544021,-0.0204812 -0.0572852,-0.0175981 -0.00328231,0.00328231 0.00240629,0.034808 0.0165003,0.0566753 0.000232867,0.000354844 0.000454644,0.000709688 0.000687511,0.00106453 0,0 -3.32666e-005,-1.10889e-005 -7.76222e-005,-2.21778e-005 -0.00160789,-0.000354844 -0.0286315,-0.00604344 -0.0338433,0.0133288 0,0 2.21778e-005,1.10889e-005 2.21778e-005,1.10889e-005 0.0005988,0.000421378 0.035806,0.0253825 0.0318694,0.0739628 -0.00154135,0.0191394 -0.00917051,0.0419382 -0.0273784,0.0683519 0,0 -0.0525502,0.0832553 -0.183843,0.0832553 -0.131303,0 -0.183843,-0.0832553 -0.183843,-0.0832553 -0.0222887,-0.032313 -0.0287202,-0.0592368 -0.027567,-0.0806383 0.00217342,-0.0402859 0.031193,-0.0610665 0.0320358,-0.0616653 2.21778e-005,-1.10889e-005 3.32666e-005,-2.21778e-005 3.32666e-005,-2.21778e-005 -0.00522286,-0.0194388 -0.0324128,-0.0136504 -0.0338433,-0.0133288 -4.43555e-005,1.10889e-005 -7.76222e-005,2.21778e-005 -7.76222e-005,2.21778e-005 0.0126413,-0.018962 0.0187735,-0.0458414 0.0180305,-0.0549011 -6.65333e-005,-0.000776222 -0.000177422,-0.00144155 -0.000343755,-0.00194055 -9.97999e-005,-0.0002994 -0.000232867,-0.000532266 -0.000365933,-0.000720777 -4.43555e-005,-5.54444e-005 -7.76222e-005,-0.000133067 -0.000133067,-0.000177422 -0.00288311,-0.00288311 -0.0303392,-0.00146373 -0.0572741,0.0175981 -1.10889e-005,1.10889e-005 -2.21778e-005,2.21778e-005 -3.32666e-005,2.21778e-005 0,0 0.00146373,-0.00626522 0.000953644,-0.0134841 -0.000565533,-0.00818359 -0.00365933,-0.0175759 -0.0142714,-0.0204257 0,0 -0.0482921,0.0693388 -0.142315,0.00450209 0,0 -0.0687289,-0.0433797 -0.0812926,-0.149811 -0.00126413,-0.0107008 -0.00196273,-0.0220336 -0.00196273,-0.0340318l0 0c0,-0.131315 0.0832553,-0.183854 0.0832553,-0.183854 0.0940226,-0.0648256 0.142315,0.00451317 0.142315,0.00451317 0.0149478,-0.00401418 0.0149811,-0.0210134 0.0140496,-0.029319 -0.000266133,-0.00240629 -0.000620977,-0.00408071 -0.000709688,-0.004491 -2.21778e-005,-6.65333e-005 -2.21778e-005,-0.000110889 -2.21778e-005,-0.000110889 0.026946,0.019084 0.0544242,0.0205144 0.0573073,0.0176202 0.000942555,-0.000931466 0.00114215,-0.00415833 0.000643155,-0.00880457 -0.00130849,-0.0118984 -0.00729648,-0.033067 -0.0177533,-0.0488133 -2.21778e-005,-4.43555e-005 -4.43555e-005,-7.76222e-005 -7.76222e-005,-0.000110889 0,0 0.0284762,0.00663115 0.0338987,-0.0132401 1.10889e-005,-2.21778e-005 2.21778e-005,-4.43555e-005 2.21778e-005,-7.76222e-005 0,0 -0.027068,-0.0188511 -0.03157,-0.0559545 -0.0026946,-0.0222665 0.00275004,-0.0510976 0.027068,-0.0863713 0,0 0.0525391,-0.0832553 0.183843,-0.0832553 0.131292,0 0.183843,0.0832553 0.183843,0.0832553 0.0182412,0.0264581 0.0258593,0.0492901 0.0273895,0.0684406 0.00391438,0.0489463 -0.0319027,0.0738852 -0.0319027,0.0738852 1.10889e-005,3.32666e-005 2.21778e-005,5.54444e-005 3.32666e-005,8.87111e-005 0.00542246,0.0198602 0.0338876,0.013229 0.0338876,0.013229 -2.21778e-005,3.32666e-005 -5.54444e-005,7.76222e-005 -7.76222e-005,0.000110889 -0.000842755,0.00127522 -0.00166333,0.00258371 -0.00243955,0.00391438 -0.0105455,0.0179085 -0.0158238,0.0407627 -0.0155577,0.0499221 4.43555e-005,0.0015968 0.000255044,0.00278331 0.000643155,0.00344864 5.54444e-005,8.87111e-005 0.000110889,0.000155244 0.000166333,0.000221778 2.21778e-005,3.32666e-005 4.43555e-005,8.87111e-005 7.76222e-005,0.000110889 0.00276113,0.00276113 0.0279772,0.00157462 0.0537145,-0.0151807 0.0011976,-0.000787311 0.00240629,-0.00158571 0.00360389,-0.00243955 0,0 -1.10889e-005,4.43555e-005 -2.21778e-005,0.000110889 -0.000133067,0.000609889 -0.000787311,0.00374804 -0.00098691,0.00791746 -0.000421378,0.00887111 0.00121978,0.0223663 0.0143157,0.0258925 0,0 0.0483032,-0.0693388 0.142326,-0.00451317 0,0 0.0832553,0.0525391 0.0832553,0.183854l0 0z"/>
   <path id="_109282944" class="fil0 str0" d="M0.0047904 1.0374l8.87111e-005 -0.382256c0,0 0.0448656,0.143024 0.232534,0.134375 0,0 0.00975822,-0.00148591 0.0131847,0.00195164 0.00343755,0.00342646 0.00208471,0.0132845 0.00208471,0.0132845 -0.00864933,0.187668 0.134364,0.232534 0.134364,0.232534l-0.382256 0.000110889z"/>
   <path id="_109282896" class="fil0 str0" d="M1.03743 1.03742l-0.382245 -9.97999e-005c0,0 0.143013,-0.0448656 0.134364,-0.232523 0,0 -0.00148591,-0.00975822 0.00195164,-0.0131958 0.00343755,-0.00343755 0.0132845,-0.00208471 0.0132845,-0.00208471 0.187668,0.00864933 0.232523,-0.134375 0.232523,-0.134375l0.000121978 0.382278z"/>
   <path id="_109282848" class="fil0 str0" d="M1.03745 0.00474604l-9.97999e-005 0.382267c0,0 -0.0448656,-0.143024 -0.232523,-0.134375 0,0 -0.00975822,0.00148591 -0.0131958,-0.00195164 -0.00343755,-0.00343755 -0.00208471,-0.0132845 -0.00208471,-0.0132845 0.00864933,-0.187668 -0.134364,-0.232534 -0.134364,-0.232534l0.382267 -0.000121978z"/>
   <path id="_109282800" class="fil0 str0" d="M0.00480149 0.00473495l0.382245 8.87111e-005c0,0 -0.143013,0.0448656 -0.134364,0.232534 0,0 0.00148591,0.00975822 -0.00195164,0.0131958 -0.00342646,0.00343755 -0.0132845,0.00208471 -0.0132845,0.00208471 -0.187657,-0.00864933 -0.232523,0.134375 -0.232523,0.134375l-0.000121978 -0.382278z"/>
   <path id="_109282752" class="fil0 str0" d="M0.637045 0.405132c0,0 0.00201818,-0.0453424 0.0453535,-0.0453424 0,0.0433243 -0.0453535,0.0453424 -0.0453535,0.0453424z"/>
   <path id="_109282704" class="fil0 str0" d="M0.405032 0.637034c0,0 -0.00200709,0.0453535 -0.0453424,0.0453535 0,-0.0433354 0.0453424,-0.0453535 0.0453424,-0.0453535z"/>
   <path id="_109282656" class="fil0 str0" d="M0.40511 0.405088c0,0 -0.0453424,-0.00201818 -0.0453424,-0.0453535 0.0433243,0 0.0453424,0.0453535 0.0453424,0.0453535z"/>
   <path id="_109282608" class="fil0 str0" d="M0.00476822 1.03743l-1.10889e-005 -0.103282 0 -0.206519c0.0263804,0.0124417 0.0350187,0.0802835 0.0350187,0.0802835 0.0173985,-0.0186737 0.0380016,-0.0143823 0.0380016,-0.0143823 0,0 0.00450209,0.0242514 -0.0223219,0.0523839 -0.0268351,0.0281103 -0.031559,0.129873 -0.0133067,0.124073 0.0182412,-0.00579949 0.0057884,-0.0590372 0.0150254,-0.0609667 0.00922595,-0.00194055 0.0171656,0.0257595 0.0171656,0.0257595 0.0281214,-0.031559 0.029197,-0.0699819 0.0309158,-0.080716 0.00171878,-0.010734 0.000432466,-0.0270458 0.00922595,-0.0251163 0.00880457,0.00192947 0.0154579,0.033056 0.0154579,0.033056l0.00816142 -0.0115879c0.0131958,-0.0170769 0.0620866,-0.0191505 0.071368,-0.0193834 0.000210689,0 0.0012974,-4.43555e-005 0.00151918,0.000166333 0.000221778,0.000221778 0.000166333,0.0012974 0.000155244,0.00150809 -0.000232867,0.00929248 -0.0022954,0.0581834 -0.0193723,0.0713791l-0.011599 0.00816142c0,0 0.0311376,0.00665333 0.033067,0.0154579 0.00192947,0.00879348 -0.0143823,0.00750717 -0.0251163,0.00922595 -0.010734,0.00171878 -0.049157,0.0027944 -0.080716,0.0309158 0,0 0.0276889,0.00793964 0.0257595,0.0171656 -0.00192947,0.00923704 -0.0551672,-0.00321578 -0.0609667,0.0150254 -0.00579949,0.0182523 0.0959521,0.0135284 0.124073,-0.0133067 0.0281325,-0.026824 0.0523839,-0.0223219 0.0523839,-0.0223219 0,0 0.0042914,0.0206031 -0.0143823,0.0380016 0,0 0.0678307,0.00863824 0.0802835,0.0350187l-0.206519 0 -0.103271 0z"/>
   <path id="_109282560" class="fil0 str0" d="M1.03743 1.03742l-0.103271 1.10889e-005 -0.206519 0c0.0124417,-0.0263804 0.0802835,-0.0350187 0.0802835,-0.0350187 -0.0186737,-0.0173985 -0.0143934,-0.0380016 -0.0143934,-0.0380016 0,0 0.0242625,-0.00450209 0.0523839,0.0223219 0.0281214,0.0268351 0.129873,0.031559 0.124073,0.0133067 -0.0057884,-0.0182412 -0.0590261,-0.0057884 -0.0609556,-0.0150254 -0.00194055,-0.00922595 0.0257595,-0.0171656 0.0257595,-0.0171656 -0.031559,-0.0281214 -0.0699819,-0.029197 -0.080716,-0.0309158 -0.010734,-0.00171878 -0.0270458,-0.000432466 -0.0251163,-0.00922595 0.00192947,-0.00880457 0.033056,-0.0154579 0.033056,-0.0154579l-0.0115879 -0.00816142c-0.0170769,-0.0131958 -0.0191505,-0.0620866 -0.0193834,-0.0713791 0,-0.0001996 -4.43555e-005,-0.0012974 0.000166333,-0.00151918 0.000221778,-0.000210689 0.0012974,-0.000155244 0.00150809,-0.000155244 0.00928139,0.000243955 0.0581834,0.00230649 0.0713791,0.0193834l0.00815033 0.0115879c0,0 0.00665333,-0.0311265 0.0154579,-0.033056 0.00880457,-0.00192947 0.00751826,0.0143823 0.00922595,0.0251163 0.00172987,0.010734 0.0027944,0.049157 0.0309158,0.080716 0,0 0.00795073,-0.0277 0.0171767,-0.0257595 0.00922595,0.00192947 -0.00321578,0.0551672 0.0150254,0.0609667 0.0182412,0.00579949 0.0135284,-0.0959632 -0.0133067,-0.124073 -0.0268351,-0.0281325 -0.0223219,-0.0523839 -0.0223219,-0.0523839 0,0 0.0206031,-0.0042914 0.0379905,0.0143823 0,0 0.00864933,-0.0678418 0.0350187,-0.0802835l0 0.206519 0 0.103271z"/>
   <path id="_109282512" class="fil0 str0" d="M1.03742 0.00473495l1.10889e-005 0.103271 0 0.20653c-0.0263694,-0.0124417 -0.0350187,-0.0802835 -0.0350187,-0.0802835 -0.0173874,0.0186737 -0.0379905,0.0143823 -0.0379905,0.0143823 0,0 -0.00451317,-0.0242514 0.0223219,-0.0523839 0.0268351,-0.0281214 0.0315479,-0.129873 0.0133067,-0.124073 -0.0182412,0.0057884 -0.00579949,0.0590372 -0.0150254,0.0609667 -0.00922595,0.00192947 -0.0171767,-0.0257595 -0.0171767,-0.0257595 -0.0281214,0.031559 -0.0291859,0.0699819 -0.0309158,0.080716 -0.00170769,0.010734 -0.000421378,0.0270458 -0.00922595,0.0251163 -0.00880457,-0.00192947 -0.0154579,-0.033067 -0.0154579,-0.033067l-0.00815033 0.011599c-0.0131958,0.0170769 -0.0620977,0.0191394 -0.0713791,0.0193723 -0.0001996,1.10889e-005 -0.0012974,5.54444e-005 -0.00151918,-0.000166333 -0.000210689,-0.000221778 -0.000155244,-0.00128631 -0.000155244,-0.00150809 0.000243955,-0.00928139 0.00230649,-0.0581723 0.0193834,-0.071368l0.0115879 -0.00816142c0,0 -0.0311265,-0.00665333 -0.033056,-0.0154579 -0.00192947,-0.00879348 0.0143823,-0.00751826 0.0251163,-0.00922595 0.010734,-0.00171878 0.049157,-0.0027944 0.080716,-0.0309158 0,0 -0.0277,-0.00795073 -0.0257595,-0.0171767 0.00192947,-0.00922595 0.0551672,0.00321578 0.0609556,-0.0150254 0.00579949,-0.0182412 -0.0959521,-0.0135284 -0.124073,0.0133067 -0.0281214,0.0268351 -0.0523839,0.022333 -0.0523839,0.022333 0,0 -0.00428031,-0.0206142 0.0143934,-0.0380016 0,0 -0.0678418,-0.00863824 -0.0802835,-0.0350187l0.206519 0 0.10326 0z"/>
   <path id="_109282464" class="fil0 str0" d="M0.00475713 0.00474604l0.103282 -1.10889e-005 0.206519 0c-0.0124528,0.0263804 -0.0802835,0.0350187 -0.0802835,0.0350187 0.0186737,0.0173874 0.0143823,0.0380016 0.0143823,0.0380016 0,0 -0.0242514,0.00450209 -0.0523839,-0.022333 -0.0281214,-0.0268351 -0.129873,-0.0315479 -0.124073,-0.0133067 0.00579949,0.0182412 0.0590372,0.00579949 0.0609667,0.0150254 0.00192947,0.00922595 -0.0257595,0.0171767 -0.0257595,0.0171767 0.031559,0.0281214 0.0699819,0.029197 0.080716,0.0309158 0.010734,0.00170769 0.0270458,0.000432466 0.0251163,0.00922595 -0.00192947,0.00880457 -0.033067,0.0154579 -0.033067,0.0154579l0.011599 0.00816142c0.0170769,0.0131958 0.0191394,0.0620866 0.0193723,0.071368 1.10889e-005,0.000210689 5.54444e-005,0.0012974 -0.000166333,0.00151918 -0.000221778,0.000221778 -0.00128631,0.000166333 -0.00150809,0.000155244 -0.00928139,-0.000232867 -0.0581723,-0.0022954 -0.071368,-0.0193723l-0.00816142 -0.011599c0,0 -0.00665333,0.0311376 -0.0154579,0.033067 -0.00879348,0.00192947 -0.00750717,-0.0143823 -0.00922595,-0.0251163 -0.00171878,-0.010734 -0.0027944,-0.049157 -0.0309158,-0.080716 0,0 -0.00793964,0.0276889 -0.0171656,0.0257595 -0.00923704,-0.00192947 0.00321578,-0.0551783 -0.0150254,-0.0609667 -0.0182523,-0.00579949 -0.0135284,0.0959521 0.0133067,0.124073 0.026824,0.0281325 0.0223219,0.0523839 0.0223219,0.0523839 0,0 -0.0206031,0.0042914 -0.0380016,-0.0143823 0,0 -0.00863824,0.0678418 -0.0350187,0.0802835l0 -0.20653 0 -0.10326z"/>
   <path id="_109282416" class="fil0 str0" d="M0.707803 0.425724c0.00117542,-0.00117542 0.00143047,-0.00247282 0.000776222,-0.00385893 -0.000432466,-0.000931466 -0.00121978,-0.00163007 -0.00190729,-0.00225104 -0.00133067,-0.0011976 -0.00271678,-0.00240629 -0.00404744,-0.00357062 -0.00461297,-0.00402526 -0.00938119,-0.00818359 -0.0132069,-0.0129629 -0.00171878,-0.00214015 -0.00297182,-0.00460189 -0.00371478,-0.00730757 -0.00130849,-0.00471277 -0.00117542,-0.0102018 0.000410289,-0.0167886 0.00141938,-0.00592146 0.00368151,-0.0114881 0.00591037,-0.0166222 0.000510089,-0.00117542 0.00105344,-0.00236193 0.00157462,-0.00351518 0.00136393,-0.002994 0.00277222,-0.00607671 0.00375913,-0.00924813l7.76222e-005 -0.000221778c0.000410289,-0.00131958 0.00110889,-0.00351518 -3.32666e-005,-0.00465733 -0.00114215,-0.00114215 -0.00333775,-0.000443555 -0.00465733,-3.32666e-005l-0.000221778 7.76222e-005c-0.00317142,0.00098691 -0.00625413,0.0023952 -0.00924813,0.00375913 -0.00115324,0.000521177 -0.00233975,0.00106453 -0.00351518,0.00157462 -0.00513415,0.00222887 -0.0107008,0.004491 -0.0166222,0.00591037 -0.0065868,0.00157462 -0.0120758,0.00171878 -0.0167775,0.000410289 -0.00271678,-0.000742955 -0.00517851,-0.001996 -0.00731866,-0.00371478 -0.00477931,-0.00382566 -0.00893764,-0.00859388 -0.0129629,-0.0132069 -0.00116433,-0.00133067 -0.00237302,-0.00271678 -0.00357062,-0.00404744 -0.000620977,-0.000687511 -0.00131958,-0.00147482 -0.00225104,-0.00190729 -0.00138611,-0.000654244 -0.00268351,-0.0003992 -0.00385893,0.000776222 -0.00177422,0.00178531 -0.00266133,0.00504544 -0.0028942,0.00599909 -0.00121978,0.00506762 -0.00098691,0.0110445 0.0006986,0.0177755 0.000942555,0.00375913 0.00233975,0.00756262 0.00413615,0.0112774 0.000964733,0.00200709 0.00207362,0.00400309 0.00327122,0.00595473 3.32666e-005,5.54444e-005 0.00303835,0.00460189 0.00395873,0.00575513 -0.000243955,0.000221778 -0.000809488,0.000742955 -0.0015968,0.00153027 -0.00606562,0.00606562 -0.0251385,0.0276889 -0.0160567,0.0514746l3.32666e-005 8.87111e-005 8.87111e-005 3.32666e-005c0.0237857,0.00908179 0.045409,-0.00999108 0.0514746,-0.0160567 0.000787311,-0.000787311 0.00130849,-0.00135284 0.00153027,-0.0015968 0.00115324,0.000920377 0.00569969,0.00392546 0.00575513,0.00395873 0.00195164,0.00120869 0.00394764,0.00230649 0.00595473,0.00327122 0.00371478,0.0017964 0.00751826,0.0031936 0.0112774,0.00413615 0.00673095,0.00168551 0.0127079,0.00191838 0.0177644,0.0006986 0.000964733,-0.000221778 0.00422486,-0.00111998 0.00601017,-0.0028942z"/>
   <path id="_109282368" class="fil0 str0" d="M0.334285 0.616442c-0.00117542,0.00117542 -0.00144155,0.00248391 -0.000787311,0.00387002 0.000443555,0.000920377 0.00121978,0.00161898 0.00191838,0.00223995 0.00133067,0.0011976 0.00270569,0.00240629 0.00404744,0.00357062 0.00461297,0.00402526 0.00938119,0.00818359 0.0132069,0.0129629 0.00171878,0.00214015 0.00296073,0.00460189 0.00371478,0.00731866 0.0012974,0.00471277 0.00116433,0.0102018 -0.000421378,0.0167886 -0.00141938,0.00591037 -0.00367042,0.011477 -0.00589929,0.0166111 -0.000510089,0.00117542 -0.00105344,0.00237302 -0.00157462,0.00352626 -0.00136393,0.00298291 -0.00277222,0.00607671 -0.00377022,0.00923704l-6.65333e-005 0.000221778c-0.000421378,0.00131958 -0.00111998,0.00351518 2.21778e-005,0.00466842 0.00115324,0.00114215 0.00334884,0.000443555 0.00466842,2.21778e-005l0.000221778 -6.65333e-005c0.00316033,-0.000997999 0.00625413,-0.00240629 0.00923704,-0.00377022 0.00115324,-0.000521177 0.00235084,-0.00106453 0.00352626,-0.00157462 0.00513415,-0.00222887 0.0107008,-0.00447991 0.0166111,-0.00589929 0.0065868,-0.00158571 0.0120758,-0.00171878 0.0167886,-0.000421378 0.00270569,0.000754044 0.00516742,0.001996 0.00731866,0.00371478 0.00477931,0.00382566 0.00893764,0.00859388 0.0129629,0.0132069 0.00116433,0.00134175 0.00237302,0.00272786 0.00355953,0.00404744 0.000632066,0.0006986 0.00133067,0.00147482 0.00225104,0.00191838 0.00138611,0.000654244 0.00268351,0.000388111 0.00385893,-0.000787311 0.00178531,-0.00177422 0.00267242,-0.00504544 0.00290529,-0.00599909 0.00121978,-0.00506762 0.000975822,-0.0110445 -0.000709688,-0.0177755 -0.000942555,-0.00375913 -0.00232867,-0.00755153 -0.00413615,-0.0112774 -0.000964733,-0.001996 -0.00206253,-0.00400309 -0.00326013,-0.00595473 -3.32666e-005,-4.43555e-005 -0.00303835,-0.00460189 -0.00395873,-0.00574404 0.000243955,-0.000232867 0.000798399,-0.000742955 0.0015968,-0.00154135 0.00605453,-0.00605453 0.0251385,-0.0276889 0.0160567,-0.0514635l-4.43555e-005 -8.87111e-005 -8.87111e-005 -4.43555e-005c-0.0237746,-0.00908179 -0.045409,0.00999108 -0.0514635,0.0160567 -0.000798399,0.000798399 -0.00130849,0.00135284 -0.00154135,0.0015968 -0.00114215,-0.000920377 -0.00569969,-0.00392546 -0.00574404,-0.00395873 -0.00195164,-0.0011976 -0.00395873,-0.0022954 -0.00595473,-0.00327122 -0.00372586,-0.0017964 -0.00751826,-0.00318251 -0.0112774,-0.00412506 -0.00673095,-0.00168551 -0.0127079,-0.00192947 -0.0177755,-0.000709688 -0.000953644,0.000232867 -0.00422486,0.00111998 -0.00599909,0.0028942z"/>
   <path id="_109282320" class="fil0 str0" d="M0.616409 0.707881c0.00117542,0.00117542 0.00247282,0.00144155 0.00385893,0.000776222 0.000920377,-0.000432466 0.00163007,-0.00120869 0.00225104,-0.00190729 0.0011976,-0.00133067 0.0023952,-0.00270569 0.00357062,-0.00404744 0.00401418,-0.00461297 0.00818359,-0.00938119 0.0129629,-0.0132069 0.00214015,-0.00171878 0.00460189,-0.00297182 0.00730757,-0.00371478 0.00471277,-0.00130849 0.0102018,-0.00116433 0.0167886,0.000410289 0.00591037,0.00143047 0.0114881,0.00368151 0.0166222,0.00591037 0.00117542,0.000510089 0.00236193,0.00105344 0.00351518,0.00157462 0.00298291,0.00136393 0.00607671,0.00277222 0.00924813,0.00375913l0.000221778 7.76222e-005c0.00130849,0.000421378 0.00351518,0.00111998 0.00465733,-3.32666e-005 0.00114215,-0.00114215 0.000443555,-0.00333775 2.21778e-005,-0.00465733l-6.65333e-005 -0.000221778c-0.000997999,-0.00317142 -0.00240629,-0.00625413 -0.00375913,-0.00923704 -0.000532266,-0.00115324 -0.00107562,-0.00235084 -0.00158571,-0.00352626 -0.00221778,-0.00513415 -0.00447991,-0.0107008 -0.00589929,-0.0166111 -0.00158571,-0.0065868 -0.00171878,-0.0120869 -0.000421378,-0.0167886 0.000754044,-0.00271678 0.00200709,-0.00517851 0.00372586,-0.00731866 0.00382566,-0.00477931 0.00859388,-0.00893764 0.0131958,-0.0129629 0.00134175,-0.00116433 0.00272786,-0.00237302 0.00405853,-0.00357062 0.000687511,-0.000620977 0.00147482,-0.00131958 0.00190729,-0.00223995 0.000654244,-0.0013972 0.000388111,-0.0026946 -0.000787311,-0.00387002 -0.00177422,-0.00177422 -0.00503435,-0.00266133 -0.00599909,-0.0028942 -0.00505653,-0.00121978 -0.0110445,-0.00098691 -0.0177644,0.0006986 -0.00377022,0.000942555 -0.00756262,0.00233975 -0.0112885,0.00413615 -0.001996,0.000975822 -0.00400309,0.00207362 -0.00594364,0.00327122 -5.54444e-005,3.32666e-005 -0.00460189,0.00303835 -0.00575513,0.00395873 -0.000221778,-0.000243955 -0.000742955,-0.000809488 -0.00153027,-0.0015968 -0.00606562,-0.00606562 -0.0277,-0.0251385 -0.0514746,-0.0160567l-8.87111e-005 3.32666e-005 -3.32666e-005 9.97999e-005c-0.00908179,0.0237746 0.00999108,0.0453979 0.0160567,0.0514635 0.000787311,0.000798399 0.00134175,0.00130849 0.0015968,0.00153027 -0.000920377,0.00115324 -0.00393655,0.00569969 -0.00396982,0.00575513 -0.0011976,0.00195164 -0.0022954,0.00394764 -0.00326013,0.00595473 -0.00180749,0.00372586 -0.0031936,0.00751826 -0.00413615,0.0112774 -0.00168551,0.00673095 -0.00191838,0.0127079 -0.000709688,0.0177755 0.000232867,0.000953644 0.00111998,0.00421378 0.00290529,0.00599909z"/>
   <path id="_109282272" class="fil0 str0" d="M0.425702 0.334341c-0.00117542,-0.00117542 -0.00247282,-0.00144155 -0.00385893,-0.000787311 -0.000931466,0.000432466 -0.00163007,0.00121978 -0.00225104,0.00190729 -0.0011976,0.00133067 -0.00240629,0.00271678 -0.00357062,0.00404744 -0.00402526,0.00461297 -0.00818359,0.00938119 -0.0129629,0.0132069 -0.00214015,0.00171878 -0.00460189,0.00297182 -0.00730757,0.00372586 -0.00471277,0.0012974 -0.0102018,0.00116433 -0.0167886,-0.000421378 -0.00592146,-0.00141938 -0.0114881,-0.00368151 -0.0166222,-0.00589929 -0.00117542,-0.000510089 -0.00236193,-0.00105344 -0.00351518,-0.00158571 -0.002994,-0.00136393 -0.00607671,-0.00277222 -0.00924813,-0.00375913l-0.000221778 -6.65333e-005c-0.00130849,-0.000421378 -0.00351518,-0.00111998 -0.00465733,2.21778e-005 -0.00114215,0.00114215 -0.000443555,0.00334884 -3.32666e-005,0.00465733l7.76222e-005 0.000221778c0.00098691,0.00317142 0.0023952,0.00626522 0.00375913,0.00924813 0.000532266,0.00115324 0.00107562,0.00233975 0.00157462,0.00351518 0.00222887,0.00513415 0.004491,0.0107008 0.00591037,0.0166222 0.00158571,0.0065868 0.00171878,0.0120758 0.000410289,0.0167886 -0.000742955,0.00270569 -0.001996,0.00516742 -0.00371478,0.00730757 -0.00382566,0.00477931 -0.00859388,0.00893764 -0.0132069,0.0129629 -0.00133067,0.00117542 -0.00271678,0.00237302 -0.00404744,0.00357062 -0.000687511,0.000620977 -0.00147482,0.00133067 -0.00190729,0.00225104 -0.000654244,0.00138611 -0.000388111,0.00268351 0.000787311,0.00385893 0.00177422,0.00178531 0.00503435,0.00267242 0.00599909,0.0028942 0.00505653,0.00121978 0.0110334,0.00098691 0.0177644,-0.0006986 0.00375913,-0.000942555 0.00756262,-0.00233975 0.0112774,-0.00413615 0.00200709,-0.000964733 0.00400309,-0.00206253 0.00595473,-0.00326013 5.54444e-005,-3.32666e-005 0.00460189,-0.00304944 0.00575513,-0.00396982 0.000221778,0.000243955 0.000742955,0.000809488 0.00153027,0.0015968 0.00606562,0.00606562 0.0276889,0.0251385 0.0514746,0.0160567l8.87111e-005 -3.32666e-005 3.32666e-005 -8.87111e-005c0.00908179,-0.0237746 -0.00999108,-0.045409 -0.0160567,-0.0514746 -0.000787311,-0.000787311 -0.00135284,-0.00130849 -0.0015968,-0.00153027 0.000920377,-0.00115324 0.00392546,-0.00569969 0.00395873,-0.00575513 0.00120869,-0.00195164 0.00230649,-0.00394764 0.00327122,-0.00595473 0.0017964,-0.00371478 0.0031936,-0.00751826 0.00413615,-0.0112774 0.00168551,-0.00671986 0.00191838,-0.0127079 0.0006986,-0.0177644 -0.000221778,-0.000964733 -0.00111998,-0.00422486 -0.0028942,-0.00599909z"/>
   <path id="_109282224" class="fil0 str0" d="M0.5211 0.319382l-0.000266133 0.000188511c-0.000476822,0.000343755 -0.0469392,0.0343977 -0.0469392,0.082346 0,0.0169327 0,0.0379129 0.0133288,0.0504101 -0.0212574,-0.00107562 -0.0369592,-0.00272786 -0.0371145,-0.00275004l-0.000565533 -5.54444e-005 6.65333e-005 0.000554444c1.10889e-005,0.000166333 0.00168551,0.0157351 0.00275004,0.0371367 -0.0124861,-0.013351 -0.0334773,-0.013351 -0.0504211,-0.013351 -0.0485471,0 -0.0820023,0.0464735 -0.0823349,0.0469503l-0.000188511 0.000266133 0.000188511 0.000255044c0.000332666,0.000476822 0.0343866,0.0469503 0.0823349,0.0469503 0.0168884,0 0.0378242,0 0.0503213,-0.0132401 -0.00106453,0.0204257 -0.00263915,0.0368594 -0.00265024,0.0370258l-5.54444e-005 0.000554444 0.000554444 -5.54444e-005c0.000155244,-2.21778e-005 0.0159902,-0.00166333 0.0371034,-0.00272786 -0.0133177,0.0124861 -0.0133177,0.0334662 -0.0133177,0.0503879 0,0.0485582 0.0464735,0.0820134 0.0469392,0.082346l0.000266133 0.000188511 0.000266133 -0.000188511c0.000465733,-0.000343755 0.0469392,-0.0343977 0.0469392,-0.082346 0,-0.0169327 0,-0.0379129 -0.0133288,-0.050399 0.0212352,0.00106453 0.0369482,0.00271678 0.0371145,0.00273895l0.000554444 5.54444e-005 -5.54444e-005 -0.000554444c-2.21778e-005,-0.000166333 -0.00165224,-0.0163117 -0.00271678,-0.0371034 0.0124972,0.0133177 0.0334552,0.0133177 0.0503768,0.0133177 0.0485582,0 0.0820134,-0.0464735 0.082346,-0.0469503l0.000188511 -0.000266133 -0.000188511 -0.000266133c-0.000343755,-0.000465733 -0.0343977,-0.0469392 -0.082346,-0.0469392 -0.0169216,0 -0.0378907,0 -0.0503879,0.0133177 0.00107562,-0.0212796 0.00270569,-0.0369371 0.00272786,-0.0371034l5.54444e-005 -0.000554444 -0.000554444 5.54444e-005c-0.000166333,2.21778e-005 -0.0158682,0.00167442 -0.0371256,0.00273895 0.0133399,-0.0124861 0.0133399,-0.0334662 0.0133399,-0.050399 0,-0.0485582 -0.0464735,-0.0820134 -0.0469503,-0.082346l-0.000255044 -0.000188511z"/>
   <path id="_109282176" class="fil0 str0" d="M0.5211 0.577176c0.0309823,0 0.0560987,-0.0251163 0.0560987,-0.0560987 0,-0.0309934 -0.0251163,-0.0561097 -0.0560987,-0.0561097 -0.0309823,0 -0.0560987,0.0251163 -0.0560987,0.0561097 0,0.0309823 0.0251163,0.0560987 0.0560987,0.0560987z"/>
   <path id="_109282128" class="fil0 str0" d="M0.5211 0.576711c-0.0306829,0 -0.055644,-0.0249611 -0.055644,-0.0556329 0,-0.030694 0.0249611,-0.0556551 0.055644,-0.0556551 0.0306829,0 0.055644,0.0249611 0.055644,0.0556551 0,0.0306718 -0.0249611,0.0556329 -0.055644,0.0556329z"/>
   <path id="_109282080" class="fil0 str0" d="M0.377177 0.203747c0.068241,0.00534484 0.108161,0.0777442 0.114182,0.0777442 0.00602126,0 0.029696,-0.0352405 0.029696,-0.0352405 0,0 0.0240518,0.0352405 0.0297182,0.0352405 0.00681966,0 0.0459301,-0.0723993 0.114171,-0.0777442 0,0 -0.00803944,-0.0365822 -0.0495119,-0.0410289 0,0 -0.00401418,-0.0570967 -0.0521732,-0.0517518 0,0 0.00124195,-0.0459301 -0.0422043,-0.0535149 -0.0434352,0.0075848 -0.0421821,0.053526 -0.0421821,0.053526 -0.0481701,-0.00535593 -0.0521843,0.0517407 -0.0521843,0.0517407 -0.0414835,0.00444664 -0.0495119,0.0410289 -0.0495119,0.0410289z"/>
   <path id="_109282032" class="fil0 str0" d="M0.6649 0.838419c-0.0682299,-0.00534484 -0.108161,-0.0777331 -0.114171,-0.0777331 -0.00602126,0 -0.0297071,0.0352294 -0.0297071,0.0352294 0,0 -0.0240407,-0.0352294 -0.0297071,-0.0352294 -0.00683075,0 -0.0459301,0.0723882 -0.114182,0.0777331 0,0 0.00803944,0.0365822 0.0495119,0.0410289 0,0 0.00402526,0.0570967 0.0521843,0.0517518 0,0 -0.00124195,0.0459301 0.0421932,0.0535149 0.0434462,-0.0075848 0.0421932,-0.053526 0.0421932,-0.053526 0.0481701,0.00535593 0.0521843,-0.0517407 0.0521843,-0.0517407 0.0414724,-0.00444664 0.0495008,-0.0410289 0.0495008,-0.0410289z"/>
   <path id="_109281984" class="fil0 str0" d="M0.838386 0.377255c-0.00535593,0.068241 -0.0777442,0.108161 -0.0777442,0.114182 0,0.00602126 0.0352294,0.029696 0.0352294,0.029696 0,0 -0.0352294,0.0240518 -0.0352294,0.0297182 0,0.00681966 0.0723882,0.0459301 0.0777442,0.114182 0,0 0.0365711,-0.00805053 0.0410178,-0.0495119 0,0 0.0570967,-0.00402526 0.0517518,-0.0521843 0,0 0.0459301,0.00124195 0.0535149,-0.0422043 -0.0075848,-0.0434352 -0.053526,-0.0421932 -0.053526,-0.0421932 0.00535593,-0.0481701 -0.0517407,-0.0521732 -0.0517407,-0.0521732 -0.00444664,-0.0414835 -0.0410178,-0.0495119 -0.0410178,-0.0495119z"/>
   <path id="_109281936" class="fil0 str0" d="M0.203725 0.664956c0.00535593,-0.0682299 0.0777442,-0.108161 0.0777442,-0.114182 0,-0.00601017 -0.0352405,-0.029696 -0.0352405,-0.029696 0,0 0.0352405,-0.0240407 0.0352405,-0.0297071 0,-0.00683075 -0.0723882,-0.0459301 -0.0777442,-0.114182 0,0 -0.0365711,0.00803944 -0.0410289,0.0495119 0,0 -0.0570967,0.00401418 -0.0517407,0.0521732 0,0 -0.0459301,-0.00123087 -0.053526,0.0422043 0.00759588,0.0434462 0.0535371,0.0421932 0.0535371,0.0421932 -0.00536702,0.0481701 0.0517296,0.0521732 0.0517296,0.0521732 0.00445773,0.0414835 0.0410289,0.0495119 0.0410289,0.0495119z"/>
   <path id="_109281888" class="fil0 str0" d="M0.521055 0.125859c0,0 0.0450209,0.0492014 0,0.0942222 -0.0450098,-0.0450209 0,-0.0942222 0,-0.0942222z"/>
   <path id="_109281840" class="fil0 str0" d="M0.521022 0.916308c0,0 -0.0450098,-0.0492014 0,-0.0942222 0.0450209,0.0450209 0,0.0942222 0,0.0942222z"/>
   <path id="_109281792" class="fil0 str0" d="M0.916263 0.521133c0,0 -0.0492014,0.0450209 -0.0942222,0 0.0450209,-0.0450098 0.0942222,0 0.0942222,0z"/>
   <path id="_109281744" class="fil0 str0" d="M0.125848 0.521078c0,0 0.0492014,-0.0450098 0.0942111,0 -0.0450098,0.0450209 -0.0942111,0 -0.0942111,0z"/>
  </g>
  <polygon class="fil2 str0" points="0.00480149,0.00473495 1.0374,0.00470169 1.03741,1.03745 0.00477931,1.03743 "/>
 </g>
</svg>
