<?xml version="1.0" encoding="UTF-8"?>
<!DOCTYPE svg PUBLIC "-//W3C//DTD SVG 1.1//EN" "http://www.w3.org/Graphics/SVG/1.1/DTD/svg11.dtd">
<!-- Creator: CorelDRAW -->
<svg xmlns="http://www.w3.org/2000/svg" xml:space="preserve" width="110px" height="110px" style="shape-rendering:geometricPrecision; text-rendering:geometricPrecision; image-rendering:optimizeQuality; fill-rule:evenodd; clip-rule:evenodd"
viewBox="0 0 1.3849 1.3849"
 xmlns:xlink="http://www.w3.org/1999/xlink">
 <defs>
  <style type="text/css">
   <![CDATA[
    .str0 {stroke:#4C4C4C;stroke-width:0.0124812}
    .fil0 {fill:none}
   ]]>
  </style>
 </defs>
 <g id="Capa_x0020_1">
  <metadata id="CorelCorpID_0Corel-Layer"/>
  <g id="_195534200">
   <polygon id="_195534320" class="fil0 str0" points="0.00624798,0.00624798 1.37865,0.00624798 1.37865,1.37865 0.00624798,1.37865 "/>
   <path id="_195534272" class="fil0 str0" d="M0.69248 1.31191c-0.0448705,-0.039993 -0.0615367,-0.0658101 -0.0661343,-0.124488 -0.09008,-0.00430286 -0.123501,-0.0397572 -0.123663,-0.0930124 -5.89432e-005,-0.0195544 0.0023872,-0.0119802 0.0165041,-0.00453863 0.159957,0.0843183 0.201041,-0.210943 -0.001562,-0.155374 -0.0661932,0.0673721 -0.130132,0.114261 -0.196325,0.181619 -0.0640123,0.0564529 -0.013277,0.148611 0.0720876,0.151779 0.023312,0.000854677 0.0282633,-0.00328608 0.00641008,0.0176388 -0.036589,0.0350417 -0.0970648,0.0459757 -0.171982,-0.0379889 -0.0420855,0.0373405 -0.0753737,0.0834489 -0.1595,0.0690667 -0.0143821,-0.0841415 0.0317115,-0.117415 0.069052,-0.1595 -0.0839646,-0.0749021 -0.0730307,-0.135378 -0.0379889,-0.171967 0.0209248,-0.0218532 0.0167841,-0.016902 0.0176388,0.00639534 0.00315346,0.0853793 0.0953259,0.1361 0.151779,0.0721023 0.0673574,-0.0661932 0.114247,-0.130132 0.181619,-0.196325 0.0555687,-0.202603 -0.239693,-0.161519 -0.155374,-0.001562 0.00744158,0.0141169 0.0150158,0.016563 -0.00453863,0.0165041 -0.0532552,-0.000162094 -0.0887096,-0.0335829 -0.0930124,-0.123663 -0.058678,-0.00459757 -0.0845099,-0.0212638 -0.124488,-0.0661343 0.0399782,-0.0448705 0.0658101,-0.0615367 0.124488,-0.0661343 0.00430286,-0.09008 0.0397572,-0.123501 0.0930124,-0.123663 0.0195544,-5.89432e-005 0.0119802,0.0023872 0.00453863,0.0165041 -0.0843183,0.159957 0.210943,0.201041 0.155374,-0.001562 -0.0673721,-0.0661932 -0.114261,-0.130132 -0.181619,-0.196325 -0.0564529,-0.0640123 -0.148625,-0.013277 -0.151779,0.0720876 -0.000854677,0.023312 0.00328608,0.0282633 -0.0176388,0.00641008 -0.0350417,-0.036589 -0.0459757,-0.0970648 0.0379889,-0.171982 -0.0373405,-0.0420707 -0.0834489,-0.0753589 -0.0690667,-0.1595 0.0841415,-0.0143821 0.117415,0.0317115 0.159486,0.069052 0.0749168,-0.0839646 0.135393,-0.0730307 0.171982,-0.0379889 0.0218532,0.0209248 0.016902,0.0167841 -0.00639534,0.0176388 -0.0853793,0.0031682 -0.1361,0.0953259 -0.0721023,0.151779 0.0661932,0.0673574 0.130132,0.114247 0.196325,0.181619 0.202603,0.0555687 0.161519,-0.239693 0.001562,-0.155374 -0.0141169,0.00744158 -0.016563,0.0150158 -0.0165041,-0.00453863 0.000162094,-0.0532552 0.0335829,-0.0887096 0.123663,-0.0930124 0.00459757,-0.058678 0.0212638,-0.0844951 0.0661343,-0.124488 0.0448705,0.039993 0.0615367,0.0658101 0.0661343,0.124488 0.09008,0.00430286 0.123501,0.0397572 0.123663,0.0930124 5.89432e-005,0.0195544 -0.0023872,0.0119802 -0.0165041,0.00453863 -0.159957,-0.0843183 -0.201041,0.210943 0.001562,0.155374 0.0661932,-0.0673721 0.130132,-0.114261 0.196325,-0.181619 0.0639976,-0.0564529 0.013277,-0.148611 -0.0721023,-0.151779 -0.0232973,-0.000854677 -0.0282485,0.00328608 -0.00639534,-0.0176388 0.036589,-0.0350417 0.0970648,-0.0459757 0.171982,0.0379889 0.0420707,-0.0373405 0.0753589,-0.0834489 0.1595,-0.0690667 0.0143821,0.0841415 -0.0317115,0.117415 -0.0690667,0.1595 0.0839794,0.0749021 0.0730454,0.135378 0.0380036,0.171967 -0.0209248,0.0218532 -0.0167841,0.016902 -0.0176388,-0.00639534 -0.0031682,-0.0853793 -0.0953259,-0.1361 -0.151779,-0.0721023 -0.0673574,0.0661932 -0.114247,0.130132 -0.181619,0.196325 -0.0555687,0.202603 0.239693,0.161519 0.155374,0.001562 -0.00744158,-0.0141169 -0.0150158,-0.016563 0.00453863,-0.0165041 0.0532552,0.000162094 0.0887096,0.0335829 0.0930124,0.123663 0.058678,0.00459757 0.0844951,0.0212638 0.124488,0.0661343 -0.039993,0.0448705 -0.0658101,0.0615367 -0.124488,0.0661343 -0.00430286,0.09008 -0.0397572,0.123501 -0.0930124,0.123663 -0.0195544,5.89432e-005 -0.0119802,-0.0023872 -0.00453863,-0.0165041 0.0843183,-0.159957 -0.210943,-0.201041 -0.155374,0.001562 0.0673721,0.0661932 0.114261,0.130132 0.181619,0.196325 0.0564529,0.0640123 0.148611,0.013277 0.151779,-0.0720876 0.000854677,-0.023312 -0.00328608,-0.0282633 0.0176388,-0.00641008 0.0350417,0.036589 0.0459757,0.0970648 -0.0380036,0.171982 0.0373553,0.0420707 0.0834636,0.0753589 0.0690815,0.1595 -0.0841415,0.0143821 -0.117415,-0.0317115 -0.1595,-0.069052 -0.0749021,0.0839646 -0.135378,0.0730307 -0.171967,0.0379889 -0.0218532,-0.0209248 -0.016902,-0.0167841 0.00639534,-0.0176388 0.0853793,-0.0031682 0.1361,-0.0953259 0.0721023,-0.151779 -0.0661932,-0.0673574 -0.130132,-0.114247 -0.196325,-0.181619 -0.202603,-0.0555687 -0.161519,0.239693 -0.001562,0.155374 0.0141169,-0.00744158 0.016563,-0.0150158 0.0165041,0.00453863 -0.000162094,0.0532552 -0.0335829,0.0887096 -0.123678,0.0930124 -0.00458284,0.058678 -0.021249,0.0844951 -0.0661196,0.124488z"/>
   <polygon id="_195534224" class="fil0 str0" points="0.688722,0.546404 0.733548,0.587104 0.793081,0.586544 0.796014,0.64702 0.838497,0.688722 0.797797,0.733548 0.798357,0.793081 0.737881,0.796014 0.696178,0.838497 0.651352,0.797797 0.591819,0.798357 0.588887,0.737881 0.546404,0.696178 0.587104,0.651352 0.586544,0.591819 0.64702,0.588902 "/>
  </g>
  <polygon class="fil0 str0" points="0.00624798,0.00624798 1.37865,0.00624798 1.37865,1.37865 0.00624798,1.37865 "/>
 </g>
</svg>
