<?xml version="1.0" encoding="UTF-8"?>
<!DOCTYPE svg PUBLIC "-//W3C//DTD SVG 1.1//EN" "http://www.w3.org/Graphics/SVG/1.1/DTD/svg11.dtd">
<!-- Creator: CorelDRAW -->
<svg xmlns="http://www.w3.org/2000/svg" xml:space="preserve" width="110px" height="110px" style="shape-rendering:geometricPrecision; text-rendering:geometricPrecision; image-rendering:optimizeQuality; fill-rule:evenodd; clip-rule:evenodd"
viewBox="0 0 1.67569 1.6757"
 xmlns:xlink="http://www.w3.org/1999/xlink">
 <defs>
  <style type="text/css">
   <![CDATA[
    .str0 {stroke:#4C4C4C;stroke-width:0.0151021}
    .fil0 {fill:none}
   ]]>
  </style>
 </defs>
 <g id="Capa_x0020_1">
  <metadata id="CorelCorpID_0Corel-Layer"/>
  <polygon class="fil0 str0" points="1.66781,1.66814 1.66577,1.66814 0.00755995,1.66814 0.00755995,1.66622 0.00755995,0.00755995 1.66579,0.00755995 1.66781,0.00755995 "/>
  <polygon class="fil0 str0" points="0.00755995,1.66608 0.00755995,0.00757778 1.66579,0.00755995 1.6659,0.00948559 0.00959257,1.66611 "/>
  <path class="fil0 str0" d="M0.70254 1.66813c3.56601e-005,-0.000677542 8.91503e-005,-0.00137291 0.00014264,-0.00206829 0.0415262,-0.597664 0.38167,-0.902094 0.962984,-0.963483 0.000713202,-7.13202e-005 0.0014264,-0.00014264 0.00213961,-0.000231791 0.00114112,0.32194 -0.00121244,0.643861 -7.13202e-005,0.965783 -0.321726,0 -0.643469,0 -0.965195,0z"/>
  <polygon class="fil0 str0" points="0.00755995,1.21517 0.00755995,1.21367 0.00755995,0.00755995 0.00896852,0.00755995 1.21494,0.00755995 0.00903984,1.21369 "/>
  <path class="fil0 str0" d="M0.5221 1.66813l-0.000320941 0 -0.264081 0c-0.000213961,-0.00618703 0.000445752,-0.00859409 0.00388695,-0.0138005 0.0851564,-0.128519 0.193634,-0.218811 0.314219,-0.289204 0.0395827,-0.0231078 0.0354283,-0.00955691 0.0192565,0.0208255 -0.0444147,0.0833734 -0.0750289,0.194776 -0.0729606,0.282179z"/>
  <path class="fil0 str0" d="M1.66781 0.522207l0 -0.000320941 0 -0.264152c-0.00618703,-0.000196131 -0.00861192,0.000463582 -0.0138005,0.00390478 -0.128501,0.0851742 -0.218775,0.19367 -0.289168,0.314291 -0.0230899,0.0395827 -0.00953908,0.0354283 0.0208433,0.0192565 0.0833555,-0.0444147 0.194722,-0.0750646 0.282125,-0.0729784z"/>
  <path class="fil0 str0" d="M0.00755995 0.00757778c0,0.000374431 1.78301e-005,0.000748863 1.78301e-005,0.00114112 0,0.330231 0.00174735,0.661781 0.00174735,0.992029 0,0.000392261 0,0.000820183 0,0.00121244 0.0696977,-0.0231434 0.212748,-0.170937 0.301007,-0.306748 0.10329,-0.183079 0.0605687,-0.372987 -0.221949,-0.440367 0,-0.0556833 -0.00135508,-0.111812 -0.00176518,-0.168316 0.0557368,0 0.111474,0 0.167228,0 0.0674511,0.282214 0.257573,0.324882 0.440848,0.221717 0.135954,-0.0881697 0.28389,-0.23106 0.307069,-0.300668 -0.33139,0 -0.662797,0 -0.994204,0z"/>
  <path class="fil0 str0" d="M1.66781 1.66813l0 -0.00101631 0 -0.829348c-0.372327,0.0159222 -0.452687,0.257109 -0.201551,0.590621 0.0014799,0.00196131 0.00114112,0.00604439 -5.34902e-005,0.00805919 -0.00741731,0.0123384 -0.0172417,0.022555 -0.0300971,0.0301328 -0.00206829,0.00123027 -0.00613354,0.00135508 -0.00813051,-0.00014264 -0.333386,-0.251065 -0.574449,-0.170652 -0.590371,0.201694l0.830203 0z"/>
  <path class="fil0 str0" d="M1.48705 1.66813c0,-0.00012481 1.78301e-005,-0.000249621 1.78301e-005,-0.000374431 0.00779174,-0.112098 0.0715877,-0.169189 0.180601,-0.180708 0.00014264,0 0.000267451,-1.78301e-005 0.000410091,-3.56601e-005 0.000213961,0.0603726 -0.000231791,0.120745 -1.78301e-005,0.181118 -0.0603369,0 -0.120674,0 -0.181011,0z"/>
  <polygon class="fil0 str0" points="0.00896852,0.00755995 1.66781,0.00755995 1.66781,1.66711 0.00959257,1.66611 "/>
 </g>
</svg>
