<?xml version="1.0" encoding="UTF-8"?>
<!DOCTYPE svg PUBLIC "-//W3C//DTD SVG 1.1//EN" "http://www.w3.org/Graphics/SVG/1.1/DTD/svg11.dtd">
<!-- Creator: CorelDRAW -->
<svg xmlns="http://www.w3.org/2000/svg" xml:space="preserve" width="110px" height="110px" style="shape-rendering:geometricPrecision; text-rendering:geometricPrecision; image-rendering:optimizeQuality; fill-rule:evenodd; clip-rule:evenodd"
viewBox="0 0 1.83146 1.83132"
 xmlns:xlink="http://www.w3.org/1999/xlink">
 <defs>
  <style type="text/css">
   <![CDATA[
    .str0 {stroke:#4C4C4C;stroke-width:0.0164016}
    .fil0 {fill:white}
   ]]>
  </style>
 </defs>
 <g id="Capa_x0020_1">
  <metadata id="CorelCorpID_0Corel-Layer"/>
  <g id="_156333704">
   <polygon id="_113161024" class="fil0 str0" points="0.019771,0.0196354 1.82325,0.0196354 1.82325,1.82311 0.019771,1.82311 "/>
   <polygon id="_113169376" class="fil0 str0" points="1.82323,1.82311 0.0197903,1.82311 1.82323,0.019771 "/>
   <polygon id="_156335336" class="fil0 str0" points="1.82325,1.82311 0.341122,1.82311 1.82325,0.341083 "/>
   <path id="_156326840" class="fil0 str0" d="M1.82325 0.892463l0 0.93063 -0.930649 0c0,-0.51389 0.41674,-0.93063 0.930649,-0.93063z"/>
   <path id="_156326600" class="fil0 str0" d="M1.82323 1.82311l-0.241221 -1.93643e-005c0.0234889,-0.278924 -0.328942,-0.445612 -0.280221,-0.191397 -0.0744171,-0.0123351 -0.148757,-0.117135 -0.0363081,-0.227705 -0.197807,-0.128792 0.0098758,-0.3363 0.13859,-0.13859 0.11057,-0.112468 0.21537,-0.038109 0.227705,0.0363081 -0.254215,-0.04874 -0.0875267,0.303691 0.191416,0.280221l3.87286e-005 0.241183z"/>
   <polygon id="_156336536" class="fil0 str0" points="0.019771,1.37353 0.019771,0.0196354 1.37374,0.0196354 "/>
   <path id="_156337016" class="fil0 str0" d="M0.0197903 0.0196548c0,0.359712 0,0.719404 0,1.07912 0.0756564,-0.0251543 0.232837,-0.184348 0.328632,-0.331924 0.112139,-0.19893 0.0657612,-0.405276 -0.240912,-0.478492 0,-0.0605135 -0.00147169,-0.121511 -0.00191707,-0.182896 0.0605135,0 0.121008,0 0.181521,0 0.0732165,0.306653 0.279582,0.353012 0.478531,0.240892 0.147595,-0.0957953 0.308164,-0.251058 0.333318,-0.326695 -0.359712,0 -0.719443,0 -1.07917,0z"/>
  </g>
 </g>
</svg>
