<?xml version="1.0" encoding="UTF-8"?>
<!DOCTYPE svg PUBLIC "-//W3C//DTD SVG 1.1//EN" "http://www.w3.org/Graphics/SVG/1.1/DTD/svg11.dtd">
<!-- Creator: CorelDRAW -->
<svg xmlns="http://www.w3.org/2000/svg" xml:space="preserve" width="110px" height="110px" style="shape-rendering:geometricPrecision; text-rendering:geometricPrecision; image-rendering:optimizeQuality; fill-rule:evenodd; clip-rule:evenodd"
viewBox="0 0 0.363352 0.363352"
 xmlns:xlink="http://www.w3.org/1999/xlink">
 <defs>
  <style type="text/css">
   <![CDATA[
    .str0 {stroke:#4C4C4C;stroke-width:0.00327469}
    .fil0 {fill:white}
   ]]>
  </style>
 </defs>
 <g id="Plan_x0020_1">
  <metadata id="CorelCorpID_0Corel-Layer"/>
  <g id="_195263704">
   <polygon id="_202279832" class="fil0 str0" points="0.00163928,0.00163928 0.361701,0.00163928 0.361701,0.361689 0.00163928,0.361689 "/>
   <path id="_202279760" class="fil0 str0" d="M0.361705 0.361689l-0.180035 -4.25285e-005c0.0232399,-0.114715 0.0941349,-0.176346 0.179969,-0.18005l6.57259e-005 0.180093z"/>
   <path id="_202279400" class="fil0 str0" d="M0.361713 0.168799c-0.104148,0.00864102 -0.171711,0.0682969 -0.192697,0.192905 0.00421805,-1.93311e-005 0.00843611,-3.86623e-005 0.0126542,-5.79934e-005 0.0232399,-0.114715 0.0941349,-0.176346 0.179969,-0.18005 2.70636e-005,-0.00426831 5.0261e-005,-0.00853276 7.34583e-005,-0.0127972z"/>
   <path id="_202279328" class="fil0 str0" d="M0.361689 0.0146569c-7.73245e-006,-0.00415619 -1.93311e-005,-0.00830852 -1.93311e-005,-0.0124647 0,-0.000684322 -0.000100522,-0.000494877 -0.000765513,-0.000436884 -0.218059,0.0196095 -0.340897,0.13625 -0.359165,0.359451 -3.86623e-005,0.000491011 -9.27895e-005,0.000448482 0.000398221,0.000452349 0.00449642,1.93311e-005 0.00899284,3.86623e-005 0.0134854,5.79934e-005 0.0168761,-0.198051 0.119115,-0.324705 0.346066,-0.34706z"/>
   <path id="_202279256" class="fil0 str0" d="M0.361693 0.124299c-7.73245e-006,-0.0038469 -1.93311e-005,-0.00769379 -2.70636e-005,-0.0115446 -0.0399613,0.0458071 -0.0818442,0.0290006 -0.100889,-0.0100251 -0.0194123,-0.0921631 0.124713,-0.0447748 0.0649565,0.00806108 0.0106747,-0.0255287 -0.00712932,-0.040116 -0.0276667,-0.0484825 -0.00179006,0.00286487 -0.00202977,0.00748115 -0.000715252,0.010346 -0.0167176,-0.00478252 -0.0236845,-0.00313551 -0.0279296,0.0014305 0.012658,0.0403441 0.0317263,0.0546762 0.0537096,0.0494142 0.0440209,-0.0100019 0.0409704,-0.0856872 -0.0243456,-0.0866537 -0.0784264,0.00456215 -0.0609047,0.0840866 -0.00358399,0.110999 -0.0155577,0.0115175 -0.0630852,-0.0481036 -0.0912894,-0.0519737 -0.0995824,-0.0138798 -0.087659,0.0826174 -0.0791533,0.104253 0.0173864,0.0290354 0.0398105,0.0578117 0.0307945,0.0909491 -0.0151595,-0.0588788 -0.0416547,-0.0783646 -0.0759134,-0.0708989 -0.0735434,0.0197255 -0.0411173,0.125969 0.00429538,0.121744 0.0319428,0.0017514 0.0457877,-0.0171081 0.0415387,-0.0565745 -0.010404,-0.0166673 -0.0250995,-0.0283278 -0.0415387,-0.0379548 -0.0112159,0.00156969 -0.0100715,0.0119698 -0.00716025,0.0236342 0.00336748,0.00216895 0.00202204,0.00658805 0.00237386,0.00874154 -0.00715639,0.00192151 -0.00895418,0.0117495 -0.00393969,0.0171235 0.00811908,0.00870288 0.0178581,0.0177305 0.0201856,0.0299903 -0.0349971,0.00455442 -0.0452503,-0.0246047 -0.0444036,-0.0329403 -0.00616663,-0.0564624 0.0399459,-0.0832051 0.0744829,-0.0443998 0.0341852,0.0417939 0.0144984,0.0774057 -0.0128823,0.11214 0.0038237,-7.73245e-006 0.00764353,-1.54649e-005 0.0114634,-2.31974e-005 0.0334661,-0.0285212 0.0683742,-0.0541426 0.030779,-0.136466 0.035144,0.0158477 0.092484,0.00492171 0.0902377,-0.0572898 -0.0190953,-0.0765784 -0.101883,-0.0464141 -0.102412,-0.0171892 -0.00505316,0.0268471 0.00394742,0.0390373 0.0630234,0.061589 0.00306978,-0.00872994 0.0052542,-0.0179006 0.00429538,-0.0286449 -0.00291127,-0.000239706 -0.00482119,-0.000479412 -0.00572588,-0.000715252 0.00258264,-0.0109221 0.0113358,-0.0213106 -0.0107442,-0.0343746 -0.004133,0.00114054 -0.00675817,0.00329016 -0.0078755,0.006445 -0.00325536,0.000112121 -0.00701334,-0.00161995 -0.00644887,-0.00358013 -0.00429538,-0.00340615 -0.00859076,-0.00567949 -0.01289,0 0.000239706,0.00381597 0.000479412,0.0076358 0.000715252,0.0114556 -0.018902,0.00124879 -0.0160371,-0.0231162 0.00825826,-0.0326387 0.0302146,-0.0111309 0.0670365,0.0159366 0.0597796,0.0526928 -0.0176068,0.0503653 -0.0634139,0.0433288 -0.0873729,0.0171854 -0.0144868,-0.0218635 -0.0319041,-0.0654591 0.0207694,-0.0895148 0.0358979,-0.0133462 0.0663561,0.0137019 0.0988285,0.0422501 0.0525188,0.0265571 0.0747535,0.00119853 0.094421,-0.0285598z"/>
   <ellipse id="_202279184" class="fil0 str0" cx="0.0946543" cy="0.192255" rx="0.0134075" ry="0.0124928"/>
   <ellipse id="_202279112" class="fil0 str0" cx="0.227693" cy="0.0761254" rx="0.0134075" ry="0.0124928"/>
   <path id="_202279040" class="fil0 str0" d="M0.0975256 0.0975101c-0.0180321,0.00821573 -0.0295882,0.00572202 -0.0263561,-0.018353 -0.0121516,-0.0143862 -0.0212488,-0.0246395 -0.0317804,-0.0295766 -1.15987e-005,-0.00109028 -0.00540885,-0.000626329 -0.00329789,0.00354146 0.0105896,0.0209124 0.0284709,0.045173 0.0216045,0.0844229 -0.00953412,0.0261705 -0.0251189,0.0452774 -0.0440982,0.0604253 -0.00431471,-0.0107094 -0.00390876,-0.0202358 0.00122559,-0.028583 0.00466654,-0.00458921 0.00446163,-0.00972356 0.00204137,-0.0151053 -0.0130176,-0.00960371 -0.0139648,-0.0261086 -0.00571815,-0.0363387 0.00400155,-0.00457761 0.00316257,-0.00846317 0.00163541,-0.0122482 -0.0125459,-0.017081 -0.00222695,-0.02682 0.00612024,-0.0351131 -0.000838971,0.0142896 0.00317804,0.0285792 0.0102107,0.0428687 0.00451575,0.00959211 0.0118925,0.00581094 0.0121825,-0.00185579 0.00354146,-0.0279451 -0.0123333,-0.0524802 -0.0309646,-0.0814305 -0.00598879,-0.00890392 -0.00383916,-0.01451 0.0005838,-0.0192461 0.00473613,-0.0044191 0.0103847,-0.00656485 0.0192847,-0.000576068 0.0289542,0.0186313 0.0534931,0.0345061 0.0814343,0.0309607 0.00767059,-0.000286101 0.0114479,-0.00766286 0.00185966,-0.0121786 -0.0142896,-0.00703267 -0.0285792,-0.0110497 -0.0428687,-0.0102068 0.00828919,-0.00835105 0.0180282,-0.0186739 0.0351092,-0.0061241 0.0037889,0.00152716 0.00767446,0.00236613 0.0122521,-0.00163541 0.0102262,-0.00824666 0.0267311,-0.00729944 0.0363387,0.00571815 0.00537792,0.00242026 0.0105161,0.00262517 0.0151092,-0.00204137 0.00834332,-0.00513435 0.0178697,-0.00554417 0.0285792,-0.00122559 -0.0151479,0.0189793 -0.0342586,0.0345641 -0.0604291,0.0440943 -0.0392499,0.00687029 -0.0635105,-0.011011 -0.0844229,-0.0216006 -0.00416779,-0.00211096 -0.00463174,0.00328629 -0.00354533,0.00329789 0.00494104,0.0105316 0.0151943,0.0196288 0.0295805,0.0317765 0.024075,-0.0032283 0.0265416,0.00830466 0.0183298,0.0263329z"/>
   <path id="_202278896" class="fil0 str0" d="M0.26544 0.265243c0.00801082,-0.0106824 0.00521554,-0.020433 -0.00828532,-0.0292751 0.00140731,-0.00828146 0.00588826,-0.0125304 0.0171313,-0.00790643 0.00114827,-0.00364585 0.00280301,-0.00678909 0.0070288,-0.00922482 0.00750048,-0.00298473 0.0140924,-0.000703653 0.00834332,0.00878407 -0.00846317,0.00895805 -0.00927121,0.0208312 -0.00482892,0.0347033 0.00704427,0.0160178 0.0168529,0.0308061 0.0294297,0.044365 0.00514595,0.00642567 0.0128823,0.00868741 0.00746955,-0.00395515 -0.011908,-0.0144752 -0.0216625,-0.0293601 -0.0237232,-0.0456833 -0.00627875,-0.0225788 0.00261357,-0.0557587 0.0452465,-0.0496346 0.00868355,0.00329789 0.0146801,0.00961917 0.0184458,0.0184496 7.73245e-006,0.0319118 1.15987e-005,0.0638237 1.54649e-005,0.0957317 -0.0217166,-0.0396907 -0.0558902,-0.0833172 -0.0162652,-0.103638 -0.0497119,-0.00942586 -0.0476938,0.0449024 -0.0122985,0.0860931 0.00881113,0.0123333 0.0112391,0.0231355 0.00223081,0.0311618 -0.00802629,0.00901218 -0.0188131,0.00659965 -0.0311463,-0.00221535 -0.0411869,-0.0353914 -0.0955229,-0.0374096 -0.0860931,0.0122985 0.0203248,-0.0396211 0.0639513,-0.00544751 0.103642,0.0162652 -0.0319118,-3.86623e-006 -0.0638237,-7.73245e-006 -0.0957394,-1.15987e-005 -0.0088266,-0.00376571 -0.0151479,-0.00976609 -0.0184458,-0.0184496 -0.0061241,-0.042629 0.0270559,-0.0515213 0.0496385,-0.0452426 0.0163232,0.0020607 0.0312043,0.0118152 0.0456833,0.0237193 0.0126426,0.00541272 0.010377,-0.0023236 0.00395128,-0.00746955 -0.013555,-0.012573 -0.0283472,-0.0223816 -0.044365,-0.0294297 -0.013872,-0.00443456 -0.0257491,-0.00363425 -0.0347033,0.00483278 -0.00948772,0.00574908 -0.0117688,-0.000842838 -0.00878407,-0.00834718 0.00243186,-0.00422579 0.00557897,-0.00587667 0.00922482,-0.00702493 -0.00462787,-0.011243 -0.000375024,-0.0157239 0.00790643,-0.0171313 0.00884206,0.013497 0.0186043,0.0162459 0.0292905,0.00823506z"/>
   <path id="_202278680" class="fil0 str0" d="M0.335364 0.335194c-0.00803015,0.00901218 -0.0187976,0.00661898 -0.0311309,-0.00219602 -0.0411869,-0.0353914 -0.0955229,-0.0374096 -0.0860931,0.0122985 0.0203248,-0.0396211 0.0639513,-0.00544751 0.103642,0.0162652l0.0399304 -0.0011908 0 -0.0387744c-0.0217166,-0.0396907 -0.0558902,-0.0833172 -0.0162652,-0.103638 -0.0497119,-0.00942586 -0.0476938,0.0449024 -0.0122985,0.0860931 0.00881113,0.0123333 0.0112237,0.0231162 0.00221535,0.0311425z"/>
  </g>
 </g>
</svg>
