<?xml version="1.0" encoding="UTF-8"?>
<!DOCTYPE svg PUBLIC "-//W3C//DTD SVG 1.1//EN" "http://www.w3.org/Graphics/SVG/1.1/DTD/svg11.dtd">
<!-- Creator: CorelDRAW -->
<svg xmlns="http://www.w3.org/2000/svg" xml:space="preserve" width="110px" height="110px" style="shape-rendering:geometricPrecision; text-rendering:geometricPrecision; image-rendering:optimizeQuality; fill-rule:evenodd; clip-rule:evenodd"
viewBox="0 0 0.376339 0.376319"
 xmlns:xlink="http://www.w3.org/1999/xlink">
 <defs>
  <style type="text/css">
   <![CDATA[
    .str0 {stroke:#4C4C4C;stroke-width:0.00339174}
    .fil0 {fill:none}
   ]]>
  </style>
 </defs>
 <g id="Plan_x0020_1">
  <metadata id="CorelCorpID_0Corel-Layer"/>
  <g id="_214760184">
   <polygon id="_202277384" class="fil0 str0" points="0.00169787,0.00250276 0.374061,0.00250276 0.374061,0.374622 0.00169787,0.374622 "/>
   <polygon id="_202277312" class="fil0 str0" points="0.374642,0.373821 0.00228252,0.373821 0.00228252,0.00170588 0.374642,0.00170588 "/>
   <path id="_202277240" class="fil0 str0" d="M0.350255 0.122339c0,-4.00442e-006 -1.20133e-005,-4.00442e-006 -2.00221e-005,-4.00442e-006 -0.0492504,-0.00991094 -0.0880732,-0.0492424 -0.0971953,-0.098733 -8.00884e-006,-4.8053e-005 1.60177e-005,-0.000160177 -3.20354e-005,-0.000160177l-0.050696 -4.00442e-005c-1.20133e-005,0 -4.00442e-006,3.20354e-005 -4.00442e-006,5.20575e-005 -0.0103434,0.0933551 -0.0857547,0.16674 -0.176759,0.177548 -6.00663e-005,8.00884e-006 -0.000176194,-3.20354e-005 -0.000176194,2.00221e-005l5.60619e-005 0.0509683c0,0 8.00884e-006,4.00442e-006 1.60177e-005,4.00442e-006 0.049807,0.0095145 0.0891905,0.0490742 0.0983806,0.0989612 8.00884e-006,4.40486e-005 -1.60177e-005,0.000160177 3.20354e-005,0.000160177l0.050696 4.00442e-005c1.20133e-005,0 4.00442e-006,-3.20354e-005 4.00442e-006,-5.20575e-005 0.0100911,-0.0910565 0.0839687,-0.167261 0.17569,-0.177452 4.00442e-006,0 1.20133e-005,0 1.20133e-005,0l-4.00442e-006 -0.0513126z"/>
   <path id="_202277168" class="fil0 str0" d="M0.186029 0.189677c-0.00495347,-0.00191011 -0.0166864,-0.000872964 -0.0222606,0.00329964 -0.00460508,-0.0137191 -0.0163621,-0.0196377 -0.0330164,-0.0202223 0.0190851,0.0139874 0.0288559,0.0535591 -0.00434079,0.0497749 -0.0169267,-0.00516971 -0.0211994,-0.00221044 -0.0158935,0.0119572 0.00774054,0.0156413 -0.00607471,0.0276745 -0.0186406,0.0133027 -0.00150566,-0.00130945 -0.00694366,-0.023578 -0.00810895,0.00260287 -0.0012654,0.0158655 0.0186406,0.0123296 0.0156773,0.0165903 -0.00581041,0.00644311 -0.00766846,0.0128662 -0.00500953,0.0142277l0 0c0.0013615,0.00265894 0.0077926,0.000800884 0.0142397,-0.00500953 0.0042607,-0.00295526 0.0007248,0.0169347 0.0165983,0.0156693 0.0262009,-0.00116529 0.00391632,-0.00659928 0.00260287,-0.00810495 -0.0143799,-0.0125579 -0.00233858,-0.0263611 0.0133147,-0.0186246 0.0141756,0.00530185 0.0171389,0.00103314 0.0119652,-0.0158815 -0.00378418,-0.0331766 0.0358075,-0.0234138 0.049807,-0.00434079 -0.000584645,-0.0166424 -0.00650718,-0.0283913 -0.0202343,-0.0329924 0.00417661,-0.00557015 0.00520975,-0.0172951 0.00329964,-0.0222486l0 0z"/>
   <path id="_202277096" class="fil0 str0" d="M0.374642 0.00170588l-0.000116128 0.0703737c-0.0390831,-6.00663e-005 -0.0709463,-0.0305297 -0.0710584,-0.0695768l0.0711746 -0.00079688z"/>
   <path id="_202277024" class="fil0 str0" d="M0.00228252 0.373821l0.000116128 -0.0703737c0.0390831,6.40707e-005 0.0709543,0.0316109 0.0710705,0.070658l-0.0711866 -0.000284314z"/>
   <path id="_202276952" class="fil0 str0" d="M0.374061 0.00250276l-7.20796e-005 0.0439926c-0.024435,-4.00442e-005 -0.044393,-0.0198139 -0.0447094,-0.0441728l0.0447814 0.000180199z"/>
   <path id="_202276880" class="fil0 str0" d="M0.00228252 0.373821l7.6084e-005 -0.0439886c0.024435,4.00442e-005 0.044393,0.0198139 0.0447094,0.0441688l-0.0447854 -0.000180199z"/>
   <path id="_202276808" class="fil0 str0" d="M0.374061 0.374618l-0.152128 -4.00442e-006c0.00369608,-0.00692364 0.0116328,-0.0138393 0.021784,-0.0207549 0.000989092,-0.000232256 0.00122135,-0.000784866 0.000740818,-0.00165783 -0.00156973,-0.00240666 -0.00332367,-0.0057103 -0.00490942,-0.0195175 4.00442e-006,-0.00164181 0.000700774,-0.00185405 0.00212234,-0.000648716 0.0157974,0.0182081 0.0314307,0.0310983 0.0459147,0.00678749l4.00442e-006 -4.00442e-006c0.0137071,-0.0333048 -0.0162299,-0.0382262 -0.0375334,-0.0273902 -0.0014536,0.000496548 -0.00313546,-0.00132146 -0.00144159,-0.0033557 0.00656725,-0.00579039 0.014456,-0.0145721 0.0293604,-0.0166624l-0.0119572 -0.0247393 2.40265e-005 -3.20354e-005 0.0247553 0.0119492c0.00209431,-0.0148924 0.01088,-0.0227731 0.0166744,-0.0293404 0.00203425,-0.00169387 0.00385225,-1.20133e-005 0.0033557,0.00143759 -0.010844,0.0212955 -0.00591853,0.0512125 0.0274103,0.0375134l4.00442e-006 -4.00442e-006c0.0243269,-0.014476 0.0114246,-0.0300972 -0.0067955,-0.0458867 -0.00120133,-0.00141756 -0.000989092,-0.00211834 0.000652721,-0.00212234 0.0138153,0.00158575 0.0171189,0.00333969 0.0195296,0.00490942 0.000872964,0.00048053 0.00142557,0.000248274 0.00165783,-0.000740818 0.00691964,-0.0101432 0.0138433,-0.018076 0.0207669,-0.021768l8.00884e-006 0.152024 0 8.00884e-006z"/>
   <path id="_202276736" class="fil0 str0" d="M0.00228252 0.00170588l0.152124 8.00884e-006c-0.00369208,0.00691964 -0.0116288,0.0138393 -0.021784,0.0207549 -0.000985087,0.000232256 -0.00122135,0.000784866 -0.000740818,0.00165783 0.00157374,0.00240666 0.00332767,0.0057063 0.00491342,0.0195175 -4.00442e-006,0.00163781 -0.000700774,0.00185004 -0.00212234,0.000648716 -0.0157974,-0.0182081 -0.0314307,-0.0311023 -0.0459147,-0.0067915l-4.00442e-006 8.00884e-006c-0.0137071,0.0333048 0.0162259,0.0382262 0.0375334,0.0273902 0.0014536,-0.000496548 0.00313546,0.00131745 0.00144159,0.0033517 -0.00657125,0.0057944 -0.014456,0.0145721 -0.0293604,0.0166664l0.0119572 0.0247393 -2.40265e-005 2.80309e-005 -0.0247553 -0.0119492c-0.00209431,0.0148964 -0.01088,0.0227771 -0.0166744,0.0293404 -0.00203425,0.00169387 -0.00385225,1.60177e-005 -0.0033557,-0.00143759 0.010844,-0.0212915 0.00591853,-0.0512085 -0.0274103,-0.0375094l-4.00442e-006 4.00442e-006c-0.0243269,0.014472 -0.0114246,0.0300972 0.0067955,0.0458867 0.00120133,0.00141756 0.000989092,0.00211433 -0.000652721,0.00211834 -0.0138153,-0.00158175 -0.0171189,-0.00333568 -0.0195296,-0.00490942 -0.000872964,-0.000476526 -0.00142557,-0.00024427 -0.00165783,0.000740818 -0.00691964,0.0101472 -0.0138433,0.01808 -0.0207709,0.021772l-4.00442e-006 -0.152028 0 -8.00884e-006z"/>
   <polygon id="_202276664" class="fil0 str0" points="0.307103,0.34571 0.285103,0.374622 0.374061,0.374622 0.374061,0.285723 0.345129,0.307712 0.307107,0.307712 "/>
   <polygon id="_202276592" class="fil0 str0" points="0.0692364,0.0306138 0.0912407,0.00170588 0.00228252,0.00170588 0.00228252,0.090604 0.0312105,0.0686157 0.0692364,0.0686157 "/>
   <polygon id="_202276448" class="fil0 str0" points="0.324246,0.353118 0.307888,0.374614 0.374061,0.374622 0.374061,0.308521 0.352549,0.324867 0.324274,0.324867 "/>
   <polygon id="_202276184" class="fil0 str0" points="0.0520975,0.0232096 0.0684556,0.00170989 0.00228252,0.00170588 0.00228252,0.0678068 0.0237943,0.0514608 0.0520695,0.0514608 "/>
   <path id="_202275992" class="fil0 str0" d="M0.190835 0.184876c-0.00191411,-0.00494946 -0.000876968,-0.0166744 0.00329964,-0.0222446 -0.0137272,-0.00460108 -0.0196537,-0.01635 -0.0202343,-0.0329924 0.0139954,0.019069 0.0535912,0.0288358 0.049807,-0.00434079 -0.00517371,-0.0169147 -0.00221444,-0.0211834 0.0119652,-0.0158815 0.0156533,0.00773654 0.0276906,-0.0060707 0.0133107,-0.0186286 -0.00131345,-0.00150566 -0.023594,-0.00693966 0.00260688,-0.00810094 0.0158735,-0.0012694 0.0123376,0.0186246 0.0165983,0.0156653 0.00644712,-0.00580641 0.0128742,-0.00766446 0.0142397,-0.00500953l0 0c0.00265894,0.00136551 0.00079688,0.0077886 -0.00501353,0.0142317 -0.00295927,0.0042567 0.0169467,0.0007248 0.0156773,0.0165863 -0.00116529,0.0261849 -0.00659928,0.00391632 -0.00810895,0.00260287 -0.0125659,-0.0143679 -0.0263811,-0.00233858 -0.0186366,0.0133067 0.00530185,0.0141676 0.00102914,0.0171269 -0.0158935,0.0119572 -0.0332006,-0.00378418 -0.0234259,0.0357835 -0.00434079,0.0497709 -0.0166584,-0.000580641 -0.0284154,-0.00649917 -0.0330164,-0.0202183 -0.00557415,0.00417261 -0.0173071,0.00520575 -0.0222606,0.00329564l0 0z"/>
  </g>
 </g>
</svg>
