<?xml version="1.0" encoding="UTF-8"?>
<!DOCTYPE svg PUBLIC "-//W3C//DTD SVG 1.1//EN" "http://www.w3.org/Graphics/SVG/1.1/DTD/svg11.dtd">
<!-- Creator: CorelDRAW -->
<svg xmlns="http://www.w3.org/2000/svg" xml:space="preserve" width="110px" height="110px" style="shape-rendering:geometricPrecision; text-rendering:geometricPrecision; image-rendering:optimizeQuality; fill-rule:evenodd; clip-rule:evenodd"
viewBox="0 0 1.02601 1.02599"
 xmlns:xlink="http://www.w3.org/1999/xlink">
 <defs>
  <style type="text/css">
   <![CDATA[
    .str0 {stroke:#4C4C4C;stroke-width:0.00924676}
    .fil0 {fill:none}
   ]]>
  </style>
 </defs>
 <g id="Capa_x0020_1">
  <metadata id="CorelCorpID_0Corel-Layer"/>
  <g id="_109292592">
   <g>
    <polygon id="_109292784" class="fil0 str0" points="1.02138,0.00462884 1.02138,1.02136 0.00468342,1.02136 0.00468342,0.00462884 "/>
    <path id="_109292736" class="fil0 str0" d="M1.02137 1.0212l-1.01604 9.82536e-005c-0.00551312,-0.0404587 0.0393997,-0.0756662 0.10154,-0.0839414 -0.0159171,-0.0474565 -0.00910484,-0.0821291 0.0477294,-0.0886685 -0.0386683,0.0529587 -0.0182097,0.0938868 0.0699129,0.0937776 0.1813,-0.000567688 0.362589,-0.00113538 0.543889,-0.00170306 0.0735483,0.00375547 0.088854,-0.0783191 0.0187555,-0.0835484 -0.0250547,0.0101965 -0.0461137,0.0232534 -0.0392141,0.0562666 -0.0156332,-0.00453058 -0.021321,-0.0295416 -0.00510919,-0.0886575 -0.0212228,-0.0437665 -0.0299674,-0.0741597 -0.0110699,-0.0906444 0.0164739,-0.0188865 0.0493342,-0.0124345 0.0931008,0.00877733 0.059105,-0.0162119 0.084116,-0.0105131 0.0886575,0.00512011 -0.0330241,-0.00691051 -0.04607,0.0141594 -0.0562666,0.0392141 0.00522928,0.0700985 0.0872929,0.0547928 0.0835374,-0.0187555 0.000578605,-0.181311 0.00113538,-0.362611 0.00171398,-0.54391 0.000109171,-0.0881226 -0.0408189,-0.108581 -0.0937776,-0.069902 0.00653933,-0.0568561 0.041201,-0.0636684 0.0886575,-0.0477513 0.00827514,-0.06214 0.0435264,-0.107053 0.083985,-0.10154 0,0.338167 0,0.677601 0,1.01577z"/>
    <path id="_109292688" class="fil0 str0" d="M0.35498 0.361071c-0.115972,-0.0226093 -0.156649,-0.062009 -0.177916,-0.105896 -0.0217905,0.0675767 -0.058974,0.0864305 -0.103931,0.0806444 -0.065688,-0.0114411 -0.0481006,-0.100513 0.0304586,-0.0465941 0.0927842,-0.0785156 -0.0334827,-0.202479 -0.0989523,-0.177937l0 -0.106649 0.106682 -3.27512e-005c-0.0245416,0.0654806 0.0934611,0.196584 0.171977,0.1038 -0.0539194,-0.0785702 0.035153,-0.0961467 0.0465941,-0.0304586 0.00578605,0.0449565 -0.0130677,0.08214 -0.0806444,0.103931 0.0438757,0.0212555 0.0831008,0.0632317 0.105732,0.179193z"/>
   </g>
   <path id="_109292616" class="fil0 str0" d="M1.02136 0.915658l2.18341e-005 0.105688 -0.105546 -0.000152839c0,-0.0582753 0.04726,-0.105535 0.105524,-0.105535z"/>
  </g>
  <polygon class="fil0 str0" points="0.00462884,0.00463976 1.02137,0.0054367 1.02138,1.02136 0.00468342,1.02136 "/>
 </g>
</svg>
