<?xml version="1.0" encoding="UTF-8"?>
<!DOCTYPE svg PUBLIC "-//W3C//DTD SVG 1.1//EN" "http://www.w3.org/Graphics/SVG/1.1/DTD/svg11.dtd">
<!-- Creator: CorelDRAW -->
<svg xmlns="http://www.w3.org/2000/svg" xml:space="preserve" width="111px" height="111px" style="shape-rendering:geometricPrecision; text-rendering:geometricPrecision; image-rendering:optimizeQuality; fill-rule:evenodd; clip-rule:evenodd"
viewBox="0 0 7.95883 7.95883"
 xmlns:xlink="http://www.w3.org/1999/xlink">
 <defs>
  <style type="text/css">
   <![CDATA[
    .str0 {stroke:#4C4C4C;stroke-width:0.0717294}
    .fil0 {fill:white}
   ]]>
  </style>
 </defs>
 <g id="Capa_x0020_1">
  <metadata id="CorelCorpID_0Corel-Layer"/>
  <g id="_350991912">
   <rect id="_350991696" class="fil0 str0" x="0.0360091" y="0.0358871" width="7.88677" height="7.88703"/>
   <path id="_350991744" class="fil0 str0" d="M7.92292 2.91838c-2.61977,-0.351449 -4.74769,1.76021 -4.73617,5.00463l0.452988 -8.46864e-005c0.0408188,-1.54349 1.62793,-3.96705 4.28318,-4.16742l0 -0.837125z"/>
   <path id="_350991792" class="fil0 str0" d="M0.035907 5.04054c2.61977,0.351449 4.74769,-1.76021 4.73617,-5.00463l-0.452988 8.46864e-005c-0.0407342,1.54349 -1.62793,3.96705 -4.28318,4.16742l0 0.837125z"/>
   <path id="_350991648" class="fil0 str0" d="M4.81891 7.92301c-0.36466,-2.86333 -1.91171,-4.60872 -4.78292,-5.00463l0 0.837125c3.11553,0.225012 4.38574,2.3022 4.28191,4.16742l0.501005 8.46864e-005z"/>
   <path id="_350991888" class="fil0 str0" d="M3.13992 0.035907c0.36466,2.86333 1.91171,4.60872 4.78292,5.00463l0 -0.837125c-3.11553,-0.225012 -4.38566,-2.3022 -4.28191,-4.16742l-0.501005 -8.46864e-005z"/>
  </g>
 </g>
</svg>
