<?xml version="1.0" encoding="UTF-8"?>
<!DOCTYPE svg PUBLIC "-//W3C//DTD SVG 1.1//EN" "http://www.w3.org/Graphics/SVG/1.1/DTD/svg11.dtd">
<!-- Creator: CorelDRAW -->
<svg xmlns="http://www.w3.org/2000/svg" xml:space="preserve" width="111px" height="111px" style="shape-rendering:geometricPrecision; text-rendering:geometricPrecision; image-rendering:optimizeQuality; fill-rule:evenodd; clip-rule:evenodd"
viewBox="0 0 583.172 583.172"
 xmlns:xlink="http://www.w3.org/1999/xlink">
 <defs>
  <style type="text/css">
   <![CDATA[
    .str0 {stroke:#4C4C4C;stroke-width:5.25587}
    .fil0 {fill:white}
   ]]>
  </style>
 </defs>
 <g id="Capa_x0020_1">
  <metadata id="CorelCorpID_0Corel-Layer"/>
  <g id="_350993616">
   <rect id="_350992224" class="fil0 str0" x="2.62841" y="2.62841" width="577.916" height="577.916"/>
   <polygon id="_350992272" class="fil0 str0" points="580.547,185.128 550.216,75.8409 451.496,131.676 507.331,32.9562 398.044,2.63104 580.541,2.63104 "/>
   <polygon id="_350992176" class="fil0 str0" points="185.128,2.63104 75.8409,32.9562 131.676,131.676 32.9562,75.8409 2.63104,185.128 2.63104,2.63104 "/>
   <polygon id="_350992368" class="fil0 str0" points="2.63104,398.044 32.9562,507.331 131.676,451.496 75.8409,550.216 185.128,580.547 2.63104,580.547 "/>
   <polygon id="_350993544" class="fil0 str0" points="398.044,580.547 507.331,550.216 451.496,451.496 550.216,507.331 580.547,398.044 580.547,580.541 "/>
   <polygon id="_350994528" class="fil0 str0" points="580.541,110.324 562.651,45.8322 504.39,78.7822 537.34,20.5271 472.848,2.63104 580.541,2.63104 "/>
   <polygon id="_350993904" class="fil0 str0" points="110.324,2.63104 45.8322,20.5271 78.7822,78.7822 20.5271,45.8322 2.63104,110.324 2.63104,2.63104 "/>
   <polygon id="_350993760" class="fil0 str0" points="2.63104,472.848 20.5271,537.34 78.7822,504.39 45.8322,562.645 110.324,580.541 2.63104,580.541 "/>
   <polygon id="_350993520" class="fil0 str0" points="472.848,580.541 537.34,562.651 504.39,504.39 562.645,537.34 580.541,472.848 580.541,580.541 "/>
  </g>
 </g>
</svg>
